<?xml version="1.0" encoding="UTF-8"?>
<svg version="1.1" xmlns="http://www.w3.org/2000/svg" width="192" height="192">
<path d="M0 0 C21.17025368 16.38894469 36.07420937 38.39598446 39.87109375 65.22265625 C41.86698729 93.60087359 37.01626151 119.14327706 18.3046875 141.3125 C2.12082269 159.87540169 -20.24013244 173.68317751 -45.27734375 175.4440918 C-74.51062385 176.4416477 -99.09547407 170.93747007 -121.31640625 150.91015625 C-139.22929826 134.14977459 -151.61588833 111.59730701 -152.46484375 86.71875 C-152.84662879 57.0855552 -146.00461057 32.82134496 -124.96484375 11.03515625 C-91.74981745 -21.9053657 -38.50962312 -27.11871696 0 0 Z " fill="#000000" transform="translate(152.12890625,16.77734375)"/>
<path d="M0 0 C0.96486328 -0.00386719 1.92972656 -0.00773437 2.92382812 -0.01171875 C3.92994141 -0.00011719 4.93605469 0.01148438 5.97265625 0.0234375 C6.97490234 0.01183594 7.97714844 0.00023437 9.00976562 -0.01171875 C9.97591797 -0.00785156 10.94207031 -0.00398438 11.9375 0 C13.25995728 0.00507568 13.25995728 0.00507568 14.60913086 0.01025391 C17.59371469 0.48781135 18.94254929 1.21942074 21.03515625 3.3984375 C21.55273438 5.69506836 21.55273438 5.69506836 21.56640625 8.36328125 C21.57414062 9.81057617 21.57414062 9.81057617 21.58203125 11.28710938 C21.5665625 12.29322266 21.55109375 13.29933594 21.53515625 14.3359375 C21.550625 15.33818359 21.56609375 16.34042969 21.58203125 17.37304688 C21.56048322 21.41060819 21.54092375 24.45895705 19.609375 28.046875 C15.63060666 30.13587932 11.77998961 30.03657967 7.34765625 30.0859375 C5.61449066 30.12783821 3.8814045 30.17321926 2.1484375 30.22265625 C1.38313721 30.23385498 0.61783691 30.24505371 -0.1706543 30.2565918 C-1.98770583 30.20490675 -1.98770583 30.20490675 -2.96484375 31.3984375 C-3.21640644 35.03742925 -3.15006601 38.68927423 -3.15234375 42.3359375 C-3.17071289 43.87797852 -3.17071289 43.87797852 -3.18945312 45.45117188 C-3.19138672 46.43279297 -3.19332031 47.41441406 -3.1953125 48.42578125 C-3.19942139 49.33062256 -3.20353027 50.23546387 -3.20776367 51.16772461 C-3.17825672 53.60262528 -3.17825672 53.60262528 -0.96484375 55.3984375 C2.11161365 55.71078642 2.11161365 55.71078642 5.72265625 55.6640625 C6.38096436 55.66597595 7.03927246 55.6678894 7.7175293 55.66986084 C9.10954165 55.671222 10.50156672 55.66753033 11.89355469 55.65917969 C14.02698214 55.6484785 16.15956756 55.65907656 18.29296875 55.671875 C19.64453311 55.67055339 20.99609695 55.66799097 22.34765625 55.6640625 C23.58128906 55.66180664 24.81492188 55.65955078 26.0859375 55.65722656 C29.15585203 55.70613517 29.15585203 55.70613517 31.03515625 53.3984375 C31.34418292 51.44135117 31.34418292 51.44135117 31.30639648 49.17993164 C31.3165831 48.30885269 31.32676971 47.43777374 31.33726501 46.54029846 C31.33940506 45.59758591 31.3415451 44.65487335 31.34375 43.68359375 C31.36890705 41.69856473 31.39430512 39.71353876 31.41992188 37.72851562 C31.44869969 34.59025843 31.47270931 31.45205404 31.49145508 28.3137207 C31.51305853 25.29089967 31.55249266 22.2687009 31.59375 19.24609375 C31.59386581 18.30540543 31.59398163 17.3647171 31.59410095 16.39552307 C31.60743973 15.52129196 31.6207785 14.64706085 31.63452148 13.74633789 C31.63959213 12.97737686 31.64466278 12.20841583 31.64988708 11.41615295 C32.14948113 8.79970006 32.86931803 7.93222489 35.03515625 6.3984375 C37.19799805 6.01748657 37.19799805 6.01748657 39.734375 6.01025391 C40.68546143 6.00079742 41.63654785 5.99134094 42.61645508 5.9815979 C43.64150146 5.98767059 44.66654785 5.99374329 45.72265625 6 C46.77670654 5.99712982 47.83075684 5.99425964 48.91674805 5.99130249 C51.14600156 5.98926037 53.37527292 5.99480052 55.60449219 6.00732422 C59.02189093 6.02337519 62.4381069 6.00747991 65.85546875 5.98828125 C68.01953387 5.99026365 70.18359825 5.99410727 72.34765625 6 C73.88522583 5.99089096 73.88522583 5.99089096 75.45385742 5.9815979 C76.88048706 5.99578262 76.88048706 5.99578262 78.3359375 6.01025391 C79.17294189 6.01264069 80.00994629 6.01502747 80.87231445 6.01748657 C83.03515625 6.3984375 83.03515625 6.3984375 84.80459595 7.63572693 C86.38111273 9.89400131 86.41531801 11.24670919 86.42333984 13.98999023 C86.43279633 14.91782822 86.44225281 15.8456662 86.45199585 16.80162048 C86.44592316 17.80165604 86.43985046 18.80169159 86.43359375 19.83203125 C86.43646393 20.86151382 86.43933411 21.8909964 86.44229126 22.95167542 C86.44433343 25.12965443 86.43879291 27.30765173 86.42626953 29.4855957 C86.41023487 32.81959099 86.42610512 36.15237092 86.4453125 39.48632812 C86.44332978 41.60156518 86.4394855 43.71680147 86.43359375 45.83203125 C86.43966644 46.83004257 86.44573914 47.82805389 86.45199585 48.85630798 C86.43781113 50.2527932 86.43781113 50.2527932 86.42333984 51.67749023 C86.42095306 52.49450912 86.41856628 53.31152802 86.41610718 54.15330505 C85.93186162 57.00720388 85.08340974 58.36238164 83.03515625 60.3984375 C81.0174408 60.90396118 81.0174408 60.90396118 78.68725586 60.91259766 C77.81302475 60.9258609 76.93879364 60.93912415 76.03807068 60.95278931 C74.62703819 60.9452211 74.62703819 60.9452211 73.1875 60.9375 C71.73604332 60.95518936 71.73604332 60.95518936 70.25526428 60.97323608 C67.16089844 61.00858493 64.06720777 61.01767618 60.97265625 61.0234375 C57.87473649 61.03975118 54.77712099 61.06172469 51.67933655 61.09506226 C49.75073598 61.1147725 47.8219955 61.12401855 45.89329529 61.12197876 C44.58667686 61.13241714 44.58667686 61.13241714 43.25366211 61.14306641 C42.10141396 61.14495468 42.10141396 61.14495468 40.92588806 61.1468811 C38.79265783 61.23582026 38.79265783 61.23582026 37.03515625 63.3984375 C36.82627099 65.94021947 36.73408181 68.38200736 36.7265625 70.92578125 C36.70140453 72.45508197 36.67600647 73.98437876 36.65039062 75.51367188 C36.62162653 77.92764284 36.59761268 80.34154553 36.57885742 82.75561523 C36.55722562 85.08353034 36.51779094 87.41064292 36.4765625 89.73828125 C36.47644669 90.46023178 36.47633087 91.18218231 36.47621155 91.92601013 C36.37677985 96.95040768 36.37677985 96.95040768 34.7464447 99.08854675 C31.77774141 101.36091467 28.12720525 100.82392843 24.53515625 100.796875 C23.28702148 100.80118027 23.28702148 100.80118027 22.01367188 100.80557251 C20.25520141 100.80761312 18.49670824 100.80208343 16.73828125 100.78955078 C14.04505712 100.77349652 11.35333365 100.78939895 8.66015625 100.80859375 C6.9518196 100.80661132 5.24348389 100.80276764 3.53515625 100.796875 C2.72884766 100.80294769 1.92253906 100.80902039 1.09179688 100.8152771 C-4.51247719 100.74469752 -4.51247719 100.74469752 -6.6761322 99.08854675 C-8.79904267 96.30440888 -8.40571033 93.10238897 -8.40625 89.73828125 C-8.41945786 88.99260391 -8.43266571 88.24692657 -8.4462738 87.47865295 C-8.48716582 85.09770957 -8.50884374 82.71715266 -8.52734375 80.3359375 C-8.55111121 77.95126881 -8.57918545 75.56696526 -8.61912537 73.18251038 C-8.64352826 71.69910919 -8.65834953 70.21551375 -8.66273499 68.73191833 C-8.59921515 64.61212733 -8.59921515 64.61212733 -10.96484375 61.3984375 C-13.42165903 61.09297423 -13.42165903 61.09297423 -16.26953125 61.125 C-17.32785156 61.104375 -18.38617188 61.08375 -19.4765625 61.0625 C-21.71086117 61.03654996 -23.94526259 61.01826595 -26.1796875 61.0078125 C-27.77103516 60.97300781 -27.77103516 60.97300781 -29.39453125 60.9375 C-30.85221924 60.92517334 -30.85221924 60.92517334 -32.33935547 60.91259766 C-35.78668853 60.23749226 -36.93650973 59.25128797 -38.96484375 56.3984375 C-39.46655273 53.42163086 -39.46655273 53.42163086 -39.4609375 49.98828125 C-39.46158203 48.75142578 -39.46222656 47.51457031 -39.46289062 46.24023438 C-39.44291016 44.95181641 -39.42292969 43.66339844 -39.40234375 42.3359375 C-39.40943359 41.04365234 -39.41652344 39.75136719 -39.42382812 38.41992188 C-39.36008285 29.0199455 -39.36008285 29.0199455 -37.77758789 26.53149414 C-35.28582012 24.97401344 -33.45611179 25.01357956 -30.52734375 24.9921875 C-29.46773437 24.97027344 -28.408125 24.94835937 -27.31640625 24.92578125 C-23.96484375 24.8984375 -23.96484375 24.8984375 -20.61328125 24.87109375 C-19.55367187 24.84917969 -18.4940625 24.82726562 -17.40234375 24.8046875 C-16.43167969 24.79759766 -15.46101563 24.79050781 -14.4609375 24.78320312 C-11.94532063 24.58330009 -11.94532063 24.58330009 -10.15039062 23.13085938 C-8.70643108 21.02082293 -8.583654 19.81591344 -8.55859375 17.2734375 C-8.53667969 16.48453125 -8.51476562 15.695625 -8.4921875 14.8828125 C-8.48316406 14.06296875 -8.47414063 13.243125 -8.46484375 12.3984375 C-8.44695631 10.77323548 -8.41622358 9.14811127 -8.37109375 7.5234375 C-8.36400391 6.80414063 -8.35691406 6.08484375 -8.34960938 5.34375 C-7.41330332 0.60993867 -4.36542837 0.01677628 0 0 Z " fill="#01F5A0" transform="translate(71.96484375,45.6015625)"/>
</svg>
