<svg width="600" height="600" viewBox="0 0 600 600" fill="none" xmlns="http://www.w3.org/2000/svg">
<rect width="600" height="600" rx="300" fill="black"/>
<path d="M214.877 475C204.755 475 196.528 466.764 196.528 456.633V361.645C196.528 351.501 188.312 343.278 178.179 343.278H114.349C104.227 343.278 96 335.042 96 324.91V248.775C96 238.644 104.227 230.408 114.349 230.408H178.179C188.312 230.408 196.528 222.184 196.528 212.041V167.367C196.528 157.236 204.755 149 214.877 149H271.734C281.856 149 290.083 157.236 290.083 167.367V224.282C290.083 234.413 281.856 242.649 271.734 242.649H227.105C216.972 242.649 208.756 250.873 208.756 261.016V312.669C208.756 322.813 216.972 331.037 227.105 331.037H309.769C319.903 331.037 328.118 322.813 328.118 312.669V186.588C328.118 176.456 336.346 168.22 346.467 168.22H484.651C494.773 168.22 503 176.456 503 186.588V324.91C503 335.03 494.773 343.278 484.651 343.278H358.696C348.562 343.278 340.347 351.501 340.347 361.645V456.633C340.347 466.764 332.119 475 321.998 475H214.877Z" fill="#02F8A2"/>
</svg>
