<?xml version="1.0" encoding="UTF-8"?>
<svg id="icon" xmlns="http://www.w3.org/2000/svg" version="1.1" viewBox="250 420 1400 1400">
  <!-- Generator: Adobe Illustrator 30.1.0, SVG Export Plug-In . SVG Version: 2.1.1 Build 136)  -->
  <defs>
    <style>
      .st0 {
        fill: #02f8a2;
      }
    </style>
  </defs>
  <path id="icon1" data-name="icon" class="st0" d="M778.92,1425.89c-26.48,0-48.02-21.54-48.02-48.02v-248.39c0-26.52-21.5-48.02-48.02-48.02h-167.09c-26.48,0-48.02-21.54-48.02-48.02v-199.1c0-26.48,21.54-48.02,48.02-48.02h167.09c26.52,0,48.02-21.5,48.02-48.02v-116.83c0-26.48,21.54-48.02,48.02-48.02h148.84c26.48,0,48.02,21.54,48.02,48.02v148.84c0,26.48-21.54,48.02-48.02,48.02h-116.83c-26.52,0-48.02,21.5-48.02,48.02v135.08c0,26.52,21.5,48.02,48.02,48.02h216.38c26.52,0,48.02-21.5,48.02-48.02v-329.71c0-26.48,21.54-48.02,48.02-48.02h361.72c26.48,0,48.02,21.54,48.02,48.02v361.72c0,26.48-21.54,48.02-48.02,48.02h-329.71c-26.52,0-48.02,21.5-48.02,48.02v248.39c0,26.48-21.54,48.02-48.02,48.02h-280.4Z"/>
</svg>