<svg width="161" height="48" viewBox="0 0 161 48" fill="none" xmlns="http://www.w3.org/2000/svg">
<path d="M48.1897 17.8389V35.6262H54.8922L54.7891 17.942L54.6344 0.309344L51.4378 0.15467L48.1897 0V17.8389ZM113.668 17.8389V35.6262H120.319L120.473 29.6971L120.628 23.8195L124.753 29.5424C127.021 32.6874 129.032 35.5231 129.238 35.7809C129.547 36.2965 133.981 34.956 135.012 34.0795C135.219 33.8217 133.311 31.0376 130.682 27.8926L125.99 22.0666L127.691 20.2105C128.619 19.1794 130.475 17.1686 131.867 15.7766L134.291 13.1472L131.764 12.0644L129.186 10.9817L124.907 15.9828L120.628 20.9323L120.37 10.6208L120.112 0.309344L116.916 0.15467L113.668 0V17.8389ZM142.127 5.5682C140.014 6.39312 140.478 9.84748 142.695 9.84748C144.963 9.84748 145.891 7.6305 144.293 6.03222C143.468 5.15575 143.21 5.10419 142.127 5.5682ZM143.983 6.34157C144.757 7.11493 144.808 8.30075 144.035 8.30075C143.726 8.30075 143.571 7.93985 143.777 7.52739C143.932 7.11493 143.674 6.5478 143.159 6.29001C142.695 5.98066 142.54 5.72288 142.849 5.72288C143.107 5.72288 143.623 5.98066 143.983 6.34157ZM142.488 8.35231C142.798 7.83673 143.004 7.88829 143.262 8.55854C143.468 9.17723 143.313 9.38346 142.643 9.22879C142.127 9.12567 141.766 8.55854 141.715 7.78518L141.663 6.49624L141.87 7.73362C142.024 8.6101 142.231 8.76477 142.488 8.35231ZM6.22194 11.3942C4.10809 12.0644 2.35513 13.869 1.788 16.0859C0.963082 19.0763 2.04579 21.0354 6.47973 24.5929C9.57318 27.0677 10.3465 27.9957 10.4497 29.2846C10.759 32.4812 6.78907 33.4092 3.64407 30.9345L2.30358 29.9033L1.32398 31.5532C0.756851 32.4812 0.447508 33.4608 0.60218 33.7186C1.27243 34.8528 5.29391 36.1418 8.12957 36.1418C13.8524 36.1418 17.2552 33.4092 17.2552 28.8206C17.2552 26.449 17.1006 26.0365 15.0383 24.0773C13.8524 22.9431 11.7386 21.087 10.3981 20.0043C7.71711 17.8389 7.35621 16.4468 9.21228 15.261C10.4497 14.4361 12.7182 14.5908 14.0587 15.6735C14.4196 15.9313 14.7805 16.0859 14.8836 15.9828C15.6054 15.0032 16.7397 13.1472 16.7397 12.8894C16.7397 12.6831 15.657 12.1676 14.3165 11.7035C11.7386 10.8271 8.59358 10.724 6.22194 11.3942ZM30.6602 11.7035C29.6806 12.116 28.3401 12.9925 27.7214 13.5596L26.5356 14.6423V11.3942H20.3487V48H26.5356V32.8937L27.7214 33.9248C29.5775 35.6778 30.9695 36.1418 33.8567 36.1418C40.2499 36.0902 44.5807 31.7594 45.4056 24.5414C45.8181 21.1901 44.5807 16.7562 42.6731 14.4361C39.9405 11.188 34.6301 10.0022 30.6602 11.7035ZM35.7644 15.8281C39.889 18.7154 39.0125 29.8518 34.5785 31.9656C33.238 32.5843 32.7225 32.5843 30.9695 31.9656C27.2574 30.6767 25.5044 25.1085 27.0512 19.5403C28.1339 15.725 32.774 13.7143 35.7644 15.8281ZM96.6537 11.652C95.6741 12.116 94.3336 12.9925 93.7149 13.5596L92.5291 14.6423V11.3426L89.3326 11.4973L86.0844 11.652L85.9298 23.6133L85.8267 35.6262H92.5291V27.8926C92.5291 17.4264 93.354 15.5188 97.9427 15.5188C102.222 15.5188 102.841 17.0655 102.841 27.6864V35.6262H109.646L109.44 26.1912C109.234 15.8797 108.873 14.5392 105.831 12.2707C103.923 10.8786 99.1285 10.5693 96.6537 11.652ZM58.6043 21.0354C58.7074 29.1815 58.9137 30.986 59.687 32.4296C61.0791 34.956 63.3476 36.1418 66.8535 36.1418C70.2047 36.1418 72.1639 35.5231 73.8653 33.9764L74.9996 32.8937V34.2342C74.9996 35.6262 75.0511 35.6262 78.3508 35.6262H81.7021V11.3942H74.9996V19.6434C74.9996 30.4705 74.5356 31.5016 69.6376 31.5016C65.7708 31.5016 65.513 30.8314 65.3068 20.3652L65.1521 11.3942H58.3981L58.6043 21.0354ZM140.993 14.0752L141.045 16.2922L148.366 19.7981L155.687 23.3555L148.366 27.0161L140.993 30.7282V35.1106L150.789 30.2127L160.585 25.3147V21.4479L151.047 16.6531C145.788 14.0752 141.406 11.9098 141.251 11.9098C141.096 11.9098 140.993 12.8894 140.993 14.0752Z" fill="white"/>
</svg>
