<svg width="49" height="48" viewBox="0 0 49 48" fill="none" xmlns="http://www.w3.org/2000/svg">
<path d="M0.704342 47.5571C0.595145 47.2731 0.553946 36.4542 0.612744 23.519L0.719941 0H24.6515H48.5832V23.9314V47.8631L24.743 47.9711C5.89052 48.0551 0.861417 47.9655 0.704342 47.5571ZM47.139 24.1377V1.44396H24.6516H2.16414V24.1377V46.8315H24.6516H47.139V24.1377ZM14.3929 38.3874C12.4772 37.7046 10.6114 36.0106 9.59094 34.0275C8.31813 31.554 7.94074 28.0484 7.94074 18.6983V9.69654H10.4164H12.8921V19.4483C12.8921 30.1212 13.1293 31.6723 15.0414 33.5043C16.1034 34.5219 16.5598 34.6595 18.8688 34.6595C21.0921 34.6595 21.6604 34.5035 22.6085 33.6279C24.7088 31.6899 24.8579 30.7748 24.8579 19.8187V9.69654H27.2304H29.603L29.395 20.7342C29.1958 31.2996 29.145 31.8567 28.2092 33.7443C27.0622 36.0578 25.0295 37.8622 22.8271 38.5222C20.7112 39.1561 16.3519 39.0841 14.3929 38.3874ZM36.8237 28.264V17.5359H39.0931H41.3624V28.264V38.9922H39.0931H36.8237V28.264ZM37.5229 12.9513C36.4175 12.3085 35.9028 10.6489 36.4728 9.56614C37.1308 8.31618 37.6233 8.05938 39.3791 8.05218C42.059 8.05218 43.1641 10.9317 41.1005 12.5549C39.9132 13.4884 38.6812 13.6256 37.5229 12.9513Z" fill="white"/>
</svg>
