<svg width="1280" height="637" viewBox="0 0 1280 637" fill="none" xmlns="http://www.w3.org/2000/svg">
<mask id="mask0_1717_5684" style="mask-type:alpha" maskUnits="userSpaceOnUse" x="0" y="0" width="1280" height="637">
<mask id="mask1_1717_5684" style="mask-type:alpha" maskUnits="userSpaceOnUse" x="0" y="0" width="1280" height="637">
<g clip-path="url(#clip0_1717_5684)">
<path d="M1053.9 635.61L1035.61 590.71L993.03 584.43L950.28 577.61L907.23 571.27L863.77 566.75L820.05 563.5L776.22 560.05L732.2 558.16L688.06 558.91L643.95 562.53L600.01 568.48L556.32 575.44L512.84 581.38L469.67 588.67L426.81 596.35L383.9 601.02L340.54 600.79L296.38 595.21L251.3 585.2L205.47 573.19L159.53 562.8L113.66 554.49L68.26 549.42L23.77 548.59L0.5 550.4" stroke="white" stroke-linecap="round" stroke-linejoin="round"/>
<path d="M136.16 603.09L159.53 562.8L180.57 524.72L199.98 490.6L217.89 459.64" stroke="white" stroke-linecap="round" stroke-linejoin="round"/>
<path d="M1145.02 635.41L1099.34 636.09L1053.9 635.61L1008.65 633.82L963.48 630.93L918.26 627.49L872.87 624.41L827.41 620.68L781.94 614.72L736.24 608.71L690.27 604.25L644.12 602.28L597.94 603.05L551.88 606.1L506 610.36L460.54 617.74L415.49 626.48L370.53 632.94L325.22 634.95L279.16 631.72L232.16 623.83L184.32 613.23L136.16 603.09L87.9301 594.33L40.0601 588.35" stroke="white" stroke-linecap="round" stroke-linejoin="round"/>
<path d="M184.32 613.23L205.47 573.19L224.21 533.57L241.18 495.87L256.72 460.5L271.12 427.95L284.62 398.71L297.95 377.49L311.6 367.79L324.04 357.51L354.56 346.3L354.7 346.25L364.44 330.3L394.29 318.64L424.45 307.34L455.02 298.16L486 292.2L517.28 289.88L548.74 290.89L580.19 292.98L611.58 293.68L642.96 293.1L674.36 291.52L705.81 289.38L737.32 287.26L768.83 285.92L800.27 286.34L831.25 293.1L837.94 309.88L844.48 335.91L851.02 369.28L858.16 402.97L866.31 433.27L875.42 462.54L885.4 493.28L896.08 528.38L907.23 571.27L918.26 627.49" stroke="white" stroke-linecap="round" stroke-linejoin="round"/>
<path d="M137.2 518.65L180.57 524.72L224.21 533.57L267.86 544.52L310.98 554.34L353.36 560.86L395.08 563.1L436.36 561.22L477.52 556.55L518.83 551.59L560.31 546.6L601.92 539.4L643.79 532L685.89 525.9L728.12 522.02L770.35 520.67L812.47 521.54L854.44 523.71L896.08 528.38L937.24 535.61L977.98 544.04L993.03 584.43L1008.65 633.82" stroke="white" stroke-linecap="round" stroke-linejoin="round"/>
<path d="M232.16 623.83L251.3 585.2L267.86 544.52L282.5 503.23L295.69 462.61L307.9 424.49L319.55 391.27L331.37 368.26L343.49 356.79L354.7 346.25L382.75 333.6L385.39 332.41L416.45 319.07L448.05 308.48L455.02 298.16L461.48 288.14L467 271.08L471.73 247.67L476.02 222.35L480.11 198.63L484.2 179.36L488.41 167.2" stroke="white" stroke-linecap="round" stroke-linejoin="round"/>
<path d="M279.16 631.72L296.38 595.21L310.98 554.34L323.62 510.89L334.77 466.06L344.96 422.63L354.82 384.89" stroke="white" stroke-linecap="round" stroke-linejoin="round"/>
<path d="M1139.47 494.47L1121.42 458.87L1085.82 452.29L1050.24 444.46L1014.26 437.69L977.78 433.13L940.86 431.2L903.64 431.59L866.31 433.27L829.07 434.5L791.8 436.75L754.41 443.26L717.16 451.09L680.17 457.96L643.38 462.3L606.67 463.24L569.88 460.59L532.89 454.77L495.55 446.05L457.89 436.55L420.1 428.66L382.39 423.85L344.96 422.63L307.9 424.49L271.12 427.95L234.39 431.06L198.07 435.9L161.96 441.19L125.72 445.05L89.04 446.4L51.73 444.9L13.76 440.94L0.5 439.12" stroke="white" stroke-linecap="round" stroke-linejoin="round"/>
<path d="M0.5 586.57L40.06 588.35L68.26 549.42L94.4 516.03L137.2 518.65L159.17 488.13L179.47 461.1L217.89 459.64L234.39 431.06L249.58 404.13L284.62 398.71L319.55 391.27L354.82 384.89L365.02 358.85L375.48 343.96L385.39 332.41L394.29 318.64L402.01 299.28L408.56 272.99L414.39 243.65L420.01 216.74L425.66 194.98L431.34 178.48L436.93 165.57L442.85 162.15L451.62 162.27L454.1 161.56L458.75 162.36L467.82 162.48L478.14 165.18L488.41 167.2L493.03 167.47L502.17 170.91L514.45 174.99L518.31 175.86L525.58 178.81L528.5 180.14L540.46 184.3L543.46 185.17L548.14 186.57L566.13 191.89L568.38 191.8L571 192.24L591.64 194.83L593.8 193.91L595.71 188.12L596.74 174.67L597.64 155.93L598.43 133.07L599.19 111.7L600.03 97.91L600.94 92.5L602.14 91.59L602.73 89.1L603.56 86.36L603.74 86.29L614.64 82.06L622.14 79.22L622.32 79.19L622.39 79.11L622.73 78.92L623.31 79.4L631.14 76.46L631.78 75.46L637.65 72.01L640.53 70.66L641.89 70.03L642.05 69.95L659.37 64.59L661.88 63.81L676.68 62.48L677.04 62.45L677.94 62.37L681.73 62.03L682.18 62.09L685.07 62.47L694.72 63.24L700.16 62.83L700.93 62.97L702.81 63.3L704.96 63.69L707.12 63.79L712.83 63.73L714.35 63.72L716.09 63.52L717.66 63.8L723.36 64.18L723.79 64.22L732.97 64.85L734.52 65.14L735.04 65.24L735.73 65.41L748.93 68.73L750.55 69.14L753.33 70.36L755.28 73.18L757.69 77.93L760.15 84.34L779.53 90.71L782.47 98.08L785.43 107.94L788.38 120.7L791.4 134.99L794.59 149.22L798.06 161.48L801.69 174.23L805.43 188.74L809.54 200.76L814.17 208.55L819.3 213.07L844.75 210.42L870.38 206.31L896.11 201.91L903.64 209.34L911.2 221.44L918.53 240.97L925.65 267.32L933.05 295.96L941.52 320.12L950.95 342.01L961.62 360.21L973.72 374.51L987.05 387.85L1000.84 406.88L1014.26 437.69L1027.8 476.69L1042.31 518.95L1058.74 559.98L1078.2 595.74L1120.94 599.11L1145.02 635.41L1190.88 634.07L1236.99 631.94L1279.5 623.66" stroke="white" stroke-linecap="round" stroke-linejoin="round"/>
<path d="M217.89 459.64L256.72 460.5L295.69 462.61L334.77 466.06L373.88 470.87L412.94 476.77L451.86 483.23L490.57 489.43L529.02 494.33L567.24 496.38L605.34 494.85L643.49 490.3L681.82 483.56L720.4 475.77L759.2 468.34L798.09 463.03L836.83 461.82L875.42 462.54L913.92 463.89L952.21 466.57L990.19 470.89L1027.8 476.69L1065.08 483.38L1102.17 489.97L1119.7 530.79L1139.78 569.31L1163.96 600.69L1190.88 634.07" stroke="white" stroke-linecap="round" stroke-linejoin="round"/>
<path d="M1279.5 500.14L1243.12 513.03L1200.12 526.15L1158.92 532.9L1119.7 530.79L1080.97 525.61L1042.31 518.95L1003.52 511.68L964.48 504.54L925.11 498.21L885.4 493.28L845.36 490.24L805.05 489.82L764.57 492.43L724.09 497.51L683.75 504.26L643.63 511.7L603.75 518.68L564.04 523.87L524.34 525.81L484.6 525.97L444.77 525.07L404.74 522.34L364.38 517.52L323.62 510.89L282.5 503.23L241.18 495.87L199.98 490.6L159.17 488.13L118.83 488.3L79.02 490.76L39.68 494.83L0.64 499.49L0.5 499.51" stroke="white" stroke-linecap="round" stroke-linejoin="round"/>
<path d="M325.22 634.95L340.54 600.79L353.36 560.86L364.38 517.52L373.88 470.87L382.39 423.85L390.61 382.14L399.18 352.23" stroke="white" stroke-linecap="round" stroke-linejoin="round"/>
<path d="M0.5 577.06L23.77 548.59L52.44 517.3L94.4 516.03L118.83 488.3L141.38 464L179.47 461.1L198.07 435.9L214.95 411.07L230.93 390.11L246.89 378.19L261.31 364.74L292.87 362.9L324.04 357.51L334.63 339.93L343.41 313.52L350.91 281.32L357.99 250.25L365.23 225.55L372.72 208.31L380.16 195.76L387.08 182.49L394.03 174.26L400.84 169.21L407.13 162.62L412.74 151.97L417.68 136.63L422.02 116.89L426.22 98.34L430.65 85.72L435.33 79.65L440.03 76.97L441.55 77.22L450.78 78.73L459.21 79.87L460.65 80.2L464.65 80.61L472.21 82.5L474.89 83.85L475.45 84.72L480.96 86.34L486.17 88.05L501.43 93.07L521.76 98.82L539.69 102.12L541.93 102.32L544.11 98.84L546.09 92.44L547.89 83.33L549.57 72.86L551.22 63.61L552.86 56.49L554.32 45.34L555.68 32.75L557.02 21.54L558.41 13.82L559.88 11.03L575.29 8.84995L576.21 8.71995L592.59 7.94995L609.02 10.45L625.43 16.79L637.92 22.46L639.3 23.08L641.76 23.81L657.44 25.6L673.15 25.31L688.9 22.52L704.73 17.88L720.62 12.72L736.5 9.53995L752.3 9.19995L768 11.4L770.22 14.55L772.59 16.43L786.43 17.18L788.76 17.3L789.9 17.54L790.84 17.85L805.06 20.54L806.99 21.02L821.14 24.5L822.99 24.86L835.82 27.38L845.84 26.7099L861.79 23.44L877.82 19.58L893.87 16.05L898.3 19.03L914.6 16.17L930.83 14.28L946.97 13.55L952.69 14.09L958.55 15.38L964.27 20.05L969.82 28.24L975.34 38.7L981.12 48.86L987.54 55.72L994.02 64.3899L1000.67 73.99L1007.79 82.23L1015.58 87.97L1019.24 90.01L1033.2 90.07L1033.58 90.05L1043.42 89.96L1052.77 96.69L1061.41 111.55L1069.84 130.88L1079.08 147.99L1089.45 161.4L1100.88 172.04L1113.09 182.17L1125.5 195.5L1138.31 211.08L1153.35 219.27L1169.66 226.33L1186.19 238.02L1202.12 258.46L1217.2 288.49L1233.56 318.15L1252.97 340.69L1276.04 355.11L1279.5 356.58" stroke="white" stroke-linecap="round" stroke-linejoin="round"/>
<path d="M965.74 401.74L930.14 399.76L894.21 400.58L858.16 402.97L822.22 404.83L786.29 407.35L750.27 413.62L714.41 420.43L678.77 425.39L643.28 427.06L607.78 424.88L572.12 419.16L536.21 411.06L499.95 400.89L463.43 391L426.89 384.23L390.61 382.14L354.82 384.89" stroke="white" stroke-linecap="round" stroke-linejoin="round"/>
<path d="M399.18 352.23L433.88 350.15L468.96 353.01L504.18 359.88L539.28 368.5L574.13 376.48L608.74 382.7L643.19 385.87L677.61 385.56L712.12 382.13L746.81 376.8L781.62 371.65L816.37 369.58L851.02 369.28L885.58 370.11L919.86 373.29L953.71 379.3L987.05 387.85L1019.94 397.91L1052.59 407.75L1085.49 414.72L1119.47 414.95L1138.76 432.62L1158.26 458.55" stroke="white" stroke-linecap="round" stroke-linejoin="round"/>
<path d="M597.94 603.05L600.01 568.48L601.92 539.4L603.75 518.68L605.34 494.85L606.67 463.24L607.78 424.88L608.74 382.7L609.63 340.9L610.57 310.25L611.58 293.68L612.62 286.25L613.56 277.18L614.37 262.29L615.1 243.58L615.76 223.78L616.41 206.48L617.07 196.12L617.77 194.5L618.43 193.01L619 185.82L619.49 171.72L619.93 153.55L620.3 130.95L620.66 108.18L621.05 91.82L622.05 83.41L640.09 76.97L642.12 76.24L662.85 72.52L683.57 73.36L704.18 78.38L724.65 85.94L745.02 93.25L765.27 100.65L785.43 107.94L805.58 113.5L825.82 116.47L846.21 116.73L866.77 114.91L887.41 112.36L908.02 110.69L928.82 107.23L949.83 102.39L970.91 97.45L991.97 93.38L999.85 100.47L1021.74 94.13L1035.07 91.57L1043.42 89.96L1049.68 89.61L1064.71 88.79L1069.1 91.01L1074.81 93.91L1084 108.19L1092.84 127.79L1102.6 144.77L1113.71 157.05L1126.02 166.22L1139.12 175.17L1164.7 171.22L1178.7 183.44L1192.61 200.54L1208.3 213.55L1224.99 226.96L1241.91 244.69L1258.57 268.99L1275.06 299.33L1279.5 305.98" stroke="white" stroke-linecap="round" stroke-linejoin="round"/>
<path d="M370.53 632.94L383.9 601.02L395.08 563.1L404.74 522.34L412.94 476.77L420.1 428.66L426.89 384.23L433.88 350.15L440.93 324.85" stroke="white" stroke-linecap="round" stroke-linejoin="round"/>
<path d="M115.65 382.19L81.96 378.84L48.19 375.55L14.57 373.19L0.5 371.88" stroke="white" stroke-linecap="round" stroke-linejoin="round"/>
<path d="M965.74 401.74L977.78 433.13L990.19 470.89L1003.52 511.68L1018.42 552.48L1035.61 590.71L1078.2 595.74L1099.34 636.09" stroke="white" stroke-linecap="round" stroke-linejoin="round"/>
<path d="M877.47 342.18L844.48 335.91L811.1 333.23L777.44 334.42L743.72 338L710.09 341.71L676.58 343.94L643.12 343.76L609.63 340.9L576.01 335.71L542.2 329.23L508.28 323.79L474.45 321.93L440.93 324.85" stroke="white" stroke-linecap="round" stroke-linejoin="round"/>
<path d="M197.28 362.32L164.86 359.15L132.31 355.7L99.84 353.02L67.73 352.34L36.25 354.36L4.98 357.08L0.5 357.48" stroke="white" stroke-linecap="round" stroke-linejoin="round"/>
<path d="M415.49 626.48L426.81 596.35L436.36 561.22L444.77 525.07L451.86 483.23L457.89 436.55L463.43 391L468.96 353.01L474.45 321.93L480.16 302.06L486 292.2L491.57 285.77L496.4 272.93L500.51 253.05L504.16 229.74L507.57 206.43L510.94 186.78L514.45 174.99" stroke="white" stroke-linecap="round" stroke-linejoin="round"/>
<path d="M1114.82 252.7L1127.74 281.77L1140.3 318.18L1154.32 352.5L1171.09 379.42L1190.92 399.17" stroke="white" stroke-linecap="round" stroke-linejoin="round"/>
<path d="M273.59 344.28L242.25 340.6L210.56 335.34L178.74 330.03L147.05 326.04L115.76 324.57L85.18 326.62L55.56 332.71L26.55 340.78L0.5 347.58" stroke="white" stroke-linecap="round" stroke-linejoin="round"/>
<path d="M115.65 382.19L132.31 355.7L147.05 326.04L160.89 297.74" stroke="white" stroke-linecap="round" stroke-linejoin="round"/>
<path d="M551.88 606.1L556.32 575.44L560.31 546.6L564.04 523.87L567.24 496.38L569.88 460.59L572.12 419.16L574.13 376.48L576.01 335.71L578.02 307.15L580.19 292.98L582.39 287.29L584.35 278.58L586.06 263.78L587.56 244.79L588.94 224.25L590.26 205.95L592.16 194.35L593.12 193.89L594.49 193.92L618.1 193.75L642.43 194.6L667.09 194.99L691.72 196.21L716.3 198.56L718.59 201.41L720.95 206.85L723.29 217.96L725.66 233.34L728.14 250.55L730.86 266.1L733.98 276.3L737.32 287.26L740.6 306.98L743.72 338L746.81 376.8L750.27 413.62L754.41 443.26L759.2 468.34L764.57 492.43L770.35 520.67L776.22 560.05L781.94 614.72" stroke="white" stroke-linecap="round" stroke-linejoin="round"/>
<path d="M460.54 617.74L469.67 588.67L477.52 556.55L484.6 525.97L490.57 489.43L495.55 446.05L499.95 400.89L504.18 359.88L508.28 323.79L512.65 300.34L517.28 289.88L521.82 285.52L525.8 275.74L529.19 258.9L532.19 237.77L534.93 215.47L537.61 196.01L540.41 184.51" stroke="white" stroke-linecap="round" stroke-linejoin="round"/>
<path d="M431.61 292.77L402.01 299.28L372.66 306.69L343.41 313.52L313.97 317.59L283.91 316.36L253.31 311.67L222.41 305.81L191.51 300.67L160.89 297.74" stroke="white" stroke-linecap="round" stroke-linejoin="round"/>
<path d="M197.28 362.32L210.56 335.34L222.41 305.81L233.88 279.5L245.52 259.94L273.86 259.68L302.06 258.34L330.1 255.24L357.99 250.25L386.05 245.88L414.39 243.65L442.98 244.27L471.73 247.67L500.51 253.05L529.19 258.9L557.7 263.03L586.06 263.78L614.37 262.29L642.72 259.45L671.14 256.04L699.62 252.84L728.14 250.55L756.64 249.82L785.04 251.27L813.21 255.85L841.19 261.65L869.15 266.33L897.25 268.42L925.65 267.32L954.42 263.22L983.53 257.2L1012.8 250.88L1042.3 243.91L1071.82 237.75L1101.09 233.84L1129.92 232.82L1158.25 234.54L1186.19 238.02L1214.06 241.5L1241.91 244.69L1268.71 252.16L1279.5 255.99" stroke="white" stroke-linecap="round" stroke-linejoin="round"/>
<path d="M506 610.36L512.84 581.38L518.83 551.59L524.34 525.81L529.02 494.33L532.89 454.77L536.21 411.06L539.28 368.5L542.2 329.23L545.35 302.86L548.74 290.89L552.12 286.64L555.12 278.13L557.7 263.03L559.97 243.46L562.05 222.2L564.05 203.25L566.13 191.89" stroke="white" stroke-linecap="round" stroke-linejoin="round"/>
<path d="M273.59 344.28L283.91 316.36L293.04 285.21L302.06 258.34L311.39 239.14L320.92 226.91L330.16 217.51L338.43 204.6L362.6 192.96L370.07 183.29L372.51 182.37L394.03 174.26L396.89 173.34L413.98 167.86L418.8 165.99L424.62 164.42L432.45 163.99" stroke="white" stroke-linecap="round" stroke-linejoin="round"/>
<path d="M875.65 288.53L904.19 294.24L933.05 295.96L962.39 293.38L992.26 287.18L1022.59 278.75L1053.4 268.43L1084.29 258.97L1114.82 252.7" stroke="white" stroke-linecap="round" stroke-linejoin="round"/>
<path d="M877.47 342.18L885.58 370.11L894.21 400.58L903.64 431.59L913.92 463.89L925.11 498.21L937.24 535.61L950.28 577.61L963.48 630.93" stroke="white" stroke-linecap="round" stroke-linejoin="round"/>
<path d="M1098.85 202.91L1125.5 195.5L1152.28 188.19L1178.7 183.44L1204.6 181.63L1229.8 183.27L1254.22 188.29L1277.93 195.95L1279.5 196.55" stroke="white" stroke-linecap="round" stroke-linejoin="round"/>
<path d="M1279.5 342.27L1252.97 340.69L1220.62 341.78L1187.67 345.89L1154.32 352.5L1120.87 360.52L1087.66 368.35L1055.01 373.86L1023.21 374.53L992.2 369.61L961.62 360.21L931.15 347.75L900.51 333.88L869.49 320.51L837.94 309.88L805.79 304.51L773.23 304.79L740.6 306.98L708.02 309.53L675.51 311.33L643.04 311.67L610.57 310.25L578.02 307.15L545.35 302.86L512.65 300.34L480.16 302.06L448.05 308.48L440.93 324.85L407.92 332.57L399.18 352.23L365.02 358.85L331.37 368.26L297.95 377.49L264.27 383.22L249.58 404.13L214.95 411.07L180.55 418.2L145.94 423.21L110.75 424.81L89.04 446.4L65.45 469.71L27.23 470.98L0.5 470.74" stroke="white" stroke-linecap="round" stroke-linejoin="round"/>
<path d="M1050.53 186.12L1075.6 179.36L1100.88 172.04L1126.02 166.22L1150.72 163.45L1164.7 171.22L1189.83 169.9L1214.35 171.67L1238.16 176.55L1261.32 183.93L1279.5 190.81" stroke="white" stroke-linecap="round" stroke-linejoin="round"/>
<path d="M591.64 194.83L617.07 196.12L642.49 196.75L667.89 197.48L693.27 198.91" stroke="white" stroke-linecap="round" stroke-linejoin="round"/>
<path d="M0.5 277.37L11.27 254.3L25.84 225.96L52.24 224.05L78.62 221.83L105.15 220.15L131.99 220.01L159.33 222.63L187.2 228.75L214.99 235.16L227.08 224.4L238.18 212.09L248.43 198.5L257.83 183.13L266.44 165.9L274.51 148.17L282.41 132.56L289.35 125.84L290.82 124.41L312.67 123.42L320.58 119.05L325.11 118.03L334.67 115.89L342.83 113.32L362.52 109.5L383.61 104.84L404.83 100.8L426.22 98.34L447.87 99.05L469.64 102.05L491.43 106.3L513.17 110.76L534.81 114.41L556.34 116.25L577.77 115.29L599.19 111.7L620.66 108.18L642.19 106.42L663.72 107.31L685.19 111L706.55 116.84L727.8 123.43L749.01 128.66L770.21 132.34L791.4 134.99L812.64 136.45L833.92 136.79L855.26 136.33L876.63 135.65L897.95 135.56L903.95 143.71L925.54 145.96L932.16 156.26L954.38 157.01L976.95 154.73L999.87 149.99L1023.09 143.61L1046.49 136.75L1069.84 130.88L1092.84 127.79L1115.43 127.41L1138.49 124.43L1161.81 120.26L1185.13 116.49L1208.19 114.27L1230.83 114.24L1243.33 132.41L1265.86 135.09L1279.5 137.83" stroke="white" stroke-linecap="round" stroke-linejoin="round"/>
<path d="M0.5 226.81L25.84 225.96L40.81 203.77L56.44 189.13L72.9 183.12L89.08 180.59L104.07 176.7L117.47 168.71L129.2 155.65L140.12 141.45L150.84 129.31L161.33 118.98L171.47 109.64L181.06 99.92L201.46 102.24L222.34 107.99L243.38 115.55L264.22 122.34L284.01 124.97L284.72 124.69L291.2 112.66L297.6 99.88L303.71 87.09L309.59 74.59L315.3 62.8L320.77 50.99L325.83 37.48L343.1 34.6L360.56 33.48L378.24 34.5L396.07 37.5L413.96 41.88L431.83 46.55L449.56 49.95L467.07 50.49L484.48 49.04L501.86 46.96L519.29 45.25L536.78 44.59L554.32 45.34L571.88 47.54L589.44 50.91L606.96 54.89L624.43 58.61L641.86 61.3L659.27 62.58L676.68 62.45L677.94 62.37" stroke="white" stroke-linecap="round" stroke-linejoin="round"/>
<path d="M0.5 286L24.61 286.15L51.97 282.8L78.82 276.7L105.59 269.6L132.83 264.13L160.63 261.19L188.79 259.98L217.13 259.81L229.89 247.78L242.3 239.14L268.99 239.16L295.12 234.83L305.28 226.91L314.26 214.35L338.43 204.6L346.36 193.16L367.54 184.35L370.07 183.29L377.33 176.07L397.46 170.19L400.84 169.21L418.8 165.99L422.7 165.71L432.45 163.99L438.04 163L442.85 162.15" stroke="white" stroke-linecap="round" stroke-linejoin="round"/>
<path d="M785.6 201.81L809.54 200.76L833.64 197.71L857.86 193.68L882.15 189.73L906.39 187.02L913.83 193.21L938.58 192.45L947.3 197.78L972.31 200.97L997.05 205.85L1021.85 209.6L1032.97 217.8L1058.61 220.35L1072.21 222.44L1098.98 222.91L1126.03 221.78L1153.35 219.27L1180.88 216.02L1208.3 213.55L1235.14 214.05L1261.33 217.29L1279.5 221.06" stroke="white" stroke-linecap="round" stroke-linejoin="round"/>
<path d="M0.5 186.4L24.33 187.41L48.74 185.94L72.9 183.12L85.6 181.49L97.05 180.02L112.57 177.6L126.96 173.92L139.86 166.32L151.2 153.85L161.86 140.88L172.36 130.27L193.89 131.39L215.35 132.13L225.52 129L237.66 130.81L247.54 129.04L250.9 128.6L258.69 127.57L269.09 126.19L283.43 125.02L284.59 124.92L290.82 124.41L299.65 123.32L305.43 122.14L320.58 119.05" stroke="white" stroke-linecap="round" stroke-linejoin="round"/>
<path d="M0.5 225.27L15.33 206.77L31.68 192.39L48.74 185.94L65.5 182.87L81 178.34L94.83 169.65L106.95 155.94L118.25 141.24L129.42 129.01L140.45 119.13L161.33 118.98L182.57 121.07L192.33 112.16L201.46 102.24L210.32 93.31L230.64 98.15L239.08 91.92L247.31 86.94L266.28 88.26L273.38 80.24L291.54 78.02L309.59 74.59L327.72 71.51L333 58.65L338.18 46.87L355.8 44.38L373.67 44.24L391.75 46.53L409.95 50.71L428.15 55.63L446.23 59.56L464.08 60.55L481.79 59.28L499.48 57.26L517.21 55.67L535.01 55.27L552.86 56.49L570.74 59.39L588.6 63.64L606.41 67.81L624.17 70.2L640.52 70.66" stroke="white" stroke-linecap="round" stroke-linejoin="round"/>
<path d="M899.67 177.7L923.02 178.07L930.42 186.74L938.58 192.45L962.91 195.48L987.08 199.27L1011.42 201.3L1036.14 200.5L1061.35 196.58L1087.05 190.03" stroke="white" stroke-linecap="round" stroke-linejoin="round"/>
<path d="M0.5 346.05L18.42 331.97L36.67 311.13L51.97 282.8L65.56 251.41L78.62 221.83L92.01 198.15L106.33 183.6L121.39 177.58L136.09 174.54L149.75 170.29L162.03 162.49L172.94 150.4L183.42 139.23L193.89 131.39L204.03 124.78L225.52 129L234.95 124.24L243.38 115.55L251.12 104.61L258.81 95.9801L266.28 88.2601L285.11 88.6L291.54 78.02L297.7 67.3601L303.45 55.4901L308.72 41.3801L314.02 29.51L330.95 26.4501L348.11 25.3L365.47 26.13L382.98 28.8L400.57 32.85L418.16 37.57L435.68 41.92L453.03 44.6301L470.19 44.43L487.23 42.14L504.26 39L521.34 35.9701L538.48 33.73L555.68 32.75L572.92 33.2001L590.18 35.01L607.45 38.62L624.68 43.8101L641.84 48.98L658.96 52.98L676.04 55.19L693.14 55.44L710.27 54.07L727.45 51.9001L744.65 49.7901L761.87 47.76L779.11 45.68L796.39 43.4901L813.7 41.14L831.05 38.6301L848.44 36.01L865.86 33.34L883.31 30.6901L900.75 28.56L918.13 27.2701L935.43 26.9401L952.65 27.39" stroke="white" stroke-linecap="round" stroke-linejoin="round"/>
<path d="M431.61 292.77L437.69 271.01L442.98 244.27L447.91 217.65L452.74 194.44L457.6 176.25L462.51 163.7L467.82 162.48" stroke="white" stroke-linecap="round" stroke-linejoin="round"/>
<path d="M230.64 98.15L251.12 104.61L271.41 110.39L291.2 112.66L310.65 112.29L329.86 109.76L348.9 105.12L367.84 98.79L370.65 97.72L386.78 91.56L389.76 90.54L391.36 89.88L392.02 89.56L393.22 89.1L394.49 88.67L394.74 88.49L399.74 85.8L400.33 85.49L410.35 82.02L416.06 80.04L417.17 79.66L419.96 78.69L421.43 78.57L440.03 76.97" stroke="white" stroke-linecap="round" stroke-linejoin="round"/>
<path d="M334.67 115.89L341.52 114.36L342.83 113.32L344.03 112.14L348.58 110.31" stroke="white" stroke-linecap="round" stroke-linejoin="round"/>
<path d="M0.5 456.6L13.76 440.94L38.01 417.52L61.38 399.94L81.96 378.84L99.84 353.02L115.76 324.57L130.84 298.13L146.14 278.86L160.63 261.19L174.26 244.32L187.2 228.75L199.54 214.66L211.34 202.02L222.54 190.15L232.93 177.25L242.49 162.69L251.39 147.21L259.96 132.84L282.41 132.56L305.06 133.9L327.79 136.15L350.49 138.46L373.07 139.84L395.44 139.18L417.68 136.63L440.13 136.55L462.74 138.97L485.41 143.19L508.06 148.33L530.62 153.35L553.07 157.01L575.38 157.91L597.64 155.93L619.93 153.55L642.25 151.89L664.59 151.61L686.9 152.95L709.16 155.68L731.36 159.14L753.51 162.23L775.73 162.97L798.06 161.48L820.49 158.79L842.99 155.85L865.48 153.48L887.9 152.42L910.15 153.33L932.16 156.26L938.86 169.29L946.08 181.08L954.08 189.73L962.91 195.48L972.31 200.97L982.12 208.12L992.55 215.52L1002.88 229.01L1012.8 250.88L1022.59 278.75L1032.95 307.86L1043.34 342.14L1055.01 373.86L1068.98 397.89L1085.49 414.72L1103.59 431.41L1121.42 458.87L1158.26 458.55L1178.37 491.06L1200.12 526.15L1224.67 560.26L1253.32 590.34L1279.5 616.79" stroke="white" stroke-linecap="round" stroke-linejoin="round"/>
<path d="M1279.5 461.69L1260.57 467.92L1218.89 481.21L1178.37 491.06L1139.47 494.47" stroke="white" stroke-linecap="round" stroke-linejoin="round"/>
<path d="M881.76 77.2L900.64 72.47L919.51 68.44L938.3 65.64L944.36 70.88L950.82 74.95L957.51 79.72L964.14 87.8L970.91 97.45L977.93 107.95L985.07 120.28L992.35 134.58L999.87 149.99L1007.82 165.41L1016.4 179.44L1025.84 190.94L1036.14 200.5L1046.99 210.65L1072.64 208.34L1098.85 202.91L1111.26 216.61L1126.03 221.78L1142.06 225.59L1158.25 234.54L1173.73 253.17L1188.14 282.78L1203.16 314.95L1220.62 341.78L1241.41 360.78L1265.23 375.12L1279.5 385.78" stroke="white" stroke-linecap="round" stroke-linejoin="round"/>
<path d="M117.6 51.12L124.97 33.69L132.45 18.53L140.54 8.71002L149.57 6.27002" stroke="white" stroke-linecap="round" stroke-linejoin="round"/>
<path d="M327.72 71.51L346.04 69.95L364.57 70.34L383.27 72.63L402.05 76.33L417.17 79.66" stroke="white" stroke-linecap="round" stroke-linejoin="round"/>
<path d="M0.5 336.09L18.42 331.97L45.91 322.06L73.38 311.03L101.61 302.47L130.84 298.13L160.89 297.74L174.97 276.66L188.79 259.98L202.16 246.47L229.89 247.78L257.33 247.21L284.47 244.28L295.12 234.83L300.89 233.06L320.92 226.91L325.15 225.34L346.7 217.32L372.72 208.31L398.99 200.09L425.66 194.98L452.74 194.44L480.11 198.63L507.57 206.43L534.93 215.47L562.05 222.2L588.94 224.25L615.76 223.78L642.6 221.97L669.48 219.84L696.39 218.26L723.29 217.96L750.12 219.49L776.81 223.26" stroke="white" stroke-linecap="round" stroke-linejoin="round"/>
<path d="M0.5 50.6099L18.05 53.6199L36.58 56.9999L55.09 60.4799L65.13 50.9199L74.22 38.5199L91.04 36.5099L107.93 34.7199L124.97 33.6899L142.2 33.6999L159.6 34.7299L177.1 36.4799L194.61 38.3899L202.64 33.6599L210.76 31.6399L218.59 29.7399L226.45 30.1099L233.88 29.4399" stroke="white" stroke-linecap="round" stroke-linejoin="round"/>
<path d="M945.58 47.21L963.37 47.91L969.34 55.76L975.53 64L982 72.19L988.93 79.04L996.38 84.31L1004.28 88.77L1019.04 90.59" stroke="white" stroke-linecap="round" stroke-linejoin="round"/>
<path d="M0.5 186.14L17.48 183.1L34.22 178.29L49.11 169.17L62.13 154.92L74.57 141.11L87.25 131.85L98.8 126.53L99.96 126L120 121.6L131.48 114.85L142.21 106.95L152.32 98.36L162.41 92.41L181.02 88.8L200.03 87.55L219.43 88.75L239.08 91.92L258.81 95.98L278.39 99.27L297.6 99.88L316.65 99.17L335.64 97.76L354.58 95.67L373.49 93.04L388.07 90.8L389.04 90.65L391.13 90.12L393.22 89.1L395.03 88.22L396.47 87.9L402.2 85.93L414.81 81.6L422.62 80.85L435.33 79.65L456.19 82.37L461.29 83.66L477.15 87.68L498.07 93.72L518.87 98.99L521.76 98.82L524.4 95.95L544.11 98.84L563.7 99.07L583.22 96.16L583.6 96.02L601.43 89.57L601.99 89.37L602.88 89.9L617.36 83.16L620.02 81.76L621.9 80.77L623.3 79.43L623.73 78.53" stroke="white" stroke-linecap="round" stroke-linejoin="round"/>
<path d="M0.5 181.12L17.48 183.1L41.68 183.88L65.5 182.87L89.08 180.59L98.91 179.34L112.57 177.6L125.56 175.91L136.09 174.54L159.78 172.11L172.54 166.36L195.49 162.95L206.22 152.52L228.58 148.49L237.83 135.33L259.96 132.84L269.09 126.19" stroke="white" stroke-linecap="round" stroke-linejoin="round"/>
<path d="M0.5 123.51L16.98 127.96L31.24 123.62L44.24 116.46L56.08 106.63L67.47 97.27L78.57 88.99L89.4 81.8L108.3 84.38L126.75 84.63L144.87 83.03L162.89 80.66L171.35 70.28L179.3 58.84L197.14 59.2L215.16 60.71L233.14 62.15L250.98 62.65L268.63 61.74L286.1 59.28L303.45 55.49L320.77 50.99L338.18 46.87L343.1 34.6L348.11 25.3L353.36 20.33L358.7 18.5L363.84 16.68L368.75 14.39L373.39 11.11" stroke="white" stroke-linecap="round" stroke-linejoin="round"/>
<path d="M1180.42 96.73L1197.41 95.21L1218.29 93.65L1238.79 94L1258.8 96.6L1278.56 100.18L1279.5 100.35" stroke="white" stroke-linecap="round" stroke-linejoin="round"/>
<path d="M0.5 60.41L16.97 64.62L37.65 72.94L50.29 70.7L62.5 68.97L73.51 63.77L82.75 51.69L91.04 36.51L99.16 22.15L115.59 19.2L132.45 18.53L149.74 20.43L167.36 24.44L185.09 29.45L202.64 33.66L219.97 36.72L237.09 38.49L244.68 37.26L251.88 35.26L258.8 33.16L265.19 28.89L280.64 26.98L295.99 24.05" stroke="white" stroke-linecap="round" stroke-linejoin="round"/>
<path d="M330.45 187.72L337.64 172.44L344.24 155.46L350.49 138.46L356.5 122.36L362.52 109.5L368.73 101.77L370.68 101.01L389.07 93.85L394.49 88.67L395.03 88.22L396.8 87.22L399.69 85.8H399.74L399.77 85.79L400.33 85.49" stroke="white" stroke-linecap="round" stroke-linejoin="round"/>
<path d="M390.06 155.07L395.44 139.18L400.21 119.45L404.83 100.8L409.68 87.9499L414.81 81.5999L417.95 79.8299L419.96 78.6899" stroke="white" stroke-linecap="round" stroke-linejoin="round"/>
<path d="M0.5 382.22L14.57 373.19L36.25 354.36L55.56 332.71L73.38 311.03L90.5 292.34L105.59 269.6L119.17 244.38L146.46 242.98L174.26 244.32L202.16 246.47L214.99 235.16L242.3 239.14L253.94 230.71L264.34 218.52L273.8 204.06L282.45 187.66L290.36 169.32L297.78 150.46L305.06 133.9L312.67 123.42L334.58 122.87L356.5 122.36L378.39 121.4L400.21 119.45L422.02 116.89L444.04 116.93L466.21 119.3L488.42 123.25L510.61 127.9L532.71 132.23L554.7 135.13L576.58 135.36L598.43 133.07L620.3 130.95L642.22 130.13L664.12 131.23L685.98 134.3L707.76 138.85L729.45 143.86L751.11 147.78L772.81 149.42L794.59 149.22L816.45 147.82L838.36 145.89L860.3 144.11L882.19 143.15" stroke="white" stroke-linecap="round" stroke-linejoin="round"/>
<path d="M1083.11 15.12L1099.42 11.58L1107.49 14.27L1124.18 10.47L1132.9 12.83L1149.95 8.91997L1159.34 11.21L1176.61 8.05997L1193.58 6.71997L1203.45 11.76L1212.72 21.89L1221.7 35.4L1231.12 48.58L1242.09 56.27L1254.24 60.61L1273.41 57.78L1279.5 59.62" stroke="white" stroke-linecap="round" stroke-linejoin="round"/>
<path d="M1210.29 6.75L1226.92 7.22L1237.22 13.09L1246.71 24.85L1263.81 25.72L1279.5 26.23" stroke="white" stroke-linecap="round" stroke-linejoin="round"/>
<path d="M853.5 27.93L869.94 26.02L886.48 23.13L903.07 19.99L919.67 17.17L936.23 15.11L941.78 16.39L947.29 20.19L952.65 27.39L969.82 28.24L987.01 28.83L1004.25 29.02L1021.33 30.33L1037.86 31.69L1041.16 32.22L1055.41 33.31L1063.31 33.53L1064.06 33.55L1064.64 33.57L1072.57 33.79L1088.35 33.26L1089.89 33.21L1090.77 33.13L1091.87 32.79L1106.52 28.35L1109.17 27.42L1124.14 22.16L1141.81 16.1L1151.22 18.48L1160.5 23.75L1169.28 33.83L1177.7 47.82L1186.46 61.92L1196.37 72.02L1207.68 77.3L1227.29 73.59L1239.94 76.86L1253.06 80.67L1265.89 88.66L1278.56 100.18L1279.5 101.1" stroke="white" stroke-linecap="round" stroke-linejoin="round"/>
<path d="M1050.57 22.33L1066.77 19.07L1083.11 15.12L1090.68 19.19L1107.49 14.27L1115.65 18.25L1124.14 22.16L1133.44 23.25L1151.22 18.48L1168.88 14.72L1186.3 12.46L1195.53 21.36L1204.38 34.14L1213.39 47.94L1223.56 57.93L1234.91 64.37L1254.24 60.61L1266.87 65.23L1279.5 63" stroke="white" stroke-linecap="round" stroke-linejoin="round"/>
<path d="M491.25 87.45L507.58 89.39L526.86 91.34L546.09 92.44L565.27 92.34L584.42 90.79L603.56 86.36" stroke="white" stroke-linecap="round" stroke-linejoin="round"/>
<path d="M0.5 148.9L16.72 151.37L39.65 154.12L62.13 154.92L84.53 155.35L106.95 155.94L129.2 155.65L151.2 153.85L172.94 150.4L194.52 145.57L216.08 140.13L226.18 132.88" stroke="white" stroke-linecap="round" stroke-linejoin="round"/>
<path d="M835.82 27.38L837.23 27.65L848.49 27.84L852.05 27.9L853.24 27.85L865.7 25.81L881.98 22.45L898.3 19.03L903.07 19.99L908.01 21.22L913.11 22.72L918.13 27.27L922.95 35.98L927.69 47.5L932.73 58.05L938.3 65.64L956.98 64.23L963.25 70.93L969.96 76.38L977.04 81.35L984.3 87.53L991.97 93.38L1012.88 90.81L1021.74 94.13L1030.3 103.02L1038.41 118.26L1046.49 136.75L1055.26 153.61L1064.94 167.75L1075.6 179.36L1087.05 190.03L1113.09 182.17L1139.12 175.17L1152.28 188.19L1165.56 205.01L1180.88 216.02L1197.35 226.56L1214.06 241.5L1230.32 264.11L1246.05 294.53L1263.58 322.67L1279.5 337.74" stroke="white" stroke-linecap="round" stroke-linejoin="round"/>
<path d="M1099.42 11.58L1115.59 9.22997L1124.18 10.47L1140.6 8.44997L1149.95 8.91997L1154.02 8.42997L1166.7 6.91997L1183.14 6.73997L1193.58 6.71997L1210.29 6.74997L1220.38 12.23L1229.75 23.27L1238.9 37.22L1248.73 49.76L1260.45 55.43L1273.41 57.78L1279.5 57.35" stroke="white" stroke-linecap="round" stroke-linejoin="round"/>
<path d="M893.87 16.0499L909.86 13.4899L925.76 12.1999L941.54 12.1899L946.97 13.5499L962.99 13.9399L965.45 14.0699L969.04 14.2499L975.21 15.4899L981.2 20.4199L987.01 28.8299L992.82 39.2199L998.96 48.9399L1005.79 55.2499L1024.2 53.6099L1042.59 52.2899L1060.85 51.9399L1068.22 63.8199L1075.77 76.7299L1083.96 87.6599L1103.22 87.4099L1122.6 86.3999L1132.94 91.4499L1153.22 87.8799L1164.37 93.5799L1185.18 89.7999L1197.41 95.2099L1210.83 97.6899L1224.88 100.45L1239.06 106.11L1252.96 116.61L1265.86 135.09L1278.22 159.12L1279.5 161.35" stroke="white" stroke-linecap="round" stroke-linejoin="round"/>
<path d="M768 11.4L780.37 14.66L783.59 15.5L788.76 17.3L790.84 17.85" stroke="white" stroke-linecap="round" stroke-linejoin="round"/>
<path d="M1279.5 324.96L1263.58 322.67L1233.56 318.15L1203.16 314.95L1172.08 314.74L1140.3 318.18L1108.01 324.95L1075.55 333.7L1043.34 342.14L1011.81 347.24L981.07 347.21L950.95 342.01L921.19 332.3L891.5 319.39L888.64 318.04L861.6 305.36L859.36 304.45L831.25 293.1L824.64 282.64L794.73 275.99L764.39 275.24L733.98 276.3L703.56 278.51L673.18 281.28L642.87 284.05L612.62 286.25L582.39 287.29L552.12 286.64L521.82 285.52L491.57 285.77L461.48 288.14L431.61 292.77L424.45 307.34L416.45 319.07L407.92 332.57L375.48 343.96L349.81 354.25L343.49 356.79L319.49 365.06L311.6 367.79L279.26 373.52L264.27 383.22L230.93 390.11L197.82 397.34L164.57 402.72L130.85 405.02L96.45 403.91L61.38 399.94L25.87 394.57L0.5 390.53" stroke="white" stroke-linecap="round" stroke-linejoin="round"/>
<path d="M1115.59 9.23005L1131.48 8.63005L1140.6 8.45005L1154.02 8.43005" stroke="white" stroke-linecap="round" stroke-linejoin="round"/>
<path d="M1003.5 21.55L1004.11 21.64L1018.94 23.69L1034.62 24L1050.57 22.33L1057.37 27.87L1064.42 33.48L1081.23 29.82L1098.37 24.29L1115.65 18.25L1132.9 12.83L1141.81 16.1L1159.34 11.21L1168.88 14.72L1178.11 21.98L1186.89 33.63L1195.57 47.75L1204.99 59.99L1215.57 68.41L1234.91 64.37L1247.06 69.37L1266.87 65.23L1279.5 71.75" stroke="white" stroke-linecap="round" stroke-linejoin="round"/>
<path d="M22.0701 106.16L34.4301 96.67L46.4401 88.22L67.4701 97.27L87.7501 103.05L107.19 104.81L125.91 102.69L144.15 97.69L162.41 92.41L172.09 86.67L190.63 85.02L199.6 79.79L207.78 71.77L215.16 60.71L222.25 49.75L229.53 42.11L237.09 38.49L253.93 38.29L261.16 36.78L268.06 34.75L274.6 32.02L280.64 26.98" stroke="white" stroke-linecap="round" stroke-linejoin="round"/>
<path d="M0.5 532.6L11.43 522.06L39.68 494.83L65.45 469.71L103.44 467.17L141.38 464L161.96 441.19L180.55 418.2L197.82 397.34L214.53 382.12L246.89 378.19L279.26 373.52L292.87 362.9L304.42 344.69L313.97 317.59L322.18 285.18L330.1 255.24L338.26 232.51L365.23 225.55L392.44 219.68L420.01 216.74L447.91 217.65L476.02 222.35L504.16 229.74L532.19 237.77L559.97 243.46L587.56 244.79L615.1 243.58L642.66 240.91L670.28 237.76L697.96 234.97L725.66 233.34L753.32 233.51L780.85 236.05L808.24 239.95L835.61 243.21L863.05 244.7L890.67 243.92L918.53 240.97L946.61 236.55L974.81 231.99L1002.88 229.01L1030.9 226.9L1058.85 225.46L1071.82 237.75L1084.29 258.97L1096.38 287.96L1108.01 324.95L1120.87 360.52L1136.28 388.73L1154.66 409.17L1175.22 427.58L1196.52 451.92L1218.89 481.21L1243.12 513.03L1270.12 545.15L1279.5 554.43" stroke="white" stroke-linecap="round" stroke-linejoin="round"/>
<path d="M0.5 207.61L15.33 206.77L40.81 203.77L66.29 200.53L81.25 185.81L106.33 183.6L131.83 183.42L146.03 176.63L171.06 177.88L183.74 171.06L195.49 162.95L218.75 161.24L228.58 148.49L251.39 147.21L274.51 148.17L297.78 150.46L321.06 153.19L344.24 155.46L367.26 156.38L390.06 155.07" stroke="white" stroke-linecap="round" stroke-linejoin="round"/>
<path d="M1279.5 371.65L1265.23 375.12L1227.94 387.03L1190.92 399.17" stroke="white" stroke-linecap="round" stroke-linejoin="round"/>
<path d="M0.5 93.1L12.24 84.86L24.93 77.51L46.44 88.22L58.32 81.72L70.03 77L81.37 72.9L91.69 65.95L100.24 51.74L107.93 34.72L115.59 19.2L123.84 8.75996L140.54 8.70996L157.83 12.22L175.52 18.51L183.96 16.44L192.94 19.88L203.22 23.51L208.23 25.28L209.85 25.86L215.04 27.19L221.89 28.94L226.45 30.11L242.74 32.41L258.8 33.16L274.61 32.02L289.37 29.33L290.21 29.03L295.99 24.05L311.3 20.43L311.77 20.32L326.64 16.67L342.07 13.53L357.68 11.86L373.39 11.11L389.18 11.16" stroke="white" stroke-linecap="round" stroke-linejoin="round"/>
<path d="M1189.85 97.26L1203.72 98.33L1224.88 100.45L1245.9 103.06L1266.36 108.09L1279.5 113.82" stroke="white" stroke-linecap="round" stroke-linejoin="round"/>
<path d="M776.81 223.26L780.85 236.05L785.04 251.27L789.58 265.86L794.73 275.99L800.27 286.34L805.79 304.51L811.1 333.23L816.37 369.58L822.22 404.83L829.07 434.5L836.83 461.82L845.36 490.24L854.44 523.71L863.77 566.75L872.87 624.41" stroke="white" stroke-linecap="round" stroke-linejoin="round"/>
<path d="M999.85 100.47L1007.65 111.38L1015.31 126.47L1023.09 143.61L1031.44 159.87L1040.53 174.23L1050.53 186.12" stroke="white" stroke-linecap="round" stroke-linejoin="round"/>
<path d="M0.5 326.26L9.01 316.11L24.61 286.15L38.62 253.82L52.24 224.05L66.29 200.53L92.01 198.15L118.12 197.58L144.71 199.6L171.84 205.03L199.54 214.66L227.08 224.4L253.94 230.71L279.98 231.68L305.28 226.91L327.44 218.54L330.16 217.51L352.17 207.46L355.01 206.17L380.16 195.76L405.54 185.61L431.34 178.48L457.6 176.25L484.2 179.36L510.94 186.78L537.61 196.01L564.05 203.25L590.26 205.95L616.41 206.48L642.55 206L668.69 205.43L694.84 205.52L720.95 206.85L746.96 209.81L772.84 214.54L798.7 217.93L803.44 226.81L808.24 239.95L813.21 255.85L818.57 271.45L847.19 280.16L875.65 288.53L883.13 305.52L891.5 319.39L900.51 333.88L909.99 351.39L942.05 362.59L973.72 374.51L1005.2 385.62L1036.8 394.12L1068.98 397.89L1102.17 395.54L1136.28 388.73L1171.09 379.42L1206.26 369.49L1241.41 360.78L1276.04 355.11L1279.5 355.01" stroke="white" stroke-linecap="round" stroke-linejoin="round"/>
<path d="M0.5 36.61L13.33 38.7L29.79 38.32L45.62 34.84" stroke="white" stroke-linecap="round" stroke-linejoin="round"/>
<path d="M850.86 216.56L856.99 227.65L863.05 244.7L869.15 266.33L875.65 288.53" stroke="white" stroke-linecap="round" stroke-linejoin="round"/>
<path d="M0.5 21.11L12.76 22.36L28.86 24.18L44.81 25.32" stroke="white" stroke-linecap="round" stroke-linejoin="round"/>
<path d="M682.18 62.09L694.11 61.3L711.56 59.89L728.99 59.37L746.39 60.1L763.78 60.86L781.21 60.72L798.71 59.15L816.33 56.05L834.06 51.74L851.88 46.94L869.72 42.73L887.53 39.3L905.29 36.98L922.95 35.98L940.49 36.25L957.93 37.38L963.37 47.91L981.12 48.86L998.96 48.94L1017.03 47.29L1035.16 45.31L1053.26 43.76L1071.25 43.05L1089.09 43.31L1096.82 54.83L1104.65 67.76L1113.15 78.77L1122.6 86.4L1142.1 84.83L1153.22 87.88L1173.57 84.14L1185.18 89.8L1205.87 86.89L1218.29 93.65L1231.78 98.23L1245.9 103.06L1260.28 110.15L1274.58 121.06L1279.5 127.87" stroke="white" stroke-linecap="round" stroke-linejoin="round"/>
<path d="M0.5 50.24L12.04 47.9L29.67 48.52L40.5 41.81L57.3 39.93L66.85 30.36L74.77 24.09L76.51 23.2299L92.09 17.68L107.74 12.16L124.12 8.39995L133.15 6.19995" stroke="white" stroke-linecap="round" stroke-linejoin="round"/>
<path d="M0.5 47.5801L12.04 47.9001L23.81 44.1301L40.5 41.8101L50.85 34.8401L62.67 31.5301L66.85 30.3601L83.01 26.4101L92.09 17.6801" stroke="white" stroke-linecap="round" stroke-linejoin="round"/>
<path d="M952.65 27.39L957.93 37.38L975.34 38.7L992.82 39.22L1010.49 38.29L1017.03 47.29L1024.2 53.61L1031.19 63.53L1038.22 75.48L1045.74 86.16L1049.44 89.41" stroke="white" stroke-linecap="round" stroke-linejoin="round"/>
<path d="M305.43 122.14L310.65 112.29L316.65 99.17L322.31 85.37L327.72 71.51" stroke="white" stroke-linecap="round" stroke-linejoin="round"/>
<path d="M0.5 523.96L11.43 522.06L52.44 517.3L79.02 490.76L103.44 467.17L125.72 445.05L145.94 423.21L164.57 402.72L181.95 384.29L197.28 362.32L229.45 364.4L261.31 364.74L273.59 344.28L304.42 344.69L334.63 339.93L364.44 330.3L372.66 306.69L379.65 276.71L386.05 245.88L392.44 219.68L398.99 200.09L405.54 185.61L411.8 172.45L418.25 166.49L424.62 164.42L430.49 160.48L435.66 151.52L440.13 136.55L444.04 116.93L447.87 99.05L451.91 87.43L456.19 82.37L460.44 80.3L469.06 82.84L474.89 83.85L475.82 83.4L484.63 85.6L485.75 85.92L488.9 86.8L490.78 87.32L491.25 87.45L504.57 91.18L507.58 89.39L510.31 84.55L512.76 76.01L515.02 65.53L517.21 55.67L519.29 45.25L521.34 35.97L523.38 28.76L525.43 23.45L541.87 18.12L558.41 13.82L575.02 11.05L591.71 10.15L608.44 12.84L625.16 19.56L629.8 21.76L641.8 27.47L658.19 34.35L658.36 34.42L674.87 38.95L691.38 40.23L707.96 38.1L724.65 33.04L741.42 27.37L758.19 23.1L774.91 20.99L791.54 21.24L808.05 23.43L810.95 30.01L813.7 41.14L816.33 56.05L819.01 71.82L822.08 83.34L825.71 88.13L844.23 86.09L862.95 81.95L881.76 77.2L886.99 78.7L906.18 75.07L912.07 76.6L917.97 80.87L923.46 92.08L928.82 107.23L934.53 121.6L940.73 134.17L947.4 145.33L954.38 157.01L961.52 170.6L969.22 183.04L977.72 192.51L987.08 199.27L997.05 205.85L1007.56 213.16L1019.13 217.91L1030.9 226.9L1042.3 243.91L1053.4 268.43L1064.62 297.46L1075.55 333.7L1087.66 368.35L1102.17 395.54L1119.47 414.95L1154.66 409.17L1190.92 399.17L1212.85 417.99L1235.95 441.13L1260.57 467.92L1279.5 488.87" stroke="white" stroke-linecap="round" stroke-linejoin="round"/>
<path d="M294.51 28.73L293.61 29.03L287.51 31.24L286.87 31.8L280.57 38.02L263.76 41.06L246.76 42.44L229.53 42.11L212.11 40.47L204.54 48.2L197.14 59.2L189.47 70.38L181.14 79.56L172.09 86.67L153.83 89.78L135.68 93.31L117.22 94.89L98.22 93.54L78.57 88.99L58.32 81.72L37.65 72.94L24.93 77.51L3.48 67.71L0.5 69.16" stroke="white" stroke-linecap="round" stroke-linejoin="round"/>
<path d="M882.19 143.15L887.9 152.42L893.59 165.39L899.67 177.7" stroke="white" stroke-linecap="round" stroke-linejoin="round"/>
<path d="M0.5 253.65L11.27 254.3L38.62 253.82L65.56 251.41L92.31 247.82L119.17 244.38L131.99 220.01L144.71 199.6L157.81 185.97L171.06 177.88L196.55 182.09L208.09 172.4L218.75 161.24L242.49 162.69L266.44 165.9L290.36 169.32L314.12 171.76L337.64 172.44L360.93 170.97L384.04 167.31L407.13 162.62L430.49 160.48L454.1 161.56" stroke="white" stroke-linecap="round" stroke-linejoin="round"/>
<path d="M0.5 57.6101L10.88 59.51L18.55 61.37L30.43 64.2301L36.83 66.32L50.29 70.7L70.03 77L89.4 81.8001L99.89 75.2201L118.03 75.6201L135.87 74.35L153.57 72.14L161.79 60.5801L169.43 47.46L186.88 47.1301L204.54 48.2001L222.25 49.75L239.87 50.71L246.76 42.44L253.93 38.2901L258.01 37.71L265.43 36.66L270.49 35.94L271.45 35.7001L281.45 33.17L286.87 31.8" stroke="white" stroke-linecap="round" stroke-linejoin="round"/>
<path d="M421.43 78.57L424.61 68.61L428.15 55.63L431.83 46.55L435.68 41.92L439.58 40.29L443.32 38.54L446.66 32.75L449.77 25.38L452.74 17.71" stroke="white" stroke-linecap="round" stroke-linejoin="round"/>
<path d="M0.5 59.49L10.88 59.5099L24.36 59.9599L36.58 57L47.38 49.59L57.3 39.93L74.22 38.52L83.01 26.41L99.16 22.15L107.75 12.16L117.33 9.53995L120.99 8.76995L124.12 8.39995L133.15 6.19995L149.57 6.26995L166.57 9.94995" stroke="white" stroke-linecap="round" stroke-linejoin="round"/>
<path d="M0.5 178.4L10.33 176.1L25.99 167.79L39.65 154.12L52.81 141.48L66.39 134.23L79.99 130.48L93.06 127.38L104.92 121.21L115.59 111.6L125.91 102.69L135.68 93.31L144.87 83.03L153.57 72.14L171.35 70.28L189.47 70.38L207.78 71.77L226.08 73.24L244.25 73.91L262.23 73.23L280.03 71L286.1 59.28L291.67 45.4L297.28 33.84L314.02 29.51L319.62 22.15L336.34 19.9L353.36 20.33L370.56 22.84L375.65 21.77L380.43 19.37L384.94 15.82L389.18 11.16L405.04 12.06L420.94 13.66L436.85 15.7L452.74 17.71L468.57 19.1L484.31 19.13L499.99 17.81L515.66 15.83" stroke="white" stroke-linecap="round" stroke-linejoin="round"/>
<path d="M0.5 174.28L10.33 176.1L34.22 178.29L57.71 178.8L81 178.34L104.07 176.7L126.96 173.92L149.75 170.29L172.54 166.36L184.11 157.62L206.22 152.52L216.08 140.13L237.83 135.33L247.54 129.04" stroke="white" stroke-linecap="round" stroke-linejoin="round"/>
<path d="M1166.7 6.92004L1176.61 8.06004L1186.3 12.46L1203.45 11.76L1220.38 12.23L1237.22 13.09L1254.22 13.11L1263.81 25.72L1273.22 40.87L1279.5 41.66" stroke="white" stroke-linecap="round" stroke-linejoin="round"/>
<path d="M325.11 118.03L329.86 109.76L335.64 97.76L341 84.29L346.04 69.95L350.93 56.25L355.8 44.38L360.56 33.48L365.47 26.13L370.56 22.84L387.86 26.85L405.18 31.65L409.65 31L413.68 26.86L417.41 20.75L420.94 13.66" stroke="white" stroke-linecap="round" stroke-linejoin="round"/>
<path d="M0.5 119.05L8.91 114.79L22.07 106.16L44.24 116.46L65.46 122.84L76.85 112.86L87.75 103.05L98.22 93.54L108.3 84.38L118.03 75.62L127.11 65.5L134.87 49.97L142.2 33.7L149.74 20.43L157.83 12.22L166.57 9.94995L183.96 16.44L187.56 17.98L201.44 23.94L209.36 26.15L218.59 29.74L222.08 30.51L235.38 33.41L251.88 35.2599L268.06 34.75L272.07 34.4399L273.53 34.58L277.35 33.9L283.8 31.9599L284.37 31.81L287.4 31.28L293.35 29.1399L294.51 28.7299L303.3 25.68L305.49 24.83L307.84 24.05L309.42 23.53L315.36 21.76L320.71 20.1L325.25 18.93L325.5 18.88L341.91 17.21L358.7 18.5L375.65 21.77L392.66 26.2L409.65 31L426.55 35.3699L443.32 38.54L459.94 39.75L476.39 38.2799L492.33 34.49L492.73 34.3899L495.23 28.6399L497.65 23.1L513.53 19.99L528.48 16.95L529.43 16.76L543.85 14.2L545.39 13.93L548.92 13.47" stroke="white" stroke-linecap="round" stroke-linejoin="round"/>
<path d="M0.5 143.38L8.43 138.29L23.65 133.82L38.62 131.71L52.74 129.06L65.46 122.84L85.65 124.39L104.92 121.21L123.57 114.42L142.21 106.95L161.31 101.63L171.08 93.33L181.02 88.8L190.63 85.02L209.39 84.73L228.32 85.54L236.66 81.2L244.25 73.91L250.98 62.65L257.31 50.41L274.56 48.59L280.57 38.02L297.28 33.84L303.24 26.21L304.51 25.14L305.69 24.68L307.84 24.05L309.49 23.53L313.62 22.34L321.12 20.16L325.5 18.88L330.63 17.39" stroke="white" stroke-linecap="round" stroke-linejoin="round"/>
<path d="M0.5 110.93L8.91 114.79L31.24 123.62L52.74 129.06L73.31 130.29L92.77 127.53L95.26 127.05L99.96 126L112.25 121.28L123.57 114.42L133.97 105.31L144.15 97.69L153.83 89.78L162.89 80.66L181.14 79.56L199.6 79.79L218.15 80.55L236.66 81.2L255.09 81.22L262.23 73.23L268.63 61.74L274.56 48.59L291.67 45.4L308.72 41.38L325.83 37.48L330.95 26.45L336.34 19.9L341.91 17.21L347.39 15.63L352.67 14.16L368.75 14.39L384.94 15.82L401.17 18.08L417.41 20.75L433.62 23.35L449.77 25.38L465.82 26.27L481.77 25.45L497.65 23.1L499.99 17.81" stroke="white" stroke-linecap="round" stroke-linejoin="round"/>
<path d="M1089.89 33.21L1098.64 35.83L1106.8 44.42L1114.55 57.66L1132.22 60.62L1150.01 62.76L1168.09 63.09L1186.46 61.92L1204.99 59.99L1223.56 57.93L1242.09 56.27L1260.45 55.43L1278.58 55.73L1279.5 55.78" stroke="white" stroke-linecap="round" stroke-linejoin="round"/>
<path d="M454.1 161.56L458.77 153.87L462.74 138.97L466.21 119.3L469.64 102.05L473.29 91.53L477.15 87.68L480.96 86.34L484.63 85.6" stroke="white" stroke-linecap="round" stroke-linejoin="round"/>
<path d="M1066.77 19.0699L1073.9 24.1799L1081.23 29.8199L1088.35 33.2599" stroke="white" stroke-linecap="round" stroke-linejoin="round"/>
<path d="M1072.57 33.79L1081.05 35.98L1089.09 43.31L1106.8 44.42L1124.43 45.97L1132.22 60.62L1140.74 73.1L1158.91 74.76L1169.32 80.76L1181.16 81.69L1193.37 81.23L1205.87 86.89L1226.17 86.08L1246.13 86.94L1265.89 88.66L1279.5 89.96" stroke="white" stroke-linecap="round" stroke-linejoin="round"/>
<path d="M704.73 17.88L705.72 26.58L706.81 32.73L707.96 38.1L709.1 46.12L710.27 54.07L711.56 59.89L712.89 63.32L714.35 63.72L717.76 63.94L718.58 64.08L736.6 67.2L737.23 67.4L753.86 72.73L755.28 73.18L755.98 73.44L770.75 78.09L773.84 80.08L776.66 84.45L795.65 89.15L814.74 91.04L818.49 95.78L822.13 105.12L825.82 116.47L829.73 127.14L833.92 136.79L838.36 145.89L842.99 155.85L847.64 168.83L852.51 182.57L857.86 193.68L863.84 201.09L870.38 206.31L877.2 213.2L884.01 225.14L890.67 243.92L897.25 268.42L904.19 294.24L912.2 314.89L921.19 332.3L931.15 347.75L942.05 362.59L953.71 379.3L965.74 401.74L1000.84 406.88L1035.38 414.65L1069.49 423.69L1103.59 431.41L1138.76 432.62L1175.22 427.58L1212.85 417.99L1251.35 405.91L1279.5 397.12" stroke="white" stroke-linecap="round" stroke-linejoin="round"/>
<path d="M525.65 178.58L528.26 170.24L530.62 153.35L532.71 132.23L534.81 114.41L537.09 104.58L539.69 102.12L541.93 102.32L542.12 102.33L560.35 102.63" stroke="white" stroke-linecap="round" stroke-linejoin="round"/>
<path d="M720.62 12.72L721.86 21.29L723.22 27.43L724.65 33.04L726.03 42.25L727.45 51.9L728.99 59.37L730.71 63.48L738.27 64.88L745.09 66.15L748.35 66.75L749.82 67.08L765.93 70.63L783.51 73.35L801.18 73.87L819.01 71.82L837.02 67.52L855.16 61.98L873.36 56.78L891.54 52.39L909.67 49.21L927.69 47.5L945.58 47.21L951.09 56.34L956.98 64.23L975.53 64L994.02 64.39L1012.54 64.45L1031.19 63.53L1049.78 63.2L1068.22 63.82L1086.51 65.4L1104.65 67.76L1122.7 70.52L1131.83 79.74L1150.54 80.45L1161.66 83.07L1181.16 81.69L1193.78 81.42L1204.93 80.87L1213.69 80.44L1226.17 86.08L1238.79 94L1252.28 100.79L1266.36 108.09L1279.5 116.4" stroke="white" stroke-linecap="round" stroke-linejoin="round"/>
<path d="M1055.41 33.3101L1056.93 33.8701L1063.45 36.2301L1071.25 43.0501L1078.93 52.8001L1086.51 65.4001L1094.47 77.7201L1103.22 87.4101L1111.21 92.9101" stroke="white" stroke-linecap="round" stroke-linejoin="round"/>
<path d="M344.03 112.14L348.9 105.12L354.58 95.6701L359.79 84.0301L364.57 70.3401L369.13 56.3101L373.67 44.2401L378.24 34.5001L382.98 28.8001L387.86 26.8501L392.66 26.2001L397.07 22.9901L401.17 18.0801L405.04 12.0601" stroke="white" stroke-linecap="round" stroke-linejoin="round"/>
<path d="M0.5 316.24L9.01 316.11L36.67 311.13L63.65 302.48L90.5 292.34L117.94 284.04L146.14 278.86L174.97 276.66L204.28 277.11L233.88 279.5L263.54 282.7L293.04 285.21L322.18 285.18L350.91 281.32L379.65 276.71L408.56 272.99L437.69 271.01L467 271.08L496.4 272.93L525.8 275.74L555.12 278.13L584.35 278.58L613.56 277.18L642.79 274.59L672.09 271.47L701.45 268.44L730.86 266.1L760.26 265.04L789.58 265.86L818.57 271.45L824.64 282.64L827.52 283.73L854.03 293.82L856.01 294.61L883.13 305.52L912.2 314.89L941.52 320.12L971.35 320.43L1001.83 316L1032.95 307.86L1064.62 297.46L1096.38 287.96L1127.74 281.77L1158.38 280.08L1188.14 282.78L1217.2 288.49L1246.05 294.53L1275.06 299.33L1279.5 300.44" stroke="white" stroke-linecap="round" stroke-linejoin="round"/>
<path d="M0.5 137.5L8.43 138.29L30.72 140.31L52.81 141.48L74.57 141.11L96.35 140.84L118.25 141.24L140.12 141.45L161.86 140.88L183.42 139.23L204.84 136.48L226.18 132.88L231.58 131.91" stroke="white" stroke-linecap="round" stroke-linejoin="round"/>
<path d="M0.5 199.27L6.65 194.23L24.33 187.41L41.68 183.88L57.71 178.8L72 169.53L84.53 155.35L96.35 140.84L108.2 129.75L120 121.6L140.45 119.13L151.17 110.6L161.31 101.63L181.06 99.92L190.42 91.53L210.32 93.31L219.43 88.75L228.32 85.54L247.31 86.94L255.09 81.22L273.38 80.24L280.03 71L297.7 67.36L315.3 62.8L333 58.65L350.93 56.25L369.13 56.31L387.54 58.88L406.07 63.38L424.61 68.61L443 72.76L461.14 73.69L479.11 71.72L497.04 68.54L515.02 65.53L533.08 63.67L551.22 63.61L569.41 65.6L587.61 69.52L605.76 73.52L623.85 75.19L631.24 74.97" stroke="white" stroke-linecap="round" stroke-linejoin="round"/>
<path d="M1018.94 23.6899L1025.36 28.1999L1041.19 29.3199L1057.37 27.8699L1073.9 24.1799L1090.68 19.1899L1098.37 24.2899L1106.52 28.3499L1115.69 28.1399L1133.44 23.2499L1142.76 26.3599L1151.58 34.5199L1159.84 47.8299L1168.09 63.0899L1177.44 74.4099L1188.32 79.8899L1200.63 80.6199L1213.69 80.4399L1233.41 80.3599L1253.06 80.6699L1272.7 80.9799L1279.5 80.9699" stroke="white" stroke-linecap="round" stroke-linejoin="round"/>
<path d="M688.9 22.52L689.67 30.11L690.51 35.28L691.38 40.23L692.25 47.78L693.14 55.44L694.11 61.3L694.55 62.7" stroke="white" stroke-linecap="round" stroke-linejoin="round"/>
<path d="M258.69 127.57L264.22 122.34L271.41 110.39L278.39 99.27L285.11 88.6L303.71 87.09L322.31 85.37L341 84.29L359.79 84.03L378.65 84.56L397.55 85.66L399.64 85.8" stroke="white" stroke-linecap="round" stroke-linejoin="round"/>
<path d="M0.5 33.7001L7.12 30.3101L18.23 27.4201L34.84 30.4101L50.94 31.0601L60.51 25.3101" stroke="white" stroke-linecap="round" stroke-linejoin="round"/>
<path d="M736.5 9.54004L738.03 16.71L739.7 21.81L741.42 27.37L743.03 37.83L744.65 49.79L746.39 60.1L748.35 66.75L750.55 69.14L752.89 70.51L753.97 70.6L766.12 74.35L768.39 75.11L771.11 76.64L786.2 80.29L804.06 83.26L822.08 83.34L840.28 80.6L858.68 75.86L877.17 70.59L895.72 65.47L914.26 61.13L932.73 58.05L951.09 56.34L969.34 55.76L987.54 55.72L1005.79 55.25L1012.54 64.45L1019.37 75.32L1026.69 84.88L1045.74 86.16L1064.82 87.17L1083.96 87.66L1087.56 90.66L1087.6 90.69" stroke="white" stroke-linecap="round" stroke-linejoin="round"/>
<path d="M478.47 164.59L481.97 158.42L485.41 143.19L488.42 123.25L491.43 106.3L494.66 96.5801L498.07 93.7201L501.43 93.0701L504.57 91.1801L524.4 95.9501" stroke="white" stroke-linecap="round" stroke-linejoin="round"/>
<path d="M311.3 20.4301L305.78 24.6101L305.49 24.8301L304.51 25.1401L290.21 29.0301L289.37 29.3301L283.8 31.9601L277.35 33.9001L270.49 35.9401L263.76 41.0601L257.31 50.4101L239.87 50.7101L233.14 62.1501L226.08 73.2401L218.15 80.5501L209.39 84.7301L200.03 87.5501L190.42 91.5301L171.08 93.3301L152.32 98.3601L133.97 105.31L115.59 111.6L96.65 114.48L76.85 112.86L56.08 106.63L34.43 96.6701L12.24 84.8601L0.5 79.1901" stroke="white" stroke-linecap="round" stroke-linejoin="round"/>
<path d="M0.5 28.11L7.12 30.31L24.16 33.94L40.51 34.43L52.4 32.36" stroke="white" stroke-linecap="round" stroke-linejoin="round"/>
<path d="M502.33 170.56L505.16 164.27L508.06 148.33L510.61 127.9L513.17 110.76L515.93 101.3L518.87 98.99L539.53 102.28" stroke="white" stroke-linecap="round" stroke-linejoin="round"/>
<path d="M693.27 198.91L694.84 205.52L696.39 218.26L697.96 234.97L699.62 252.84L701.45 268.44L703.56 278.51L705.81 289.38L708.02 309.53L710.09 341.71L712.12 382.13L714.41 420.43L717.16 451.09L720.4 475.77L724.09 497.51L728.12 522.02L732.2 558.16L736.24 608.71" stroke="white" stroke-linecap="round" stroke-linejoin="round"/>
<path d="M0.5 46.69L7.03 45.9L23.81 44.13L34.93 39.47L50.85 34.84L56.68 31.62L57.24 31.31L58.97 30.11L61.06 29.2L74.77 24.09L76.51 23.23" stroke="white" stroke-linecap="round" stroke-linejoin="round"/>
<path d="M0.5 46.13L7.03 45.9L18.75 42.6699L29.79 38.32L40.51 34.43L50.94 31.0599L58.97 30.11L61.06 29.2" stroke="white" stroke-linecap="round" stroke-linejoin="round"/>
<path d="M459.21 79.87L461.14 73.69L464.08 60.55L467.07 50.49L470.19 44.43L473.34 41.25L476.39 38.28L479.14 32.1L481.77 25.45L484.31 19.13" stroke="white" stroke-linecap="round" stroke-linejoin="round"/>
<path d="M0.5 193.94L6.65 194.23L31.68 192.39L56.44 189.13L81.25 185.81L97.05 180.02L107.01 179.02L121.39 177.58L146.03 176.63L159.78 172.11L183.74 171.06L208.09 172.4L232.93 177.25L257.83 183.13L282.45 187.66L306.66 189.39L330.45 187.72" stroke="white" stroke-linecap="round" stroke-linejoin="round"/>
<path d="M707.02 63.48L712.96 62.9L730.71 63.48L732.59 64.62L734.52 65.14L736.6 67.2L738.64 71.39L740.71 77.29L742.89 83.17L762.63 90.82L762.72 90.85L765.27 100.65L767.74 115.17L770.21 132.34L772.81 149.42L775.73 162.97L778.86 175.5L782.07 189.93L785.6 201.81" stroke="white" stroke-linecap="round" stroke-linejoin="round"/>
<path d="M485.75 85.92L491.56 85.58L510.31 84.55L529.09 83.75L547.89 83.33L566.7 83.31L585.53 83.69L604.33 82.64L622.2 78.83L622.44 78.78L623.13 78.63L623.59 77.99L623.85 75.19L624.17 70.2L624.43 58.61L624.68 43.81L624.91 29.6L625.16 19.56L625.43 16.79" stroke="white" stroke-linecap="round" stroke-linejoin="round"/>
<path d="M673.15 25.3101L673.69 31.0001L674.27 34.5301L674.87 38.9501L675.45 46.6601L676.04 55.1901L676.68 62.4501V62.4801" stroke="white" stroke-linecap="round" stroke-linejoin="round"/>
<path d="M752.3 9.19995L754.17 14.37L756.18 17.91L758.19 23.1L760.05 34.08L761.87 47.7599L763.78 60.86L765.93 70.6299L768.39 75.11L768.94 75.27L771.11 76.64L773.55 78.19L787.15 82.76L789.2 83.44L792.38 85.78L798.67 86.86L807.91 87.91L825.71 88.13L829.76 89.2L834 89.96L850.7 87.03L853.46 86.55L858.16 89.77L862.48 100.79L866.77 114.91L871.46 126.68L876.63 135.65L882.19 143.15L903.95 143.71L910.15 153.33L916.35 166.27L923.02 178.07L946.08 181.08L969.22 183.04L992.63 182.51L1016.4 179.44L1040.53 174.23L1064.94 167.75L1089.45 161.4L1113.71 157.05L1137.57 155.43L1161.6 153.05L1175.23 161.81L1189.83 169.9L1204.6 181.63L1219.23 198.52L1235.14 214.05L1251.78 231.17L1268.71 252.16L1279.5 268.31" stroke="white" stroke-linecap="round" stroke-linejoin="round"/>
<path d="M925.76 12.2L930.83 14.28L936.23 15.11L952.69 14.09L966.81 14.22L969.04 14.25L974.89 15.23L991.64 17.54L1003.5 21.55L1005.86 22.35L1007.62 22.94L1014.49 25.5L1024.07 28.11L1025.95 28.62L1030.83 29.95L1038.35 32L1045.82 36.6899L1053.26 43.7599L1060.85 51.9399L1078.93 52.7999L1096.82 54.83L1114.55 57.66L1122.7 70.5199L1140.74 73.0999L1150.54 80.45L1169.32 80.76L1188.32 79.89L1207.68 77.3L1220.22 78.97L1239.94 76.86L1259.75 74.41L1279.5 71.83" stroke="white" stroke-linecap="round" stroke-linejoin="round"/>
<path d="M909.86 13.49L914.6 16.17L919.67 17.17L924.92 18.43L930.23 21.07L947.29 20.19L964.27 20.05L981.2 20.42L998.01 21.74L1014.49 25.5L1021.33 30.33L1028.16 37.38L1035.16 45.31L1042.59 52.29L1049.78 63.2L1057.02 75.94L1064.82 87.17L1066.81 88.96" stroke="white" stroke-linecap="round" stroke-linejoin="round"/>
<path d="M524.4 95.95L526.86 91.34L529.09 83.75L531.13 73.76L533.08 63.67L535.01 55.27L536.78 44.59L538.48 33.73L540.16 24.59L541.87 18.12L543.62 14.65L545.19 14.14L548.92 13.47L552.78 12.61L557.53 11.56L559.88 11.03" stroke="white" stroke-linecap="round" stroke-linejoin="round"/>
<path d="M772.59 16.4301L774.91 20.9901L777.06 31.4701L779.11 45.6801L781.21 60.7201L783.51 73.3501L786.2 80.2901L789.2 83.4401L790.35 83.6901L807.91 87.9101L810.99 88.9801L829.76 89.2001L848.71 86.7401L853 86.2401L867.83 82.6701L873.03 82.2601L878.18 85.3801L882.85 96.9601L887.41 112.36L892.41 125.5L897.95 135.56L919.17 136.53L940.73 134.17L962.72 128.32L985.07 120.28L1007.65 111.38L1030.3 103.02L1052.77 96.6901L1074.81 93.9101L1096.3 94.7701L1106.08 108.24L1115.43 127.41L1125.74 144.02L1137.57 155.43L1150.72 163.45L1175.23 161.81L1199.41 162.04L1214.35 171.67L1229.8 183.27L1245.23 199.48L1261.33 217.29L1277.9 237.82L1279.5 240.05" stroke="white" stroke-linecap="round" stroke-linejoin="round"/>
<path d="M0.5 359.47L4.98 357.08L26.55 340.78L45.91 322.06L63.65 302.48L78.82 276.7L92.31 247.82L105.15 220.15L118.12 197.58L131.83 183.42L157.81 185.97L184.3 191.92L211.34 202.02L238.18 212.09L264.34 218.52L289.66 219.4L314.26 214.35L322.61 201.16L346.36 193.16L353.94 182.9L377.33 176.07L384.04 167.31L390.06 155.07L412.74 151.97L435.66 151.52L458.77 153.87L481.97 158.42L505.16 164.27L528.26 170.24L551.21 174.9L574.02 176.53L596.74 174.67L619.49 171.72L642.29 169.01L665.12 167.39L687.95 167.32L710.74 168.83L733.47 171.51L756.14 174.52L778.86 175.5L801.69 174.23L824.64 171.7L847.64 168.83L870.65 166.47L893.59 165.39L916.35 166.27L938.86 169.29L961.52 170.6L984.5 169.2L1007.82 165.41L1031.44 159.87L1055.26 153.61L1079.08 147.99L1102.6 144.77L1125.74 144.02L1149.32 140.98L1173.11 137.03L1196.85 133.67L1220.31 131.95L1243.33 132.41L1255.65 154.68L1268.97 175.7L1279.5 187.45" stroke="white" stroke-linecap="round" stroke-linejoin="round"/>
<path d="M877.82 19.58L881.98 22.45L886.48 23.13L891.1 24.36L908.01 21.22L924.92 18.43L941.78 16.39L958.55 15.38L974.89 15.23L978.89 15.52L985.16 16.33L991.64 17.54L998.01 21.74L1004.25 29.02L1010.49 38.29L1028.16 37.38L1045.82 36.69L1063.45 36.23L1081.05 35.98L1098.64 35.83L1116.24 35.66L1133.87 35.26L1142.07 47.32L1150.01 62.76L1158.91 74.76L1177.44 74.41L1196.37 72.02L1215.57 68.41L1227.29 73.59L1247.06 69.37L1259.75 74.41L1272.7 80.98L1279.5 86.02" stroke="white" stroke-linecap="round" stroke-linejoin="round"/>
<path d="M0.5 54.9399L5.32 55.9499L22.36 59.5399L24.36 59.9599L42.01 63.8999L43.41 64.2199L62.5 68.9699L81.37 72.8999L99.89 75.2199L109.55 66.5399L117.6 51.1199L134.87 49.9699L152.12 48.5999L169.43 47.4599L177.1 36.4799L185.09 29.4499L193.3 25.8699L201.44 23.9399L202.79 24.3899L208.55 25.8699L217.92 27.5299L233.88 29.4399L249.6 29.6799L265.19 28.8899" stroke="white" stroke-linecap="round" stroke-linejoin="round"/>
<path d="M0.5 55.95H5.32L18.05 53.62L29.67 48.52L47.38 49.59L65.13 50.92L82.75 51.69L100.24 51.74L117.6 51.12" stroke="white" stroke-linecap="round" stroke-linejoin="round"/>
<path d="M441.55 77.22L443 72.76L446.23 59.56L449.56 49.95L453.03 44.63L456.55 42.21L459.94 39.75L462.97 33.54L465.82 26.27L468.57 19.1" stroke="white" stroke-linecap="round" stroke-linejoin="round"/>
<path d="M861.79 23.4399L865.7 25.8099L869.94 26.0199L874.25 27.2799L878.82 27.4499L895.96 24.9699L913.11 22.7199L930.23 21.0699L935.43 26.9399L940.49 36.2499L945.58 47.2099" stroke="white" stroke-linecap="round" stroke-linejoin="round"/>
<path d="M805.06 20.54L808.05 23.43L824.48 26.59L830.55 27.54L840.91 29.17L857.5 29.25L861.72 29.63L865.86 33.34L869.72 42.73L873.36 56.78L877.17 70.59L881.76 77.2" stroke="white" stroke-linecap="round" stroke-linejoin="round"/>
<path d="M472.21 82.5L476.2 82.08L494.46 79.05L512.76 76.01L531.13 73.76L549.57 72.86L568.06 73.6L586.58 76L605.06 78.09L623.5 77.5L626.74 77.06" stroke="white" stroke-linecap="round" stroke-linejoin="round"/>
<path d="M837.23 27.65L840.91 29.17L844.73 30.69L848.44 36.01L851.88 46.94L855.16 61.98L858.68 75.86L862.95 81.95L867.83 82.67L872.21 81.76L886.99 78.7L892.56 79.1L912.07 76.6L931.51 75.05L950.82 74.95L969.96 76.38L988.93 79.04L1007.79 82.23L1026.69 84.88L1033.15 90.04" stroke="white" stroke-linecap="round" stroke-linejoin="round"/>
<path d="M821.14 24.5L824.48 26.59L827.84 30.46L831.05 38.63L834.06 51.74L837.02 67.52L840.28 80.6L844.23 86.09L848.71 86.74L853 86.24L869.81 82.97L873.03 82.26L892.56 79.1L898.08 82.84L903.12 94.67L908.02 110.69L913.32 125.03L919.17 136.53L925.54 145.96L947.4 145.33L969.68 141.24L992.35 134.58L1015.31 126.47L1038.41 118.26L1061.41 111.55L1084 108.19L1106.08 108.24L1128.43 106.72L1150.92 104.53L1173.36 102.79L1185.13 116.49L1196.85 133.67L1209.35 150.33L1223.09 164.61L1238.16 176.55L1254.22 188.29L1270.53 203.42L1279.5 213.89" stroke="white" stroke-linecap="round" stroke-linejoin="round"/>
<path d="M637.92 22.46L641.73 23.42L641.77 23.82L645.26 25.58L646 25.82L652.34 28.35L657.89 29.78L673.69 31L689.67 30.11L705.72 26.58L721.86 21.29L738.03 16.71L754.17 14.37L770.22 14.55L778.76 15.87L786.43 17.18L788.88 17.47L791.54 21.24L794.03 30.18L796.39 43.49L798.71 59.15L801.18 73.87L804.06 83.26L807.39 87.27L810.99 88.98L814.74 91.04L834 89.96L838.23 93.82L842.21 104.07L846.21 116.73L850.55 127.57L855.26 136.33L860.3 144.11L865.48 153.48L870.65 166.47L876.12 179.51L882.15 189.73L888.85 196.56L913.83 193.21L921.82 198.56L947.3 197.78L956.32 205.32L965.68 215.09L974.81 231.99L983.53 257.2L992.26 287.18L1001.83 316L1011.81 347.24L1023.21 374.53L1036.8 394.12L1052.59 407.75L1069.49 423.69L1085.82 452.29L1102.17 489.97L1139.47 494.47L1158.92 532.9L1181.1 569.38L1207.52 599.77L1236.99 631.94" stroke="white" stroke-linecap="round" stroke-linejoin="round"/>
<path d="M603.56 86.36L604.33 82.64L605.06 78.09L605.76 73.5199L606.41 67.8099L606.96 54.8899L607.45 38.6199L607.92 23.3L608.44 12.84L609.02 10.45" stroke="white" stroke-linecap="round" stroke-linejoin="round"/>
<path d="M562.11 102.37L563.7 99.07L565.27 92.34L566.7 83.31L568.06 73.6L569.41 65.6L570.74 59.39L571.88 47.54L572.92 33.2L573.94 20.01L575.02 11.05L576.21 8.71997" stroke="white" stroke-linecap="round" stroke-linejoin="round"/>
<path d="M1279.5 427.52L1276.17 428.5L1235.95 441.13L1196.52 451.92L1158.26 458.55" stroke="white" stroke-linecap="round" stroke-linejoin="round"/>
<path d="M657.44 25.6L657.73 29.02L658.05 30.59L658.36 34.42L658.66 42.77L658.96 52.98L659.27 62.58L659.37 64.59" stroke="white" stroke-linecap="round" stroke-linejoin="round"/>
<path d="M395.01 87.87L397.55 85.66L402.05 76.33L406.07 63.38L409.95 50.7099L413.96 41.88L418.16 37.57L422.44 36.43L426.55 35.3699L430.22 30.32L433.62 23.35L436.85 15.7" stroke="white" stroke-linecap="round" stroke-linejoin="round"/>
<path d="M571.09 192.03L572.43 188.98L574.02 176.53L575.38 157.91L576.58 135.36L577.77 115.29L579.08 103.3L580.52 99.53L580.99 99.41" stroke="white" stroke-linecap="round" stroke-linejoin="round"/>
<path d="M582.01 99.06L583.22 96.16L584.42 90.79L585.53 83.69L586.58 76L587.61 69.5199L588.6 63.6399L589.44 50.91L590.18 35.0099L590.92 20.18L591.71 10.15L592.59 7.94995" stroke="white" stroke-linecap="round" stroke-linejoin="round"/>
<path d="M0.5 66.9301L3.48 67.7101L16.97 64.6201L30.43 64.2301L43.41 64.2201L55.09 60.4801L73.51 63.7701L91.69 65.9501L109.55 66.5401L127.11 65.5001L144.47 63.2301L161.79 60.5801L179.3 58.8401L186.88 47.1301L194.61 38.3901L212.11 40.4701L219.97 36.7201L227.86 35.3501L235.38 33.4101L242.74 32.4101L249.6 29.6801" stroke="white" stroke-linecap="round" stroke-linejoin="round"/>
<path d="M488.9 86.8L491.56 85.58L494.46 79.05L497.04 68.54L499.48 57.26L501.86 46.96L504.26 39L506.68 33.47L509.06 29.14L511.31 24.06L513.53 19.99L515.66 15.83L531.34 13.79L547.06 12.16L557.15 11.58" stroke="white" stroke-linecap="round" stroke-linejoin="round"/>
<path d="M681.73 62.03L681.76 62.12L682.67 64.74L683.57 73.36L684.4 89.35L685.19 111L685.98 134.3L686.9 152.95L687.95 167.32L689.06 181.39L690.3 191.28L691.72 196.21L693.27 198.91L718.59 201.41L742.02 204.92L743.81 205.19L746.96 209.81L750.12 219.49L753.32 233.51L756.64 249.82L760.26 265.04L764.39 275.24L768.83 285.92L773.23 304.79L777.44 334.42L781.62 371.65L786.29 407.35L791.8 436.75L798.09 463.03L805.05 489.82L812.47 521.54L820.05 563.5L827.41 620.68" stroke="white" stroke-linecap="round" stroke-linejoin="round"/>
<path d="M700.16 62.83L701.51 64.66L702.88 68.6L704.18 78.38L705.39 95.31L706.55 116.84L707.76 138.85L709.16 155.68L710.74 168.83L712.39 182.61L714.22 192.93L716.86 198.64L740.8 202.14L743.81 205.19L745.57 205.54L766.64 209.75L768.91 210.2L772.84 214.54L776.81 223.26L803.44 226.81L830.15 228.3L856.99 227.65L884.01 225.14L911.2 221.44L938.48 217.61L965.68 215.09L992.55 215.52L1019.13 217.91L1045.64 220.57L1072.21 222.44L1086.69 224.84L1114.42 224.96L1142.06 225.59L1169.66 226.33L1197.35 226.56L1224.99 226.96L1251.78 231.17L1277.9 237.82L1279.5 238.29" stroke="white" stroke-linecap="round" stroke-linejoin="round"/>
<path d="M0.5 164.74L2.28 163.92L16.72 151.37L30.72 140.31L45.2 134.87L59.61 132.57L73.31 130.29L85.65 124.39L96.65 114.48L107.19 104.81L117.22 94.89L126.75 84.63L135.87 74.35L144.47 63.23L152.12 48.6L159.6 34.73L167.36 24.44L175.52 18.51L193.3 25.87L210.76 31.64L227.86 35.35L244.68 37.26L261.16 36.78L272.07 34.44L283.96 31.89L287.55 31.2L303.19 26.73L309 23.75L309.42 23.53L310.56 23.15L311.3 22.92L321.17 19.83L324.28 19.03L325.74 18.74L330.73 17.36L331.2 17.23L336.37 16.28L347.39 15.63L363.84 16.68L380.43 19.37L397.07 22.99L413.68 26.86L430.22 30.32L446.66 32.75L462.97 33.54L479.14 32.1L495.23 28.64L511.31 24.06L511.46 24.02L527.02 19.3L527.43 19.18L527.97 19.03L542.72 14.9L543.62 14.65L545.19 14.14L547.06 12.16" stroke="white" stroke-linecap="round" stroke-linejoin="round"/>
<path d="M661.88 63.8101L662.37 65.6001L662.85 72.5201L663.3 86.5701L663.72 107.31L664.12 131.23L664.59 151.61L665.12 167.39L665.69 181.71L666.34 190.97L667.09 194.99L667.89 197.48L668.69 205.43L669.48 219.84L670.28 237.76L671.14 256.04L672.09 271.47L673.18 281.28L674.36 291.52L675.51 311.33L676.58 343.94L677.61 385.56L678.77 425.39L680.17 457.96L681.82 483.56L683.75 504.26L685.89 525.9L688.06 558.91L690.27 604.25" stroke="white" stroke-linecap="round" stroke-linejoin="round"/>
<path d="M1188.01 97.21L1189.85 97.26L1210.83 97.69L1231.78 98.23L1252.28 100.79L1272.1 106.32L1279.5 108.79" stroke="white" stroke-linecap="round" stroke-linejoin="round"/>
<path d="M0.5 163.55L2.28 163.92L25.99 167.79L49.11 169.17L72 169.53L94.83 169.65L117.47 168.71L139.86 166.32L162.03 162.49L184.11 157.62L194.52 145.57L204.84 136.48L215.35 132.13L231.58 131.91L237.66 130.81" stroke="white" stroke-linecap="round" stroke-linejoin="round"/>
<path d="M0.5 43.98L2.12 43.59L13.33 38.7L24.16 33.94L34.84 30.41L44.81 25.32L60.51 25.31L74.13 24.15" stroke="white" stroke-linecap="round" stroke-linejoin="round"/>
<path d="M0.5 43.44L2.12 43.59L18.75 42.67L34.93 39.47L45.62 34.84L52.4 32.36L55.47 31.24L58.39 30.17" stroke="white" stroke-linecap="round" stroke-linejoin="round"/>
<path d="M475.31 83.28L476.2 82.08L479.11 71.72L481.79 59.28L484.48 49.04L487.23 42.14L490.02 37.96L492.73 34.39L508.5 29.32L509.06 29.14L524.84 23.65L525.43 23.45L527.43 19.18L529.43 16.76L531.34 13.79" stroke="white" stroke-linecap="round" stroke-linejoin="round"/>
<path d="M642.05 69.95L642.09 71.36L642.12 76.24L642.15 87.54L642.19 106.42L642.22 130.13L642.25 151.89L642.29 169.01L642.33 183.37L642.38 191.74L642.43 194.6L642.49 196.75L642.55 206L642.6 221.97L642.66 240.91L642.72 259.45L642.79 274.59L642.87 284.05L642.96 293.1L643.04 311.67L643.12 343.76L643.19 385.87L643.28 427.06L643.38 462.3L643.49 490.3L643.63 511.7L643.79 532L643.95 562.53L644.12 602.28" stroke="white" stroke-linecap="round" stroke-linejoin="round"/>
<path d="M0.5 131.76L1.77 131.38L23.65 133.82L45.2 134.87L66.39 134.23L87.25 131.85L108.2 129.75L129.42 129.01L150.84 129.31L172.36 130.27L182.57 121.07L204.03 124.78L213.58 117.52L234.95 124.24L250.9 128.6" stroke="white" stroke-linecap="round" stroke-linejoin="round"/>
<path d="M0.5 131.19L1.77 131.38L16.98 127.96L38.62 131.71L59.61 132.57L79.99 130.48L92.77 127.53L105.63 123.38L112.25 121.28L131.48 114.85L151.17 110.6L171.47 109.64L192.33 112.16L213.58 117.52" stroke="white" stroke-linecap="round" stroke-linejoin="round"/>
<path d="M641.73 23.42L641.76 24.2L641.8 26.88V27.47L641.82 36.69L641.84 48.98L641.86 61.3L641.89 70.03" stroke="white" stroke-linecap="round" stroke-linejoin="round"/>
<path d="M0.5 22.67L1.25 22.87L18.23 27.42L28.86 24.18" stroke="white" stroke-linecap="round" stroke-linejoin="round"/>
<path d="M0.5 22.97L1.25 22.87L12.76 22.36" stroke="white" stroke-linecap="round" stroke-linejoin="round"/>
<path d="M0.5 411.26L0.76 411L38.01 417.52L74.77 422.68L96.45 403.91L115.65 382.19L149.01 384.26L181.95 384.29L214.53 382.12L229.45 364.4L242.25 340.6L253.31 311.67L263.54 282.7L273.86 259.68L284.47 244.28L311.39 239.14L338.26 232.51L346.7 217.32L355.01 206.17L362.6 192.96L387.08 182.49L411.8 172.45L436.93 165.57L462.51 163.7L478.14 165.18L488.52 166.9L502.17 170.91L502.81 170.71L514.51 174.8L525.58 178.81L533.75 181.58L540.46 184.3L546.08 186.14L548.14 186.57L548.94 186.17L551.21 174.9L553.07 157.01L554.7 135.13L556.34 116.25L558.13 105.5L560.06 102.68L560.35 102.63L562.11 102.37L576.08 100.25L580.52 99.53L580.99 99.41L582.01 99.06L582.62 98.84L585.11 97.98L595.8 94.28L600.67 92.2L601.09 91.63L602.14 91.59L621.24 83.72L621.47 83.62L621.9 80.77L622.32 79.19L622.73 78.92L623.1 78.71L623.83 78.48L623.9 78.46L623.98 78.42L626.94 77.03L631.78 75.46L642.09 71.36L662.37 65.6L682.67 64.74L702.88 68.6L722.94 75.67L742.76 83.12L742.89 83.17L745.02 93.25L747.02 109.3L749.01 128.66L751.11 147.78L753.51 162.23L756.14 174.52L758.84 188.53L761.82 199.88L765.18 206.76L789.59 209.28L814.17 208.55L838.92 205.47L863.84 201.09L888.85 196.56L896.11 201.91L921.82 198.56L930.08 206.23L938.48 217.61L946.61 236.55L954.42 263.22L962.39 293.38L971.35 320.43L981.07 347.21L992.2 369.61L1005.2 385.62L1019.94 397.91L1035.38 414.65L1050.24 444.46L1065.08 483.38L1080.97 525.61L1099.12 565.79L1120.94 599.11L1163.96 600.69L1207.52 599.77L1253.32 590.34L1279.5 582.26" stroke="white" stroke-linecap="round" stroke-linejoin="round"/>
<path d="M0.5 410.96L0.76 411L25.87 394.57L48.19 375.55L67.73 352.34L85.18 326.62L101.61 302.47L117.94 284.04L132.83 264.13L146.46 242.98L159.33 222.63L171.84 205.03L184.3 191.92L196.55 182.09L222.54 190.15L248.43 198.5L273.8 204.06L298.5 205.09L322.61 201.16L330.45 187.72L353.94 182.9L360.93 170.97L367.26 156.38L373.07 139.84L378.39 121.4L383.61 104.84L389.07 93.85L409.68 87.95L430.65 85.72L451.91 87.43L473.29 91.53L494.66 96.58L515.93 101.3L537.09 104.58L558.13 105.5L579.08 103.3L580.36 102.98L600.03 97.91L621.05 91.82L642.15 87.54L663.3 86.57L684.4 89.35L705.39 95.31L726.24 102.81L747.02 109.3L767.74 115.17L788.38 120.7L809.02 124.85L829.73 127.14L850.55 127.57L871.46 126.68L892.41 125.5L913.32 125.03L934.53 121.6L956.1 115.42L977.93 107.95L999.85 100.47" stroke="white" stroke-linecap="round" stroke-linejoin="round"/>
<path d="M0.5 499.63L0.64 499.49L27.23 470.98L51.73 444.9L74.77 422.68L110.75 424.81L130.85 405.02L149.01 384.26L164.86 359.15L178.74 330.03L191.51 300.67L204.28 277.11L217.13 259.81L245.52 259.94L257.33 247.21L268.99 239.16L279.98 231.68L289.66 219.4L298.5 205.09L306.66 189.39L314.12 171.76L321.06 153.19L327.79 136.15L334.58 122.87L341.52 114.36L343.13 113.44L348.58 110.31L362.35 104.47L367.84 98.79L373.49 93.04L378.65 84.56L383.27 72.63L387.54 58.88L391.75 46.53L396.07 37.5L400.57 32.85L405.18 31.65L422.44 36.43L439.58 40.29L456.55 42.21L473.34 41.25L490.02 37.96L491.34 37.6L506.68 33.47L507.19 33.33L523.38 28.76L540.16 24.59L557.02 21.54L573.94 20.01L590.92 20.18L607.92 23.3L624.91 29.6L641.82 36.69L658.66 42.77L675.45 46.66L692.25 47.78L709.1 46.12L726.03 42.25L743.03 37.83L760.05 34.08L777.06 31.47L794.03 30.18L810.95 30.01L827.84 30.46L844.73 30.69L861.72 29.63L878.82 27.45L883.31 30.69L887.53 39.3L891.54 52.39L895.72 65.47L900.64 72.47L906.18 75.07L925.32 72.3L931.51 75.05L937.8 79.63L943.84 89.48L949.83 102.39L956.1 115.42L962.72 128.32L969.68 141.24L976.95 154.73L984.5 169.2L992.63 182.51L1001.6 193.1L1025.84 190.94L1050.53 186.12L1061.35 196.58L1072.64 208.34L1084.68 219.96L1098.98 222.91L1114.42 224.96L1129.92 232.82L1144.68 250.8L1158.38 280.08L1172.08 314.74L1187.67 345.89L1206.26 369.49L1227.94 387.03L1251.35 405.91L1276.17 428.5L1279.5 431.69" stroke="white" stroke-linecap="round" stroke-linejoin="round"/>
<path d="M566.13 191.89L571 192.24L592.68 193.87L593.12 193.89L594.49 193.93L604.02 194.17L618.1 193.75L642.38 191.74L666.34 190.97L690.3 191.28L714.22 192.93L738.07 195.92L761.82 199.88L785.6 201.81L789.59 209.28L794.02 213.28L819.3 213.07L824.7 218.4L830.15 228.3L835.61 243.21L841.19 261.65L847.19 280.16L854.03 293.82L861.6 305.36L869.49 320.51L877.47 342.18L909.99 351.39L919.86 373.29L930.14 399.76L940.86 431.2L952.21 466.57L964.48 504.54L977.98 544.04L1018.42 552.48L1058.74 559.98L1099.12 565.79L1139.78 569.31L1181.1 569.38L1224.67 560.26L1270.12 545.15L1279.5 541.8" stroke="white" stroke-linecap="round" stroke-linejoin="round"/>
<path d="M1160.96 95.92L1174.4 96.48L1180.42 96.73L1182.41 96.81L1183.17 97.13L1195.6 102.28L1217.51 103.37L1230.83 114.24L1252.96 116.61L1274.58 121.06L1279.5 122.93" stroke="white" stroke-linecap="round" stroke-linejoin="round"/>
<path d="M1182.41 96.8101L1188.17 97.2201L1203.72 98.3301L1217.51 103.37L1239.06 106.11L1260.28 110.15L1279.5 116.76" stroke="white" stroke-linecap="round" stroke-linejoin="round"/>
<path d="M1064.71 88.79L1066.81 88.96L1085.57 90.5L1089.01 91.87L1096.3 94.77L1117.84 95.25L1128.43 106.72L1138.49 124.43L1149.32 140.98L1161.6 153.05L1185.6 151L1209.35 150.33L1232.72 151.56L1246.24 169.4L1261.32 183.93L1277.93 195.95L1279.5 197.2" stroke="white" stroke-linecap="round" stroke-linejoin="round"/>
<path d="M1085.57 90.5L1087.6 90.69L1106.36 92.49L1112.86 94.05L1117.84 95.25L1139.42 95.49L1150.92 104.53L1161.81 120.26L1173.11 137.03L1185.6 151L1199.41 162.04L1223.09 164.61L1246.24 169.4L1268.97 175.7L1279.5 178.75" stroke="white" stroke-linecap="round" stroke-linejoin="round"/>
<path d="M1106.36 92.49L1111.21 92.91L1117.52 93.45L1127.16 94.27L1139.15 95.28L1146.36 95.57L1147.63 95.65L1151.27 95.72L1160.96 95.92L1173.36 102.79L1195.6 102.28L1208.19 114.27L1220.31 131.95L1232.72 151.56L1255.65 154.68L1278.22 159.12L1279.5 159.39" stroke="white" stroke-linecap="round" stroke-linejoin="round"/>
<path d="M754.16 70.99L769.26 76.68L770.75 78.09L773.84 80.08L774.8 80.38L775.18 80.49L791.03 85.36L792.38 85.78L795.65 89.15L798.94 94.77L802.24 103.12L805.58 113.5L809.02 124.85L812.64 136.45L816.45 147.82L820.49 158.79L824.64 171.7L828.92 185.97L833.64 197.71L838.92 205.47L844.75 210.42L850.86 216.56L877.2 213.2L903.64 209.34L930.08 206.23L956.32 205.32L982.12 208.12L1007.56 213.16L1032.97 217.8L1045.64 220.57L1058.85 225.46L1086.69 224.84L1101.09 233.84L1114.82 252.7L1144.68 250.8L1173.73 253.17L1202.12 258.46L1230.32 264.11L1258.57 268.99L1279.5 275.7" stroke="white" stroke-linecap="round" stroke-linejoin="round"/>
<path d="M375.94 97.5901L380.95 94.9701L386.78 91.5601" stroke="white" stroke-linecap="round" stroke-linejoin="round"/>
<path d="M1095.54 32.68L1097.63 32.42L1107.38 31.58L1116.24 35.66L1124.43 45.97L1142.07 47.32L1159.84 47.83L1177.7 47.82L1195.57 47.75L1213.39 47.94L1231.12 48.58L1248.73 49.76L1266.22 51.41L1278.58 55.73" stroke="white" stroke-linecap="round" stroke-linejoin="round"/>
<path d="M1098.11 32.3L1105.27 30.61L1109.18 29.68L1115.69 28.14L1125.02 29.17L1133.87 35.26L1151.58 34.52L1169.28 33.83L1186.89 33.63L1204.38 34.14L1221.7 35.4L1238.9 37.22L1256.03 39.23L1273.22 40.87L1279.5 48.45" stroke="white" stroke-linecap="round" stroke-linejoin="round"/>
<path d="M1243.74 6.69L1246.5 6.3L1260.55 3.9L1266.09 2.38L1277.98 1.08L1279.5 0.5" stroke="white" stroke-linecap="round" stroke-linejoin="round"/>
<path d="M1248.95 5.81002L1260.55 3.90002L1278.33 1.40002L1279.5 2.46002" stroke="white" stroke-linecap="round" stroke-linejoin="round"/>
<path d="M331.2 17.23L336.37 16.28L341.85 15.28L352.67 14.16L357.68 11.86" stroke="white" stroke-linecap="round" stroke-linejoin="round"/>
<path d="M1226.92 7.21997L1243.48 6.69997L1243.72 6.67997L1248.95 5.80997L1260.98 4.21997L1271.49 11.94L1279.5 24.07" stroke="white" stroke-linecap="round" stroke-linejoin="round"/>
<path d="M533.75 181.58L540.66 183.46L549.02 185.74L572.43 188.98L595.71 188.12L619 185.82L642.33 183.37L665.69 181.71L689.06 181.39L712.39 182.61L735.65 185.18L758.84 188.53L782.07 189.93L805.43 188.74L828.92 185.97L852.51 182.57L876.12 179.51L899.67 177.7L906.39 187.02L930.42 186.74L954.08 189.73L977.72 192.51L1001.6 193.1L1011.42 201.3L1021.85 209.6L1046.99 210.65L1058.61 220.35L1084.68 219.96L1111.26 216.61L1138.31 211.08L1165.56 205.01L1192.61 200.54L1219.23 198.52L1245.23 199.48L1270.53 203.42L1279.5 205.71" stroke="white" stroke-linecap="round" stroke-linejoin="round"/>
<path d="M645.26 25.5801L646 25.8201L657.8 29.7701L658.05 30.5901L658.22 30.6401L662.31 31.6301L674.02 34.4701L674.27 34.5301L690.51 35.2801L706.81 32.7301L723.22 27.4301L739.7 21.8101L756.18 17.9101L772.59 16.4301" stroke="white" stroke-linecap="round" stroke-linejoin="round"/>
<path d="M685.07 62.47L694.72 63.24L701.51 64.66L702.39 64.92L721.17 70.53L722.14 70.86L740.71 77.29L741.73 77.66L760.15 84.34L762.72 90.85L782.47 98.08L802.24 103.12L822.13 105.12L842.21 104.07L862.48 100.79L882.85 96.96L903.12 94.67L923.46 92.08L943.84 89.48L964.14 87.8L984.3 87.53L1004.28 88.77L1012.88 90.81L1019.04 90.59" stroke="white" stroke-linecap="round" stroke-linejoin="round"/>
<path d="M702.81 63.3L707.12 63.7901L719.45 66.2601L719.72 66.3301L738.64 71.39L757.69 77.93L776.66 84.45L779.53 90.71L798.94 94.77L818.49 95.78L838.23 93.82L858.16 89.77L878.18 85.38L898.08 82.84L917.97 80.8701L937.8 79.63L957.51 79.7201L977.04 81.35L996.38 84.31L1015.58 87.9701L1025.46 89.7" stroke="white" stroke-linecap="round" stroke-linejoin="round"/>
<path d="M364.5 103.56L365.5 103.14L365.89 102.97L366.58 102.61L368.95 101.5L375.02 98.1199L376.26 97.5199L378.45 96.4499L390.76 90.4399" stroke="white" stroke-linecap="round" stroke-linejoin="round"/>
<path d="M852.05 27.9L853.24 27.85L857.5 29.25L874.25 27.28L891.1 24.36L895.96 24.97L900.75 28.56L905.29 36.98L909.67 49.21L914.26 61.13L919.51 68.44L925.32 72.3L944.36 70.88L963.25 70.93L982 72.19L1000.67 73.99L1019.37 75.32L1038.22 75.48L1057.02 75.94L1075.77 76.73L1094.47 77.72L1113.15 78.77L1131.83 79.74L1142.1 84.83L1161.66 83.07L1173.57 84.14L1187.85 82.22L1193.37 81.23L1199.14 80.7L1200.63 80.62L1202.18 80.49L1211.97 79.67L1220.22 78.97L1233.41 80.36L1246.13 86.94L1258.8 96.6L1272.1 106.32L1279.5 111.83" stroke="white" stroke-linecap="round" stroke-linejoin="round"/>
<path d="M585.11 97.98L600.67 92.2L601.87 91.32L602.88 89.9L603.34 88.8L612.04 84.39L616.91 81.93L622.14 79.22L622.39 79.11L623.09 78.74L623.5 77.5" stroke="white" stroke-linecap="round" stroke-linejoin="round"/>
<path d="M1266.09 2.37996L1277.98 1.07996L1279.5 1.28996" stroke="white" stroke-linecap="round" stroke-linejoin="round"/>
<path d="M1243.48 6.70005L1243.72 6.68005L1254.22 13.1101L1271.49 11.9401L1279.5 11.4301" stroke="white" stroke-linecap="round" stroke-linejoin="round"/>
<path d="M315.36 21.76L320.71 20.1L322.18 19.24L326.64 16.67" stroke="white" stroke-linecap="round" stroke-linejoin="round"/>
<path d="M716.09 63.52L717.66 63.8L719.45 66.26L721.17 70.53L722.94 75.67L724.65 85.94L726.24 102.81L727.8 123.43L729.45 143.86L731.36 159.14L733.47 171.51L735.65 185.18L738.07 195.92L740.8 202.14L741.87 202.34L765.18 206.76L768.91 210.2L794.02 213.28L798.7 217.93L824.7 218.4L850.86 216.56" stroke="white" stroke-linecap="round" stroke-linejoin="round"/>
<path d="M1090.77 33.13L1095.54 32.68L1097.63 32.42L1107.38 31.58L1125.02 29.17L1142.76 26.36L1160.5 23.75L1178.11 21.98L1195.53 21.36L1212.72 21.89L1229.75 23.27L1246.71 24.85L1256.03 39.23L1266.22 51.41L1279.5 52.94" stroke="white" stroke-linecap="round" stroke-linejoin="round"/>
<path d="M362.35 104.47L364.5 103.56L365.6 102.99L369.3 101.05L373.44 98.89L375.48 97.86L381.05 94.92L390.44 90.46L390.9 90.37" stroke="white" stroke-linecap="round" stroke-linejoin="round"/>
</g>
</mask>
<g mask="url(#mask1_1717_5684)">
<rect width="1280" height="637" fill="url(#paint0_linear_1717_5684)"/>
</g>
</mask>
<g mask="url(#mask0_1717_5684)">
<rect width="1280" height="637" fill="url(#paint1_radial_1717_5684)"/>
</g>
<defs>
<linearGradient id="paint0_linear_1717_5684" x1="640" y1="0" x2="640" y2="637" gradientUnits="userSpaceOnUse">
<stop offset="0.0989583" stop-color="white" stop-opacity="0"/>
<stop offset="0.453125" stop-color="white"/>
<stop offset="0.911458" stop-color="white" stop-opacity="0"/>
</linearGradient>
<radialGradient id="paint1_radial_1717_5684" cx="0" cy="0" r="1" gradientUnits="userSpaceOnUse" gradientTransform="translate(640 318.5) rotate(90) scale(318.5 640)">
<stop offset="0.53125" stop-color="white"/>
<stop offset="1" stop-color="white" stop-opacity="0"/>
</radialGradient>
<clipPath id="clip0_1717_5684">
<rect width="1280" height="636.59" fill="white"/>
</clipPath>
</defs>
</svg>
