<svg width="48" height="48" viewBox="0 0 48 48" fill="none" xmlns="http://www.w3.org/2000/svg">
    <g clip-path="url(#clip0_3019_9516)">
        <path d="M16.0032 0.9984C16.0032 1.12951 16.029 1.25934 16.0792 1.38047C16.1294 1.5016 16.2029 1.61167 16.2956 1.70438C16.3883 1.79709 16.4984 1.87063 16.6195 1.9208C16.7407 1.97098 16.8705 1.9968 17.0016 1.9968C17.1327 1.9968 17.2625 1.97098 17.3837 1.9208C17.5048 1.87063 17.6149 1.79709 17.7076 1.70438C17.8003 1.61167 17.8738 1.5016 17.924 1.38047C17.9742 1.25934 18 1.12951 18 0.9984C18 0.867288 17.9742 0.73746 17.924 0.616329C17.8738 0.495197 17.8003 0.385135 17.7076 0.292425C17.6149 0.199715 17.5048 0.126173 17.3837 0.0759987C17.2625 0.0258244 17.1327 0 17.0016 0C16.8705 0 16.7407 0.0258244 16.6195 0.0759987C16.4984 0.126173 16.3883 0.199715 16.2956 0.292425C16.2029 0.385135 16.1294 0.495197 16.0792 0.616329C16.029 0.73746 16.0032 0.867288 16.0032 0.9984ZM18 0.9984C18 1.26319 18.1052 1.51714 18.2924 1.70438C18.4797 1.89161 18.7336 1.9968 18.9984 1.9968C19.2632 1.9968 19.5171 1.89161 19.7044 1.70438C19.8916 1.51714 19.9968 1.26319 19.9968 0.9984C19.9968 0.733608 19.8916 0.479661 19.7044 0.292425C19.5171 0.105188 19.2632 5.95093e-08 18.9984 5.95093e-08C18.7336 5.95093e-08 18.4797 0.105188 18.2924 0.292425C18.1052 0.479661 18 0.733608 18 0.9984ZM19.9968 0.9984C19.9968 1.26319 20.1068 1.51714 20.294 1.70438C20.4813 1.89161 20.7352 1.9968 21 1.9968C21.2648 1.9968 21.5187 1.89161 21.706 1.70438C21.8932 1.51714 21.9984 1.26319 21.9984 0.9984C21.9984 0.733608 21.8932 0.479661 21.706 0.292425C21.5187 0.105188 21.2648 5.95093e-08 21 5.95093e-08C20.7352 5.95093e-08 20.4813 0.105188 20.294 0.292425C20.1068 0.479661 19.9968 0.733608 19.9968 0.9984ZM21.9984 0.9984C21.9984 1.26319 22.1084 1.51714 22.2956 1.70438C22.4829 1.89161 22.7368 1.9968 23.0016 1.9968C23.2664 1.9968 23.5203 1.89161 23.7076 1.70438C23.8948 1.51714 24 1.26319 24 0.9984C24 0.733608 23.8948 0.479661 23.7076 0.292425C23.5203 0.105188 23.2664 5.95093e-08 23.0016 5.95093e-08C22.7368 5.95093e-08 22.4829 0.105188 22.2956 0.292425C22.1084 0.479661 21.9984 0.733608 21.9984 0.9984ZM24 0.9984C24 1.26319 24.1052 1.51714 24.2924 1.70438C24.4797 1.89161 24.7336 1.9968 24.9984 1.9968C25.2632 1.9968 25.5171 1.89161 25.7044 1.70438C25.8916 1.51714 25.9968 1.26319 25.9968 0.9984C25.9968 0.733608 25.8916 0.479661 25.7044 0.292425C25.5171 0.105188 25.2632 5.95093e-08 24.9984 5.95093e-08C24.7336 5.95093e-08 24.4797 0.105188 24.2924 0.292425C24.1052 0.479661 24 0.733608 24 0.9984ZM25.9968 0.9984C25.9968 1.26319 26.1068 1.51714 26.294 1.70438C26.4813 1.89161 26.7352 1.9968 27 1.9968C27.2648 1.9968 27.5187 1.89161 27.706 1.70438C27.8932 1.51714 27.9984 1.26319 27.9984 0.9984C27.9984 0.733608 27.8932 0.479661 27.706 0.292425C27.5187 0.105188 27.2648 5.95093e-08 27 5.95093e-08C26.7352 5.95093e-08 26.4813 0.105188 26.294 0.292425C26.1068 0.479661 25.9968 0.733608 25.9968 0.9984ZM27.9984 0.9984C27.9984 1.26319 28.1084 1.51714 28.2956 1.70438C28.4829 1.89161 28.7368 1.9968 29.0016 1.9968C29.2664 1.9968 29.5203 1.89161 29.7076 1.70438C29.8948 1.51714 30 1.26319 30 0.9984C30 0.733608 29.8948 0.479661 29.7076 0.292425C29.5203 0.105188 29.2664 5.95093e-08 29.0016 5.95093e-08C28.7368 5.95093e-08 28.4829 0.105188 28.2956 0.292425C28.1084 0.479661 27.9984 0.733608 27.9984 0.9984ZM30 0.9984C30 1.26319 30.1052 1.51714 30.2924 1.70438C30.4797 1.89161 30.7336 1.9968 30.9984 1.9968C31.2632 1.9968 31.5171 1.89161 31.7044 1.70438C31.8916 1.51714 31.9968 1.26319 31.9968 0.9984C31.9968 0.733608 31.8916 0.479661 31.7044 0.292425C31.5171 0.105188 31.2632 5.95093e-08 30.9984 5.95093e-08C30.7336 5.95093e-08 30.4797 0.105188 30.2924 0.292425C30.1052 0.479661 30 0.733608 30 0.9984ZM16.0032 3C16.0032 3.13111 16.029 3.26094 16.0792 3.38207C16.1294 3.5032 16.2029 3.61327 16.2956 3.70598C16.3883 3.79869 16.4984 3.87223 16.6195 3.9224C16.7407 3.97258 16.8705 3.9984 17.0016 3.9984C17.1327 3.9984 17.2625 3.97258 17.3837 3.9224C17.5048 3.87223 17.6149 3.79869 17.7076 3.70598C17.8003 3.61327 17.8738 3.5032 17.924 3.38207C17.9742 3.26094 18 3.13111 18 3C18 2.86889 17.9742 2.73906 17.924 2.61793C17.8738 2.4968 17.8003 2.38673 17.7076 2.29402C17.6149 2.20131 17.5048 2.12777 17.3837 2.0776C17.2625 2.02742 17.1327 1.9968 17.0016 1.9968C16.8705 1.9968 16.7407 2.02742 16.6195 2.0776C16.4984 2.12777 16.3883 2.20131 16.2956 2.29402C16.2029 2.38673 16.1294 2.4968 16.0792 2.61793C16.029 2.73906 16.0032 2.86889 16.0032 3ZM18 3C18 3.26479 18.1052 3.51874 18.2924 3.70598C18.4797 3.89321 18.7336 3.9984 18.9984 3.9984C19.2632 3.9984 19.5171 3.89321 19.7044 3.70598C19.8916 3.51874 19.9968 3.26479 19.9968 3C19.9968 2.73521 19.8916 2.48126 19.7044 2.29402C19.5171 2.10679 19.2632 1.9968 18.9984 1.9968C18.7336 1.9968 18.4797 2.10679 18.2924 2.29402C18.1052 2.48126 18 2.73521 18 3ZM19.9968 3C19.9968 3.26479 20.1068 3.51874 20.294 3.70598C20.4813 3.89321 20.7352 3.9984 21 3.9984C21.2648 3.9984 21.5187 3.89321 21.706 3.70598C21.8932 3.51874 21.9984 3.26479 21.9984 3C21.9984 2.73521 21.8932 2.48126 21.706 2.29402C21.5187 2.10679 21.2648 1.9968 21 1.9968C20.7352 1.9968 20.4813 2.10679 20.294 2.29402C20.1068 2.48126 19.9968 2.73521 19.9968 3ZM21.9984 3C21.9984 3.26479 22.1084 3.51874 22.2956 3.70598C22.4829 3.89321 22.7368 3.9984 23.0016 3.9984C23.2664 3.9984 23.5203 3.89321 23.7076 3.70598C23.8948 3.51874 24 3.26479 24 3C24 2.73521 23.8948 2.48126 23.7076 2.29402C23.5203 2.10679 23.2664 1.9968 23.0016 1.9968C22.7368 1.9968 22.4829 2.10679 22.2956 2.29402C22.1084 2.48126 21.9984 2.73521 21.9984 3ZM24 3C24 3.26479 24.1052 3.51874 24.2924 3.70598C24.4797 3.89321 24.7336 3.9984 24.9984 3.9984C25.2632 3.9984 25.5171 3.89321 25.7044 3.70598C25.8916 3.51874 25.9968 3.26479 25.9968 3C25.9968 2.73521 25.8916 2.48126 25.7044 2.29402C25.5171 2.10679 25.2632 1.9968 24.9984 1.9968C24.7336 1.9968 24.4797 2.10679 24.2924 2.29402C24.1052 2.48126 24 2.73521 24 3ZM25.9968 3C25.9968 3.26479 26.1068 3.51874 26.294 3.70598C26.4813 3.89321 26.7352 3.9984 27 3.9984C27.2648 3.9984 27.5187 3.89321 27.706 3.70598C27.8932 3.51874 27.9984 3.26479 27.9984 3C27.9984 2.73521 27.8932 2.48126 27.706 2.29402C27.5187 2.10679 27.2648 1.9968 27 1.9968C26.7352 1.9968 26.4813 2.10679 26.294 2.29402C26.1068 2.48126 25.9968 2.73521 25.9968 3ZM27.9984 3C27.9984 3.26479 28.1084 3.51874 28.2956 3.70598C28.4829 3.89321 28.7368 3.9984 29.0016 3.9984C29.2664 3.9984 29.5203 3.89321 29.7076 3.70598C29.8948 3.51874 30 3.26479 30 3C30 2.73521 29.8948 2.48126 29.7076 2.29402C29.5203 2.10679 29.2664 1.9968 29.0016 1.9968C28.7368 1.9968 28.4829 2.10679 28.2956 2.29402C28.1084 2.48126 27.9984 2.73521 27.9984 3ZM30 3C30 3.26479 30.1052 3.51874 30.2924 3.70598C30.4797 3.89321 30.7336 3.9984 30.9984 3.9984C31.2632 3.9984 31.5171 3.89321 31.7044 3.70598C31.8916 3.51874 31.9968 3.26479 31.9968 3C31.9968 2.73521 31.8916 2.48126 31.7044 2.29402C31.5171 2.10679 31.2632 1.9968 30.9984 1.9968C30.7336 1.9968 30.4797 2.10679 30.2924 2.29402C30.1052 2.48126 30 2.73521 30 3ZM14.0016 5.0016C14.0016 5.26639 14.1068 5.52034 14.294 5.70758C14.4813 5.89481 14.7352 6 15 6C15.2648 6 15.5187 5.89481 15.706 5.70758C15.8932 5.52034 15.9984 5.26639 15.9984 5.0016C15.9984 4.87049 15.9726 4.74066 15.9224 4.61953C15.8722 4.4984 15.7987 4.38833 15.706 4.29562C15.6133 4.20291 15.5032 4.12937 15.3821 4.0792C15.2609 4.02902 15.1311 4.0032 15 4.0032C14.8689 4.0032 14.7391 4.02902 14.6179 4.0792C14.4968 4.12937 14.3867 4.20291 14.294 4.29562C14.2013 4.38833 14.1278 4.4984 14.0776 4.61953C14.0274 4.74066 14.0016 4.87049 14.0016 5.0016ZM15.9984 5.0016C15.9984 5.13271 16.029 5.26254 16.0792 5.38367C16.1294 5.5048 16.2029 5.61487 16.2956 5.70758C16.3883 5.80029 16.4984 5.87383 16.6195 5.924C16.7407 5.97418 16.8705 6 17.0016 6C17.1327 6 17.2625 5.97418 17.3837 5.924C17.5048 5.87383 17.6149 5.80029 17.7076 5.70758C17.8003 5.61487 17.8738 5.5048 17.924 5.38367C17.9742 5.26254 18 5.13271 18 5.0016C18 4.87049 17.9742 4.74066 17.924 4.61953C17.8738 4.4984 17.8003 4.38833 17.7076 4.29562C17.6149 4.20291 17.5048 4.12937 17.3837 4.0792C17.2625 4.02902 17.1327 3.9984 17.0016 3.9984C16.8705 3.9984 16.7407 4.02902 16.6195 4.0792C16.4984 4.12937 16.3883 4.20291 16.2956 4.29562C16.2029 4.38833 16.1294 4.4984 16.0792 4.61953C16.029 4.74066 15.9984 4.87049 15.9984 5.0016ZM18 5.0016C18 5.26639 18.1052 5.52034 18.2924 5.70758C18.4797 5.89481 18.7336 6 18.9984 6C19.2632 6 19.5171 5.89481 19.7044 5.70758C19.8916 5.52034 19.9968 5.26639 19.9968 5.0016C19.9968 4.73681 19.8916 4.48286 19.7044 4.29562C19.5171 4.10839 19.2632 3.9984 18.9984 3.9984C18.7336 3.9984 18.4797 4.10839 18.2924 4.29562C18.1052 4.48286 18 4.73681 18 5.0016ZM19.9968 5.0016C19.9968 5.26639 20.1068 5.52034 20.294 5.70758C20.4813 5.89481 20.7352 6 21 6C21.2648 6 21.5187 5.89481 21.706 5.70758C21.8932 5.52034 21.9984 5.26639 21.9984 5.0016C21.9984 4.73681 21.8932 4.48286 21.706 4.29562C21.5187 4.10839 21.2648 3.9984 21 3.9984C20.7352 3.9984 20.4813 4.10839 20.294 4.29562C20.1068 4.48286 19.9968 4.73681 19.9968 5.0016ZM21.9984 5.0016C21.9984 5.26639 22.1084 5.52034 22.2956 5.70758C22.4829 5.89481 22.7368 6 23.0016 6C23.2664 6 23.5203 5.89481 23.7076 5.70758C23.8948 5.52034 24 5.26639 24 5.0016C24 4.73681 23.8948 4.48286 23.7076 4.29562C23.5203 4.10839 23.2664 3.9984 23.0016 3.9984C22.7368 3.9984 22.4829 4.10839 22.2956 4.29562C22.1084 4.48286 21.9984 4.73681 21.9984 5.0016ZM24 5.0016C24 5.26639 24.1052 5.52034 24.2924 5.70758C24.4797 5.89481 24.7336 6 24.9984 6C25.2632 6 25.5171 5.89481 25.7044 5.70758C25.8916 5.52034 25.9968 5.26639 25.9968 5.0016C25.9968 4.73681 25.8916 4.48286 25.7044 4.29562C25.5171 4.10839 25.2632 3.9984 24.9984 3.9984C24.7336 3.9984 24.4797 4.10839 24.2924 4.29562C24.1052 4.48286 24 4.73681 24 5.0016ZM25.9968 5.0016C25.9968 5.26639 26.1068 5.52034 26.294 5.70758C26.4813 5.89481 26.7352 6 27 6C27.2648 6 27.5187 5.89481 27.706 5.70758C27.8932 5.52034 27.9984 5.26639 27.9984 5.0016C27.9984 4.73681 27.8932 4.48286 27.706 4.29562C27.5187 4.10839 27.2648 3.9984 27 3.9984C26.7352 3.9984 26.4813 4.10839 26.294 4.29562C26.1068 4.48286 25.9968 4.73681 25.9968 5.0016ZM27.9984 5.0016C27.9984 5.26639 28.1084 5.52034 28.2956 5.70758C28.4829 5.89481 28.7368 6 29.0016 6C29.2664 6 29.5203 5.89481 29.7076 5.70758C29.8948 5.52034 30 5.26639 30 5.0016C30 4.73681 29.8948 4.48286 29.7076 4.29562C29.5203 4.10839 29.2664 3.9984 29.0016 3.9984C28.7368 3.9984 28.4829 4.10839 28.2956 4.29562C28.1084 4.48286 27.9984 4.73681 27.9984 5.0016ZM30 5.0016C30 5.26639 30.1052 5.52034 30.2924 5.70758C30.4797 5.89481 30.7336 6 30.9984 6C31.2632 6 31.5171 5.89481 31.7044 5.70758C31.8916 5.52034 31.9968 5.26639 31.9968 5.0016C31.9968 4.73681 31.8916 4.48286 31.7044 4.29562C31.5171 4.10839 31.2632 3.9984 30.9984 3.9984C30.7336 3.9984 30.4797 4.10839 30.2924 4.29562C30.1052 4.48286 30 4.73681 30 5.0016ZM31.9968 5.0016C31.9968 5.26639 32.1068 5.52034 32.294 5.70758C32.4813 5.89481 32.7352 6 33 6C33.2648 6 33.5187 5.89481 33.706 5.70758C33.8932 5.52034 33.9984 5.26639 33.9984 5.0016C33.9984 4.73681 33.8932 4.48286 33.706 4.29562C33.5187 4.10839 33.2648 4.0032 33 4.0032C32.7352 4.0032 32.4813 4.10839 32.294 4.29562C32.1068 4.48286 31.9968 4.73681 31.9968 5.0016ZM14.0016 6.9984C14.0016 7.26319 14.1068 7.51714 14.294 7.70438C14.4813 7.89161 14.7352 7.9968 15 7.9968C15.2648 7.9968 15.5187 7.89161 15.706 7.70438C15.8932 7.51714 15.9984 7.26319 15.9984 6.9984C15.9984 6.86729 15.9726 6.73746 15.9224 6.61633C15.8722 6.4952 15.7987 6.38513 15.706 6.29242C15.6133 6.19971 15.5032 6.12617 15.3821 6.076C15.2609 6.02582 15.1311 6 15 6C14.8689 6 14.7391 6.02582 14.6179 6.076C14.4968 6.12617 14.3867 6.19971 14.294 6.29242C14.2013 6.38513 14.1278 6.4952 14.0776 6.61633C14.0274 6.73746 14.0016 6.86729 14.0016 6.9984ZM15.9984 6.9984C15.9984 7.12951 16.029 7.25934 16.0792 7.38047C16.1294 7.5016 16.2029 7.61167 16.2956 7.70438C16.3883 7.79709 16.4984 7.87063 16.6195 7.9208C16.7407 7.97098 16.8705 7.9968 17.0016 7.9968C17.1327 7.9968 17.2625 7.97098 17.3837 7.9208C17.5048 7.87063 17.6149 7.79709 17.7076 7.70438C17.8003 7.61167 17.8738 7.5016 17.924 7.38047C17.9742 7.25934 18 7.12951 18 6.9984C18 6.86729 17.9742 6.73746 17.924 6.61633C17.8738 6.4952 17.8003 6.38513 17.7076 6.29242C17.6149 6.19971 17.5048 6.12617 17.3837 6.076C17.2625 6.02582 17.1327 6 17.0016 6C16.8705 6 16.7407 6.02582 16.6195 6.076C16.4984 6.12617 16.3883 6.19971 16.2956 6.29242C16.2029 6.38513 16.1294 6.4952 16.0792 6.61633C16.029 6.73746 15.9984 6.86729 15.9984 6.9984ZM18 6.9984C18 7.26319 18.1052 7.51714 18.2924 7.70438C18.4797 7.89161 18.7336 7.9968 18.9984 7.9968C19.2632 7.9968 19.5171 7.89161 19.7044 7.70438C19.8916 7.51714 19.9968 7.26319 19.9968 6.9984C19.9968 6.73361 19.8916 6.47966 19.7044 6.29242C19.5171 6.10519 19.2632 6 18.9984 6C18.7336 6 18.4797 6.10519 18.2924 6.29242C18.1052 6.47966 18 6.73361 18 6.9984ZM19.9968 6.9984C19.9968 7.26319 20.1068 7.51714 20.294 7.70438C20.4813 7.89161 20.7352 7.9968 21 7.9968C21.2648 7.9968 21.5187 7.89161 21.706 7.70438C21.8932 7.51714 21.9984 7.26319 21.9984 6.9984C21.9984 6.73361 21.8932 6.47966 21.706 6.29242C21.5187 6.10519 21.2648 6 21 6C20.7352 6 20.4813 6.10519 20.294 6.29242C20.1068 6.47966 19.9968 6.73361 19.9968 6.9984ZM21.9984 6.9984C21.9984 7.26319 22.1084 7.51714 22.2956 7.70438C22.4829 7.89161 22.7368 7.9968 23.0016 7.9968C23.2664 7.9968 23.5203 7.89161 23.7076 7.70438C23.8948 7.51714 24 7.26319 24 6.9984C24 6.73361 23.8948 6.47966 23.7076 6.29242C23.5203 6.10519 23.2664 6 23.0016 6C22.7368 6 22.4829 6.10519 22.2956 6.29242C22.1084 6.47966 21.9984 6.73361 21.9984 6.9984ZM24 6.9984C24 7.26319 24.1052 7.51714 24.2924 7.70438C24.4797 7.89161 24.7336 7.9968 24.9984 7.9968C25.2632 7.9968 25.5171 7.89161 25.7044 7.70438C25.8916 7.51714 25.9968 7.26319 25.9968 6.9984C25.9968 6.73361 25.8916 6.47966 25.7044 6.29242C25.5171 6.10519 25.2632 6 24.9984 6C24.7336 6 24.4797 6.10519 24.2924 6.29242C24.1052 6.47966 24 6.73361 24 6.9984ZM25.9968 6.9984C25.9968 7.26319 26.1068 7.51714 26.294 7.70438C26.4813 7.89161 26.7352 7.9968 27 7.9968C27.2648 7.9968 27.5187 7.89161 27.706 7.70438C27.8932 7.51714 27.9984 7.26319 27.9984 6.9984C27.9984 6.73361 27.8932 6.47966 27.706 6.29242C27.5187 6.10519 27.2648 6 27 6C26.7352 6 26.4813 6.10519 26.294 6.29242C26.1068 6.47966 25.9968 6.73361 25.9968 6.9984ZM27.9984 6.9984C27.9984 7.26319 28.1084 7.51714 28.2956 7.70438C28.4829 7.89161 28.7368 7.9968 29.0016 7.9968C29.2664 7.9968 29.5203 7.89161 29.7076 7.70438C29.8948 7.51714 30 7.26319 30 6.9984C30 6.73361 29.8948 6.47966 29.7076 6.29242C29.5203 6.10519 29.2664 6 29.0016 6C28.7368 6 28.4829 6.10519 28.2956 6.29242C28.1084 6.47966 27.9984 6.73361 27.9984 6.9984ZM30 6.9984C30 7.26319 30.1052 7.51714 30.2924 7.70438C30.4797 7.89161 30.7336 7.9968 30.9984 7.9968C31.2632 7.9968 31.5171 7.89161 31.7044 7.70438C31.8916 7.51714 31.9968 7.26319 31.9968 6.9984C31.9968 6.73361 31.8916 6.47966 31.7044 6.29242C31.5171 6.10519 31.2632 6 30.9984 6C30.7336 6 30.4797 6.10519 30.2924 6.29242C30.1052 6.47966 30 6.73361 30 6.9984ZM31.9968 6.9984C31.9968 7.26319 32.1068 7.51714 32.294 7.70438C32.4813 7.89161 32.7352 7.9968 33 7.9968C33.2648 7.9968 33.5187 7.89161 33.706 7.70438C33.8932 7.51714 33.9984 7.26319 33.9984 6.9984C33.9984 6.73361 33.8932 6.47966 33.706 6.29242C33.5187 6.10519 33.2648 6 33 6C32.7352 6 32.4813 6.10519 32.294 6.29242C32.1068 6.47966 31.9968 6.73361 31.9968 6.9984ZM12 9C12 9.13111 12.0258 9.26094 12.076 9.38207C12.1262 9.5032 12.1997 9.61327 12.2924 9.70598C12.3851 9.79869 12.4952 9.87223 12.6163 9.9224C12.7375 9.97258 12.8673 9.9984 12.9984 9.9984C13.1295 9.9984 13.2593 9.97258 13.3805 9.9224C13.5016 9.87223 13.6117 9.79869 13.7044 9.70598C13.7971 9.61327 13.8706 9.5032 13.9208 9.38207C13.971 9.26094 13.9968 9.13111 13.9968 9C13.9968 8.73521 13.8916 8.48126 13.7044 8.29402C13.5171 8.10679 13.2632 8.0016 12.9984 8.0016C12.7336 8.0016 12.4797 8.10679 12.2924 8.29402C12.1052 8.48126 12 8.73521 12 9ZM13.9968 9C13.9968 9.26479 14.1068 9.51874 14.294 9.70598C14.4813 9.89321 14.7352 9.9984 15 9.9984C15.2648 9.9984 15.5187 9.89321 15.706 9.70598C15.8932 9.51874 15.9984 9.26479 15.9984 9C15.9984 8.86889 15.9726 8.73906 15.9224 8.61793C15.8722 8.4968 15.7987 8.38673 15.706 8.29402C15.6133 8.20131 15.5032 8.12777 15.3821 8.0776C15.2609 8.02742 15.1311 7.9968 15 7.9968C14.8689 7.9968 14.7391 8.02742 14.6179 8.0776C14.4968 8.12777 14.3867 8.20131 14.294 8.29402C14.2013 8.38673 14.1278 8.4968 14.0776 8.61793C14.0274 8.73906 13.9968 8.86889 13.9968 9ZM15.9984 9C15.9984 9.13111 16.029 9.26094 16.0792 9.38207C16.1294 9.5032 16.2029 9.61327 16.2956 9.70598C16.3883 9.79869 16.4984 9.87223 16.6195 9.9224C16.7407 9.97258 16.8705 9.9984 17.0016 9.9984C17.1327 9.9984 17.2625 9.97258 17.3837 9.9224C17.5048 9.87223 17.6149 9.79869 17.7076 9.70598C17.8003 9.61327 17.8738 9.5032 17.924 9.38207C17.9742 9.26094 18 9.13111 18 9C18 8.86889 17.9742 8.73906 17.924 8.61793C17.8738 8.4968 17.8003 8.38673 17.7076 8.29402C17.6149 8.20131 17.5048 8.12777 17.3837 8.0776C17.2625 8.02742 17.1327 7.9968 17.0016 7.9968C16.8705 7.9968 16.7407 8.02742 16.6195 8.0776C16.4984 8.12777 16.3883 8.20131 16.2956 8.29402C16.2029 8.38673 16.1294 8.4968 16.0792 8.61793C16.029 8.73906 15.9984 8.86889 15.9984 9ZM18 9C18 9.26479 18.1052 9.51874 18.2924 9.70598C18.4797 9.89321 18.7336 9.9984 18.9984 9.9984C19.2632 9.9984 19.5171 9.89321 19.7044 9.70598C19.8916 9.51874 19.9968 9.26479 19.9968 9C19.9968 8.73521 19.8916 8.48126 19.7044 8.29402C19.5171 8.10679 19.2632 7.9968 18.9984 7.9968C18.7336 7.9968 18.4797 8.10679 18.2924 8.29402C18.1052 8.48126 18 8.73521 18 9ZM19.9968 9C19.9968 9.26479 20.1068 9.51874 20.294 9.70598C20.4813 9.89321 20.7352 9.9984 21 9.9984C21.2648 9.9984 21.5187 9.89321 21.706 9.70598C21.8932 9.51874 21.9984 9.26479 21.9984 9C21.9984 8.73521 21.8932 8.48126 21.706 8.29402C21.5187 8.10679 21.2648 7.9968 21 7.9968C20.7352 7.9968 20.4813 8.10679 20.294 8.29402C20.1068 8.48126 19.9968 8.73521 19.9968 9ZM21.9984 9C21.9984 9.26479 22.1084 9.51874 22.2956 9.70598C22.4829 9.89321 22.7368 9.9984 23.0016 9.9984C23.2664 9.9984 23.5203 9.89321 23.7076 9.70598C23.8948 9.51874 24 9.26479 24 9C24 8.73521 23.8948 8.48126 23.7076 8.29402C23.5203 8.10679 23.2664 7.9968 23.0016 7.9968C22.7368 7.9968 22.4829 8.10679 22.2956 8.29402C22.1084 8.48126 21.9984 8.73521 21.9984 9ZM24 9C24 9.26479 24.1052 9.51874 24.2924 9.70598C24.4797 9.89321 24.7336 9.9984 24.9984 9.9984C25.2632 9.9984 25.5171 9.89321 25.7044 9.70598C25.8916 9.51874 25.9968 9.26479 25.9968 9C25.9968 8.73521 25.8916 8.48126 25.7044 8.29402C25.5171 8.10679 25.2632 7.9968 24.9984 7.9968C24.7336 7.9968 24.4797 8.10679 24.2924 8.29402C24.1052 8.48126 24 8.73521 24 9ZM25.9968 9C25.9968 9.26479 26.1068 9.51874 26.294 9.70598C26.4813 9.89321 26.7352 9.9984 27 9.9984C27.2648 9.9984 27.5187 9.89321 27.706 9.70598C27.8932 9.51874 27.9984 9.26479 27.9984 9C27.9984 8.73521 27.8932 8.48126 27.706 8.29402C27.5187 8.10679 27.2648 7.9968 27 7.9968C26.7352 7.9968 26.4813 8.10679 26.294 8.29402C26.1068 8.48126 25.9968 8.73521 25.9968 9ZM27.9984 9C27.9984 9.26479 28.1084 9.51874 28.2956 9.70598C28.4829 9.89321 28.7368 9.9984 29.0016 9.9984C29.2664 9.9984 29.5203 9.89321 29.7076 9.70598C29.8948 9.51874 30 9.26479 30 9C30 8.73521 29.8948 8.48126 29.7076 8.29402C29.5203 8.10679 29.2664 7.9968 29.0016 7.9968C28.7368 7.9968 28.4829 8.10679 28.2956 8.29402C28.1084 8.48126 27.9984 8.73521 27.9984 9ZM30 9C30 9.26479 30.1052 9.51874 30.2924 9.70598C30.4797 9.89321 30.7336 9.9984 30.9984 9.9984C31.2632 9.9984 31.5171 9.89321 31.7044 9.70598C31.8916 9.51874 31.9968 9.26479 31.9968 9C31.9968 8.73521 31.8916 8.48126 31.7044 8.29402C31.5171 8.10679 31.2632 7.9968 30.9984 7.9968C30.7336 7.9968 30.4797 8.10679 30.2924 8.29402C30.1052 8.48126 30 8.73521 30 9ZM31.9968 9C31.9968 9.26479 32.1068 9.51874 32.294 9.70598C32.4813 9.89321 32.7352 9.9984 33 9.9984C33.2648 9.9984 33.5187 9.89321 33.706 9.70598C33.8932 9.51874 33.9984 9.26479 33.9984 9C33.9984 8.73521 33.8932 8.48126 33.706 8.29402C33.5187 8.10679 33.2648 7.9968 33 7.9968C32.7352 7.9968 32.4813 8.10679 32.294 8.29402C32.1068 8.48126 31.9968 8.73521 31.9968 9ZM33.9984 9C33.9984 9.26479 34.1084 9.51874 34.2956 9.70598C34.4829 9.89321 34.7368 9.9984 35.0016 9.9984C35.2664 9.9984 35.5203 9.89321 35.7076 9.70598C35.8948 9.51874 36 9.26479 36 9C36 8.73521 35.8948 8.48126 35.7076 8.29402C35.5203 8.10679 35.2664 8.0016 35.0016 8.0016C34.7368 8.0016 34.4829 8.10679 34.2956 8.29402C34.1084 8.48126 33.9984 8.73521 33.9984 9ZM12 11.0016C12 11.1327 12.0258 11.2625 12.076 11.3837C12.1262 11.5048 12.1997 11.6149 12.2924 11.7076C12.3851 11.8003 12.4952 11.8738 12.6163 11.924C12.7375 11.9742 12.8673 12 12.9984 12C13.1295 12 13.2593 11.9742 13.3805 11.924C13.5016 11.8738 13.6117 11.8003 13.7044 11.7076C13.7971 11.6149 13.8706 11.5048 13.9208 11.3837C13.971 11.2625 13.9968 11.1327 13.9968 11.0016C13.9968 10.7368 13.8916 10.4829 13.7044 10.2956C13.5171 10.1084 13.2632 9.9984 12.9984 9.9984C12.7336 9.9984 12.4797 10.1084 12.2924 10.2956C12.1052 10.4829 12 10.7368 12 11.0016ZM13.9968 11.0016C13.9968 11.2664 14.1068 11.5203 14.294 11.7076C14.4813 11.8948 14.7352 12 15 12C15.2648 12 15.5187 11.8948 15.706 11.7076C15.8932 11.5203 15.9984 11.2664 15.9984 11.0016C15.9984 10.8705 15.9726 10.7407 15.9224 10.6195C15.8722 10.4984 15.7987 10.3883 15.706 10.2956C15.6133 10.2029 15.5032 10.1294 15.3821 10.0792C15.2609 10.029 15.1311 9.9984 15 9.9984C14.8689 9.9984 14.7391 10.029 14.6179 10.0792C14.4968 10.1294 14.3867 10.2029 14.294 10.2956C14.2013 10.3883 14.1278 10.4984 14.0776 10.6195C14.0274 10.7407 13.9968 10.8705 13.9968 11.0016ZM15.9984 11.0016C15.9984 11.1327 16.029 11.2625 16.0792 11.3837C16.1294 11.5048 16.2029 11.6149 16.2956 11.7076C16.3883 11.8003 16.4984 11.8738 16.6195 11.924C16.7407 11.9742 16.8705 12 17.0016 12C17.1327 12 17.2625 11.9742 17.3837 11.924C17.5048 11.8738 17.6149 11.8003 17.7076 11.7076C17.8003 11.6149 17.8738 11.5048 17.924 11.3837C17.9742 11.2625 18 11.1327 18 11.0016C18 10.8705 17.9742 10.7407 17.924 10.6195C17.8738 10.4984 17.8003 10.3883 17.7076 10.2956C17.6149 10.2029 17.5048 10.1294 17.3837 10.0792C17.2625 10.029 17.1327 9.9984 17.0016 9.9984C16.8705 9.9984 16.7407 10.029 16.6195 10.0792C16.4984 10.1294 16.3883 10.2029 16.2956 10.2956C16.2029 10.3883 16.1294 10.4984 16.0792 10.6195C16.029 10.7407 15.9984 10.8705 15.9984 11.0016ZM18 11.0016C18 11.2664 18.1052 11.5203 18.2924 11.7076C18.4797 11.8948 18.7336 12 18.9984 12C19.2632 12 19.5171 11.8948 19.7044 11.7076C19.8916 11.5203 19.9968 11.2664 19.9968 11.0016C19.9968 10.7368 19.8916 10.4829 19.7044 10.2956C19.5171 10.1084 19.2632 9.9984 18.9984 9.9984C18.7336 9.9984 18.4797 10.1084 18.2924 10.2956C18.1052 10.4829 18 10.7368 18 11.0016ZM19.9968 11.0016C19.9968 11.2664 20.1068 11.5203 20.294 11.7076C20.4813 11.8948 20.7352 12 21 12C21.2648 12 21.5187 11.8948 21.706 11.7076C21.8932 11.5203 21.9984 11.2664 21.9984 11.0016C21.9984 10.7368 21.8932 10.4829 21.706 10.2956C21.5187 10.1084 21.2648 9.9984 21 9.9984C20.7352 9.9984 20.4813 10.1084 20.294 10.2956C20.1068 10.4829 19.9968 10.7368 19.9968 11.0016ZM21.9984 11.0016C21.9984 11.2664 22.1084 11.5203 22.2956 11.7076C22.4829 11.8948 22.7368 12 23.0016 12C23.2664 12 23.5203 11.8948 23.7076 11.7076C23.8948 11.5203 24 11.2664 24 11.0016C24 10.7368 23.8948 10.4829 23.7076 10.2956C23.5203 10.1084 23.2664 9.9984 23.0016 9.9984C22.7368 9.9984 22.4829 10.1084 22.2956 10.2956C22.1084 10.4829 21.9984 10.7368 21.9984 11.0016ZM24 11.0016C24 11.2664 24.1052 11.5203 24.2924 11.7076C24.4797 11.8948 24.7336 12 24.9984 12C25.2632 12 25.5171 11.8948 25.7044 11.7076C25.8916 11.5203 25.9968 11.2664 25.9968 11.0016C25.9968 10.7368 25.8916 10.4829 25.7044 10.2956C25.5171 10.1084 25.2632 9.9984 24.9984 9.9984C24.7336 9.9984 24.4797 10.1084 24.2924 10.2956C24.1052 10.4829 24 10.7368 24 11.0016ZM25.9968 11.0016C25.9968 11.2664 26.1068 11.5203 26.294 11.7076C26.4813 11.8948 26.7352 12 27 12C27.2648 12 27.5187 11.8948 27.706 11.7076C27.8932 11.5203 27.9984 11.2664 27.9984 11.0016C27.9984 10.7368 27.8932 10.4829 27.706 10.2956C27.5187 10.1084 27.2648 9.9984 27 9.9984C26.7352 9.9984 26.4813 10.1084 26.294 10.2956C26.1068 10.4829 25.9968 10.7368 25.9968 11.0016ZM27.9984 11.0016C27.9984 11.2664 28.1084 11.5203 28.2956 11.7076C28.4829 11.8948 28.7368 12 29.0016 12C29.2664 12 29.5203 11.8948 29.7076 11.7076C29.8948 11.5203 30 11.2664 30 11.0016C30 10.7368 29.8948 10.4829 29.7076 10.2956C29.5203 10.1084 29.2664 9.9984 29.0016 9.9984C28.7368 9.9984 28.4829 10.1084 28.2956 10.2956C28.1084 10.4829 27.9984 10.7368 27.9984 11.0016ZM30 11.0016C30 11.2664 30.1052 11.5203 30.2924 11.7076C30.4797 11.8948 30.7336 12 30.9984 12C31.2632 12 31.5171 11.8948 31.7044 11.7076C31.8916 11.5203 31.9968 11.2664 31.9968 11.0016C31.9968 10.7368 31.8916 10.4829 31.7044 10.2956C31.5171 10.1084 31.2632 9.9984 30.9984 9.9984C30.7336 9.9984 30.4797 10.1084 30.2924 10.2956C30.1052 10.4829 30 10.7368 30 11.0016ZM31.9968 11.0016C31.9968 11.2664 32.1068 11.5203 32.294 11.7076C32.4813 11.8948 32.7352 12 33 12C33.2648 12 33.5187 11.8948 33.706 11.7076C33.8932 11.5203 33.9984 11.2664 33.9984 11.0016C33.9984 10.7368 33.8932 10.4829 33.706 10.2956C33.5187 10.1084 33.2648 9.9984 33 9.9984C32.7352 9.9984 32.4813 10.1084 32.294 10.2956C32.1068 10.4829 31.9968 10.7368 31.9968 11.0016ZM33.9984 11.0016C33.9984 11.2664 34.1084 11.5203 34.2956 11.7076C34.4829 11.8948 34.7368 12 35.0016 12C35.2664 12 35.5203 11.8948 35.7076 11.7076C35.8948 11.5203 36 11.2664 36 11.0016C36 10.7368 35.8948 10.4829 35.7076 10.2956C35.5203 10.1084 35.2664 9.9984 35.0016 9.9984C34.7368 9.9984 34.4829 10.1084 34.2956 10.2956C34.1084 10.4829 33.9984 10.7368 33.9984 11.0016ZM12 12.9984C12 13.1295 12.0258 13.2593 12.076 13.3805C12.1262 13.5016 12.1997 13.6117 12.2924 13.7044C12.3851 13.7971 12.4952 13.8706 12.6163 13.9208C12.7375 13.971 12.8673 13.9968 12.9984 13.9968C13.1295 13.9968 13.2593 13.971 13.3805 13.9208C13.5016 13.8706 13.6117 13.7971 13.7044 13.7044C13.7971 13.6117 13.8706 13.5016 13.9208 13.3805C13.971 13.2593 13.9968 13.1295 13.9968 12.9984C13.9968 12.7336 13.8916 12.4797 13.7044 12.2924C13.5171 12.1052 13.2632 12 12.9984 12C12.7336 12 12.4797 12.1052 12.2924 12.2924C12.1052 12.4797 12 12.7336 12 12.9984ZM13.9968 12.9984C13.9968 13.2632 14.1068 13.5171 14.294 13.7044C14.4813 13.8916 14.7352 13.9968 15 13.9968C15.2648 13.9968 15.5187 13.8916 15.706 13.7044C15.8932 13.5171 15.9984 13.2632 15.9984 12.9984C15.9984 12.8673 15.9726 12.7375 15.9224 12.6163C15.8722 12.4952 15.7987 12.3851 15.706 12.2924C15.6133 12.1997 15.5032 12.1262 15.3821 12.076C15.2609 12.0258 15.1311 12 15 12C14.8689 12 14.7391 12.0258 14.6179 12.076C14.4968 12.1262 14.3867 12.1997 14.294 12.2924C14.2013 12.3851 14.1278 12.4952 14.0776 12.6163C14.0274 12.7375 13.9968 12.8673 13.9968 12.9984ZM15.9984 12.9984C15.9984 13.1295 16.029 13.2593 16.0792 13.3805C16.1294 13.5016 16.2029 13.6117 16.2956 13.7044C16.3883 13.7971 16.4984 13.8706 16.6195 13.9208C16.7407 13.971 16.8705 13.9968 17.0016 13.9968C17.1327 13.9968 17.2625 13.971 17.3837 13.9208C17.5048 13.8706 17.6149 13.7971 17.7076 13.7044C17.8003 13.6117 17.8738 13.5016 17.924 13.3805C17.9742 13.2593 18 13.1295 18 12.9984C18 12.8673 17.9742 12.7375 17.924 12.6163C17.8738 12.4952 17.8003 12.3851 17.7076 12.2924C17.6149 12.1997 17.5048 12.1262 17.3837 12.076C17.2625 12.0258 17.1327 12 17.0016 12C16.8705 12 16.7407 12.0258 16.6195 12.076C16.4984 12.1262 16.3883 12.1997 16.2956 12.2924C16.2029 12.3851 16.1294 12.4952 16.0792 12.6163C16.029 12.7375 15.9984 12.8673 15.9984 12.9984ZM18 12.9984C18 13.2632 18.1052 13.5171 18.2924 13.7044C18.4797 13.8916 18.7336 13.9968 18.9984 13.9968C19.2632 13.9968 19.5171 13.8916 19.7044 13.7044C19.8916 13.5171 19.9968 13.2632 19.9968 12.9984C19.9968 12.7336 19.8916 12.4797 19.7044 12.2924C19.5171 12.1052 19.2632 12 18.9984 12C18.7336 12 18.4797 12.1052 18.2924 12.2924C18.1052 12.4797 18 12.7336 18 12.9984ZM19.9968 12.9984C19.9968 13.2632 20.1068 13.5171 20.294 13.7044C20.4813 13.8916 20.7352 13.9968 21 13.9968C21.2648 13.9968 21.5187 13.8916 21.706 13.7044C21.8932 13.5171 21.9984 13.2632 21.9984 12.9984C21.9984 12.7336 21.8932 12.4797 21.706 12.2924C21.5187 12.1052 21.2648 12 21 12C20.7352 12 20.4813 12.1052 20.294 12.2924C20.1068 12.4797 19.9968 12.7336 19.9968 12.9984ZM26.0016 12.9984C26.0016 13.2632 26.1068 13.5171 26.294 13.7044C26.4813 13.8916 26.7352 13.9968 27 13.9968C27.2648 13.9968 27.5187 13.8916 27.706 13.7044C27.8932 13.5171 27.9984 13.2632 27.9984 12.9984C27.9984 12.7336 27.8932 12.4797 27.706 12.2924C27.5187 12.1052 27.2648 12 27 12C26.7352 12 26.4813 12.1052 26.294 12.2924C26.1068 12.4797 26.0016 12.7336 26.0016 12.9984ZM27.9984 12.9984C27.9984 13.2632 28.1084 13.5171 28.2956 13.7044C28.4829 13.8916 28.7368 13.9968 29.0016 13.9968C29.2664 13.9968 29.5203 13.8916 29.7076 13.7044C29.8948 13.5171 30 13.2632 30 12.9984C30 12.7336 29.8948 12.4797 29.7076 12.2924C29.5203 12.1052 29.2664 12 29.0016 12C28.7368 12 28.4829 12.1052 28.2956 12.2924C28.1084 12.4797 27.9984 12.7336 27.9984 12.9984ZM30 12.9984C30 13.2632 30.1052 13.5171 30.2924 13.7044C30.4797 13.8916 30.7336 13.9968 30.9984 13.9968C31.2632 13.9968 31.5171 13.8916 31.7044 13.7044C31.8916 13.5171 31.9968 13.2632 31.9968 12.9984C31.9968 12.7336 31.8916 12.4797 31.7044 12.2924C31.5171 12.1052 31.2632 12 30.9984 12C30.7336 12 30.4797 12.1052 30.2924 12.2924C30.1052 12.4797 30 12.7336 30 12.9984ZM31.9968 12.9984C31.9968 13.2632 32.1068 13.5171 32.294 13.7044C32.4813 13.8916 32.7352 13.9968 33 13.9968C33.2648 13.9968 33.5187 13.8916 33.706 13.7044C33.8932 13.5171 33.9984 13.2632 33.9984 12.9984C33.9984 12.7336 33.8932 12.4797 33.706 12.2924C33.5187 12.1052 33.2648 12 33 12C32.7352 12 32.4813 12.1052 32.294 12.2924C32.1068 12.4797 31.9968 12.7336 31.9968 12.9984ZM33.9984 12.9984C33.9984 13.2632 34.1084 13.5171 34.2956 13.7044C34.4829 13.8916 34.7368 13.9968 35.0016 13.9968C35.2664 13.9968 35.5203 13.8916 35.7076 13.7044C35.8948 13.5171 36 13.2632 36 12.9984C36 12.7336 35.8948 12.4797 35.7076 12.2924C35.5203 12.1052 35.2664 12 35.0016 12C34.7368 12 34.4829 12.1052 34.2956 12.2924C34.1084 12.4797 33.9984 12.7336 33.9984 12.9984ZM10.0032 15C10.0032 15.2648 10.1084 15.5187 10.2956 15.706C10.4829 15.8932 10.7368 15.9984 11.0016 15.9984C11.2664 15.9984 11.5203 15.8932 11.7076 15.706C11.8948 15.5187 12 15.2648 12 15C12 14.7352 11.8948 14.4813 11.7076 14.294C11.5203 14.1068 11.2664 14.0016 11.0016 14.0016C10.7368 14.0016 10.4829 14.1068 10.2956 14.294C10.1084 14.4813 10.0032 14.7352 10.0032 15ZM12 15C12 15.1311 12.0258 15.2609 12.076 15.3821C12.1262 15.5032 12.1997 15.6133 12.2924 15.706C12.3851 15.7987 12.4952 15.8722 12.6163 15.9224C12.7375 15.9726 12.8673 15.9984 12.9984 15.9984C13.1295 15.9984 13.2593 15.9726 13.3805 15.9224C13.5016 15.8722 13.6117 15.7987 13.7044 15.706C13.7971 15.6133 13.8706 15.5032 13.9208 15.3821C13.971 15.2609 13.9968 15.1311 13.9968 15C13.9968 14.7352 13.8916 14.4813 13.7044 14.294C13.5171 14.1068 13.2632 13.9968 12.9984 13.9968C12.7336 13.9968 12.4797 14.1068 12.2924 14.294C12.1052 14.4813 12 14.7352 12 15ZM13.9968 15C13.9968 15.2648 14.1068 15.5187 14.294 15.706C14.4813 15.8932 14.7352 15.9984 15 15.9984C15.2648 15.9984 15.5187 15.8932 15.706 15.706C15.8932 15.5187 15.9984 15.2648 15.9984 15C15.9984 14.8689 15.9726 14.7391 15.9224 14.6179C15.8722 14.4968 15.7987 14.3867 15.706 14.294C15.6133 14.2013 15.5032 14.1278 15.3821 14.0776C15.2609 14.0274 15.1311 13.9968 15 13.9968C14.8689 13.9968 14.7391 14.0274 14.6179 14.0776C14.4968 14.1278 14.3867 14.2013 14.294 14.294C14.2013 14.3867 14.1278 14.4968 14.0776 14.6179C14.0274 14.7391 13.9968 14.8689 13.9968 15ZM15.9984 15C15.9984 15.1311 16.029 15.2609 16.0792 15.3821C16.1294 15.5032 16.2029 15.6133 16.2956 15.706C16.3883 15.7987 16.4984 15.8722 16.6195 15.9224C16.7407 15.9726 16.8705 15.9984 17.0016 15.9984C17.1327 15.9984 17.2625 15.9726 17.3837 15.9224C17.5048 15.8722 17.6149 15.7987 17.7076 15.706C17.8003 15.6133 17.8738 15.5032 17.924 15.3821C17.9742 15.2609 18 15.1311 18 15C18 14.8689 17.9742 14.7391 17.924 14.6179C17.8738 14.4968 17.8003 14.3867 17.7076 14.294C17.6149 14.2013 17.5048 14.1278 17.3837 14.0776C17.2625 14.0274 17.1327 13.9968 17.0016 13.9968C16.8705 13.9968 16.7407 14.0274 16.6195 14.0776C16.4984 14.1278 16.3883 14.2013 16.2956 14.294C16.2029 14.3867 16.1294 14.4968 16.0792 14.6179C16.029 14.7391 15.9984 14.8689 15.9984 15ZM18 15C18 15.2648 18.1052 15.5187 18.2924 15.706C18.4797 15.8932 18.7336 15.9984 18.9984 15.9984C19.2632 15.9984 19.5171 15.8932 19.7044 15.706C19.8916 15.5187 19.9968 15.2648 19.9968 15C19.9968 14.7352 19.8916 14.4813 19.7044 14.294C19.5171 14.1068 19.2632 13.9968 18.9984 13.9968C18.7336 13.9968 18.4797 14.1068 18.2924 14.294C18.1052 14.4813 18 14.7352 18 15ZM19.9968 15C19.9968 15.2648 20.1068 15.5187 20.294 15.706C20.4813 15.8932 20.7352 15.9984 21 15.9984C21.2648 15.9984 21.5187 15.8932 21.706 15.706C21.8932 15.5187 21.9984 15.2648 21.9984 15C21.9984 14.7352 21.8932 14.4813 21.706 14.294C21.5187 14.1068 21.2648 13.9968 21 13.9968C20.7352 13.9968 20.4813 14.1068 20.294 14.294C20.1068 14.4813 19.9968 14.7352 19.9968 15ZM26.0016 15C26.0016 15.2648 26.1068 15.5187 26.294 15.706C26.4813 15.8932 26.7352 15.9984 27 15.9984C27.2648 15.9984 27.5187 15.8932 27.706 15.706C27.8932 15.5187 27.9984 15.2648 27.9984 15C27.9984 14.7352 27.8932 14.4813 27.706 14.294C27.5187 14.1068 27.2648 13.9968 27 13.9968C26.7352 13.9968 26.4813 14.1068 26.294 14.294C26.1068 14.4813 26.0016 14.7352 26.0016 15ZM27.9984 15C27.9984 15.2648 28.1084 15.5187 28.2956 15.706C28.4829 15.8932 28.7368 15.9984 29.0016 15.9984C29.2664 15.9984 29.5203 15.8932 29.7076 15.706C29.8948 15.5187 30 15.2648 30 15C30 14.7352 29.8948 14.4813 29.7076 14.294C29.5203 14.1068 29.2664 13.9968 29.0016 13.9968C28.7368 13.9968 28.4829 14.1068 28.2956 14.294C28.1084 14.4813 27.9984 14.7352 27.9984 15ZM30 15C30 15.2648 30.1052 15.5187 30.2924 15.706C30.4797 15.8932 30.7336 15.9984 30.9984 15.9984C31.2632 15.9984 31.5171 15.8932 31.7044 15.706C31.8916 15.5187 31.9968 15.2648 31.9968 15C31.9968 14.7352 31.8916 14.4813 31.7044 14.294C31.5171 14.1068 31.2632 13.9968 30.9984 13.9968C30.7336 13.9968 30.4797 14.1068 30.2924 14.294C30.1052 14.4813 30 14.7352 30 15ZM31.9968 15C31.9968 15.2648 32.1068 15.5187 32.294 15.706C32.4813 15.8932 32.7352 15.9984 33 15.9984C33.2648 15.9984 33.5187 15.8932 33.706 15.706C33.8932 15.5187 33.9984 15.2648 33.9984 15C33.9984 14.7352 33.8932 14.4813 33.706 14.294C33.5187 14.1068 33.2648 13.9968 33 13.9968C32.7352 13.9968 32.4813 14.1068 32.294 14.294C32.1068 14.4813 31.9968 14.7352 31.9968 15ZM33.9984 15C33.9984 15.2648 34.1084 15.5187 34.2956 15.706C34.4829 15.8932 34.7368 15.9984 35.0016 15.9984C35.2664 15.9984 35.5203 15.8932 35.7076 15.706C35.8948 15.5187 36 15.2648 36 15C36 14.7352 35.8948 14.4813 35.7076 14.294C35.5203 14.1068 35.2664 13.9968 35.0016 13.9968C34.7368 13.9968 34.4829 14.1068 34.2956 14.294C34.1084 14.4813 33.9984 14.7352 33.9984 15ZM36 15C36 15.2648 36.1052 15.5187 36.2924 15.706C36.4797 15.8932 36.7336 15.9984 36.9984 15.9984C37.2632 15.9984 37.5171 15.8932 37.7044 15.706C37.8916 15.5187 37.9968 15.2648 37.9968 15C37.9968 14.7352 37.8916 14.4813 37.7044 14.294C37.5171 14.1068 37.2632 14.0016 36.9984 14.0016C36.7336 14.0016 36.4797 14.1068 36.2924 14.294C36.1052 14.4813 36 14.7352 36 15ZM10.0032 17.0016C10.0032 17.2664 10.1084 17.5203 10.2956 17.7076C10.4829 17.8948 10.7368 18 11.0016 18C11.2664 18 11.5203 17.8948 11.7076 17.7076C11.8948 17.5203 12 17.2664 12 17.0016C12 16.7368 11.8948 16.4829 11.7076 16.2956C11.5203 16.1084 11.2664 15.9984 11.0016 15.9984C10.7368 15.9984 10.4829 16.1084 10.2956 16.2956C10.1084 16.4829 10.0032 16.7368 10.0032 17.0016ZM12 17.0016C12 17.1327 12.0258 17.2625 12.076 17.3837C12.1262 17.5048 12.1997 17.6149 12.2924 17.7076C12.3851 17.8003 12.4952 17.8738 12.6163 17.924C12.7375 17.9742 12.8673 18 12.9984 18C13.1295 18 13.2593 17.9742 13.3805 17.924C13.5016 17.8738 13.6117 17.8003 13.7044 17.7076C13.7971 17.6149 13.8706 17.5048 13.9208 17.3837C13.971 17.2625 13.9968 17.1327 13.9968 17.0016C13.9968 16.7368 13.8916 16.4829 13.7044 16.2956C13.5171 16.1084 13.2632 15.9984 12.9984 15.9984C12.7336 15.9984 12.4797 16.1084 12.2924 16.2956C12.1052 16.4829 12 16.7368 12 17.0016ZM13.9968 17.0016C13.9968 17.2664 14.1068 17.5203 14.294 17.7076C14.4813 17.8948 14.7352 18 15 18C15.2648 18 15.5187 17.8948 15.706 17.7076C15.8932 17.5203 15.9984 17.2664 15.9984 17.0016C15.9984 16.8705 15.9726 16.7407 15.9224 16.6195C15.8722 16.4984 15.7987 16.3883 15.706 16.2956C15.6133 16.2029 15.5032 16.1294 15.3821 16.0792C15.2609 16.029 15.1311 15.9984 15 15.9984C14.8689 15.9984 14.7391 16.029 14.6179 16.0792C14.4968 16.1294 14.3867 16.2029 14.294 16.2956C14.2013 16.3883 14.1278 16.4984 14.0776 16.6195C14.0274 16.7407 13.9968 16.8705 13.9968 17.0016ZM15.9984 17.0016C15.9984 17.1327 16.029 17.2625 16.0792 17.3837C16.1294 17.5048 16.2029 17.6149 16.2956 17.7076C16.3883 17.8003 16.4984 17.8738 16.6195 17.924C16.7407 17.9742 16.8705 18 17.0016 18C17.1327 18 17.2625 17.9742 17.3837 17.924C17.5048 17.8738 17.6149 17.8003 17.7076 17.7076C17.8003 17.6149 17.8738 17.5048 17.924 17.3837C17.9742 17.2625 18 17.1327 18 17.0016C18 16.8705 17.9742 16.7407 17.924 16.6195C17.8738 16.4984 17.8003 16.3883 17.7076 16.2956C17.6149 16.2029 17.5048 16.1294 17.3837 16.0792C17.2625 16.029 17.1327 15.9984 17.0016 15.9984C16.8705 15.9984 16.7407 16.029 16.6195 16.0792C16.4984 16.1294 16.3883 16.2029 16.2956 16.2956C16.2029 16.3883 16.1294 16.4984 16.0792 16.6195C16.029 16.7407 15.9984 16.8705 15.9984 17.0016ZM18 17.0016C18 17.2664 18.1052 17.5203 18.2924 17.7076C18.4797 17.8948 18.7336 18 18.9984 18C19.2632 18 19.5171 17.8948 19.7044 17.7076C19.8916 17.5203 19.9968 17.2664 19.9968 17.0016C19.9968 16.7368 19.8916 16.4829 19.7044 16.2956C19.5171 16.1084 19.2632 15.9984 18.9984 15.9984C18.7336 15.9984 18.4797 16.1084 18.2924 16.2956C18.1052 16.4829 18 16.7368 18 17.0016ZM19.9968 17.0016C19.9968 17.2664 20.1068 17.5203 20.294 17.7076C20.4813 17.8948 20.7352 18 21 18C21.2648 18 21.5187 17.8948 21.706 17.7076C21.8932 17.5203 21.9984 17.2664 21.9984 17.0016C21.9984 16.7368 21.8932 16.4829 21.706 16.2956C21.5187 16.1084 21.2648 15.9984 21 15.9984C20.7352 15.9984 20.4813 16.1084 20.294 16.2956C20.1068 16.4829 19.9968 16.7368 19.9968 17.0016ZM26.0016 17.0016C26.0016 17.2664 26.1068 17.5203 26.294 17.7076C26.4813 17.8948 26.7352 18 27 18C27.2648 18 27.5187 17.8948 27.706 17.7076C27.8932 17.5203 27.9984 17.2664 27.9984 17.0016C27.9984 16.7368 27.8932 16.4829 27.706 16.2956C27.5187 16.1084 27.2648 15.9984 27 15.9984C26.7352 15.9984 26.4813 16.1084 26.294 16.2956C26.1068 16.4829 26.0016 16.7368 26.0016 17.0016ZM27.9984 17.0016C27.9984 17.2664 28.1084 17.5203 28.2956 17.7076C28.4829 17.8948 28.7368 18 29.0016 18C29.2664 18 29.5203 17.8948 29.7076 17.7076C29.8948 17.5203 30 17.2664 30 17.0016C30 16.7368 29.8948 16.4829 29.7076 16.2956C29.5203 16.1084 29.2664 15.9984 29.0016 15.9984C28.7368 15.9984 28.4829 16.1084 28.2956 16.2956C28.1084 16.4829 27.9984 16.7368 27.9984 17.0016ZM30 17.0016C30 17.2664 30.1052 17.5203 30.2924 17.7076C30.4797 17.8948 30.7336 18 30.9984 18C31.2632 18 31.5171 17.8948 31.7044 17.7076C31.8916 17.5203 31.9968 17.2664 31.9968 17.0016C31.9968 16.7368 31.8916 16.4829 31.7044 16.2956C31.5171 16.1084 31.2632 15.9984 30.9984 15.9984C30.7336 15.9984 30.4797 16.1084 30.2924 16.2956C30.1052 16.4829 30 16.7368 30 17.0016ZM31.9968 17.0016C31.9968 17.2664 32.1068 17.5203 32.294 17.7076C32.4813 17.8948 32.7352 18 33 18C33.2648 18 33.5187 17.8948 33.706 17.7076C33.8932 17.5203 33.9984 17.2664 33.9984 17.0016C33.9984 16.7368 33.8932 16.4829 33.706 16.2956C33.5187 16.1084 33.2648 15.9984 33 15.9984C32.7352 15.9984 32.4813 16.1084 32.294 16.2956C32.1068 16.4829 31.9968 16.7368 31.9968 17.0016ZM33.9984 17.0016C33.9984 17.2664 34.1084 17.5203 34.2956 17.7076C34.4829 17.8948 34.7368 18 35.0016 18C35.2664 18 35.5203 17.8948 35.7076 17.7076C35.8948 17.5203 36 17.2664 36 17.0016C36 16.7368 35.8948 16.4829 35.7076 16.2956C35.5203 16.1084 35.2664 15.9984 35.0016 15.9984C34.7368 15.9984 34.4829 16.1084 34.2956 16.2956C34.1084 16.4829 33.9984 16.7368 33.9984 17.0016ZM36 17.0016C36 17.2664 36.1052 17.5203 36.2924 17.7076C36.4797 17.8948 36.7336 18 36.9984 18C37.2632 18 37.5171 17.8948 37.7044 17.7076C37.8916 17.5203 37.9968 17.2664 37.9968 17.0016C37.9968 16.7368 37.8916 16.4829 37.7044 16.2956C37.5171 16.1084 37.2632 15.9984 36.9984 15.9984C36.7336 15.9984 36.4797 16.1084 36.2924 16.2956C36.1052 16.4829 36 16.7368 36 17.0016ZM10.0032 18.9984C10.0032 19.2632 10.1084 19.5171 10.2956 19.7044C10.4829 19.8916 10.7368 19.9968 11.0016 19.9968C11.2664 19.9968 11.5203 19.8916 11.7076 19.7044C11.8948 19.5171 12 19.2632 12 18.9984C12 18.7336 11.8948 18.4797 11.7076 18.2924C11.5203 18.1052 11.2664 18 11.0016 18C10.7368 18 10.4829 18.1052 10.2956 18.2924C10.1084 18.4797 10.0032 18.7336 10.0032 18.9984ZM12 18.9984C12 19.1295 12.0258 19.2593 12.076 19.3805C12.1262 19.5016 12.1997 19.6117 12.2924 19.7044C12.3851 19.7971 12.4952 19.8706 12.6163 19.9208C12.7375 19.971 12.8673 19.9968 12.9984 19.9968C13.1295 19.9968 13.2593 19.971 13.3805 19.9208C13.5016 19.8706 13.6117 19.7971 13.7044 19.7044C13.7971 19.6117 13.8706 19.5016 13.9208 19.3805C13.971 19.2593 13.9968 19.1295 13.9968 18.9984C13.9968 18.7336 13.8916 18.4797 13.7044 18.2924C13.5171 18.1052 13.2632 18 12.9984 18C12.7336 18 12.4797 18.1052 12.2924 18.2924C12.1052 18.4797 12 18.7336 12 18.9984ZM13.9968 18.9984C13.9968 19.2632 14.1068 19.5171 14.294 19.7044C14.4813 19.8916 14.7352 19.9968 15 19.9968C15.2648 19.9968 15.5187 19.8916 15.706 19.7044C15.8932 19.5171 15.9984 19.2632 15.9984 18.9984C15.9984 18.8673 15.9726 18.7375 15.9224 18.6163C15.8722 18.4952 15.7987 18.3851 15.706 18.2924C15.6133 18.1997 15.5032 18.1262 15.3821 18.076C15.2609 18.0258 15.1311 18 15 18C14.8689 18 14.7391 18.0258 14.6179 18.076C14.4968 18.1262 14.3867 18.1997 14.294 18.2924C14.2013 18.3851 14.1278 18.4952 14.0776 18.6163C14.0274 18.7375 13.9968 18.8673 13.9968 18.9984ZM15.9984 18.9984C15.9984 19.1295 16.029 19.2593 16.0792 19.3805C16.1294 19.5016 16.2029 19.6117 16.2956 19.7044C16.3883 19.7971 16.4984 19.8706 16.6195 19.9208C16.7407 19.971 16.8705 19.9968 17.0016 19.9968C17.1327 19.9968 17.2625 19.971 17.3837 19.9208C17.5048 19.8706 17.6149 19.7971 17.7076 19.7044C17.8003 19.6117 17.8738 19.5016 17.924 19.3805C17.9742 19.2593 18 19.1295 18 18.9984C18 18.8673 17.9742 18.7375 17.924 18.6163C17.8738 18.4952 17.8003 18.3851 17.7076 18.2924C17.6149 18.1997 17.5048 18.1262 17.3837 18.076C17.2625 18.0258 17.1327 18 17.0016 18C16.8705 18 16.7407 18.0258 16.6195 18.076C16.4984 18.1262 16.3883 18.1997 16.2956 18.2924C16.2029 18.3851 16.1294 18.4952 16.0792 18.6163C16.029 18.7375 15.9984 18.8673 15.9984 18.9984ZM18 18.9984C18 19.2632 18.1052 19.5171 18.2924 19.7044C18.4797 19.8916 18.7336 19.9968 18.9984 19.9968C19.2632 19.9968 19.5171 19.8916 19.7044 19.7044C19.8916 19.5171 19.9968 19.2632 19.9968 18.9984C19.9968 18.7336 19.8916 18.4797 19.7044 18.2924C19.5171 18.1052 19.2632 18 18.9984 18C18.7336 18 18.4797 18.1052 18.2924 18.2924C18.1052 18.4797 18 18.7336 18 18.9984ZM28.0032 18.9984C28.0032 19.2632 28.1084 19.5171 28.2956 19.7044C28.4829 19.8916 28.7368 19.9968 29.0016 19.9968C29.2664 19.9968 29.5203 19.8916 29.7076 19.7044C29.8948 19.5171 30 19.2632 30 18.9984C30 18.7336 29.8948 18.4797 29.7076 18.2924C29.5203 18.1052 29.2664 18 29.0016 18C28.7368 18 28.4829 18.1052 28.2956 18.2924C28.1084 18.4797 28.0032 18.7336 28.0032 18.9984ZM30 18.9984C30 19.2632 30.1052 19.5171 30.2924 19.7044C30.4797 19.8916 30.7336 19.9968 30.9984 19.9968C31.2632 19.9968 31.5171 19.8916 31.7044 19.7044C31.8916 19.5171 31.9968 19.2632 31.9968 18.9984C31.9968 18.7336 31.8916 18.4797 31.7044 18.2924C31.5171 18.1052 31.2632 18 30.9984 18C30.7336 18 30.4797 18.1052 30.2924 18.2924C30.1052 18.4797 30 18.7336 30 18.9984ZM31.9968 18.9984C31.9968 19.2632 32.1068 19.5171 32.294 19.7044C32.4813 19.8916 32.7352 19.9968 33 19.9968C33.2648 19.9968 33.5187 19.8916 33.706 19.7044C33.8932 19.5171 33.9984 19.2632 33.9984 18.9984C33.9984 18.7336 33.8932 18.4797 33.706 18.2924C33.5187 18.1052 33.2648 18 33 18C32.7352 18 32.4813 18.1052 32.294 18.2924C32.1068 18.4797 31.9968 18.7336 31.9968 18.9984ZM33.9984 18.9984C33.9984 19.2632 34.1084 19.5171 34.2956 19.7044C34.4829 19.8916 34.7368 19.9968 35.0016 19.9968C35.2664 19.9968 35.5203 19.8916 35.7076 19.7044C35.8948 19.5171 36 19.2632 36 18.9984C36 18.7336 35.8948 18.4797 35.7076 18.2924C35.5203 18.1052 35.2664 18 35.0016 18C34.7368 18 34.4829 18.1052 34.2956 18.2924C34.1084 18.4797 33.9984 18.7336 33.9984 18.9984ZM36 18.9984C36 19.2632 36.1052 19.5171 36.2924 19.7044C36.4797 19.8916 36.7336 19.9968 36.9984 19.9968C37.2632 19.9968 37.5171 19.8916 37.7044 19.7044C37.8916 19.5171 37.9968 19.2632 37.9968 18.9984C37.9968 18.7336 37.8916 18.4797 37.7044 18.2924C37.5171 18.1052 37.2632 18 36.9984 18C36.7336 18 36.4797 18.1052 36.2924 18.2924C36.1052 18.4797 36 18.7336 36 18.9984ZM8.0016 21C8.0016 21.2648 8.10679 21.5187 8.29402 21.706C8.48126 21.8932 8.73521 21.9984 9 21.9984C9.26479 21.9984 9.51874 21.8932 9.70598 21.706C9.89321 21.5187 9.9984 21.2648 9.9984 21C9.9984 20.7352 9.89321 20.4813 9.70598 20.294C9.51874 20.1068 9.26479 20.0016 9 20.0016C8.73521 20.0016 8.48126 20.1068 8.29402 20.294C8.10679 20.4813 8.0016 20.7352 8.0016 21ZM9.9984 21C9.9984 21.2648 10.1084 21.5187 10.2956 21.706C10.4829 21.8932 10.7368 21.9984 11.0016 21.9984C11.2664 21.9984 11.5203 21.8932 11.7076 21.706C11.8948 21.5187 12 21.2648 12 21C12 20.7352 11.8948 20.4813 11.7076 20.294C11.5203 20.1068 11.2664 19.9968 11.0016 19.9968C10.7368 19.9968 10.4829 20.1068 10.2956 20.294C10.1084 20.4813 9.9984 20.7352 9.9984 21ZM12 21C12 21.1311 12.0258 21.2609 12.076 21.3821C12.1262 21.5032 12.1997 21.6133 12.2924 21.706C12.3851 21.7987 12.4952 21.8722 12.6163 21.9224C12.7375 21.9726 12.8673 21.9984 12.9984 21.9984C13.1295 21.9984 13.2593 21.9726 13.3805 21.9224C13.5016 21.8722 13.6117 21.7987 13.7044 21.706C13.7971 21.6133 13.8706 21.5032 13.9208 21.3821C13.971 21.2609 13.9968 21.1311 13.9968 21C13.9968 20.7352 13.8916 20.4813 13.7044 20.294C13.5171 20.1068 13.2632 19.9968 12.9984 19.9968C12.7336 19.9968 12.4797 20.1068 12.2924 20.294C12.1052 20.4813 12 20.7352 12 21ZM13.9968 21C13.9968 21.2648 14.1068 21.5187 14.294 21.706C14.4813 21.8932 14.7352 21.9984 15 21.9984C15.2648 21.9984 15.5187 21.8932 15.706 21.706C15.8932 21.5187 15.9984 21.2648 15.9984 21C15.9984 20.8689 15.9726 20.7391 15.9224 20.6179C15.8722 20.4968 15.7987 20.3867 15.706 20.294C15.6133 20.2013 15.5032 20.1278 15.3821 20.0776C15.2609 20.0274 15.1311 19.9968 15 19.9968C14.8689 19.9968 14.7391 20.0274 14.6179 20.0776C14.4968 20.1278 14.3867 20.2013 14.294 20.294C14.2013 20.3867 14.1278 20.4968 14.0776 20.6179C14.0274 20.7391 13.9968 20.8689 13.9968 21ZM15.9984 21C15.9984 21.1311 16.029 21.2609 16.0792 21.3821C16.1294 21.5032 16.2029 21.6133 16.2956 21.706C16.3883 21.7987 16.4984 21.8722 16.6195 21.9224C16.7407 21.9726 16.8705 21.9984 17.0016 21.9984C17.1327 21.9984 17.2625 21.9726 17.3837 21.9224C17.5048 21.8722 17.6149 21.7987 17.7076 21.706C17.8003 21.6133 17.8738 21.5032 17.924 21.3821C17.9742 21.2609 18 21.1311 18 21C18 20.8689 17.9742 20.7391 17.924 20.6179C17.8738 20.4968 17.8003 20.3867 17.7076 20.294C17.6149 20.2013 17.5048 20.1278 17.3837 20.0776C17.2625 20.0274 17.1327 19.9968 17.0016 19.9968C16.8705 19.9968 16.7407 20.0274 16.6195 20.0776C16.4984 20.1278 16.3883 20.2013 16.2956 20.294C16.2029 20.3867 16.1294 20.4968 16.0792 20.6179C16.029 20.7391 15.9984 20.8689 15.9984 21ZM18 21C18 21.2648 18.1052 21.5187 18.2924 21.706C18.4797 21.8932 18.7336 21.9984 18.9984 21.9984C19.2632 21.9984 19.5171 21.8932 19.7044 21.706C19.8916 21.5187 19.9968 21.2648 19.9968 21C19.9968 20.7352 19.8916 20.4813 19.7044 20.294C19.5171 20.1068 19.2632 19.9968 18.9984 19.9968C18.7336 19.9968 18.4797 20.1068 18.2924 20.294C18.1052 20.4813 18 20.7352 18 21ZM28.0032 21C28.0032 21.2648 28.1084 21.5187 28.2956 21.706C28.4829 21.8932 28.7368 21.9984 29.0016 21.9984C29.2664 21.9984 29.5203 21.8932 29.7076 21.706C29.8948 21.5187 30 21.2648 30 21C30 20.7352 29.8948 20.4813 29.7076 20.294C29.5203 20.1068 29.2664 19.9968 29.0016 19.9968C28.7368 19.9968 28.4829 20.1068 28.2956 20.294C28.1084 20.4813 28.0032 20.7352 28.0032 21ZM30 21C30 21.2648 30.1052 21.5187 30.2924 21.706C30.4797 21.8932 30.7336 21.9984 30.9984 21.9984C31.2632 21.9984 31.5171 21.8932 31.7044 21.706C31.8916 21.5187 31.9968 21.2648 31.9968 21C31.9968 20.7352 31.8916 20.4813 31.7044 20.294C31.5171 20.1068 31.2632 19.9968 30.9984 19.9968C30.7336 19.9968 30.4797 20.1068 30.2924 20.294C30.1052 20.4813 30 20.7352 30 21ZM31.9968 21C31.9968 21.2648 32.1068 21.5187 32.294 21.706C32.4813 21.8932 32.7352 21.9984 33 21.9984C33.2648 21.9984 33.5187 21.8932 33.706 21.706C33.8932 21.5187 33.9984 21.2648 33.9984 21C33.9984 20.7352 33.8932 20.4813 33.706 20.294C33.5187 20.1068 33.2648 19.9968 33 19.9968C32.7352 19.9968 32.4813 20.1068 32.294 20.294C32.1068 20.4813 31.9968 20.7352 31.9968 21ZM33.9984 21C33.9984 21.2648 34.1084 21.5187 34.2956 21.706C34.4829 21.8932 34.7368 21.9984 35.0016 21.9984C35.2664 21.9984 35.5203 21.8932 35.7076 21.706C35.8948 21.5187 36 21.2648 36 21C36 20.7352 35.8948 20.4813 35.7076 20.294C35.5203 20.1068 35.2664 19.9968 35.0016 19.9968C34.7368 19.9968 34.4829 20.1068 34.2956 20.294C34.1084 20.4813 33.9984 20.7352 33.9984 21ZM36 21C36 21.2648 36.1052 21.5187 36.2924 21.706C36.4797 21.8932 36.7336 21.9984 36.9984 21.9984C37.2632 21.9984 37.5171 21.8932 37.7044 21.706C37.8916 21.5187 37.9968 21.2648 37.9968 21C37.9968 20.7352 37.8916 20.4813 37.7044 20.294C37.5171 20.1068 37.2632 19.9968 36.9984 19.9968C36.7336 19.9968 36.4797 20.1068 36.2924 20.294C36.1052 20.4813 36 20.7352 36 21ZM37.9968 21C37.9968 21.2648 38.1068 21.5187 38.294 21.706C38.4813 21.8932 38.7352 21.9984 39 21.9984C39.2648 21.9984 39.5187 21.8932 39.706 21.706C39.8932 21.5187 39.9984 21.2648 39.9984 21C39.9984 20.7352 39.8932 20.4813 39.706 20.294C39.5187 20.1068 39.2648 20.0016 39 20.0016C38.7352 20.0016 38.4813 20.1068 38.294 20.294C38.1068 20.4813 37.9968 20.7352 37.9968 21ZM8.0016 23.0016C8.0016 23.2664 8.10679 23.5203 8.29402 23.7076C8.48126 23.8948 8.73521 24 9 24C9.26479 24 9.51874 23.8948 9.70598 23.7076C9.89321 23.5203 9.9984 23.2664 9.9984 23.0016C9.9984 22.7368 9.89321 22.4829 9.70598 22.2956C9.51874 22.1084 9.26479 21.9984 9 21.9984C8.73521 21.9984 8.48126 22.1084 8.29402 22.2956C8.10679 22.4829 8.0016 22.7368 8.0016 23.0016ZM9.9984 23.0016C9.9984 23.2664 10.1084 23.5203 10.2956 23.7076C10.4829 23.8948 10.7368 24 11.0016 24C11.2664 24 11.5203 23.8948 11.7076 23.7076C11.8948 23.5203 12 23.2664 12 23.0016C12 22.7368 11.8948 22.4829 11.7076 22.2956C11.5203 22.1084 11.2664 21.9984 11.0016 21.9984C10.7368 21.9984 10.4829 22.1084 10.2956 22.2956C10.1084 22.4829 9.9984 22.7368 9.9984 23.0016ZM12 23.0016C12 23.1327 12.0258 23.2625 12.076 23.3837C12.1262 23.5048 12.1997 23.6149 12.2924 23.7076C12.3851 23.8003 12.4952 23.8738 12.6163 23.924C12.7375 23.9742 12.8673 24 12.9984 24C13.1295 24 13.2593 23.9742 13.3805 23.924C13.5016 23.8738 13.6117 23.8003 13.7044 23.7076C13.7971 23.6149 13.8706 23.5048 13.9208 23.3837C13.971 23.2625 13.9968 23.1327 13.9968 23.0016C13.9968 22.7368 13.8916 22.4829 13.7044 22.2956C13.5171 22.1084 13.2632 21.9984 12.9984 21.9984C12.7336 21.9984 12.4797 22.1084 12.2924 22.2956C12.1052 22.4829 12 22.7368 12 23.0016ZM13.9968 23.0016C13.9968 23.2664 14.1068 23.5203 14.294 23.7076C14.4813 23.8948 14.7352 24 15 24C15.2648 24 15.5187 23.8948 15.706 23.7076C15.8932 23.5203 15.9984 23.2664 15.9984 23.0016C15.9984 22.8705 15.9726 22.7407 15.9224 22.6195C15.8722 22.4984 15.7987 22.3883 15.706 22.2956C15.6133 22.2029 15.5032 22.1294 15.3821 22.0792C15.2609 22.029 15.1311 21.9984 15 21.9984C14.8689 21.9984 14.7391 22.029 14.6179 22.0792C14.4968 22.1294 14.3867 22.2029 14.294 22.2956C14.2013 22.3883 14.1278 22.4984 14.0776 22.6195C14.0274 22.7407 13.9968 22.8705 13.9968 23.0016ZM15.9984 23.0016C15.9984 23.1327 16.029 23.2625 16.0792 23.3837C16.1294 23.5048 16.2029 23.6149 16.2956 23.7076C16.3883 23.8003 16.4984 23.8738 16.6195 23.924C16.7407 23.9742 16.8705 24 17.0016 24C17.1327 24 17.2625 23.9742 17.3837 23.924C17.5048 23.8738 17.6149 23.8003 17.7076 23.7076C17.8003 23.6149 17.8738 23.5048 17.924 23.3837C17.9742 23.2625 18 23.1327 18 23.0016C18 22.8705 17.9742 22.7407 17.924 22.6195C17.8738 22.4984 17.8003 22.3883 17.7076 22.2956C17.6149 22.2029 17.5048 22.1294 17.3837 22.0792C17.2625 22.029 17.1327 21.9984 17.0016 21.9984C16.8705 21.9984 16.7407 22.029 16.6195 22.0792C16.4984 22.1294 16.3883 22.2029 16.2956 22.2956C16.2029 22.3883 16.1294 22.4984 16.0792 22.6195C16.029 22.7407 15.9984 22.8705 15.9984 23.0016ZM18 23.0016C18 23.2664 18.1052 23.5203 18.2924 23.7076C18.4797 23.8948 18.7336 24 18.9984 24C19.2632 24 19.5171 23.8948 19.7044 23.7076C19.8916 23.5203 19.9968 23.2664 19.9968 23.0016C19.9968 22.7368 19.8916 22.4829 19.7044 22.2956C19.5171 22.1084 19.2632 21.9984 18.9984 21.9984C18.7336 21.9984 18.4797 22.1084 18.2924 22.2956C18.1052 22.4829 18 22.7368 18 23.0016ZM28.0032 23.0016C28.0032 23.2664 28.1084 23.5203 28.2956 23.7076C28.4829 23.8948 28.7368 24 29.0016 24C29.2664 24 29.5203 23.8948 29.7076 23.7076C29.8948 23.5203 30 23.2664 30 23.0016C30 22.7368 29.8948 22.4829 29.7076 22.2956C29.5203 22.1084 29.2664 21.9984 29.0016 21.9984C28.7368 21.9984 28.4829 22.1084 28.2956 22.2956C28.1084 22.4829 28.0032 22.7368 28.0032 23.0016ZM30 23.0016C30 23.2664 30.1052 23.5203 30.2924 23.7076C30.4797 23.8948 30.7336 24 30.9984 24C31.2632 24 31.5171 23.8948 31.7044 23.7076C31.8916 23.5203 31.9968 23.2664 31.9968 23.0016C31.9968 22.7368 31.8916 22.4829 31.7044 22.2956C31.5171 22.1084 31.2632 21.9984 30.9984 21.9984C30.7336 21.9984 30.4797 22.1084 30.2924 22.2956C30.1052 22.4829 30 22.7368 30 23.0016ZM31.9968 23.0016C31.9968 23.2664 32.1068 23.5203 32.294 23.7076C32.4813 23.8948 32.7352 24 33 24C33.2648 24 33.5187 23.8948 33.706 23.7076C33.8932 23.5203 33.9984 23.2664 33.9984 23.0016C33.9984 22.7368 33.8932 22.4829 33.706 22.2956C33.5187 22.1084 33.2648 21.9984 33 21.9984C32.7352 21.9984 32.4813 22.1084 32.294 22.2956C32.1068 22.4829 31.9968 22.7368 31.9968 23.0016ZM33.9984 23.0016C33.9984 23.2664 34.1084 23.5203 34.2956 23.7076C34.4829 23.8948 34.7368 24 35.0016 24C35.2664 24 35.5203 23.8948 35.7076 23.7076C35.8948 23.5203 36 23.2664 36 23.0016C36 22.7368 35.8948 22.4829 35.7076 22.2956C35.5203 22.1084 35.2664 21.9984 35.0016 21.9984C34.7368 21.9984 34.4829 22.1084 34.2956 22.2956C34.1084 22.4829 33.9984 22.7368 33.9984 23.0016ZM36 23.0016C36 23.2664 36.1052 23.5203 36.2924 23.7076C36.4797 23.8948 36.7336 24 36.9984 24C37.2632 24 37.5171 23.8948 37.7044 23.7076C37.8916 23.5203 37.9968 23.2664 37.9968 23.0016C37.9968 22.7368 37.8916 22.4829 37.7044 22.2956C37.5171 22.1084 37.2632 21.9984 36.9984 21.9984C36.7336 21.9984 36.4797 22.1084 36.2924 22.2956C36.1052 22.4829 36 22.7368 36 23.0016ZM37.9968 23.0016C37.9968 23.2664 38.1068 23.5203 38.294 23.7076C38.4813 23.8948 38.7352 24 39 24C39.2648 24 39.5187 23.8948 39.706 23.7076C39.8932 23.5203 39.9984 23.2664 39.9984 23.0016C39.9984 22.7368 39.8932 22.4829 39.706 22.2956C39.5187 22.1084 39.2648 21.9984 39 21.9984C38.7352 21.9984 38.4813 22.1084 38.294 22.2956C38.1068 22.4829 37.9968 22.7368 37.9968 23.0016ZM6 24.9984C6 25.2632 6.10519 25.5171 6.29242 25.7044C6.47966 25.8916 6.73361 25.9968 6.9984 25.9968C7.26319 25.9968 7.51714 25.8916 7.70438 25.7044C7.89161 25.5171 7.9968 25.2632 7.9968 24.9984C7.9968 24.7336 7.89161 24.4797 7.70438 24.2924C7.51714 24.1052 7.26319 24 6.9984 24C6.73361 24 6.47966 24.1052 6.29242 24.2924C6.10519 24.4797 6 24.7336 6 24.9984ZM7.9968 24.9984C7.9968 25.2632 8.10679 25.5171 8.29402 25.7044C8.48126 25.8916 8.73521 25.9968 9 25.9968C9.26479 25.9968 9.51874 25.8916 9.70598 25.7044C9.89321 25.5171 9.9984 25.2632 9.9984 24.9984C9.9984 24.7336 9.89321 24.4797 9.70598 24.2924C9.51874 24.1052 9.26479 24 9 24C8.73521 24 8.48126 24.1052 8.29402 24.2924C8.10679 24.4797 7.9968 24.7336 7.9968 24.9984ZM9.9984 24.9984C9.9984 25.2632 10.1084 25.5171 10.2956 25.7044C10.4829 25.8916 10.7368 25.9968 11.0016 25.9968C11.2664 25.9968 11.5203 25.8916 11.7076 25.7044C11.8948 25.5171 12 25.2632 12 24.9984C12 24.7336 11.8948 24.4797 11.7076 24.2924C11.5203 24.1052 11.2664 24 11.0016 24C10.7368 24 10.4829 24.1052 10.2956 24.2924C10.1084 24.4797 9.9984 24.7336 9.9984 24.9984ZM12 24.9984C12 25.1295 12.0258 25.2593 12.076 25.3805C12.1262 25.5016 12.1997 25.6117 12.2924 25.7044C12.3851 25.7971 12.4952 25.8706 12.6163 25.9208C12.7375 25.971 12.8673 25.9968 12.9984 25.9968C13.1295 25.9968 13.2593 25.971 13.3805 25.9208C13.5016 25.8706 13.6117 25.7971 13.7044 25.7044C13.7971 25.6117 13.8706 25.5016 13.9208 25.3805C13.971 25.2593 13.9968 25.1295 13.9968 24.9984C13.9968 24.7336 13.8916 24.4797 13.7044 24.2924C13.5171 24.1052 13.2632 24 12.9984 24C12.7336 24 12.4797 24.1052 12.2924 24.2924C12.1052 24.4797 12 24.7336 12 24.9984ZM13.9968 24.9984C13.9968 25.2632 14.1068 25.5171 14.294 25.7044C14.4813 25.8916 14.7352 25.9968 15 25.9968C15.2648 25.9968 15.5187 25.8916 15.706 25.7044C15.8932 25.5171 15.9984 25.2632 15.9984 24.9984C15.9984 24.8673 15.9726 24.7375 15.9224 24.6163C15.8722 24.4952 15.7987 24.3851 15.706 24.2924C15.6133 24.1997 15.5032 24.1262 15.3821 24.076C15.2609 24.0258 15.1311 24 15 24C14.8689 24 14.7391 24.0258 14.6179 24.076C14.4968 24.1262 14.3867 24.1997 14.294 24.2924C14.2013 24.3851 14.1278 24.4952 14.0776 24.6163C14.0274 24.7375 13.9968 24.8673 13.9968 24.9984ZM15.9984 24.9984C15.9984 25.1295 16.029 25.2593 16.0792 25.3805C16.1294 25.5016 16.2029 25.6117 16.2956 25.7044C16.3883 25.7971 16.4984 25.8706 16.6195 25.9208C16.7407 25.971 16.8705 25.9968 17.0016 25.9968C17.1327 25.9968 17.2625 25.971 17.3837 25.9208C17.5048 25.8706 17.6149 25.7971 17.7076 25.7044C17.8003 25.6117 17.8738 25.5016 17.924 25.3805C17.9742 25.2593 18 25.1295 18 24.9984C18 24.8673 17.9742 24.7375 17.924 24.6163C17.8738 24.4952 17.8003 24.3851 17.7076 24.2924C17.6149 24.1997 17.5048 24.1262 17.3837 24.076C17.2625 24.0258 17.1327 24 17.0016 24C16.8705 24 16.7407 24.0258 16.6195 24.076C16.4984 24.1262 16.3883 24.1997 16.2956 24.2924C16.2029 24.3851 16.1294 24.4952 16.0792 24.6163C16.029 24.7375 15.9984 24.8673 15.9984 24.9984ZM30 24.9984C30 25.2632 30.1052 25.5171 30.2924 25.7044C30.4797 25.8916 30.7336 25.9968 30.9984 25.9968C31.2632 25.9968 31.5171 25.8916 31.7044 25.7044C31.8916 25.5171 31.9968 25.2632 31.9968 24.9984C31.9968 24.7336 31.8916 24.4797 31.7044 24.2924C31.5171 24.1052 31.2632 24 30.9984 24C30.7336 24 30.4797 24.1052 30.2924 24.2924C30.1052 24.4797 30 24.7336 30 24.9984ZM31.9968 24.9984C31.9968 25.2632 32.1068 25.5171 32.294 25.7044C32.4813 25.8916 32.7352 25.9968 33 25.9968C33.2648 25.9968 33.5187 25.8916 33.706 25.7044C33.8932 25.5171 33.9984 25.2632 33.9984 24.9984C33.9984 24.7336 33.8932 24.4797 33.706 24.2924C33.5187 24.1052 33.2648 24 33 24C32.7352 24 32.4813 24.1052 32.294 24.2924C32.1068 24.4797 31.9968 24.7336 31.9968 24.9984ZM33.9984 24.9984C33.9984 25.2632 34.1084 25.5171 34.2956 25.7044C34.4829 25.8916 34.7368 25.9968 35.0016 25.9968C35.2664 25.9968 35.5203 25.8916 35.7076 25.7044C35.8948 25.5171 36 25.2632 36 24.9984C36 24.7336 35.8948 24.4797 35.7076 24.2924C35.5203 24.1052 35.2664 24 35.0016 24C34.7368 24 34.4829 24.1052 34.2956 24.2924C34.1084 24.4797 33.9984 24.7336 33.9984 24.9984ZM36 24.9984C36 25.2632 36.1052 25.5171 36.2924 25.7044C36.4797 25.8916 36.7336 25.9968 36.9984 25.9968C37.2632 25.9968 37.5171 25.8916 37.7044 25.7044C37.8916 25.5171 37.9968 25.2632 37.9968 24.9984C37.9968 24.7336 37.8916 24.4797 37.7044 24.2924C37.5171 24.1052 37.2632 24 36.9984 24C36.7336 24 36.4797 24.1052 36.2924 24.2924C36.1052 24.4797 36 24.7336 36 24.9984ZM37.9968 24.9984C37.9968 25.2632 38.1068 25.5171 38.294 25.7044C38.4813 25.8916 38.7352 25.9968 39 25.9968C39.2648 25.9968 39.5187 25.8916 39.706 25.7044C39.8932 25.5171 39.9984 25.2632 39.9984 24.9984C39.9984 24.7336 39.8932 24.4797 39.706 24.2924C39.5187 24.1052 39.2648 24 39 24C38.7352 24 38.4813 24.1052 38.294 24.2924C38.1068 24.4797 37.9968 24.7336 37.9968 24.9984ZM39.9984 24.9984C39.9984 25.1295 40.029 25.2593 40.0792 25.3805C40.1294 25.5016 40.2029 25.6117 40.2956 25.7044C40.3883 25.7971 40.4984 25.8706 40.6195 25.9208C40.7407 25.971 40.8705 25.9968 41.0016 25.9968C41.1327 25.9968 41.2625 25.971 41.3837 25.9208C41.5048 25.8706 41.6149 25.7971 41.7076 25.7044C41.8003 25.6117 41.8738 25.5016 41.924 25.3805C41.9742 25.2593 42 25.1295 42 24.9984C42 24.8673 41.9742 24.7375 41.924 24.6163C41.8738 24.4952 41.8003 24.3851 41.7076 24.2924C41.6149 24.1997 41.5048 24.1262 41.3837 24.076C41.2625 24.0258 41.1327 24 41.0016 24C40.8705 24 40.7407 24.0258 40.6195 24.076C40.4984 24.1262 40.3883 24.1997 40.2956 24.2924C40.2029 24.3851 40.1294 24.4952 40.0792 24.6163C40.029 24.7375 39.9984 24.8673 39.9984 24.9984ZM6 27C6 27.2648 6.10519 27.5187 6.29242 27.706C6.47966 27.8932 6.73361 27.9984 6.9984 27.9984C7.26319 27.9984 7.51714 27.8932 7.70438 27.706C7.89161 27.5187 7.9968 27.2648 7.9968 27C7.9968 26.7352 7.89161 26.4813 7.70438 26.294C7.51714 26.1068 7.26319 25.9968 6.9984 25.9968C6.73361 25.9968 6.47966 26.1068 6.29242 26.294C6.10519 26.4813 6 26.7352 6 27ZM7.9968 27C7.9968 27.2648 8.10679 27.5187 8.29402 27.706C8.48126 27.8932 8.73521 27.9984 9 27.9984C9.26479 27.9984 9.51874 27.8932 9.70598 27.706C9.89321 27.5187 9.9984 27.2648 9.9984 27C9.9984 26.7352 9.89321 26.4813 9.70598 26.294C9.51874 26.1068 9.26479 25.9968 9 25.9968C8.73521 25.9968 8.48126 26.1068 8.29402 26.294C8.10679 26.4813 7.9968 26.7352 7.9968 27ZM9.9984 27C9.9984 27.2648 10.1084 27.5187 10.2956 27.706C10.4829 27.8932 10.7368 27.9984 11.0016 27.9984C11.2664 27.9984 11.5203 27.8932 11.7076 27.706C11.8948 27.5187 12 27.2648 12 27C12 26.7352 11.8948 26.4813 11.7076 26.294C11.5203 26.1068 11.2664 25.9968 11.0016 25.9968C10.7368 25.9968 10.4829 26.1068 10.2956 26.294C10.1084 26.4813 9.9984 26.7352 9.9984 27ZM12 27C12 27.1311 12.0258 27.2609 12.076 27.3821C12.1262 27.5032 12.1997 27.6133 12.2924 27.706C12.3851 27.7987 12.4952 27.8722 12.6163 27.9224C12.7375 27.9726 12.8673 27.9984 12.9984 27.9984C13.1295 27.9984 13.2593 27.9726 13.3805 27.9224C13.5016 27.8722 13.6117 27.7987 13.7044 27.706C13.7971 27.6133 13.8706 27.5032 13.9208 27.3821C13.971 27.2609 13.9968 27.1311 13.9968 27C13.9968 26.7352 13.8916 26.4813 13.7044 26.294C13.5171 26.1068 13.2632 25.9968 12.9984 25.9968C12.7336 25.9968 12.4797 26.1068 12.2924 26.294C12.1052 26.4813 12 26.7352 12 27ZM13.9968 27C13.9968 27.2648 14.1068 27.5187 14.294 27.706C14.4813 27.8932 14.7352 27.9984 15 27.9984C15.2648 27.9984 15.5187 27.8932 15.706 27.706C15.8932 27.5187 15.9984 27.2648 15.9984 27C15.9984 26.8689 15.9726 26.7391 15.9224 26.6179C15.8722 26.4968 15.7987 26.3867 15.706 26.294C15.6133 26.2013 15.5032 26.1278 15.3821 26.0776C15.2609 26.0274 15.1311 25.9968 15 25.9968C14.8689 25.9968 14.7391 26.0274 14.6179 26.0776C14.4968 26.1278 14.3867 26.2013 14.294 26.294C14.2013 26.3867 14.1278 26.4968 14.0776 26.6179C14.0274 26.7391 13.9968 26.8689 13.9968 27ZM15.9984 27C15.9984 27.1311 16.029 27.2609 16.0792 27.3821C16.1294 27.5032 16.2029 27.6133 16.2956 27.706C16.3883 27.7987 16.4984 27.8722 16.6195 27.9224C16.7407 27.9726 16.8705 27.9984 17.0016 27.9984C17.1327 27.9984 17.2625 27.9726 17.3837 27.9224C17.5048 27.8722 17.6149 27.7987 17.7076 27.706C17.8003 27.6133 17.8738 27.5032 17.924 27.3821C17.9742 27.2609 18 27.1311 18 27C18 26.8689 17.9742 26.7391 17.924 26.6179C17.8738 26.4968 17.8003 26.3867 17.7076 26.294C17.6149 26.2013 17.5048 26.1278 17.3837 26.0776C17.2625 26.0274 17.1327 25.9968 17.0016 25.9968C16.8705 25.9968 16.7407 26.0274 16.6195 26.0776C16.4984 26.1278 16.3883 26.2013 16.2956 26.294C16.2029 26.3867 16.1294 26.4968 16.0792 26.6179C16.029 26.7391 15.9984 26.8689 15.9984 27ZM30 27C30 27.2648 30.1052 27.5187 30.2924 27.706C30.4797 27.8932 30.7336 27.9984 30.9984 27.9984C31.2632 27.9984 31.5171 27.8932 31.7044 27.706C31.8916 27.5187 31.9968 27.2648 31.9968 27C31.9968 26.7352 31.8916 26.4813 31.7044 26.294C31.5171 26.1068 31.2632 25.9968 30.9984 25.9968C30.7336 25.9968 30.4797 26.1068 30.2924 26.294C30.1052 26.4813 30 26.7352 30 27ZM31.9968 27C31.9968 27.2648 32.1068 27.5187 32.294 27.706C32.4813 27.8932 32.7352 27.9984 33 27.9984C33.2648 27.9984 33.5187 27.8932 33.706 27.706C33.8932 27.5187 33.9984 27.2648 33.9984 27C33.9984 26.7352 33.8932 26.4813 33.706 26.294C33.5187 26.1068 33.2648 25.9968 33 25.9968C32.7352 25.9968 32.4813 26.1068 32.294 26.294C32.1068 26.4813 31.9968 26.7352 31.9968 27ZM33.9984 27C33.9984 27.2648 34.1084 27.5187 34.2956 27.706C34.4829 27.8932 34.7368 27.9984 35.0016 27.9984C35.2664 27.9984 35.5203 27.8932 35.7076 27.706C35.8948 27.5187 36 27.2648 36 27C36 26.7352 35.8948 26.4813 35.7076 26.294C35.5203 26.1068 35.2664 25.9968 35.0016 25.9968C34.7368 25.9968 34.4829 26.1068 34.2956 26.294C34.1084 26.4813 33.9984 26.7352 33.9984 27ZM36 27C36 27.2648 36.1052 27.5187 36.2924 27.706C36.4797 27.8932 36.7336 27.9984 36.9984 27.9984C37.2632 27.9984 37.5171 27.8932 37.7044 27.706C37.8916 27.5187 37.9968 27.2648 37.9968 27C37.9968 26.7352 37.8916 26.4813 37.7044 26.294C37.5171 26.1068 37.2632 25.9968 36.9984 25.9968C36.7336 25.9968 36.4797 26.1068 36.2924 26.294C36.1052 26.4813 36 26.7352 36 27ZM37.9968 27C37.9968 27.2648 38.1068 27.5187 38.294 27.706C38.4813 27.8932 38.7352 27.9984 39 27.9984C39.2648 27.9984 39.5187 27.8932 39.706 27.706C39.8932 27.5187 39.9984 27.2648 39.9984 27C39.9984 26.7352 39.8932 26.4813 39.706 26.294C39.5187 26.1068 39.2648 25.9968 39 25.9968C38.7352 25.9968 38.4813 26.1068 38.294 26.294C38.1068 26.4813 37.9968 26.7352 37.9968 27ZM39.9984 27C39.9984 27.1311 40.029 27.2609 40.0792 27.3821C40.1294 27.5032 40.2029 27.6133 40.2956 27.706C40.3883 27.7987 40.4984 27.8722 40.6195 27.9224C40.7407 27.9726 40.8705 27.9984 41.0016 27.9984C41.1327 27.9984 41.2625 27.9726 41.3837 27.9224C41.5048 27.8722 41.6149 27.7987 41.7076 27.706C41.8003 27.6133 41.8738 27.5032 41.924 27.3821C41.9742 27.2609 42 27.1311 42 27C42 26.8689 41.9742 26.7391 41.924 26.6179C41.8738 26.4968 41.8003 26.3867 41.7076 26.294C41.6149 26.2013 41.5048 26.1278 41.3837 26.0776C41.2625 26.0274 41.1327 25.9968 41.0016 25.9968C40.8705 25.9968 40.7407 26.0274 40.6195 26.0776C40.4984 26.1278 40.3883 26.2013 40.2956 26.294C40.2029 26.3867 40.1294 26.4968 40.0792 26.6179C40.029 26.7391 39.9984 26.8689 39.9984 27ZM6 29.0016C6 29.2664 6.10519 29.5203 6.29242 29.7076C6.47966 29.8948 6.73361 30 6.9984 30C7.26319 30 7.51714 29.8948 7.70438 29.7076C7.89161 29.5203 7.9968 29.2664 7.9968 29.0016C7.9968 28.7368 7.89161 28.4829 7.70438 28.2956C7.51714 28.1084 7.26319 27.9984 6.9984 27.9984C6.73361 27.9984 6.47966 28.1084 6.29242 28.2956C6.10519 28.4829 6 28.7368 6 29.0016ZM7.9968 29.0016C7.9968 29.2664 8.10679 29.5203 8.29402 29.7076C8.48126 29.8948 8.73521 30 9 30C9.26479 30 9.51874 29.8948 9.70598 29.7076C9.89321 29.5203 9.9984 29.2664 9.9984 29.0016C9.9984 28.7368 9.89321 28.4829 9.70598 28.2956C9.51874 28.1084 9.26479 27.9984 9 27.9984C8.73521 27.9984 8.48126 28.1084 8.29402 28.2956C8.10679 28.4829 7.9968 28.7368 7.9968 29.0016ZM38.0016 29.0016C38.0016 29.2664 38.1068 29.5203 38.294 29.7076C38.4813 29.8948 38.7352 30 39 30C39.2648 30 39.5187 29.8948 39.706 29.7076C39.8932 29.5203 39.9984 29.2664 39.9984 29.0016C39.9984 28.7368 39.8932 28.4829 39.706 28.2956C39.5187 28.1084 39.2648 27.9984 39 27.9984C38.7352 27.9984 38.4813 28.1084 38.294 28.2956C38.1068 28.4829 38.0016 28.7368 38.0016 29.0016ZM39.9984 29.0016C39.9984 29.1327 40.029 29.2625 40.0792 29.3837C40.1294 29.5048 40.2029 29.6149 40.2956 29.7076C40.3883 29.8003 40.4984 29.8738 40.6195 29.924C40.7407 29.9742 40.8705 30 41.0016 30C41.1327 30 41.2625 29.9742 41.3837 29.924C41.5048 29.8738 41.6149 29.8003 41.7076 29.7076C41.8003 29.6149 41.8738 29.5048 41.924 29.3837C41.9742 29.2625 42 29.1327 42 29.0016C42 28.8705 41.9742 28.7407 41.924 28.6195C41.8738 28.4984 41.8003 28.3883 41.7076 28.2956C41.6149 28.2029 41.5048 28.1294 41.3837 28.0792C41.2625 28.029 41.1327 27.9984 41.0016 27.9984C40.8705 27.9984 40.7407 28.029 40.6195 28.0792C40.4984 28.1294 40.3883 28.2029 40.2956 28.2956C40.2029 28.3883 40.1294 28.4984 40.0792 28.6195C40.029 28.7407 39.9984 28.8705 39.9984 29.0016ZM14.0016 30.9984C14.0016 31.2632 14.1068 31.5171 14.294 31.7044C14.4813 31.8916 14.7352 31.9968 15 31.9968C15.2648 31.9968 15.5187 31.8916 15.706 31.7044C15.8932 31.5171 15.9984 31.2632 15.9984 30.9984C15.9984 30.8673 15.9726 30.7375 15.9224 30.6163C15.8722 30.4952 15.7987 30.3851 15.706 30.2924C15.6133 30.1997 15.5032 30.1262 15.3821 30.076C15.2609 30.0258 15.1311 30 15 30C14.8689 30 14.7391 30.0258 14.6179 30.076C14.4968 30.1262 14.3867 30.1997 14.294 30.2924C14.2013 30.3851 14.1278 30.4952 14.0776 30.6163C14.0274 30.7375 14.0016 30.8673 14.0016 30.9984ZM32.0016 30.9984C32.0016 31.2632 32.1068 31.5171 32.294 31.7044C32.4813 31.8916 32.7352 31.9968 33 31.9968C33.2648 31.9968 33.5187 31.8916 33.706 31.7044C33.8932 31.5171 33.9984 31.2632 33.9984 30.9984C33.9984 30.7336 33.8932 30.4797 33.706 30.2924C33.5187 30.1052 33.2648 30 33 30C32.7352 30 32.4813 30.1052 32.294 30.2924C32.1068 30.4797 32.0016 30.7336 32.0016 30.9984ZM14.0016 33C14.0016 33.2648 14.1068 33.5187 14.294 33.706C14.4813 33.8932 14.7352 33.9984 15 33.9984C15.2648 33.9984 15.5187 33.8932 15.706 33.706C15.8932 33.5187 15.9984 33.2648 15.9984 33C15.9984 32.8689 15.9726 32.7391 15.9224 32.6179C15.8722 32.4968 15.7987 32.3867 15.706 32.294C15.6133 32.2013 15.5032 32.1278 15.3821 32.0776C15.2609 32.0274 15.1311 31.9968 15 31.9968C14.8689 31.9968 14.7391 32.0274 14.6179 32.0776C14.4968 32.1278 14.3867 32.2013 14.294 32.294C14.2013 32.3867 14.1278 32.4968 14.0776 32.6179C14.0274 32.7391 14.0016 32.8689 14.0016 33ZM15.9984 33C15.9984 33.1311 16.029 33.2609 16.0792 33.3821C16.1294 33.5032 16.2029 33.6133 16.2956 33.706C16.3883 33.7987 16.4984 33.8722 16.6195 33.9224C16.7407 33.9726 16.8705 33.9984 17.0016 33.9984C17.1327 33.9984 17.2625 33.9726 17.3837 33.9224C17.5048 33.8722 17.6149 33.7987 17.7076 33.706C17.8003 33.6133 17.8738 33.5032 17.924 33.3821C17.9742 33.2609 18 33.1311 18 33C18 32.8689 17.9742 32.7391 17.924 32.6179C17.8738 32.4968 17.8003 32.3867 17.7076 32.294C17.6149 32.2013 17.5048 32.1278 17.3837 32.0776C17.2625 32.0274 17.1327 32.0016 17.0016 32.0016C16.8705 32.0016 16.7407 32.0274 16.6195 32.0776C16.4984 32.1278 16.3883 32.2013 16.2956 32.294C16.2029 32.3867 16.1294 32.4968 16.0792 32.6179C16.029 32.7391 15.9984 32.8689 15.9984 33ZM18 33C18 33.2648 18.1052 33.5187 18.2924 33.706C18.4797 33.8932 18.7336 33.9984 18.9984 33.9984C19.2632 33.9984 19.5171 33.8932 19.7044 33.706C19.8916 33.5187 19.9968 33.2648 19.9968 33C19.9968 32.7352 19.8916 32.4813 19.7044 32.294C19.5171 32.1068 19.2632 32.0016 18.9984 32.0016C18.7336 32.0016 18.4797 32.1068 18.2924 32.294C18.1052 32.4813 18 32.7352 18 33ZM28.0032 33C28.0032 33.2648 28.1084 33.5187 28.2956 33.706C28.4829 33.8932 28.7368 33.9984 29.0016 33.9984C29.2664 33.9984 29.5203 33.8932 29.7076 33.706C29.8948 33.5187 30 33.2648 30 33C30 32.7352 29.8948 32.4813 29.7076 32.294C29.5203 32.1068 29.2664 32.0016 29.0016 32.0016C28.7368 32.0016 28.4829 32.1068 28.2956 32.294C28.1084 32.4813 28.0032 32.7352 28.0032 33ZM30 33C30 33.2648 30.1052 33.5187 30.2924 33.706C30.4797 33.8932 30.7336 33.9984 30.9984 33.9984C31.2632 33.9984 31.5171 33.8932 31.7044 33.706C31.8916 33.5187 31.9968 33.2648 31.9968 33C31.9968 32.7352 31.8916 32.4813 31.7044 32.294C31.5171 32.1068 31.2632 32.0016 30.9984 32.0016C30.7336 32.0016 30.4797 32.1068 30.2924 32.294C30.1052 32.4813 30 32.7352 30 33ZM31.9968 33C31.9968 33.2648 32.1068 33.5187 32.294 33.706C32.4813 33.8932 32.7352 33.9984 33 33.9984C33.2648 33.9984 33.5187 33.8932 33.706 33.706C33.8932 33.5187 33.9984 33.2648 33.9984 33C33.9984 32.7352 33.8932 32.4813 33.706 32.294C33.5187 32.1068 33.2648 31.9968 33 31.9968C32.7352 31.9968 32.4813 32.1068 32.294 32.294C32.1068 32.4813 31.9968 32.7352 31.9968 33ZM14.0016 35.0016C14.0016 35.2664 14.1068 35.5203 14.294 35.7076C14.4813 35.8948 14.7352 36 15 36C15.2648 36 15.5187 35.8948 15.706 35.7076C15.8932 35.5203 15.9984 35.2664 15.9984 35.0016C15.9984 34.8705 15.9726 34.7407 15.9224 34.6195C15.8722 34.4984 15.7987 34.3883 15.706 34.2956C15.6133 34.2029 15.5032 34.1294 15.3821 34.0792C15.2609 34.029 15.1311 33.9984 15 33.9984C14.8689 33.9984 14.7391 34.029 14.6179 34.0792C14.4968 34.1294 14.3867 34.2029 14.294 34.2956C14.2013 34.3883 14.1278 34.4984 14.0776 34.6195C14.0274 34.7407 14.0016 34.8705 14.0016 35.0016ZM15.9984 35.0016C15.9984 35.1327 16.029 35.2625 16.0792 35.3837C16.1294 35.5048 16.2029 35.6149 16.2956 35.7076C16.3883 35.8003 16.4984 35.8738 16.6195 35.924C16.7407 35.9742 16.8705 36 17.0016 36C17.1327 36 17.2625 35.9742 17.3837 35.924C17.5048 35.8738 17.6149 35.8003 17.7076 35.7076C17.8003 35.6149 17.8738 35.5048 17.924 35.3837C17.9742 35.2625 18 35.1327 18 35.0016C18 34.8705 17.9742 34.7407 17.924 34.6195C17.8738 34.4984 17.8003 34.3883 17.7076 34.2956C17.6149 34.2029 17.5048 34.1294 17.3837 34.0792C17.2625 34.029 17.1327 33.9984 17.0016 33.9984C16.8705 33.9984 16.7407 34.029 16.6195 34.0792C16.4984 34.1294 16.3883 34.2029 16.2956 34.2956C16.2029 34.3883 16.1294 34.4984 16.0792 34.6195C16.029 34.7407 15.9984 34.8705 15.9984 35.0016ZM18 35.0016C18 35.2664 18.1052 35.5203 18.2924 35.7076C18.4797 35.8948 18.7336 36 18.9984 36C19.2632 36 19.5171 35.8948 19.7044 35.7076C19.8916 35.5203 19.9968 35.2664 19.9968 35.0016C19.9968 34.7368 19.8916 34.4829 19.7044 34.2956C19.5171 34.1084 19.2632 33.9984 18.9984 33.9984C18.7336 33.9984 18.4797 34.1084 18.2924 34.2956C18.1052 34.4829 18 34.7368 18 35.0016ZM19.9968 35.0016C19.9968 35.2664 20.1068 35.5203 20.294 35.7076C20.4813 35.8948 20.7352 36 21 36C21.2648 36 21.5187 35.8948 21.706 35.7076C21.8932 35.5203 21.9984 35.2664 21.9984 35.0016C21.9984 34.7368 21.8932 34.4829 21.706 34.2956C21.5187 34.1084 21.2648 34.0032 21 34.0032C20.7352 34.0032 20.4813 34.1084 20.294 34.2956C20.1068 34.4829 19.9968 34.7368 19.9968 35.0016ZM21.9984 35.0016C21.9984 35.2664 22.1084 35.5203 22.2956 35.7076C22.4829 35.8948 22.7368 36 23.0016 36C23.2664 36 23.5203 35.8948 23.7076 35.7076C23.8948 35.5203 24 35.2664 24 35.0016C24 34.7368 23.8948 34.4829 23.7076 34.2956C23.5203 34.1084 23.2664 34.0032 23.0016 34.0032C22.7368 34.0032 22.4829 34.1084 22.2956 34.2956C22.1084 34.4829 21.9984 34.7368 21.9984 35.0016ZM24 35.0016C24 35.2664 24.1052 35.5203 24.2924 35.7076C24.4797 35.8948 24.7336 36 24.9984 36C25.2632 36 25.5171 35.8948 25.7044 35.7076C25.8916 35.5203 25.9968 35.2664 25.9968 35.0016C25.9968 34.7368 25.8916 34.4829 25.7044 34.2956C25.5171 34.1084 25.2632 34.0032 24.9984 34.0032C24.7336 34.0032 24.4797 34.1084 24.2924 34.2956C24.1052 34.4829 24 34.7368 24 35.0016ZM25.9968 35.0016C25.9968 35.2664 26.1068 35.5203 26.294 35.7076C26.4813 35.8948 26.7352 36 27 36C27.2648 36 27.5187 35.8948 27.706 35.7076C27.8932 35.5203 27.9984 35.2664 27.9984 35.0016C27.9984 34.7368 27.8932 34.4829 27.706 34.2956C27.5187 34.1084 27.2648 34.0032 27 34.0032C26.7352 34.0032 26.4813 34.1084 26.294 34.2956C26.1068 34.4829 25.9968 34.7368 25.9968 35.0016ZM27.9984 35.0016C27.9984 35.2664 28.1084 35.5203 28.2956 35.7076C28.4829 35.8948 28.7368 36 29.0016 36C29.2664 36 29.5203 35.8948 29.7076 35.7076C29.8948 35.5203 30 35.2664 30 35.0016C30 34.7368 29.8948 34.4829 29.7076 34.2956C29.5203 34.1084 29.2664 33.9984 29.0016 33.9984C28.7368 33.9984 28.4829 34.1084 28.2956 34.2956C28.1084 34.4829 27.9984 34.7368 27.9984 35.0016ZM30 35.0016C30 35.2664 30.1052 35.5203 30.2924 35.7076C30.4797 35.8948 30.7336 36 30.9984 36C31.2632 36 31.5171 35.8948 31.7044 35.7076C31.8916 35.5203 31.9968 35.2664 31.9968 35.0016C31.9968 34.7368 31.8916 34.4829 31.7044 34.2956C31.5171 34.1084 31.2632 33.9984 30.9984 33.9984C30.7336 33.9984 30.4797 34.1084 30.2924 34.2956C30.1052 34.4829 30 34.7368 30 35.0016ZM31.9968 35.0016C31.9968 35.2664 32.1068 35.5203 32.294 35.7076C32.4813 35.8948 32.7352 36 33 36C33.2648 36 33.5187 35.8948 33.706 35.7076C33.8932 35.5203 33.9984 35.2664 33.9984 35.0016C33.9984 34.7368 33.8932 34.4829 33.706 34.2956C33.5187 34.1084 33.2648 33.9984 33 33.9984C32.7352 33.9984 32.4813 34.1084 32.294 34.2956C32.1068 34.4829 31.9968 34.7368 31.9968 35.0016ZM14.0016 36.9984C14.0016 37.2632 14.1068 37.5171 14.294 37.7044C14.4813 37.8916 14.7352 37.9968 15 37.9968C15.2648 37.9968 15.5187 37.8916 15.706 37.7044C15.8932 37.5171 15.9984 37.2632 15.9984 36.9984C15.9984 36.8673 15.9726 36.7375 15.9224 36.6163C15.8722 36.4952 15.7987 36.3851 15.706 36.2924C15.6133 36.1997 15.5032 36.1262 15.3821 36.076C15.2609 36.0258 15.1311 36 15 36C14.8689 36 14.7391 36.0258 14.6179 36.076C14.4968 36.1262 14.3867 36.1997 14.294 36.2924C14.2013 36.3851 14.1278 36.4952 14.0776 36.6163C14.0274 36.7375 14.0016 36.8673 14.0016 36.9984ZM15.9984 36.9984C15.9984 37.1295 16.029 37.2593 16.0792 37.3805C16.1294 37.5016 16.2029 37.6117 16.2956 37.7044C16.3883 37.7971 16.4984 37.8706 16.6195 37.9208C16.7407 37.971 16.8705 37.9968 17.0016 37.9968C17.1327 37.9968 17.2625 37.971 17.3837 37.9208C17.5048 37.8706 17.6149 37.7971 17.7076 37.7044C17.8003 37.6117 17.8738 37.5016 17.924 37.3805C17.9742 37.2593 18 37.1295 18 36.9984C18 36.8673 17.9742 36.7375 17.924 36.6163C17.8738 36.4952 17.8003 36.3851 17.7076 36.2924C17.6149 36.1997 17.5048 36.1262 17.3837 36.076C17.2625 36.0258 17.1327 36 17.0016 36C16.8705 36 16.7407 36.0258 16.6195 36.076C16.4984 36.1262 16.3883 36.1997 16.2956 36.2924C16.2029 36.3851 16.1294 36.4952 16.0792 36.6163C16.029 36.7375 15.9984 36.8673 15.9984 36.9984ZM18 36.9984C18 37.2632 18.1052 37.5171 18.2924 37.7044C18.4797 37.8916 18.7336 37.9968 18.9984 37.9968C19.2632 37.9968 19.5171 37.8916 19.7044 37.7044C19.8916 37.5171 19.9968 37.2632 19.9968 36.9984C19.9968 36.7336 19.8916 36.4797 19.7044 36.2924C19.5171 36.1052 19.2632 36 18.9984 36C18.7336 36 18.4797 36.1052 18.2924 36.2924C18.1052 36.4797 18 36.7336 18 36.9984ZM19.9968 36.9984C19.9968 37.2632 20.1068 37.5171 20.294 37.7044C20.4813 37.8916 20.7352 37.9968 21 37.9968C21.2648 37.9968 21.5187 37.8916 21.706 37.7044C21.8932 37.5171 21.9984 37.2632 21.9984 36.9984C21.9984 36.7336 21.8932 36.4797 21.706 36.2924C21.5187 36.1052 21.2648 36 21 36C20.7352 36 20.4813 36.1052 20.294 36.2924C20.1068 36.4797 19.9968 36.7336 19.9968 36.9984ZM21.9984 36.9984C21.9984 37.2632 22.1084 37.5171 22.2956 37.7044C22.4829 37.8916 22.7368 37.9968 23.0016 37.9968C23.2664 37.9968 23.5203 37.8916 23.7076 37.7044C23.8948 37.5171 24 37.2632 24 36.9984C24 36.7336 23.8948 36.4797 23.7076 36.2924C23.5203 36.1052 23.2664 36 23.0016 36C22.7368 36 22.4829 36.1052 22.2956 36.2924C22.1084 36.4797 21.9984 36.7336 21.9984 36.9984ZM24 36.9984C24 37.2632 24.1052 37.5171 24.2924 37.7044C24.4797 37.8916 24.7336 37.9968 24.9984 37.9968C25.2632 37.9968 25.5171 37.8916 25.7044 37.7044C25.8916 37.5171 25.9968 37.2632 25.9968 36.9984C25.9968 36.7336 25.8916 36.4797 25.7044 36.2924C25.5171 36.1052 25.2632 36 24.9984 36C24.7336 36 24.4797 36.1052 24.2924 36.2924C24.1052 36.4797 24 36.7336 24 36.9984ZM25.9968 36.9984C25.9968 37.2632 26.1068 37.5171 26.294 37.7044C26.4813 37.8916 26.7352 37.9968 27 37.9968C27.2648 37.9968 27.5187 37.8916 27.706 37.7044C27.8932 37.5171 27.9984 37.2632 27.9984 36.9984C27.9984 36.7336 27.8932 36.4797 27.706 36.2924C27.5187 36.1052 27.2648 36 27 36C26.7352 36 26.4813 36.1052 26.294 36.2924C26.1068 36.4797 25.9968 36.7336 25.9968 36.9984ZM27.9984 36.9984C27.9984 37.2632 28.1084 37.5171 28.2956 37.7044C28.4829 37.8916 28.7368 37.9968 29.0016 37.9968C29.2664 37.9968 29.5203 37.8916 29.7076 37.7044C29.8948 37.5171 30 37.2632 30 36.9984C30 36.7336 29.8948 36.4797 29.7076 36.2924C29.5203 36.1052 29.2664 36 29.0016 36C28.7368 36 28.4829 36.1052 28.2956 36.2924C28.1084 36.4797 27.9984 36.7336 27.9984 36.9984ZM30 36.9984C30 37.2632 30.1052 37.5171 30.2924 37.7044C30.4797 37.8916 30.7336 37.9968 30.9984 37.9968C31.2632 37.9968 31.5171 37.8916 31.7044 37.7044C31.8916 37.5171 31.9968 37.2632 31.9968 36.9984C31.9968 36.7336 31.8916 36.4797 31.7044 36.2924C31.5171 36.1052 31.2632 36 30.9984 36C30.7336 36 30.4797 36.1052 30.2924 36.2924C30.1052 36.4797 30 36.7336 30 36.9984ZM31.9968 36.9984C31.9968 37.2632 32.1068 37.5171 32.294 37.7044C32.4813 37.8916 32.7352 37.9968 33 37.9968C33.2648 37.9968 33.5187 37.8916 33.706 37.7044C33.8932 37.5171 33.9984 37.2632 33.9984 36.9984C33.9984 36.7336 33.8932 36.4797 33.706 36.2924C33.5187 36.1052 33.2648 36 33 36C32.7352 36 32.4813 36.1052 32.294 36.2924C32.1068 36.4797 31.9968 36.7336 31.9968 36.9984ZM16.0032 39C16.0032 39.1311 16.029 39.2609 16.0792 39.3821C16.1294 39.5032 16.2029 39.6133 16.2956 39.706C16.3883 39.7987 16.4984 39.8722 16.6195 39.9224C16.7407 39.9726 16.8705 39.9984 17.0016 39.9984C17.1327 39.9984 17.2625 39.9726 17.3837 39.9224C17.5048 39.8722 17.6149 39.7987 17.7076 39.706C17.8003 39.6133 17.8738 39.5032 17.924 39.3821C17.9742 39.2609 18 39.1311 18 39C18 38.8689 17.9742 38.7391 17.924 38.6179C17.8738 38.4968 17.8003 38.3867 17.7076 38.294C17.6149 38.2013 17.5048 38.1278 17.3837 38.0776C17.2625 38.0274 17.1327 37.9968 17.0016 37.9968C16.8705 37.9968 16.7407 38.0274 16.6195 38.0776C16.4984 38.1278 16.3883 38.2013 16.2956 38.294C16.2029 38.3867 16.1294 38.4968 16.0792 38.6179C16.029 38.7391 16.0032 38.8689 16.0032 39ZM18 39C18 39.2648 18.1052 39.5187 18.2924 39.706C18.4797 39.8932 18.7336 39.9984 18.9984 39.9984C19.2632 39.9984 19.5171 39.8932 19.7044 39.706C19.8916 39.5187 19.9968 39.2648 19.9968 39C19.9968 38.7352 19.8916 38.4813 19.7044 38.294C19.5171 38.1068 19.2632 37.9968 18.9984 37.9968C18.7336 37.9968 18.4797 38.1068 18.2924 38.294C18.1052 38.4813 18 38.7352 18 39ZM22.0032 39C22.0032 39.2648 22.1084 39.5187 22.2956 39.706C22.4829 39.8932 22.7368 39.9984 23.0016 39.9984C23.2664 39.9984 23.5203 39.8932 23.7076 39.706C23.8948 39.5187 24 39.2648 24 39C24 38.7352 23.8948 38.4813 23.7076 38.294C23.5203 38.1068 23.2664 37.9968 23.0016 37.9968C22.7368 37.9968 22.4829 38.1068 22.2956 38.294C22.1084 38.4813 22.0032 38.7352 22.0032 39ZM24 39C24 39.2648 24.1052 39.5187 24.2924 39.706C24.4797 39.8932 24.7336 39.9984 24.9984 39.9984C25.2632 39.9984 25.5171 39.8932 25.7044 39.706C25.8916 39.5187 25.9968 39.2648 25.9968 39C25.9968 38.7352 25.8916 38.4813 25.7044 38.294C25.5171 38.1068 25.2632 37.9968 24.9984 37.9968C24.7336 37.9968 24.4797 38.1068 24.2924 38.294C24.1052 38.4813 24 38.7352 24 39ZM25.9968 39C25.9968 39.2648 26.1068 39.5187 26.294 39.706C26.4813 39.8932 26.7352 39.9984 27 39.9984C27.2648 39.9984 27.5187 39.8932 27.706 39.706C27.8932 39.5187 27.9984 39.2648 27.9984 39C27.9984 38.7352 27.8932 38.4813 27.706 38.294C27.5187 38.1068 27.2648 37.9968 27 37.9968C26.7352 37.9968 26.4813 38.1068 26.294 38.294C26.1068 38.4813 25.9968 38.7352 25.9968 39ZM27.9984 39C27.9984 39.2648 28.1084 39.5187 28.2956 39.706C28.4829 39.8932 28.7368 39.9984 29.0016 39.9984C29.2664 39.9984 29.5203 39.8932 29.7076 39.706C29.8948 39.5187 30 39.2648 30 39C30 38.7352 29.8948 38.4813 29.7076 38.294C29.5203 38.1068 29.2664 37.9968 29.0016 37.9968C28.7368 37.9968 28.4829 38.1068 28.2956 38.294C28.1084 38.4813 27.9984 38.7352 27.9984 39ZM30 39C30 39.2648 30.1052 39.5187 30.2924 39.706C30.4797 39.8932 30.7336 39.9984 30.9984 39.9984C31.2632 39.9984 31.5171 39.8932 31.7044 39.706C31.8916 39.5187 31.9968 39.2648 31.9968 39C31.9968 38.7352 31.8916 38.4813 31.7044 38.294C31.5171 38.1068 31.2632 37.9968 30.9984 37.9968C30.7336 37.9968 30.4797 38.1068 30.2924 38.294C30.1052 38.4813 30 38.7352 30 39ZM22.0032 41.0016C22.0032 41.2664 22.1084 41.5203 22.2956 41.7076C22.4829 41.8948 22.7368 42 23.0016 42C23.2664 42 23.5203 41.8948 23.7076 41.7076C23.8948 41.5203 24 41.2664 24 41.0016C24 40.7368 23.8948 40.4829 23.7076 40.2956C23.5203 40.1084 23.2664 39.9984 23.0016 39.9984C22.7368 39.9984 22.4829 40.1084 22.2956 40.2956C22.1084 40.4829 22.0032 40.7368 22.0032 41.0016ZM24 41.0016C24 41.2664 24.1052 41.5203 24.2924 41.7076C24.4797 41.8948 24.7336 42 24.9984 42C25.2632 42 25.5171 41.8948 25.7044 41.7076C25.8916 41.5203 25.9968 41.2664 25.9968 41.0016C25.9968 40.7368 25.8916 40.4829 25.7044 40.2956C25.5171 40.1084 25.2632 39.9984 24.9984 39.9984C24.7336 39.9984 24.4797 40.1084 24.2924 40.2956C24.1052 40.4829 24 40.7368 24 41.0016ZM25.9968 41.0016C25.9968 41.2664 26.1068 41.5203 26.294 41.7076C26.4813 41.8948 26.7352 42 27 42C27.2648 42 27.5187 41.8948 27.706 41.7076C27.8932 41.5203 27.9984 41.2664 27.9984 41.0016C27.9984 40.7368 27.8932 40.4829 27.706 40.2956C27.5187 40.1084 27.2648 39.9984 27 39.9984C26.7352 39.9984 26.4813 40.1084 26.294 40.2956C26.1068 40.4829 25.9968 40.7368 25.9968 41.0016ZM22.0032 42.9984C22.0032 43.2632 22.1084 43.5171 22.2956 43.7044C22.4829 43.8916 22.7368 43.9968 23.0016 43.9968C23.2664 43.9968 23.5203 43.8916 23.7076 43.7044C23.8948 43.5171 24 43.2632 24 42.9984C24 42.7336 23.8948 42.4797 23.7076 42.2924C23.5203 42.1052 23.2664 42 23.0016 42C22.7368 42 22.4829 42.1052 22.2956 42.2924C22.1084 42.4797 22.0032 42.7336 22.0032 42.9984ZM24 42.9984C24 43.2632 24.1052 43.5171 24.2924 43.7044C24.4797 43.8916 24.7336 43.9968 24.9984 43.9968C25.2632 43.9968 25.5171 43.8916 25.7044 43.7044C25.8916 43.5171 25.9968 43.2632 25.9968 42.9984C25.9968 42.7336 25.8916 42.4797 25.7044 42.2924C25.5171 42.1052 25.2632 42 24.9984 42C24.7336 42 24.4797 42.1052 24.2924 42.2924C24.1052 42.4797 24 42.7336 24 42.9984ZM22.0032 45C22.0032 45.2648 22.1084 45.5187 22.2956 45.706C22.4829 45.8932 22.7368 45.9984 23.0016 45.9984C23.2664 45.9984 23.5203 45.8932 23.7076 45.706C23.8948 45.5187 24 45.2648 24 45C24 44.7352 23.8948 44.4813 23.7076 44.294C23.5203 44.1068 23.2664 43.9968 23.0016 43.9968C22.7368 43.9968 22.4829 44.1068 22.2956 44.294C22.1084 44.4813 22.0032 44.7352 22.0032 45ZM24 45C24 45.2648 24.1052 45.5187 24.2924 45.706C24.4797 45.8932 24.7336 45.9984 24.9984 45.9984C25.2632 45.9984 25.5171 45.8932 25.7044 45.706C25.8916 45.5187 25.9968 45.2648 25.9968 45C25.9968 44.7352 25.8916 44.4813 25.7044 44.294C25.5171 44.1068 25.2632 43.9968 24.9984 43.9968C24.7336 43.9968 24.4797 44.1068 24.2924 44.294C24.1052 44.4813 24 44.7352 24 45ZM24 47.0016C24 47.2664 24.1052 47.5203 24.2924 47.7076C24.4797 47.8948 24.7336 48 24.9984 48C25.2632 48 25.5171 47.8948 25.7044 47.7076C25.8916 47.5203 25.9968 47.2664 25.9968 47.0016C25.9968 46.7368 25.8916 46.4829 25.7044 46.2956C25.5171 46.1084 25.2632 45.9984 24.9984 45.9984C24.7336 45.9984 24.4797 46.1084 24.2924 46.2956C24.1052 46.4829 24 46.7368 24 47.0016Z" fill="#EDEDED"/>
    </g>
    <defs>
        <clipPath id="clip0_3019_9516">
            <rect width="48" height="48" fill="white"/>
        </clipPath>
    </defs>
</svg>
