<svg width="660" height="909" viewBox="0 0 660 909" fill="none" xmlns="http://www.w3.org/2000/svg">
<path d="M561.275 263.359C504.841 165.631 436.147 110.522 328.233 110.522C220.318 110.522 151.63 165.631 95.1955 263.359C51.8814 338.356 0 405.991 0 468.688C0 594.757 146.955 628.556 328.233 628.556C509.513 628.556 656.465 594.757 656.465 468.688C656.465 405.991 604.584 338.355 561.274 263.359H561.275Z" fill="#8F6ECD"/>
<path d="M135.857 245.593C174.331 230.866 221.831 261.32 241.95 313.616C262.072 365.913 247.195 420.25 208.721 434.978C170.251 449.706 122.75 419.249 102.631 366.952C82.5119 314.656 97.3881 260.322 135.858 245.593H135.857Z" fill="#EDEAF4"/>
<path d="M328.969 567.069C291.253 567.069 260.397 536.287 260.397 498.664V178.926C260.397 141.304 291.253 110.522 328.969 110.522C366.689 110.522 397.546 141.304 397.546 178.926V498.661C397.546 536.284 366.689 567.069 328.969 567.069Z" fill="#6F42C1"/>
<path d="M198.72 288.021C222.487 288.021 241.754 322.616 241.754 365.287C241.754 407.961 222.487 442.553 198.72 442.553C174.954 442.553 155.687 407.96 155.687 365.287C155.687 322.615 174.954 288.021 198.72 288.021Z" fill="#74447C"/>
<path d="M416.933 313.661C437.055 261.364 484.551 230.908 523.026 245.635C561.498 260.364 576.375 314.7 556.255 366.998C536.133 419.294 488.633 449.751 450.162 435.02C411.69 420.292 396.811 365.958 416.933 313.661Z" fill="#EDEAF4"/>
<path d="M463.124 288.021C486.892 288.021 506.158 322.616 506.158 365.287C506.158 407.961 486.892 442.553 463.124 442.553C439.359 442.553 420.091 407.96 420.091 365.287C420.091 322.615 439.359 288.021 463.124 288.021Z" fill="#74447C"/>
<path d="M317.561 262.721C315.003 264.879 308.17 261.016 302.299 254.093C296.429 247.171 293.744 239.81 296.301 237.649C298.862 235.491 305.695 239.355 311.563 246.277C317.437 253.199 320.118 260.56 317.561 262.721Z" fill="#74447C"/>
<path d="M344.044 262.721C346.605 264.879 353.435 261.016 359.306 254.093C365.177 247.171 367.858 239.81 365.302 237.649C362.743 235.491 355.911 239.355 350.04 246.277C344.172 253.199 341.484 260.56 344.044 262.721Z" fill="#74447C"/>
<path d="M329.012 481.312C322.447 481.312 317.127 476.004 317.127 469.454V278.843C317.127 272.293 322.448 266.985 329.012 266.985C335.581 266.985 340.902 272.293 340.902 278.843V469.454C340.902 476.004 335.581 481.312 329.012 481.312Z" fill="#74447C"/>
<path d="M581.703 86.652C594.993 103.766 589.099 145.01 561.848 166.062C534.599 187.117 490.206 188.31 476.919 171.196C463.626 154.081 497.44 136.91 524.691 115.858C551.939 94.8027 568.414 69.5344 581.703 86.6512V86.652Z" fill="#8F6ECD"/>
<path d="M73.9142 86.652C60.6275 103.766 66.5185 145.01 93.7704 166.062C121.019 187.117 165.414 188.31 178.702 171.196C191.994 154.081 158.181 136.91 130.93 115.858C103.681 94.8027 87.2041 69.5344 73.9142 86.6512V86.652Z" fill="#8F6ECD"/>
<path d="M149.916 215.99C153.126 213.102 162.122 202.335 176.365 201.478C187.716 200.794 206.403 207.415 214.931 215.298C217.237 217.433 218.611 203.281 218.611 203.281C218.611 203.281 197.738 188.294 174.487 190.397C158.138 191.876 151.876 199.368 145.302 212.946C144.7 214.189 148.893 216.916 149.917 215.99H149.916Z" fill="#74447C"/>
<path d="M503.932 215.99C500.724 213.102 491.726 202.335 477.485 201.478C466.132 200.794 447.446 207.415 438.922 215.298C436.61 217.433 435.24 203.281 435.24 203.281C435.24 203.281 456.11 188.294 479.361 190.397C495.713 191.876 501.972 199.368 508.546 212.946C509.149 214.189 504.958 216.916 503.931 215.99H503.932Z" fill="#74447C"/>
<path d="M107.872 445.512C139.788 445.512 165.661 461.222 165.661 480.601C165.661 499.979 139.788 515.69 107.872 515.69C75.9591 515.69 50.0863 499.98 50.0863 480.601C50.0863 461.223 75.9591 445.512 107.872 445.512Z" fill="#9747D7"/>
<path d="M551.673 445.512C583.588 445.512 609.462 461.222 609.462 480.601C609.462 499.979 583.588 515.69 551.673 515.69C519.757 515.69 493.884 499.98 493.884 480.601C493.884 461.223 519.757 445.512 551.673 445.512Z" fill="#9747D7"/>
<path d="M190.964 311.78C190.964 319.347 184.814 325.482 177.229 325.482C169.643 325.482 163.493 319.347 163.493 311.78C163.493 304.213 169.643 298.079 177.229 298.079C184.814 298.079 190.964 304.213 190.964 311.78Z" fill="#EDEAF4"/>
<path d="M447.397 298.079C454.982 298.079 461.132 304.213 461.132 311.78C461.132 319.347 454.982 325.482 447.397 325.482C439.811 325.482 433.661 319.347 433.661 311.78C433.661 304.213 439.811 298.079 447.397 298.079Z" fill="#EDEAF4"/>
<path d="M235.629 647.377L108.742 849.422C108.742 849.422 3.89709 861.834 25.0251 835.237C102.98 737.08 80.2556 660.406 153.797 614.562C180.881 597.671 235.63 647.377 235.63 647.377H235.629Z" fill="#8F6ECD"/>
<path d="M154.944 724.204C179.861 685.627 214.705 640.637 236.975 645.085C219.844 632.714 181.044 645.945 160.148 654.281C88.8191 682.744 96.4046 753.649 51.2253 835.688C84.2412 800.014 132.376 759.142 154.945 724.204H154.944Z" fill="#74447C"/>
<path d="M410.759 647.377L537.646 849.422C537.646 849.422 642.491 861.834 621.365 835.237C543.41 737.08 566.132 660.406 492.594 614.562C465.506 597.671 410.758 647.377 410.758 647.377H410.759Z" fill="#8F6ECD"/>
<path d="M491.283 721.81C465.838 682.417 430.253 636.47 407.515 641.012C425.01 628.379 464.634 641.89 485.97 650.403C558.814 679.469 551.064 751.88 597.202 835.657C563.486 799.23 514.334 757.489 491.283 721.81Z" fill="#74447C"/>
<path d="M34.8472 893.276C115.119 910.679 409.399 852.879 491.567 800.586C573.735 748.292 536.653 710.263 467.456 683.705C398.258 657.145 339.686 655.033 267.13 710.687C181.115 776.667 -96.8664 864.722 34.8457 893.276H34.8472Z" fill="#8F6ECD"/>
<path d="M629.318 886.434C598.56 914.698 471.861 896.026 409.869 885.599C356.528 865.04 350.286 844.003 373.196 811.482C396.11 778.957 421.851 765.808 471.909 790.651C531.249 820.107 679.786 840.059 629.318 886.434Z" fill="#8F6ECD"/>
<path d="M548.047 872.963H461.277H91.701C91.701 872.963 69.7719 897.15 120.616 905.274C154.564 910.698 464.422 909.656 509.482 905.277C579.184 898.505 548.047 872.963 548.047 872.963Z" fill="#046644"/>
<path d="M537.085 881.069H112.384C112.384 881.069 51.244 622.038 51.2482 520.634C112.38 476.27 537.082 473.1 578.909 520.635C585.346 641.052 537.085 881.069 537.085 881.069Z" fill="#05F8A4"/>
<path d="M261.105 649.037H240.25C235.781 649.037 232.034 650.474 229.419 653.183C226.943 655.744 225.639 659.24 225.639 663.296V682.232C225.639 686.252 226.893 689.888 229.167 692.468C231.682 695.342 235.343 696.847 239.719 696.847H250.389C251.984 696.826 253.542 696.366 254.894 695.518V704.273C254.895 705.228 254.517 706.145 253.844 706.823C253.171 707.501 252.256 707.885 251.301 707.891H230.892C230.255 707.891 229.645 708.143 229.195 708.593C228.745 709.043 228.492 709.654 228.492 710.29V718.553H251.294C253.216 718.555 255.12 718.178 256.896 717.442C258.673 716.707 260.286 715.629 261.645 714.269C263.003 712.909 264.08 711.294 264.814 709.517C265.547 707.74 265.923 705.836 265.919 703.914V653.837C265.919 653.205 265.794 652.58 265.551 651.997C265.309 651.414 264.954 650.885 264.507 650.439C264.06 649.993 263.53 649.64 262.946 649.399C262.362 649.159 261.737 649.036 261.105 649.037ZM254.872 659.678V683.228C254.778 683.961 254.451 684.645 253.937 685.178C253.424 685.711 252.753 686.063 252.023 686.184H239.895C238.213 686.184 236.661 685.75 236.661 682.592V663.3C236.661 660.695 237.664 659.682 240.254 659.682L254.872 659.678Z" fill="black"/>
<path d="M314.306 652.683C311.719 650.337 308.066 649.048 304.017 649.048H292.093C288.051 649.048 284.401 650.337 281.811 652.68C278.977 655.245 277.479 658.92 277.479 663.307V682.146C277.474 684.066 277.849 685.969 278.581 687.744C279.314 689.52 280.39 691.133 281.749 692.491C283.107 693.849 284.72 694.925 286.495 695.658C288.27 696.39 290.173 696.765 292.093 696.76H316.785V688.498C316.785 687.861 316.532 687.25 316.082 686.799C315.632 686.349 315.022 686.095 314.385 686.094H292.111C291.636 686.1 291.165 686.012 290.725 685.834C290.285 685.656 289.885 685.392 289.548 685.057C289.211 684.723 288.944 684.325 288.763 683.886C288.582 683.447 288.49 682.976 288.493 682.502V677.648C289.086 677.831 289.702 677.923 290.322 677.921H314.672C318.624 677.921 318.624 674.612 318.624 673.524V663.31C318.631 658.916 317.133 655.241 314.306 652.683ZM307.793 663.188V667.337H288.501V663.188C288.501 661.844 288.971 659.595 292.118 659.595H304.308C305.576 659.595 306.485 659.861 307.009 660.389C307.534 660.917 307.8 661.873 307.793 663.188Z" fill="black"/>
<path d="M335.542 649.068C333.586 649.068 331.711 649.845 330.329 651.228C328.946 652.61 328.17 654.485 328.17 656.44V696.763H336.792C337.428 696.763 338.039 696.511 338.489 696.06C338.939 695.61 339.192 695 339.192 694.364V659.613H354.64C355.595 659.611 356.513 659.988 357.191 660.661C357.869 661.335 358.253 662.249 358.257 663.205V694.356C358.257 694.993 358.51 695.603 358.96 696.053C359.41 696.503 360.021 696.756 360.657 696.756H369.279V663.643C369.277 660.24 368.094 656.944 365.932 654.316C363.77 651.688 360.763 649.892 357.424 649.234C356.823 649.121 356.213 649.066 355.602 649.068H335.542Z" fill="black"/>
<path d="M417.744 652.686C415.154 650.34 411.501 649.05 407.455 649.05H395.56C391.522 649.05 387.872 650.34 385.282 652.682C382.447 655.247 380.949 658.922 380.949 663.309V682.148C380.945 684.069 381.319 685.971 382.052 687.746C382.784 689.521 383.86 691.134 385.218 692.492C386.576 693.85 388.188 694.926 389.963 695.659C391.738 696.392 393.64 696.767 395.56 696.763H420.252V688.5C420.252 687.863 419.999 687.252 419.549 686.802C419.099 686.351 418.489 686.098 417.852 686.097H395.56C395.086 686.103 394.614 686.015 394.174 685.837C393.734 685.659 393.333 685.395 392.996 685.061C392.659 684.726 392.393 684.328 392.212 683.889C392.031 683.45 391.939 682.979 391.943 682.504V677.65C392.534 677.833 393.149 677.925 393.768 677.924H418.122C422.073 677.924 422.073 674.615 422.073 673.526V663.313C422.066 658.919 420.572 655.244 417.744 652.686ZM391.925 663.19C391.925 661.847 392.395 659.598 395.542 659.598H407.728C409 659.598 409.909 659.864 410.434 660.392C410.958 660.92 411.235 661.872 411.228 663.194V667.343H391.925V663.19Z" fill="black"/>
<path d="M467.811 661.974L467.832 661.946C469.107 660.439 469.809 658.531 469.815 656.557V651.56C469.811 651.222 469.739 650.888 469.604 650.578C469.469 650.268 469.274 649.987 469.03 649.753C468.786 649.519 468.498 649.336 468.183 649.215C467.867 649.093 467.531 649.035 467.193 649.045H436.519C436.181 649.035 435.845 649.093 435.529 649.215C435.214 649.336 434.926 649.519 434.682 649.753C434.438 649.987 434.243 650.268 434.108 650.578C433.973 650.888 433.901 651.222 433.897 651.56V659.417H456.253L433.595 685.229L433.573 685.254C432.301 686.762 431.6 688.67 431.594 690.643V694.333C431.594 694.969 431.847 695.58 432.297 696.03C432.747 696.48 433.357 696.733 433.994 696.733H468.044C468.359 696.733 468.671 696.67 468.962 696.55C469.254 696.429 469.518 696.253 469.741 696.03C469.964 695.807 470.141 695.542 470.261 695.251C470.382 694.96 470.444 694.648 470.444 694.333V686.249H446.417L467.811 661.974Z" fill="black"/>
<path d="M490.438 649.036H482.045V694.367C482.045 695.004 482.298 695.614 482.748 696.064C483.198 696.514 483.809 696.767 484.445 696.767H493.067V651.562C493.064 651.222 492.993 650.887 492.859 650.575C492.724 650.263 492.529 649.981 492.284 649.746C492.039 649.511 491.749 649.327 491.432 649.205C491.115 649.083 490.777 649.026 490.438 649.036Z" fill="black"/>
<path d="M490.668 630.391H482.045V639.534C482.045 640.17 482.298 640.781 482.748 641.231C483.198 641.681 483.809 641.934 484.445 641.934H493.067V632.791C493.067 632.154 492.814 631.544 492.364 631.094C491.914 630.644 491.304 630.391 490.668 630.391Z" fill="white"/>
<path d="M530.962 648.484H519.228C517.309 648.484 515.409 648.861 513.636 649.595C511.863 650.329 510.252 651.406 508.894 652.762C507.537 654.119 506.461 655.73 505.726 657.503C504.992 659.276 504.614 661.176 504.614 663.095V682.822C504.609 684.743 504.984 686.645 505.717 688.42C506.449 690.196 507.526 691.809 508.884 693.167C510.242 694.525 511.855 695.601 513.63 696.334C515.405 697.066 517.308 697.441 519.228 697.437H530.962C534.853 697.451 538.59 695.919 541.352 693.179C544.114 690.438 545.675 686.713 545.691 682.822V663.095C545.674 659.205 544.113 655.48 541.351 652.741C538.589 650.001 534.852 648.47 530.962 648.484ZM530.962 686.874H519.228C518.746 686.875 518.269 686.778 517.825 686.592C517.381 686.405 516.979 686.131 516.642 685.787C516.305 685.443 516.04 685.034 515.863 684.586C515.686 684.138 515.6 683.659 515.611 683.178V662.722C515.611 662.248 515.704 661.779 515.886 661.342C516.068 660.904 516.334 660.507 516.67 660.174C517.006 659.84 517.405 659.576 517.843 659.396C518.282 659.217 518.751 659.126 519.225 659.129H530.962C531.924 659.13 532.848 659.505 533.537 660.176C534.227 660.847 534.628 661.76 534.655 662.722V683.156C534.658 683.643 534.564 684.126 534.38 684.577C534.196 685.027 533.924 685.437 533.581 685.783C533.238 686.128 532.83 686.403 532.38 686.59C531.931 686.777 531.449 686.874 530.962 686.874Z" fill="black"/>
<path d="M129.671 703.121H149.663C150.932 703.116 152.147 702.61 153.044 701.713L168.352 686.405C168.575 686.182 168.752 685.917 168.873 685.626C168.993 685.335 169.055 685.023 169.055 684.707C169.055 684.392 168.993 684.08 168.873 683.789C168.752 683.497 168.575 683.233 168.352 683.01L161.594 676.241C161.371 676.018 161.107 675.842 160.816 675.721C160.524 675.6 160.212 675.538 159.897 675.538C159.582 675.538 159.269 675.6 158.978 675.721C158.687 675.842 158.422 676.018 158.199 676.241L147.102 687.339C146.656 687.786 146.126 688.14 145.543 688.381C144.96 688.622 144.334 688.745 143.703 688.744H135.62C134.99 688.744 134.365 688.62 133.783 688.379C133.2 688.138 132.671 687.784 132.225 687.339L112.768 667.878C111.872 666.975 111.369 665.755 111.37 664.483V664.088C111.371 662.815 111.876 661.594 112.775 660.693L140.689 632.782C141.582 631.883 142.796 631.376 144.063 631.37H175.929C176.559 631.37 177.183 631.494 177.766 631.735C178.348 631.976 178.878 632.329 179.324 632.775L198.591 652.045C198.926 652.382 199.354 652.611 199.82 652.704C200.287 652.797 200.77 652.75 201.209 652.568C201.648 652.386 202.023 652.077 202.287 651.682C202.55 651.286 202.691 650.822 202.69 650.346V637.772C202.689 636.499 202.182 635.277 201.281 634.377L185.28 618.405C184.379 617.505 183.158 617 181.885 617H138.117C136.844 617.001 135.623 617.506 134.722 618.405L98.4047 654.722C97.5052 655.624 97 656.846 97 658.121V670.45C96.9998 671.723 97.505 672.944 98.4047 673.845L126.276 701.716C127.177 702.616 128.398 703.121 129.671 703.121Z" fill="black"/>
<path d="M170.019 645.676H150.026C148.753 645.677 147.533 646.182 146.631 647.081L131.323 662.392C131.1 662.615 130.924 662.88 130.803 663.171C130.682 663.462 130.62 663.775 130.62 664.09C130.62 664.405 130.682 664.717 130.803 665.009C130.924 665.3 131.1 665.565 131.323 665.787L138.095 672.556C138.318 672.779 138.583 672.956 138.874 673.076C139.165 673.197 139.478 673.259 139.793 673.259C140.108 673.259 140.42 673.197 140.712 673.076C141.003 672.956 141.268 672.779 141.49 672.556L152.588 661.451C153.034 661.005 153.563 660.652 154.145 660.411C154.728 660.17 155.352 660.046 155.983 660.047H164.066C164.696 660.046 165.321 660.17 165.903 660.411C166.486 660.652 167.015 661.006 167.461 661.451L186.922 680.912C187.821 681.814 188.326 683.034 188.327 684.307V684.702C188.326 685.975 187.821 687.196 186.922 688.097L159.008 716.008C158.562 716.454 158.033 716.808 157.45 717.049C156.868 717.29 156.243 717.414 155.613 717.413H123.761C123.129 717.416 122.502 717.294 121.917 717.054C121.332 716.814 120.8 716.461 120.352 716.015L101.099 696.745C100.763 696.407 100.334 696.178 99.8667 696.085C99.3996 695.993 98.9154 696.041 98.4759 696.224C98.0363 696.408 97.6613 696.718 97.3985 697.115C97.1357 697.512 96.997 697.978 97.0001 698.455V711.029C97.0008 712.302 97.5074 713.523 98.4083 714.424L114.41 730.393C115.311 731.291 116.532 731.796 117.805 731.797H161.573C162.846 731.796 164.066 731.291 164.968 730.393L201.285 694.072C202.184 693.17 202.689 691.95 202.69 690.677V678.336C202.69 677.063 202.185 675.842 201.285 674.941L173.414 647.081C172.513 646.181 171.292 645.676 170.019 645.676Z" fill="black"/>
</svg>
