<svg width="16" height="1186" viewBox="0 0 16 1186" fill="none" xmlns="http://www.w3.org/2000/svg">
<path d="M11.44 10.875V2.667L9.568 3.291L9.216 2.299L11.872 0.891H13.024V10.875H11.44ZM9.008 33.691C9.60533 33.0937 10.144 32.5603 10.624 32.091C11.104 31.611 11.5253 31.179 11.888 30.795C12.2613 30.4003 12.5707 30.0377 12.816 29.707C13.0613 29.3657 13.2427 29.0297 13.36 28.699C13.488 28.3683 13.552 28.0163 13.552 27.643C13.552 27.3763 13.5147 27.147 13.44 26.955C13.376 26.763 13.28 26.6083 13.152 26.491C13.024 26.363 12.864 26.2723 12.672 26.219C12.4907 26.155 12.2827 26.123 12.048 26.123C11.8133 26.123 11.5893 26.155 11.376 26.219C11.1733 26.2723 10.976 26.363 10.784 26.491C10.6027 26.6083 10.432 26.763 10.272 26.955C10.1653 27.1043 10.1013 27.2163 10.08 27.291C10.0587 27.3657 10.0533 27.4457 10.064 27.531L9.984 27.643L9.856 27.563L8.768 26.715C8.992 26.299 9.26933 25.947 9.6 25.659C9.94133 25.371 10.32 25.1577 10.736 25.019C11.152 24.8697 11.5893 24.795 12.048 24.795C12.6347 24.795 13.152 24.9123 13.6 25.147C14.0587 25.3817 14.4213 25.7123 14.688 26.139C14.9547 26.5657 15.088 27.0723 15.088 27.659C15.088 28.075 15.0187 28.475 14.88 28.859C14.752 29.243 14.5653 29.6217 14.32 29.995C14.0747 30.3577 13.7867 30.7257 13.456 31.099C13.1253 31.4723 12.7573 31.8617 12.352 32.267C11.9467 32.6723 11.5147 33.1043 11.056 33.563H14.384C14.5653 33.563 14.6933 33.5523 14.768 33.531C14.8427 33.5097 14.912 33.4723 14.976 33.419H15.12V33.563V34.875H9.008V33.691ZM11.792 59.051C11.2267 59.051 10.6773 58.955 10.144 58.763C9.61067 58.571 9.17333 58.2777 8.832 57.883L9.696 56.699L9.792 56.571L9.904 56.667C9.91467 56.7417 9.936 56.8217 9.968 56.907C10 56.9923 10.0747 57.099 10.192 57.227C10.3947 57.387 10.6187 57.5203 10.864 57.627C11.1093 57.723 11.392 57.771 11.712 57.771C12.0853 57.771 12.3947 57.7017 12.64 57.563C12.8853 57.4137 13.072 57.211 13.2 56.955C13.328 56.6883 13.392 56.3897 13.392 56.059C13.392 55.707 13.3333 55.4137 13.216 55.179C13.0987 54.9337 12.9227 54.7417 12.688 54.603C12.464 54.4643 12.1867 54.3737 11.856 54.331C11.5253 54.2883 11.1467 54.2883 10.72 54.331V53.083C11.2 53.0937 11.6 53.0563 11.92 52.971C12.24 52.8857 12.4853 52.7683 12.656 52.619C12.8373 52.459 12.96 52.2777 13.024 52.075C13.0987 51.8723 13.136 51.659 13.136 51.435C13.136 51.2323 13.104 51.051 13.04 50.891C12.976 50.7203 12.8853 50.5763 12.768 50.459C12.6507 50.3417 12.5067 50.251 12.336 50.187C12.176 50.123 11.9947 50.091 11.792 50.091C11.5787 50.091 11.3653 50.1177 11.152 50.171C10.9387 50.2243 10.736 50.3097 10.544 50.427C10.352 50.5337 10.1707 50.6777 10 50.859L9.088 49.931C9.46133 49.515 9.888 49.2217 10.368 49.051C10.8587 48.8803 11.344 48.795 11.824 48.795C12.4 48.795 12.9013 48.9017 13.328 49.115C13.7547 49.3283 14.0853 49.627 14.32 50.011C14.5653 50.395 14.688 50.8323 14.688 51.323C14.688 51.6857 14.6187 52.0217 14.48 52.331C14.352 52.6297 14.1707 52.8857 13.936 53.099C13.7013 53.3123 13.4293 53.4723 13.12 53.579C13.4613 53.6857 13.7707 53.851 14.048 54.075C14.336 54.299 14.5653 54.5817 14.736 54.923C14.9067 55.2537 14.992 55.6483 14.992 56.107C14.992 56.651 14.864 57.147 14.608 57.595C14.352 58.043 13.984 58.4003 13.504 58.667C13.0347 58.923 12.464 59.051 11.792 59.051ZM12.736 82.875V80.491H8.672V79.419L13.072 72.891H14.288V79.211H15.584V80.507H14.288V82.875H12.736ZM10.32 79.211H12.752V75.467L10.32 79.211ZM12.016 107.051C11.3547 107.051 10.752 106.923 10.208 106.667C9.664 106.4 9.232 106.006 8.912 105.483L10.064 104.587L10.176 104.491L10.272 104.587C10.2613 104.672 10.272 104.752 10.304 104.827C10.3467 104.902 10.4213 105.008 10.528 105.147C10.72 105.35 10.9333 105.504 11.168 105.611C11.4133 105.707 11.7013 105.755 12.032 105.755C12.2773 105.755 12.5013 105.707 12.704 105.611C12.9173 105.504 13.104 105.36 13.264 105.179C13.424 104.998 13.5467 104.784 13.632 104.539C13.7173 104.283 13.76 104.006 13.76 103.707C13.76 103.387 13.7173 103.099 13.632 102.843C13.5467 102.576 13.424 102.352 13.264 102.171C13.104 101.99 12.912 101.851 12.688 101.755C12.4747 101.648 12.2347 101.595 11.968 101.595C11.744 101.595 11.5253 101.627 11.312 101.691C11.1093 101.744 10.9173 101.835 10.736 101.963C10.5653 102.091 10.4053 102.246 10.256 102.427L9.296 102.139L9.632 96.907H14.88V98.219H10.96L10.816 100.683C10.9653 100.598 11.12 100.528 11.28 100.475C11.4507 100.422 11.6213 100.384 11.792 100.363C11.9733 100.331 12.144 100.315 12.304 100.315C12.7413 100.315 13.1413 100.39 13.504 100.539C13.8667 100.688 14.1813 100.907 14.448 101.195C14.7147 101.472 14.9173 101.819 15.056 102.235C15.2053 102.64 15.28 103.11 15.28 103.643C15.28 104.347 15.136 104.955 14.848 105.467C14.5707 105.979 14.1867 106.374 13.696 106.651C13.2053 106.918 12.6453 107.051 12.016 107.051ZM12.16 131.051C11.4667 131.051 10.8747 130.859 10.384 130.475C9.904 130.08 9.536 129.526 9.28 128.811C9.03467 128.096 8.912 127.264 8.912 126.315C8.912 125.131 9.06667 124.128 9.376 123.307C9.68533 122.486 10.112 121.856 10.656 121.419C11.2107 120.982 11.8453 120.763 12.56 120.763C12.9973 120.763 13.424 120.838 13.84 120.987C14.2667 121.136 14.6453 121.382 14.976 121.723L14.096 122.731L13.984 122.843L13.888 122.747C13.8773 122.662 13.8453 122.592 13.792 122.539C13.7493 122.475 13.6533 122.39 13.504 122.283C13.4293 122.24 13.3493 122.208 13.264 122.187C13.1787 122.155 13.088 122.134 12.992 122.123C12.896 122.102 12.7947 122.091 12.688 122.091C12.528 122.091 12.3467 122.118 12.144 122.171C11.952 122.224 11.76 122.32 11.568 122.459C11.3867 122.587 11.2107 122.774 11.04 123.019C10.88 123.254 10.7467 123.563 10.64 123.947C10.5333 124.331 10.4693 124.795 10.448 125.339C10.5973 125.136 10.7733 124.966 10.976 124.827C11.1893 124.678 11.4133 124.566 11.648 124.491C11.8933 124.406 12.1387 124.363 12.384 124.363C12.7787 124.363 13.1413 124.432 13.472 124.571C13.8133 124.71 14.112 124.918 14.368 125.195C14.624 125.472 14.8213 125.814 14.96 126.219C15.1093 126.624 15.184 127.088 15.184 127.611C15.184 128.272 15.0507 128.864 14.784 129.387C14.5173 129.91 14.16 130.32 13.712 130.619C13.264 130.907 12.7467 131.051 12.16 131.051ZM12.208 129.755C12.4107 129.755 12.6027 129.707 12.784 129.611C12.9653 129.504 13.1253 129.36 13.264 129.179C13.4027 128.998 13.5093 128.779 13.584 128.523C13.6693 128.256 13.712 127.958 13.712 127.627C13.712 127.286 13.664 126.992 13.568 126.747C13.4827 126.491 13.3653 126.283 13.216 126.123C13.0773 125.952 12.9173 125.83 12.736 125.755C12.5547 125.67 12.368 125.627 12.176 125.627C12.0053 125.627 11.84 125.659 11.68 125.723C11.52 125.776 11.3707 125.856 11.232 125.963C11.0933 126.07 10.96 126.192 10.832 126.331C10.7147 126.47 10.6027 126.63 10.496 126.811C10.4747 127.195 10.496 127.568 10.56 127.931C10.6347 128.283 10.7467 128.598 10.896 128.875C11.0453 129.142 11.2267 129.355 11.44 129.515C11.664 129.675 11.92 129.755 12.208 129.755ZM10.16 154.875C10.4693 153.883 10.784 152.912 11.104 151.963C11.4347 151.014 11.7707 150.07 12.112 149.131C12.464 148.192 12.8267 147.248 13.2 146.299H9.12V144.907H15.04V145.771C14.7307 146.518 14.432 147.264 14.144 148.011C13.856 148.747 13.5733 149.494 13.296 150.251C13.0293 151.008 12.7733 151.771 12.528 152.539C12.2827 153.296 12.0427 154.075 11.808 154.875H10.16ZM12 179.051C11.3493 179.051 10.7787 178.934 10.288 178.699C9.808 178.454 9.43467 178.128 9.168 177.723C8.912 177.307 8.784 176.843 8.784 176.331C8.784 175.915 8.864 175.536 9.024 175.195C9.184 174.854 9.408 174.544 9.696 174.267C9.984 173.99 10.32 173.755 10.704 173.563C10.416 173.392 10.16 173.19 9.936 172.955C9.72267 172.72 9.552 172.459 9.424 172.171C9.30667 171.883 9.248 171.584 9.248 171.275C9.248 170.806 9.36 170.384 9.584 170.011C9.81867 169.627 10.144 169.323 10.56 169.099C10.9867 168.864 11.4933 168.747 12.08 168.747C12.7093 168.747 13.2267 168.859 13.632 169.083C14.048 169.296 14.3627 169.59 14.576 169.963C14.7893 170.326 14.896 170.731 14.896 171.179C14.896 171.435 14.864 171.68 14.8 171.915C14.736 172.15 14.64 172.374 14.512 172.587C14.384 172.79 14.2293 172.976 14.048 173.147C13.8773 173.318 13.68 173.467 13.456 173.595C13.7333 173.723 13.9787 173.883 14.192 174.075C14.416 174.267 14.6027 174.48 14.752 174.715C14.912 174.95 15.0293 175.2 15.104 175.467C15.1893 175.723 15.232 175.99 15.232 176.267C15.232 176.811 15.0987 177.291 14.832 177.707C14.5653 178.123 14.1867 178.454 13.696 178.699C13.216 178.934 12.6507 179.051 12 179.051ZM12.032 177.707C12.3947 177.707 12.6933 177.643 12.928 177.515C13.1733 177.376 13.3547 177.195 13.472 176.971C13.6 176.747 13.664 176.491 13.664 176.203C13.664 175.979 13.616 175.766 13.52 175.563C13.4347 175.36 13.3067 175.174 13.136 175.003C12.976 174.822 12.7733 174.662 12.528 174.523C12.2933 174.384 12.032 174.267 11.744 174.171C11.5413 174.278 11.3547 174.4 11.184 174.539C11.0133 174.667 10.864 174.816 10.736 174.987C10.6187 175.158 10.5227 175.339 10.448 175.531C10.384 175.723 10.352 175.931 10.352 176.155C10.352 176.443 10.416 176.704 10.544 176.939C10.6827 177.174 10.8747 177.36 11.12 177.499C11.376 177.638 11.68 177.707 12.032 177.707ZM12.304 173.083C12.4747 172.976 12.624 172.854 12.752 172.715C12.8907 172.576 13.008 172.432 13.104 172.283C13.2 172.134 13.2693 171.974 13.312 171.803C13.3653 171.632 13.392 171.462 13.392 171.291C13.392 171.067 13.3387 170.864 13.232 170.683C13.136 170.491 12.9867 170.336 12.784 170.219C12.5813 170.102 12.336 170.043 12.048 170.043C11.76 170.043 11.52 170.102 11.328 170.219C11.136 170.326 10.992 170.47 10.896 170.651C10.8 170.832 10.752 171.03 10.752 171.243C10.752 171.456 10.7893 171.654 10.864 171.835C10.9493 172.006 11.0613 172.166 11.2 172.315C11.3493 172.464 11.5147 172.603 11.696 172.731C11.888 172.859 12.0907 172.976 12.304 173.083ZM11.6 203.051C11.1093 203.051 10.64 202.982 10.192 202.843C9.75467 202.694 9.35467 202.464 8.992 202.155L9.824 200.987L9.936 200.859L10.048 200.955C10.0587 201.03 10.0853 201.104 10.128 201.179C10.1707 201.254 10.2613 201.344 10.4 201.451C10.56 201.558 10.7307 201.638 10.912 201.691C11.104 201.734 11.3067 201.755 11.52 201.755C11.872 201.755 12.1813 201.654 12.448 201.451C12.7147 201.248 12.9333 200.971 13.104 200.619C13.2853 200.267 13.4187 199.856 13.504 199.387C13.6 198.918 13.6533 198.422 13.664 197.899C13.664 196.982 13.6053 196.246 13.488 195.691C13.3707 195.126 13.184 194.715 12.928 194.459C12.672 194.203 12.352 194.075 11.968 194.075C11.7227 194.075 11.4987 194.123 11.296 194.219C11.104 194.315 10.9333 194.454 10.784 194.635C10.6453 194.816 10.5387 195.035 10.464 195.291C10.3893 195.547 10.352 195.84 10.352 196.171C10.352 196.459 10.3893 196.715 10.464 196.939C10.5493 197.163 10.6667 197.35 10.816 197.499C10.9653 197.648 11.136 197.766 11.328 197.851C11.5307 197.926 11.744 197.963 11.968 197.963C12.2667 197.963 12.5333 197.931 12.768 197.867C13.0133 197.792 13.232 197.675 13.424 197.515C13.6267 197.344 13.8027 197.12 13.952 196.843L14.112 198.251C13.9413 198.454 13.744 198.63 13.52 198.779C13.296 198.928 13.0453 199.046 12.768 199.131C12.4907 199.216 12.1867 199.259 11.856 199.259C11.4293 199.259 11.0347 199.184 10.672 199.035C10.3093 198.886 9.98933 198.678 9.712 198.411C9.44533 198.134 9.23733 197.803 9.088 197.419C8.93867 197.035 8.864 196.603 8.864 196.123C8.864 195.654 8.944 195.216 9.104 194.811C9.264 194.406 9.48267 194.054 9.76 193.755C10.048 193.446 10.3787 193.211 10.752 193.051C11.136 192.88 11.5467 192.795 11.984 192.795C12.656 192.795 13.2267 192.976 13.696 193.339C14.1653 193.691 14.5173 194.203 14.752 194.875C14.9973 195.536 15.12 196.336 15.12 197.275C15.12 198.544 14.9813 199.606 14.704 200.459C14.4267 201.312 14.0267 201.958 13.504 202.395C12.9813 202.822 12.3467 203.04 11.6 203.051ZM3.44 226.875V218.667L1.568 219.291L1.216 218.299L3.872 216.891H5.024V226.875H3.44ZM9.712 224.075L13.968 218.891L14.304 219.931L10.048 225.083L9.712 224.075ZM12 227.051C11.3173 227.051 10.7253 226.854 10.224 226.459C9.73333 226.064 9.35467 225.488 9.088 224.731C8.832 223.963 8.704 223.035 8.704 221.947C8.704 220.87 8.832 219.947 9.088 219.179C9.35467 218.411 9.73333 217.824 10.224 217.419C10.7253 217.003 11.3173 216.795 12 216.795C12.6827 216.795 13.2693 217.003 13.76 217.419C14.2613 217.824 14.64 218.411 14.896 219.179C15.1627 219.947 15.296 220.87 15.296 221.947C15.296 223.035 15.1627 223.963 14.896 224.731C14.64 225.488 14.2613 226.064 13.76 226.459C13.2693 226.854 12.6827 227.051 12 227.051ZM12 225.819C12.3947 225.819 12.72 225.67 12.976 225.371C13.2427 225.062 13.4453 224.619 13.584 224.043C13.7227 223.467 13.792 222.768 13.792 221.947C13.792 221.147 13.7227 220.459 13.584 219.883C13.4453 219.307 13.2427 218.864 12.976 218.555C12.72 218.235 12.3947 218.075 12 218.075C11.616 218.075 11.2907 218.235 11.024 218.555C10.7573 218.864 10.5547 219.307 10.416 219.883C10.2773 220.459 10.208 221.147 10.208 221.947C10.208 222.768 10.2773 223.467 10.416 224.043C10.5547 224.619 10.7573 225.062 11.024 225.371C11.2907 225.67 11.616 225.819 12 225.819ZM3.44 250.875V242.667L1.568 243.291L1.216 242.299L3.872 240.891H5.024V250.875H3.44ZM11.44 250.875V242.667L9.568 243.291L9.216 242.299L11.872 240.891H13.024V250.875H11.44ZM3.44 274.875V266.667L1.568 267.291L1.216 266.299L3.872 264.891H5.024V274.875H3.44ZM9.008 273.691C9.60533 273.094 10.144 272.56 10.624 272.091C11.104 271.611 11.5253 271.179 11.888 270.795C12.2613 270.4 12.5707 270.038 12.816 269.707C13.0613 269.366 13.2427 269.03 13.36 268.699C13.488 268.368 13.552 268.016 13.552 267.643C13.552 267.376 13.5147 267.147 13.44 266.955C13.376 266.763 13.28 266.608 13.152 266.491C13.024 266.363 12.864 266.272 12.672 266.219C12.4907 266.155 12.2827 266.123 12.048 266.123C11.8133 266.123 11.5893 266.155 11.376 266.219C11.1733 266.272 10.976 266.363 10.784 266.491C10.6027 266.608 10.432 266.763 10.272 266.955C10.1653 267.104 10.1013 267.216 10.08 267.291C10.0587 267.366 10.0533 267.446 10.064 267.531L9.984 267.643L9.856 267.563L8.768 266.715C8.992 266.299 9.26933 265.947 9.6 265.659C9.94133 265.371 10.32 265.158 10.736 265.019C11.152 264.87 11.5893 264.795 12.048 264.795C12.6347 264.795 13.152 264.912 13.6 265.147C14.0587 265.382 14.4213 265.712 14.688 266.139C14.9547 266.566 15.088 267.072 15.088 267.659C15.088 268.075 15.0187 268.475 14.88 268.859C14.752 269.243 14.5653 269.622 14.32 269.995C14.0747 270.358 13.7867 270.726 13.456 271.099C13.1253 271.472 12.7573 271.862 12.352 272.267C11.9467 272.672 11.5147 273.104 11.056 273.563H14.384C14.5653 273.563 14.6933 273.552 14.768 273.531C14.8427 273.51 14.912 273.472 14.976 273.419H15.12V273.563V274.875H9.008V273.691ZM3.44 298.875V290.667L1.568 291.291L1.216 290.299L3.872 288.891H5.024V298.875H3.44ZM11.792 299.051C11.2267 299.051 10.6773 298.955 10.144 298.763C9.61067 298.571 9.17333 298.278 8.832 297.883L9.696 296.699L9.792 296.571L9.904 296.667C9.91467 296.742 9.936 296.822 9.968 296.907C10 296.992 10.0747 297.099 10.192 297.227C10.3947 297.387 10.6187 297.52 10.864 297.627C11.1093 297.723 11.392 297.771 11.712 297.771C12.0853 297.771 12.3947 297.702 12.64 297.563C12.8853 297.414 13.072 297.211 13.2 296.955C13.328 296.688 13.392 296.39 13.392 296.059C13.392 295.707 13.3333 295.414 13.216 295.179C13.0987 294.934 12.9227 294.742 12.688 294.603C12.464 294.464 12.1867 294.374 11.856 294.331C11.5253 294.288 11.1467 294.288 10.72 294.331V293.083C11.2 293.094 11.6 293.056 11.92 292.971C12.24 292.886 12.4853 292.768 12.656 292.619C12.8373 292.459 12.96 292.278 13.024 292.075C13.0987 291.872 13.136 291.659 13.136 291.435C13.136 291.232 13.104 291.051 13.04 290.891C12.976 290.72 12.8853 290.576 12.768 290.459C12.6507 290.342 12.5067 290.251 12.336 290.187C12.176 290.123 11.9947 290.091 11.792 290.091C11.5787 290.091 11.3653 290.118 11.152 290.171C10.9387 290.224 10.736 290.31 10.544 290.427C10.352 290.534 10.1707 290.678 10 290.859L9.088 289.931C9.46133 289.515 9.888 289.222 10.368 289.051C10.8587 288.88 11.344 288.795 11.824 288.795C12.4 288.795 12.9013 288.902 13.328 289.115C13.7547 289.328 14.0853 289.627 14.32 290.011C14.5653 290.395 14.688 290.832 14.688 291.323C14.688 291.686 14.6187 292.022 14.48 292.331C14.352 292.63 14.1707 292.886 13.936 293.099C13.7013 293.312 13.4293 293.472 13.12 293.579C13.4613 293.686 13.7707 293.851 14.048 294.075C14.336 294.299 14.5653 294.582 14.736 294.923C14.9067 295.254 14.992 295.648 14.992 296.107C14.992 296.651 14.864 297.147 14.608 297.595C14.352 298.043 13.984 298.4 13.504 298.667C13.0347 298.923 12.464 299.051 11.792 299.051ZM3.44 322.875V314.667L1.568 315.291L1.216 314.299L3.872 312.891H5.024V322.875H3.44ZM12.736 322.875V320.491H8.672V319.419L13.072 312.891H14.288V319.211H15.584V320.507H14.288V322.875H12.736ZM10.32 319.211H12.752V315.467L10.32 319.211ZM3.44 346.875V338.667L1.568 339.291L1.216 338.299L3.872 336.891H5.024V346.875H3.44ZM12.016 347.051C11.3547 347.051 10.752 346.923 10.208 346.667C9.664 346.4 9.232 346.006 8.912 345.483L10.064 344.587L10.176 344.491L10.272 344.587C10.2613 344.672 10.272 344.752 10.304 344.827C10.3467 344.902 10.4213 345.008 10.528 345.147C10.72 345.35 10.9333 345.504 11.168 345.611C11.4133 345.707 11.7013 345.755 12.032 345.755C12.2773 345.755 12.5013 345.707 12.704 345.611C12.9173 345.504 13.104 345.36 13.264 345.179C13.424 344.998 13.5467 344.784 13.632 344.539C13.7173 344.283 13.76 344.006 13.76 343.707C13.76 343.387 13.7173 343.099 13.632 342.843C13.5467 342.576 13.424 342.352 13.264 342.171C13.104 341.99 12.912 341.851 12.688 341.755C12.4747 341.648 12.2347 341.595 11.968 341.595C11.744 341.595 11.5253 341.627 11.312 341.691C11.1093 341.744 10.9173 341.835 10.736 341.963C10.5653 342.091 10.4053 342.246 10.256 342.427L9.296 342.139L9.632 336.907H14.88V338.219H10.96L10.816 340.683C10.9653 340.598 11.12 340.528 11.28 340.475C11.4507 340.422 11.6213 340.384 11.792 340.363C11.9733 340.331 12.144 340.315 12.304 340.315C12.7413 340.315 13.1413 340.39 13.504 340.539C13.8667 340.688 14.1813 340.907 14.448 341.195C14.7147 341.472 14.9173 341.819 15.056 342.235C15.2053 342.64 15.28 343.11 15.28 343.643C15.28 344.347 15.136 344.955 14.848 345.467C14.5707 345.979 14.1867 346.374 13.696 346.651C13.2053 346.918 12.6453 347.051 12.016 347.051ZM3.44 370.875V362.667L1.568 363.291L1.216 362.299L3.872 360.891H5.024V370.875H3.44ZM12.16 371.051C11.4667 371.051 10.8747 370.859 10.384 370.475C9.904 370.08 9.536 369.526 9.28 368.811C9.03467 368.096 8.912 367.264 8.912 366.315C8.912 365.131 9.06667 364.128 9.376 363.307C9.68533 362.486 10.112 361.856 10.656 361.419C11.2107 360.982 11.8453 360.763 12.56 360.763C12.9973 360.763 13.424 360.838 13.84 360.987C14.2667 361.136 14.6453 361.382 14.976 361.723L14.096 362.731L13.984 362.843L13.888 362.747C13.8773 362.662 13.8453 362.592 13.792 362.539C13.7493 362.475 13.6533 362.39 13.504 362.283C13.4293 362.24 13.3493 362.208 13.264 362.187C13.1787 362.155 13.088 362.134 12.992 362.123C12.896 362.102 12.7947 362.091 12.688 362.091C12.528 362.091 12.3467 362.118 12.144 362.171C11.952 362.224 11.76 362.32 11.568 362.459C11.3867 362.587 11.2107 362.774 11.04 363.019C10.88 363.254 10.7467 363.563 10.64 363.947C10.5333 364.331 10.4693 364.795 10.448 365.339C10.5973 365.136 10.7733 364.966 10.976 364.827C11.1893 364.678 11.4133 364.566 11.648 364.491C11.8933 364.406 12.1387 364.363 12.384 364.363C12.7787 364.363 13.1413 364.432 13.472 364.571C13.8133 364.71 14.112 364.918 14.368 365.195C14.624 365.472 14.8213 365.814 14.96 366.219C15.1093 366.624 15.184 367.088 15.184 367.611C15.184 368.272 15.0507 368.864 14.784 369.387C14.5173 369.91 14.16 370.32 13.712 370.619C13.264 370.907 12.7467 371.051 12.16 371.051ZM12.208 369.755C12.4107 369.755 12.6027 369.707 12.784 369.611C12.9653 369.504 13.1253 369.36 13.264 369.179C13.4027 368.998 13.5093 368.779 13.584 368.523C13.6693 368.256 13.712 367.958 13.712 367.627C13.712 367.286 13.664 366.992 13.568 366.747C13.4827 366.491 13.3653 366.283 13.216 366.123C13.0773 365.952 12.9173 365.83 12.736 365.755C12.5547 365.67 12.368 365.627 12.176 365.627C12.0053 365.627 11.84 365.659 11.68 365.723C11.52 365.776 11.3707 365.856 11.232 365.963C11.0933 366.07 10.96 366.192 10.832 366.331C10.7147 366.47 10.6027 366.63 10.496 366.811C10.4747 367.195 10.496 367.568 10.56 367.931C10.6347 368.283 10.7467 368.598 10.896 368.875C11.0453 369.142 11.2267 369.355 11.44 369.515C11.664 369.675 11.92 369.755 12.208 369.755ZM3.44 394.875V386.667L1.568 387.291L1.216 386.299L3.872 384.891H5.024V394.875H3.44ZM10.16 394.875C10.4693 393.883 10.784 392.912 11.104 391.963C11.4347 391.014 11.7707 390.07 12.112 389.131C12.464 388.192 12.8267 387.248 13.2 386.299H9.12V384.907H15.04V385.771C14.7307 386.518 14.432 387.264 14.144 388.011C13.856 388.747 13.5733 389.494 13.296 390.251C13.0293 391.008 12.7733 391.771 12.528 392.539C12.2827 393.296 12.0427 394.075 11.808 394.875H10.16ZM3.44 418.875V410.667L1.568 411.291L1.216 410.299L3.872 408.891H5.024V418.875H3.44ZM12 419.051C11.3493 419.051 10.7787 418.934 10.288 418.699C9.808 418.454 9.43467 418.128 9.168 417.723C8.912 417.307 8.784 416.843 8.784 416.331C8.784 415.915 8.864 415.536 9.024 415.195C9.184 414.854 9.408 414.544 9.696 414.267C9.984 413.99 10.32 413.755 10.704 413.563C10.416 413.392 10.16 413.19 9.936 412.955C9.72267 412.72 9.552 412.459 9.424 412.171C9.30667 411.883 9.248 411.584 9.248 411.275C9.248 410.806 9.36 410.384 9.584 410.011C9.81867 409.627 10.144 409.323 10.56 409.099C10.9867 408.864 11.4933 408.747 12.08 408.747C12.7093 408.747 13.2267 408.859 13.632 409.083C14.048 409.296 14.3627 409.59 14.576 409.963C14.7893 410.326 14.896 410.731 14.896 411.179C14.896 411.435 14.864 411.68 14.8 411.915C14.736 412.15 14.64 412.374 14.512 412.587C14.384 412.79 14.2293 412.976 14.048 413.147C13.8773 413.318 13.68 413.467 13.456 413.595C13.7333 413.723 13.9787 413.883 14.192 414.075C14.416 414.267 14.6027 414.48 14.752 414.715C14.912 414.95 15.0293 415.2 15.104 415.467C15.1893 415.723 15.232 415.99 15.232 416.267C15.232 416.811 15.0987 417.291 14.832 417.707C14.5653 418.123 14.1867 418.454 13.696 418.699C13.216 418.934 12.6507 419.051 12 419.051ZM12.032 417.707C12.3947 417.707 12.6933 417.643 12.928 417.515C13.1733 417.376 13.3547 417.195 13.472 416.971C13.6 416.747 13.664 416.491 13.664 416.203C13.664 415.979 13.616 415.766 13.52 415.563C13.4347 415.36 13.3067 415.174 13.136 415.003C12.976 414.822 12.7733 414.662 12.528 414.523C12.2933 414.384 12.032 414.267 11.744 414.171C11.5413 414.278 11.3547 414.4 11.184 414.539C11.0133 414.667 10.864 414.816 10.736 414.987C10.6187 415.158 10.5227 415.339 10.448 415.531C10.384 415.723 10.352 415.931 10.352 416.155C10.352 416.443 10.416 416.704 10.544 416.939C10.6827 417.174 10.8747 417.36 11.12 417.499C11.376 417.638 11.68 417.707 12.032 417.707ZM12.304 413.083C12.4747 412.976 12.624 412.854 12.752 412.715C12.8907 412.576 13.008 412.432 13.104 412.283C13.2 412.134 13.2693 411.974 13.312 411.803C13.3653 411.632 13.392 411.462 13.392 411.291C13.392 411.067 13.3387 410.864 13.232 410.683C13.136 410.491 12.9867 410.336 12.784 410.219C12.5813 410.102 12.336 410.043 12.048 410.043C11.76 410.043 11.52 410.102 11.328 410.219C11.136 410.326 10.992 410.47 10.896 410.651C10.8 410.832 10.752 411.03 10.752 411.243C10.752 411.456 10.7893 411.654 10.864 411.835C10.9493 412.006 11.0613 412.166 11.2 412.315C11.3493 412.464 11.5147 412.603 11.696 412.731C11.888 412.859 12.0907 412.976 12.304 413.083ZM3.44 442.875V434.667L1.568 435.291L1.216 434.299L3.872 432.891H5.024V442.875H3.44ZM11.6 443.051C11.1093 443.051 10.64 442.982 10.192 442.843C9.75467 442.694 9.35467 442.464 8.992 442.155L9.824 440.987L9.936 440.859L10.048 440.955C10.0587 441.03 10.0853 441.104 10.128 441.179C10.1707 441.254 10.2613 441.344 10.4 441.451C10.56 441.558 10.7307 441.638 10.912 441.691C11.104 441.734 11.3067 441.755 11.52 441.755C11.872 441.755 12.1813 441.654 12.448 441.451C12.7147 441.248 12.9333 440.971 13.104 440.619C13.2853 440.267 13.4187 439.856 13.504 439.387C13.6 438.918 13.6533 438.422 13.664 437.899C13.664 436.982 13.6053 436.246 13.488 435.691C13.3707 435.126 13.184 434.715 12.928 434.459C12.672 434.203 12.352 434.075 11.968 434.075C11.7227 434.075 11.4987 434.123 11.296 434.219C11.104 434.315 10.9333 434.454 10.784 434.635C10.6453 434.816 10.5387 435.035 10.464 435.291C10.3893 435.547 10.352 435.84 10.352 436.171C10.352 436.459 10.3893 436.715 10.464 436.939C10.5493 437.163 10.6667 437.35 10.816 437.499C10.9653 437.648 11.136 437.766 11.328 437.851C11.5307 437.926 11.744 437.963 11.968 437.963C12.2667 437.963 12.5333 437.931 12.768 437.867C13.0133 437.792 13.232 437.675 13.424 437.515C13.6267 437.344 13.8027 437.12 13.952 436.843L14.112 438.251C13.9413 438.454 13.744 438.63 13.52 438.779C13.296 438.928 13.0453 439.046 12.768 439.131C12.4907 439.216 12.1867 439.259 11.856 439.259C11.4293 439.259 11.0347 439.184 10.672 439.035C10.3093 438.886 9.98933 438.678 9.712 438.411C9.44533 438.134 9.23733 437.803 9.088 437.419C8.93867 437.035 8.864 436.603 8.864 436.123C8.864 435.654 8.944 435.216 9.104 434.811C9.264 434.406 9.48267 434.054 9.76 433.755C10.048 433.446 10.3787 433.211 10.752 433.051C11.136 432.88 11.5467 432.795 11.984 432.795C12.656 432.795 13.2267 432.976 13.696 433.339C14.1653 433.691 14.5173 434.203 14.752 434.875C14.9973 435.536 15.12 436.336 15.12 437.275C15.12 438.544 14.9813 439.606 14.704 440.459C14.4267 441.312 14.0267 441.958 13.504 442.395C12.9813 442.822 12.3467 443.04 11.6 443.051ZM1.008 465.691C1.60533 465.094 2.144 464.56 2.624 464.091C3.104 463.611 3.52533 463.179 3.888 462.795C4.26133 462.4 4.57067 462.038 4.816 461.707C5.06133 461.366 5.24267 461.03 5.36 460.699C5.488 460.368 5.552 460.016 5.552 459.643C5.552 459.376 5.51467 459.147 5.44 458.955C5.376 458.763 5.28 458.608 5.152 458.491C5.024 458.363 4.864 458.272 4.672 458.219C4.49067 458.155 4.28267 458.123 4.048 458.123C3.81333 458.123 3.58933 458.155 3.376 458.219C3.17333 458.272 2.976 458.363 2.784 458.491C2.60267 458.608 2.432 458.763 2.272 458.955C2.16533 459.104 2.10133 459.216 2.08 459.291C2.05867 459.366 2.05333 459.446 2.064 459.531L1.984 459.643L1.856 459.563L0.768 458.715C0.992 458.299 1.26933 457.947 1.6 457.659C1.94133 457.371 2.32 457.158 2.736 457.019C3.152 456.87 3.58933 456.795 4.048 456.795C4.63467 456.795 5.152 456.912 5.6 457.147C6.05867 457.382 6.42133 457.712 6.688 458.139C6.95467 458.566 7.088 459.072 7.088 459.659C7.088 460.075 7.01867 460.475 6.88 460.859C6.752 461.243 6.56533 461.622 6.32 461.995C6.07467 462.358 5.78667 462.726 5.456 463.099C5.12533 463.472 4.75733 463.862 4.352 464.267C3.94667 464.672 3.51467 465.104 3.056 465.563H6.384C6.56533 465.563 6.69333 465.552 6.768 465.531C6.84267 465.51 6.912 465.472 6.976 465.419H7.12V465.563V466.875H1.008V465.691ZM9.712 464.075L13.968 458.891L14.304 459.931L10.048 465.083L9.712 464.075ZM12 467.051C11.3173 467.051 10.7253 466.854 10.224 466.459C9.73333 466.064 9.35467 465.488 9.088 464.731C8.832 463.963 8.704 463.035 8.704 461.947C8.704 460.87 8.832 459.947 9.088 459.179C9.35467 458.411 9.73333 457.824 10.224 457.419C10.7253 457.003 11.3173 456.795 12 456.795C12.6827 456.795 13.2693 457.003 13.76 457.419C14.2613 457.824 14.64 458.411 14.896 459.179C15.1627 459.947 15.296 460.87 15.296 461.947C15.296 463.035 15.1627 463.963 14.896 464.731C14.64 465.488 14.2613 466.064 13.76 466.459C13.2693 466.854 12.6827 467.051 12 467.051ZM12 465.819C12.3947 465.819 12.72 465.67 12.976 465.371C13.2427 465.062 13.4453 464.619 13.584 464.043C13.7227 463.467 13.792 462.768 13.792 461.947C13.792 461.147 13.7227 460.459 13.584 459.883C13.4453 459.307 13.2427 458.864 12.976 458.555C12.72 458.235 12.3947 458.075 12 458.075C11.616 458.075 11.2907 458.235 11.024 458.555C10.7573 458.864 10.5547 459.307 10.416 459.883C10.2773 460.459 10.208 461.147 10.208 461.947C10.208 462.768 10.2773 463.467 10.416 464.043C10.5547 464.619 10.7573 465.062 11.024 465.371C11.2907 465.67 11.616 465.819 12 465.819ZM1.008 489.691C1.60533 489.094 2.144 488.56 2.624 488.091C3.104 487.611 3.52533 487.179 3.888 486.795C4.26133 486.4 4.57067 486.038 4.816 485.707C5.06133 485.366 5.24267 485.03 5.36 484.699C5.488 484.368 5.552 484.016 5.552 483.643C5.552 483.376 5.51467 483.147 5.44 482.955C5.376 482.763 5.28 482.608 5.152 482.491C5.024 482.363 4.864 482.272 4.672 482.219C4.49067 482.155 4.28267 482.123 4.048 482.123C3.81333 482.123 3.58933 482.155 3.376 482.219C3.17333 482.272 2.976 482.363 2.784 482.491C2.60267 482.608 2.432 482.763 2.272 482.955C2.16533 483.104 2.10133 483.216 2.08 483.291C2.05867 483.366 2.05333 483.446 2.064 483.531L1.984 483.643L1.856 483.563L0.768 482.715C0.992 482.299 1.26933 481.947 1.6 481.659C1.94133 481.371 2.32 481.158 2.736 481.019C3.152 480.87 3.58933 480.795 4.048 480.795C4.63467 480.795 5.152 480.912 5.6 481.147C6.05867 481.382 6.42133 481.712 6.688 482.139C6.95467 482.566 7.088 483.072 7.088 483.659C7.088 484.075 7.01867 484.475 6.88 484.859C6.752 485.243 6.56533 485.622 6.32 485.995C6.07467 486.358 5.78667 486.726 5.456 487.099C5.12533 487.472 4.75733 487.862 4.352 488.267C3.94667 488.672 3.51467 489.104 3.056 489.563H6.384C6.56533 489.563 6.69333 489.552 6.768 489.531C6.84267 489.51 6.912 489.472 6.976 489.419H7.12V489.563V490.875H1.008V489.691ZM11.44 490.875V482.667L9.568 483.291L9.216 482.299L11.872 480.891H13.024V490.875H11.44ZM1.008 513.691C1.60533 513.094 2.144 512.56 2.624 512.091C3.104 511.611 3.52533 511.179 3.888 510.795C4.26133 510.4 4.57067 510.038 4.816 509.707C5.06133 509.366 5.24267 509.03 5.36 508.699C5.488 508.368 5.552 508.016 5.552 507.643C5.552 507.376 5.51467 507.147 5.44 506.955C5.376 506.763 5.28 506.608 5.152 506.491C5.024 506.363 4.864 506.272 4.672 506.219C4.49067 506.155 4.28267 506.123 4.048 506.123C3.81333 506.123 3.58933 506.155 3.376 506.219C3.17333 506.272 2.976 506.363 2.784 506.491C2.60267 506.608 2.432 506.763 2.272 506.955C2.16533 507.104 2.10133 507.216 2.08 507.291C2.05867 507.366 2.05333 507.446 2.064 507.531L1.984 507.643L1.856 507.563L0.768 506.715C0.992 506.299 1.26933 505.947 1.6 505.659C1.94133 505.371 2.32 505.158 2.736 505.019C3.152 504.87 3.58933 504.795 4.048 504.795C4.63467 504.795 5.152 504.912 5.6 505.147C6.05867 505.382 6.42133 505.712 6.688 506.139C6.95467 506.566 7.088 507.072 7.088 507.659C7.088 508.075 7.01867 508.475 6.88 508.859C6.752 509.243 6.56533 509.622 6.32 509.995C6.07467 510.358 5.78667 510.726 5.456 511.099C5.12533 511.472 4.75733 511.862 4.352 512.267C3.94667 512.672 3.51467 513.104 3.056 513.563H6.384C6.56533 513.563 6.69333 513.552 6.768 513.531C6.84267 513.51 6.912 513.472 6.976 513.419H7.12V513.563V514.875H1.008V513.691ZM9.008 513.691C9.60533 513.094 10.144 512.56 10.624 512.091C11.104 511.611 11.5253 511.179 11.888 510.795C12.2613 510.4 12.5707 510.038 12.816 509.707C13.0613 509.366 13.2427 509.03 13.36 508.699C13.488 508.368 13.552 508.016 13.552 507.643C13.552 507.376 13.5147 507.147 13.44 506.955C13.376 506.763 13.28 506.608 13.152 506.491C13.024 506.363 12.864 506.272 12.672 506.219C12.4907 506.155 12.2827 506.123 12.048 506.123C11.8133 506.123 11.5893 506.155 11.376 506.219C11.1733 506.272 10.976 506.363 10.784 506.491C10.6027 506.608 10.432 506.763 10.272 506.955C10.1653 507.104 10.1013 507.216 10.08 507.291C10.0587 507.366 10.0533 507.446 10.064 507.531L9.984 507.643L9.856 507.563L8.768 506.715C8.992 506.299 9.26933 505.947 9.6 505.659C9.94133 505.371 10.32 505.158 10.736 505.019C11.152 504.87 11.5893 504.795 12.048 504.795C12.6347 504.795 13.152 504.912 13.6 505.147C14.0587 505.382 14.4213 505.712 14.688 506.139C14.9547 506.566 15.088 507.072 15.088 507.659C15.088 508.075 15.0187 508.475 14.88 508.859C14.752 509.243 14.5653 509.622 14.32 509.995C14.0747 510.358 13.7867 510.726 13.456 511.099C13.1253 511.472 12.7573 511.862 12.352 512.267C11.9467 512.672 11.5147 513.104 11.056 513.563H14.384C14.5653 513.563 14.6933 513.552 14.768 513.531C14.8427 513.51 14.912 513.472 14.976 513.419H15.12V513.563V514.875H9.008V513.691ZM1.008 537.691C1.60533 537.094 2.144 536.56 2.624 536.091C3.104 535.611 3.52533 535.179 3.888 534.795C4.26133 534.4 4.57067 534.038 4.816 533.707C5.06133 533.366 5.24267 533.03 5.36 532.699C5.488 532.368 5.552 532.016 5.552 531.643C5.552 531.376 5.51467 531.147 5.44 530.955C5.376 530.763 5.28 530.608 5.152 530.491C5.024 530.363 4.864 530.272 4.672 530.219C4.49067 530.155 4.28267 530.123 4.048 530.123C3.81333 530.123 3.58933 530.155 3.376 530.219C3.17333 530.272 2.976 530.363 2.784 530.491C2.60267 530.608 2.432 530.763 2.272 530.955C2.16533 531.104 2.10133 531.216 2.08 531.291C2.05867 531.366 2.05333 531.446 2.064 531.531L1.984 531.643L1.856 531.563L0.768 530.715C0.992 530.299 1.26933 529.947 1.6 529.659C1.94133 529.371 2.32 529.158 2.736 529.019C3.152 528.87 3.58933 528.795 4.048 528.795C4.63467 528.795 5.152 528.912 5.6 529.147C6.05867 529.382 6.42133 529.712 6.688 530.139C6.95467 530.566 7.088 531.072 7.088 531.659C7.088 532.075 7.01867 532.475 6.88 532.859C6.752 533.243 6.56533 533.622 6.32 533.995C6.07467 534.358 5.78667 534.726 5.456 535.099C5.12533 535.472 4.75733 535.862 4.352 536.267C3.94667 536.672 3.51467 537.104 3.056 537.563H6.384C6.56533 537.563 6.69333 537.552 6.768 537.531C6.84267 537.51 6.912 537.472 6.976 537.419H7.12V537.563V538.875H1.008V537.691ZM11.792 539.051C11.2267 539.051 10.6773 538.955 10.144 538.763C9.61067 538.571 9.17333 538.278 8.832 537.883L9.696 536.699L9.792 536.571L9.904 536.667C9.91467 536.742 9.936 536.822 9.968 536.907C10 536.992 10.0747 537.099 10.192 537.227C10.3947 537.387 10.6187 537.52 10.864 537.627C11.1093 537.723 11.392 537.771 11.712 537.771C12.0853 537.771 12.3947 537.702 12.64 537.563C12.8853 537.414 13.072 537.211 13.2 536.955C13.328 536.688 13.392 536.39 13.392 536.059C13.392 535.707 13.3333 535.414 13.216 535.179C13.0987 534.934 12.9227 534.742 12.688 534.603C12.464 534.464 12.1867 534.374 11.856 534.331C11.5253 534.288 11.1467 534.288 10.72 534.331V533.083C11.2 533.094 11.6 533.056 11.92 532.971C12.24 532.886 12.4853 532.768 12.656 532.619C12.8373 532.459 12.96 532.278 13.024 532.075C13.0987 531.872 13.136 531.659 13.136 531.435C13.136 531.232 13.104 531.051 13.04 530.891C12.976 530.72 12.8853 530.576 12.768 530.459C12.6507 530.342 12.5067 530.251 12.336 530.187C12.176 530.123 11.9947 530.091 11.792 530.091C11.5787 530.091 11.3653 530.118 11.152 530.171C10.9387 530.224 10.736 530.31 10.544 530.427C10.352 530.534 10.1707 530.678 10 530.859L9.088 529.931C9.46133 529.515 9.888 529.222 10.368 529.051C10.8587 528.88 11.344 528.795 11.824 528.795C12.4 528.795 12.9013 528.902 13.328 529.115C13.7547 529.328 14.0853 529.627 14.32 530.011C14.5653 530.395 14.688 530.832 14.688 531.323C14.688 531.686 14.6187 532.022 14.48 532.331C14.352 532.63 14.1707 532.886 13.936 533.099C13.7013 533.312 13.4293 533.472 13.12 533.579C13.4613 533.686 13.7707 533.851 14.048 534.075C14.336 534.299 14.5653 534.582 14.736 534.923C14.9067 535.254 14.992 535.648 14.992 536.107C14.992 536.651 14.864 537.147 14.608 537.595C14.352 538.043 13.984 538.4 13.504 538.667C13.0347 538.923 12.464 539.051 11.792 539.051ZM1.008 561.691C1.60533 561.094 2.144 560.56 2.624 560.091C3.104 559.611 3.52533 559.179 3.888 558.795C4.26133 558.4 4.57067 558.038 4.816 557.707C5.06133 557.366 5.24267 557.03 5.36 556.699C5.488 556.368 5.552 556.016 5.552 555.643C5.552 555.376 5.51467 555.147 5.44 554.955C5.376 554.763 5.28 554.608 5.152 554.491C5.024 554.363 4.864 554.272 4.672 554.219C4.49067 554.155 4.28267 554.123 4.048 554.123C3.81333 554.123 3.58933 554.155 3.376 554.219C3.17333 554.272 2.976 554.363 2.784 554.491C2.60267 554.608 2.432 554.763 2.272 554.955C2.16533 555.104 2.10133 555.216 2.08 555.291C2.05867 555.366 2.05333 555.446 2.064 555.531L1.984 555.643L1.856 555.563L0.768 554.715C0.992 554.299 1.26933 553.947 1.6 553.659C1.94133 553.371 2.32 553.158 2.736 553.019C3.152 552.87 3.58933 552.795 4.048 552.795C4.63467 552.795 5.152 552.912 5.6 553.147C6.05867 553.382 6.42133 553.712 6.688 554.139C6.95467 554.566 7.088 555.072 7.088 555.659C7.088 556.075 7.01867 556.475 6.88 556.859C6.752 557.243 6.56533 557.622 6.32 557.995C6.07467 558.358 5.78667 558.726 5.456 559.099C5.12533 559.472 4.75733 559.862 4.352 560.267C3.94667 560.672 3.51467 561.104 3.056 561.563H6.384C6.56533 561.563 6.69333 561.552 6.768 561.531C6.84267 561.51 6.912 561.472 6.976 561.419H7.12V561.563V562.875H1.008V561.691ZM12.736 562.875V560.491H8.672V559.419L13.072 552.891H14.288V559.211H15.584V560.507H14.288V562.875H12.736ZM10.32 559.211H12.752V555.467L10.32 559.211ZM1.008 585.691C1.60533 585.094 2.144 584.56 2.624 584.091C3.104 583.611 3.52533 583.179 3.888 582.795C4.26133 582.4 4.57067 582.038 4.816 581.707C5.06133 581.366 5.24267 581.03 5.36 580.699C5.488 580.368 5.552 580.016 5.552 579.643C5.552 579.376 5.51467 579.147 5.44 578.955C5.376 578.763 5.28 578.608 5.152 578.491C5.024 578.363 4.864 578.272 4.672 578.219C4.49067 578.155 4.28267 578.123 4.048 578.123C3.81333 578.123 3.58933 578.155 3.376 578.219C3.17333 578.272 2.976 578.363 2.784 578.491C2.60267 578.608 2.432 578.763 2.272 578.955C2.16533 579.104 2.10133 579.216 2.08 579.291C2.05867 579.366 2.05333 579.446 2.064 579.531L1.984 579.643L1.856 579.563L0.768 578.715C0.992 578.299 1.26933 577.947 1.6 577.659C1.94133 577.371 2.32 577.158 2.736 577.019C3.152 576.87 3.58933 576.795 4.048 576.795C4.63467 576.795 5.152 576.912 5.6 577.147C6.05867 577.382 6.42133 577.712 6.688 578.139C6.95467 578.566 7.088 579.072 7.088 579.659C7.088 580.075 7.01867 580.475 6.88 580.859C6.752 581.243 6.56533 581.622 6.32 581.995C6.07467 582.358 5.78667 582.726 5.456 583.099C5.12533 583.472 4.75733 583.862 4.352 584.267C3.94667 584.672 3.51467 585.104 3.056 585.563H6.384C6.56533 585.563 6.69333 585.552 6.768 585.531C6.84267 585.51 6.912 585.472 6.976 585.419H7.12V585.563V586.875H1.008V585.691ZM12.016 587.051C11.3547 587.051 10.752 586.923 10.208 586.667C9.664 586.4 9.232 586.006 8.912 585.483L10.064 584.587L10.176 584.491L10.272 584.587C10.2613 584.672 10.272 584.752 10.304 584.827C10.3467 584.902 10.4213 585.008 10.528 585.147C10.72 585.35 10.9333 585.504 11.168 585.611C11.4133 585.707 11.7013 585.755 12.032 585.755C12.2773 585.755 12.5013 585.707 12.704 585.611C12.9173 585.504 13.104 585.36 13.264 585.179C13.424 584.998 13.5467 584.784 13.632 584.539C13.7173 584.283 13.76 584.006 13.76 583.707C13.76 583.387 13.7173 583.099 13.632 582.843C13.5467 582.576 13.424 582.352 13.264 582.171C13.104 581.99 12.912 581.851 12.688 581.755C12.4747 581.648 12.2347 581.595 11.968 581.595C11.744 581.595 11.5253 581.627 11.312 581.691C11.1093 581.744 10.9173 581.835 10.736 581.963C10.5653 582.091 10.4053 582.246 10.256 582.427L9.296 582.139L9.632 576.907H14.88V578.219H10.96L10.816 580.683C10.9653 580.598 11.12 580.528 11.28 580.475C11.4507 580.422 11.6213 580.384 11.792 580.363C11.9733 580.331 12.144 580.315 12.304 580.315C12.7413 580.315 13.1413 580.39 13.504 580.539C13.8667 580.688 14.1813 580.907 14.448 581.195C14.7147 581.472 14.9173 581.819 15.056 582.235C15.2053 582.64 15.28 583.11 15.28 583.643C15.28 584.347 15.136 584.955 14.848 585.467C14.5707 585.979 14.1867 586.374 13.696 586.651C13.2053 586.918 12.6453 587.051 12.016 587.051ZM1.008 609.691C1.60533 609.094 2.144 608.56 2.624 608.091C3.104 607.611 3.52533 607.179 3.888 606.795C4.26133 606.4 4.57067 606.038 4.816 605.707C5.06133 605.366 5.24267 605.03 5.36 604.699C5.488 604.368 5.552 604.016 5.552 603.643C5.552 603.376 5.51467 603.147 5.44 602.955C5.376 602.763 5.28 602.608 5.152 602.491C5.024 602.363 4.864 602.272 4.672 602.219C4.49067 602.155 4.28267 602.123 4.048 602.123C3.81333 602.123 3.58933 602.155 3.376 602.219C3.17333 602.272 2.976 602.363 2.784 602.491C2.60267 602.608 2.432 602.763 2.272 602.955C2.16533 603.104 2.10133 603.216 2.08 603.291C2.05867 603.366 2.05333 603.446 2.064 603.531L1.984 603.643L1.856 603.563L0.768 602.715C0.992 602.299 1.26933 601.947 1.6 601.659C1.94133 601.371 2.32 601.158 2.736 601.019C3.152 600.87 3.58933 600.795 4.048 600.795C4.63467 600.795 5.152 600.912 5.6 601.147C6.05867 601.382 6.42133 601.712 6.688 602.139C6.95467 602.566 7.088 603.072 7.088 603.659C7.088 604.075 7.01867 604.475 6.88 604.859C6.752 605.243 6.56533 605.622 6.32 605.995C6.07467 606.358 5.78667 606.726 5.456 607.099C5.12533 607.472 4.75733 607.862 4.352 608.267C3.94667 608.672 3.51467 609.104 3.056 609.563H6.384C6.56533 609.563 6.69333 609.552 6.768 609.531C6.84267 609.51 6.912 609.472 6.976 609.419H7.12V609.563V610.875H1.008V609.691ZM12.16 611.051C11.4667 611.051 10.8747 610.859 10.384 610.475C9.904 610.08 9.536 609.526 9.28 608.811C9.03467 608.096 8.912 607.264 8.912 606.315C8.912 605.131 9.06667 604.128 9.376 603.307C9.68533 602.486 10.112 601.856 10.656 601.419C11.2107 600.982 11.8453 600.763 12.56 600.763C12.9973 600.763 13.424 600.838 13.84 600.987C14.2667 601.136 14.6453 601.382 14.976 601.723L14.096 602.731L13.984 602.843L13.888 602.747C13.8773 602.662 13.8453 602.592 13.792 602.539C13.7493 602.475 13.6533 602.39 13.504 602.283C13.4293 602.24 13.3493 602.208 13.264 602.187C13.1787 602.155 13.088 602.134 12.992 602.123C12.896 602.102 12.7947 602.091 12.688 602.091C12.528 602.091 12.3467 602.118 12.144 602.171C11.952 602.224 11.76 602.32 11.568 602.459C11.3867 602.587 11.2107 602.774 11.04 603.019C10.88 603.254 10.7467 603.563 10.64 603.947C10.5333 604.331 10.4693 604.795 10.448 605.339C10.5973 605.136 10.7733 604.966 10.976 604.827C11.1893 604.678 11.4133 604.566 11.648 604.491C11.8933 604.406 12.1387 604.363 12.384 604.363C12.7787 604.363 13.1413 604.432 13.472 604.571C13.8133 604.71 14.112 604.918 14.368 605.195C14.624 605.472 14.8213 605.814 14.96 606.219C15.1093 606.624 15.184 607.088 15.184 607.611C15.184 608.272 15.0507 608.864 14.784 609.387C14.5173 609.91 14.16 610.32 13.712 610.619C13.264 610.907 12.7467 611.051 12.16 611.051ZM12.208 609.755C12.4107 609.755 12.6027 609.707 12.784 609.611C12.9653 609.504 13.1253 609.36 13.264 609.179C13.4027 608.998 13.5093 608.779 13.584 608.523C13.6693 608.256 13.712 607.958 13.712 607.627C13.712 607.286 13.664 606.992 13.568 606.747C13.4827 606.491 13.3653 606.283 13.216 606.123C13.0773 605.952 12.9173 605.83 12.736 605.755C12.5547 605.67 12.368 605.627 12.176 605.627C12.0053 605.627 11.84 605.659 11.68 605.723C11.52 605.776 11.3707 605.856 11.232 605.963C11.0933 606.07 10.96 606.192 10.832 606.331C10.7147 606.47 10.6027 606.63 10.496 606.811C10.4747 607.195 10.496 607.568 10.56 607.931C10.6347 608.283 10.7467 608.598 10.896 608.875C11.0453 609.142 11.2267 609.355 11.44 609.515C11.664 609.675 11.92 609.755 12.208 609.755ZM1.008 633.691C1.60533 633.094 2.144 632.56 2.624 632.091C3.104 631.611 3.52533 631.179 3.888 630.795C4.26133 630.4 4.57067 630.038 4.816 629.707C5.06133 629.366 5.24267 629.03 5.36 628.699C5.488 628.368 5.552 628.016 5.552 627.643C5.552 627.376 5.51467 627.147 5.44 626.955C5.376 626.763 5.28 626.608 5.152 626.491C5.024 626.363 4.864 626.272 4.672 626.219C4.49067 626.155 4.28267 626.123 4.048 626.123C3.81333 626.123 3.58933 626.155 3.376 626.219C3.17333 626.272 2.976 626.363 2.784 626.491C2.60267 626.608 2.432 626.763 2.272 626.955C2.16533 627.104 2.10133 627.216 2.08 627.291C2.05867 627.366 2.05333 627.446 2.064 627.531L1.984 627.643L1.856 627.563L0.768 626.715C0.992 626.299 1.26933 625.947 1.6 625.659C1.94133 625.371 2.32 625.158 2.736 625.019C3.152 624.87 3.58933 624.795 4.048 624.795C4.63467 624.795 5.152 624.912 5.6 625.147C6.05867 625.382 6.42133 625.712 6.688 626.139C6.95467 626.566 7.088 627.072 7.088 627.659C7.088 628.075 7.01867 628.475 6.88 628.859C6.752 629.243 6.56533 629.622 6.32 629.995C6.07467 630.358 5.78667 630.726 5.456 631.099C5.12533 631.472 4.75733 631.862 4.352 632.267C3.94667 632.672 3.51467 633.104 3.056 633.563H6.384C6.56533 633.563 6.69333 633.552 6.768 633.531C6.84267 633.51 6.912 633.472 6.976 633.419H7.12V633.563V634.875H1.008V633.691ZM10.16 634.875C10.4693 633.883 10.784 632.912 11.104 631.963C11.4347 631.014 11.7707 630.07 12.112 629.131C12.464 628.192 12.8267 627.248 13.2 626.299H9.12V624.907H15.04V625.771C14.7307 626.518 14.432 627.264 14.144 628.011C13.856 628.747 13.5733 629.494 13.296 630.251C13.0293 631.008 12.7733 631.771 12.528 632.539C12.2827 633.296 12.0427 634.075 11.808 634.875H10.16ZM1.008 657.691C1.60533 657.094 2.144 656.56 2.624 656.091C3.104 655.611 3.52533 655.179 3.888 654.795C4.26133 654.4 4.57067 654.038 4.816 653.707C5.06133 653.366 5.24267 653.03 5.36 652.699C5.488 652.368 5.552 652.016 5.552 651.643C5.552 651.376 5.51467 651.147 5.44 650.955C5.376 650.763 5.28 650.608 5.152 650.491C5.024 650.363 4.864 650.272 4.672 650.219C4.49067 650.155 4.28267 650.123 4.048 650.123C3.81333 650.123 3.58933 650.155 3.376 650.219C3.17333 650.272 2.976 650.363 2.784 650.491C2.60267 650.608 2.432 650.763 2.272 650.955C2.16533 651.104 2.10133 651.216 2.08 651.291C2.05867 651.366 2.05333 651.446 2.064 651.531L1.984 651.643L1.856 651.563L0.768 650.715C0.992 650.299 1.26933 649.947 1.6 649.659C1.94133 649.371 2.32 649.158 2.736 649.019C3.152 648.87 3.58933 648.795 4.048 648.795C4.63467 648.795 5.152 648.912 5.6 649.147C6.05867 649.382 6.42133 649.712 6.688 650.139C6.95467 650.566 7.088 651.072 7.088 651.659C7.088 652.075 7.01867 652.475 6.88 652.859C6.752 653.243 6.56533 653.622 6.32 653.995C6.07467 654.358 5.78667 654.726 5.456 655.099C5.12533 655.472 4.75733 655.862 4.352 656.267C3.94667 656.672 3.51467 657.104 3.056 657.563H6.384C6.56533 657.563 6.69333 657.552 6.768 657.531C6.84267 657.51 6.912 657.472 6.976 657.419H7.12V657.563V658.875H1.008V657.691ZM12 659.051C11.3493 659.051 10.7787 658.934 10.288 658.699C9.808 658.454 9.43467 658.128 9.168 657.723C8.912 657.307 8.784 656.843 8.784 656.331C8.784 655.915 8.864 655.536 9.024 655.195C9.184 654.854 9.408 654.544 9.696 654.267C9.984 653.99 10.32 653.755 10.704 653.563C10.416 653.392 10.16 653.19 9.936 652.955C9.72267 652.72 9.552 652.459 9.424 652.171C9.30667 651.883 9.248 651.584 9.248 651.275C9.248 650.806 9.36 650.384 9.584 650.011C9.81867 649.627 10.144 649.323 10.56 649.099C10.9867 648.864 11.4933 648.747 12.08 648.747C12.7093 648.747 13.2267 648.859 13.632 649.083C14.048 649.296 14.3627 649.59 14.576 649.963C14.7893 650.326 14.896 650.731 14.896 651.179C14.896 651.435 14.864 651.68 14.8 651.915C14.736 652.15 14.64 652.374 14.512 652.587C14.384 652.79 14.2293 652.976 14.048 653.147C13.8773 653.318 13.68 653.467 13.456 653.595C13.7333 653.723 13.9787 653.883 14.192 654.075C14.416 654.267 14.6027 654.48 14.752 654.715C14.912 654.95 15.0293 655.2 15.104 655.467C15.1893 655.723 15.232 655.99 15.232 656.267C15.232 656.811 15.0987 657.291 14.832 657.707C14.5653 658.123 14.1867 658.454 13.696 658.699C13.216 658.934 12.6507 659.051 12 659.051ZM12.032 657.707C12.3947 657.707 12.6933 657.643 12.928 657.515C13.1733 657.376 13.3547 657.195 13.472 656.971C13.6 656.747 13.664 656.491 13.664 656.203C13.664 655.979 13.616 655.766 13.52 655.563C13.4347 655.36 13.3067 655.174 13.136 655.003C12.976 654.822 12.7733 654.662 12.528 654.523C12.2933 654.384 12.032 654.267 11.744 654.171C11.5413 654.278 11.3547 654.4 11.184 654.539C11.0133 654.667 10.864 654.816 10.736 654.987C10.6187 655.158 10.5227 655.339 10.448 655.531C10.384 655.723 10.352 655.931 10.352 656.155C10.352 656.443 10.416 656.704 10.544 656.939C10.6827 657.174 10.8747 657.36 11.12 657.499C11.376 657.638 11.68 657.707 12.032 657.707ZM12.304 653.083C12.4747 652.976 12.624 652.854 12.752 652.715C12.8907 652.576 13.008 652.432 13.104 652.283C13.2 652.134 13.2693 651.974 13.312 651.803C13.3653 651.632 13.392 651.462 13.392 651.291C13.392 651.067 13.3387 650.864 13.232 650.683C13.136 650.491 12.9867 650.336 12.784 650.219C12.5813 650.102 12.336 650.043 12.048 650.043C11.76 650.043 11.52 650.102 11.328 650.219C11.136 650.326 10.992 650.47 10.896 650.651C10.8 650.832 10.752 651.03 10.752 651.243C10.752 651.456 10.7893 651.654 10.864 651.835C10.9493 652.006 11.0613 652.166 11.2 652.315C11.3493 652.464 11.5147 652.603 11.696 652.731C11.888 652.859 12.0907 652.976 12.304 653.083ZM1.008 681.691C1.60533 681.094 2.144 680.56 2.624 680.091C3.104 679.611 3.52533 679.179 3.888 678.795C4.26133 678.4 4.57067 678.038 4.816 677.707C5.06133 677.366 5.24267 677.03 5.36 676.699C5.488 676.368 5.552 676.016 5.552 675.643C5.552 675.376 5.51467 675.147 5.44 674.955C5.376 674.763 5.28 674.608 5.152 674.491C5.024 674.363 4.864 674.272 4.672 674.219C4.49067 674.155 4.28267 674.123 4.048 674.123C3.81333 674.123 3.58933 674.155 3.376 674.219C3.17333 674.272 2.976 674.363 2.784 674.491C2.60267 674.608 2.432 674.763 2.272 674.955C2.16533 675.104 2.10133 675.216 2.08 675.291C2.05867 675.366 2.05333 675.446 2.064 675.531L1.984 675.643L1.856 675.563L0.768 674.715C0.992 674.299 1.26933 673.947 1.6 673.659C1.94133 673.371 2.32 673.158 2.736 673.019C3.152 672.87 3.58933 672.795 4.048 672.795C4.63467 672.795 5.152 672.912 5.6 673.147C6.05867 673.382 6.42133 673.712 6.688 674.139C6.95467 674.566 7.088 675.072 7.088 675.659C7.088 676.075 7.01867 676.475 6.88 676.859C6.752 677.243 6.56533 677.622 6.32 677.995C6.07467 678.358 5.78667 678.726 5.456 679.099C5.12533 679.472 4.75733 679.862 4.352 680.267C3.94667 680.672 3.51467 681.104 3.056 681.563H6.384C6.56533 681.563 6.69333 681.552 6.768 681.531C6.84267 681.51 6.912 681.472 6.976 681.419H7.12V681.563V682.875H1.008V681.691ZM11.6 683.051C11.1093 683.051 10.64 682.982 10.192 682.843C9.75467 682.694 9.35467 682.464 8.992 682.155L9.824 680.987L9.936 680.859L10.048 680.955C10.0587 681.03 10.0853 681.104 10.128 681.179C10.1707 681.254 10.2613 681.344 10.4 681.451C10.56 681.558 10.7307 681.638 10.912 681.691C11.104 681.734 11.3067 681.755 11.52 681.755C11.872 681.755 12.1813 681.654 12.448 681.451C12.7147 681.248 12.9333 680.971 13.104 680.619C13.2853 680.267 13.4187 679.856 13.504 679.387C13.6 678.918 13.6533 678.422 13.664 677.899C13.664 676.982 13.6053 676.246 13.488 675.691C13.3707 675.126 13.184 674.715 12.928 674.459C12.672 674.203 12.352 674.075 11.968 674.075C11.7227 674.075 11.4987 674.123 11.296 674.219C11.104 674.315 10.9333 674.454 10.784 674.635C10.6453 674.816 10.5387 675.035 10.464 675.291C10.3893 675.547 10.352 675.84 10.352 676.171C10.352 676.459 10.3893 676.715 10.464 676.939C10.5493 677.163 10.6667 677.35 10.816 677.499C10.9653 677.648 11.136 677.766 11.328 677.851C11.5307 677.926 11.744 677.963 11.968 677.963C12.2667 677.963 12.5333 677.931 12.768 677.867C13.0133 677.792 13.232 677.675 13.424 677.515C13.6267 677.344 13.8027 677.12 13.952 676.843L14.112 678.251C13.9413 678.454 13.744 678.63 13.52 678.779C13.296 678.928 13.0453 679.046 12.768 679.131C12.4907 679.216 12.1867 679.259 11.856 679.259C11.4293 679.259 11.0347 679.184 10.672 679.035C10.3093 678.886 9.98933 678.678 9.712 678.411C9.44533 678.134 9.23733 677.803 9.088 677.419C8.93867 677.035 8.864 676.603 8.864 676.123C8.864 675.654 8.944 675.216 9.104 674.811C9.264 674.406 9.48267 674.054 9.76 673.755C10.048 673.446 10.3787 673.211 10.752 673.051C11.136 672.88 11.5467 672.795 11.984 672.795C12.656 672.795 13.2267 672.976 13.696 673.339C14.1653 673.691 14.5173 674.203 14.752 674.875C14.9973 675.536 15.12 676.336 15.12 677.275C15.12 678.544 14.9813 679.606 14.704 680.459C14.4267 681.312 14.0267 681.958 13.504 682.395C12.9813 682.822 12.3467 683.04 11.6 683.051ZM3.792 707.051C3.22667 707.051 2.67733 706.955 2.144 706.763C1.61067 706.571 1.17333 706.278 0.832 705.883L1.696 704.699L1.792 704.571L1.904 704.667C1.91467 704.742 1.936 704.822 1.968 704.907C2 704.992 2.07467 705.099 2.192 705.227C2.39467 705.387 2.61867 705.52 2.864 705.627C3.10933 705.723 3.392 705.771 3.712 705.771C4.08533 705.771 4.39467 705.702 4.64 705.563C4.88533 705.414 5.072 705.211 5.2 704.955C5.328 704.688 5.392 704.39 5.392 704.059C5.392 703.707 5.33333 703.414 5.216 703.179C5.09867 702.934 4.92267 702.742 4.688 702.603C4.464 702.464 4.18667 702.374 3.856 702.331C3.52533 702.288 3.14667 702.288 2.72 702.331V701.083C3.2 701.094 3.6 701.056 3.92 700.971C4.24 700.886 4.48533 700.768 4.656 700.619C4.83733 700.459 4.96 700.278 5.024 700.075C5.09867 699.872 5.136 699.659 5.136 699.435C5.136 699.232 5.104 699.051 5.04 698.891C4.976 698.72 4.88533 698.576 4.768 698.459C4.65067 698.342 4.50667 698.251 4.336 698.187C4.176 698.123 3.99467 698.091 3.792 698.091C3.57867 698.091 3.36533 698.118 3.152 698.171C2.93867 698.224 2.736 698.31 2.544 698.427C2.352 698.534 2.17067 698.678 2 698.859L1.088 697.931C1.46133 697.515 1.888 697.222 2.368 697.051C2.85867 696.88 3.344 696.795 3.824 696.795C4.4 696.795 4.90133 696.902 5.328 697.115C5.75467 697.328 6.08533 697.627 6.32 698.011C6.56533 698.395 6.688 698.832 6.688 699.323C6.688 699.686 6.61867 700.022 6.48 700.331C6.352 700.63 6.17067 700.886 5.936 701.099C5.70133 701.312 5.42933 701.472 5.12 701.579C5.46133 701.686 5.77067 701.851 6.048 702.075C6.336 702.299 6.56533 702.582 6.736 702.923C6.90667 703.254 6.992 703.648 6.992 704.107C6.992 704.651 6.864 705.147 6.608 705.595C6.352 706.043 5.984 706.4 5.504 706.667C5.03467 706.923 4.464 707.051 3.792 707.051ZM9.712 704.075L13.968 698.891L14.304 699.931L10.048 705.083L9.712 704.075ZM12 707.051C11.3173 707.051 10.7253 706.854 10.224 706.459C9.73333 706.064 9.35467 705.488 9.088 704.731C8.832 703.963 8.704 703.035 8.704 701.947C8.704 700.87 8.832 699.947 9.088 699.179C9.35467 698.411 9.73333 697.824 10.224 697.419C10.7253 697.003 11.3173 696.795 12 696.795C12.6827 696.795 13.2693 697.003 13.76 697.419C14.2613 697.824 14.64 698.411 14.896 699.179C15.1627 699.947 15.296 700.87 15.296 701.947C15.296 703.035 15.1627 703.963 14.896 704.731C14.64 705.488 14.2613 706.064 13.76 706.459C13.2693 706.854 12.6827 707.051 12 707.051ZM12 705.819C12.3947 705.819 12.72 705.67 12.976 705.371C13.2427 705.062 13.4453 704.619 13.584 704.043C13.7227 703.467 13.792 702.768 13.792 701.947C13.792 701.147 13.7227 700.459 13.584 699.883C13.4453 699.307 13.2427 698.864 12.976 698.555C12.72 698.235 12.3947 698.075 12 698.075C11.616 698.075 11.2907 698.235 11.024 698.555C10.7573 698.864 10.5547 699.307 10.416 699.883C10.2773 700.459 10.208 701.147 10.208 701.947C10.208 702.768 10.2773 703.467 10.416 704.043C10.5547 704.619 10.7573 705.062 11.024 705.371C11.2907 705.67 11.616 705.819 12 705.819ZM3.792 731.051C3.22667 731.051 2.67733 730.955 2.144 730.763C1.61067 730.571 1.17333 730.278 0.832 729.883L1.696 728.699L1.792 728.571L1.904 728.667C1.91467 728.742 1.936 728.822 1.968 728.907C2 728.992 2.07467 729.099 2.192 729.227C2.39467 729.387 2.61867 729.52 2.864 729.627C3.10933 729.723 3.392 729.771 3.712 729.771C4.08533 729.771 4.39467 729.702 4.64 729.563C4.88533 729.414 5.072 729.211 5.2 728.955C5.328 728.688 5.392 728.39 5.392 728.059C5.392 727.707 5.33333 727.414 5.216 727.179C5.09867 726.934 4.92267 726.742 4.688 726.603C4.464 726.464 4.18667 726.374 3.856 726.331C3.52533 726.288 3.14667 726.288 2.72 726.331V725.083C3.2 725.094 3.6 725.056 3.92 724.971C4.24 724.886 4.48533 724.768 4.656 724.619C4.83733 724.459 4.96 724.278 5.024 724.075C5.09867 723.872 5.136 723.659 5.136 723.435C5.136 723.232 5.104 723.051 5.04 722.891C4.976 722.72 4.88533 722.576 4.768 722.459C4.65067 722.342 4.50667 722.251 4.336 722.187C4.176 722.123 3.99467 722.091 3.792 722.091C3.57867 722.091 3.36533 722.118 3.152 722.171C2.93867 722.224 2.736 722.31 2.544 722.427C2.352 722.534 2.17067 722.678 2 722.859L1.088 721.931C1.46133 721.515 1.888 721.222 2.368 721.051C2.85867 720.88 3.344 720.795 3.824 720.795C4.4 720.795 4.90133 720.902 5.328 721.115C5.75467 721.328 6.08533 721.627 6.32 722.011C6.56533 722.395 6.688 722.832 6.688 723.323C6.688 723.686 6.61867 724.022 6.48 724.331C6.352 724.63 6.17067 724.886 5.936 725.099C5.70133 725.312 5.42933 725.472 5.12 725.579C5.46133 725.686 5.77067 725.851 6.048 726.075C6.336 726.299 6.56533 726.582 6.736 726.923C6.90667 727.254 6.992 727.648 6.992 728.107C6.992 728.651 6.864 729.147 6.608 729.595C6.352 730.043 5.984 730.4 5.504 730.667C5.03467 730.923 4.464 731.051 3.792 731.051ZM11.44 730.875V722.667L9.568 723.291L9.216 722.299L11.872 720.891H13.024V730.875H11.44ZM3.792 755.051C3.22667 755.051 2.67733 754.955 2.144 754.763C1.61067 754.571 1.17333 754.278 0.832 753.883L1.696 752.699L1.792 752.571L1.904 752.667C1.91467 752.742 1.936 752.822 1.968 752.907C2 752.992 2.07467 753.099 2.192 753.227C2.39467 753.387 2.61867 753.52 2.864 753.627C3.10933 753.723 3.392 753.771 3.712 753.771C4.08533 753.771 4.39467 753.702 4.64 753.563C4.88533 753.414 5.072 753.211 5.2 752.955C5.328 752.688 5.392 752.39 5.392 752.059C5.392 751.707 5.33333 751.414 5.216 751.179C5.09867 750.934 4.92267 750.742 4.688 750.603C4.464 750.464 4.18667 750.374 3.856 750.331C3.52533 750.288 3.14667 750.288 2.72 750.331V749.083C3.2 749.094 3.6 749.056 3.92 748.971C4.24 748.886 4.48533 748.768 4.656 748.619C4.83733 748.459 4.96 748.278 5.024 748.075C5.09867 747.872 5.136 747.659 5.136 747.435C5.136 747.232 5.104 747.051 5.04 746.891C4.976 746.72 4.88533 746.576 4.768 746.459C4.65067 746.342 4.50667 746.251 4.336 746.187C4.176 746.123 3.99467 746.091 3.792 746.091C3.57867 746.091 3.36533 746.118 3.152 746.171C2.93867 746.224 2.736 746.31 2.544 746.427C2.352 746.534 2.17067 746.678 2 746.859L1.088 745.931C1.46133 745.515 1.888 745.222 2.368 745.051C2.85867 744.88 3.344 744.795 3.824 744.795C4.4 744.795 4.90133 744.902 5.328 745.115C5.75467 745.328 6.08533 745.627 6.32 746.011C6.56533 746.395 6.688 746.832 6.688 747.323C6.688 747.686 6.61867 748.022 6.48 748.331C6.352 748.63 6.17067 748.886 5.936 749.099C5.70133 749.312 5.42933 749.472 5.12 749.579C5.46133 749.686 5.77067 749.851 6.048 750.075C6.336 750.299 6.56533 750.582 6.736 750.923C6.90667 751.254 6.992 751.648 6.992 752.107C6.992 752.651 6.864 753.147 6.608 753.595C6.352 754.043 5.984 754.4 5.504 754.667C5.03467 754.923 4.464 755.051 3.792 755.051ZM9.008 753.691C9.60533 753.094 10.144 752.56 10.624 752.091C11.104 751.611 11.5253 751.179 11.888 750.795C12.2613 750.4 12.5707 750.038 12.816 749.707C13.0613 749.366 13.2427 749.03 13.36 748.699C13.488 748.368 13.552 748.016 13.552 747.643C13.552 747.376 13.5147 747.147 13.44 746.955C13.376 746.763 13.28 746.608 13.152 746.491C13.024 746.363 12.864 746.272 12.672 746.219C12.4907 746.155 12.2827 746.123 12.048 746.123C11.8133 746.123 11.5893 746.155 11.376 746.219C11.1733 746.272 10.976 746.363 10.784 746.491C10.6027 746.608 10.432 746.763 10.272 746.955C10.1653 747.104 10.1013 747.216 10.08 747.291C10.0587 747.366 10.0533 747.446 10.064 747.531L9.984 747.643L9.856 747.563L8.768 746.715C8.992 746.299 9.26933 745.947 9.6 745.659C9.94133 745.371 10.32 745.158 10.736 745.019C11.152 744.87 11.5893 744.795 12.048 744.795C12.6347 744.795 13.152 744.912 13.6 745.147C14.0587 745.382 14.4213 745.712 14.688 746.139C14.9547 746.566 15.088 747.072 15.088 747.659C15.088 748.075 15.0187 748.475 14.88 748.859C14.752 749.243 14.5653 749.622 14.32 749.995C14.0747 750.358 13.7867 750.726 13.456 751.099C13.1253 751.472 12.7573 751.862 12.352 752.267C11.9467 752.672 11.5147 753.104 11.056 753.563H14.384C14.5653 753.563 14.6933 753.552 14.768 753.531C14.8427 753.51 14.912 753.472 14.976 753.419H15.12V753.563V754.875H9.008V753.691ZM3.792 779.051C3.22667 779.051 2.67733 778.955 2.144 778.763C1.61067 778.571 1.17333 778.278 0.832 777.883L1.696 776.699L1.792 776.571L1.904 776.667C1.91467 776.742 1.936 776.822 1.968 776.907C2 776.992 2.07467 777.099 2.192 777.227C2.39467 777.387 2.61867 777.52 2.864 777.627C3.10933 777.723 3.392 777.771 3.712 777.771C4.08533 777.771 4.39467 777.702 4.64 777.563C4.88533 777.414 5.072 777.211 5.2 776.955C5.328 776.688 5.392 776.39 5.392 776.059C5.392 775.707 5.33333 775.414 5.216 775.179C5.09867 774.934 4.92267 774.742 4.688 774.603C4.464 774.464 4.18667 774.374 3.856 774.331C3.52533 774.288 3.14667 774.288 2.72 774.331V773.083C3.2 773.094 3.6 773.056 3.92 772.971C4.24 772.886 4.48533 772.768 4.656 772.619C4.83733 772.459 4.96 772.278 5.024 772.075C5.09867 771.872 5.136 771.659 5.136 771.435C5.136 771.232 5.104 771.051 5.04 770.891C4.976 770.72 4.88533 770.576 4.768 770.459C4.65067 770.342 4.50667 770.251 4.336 770.187C4.176 770.123 3.99467 770.091 3.792 770.091C3.57867 770.091 3.36533 770.118 3.152 770.171C2.93867 770.224 2.736 770.31 2.544 770.427C2.352 770.534 2.17067 770.678 2 770.859L1.088 769.931C1.46133 769.515 1.888 769.222 2.368 769.051C2.85867 768.88 3.344 768.795 3.824 768.795C4.4 768.795 4.90133 768.902 5.328 769.115C5.75467 769.328 6.08533 769.627 6.32 770.011C6.56533 770.395 6.688 770.832 6.688 771.323C6.688 771.686 6.61867 772.022 6.48 772.331C6.352 772.63 6.17067 772.886 5.936 773.099C5.70133 773.312 5.42933 773.472 5.12 773.579C5.46133 773.686 5.77067 773.851 6.048 774.075C6.336 774.299 6.56533 774.582 6.736 774.923C6.90667 775.254 6.992 775.648 6.992 776.107C6.992 776.651 6.864 777.147 6.608 777.595C6.352 778.043 5.984 778.4 5.504 778.667C5.03467 778.923 4.464 779.051 3.792 779.051ZM11.792 779.051C11.2267 779.051 10.6773 778.955 10.144 778.763C9.61067 778.571 9.17333 778.278 8.832 777.883L9.696 776.699L9.792 776.571L9.904 776.667C9.91467 776.742 9.936 776.822 9.968 776.907C10 776.992 10.0747 777.099 10.192 777.227C10.3947 777.387 10.6187 777.52 10.864 777.627C11.1093 777.723 11.392 777.771 11.712 777.771C12.0853 777.771 12.3947 777.702 12.64 777.563C12.8853 777.414 13.072 777.211 13.2 776.955C13.328 776.688 13.392 776.39 13.392 776.059C13.392 775.707 13.3333 775.414 13.216 775.179C13.0987 774.934 12.9227 774.742 12.688 774.603C12.464 774.464 12.1867 774.374 11.856 774.331C11.5253 774.288 11.1467 774.288 10.72 774.331V773.083C11.2 773.094 11.6 773.056 11.92 772.971C12.24 772.886 12.4853 772.768 12.656 772.619C12.8373 772.459 12.96 772.278 13.024 772.075C13.0987 771.872 13.136 771.659 13.136 771.435C13.136 771.232 13.104 771.051 13.04 770.891C12.976 770.72 12.8853 770.576 12.768 770.459C12.6507 770.342 12.5067 770.251 12.336 770.187C12.176 770.123 11.9947 770.091 11.792 770.091C11.5787 770.091 11.3653 770.118 11.152 770.171C10.9387 770.224 10.736 770.31 10.544 770.427C10.352 770.534 10.1707 770.678 10 770.859L9.088 769.931C9.46133 769.515 9.888 769.222 10.368 769.051C10.8587 768.88 11.344 768.795 11.824 768.795C12.4 768.795 12.9013 768.902 13.328 769.115C13.7547 769.328 14.0853 769.627 14.32 770.011C14.5653 770.395 14.688 770.832 14.688 771.323C14.688 771.686 14.6187 772.022 14.48 772.331C14.352 772.63 14.1707 772.886 13.936 773.099C13.7013 773.312 13.4293 773.472 13.12 773.579C13.4613 773.686 13.7707 773.851 14.048 774.075C14.336 774.299 14.5653 774.582 14.736 774.923C14.9067 775.254 14.992 775.648 14.992 776.107C14.992 776.651 14.864 777.147 14.608 777.595C14.352 778.043 13.984 778.4 13.504 778.667C13.0347 778.923 12.464 779.051 11.792 779.051ZM3.792 803.051C3.22667 803.051 2.67733 802.955 2.144 802.763C1.61067 802.571 1.17333 802.278 0.832 801.883L1.696 800.699L1.792 800.571L1.904 800.667C1.91467 800.742 1.936 800.822 1.968 800.907C2 800.992 2.07467 801.099 2.192 801.227C2.39467 801.387 2.61867 801.52 2.864 801.627C3.10933 801.723 3.392 801.771 3.712 801.771C4.08533 801.771 4.39467 801.702 4.64 801.563C4.88533 801.414 5.072 801.211 5.2 800.955C5.328 800.688 5.392 800.39 5.392 800.059C5.392 799.707 5.33333 799.414 5.216 799.179C5.09867 798.934 4.92267 798.742 4.688 798.603C4.464 798.464 4.18667 798.374 3.856 798.331C3.52533 798.288 3.14667 798.288 2.72 798.331V797.083C3.2 797.094 3.6 797.056 3.92 796.971C4.24 796.886 4.48533 796.768 4.656 796.619C4.83733 796.459 4.96 796.278 5.024 796.075C5.09867 795.872 5.136 795.659 5.136 795.435C5.136 795.232 5.104 795.051 5.04 794.891C4.976 794.72 4.88533 794.576 4.768 794.459C4.65067 794.342 4.50667 794.251 4.336 794.187C4.176 794.123 3.99467 794.091 3.792 794.091C3.57867 794.091 3.36533 794.118 3.152 794.171C2.93867 794.224 2.736 794.31 2.544 794.427C2.352 794.534 2.17067 794.678 2 794.859L1.088 793.931C1.46133 793.515 1.888 793.222 2.368 793.051C2.85867 792.88 3.344 792.795 3.824 792.795C4.4 792.795 4.90133 792.902 5.328 793.115C5.75467 793.328 6.08533 793.627 6.32 794.011C6.56533 794.395 6.688 794.832 6.688 795.323C6.688 795.686 6.61867 796.022 6.48 796.331C6.352 796.63 6.17067 796.886 5.936 797.099C5.70133 797.312 5.42933 797.472 5.12 797.579C5.46133 797.686 5.77067 797.851 6.048 798.075C6.336 798.299 6.56533 798.582 6.736 798.923C6.90667 799.254 6.992 799.648 6.992 800.107C6.992 800.651 6.864 801.147 6.608 801.595C6.352 802.043 5.984 802.4 5.504 802.667C5.03467 802.923 4.464 803.051 3.792 803.051ZM12.736 802.875V800.491H8.672V799.419L13.072 792.891H14.288V799.211H15.584V800.507H14.288V802.875H12.736ZM10.32 799.211H12.752V795.467L10.32 799.211ZM3.792 827.051C3.22667 827.051 2.67733 826.955 2.144 826.763C1.61067 826.571 1.17333 826.278 0.832 825.883L1.696 824.699L1.792 824.571L1.904 824.667C1.91467 824.742 1.936 824.822 1.968 824.907C2 824.992 2.07467 825.099 2.192 825.227C2.39467 825.387 2.61867 825.52 2.864 825.627C3.10933 825.723 3.392 825.771 3.712 825.771C4.08533 825.771 4.39467 825.702 4.64 825.563C4.88533 825.414 5.072 825.211 5.2 824.955C5.328 824.688 5.392 824.39 5.392 824.059C5.392 823.707 5.33333 823.414 5.216 823.179C5.09867 822.934 4.92267 822.742 4.688 822.603C4.464 822.464 4.18667 822.374 3.856 822.331C3.52533 822.288 3.14667 822.288 2.72 822.331V821.083C3.2 821.094 3.6 821.056 3.92 820.971C4.24 820.886 4.48533 820.768 4.656 820.619C4.83733 820.459 4.96 820.278 5.024 820.075C5.09867 819.872 5.136 819.659 5.136 819.435C5.136 819.232 5.104 819.051 5.04 818.891C4.976 818.72 4.88533 818.576 4.768 818.459C4.65067 818.342 4.50667 818.251 4.336 818.187C4.176 818.123 3.99467 818.091 3.792 818.091C3.57867 818.091 3.36533 818.118 3.152 818.171C2.93867 818.224 2.736 818.31 2.544 818.427C2.352 818.534 2.17067 818.678 2 818.859L1.088 817.931C1.46133 817.515 1.888 817.222 2.368 817.051C2.85867 816.88 3.344 816.795 3.824 816.795C4.4 816.795 4.90133 816.902 5.328 817.115C5.75467 817.328 6.08533 817.627 6.32 818.011C6.56533 818.395 6.688 818.832 6.688 819.323C6.688 819.686 6.61867 820.022 6.48 820.331C6.352 820.63 6.17067 820.886 5.936 821.099C5.70133 821.312 5.42933 821.472 5.12 821.579C5.46133 821.686 5.77067 821.851 6.048 822.075C6.336 822.299 6.56533 822.582 6.736 822.923C6.90667 823.254 6.992 823.648 6.992 824.107C6.992 824.651 6.864 825.147 6.608 825.595C6.352 826.043 5.984 826.4 5.504 826.667C5.03467 826.923 4.464 827.051 3.792 827.051ZM12.016 827.051C11.3547 827.051 10.752 826.923 10.208 826.667C9.664 826.4 9.232 826.006 8.912 825.483L10.064 824.587L10.176 824.491L10.272 824.587C10.2613 824.672 10.272 824.752 10.304 824.827C10.3467 824.902 10.4213 825.008 10.528 825.147C10.72 825.35 10.9333 825.504 11.168 825.611C11.4133 825.707 11.7013 825.755 12.032 825.755C12.2773 825.755 12.5013 825.707 12.704 825.611C12.9173 825.504 13.104 825.36 13.264 825.179C13.424 824.998 13.5467 824.784 13.632 824.539C13.7173 824.283 13.76 824.006 13.76 823.707C13.76 823.387 13.7173 823.099 13.632 822.843C13.5467 822.576 13.424 822.352 13.264 822.171C13.104 821.99 12.912 821.851 12.688 821.755C12.4747 821.648 12.2347 821.595 11.968 821.595C11.744 821.595 11.5253 821.627 11.312 821.691C11.1093 821.744 10.9173 821.835 10.736 821.963C10.5653 822.091 10.4053 822.246 10.256 822.427L9.296 822.139L9.632 816.907H14.88V818.219H10.96L10.816 820.683C10.9653 820.598 11.12 820.528 11.28 820.475C11.4507 820.422 11.6213 820.384 11.792 820.363C11.9733 820.331 12.144 820.315 12.304 820.315C12.7413 820.315 13.1413 820.39 13.504 820.539C13.8667 820.688 14.1813 820.907 14.448 821.195C14.7147 821.472 14.9173 821.819 15.056 822.235C15.2053 822.64 15.28 823.11 15.28 823.643C15.28 824.347 15.136 824.955 14.848 825.467C14.5707 825.979 14.1867 826.374 13.696 826.651C13.2053 826.918 12.6453 827.051 12.016 827.051ZM3.792 851.051C3.22667 851.051 2.67733 850.955 2.144 850.763C1.61067 850.571 1.17333 850.278 0.832 849.883L1.696 848.699L1.792 848.571L1.904 848.667C1.91467 848.742 1.936 848.822 1.968 848.907C2 848.992 2.07467 849.099 2.192 849.227C2.39467 849.387 2.61867 849.52 2.864 849.627C3.10933 849.723 3.392 849.771 3.712 849.771C4.08533 849.771 4.39467 849.702 4.64 849.563C4.88533 849.414 5.072 849.211 5.2 848.955C5.328 848.688 5.392 848.39 5.392 848.059C5.392 847.707 5.33333 847.414 5.216 847.179C5.09867 846.934 4.92267 846.742 4.688 846.603C4.464 846.464 4.18667 846.374 3.856 846.331C3.52533 846.288 3.14667 846.288 2.72 846.331V845.083C3.2 845.094 3.6 845.056 3.92 844.971C4.24 844.886 4.48533 844.768 4.656 844.619C4.83733 844.459 4.96 844.278 5.024 844.075C5.09867 843.872 5.136 843.659 5.136 843.435C5.136 843.232 5.104 843.051 5.04 842.891C4.976 842.72 4.88533 842.576 4.768 842.459C4.65067 842.342 4.50667 842.251 4.336 842.187C4.176 842.123 3.99467 842.091 3.792 842.091C3.57867 842.091 3.36533 842.118 3.152 842.171C2.93867 842.224 2.736 842.31 2.544 842.427C2.352 842.534 2.17067 842.678 2 842.859L1.088 841.931C1.46133 841.515 1.888 841.222 2.368 841.051C2.85867 840.88 3.344 840.795 3.824 840.795C4.4 840.795 4.90133 840.902 5.328 841.115C5.75467 841.328 6.08533 841.627 6.32 842.011C6.56533 842.395 6.688 842.832 6.688 843.323C6.688 843.686 6.61867 844.022 6.48 844.331C6.352 844.63 6.17067 844.886 5.936 845.099C5.70133 845.312 5.42933 845.472 5.12 845.579C5.46133 845.686 5.77067 845.851 6.048 846.075C6.336 846.299 6.56533 846.582 6.736 846.923C6.90667 847.254 6.992 847.648 6.992 848.107C6.992 848.651 6.864 849.147 6.608 849.595C6.352 850.043 5.984 850.4 5.504 850.667C5.03467 850.923 4.464 851.051 3.792 851.051ZM12.16 851.051C11.4667 851.051 10.8747 850.859 10.384 850.475C9.904 850.08 9.536 849.526 9.28 848.811C9.03467 848.096 8.912 847.264 8.912 846.315C8.912 845.131 9.06667 844.128 9.376 843.307C9.68533 842.486 10.112 841.856 10.656 841.419C11.2107 840.982 11.8453 840.763 12.56 840.763C12.9973 840.763 13.424 840.838 13.84 840.987C14.2667 841.136 14.6453 841.382 14.976 841.723L14.096 842.731L13.984 842.843L13.888 842.747C13.8773 842.662 13.8453 842.592 13.792 842.539C13.7493 842.475 13.6533 842.39 13.504 842.283C13.4293 842.24 13.3493 842.208 13.264 842.187C13.1787 842.155 13.088 842.134 12.992 842.123C12.896 842.102 12.7947 842.091 12.688 842.091C12.528 842.091 12.3467 842.118 12.144 842.171C11.952 842.224 11.76 842.32 11.568 842.459C11.3867 842.587 11.2107 842.774 11.04 843.019C10.88 843.254 10.7467 843.563 10.64 843.947C10.5333 844.331 10.4693 844.795 10.448 845.339C10.5973 845.136 10.7733 844.966 10.976 844.827C11.1893 844.678 11.4133 844.566 11.648 844.491C11.8933 844.406 12.1387 844.363 12.384 844.363C12.7787 844.363 13.1413 844.432 13.472 844.571C13.8133 844.71 14.112 844.918 14.368 845.195C14.624 845.472 14.8213 845.814 14.96 846.219C15.1093 846.624 15.184 847.088 15.184 847.611C15.184 848.272 15.0507 848.864 14.784 849.387C14.5173 849.91 14.16 850.32 13.712 850.619C13.264 850.907 12.7467 851.051 12.16 851.051ZM12.208 849.755C12.4107 849.755 12.6027 849.707 12.784 849.611C12.9653 849.504 13.1253 849.36 13.264 849.179C13.4027 848.998 13.5093 848.779 13.584 848.523C13.6693 848.256 13.712 847.958 13.712 847.627C13.712 847.286 13.664 846.992 13.568 846.747C13.4827 846.491 13.3653 846.283 13.216 846.123C13.0773 845.952 12.9173 845.83 12.736 845.755C12.5547 845.67 12.368 845.627 12.176 845.627C12.0053 845.627 11.84 845.659 11.68 845.723C11.52 845.776 11.3707 845.856 11.232 845.963C11.0933 846.07 10.96 846.192 10.832 846.331C10.7147 846.47 10.6027 846.63 10.496 846.811C10.4747 847.195 10.496 847.568 10.56 847.931C10.6347 848.283 10.7467 848.598 10.896 848.875C11.0453 849.142 11.2267 849.355 11.44 849.515C11.664 849.675 11.92 849.755 12.208 849.755ZM3.792 875.051C3.22667 875.051 2.67733 874.955 2.144 874.763C1.61067 874.571 1.17333 874.278 0.832 873.883L1.696 872.699L1.792 872.571L1.904 872.667C1.91467 872.742 1.936 872.822 1.968 872.907C2 872.992 2.07467 873.099 2.192 873.227C2.39467 873.387 2.61867 873.52 2.864 873.627C3.10933 873.723 3.392 873.771 3.712 873.771C4.08533 873.771 4.39467 873.702 4.64 873.563C4.88533 873.414 5.072 873.211 5.2 872.955C5.328 872.688 5.392 872.39 5.392 872.059C5.392 871.707 5.33333 871.414 5.216 871.179C5.09867 870.934 4.92267 870.742 4.688 870.603C4.464 870.464 4.18667 870.374 3.856 870.331C3.52533 870.288 3.14667 870.288 2.72 870.331V869.083C3.2 869.094 3.6 869.056 3.92 868.971C4.24 868.886 4.48533 868.768 4.656 868.619C4.83733 868.459 4.96 868.278 5.024 868.075C5.09867 867.872 5.136 867.659 5.136 867.435C5.136 867.232 5.104 867.051 5.04 866.891C4.976 866.72 4.88533 866.576 4.768 866.459C4.65067 866.342 4.50667 866.251 4.336 866.187C4.176 866.123 3.99467 866.091 3.792 866.091C3.57867 866.091 3.36533 866.118 3.152 866.171C2.93867 866.224 2.736 866.31 2.544 866.427C2.352 866.534 2.17067 866.678 2 866.859L1.088 865.931C1.46133 865.515 1.888 865.222 2.368 865.051C2.85867 864.88 3.344 864.795 3.824 864.795C4.4 864.795 4.90133 864.902 5.328 865.115C5.75467 865.328 6.08533 865.627 6.32 866.011C6.56533 866.395 6.688 866.832 6.688 867.323C6.688 867.686 6.61867 868.022 6.48 868.331C6.352 868.63 6.17067 868.886 5.936 869.099C5.70133 869.312 5.42933 869.472 5.12 869.579C5.46133 869.686 5.77067 869.851 6.048 870.075C6.336 870.299 6.56533 870.582 6.736 870.923C6.90667 871.254 6.992 871.648 6.992 872.107C6.992 872.651 6.864 873.147 6.608 873.595C6.352 874.043 5.984 874.4 5.504 874.667C5.03467 874.923 4.464 875.051 3.792 875.051ZM10.16 874.875C10.4693 873.883 10.784 872.912 11.104 871.963C11.4347 871.014 11.7707 870.07 12.112 869.131C12.464 868.192 12.8267 867.248 13.2 866.299H9.12V864.907H15.04V865.771C14.7307 866.518 14.432 867.264 14.144 868.011C13.856 868.747 13.5733 869.494 13.296 870.251C13.0293 871.008 12.7733 871.771 12.528 872.539C12.2827 873.296 12.0427 874.075 11.808 874.875H10.16ZM3.792 899.051C3.22667 899.051 2.67733 898.955 2.144 898.763C1.61067 898.571 1.17333 898.278 0.832 897.883L1.696 896.699L1.792 896.571L1.904 896.667C1.91467 896.742 1.936 896.822 1.968 896.907C2 896.992 2.07467 897.099 2.192 897.227C2.39467 897.387 2.61867 897.52 2.864 897.627C3.10933 897.723 3.392 897.771 3.712 897.771C4.08533 897.771 4.39467 897.702 4.64 897.563C4.88533 897.414 5.072 897.211 5.2 896.955C5.328 896.688 5.392 896.39 5.392 896.059C5.392 895.707 5.33333 895.414 5.216 895.179C5.09867 894.934 4.92267 894.742 4.688 894.603C4.464 894.464 4.18667 894.374 3.856 894.331C3.52533 894.288 3.14667 894.288 2.72 894.331V893.083C3.2 893.094 3.6 893.056 3.92 892.971C4.24 892.886 4.48533 892.768 4.656 892.619C4.83733 892.459 4.96 892.278 5.024 892.075C5.09867 891.872 5.136 891.659 5.136 891.435C5.136 891.232 5.104 891.051 5.04 890.891C4.976 890.72 4.88533 890.576 4.768 890.459C4.65067 890.342 4.50667 890.251 4.336 890.187C4.176 890.123 3.99467 890.091 3.792 890.091C3.57867 890.091 3.36533 890.118 3.152 890.171C2.93867 890.224 2.736 890.31 2.544 890.427C2.352 890.534 2.17067 890.678 2 890.859L1.088 889.931C1.46133 889.515 1.888 889.222 2.368 889.051C2.85867 888.88 3.344 888.795 3.824 888.795C4.4 888.795 4.90133 888.902 5.328 889.115C5.75467 889.328 6.08533 889.627 6.32 890.011C6.56533 890.395 6.688 890.832 6.688 891.323C6.688 891.686 6.61867 892.022 6.48 892.331C6.352 892.63 6.17067 892.886 5.936 893.099C5.70133 893.312 5.42933 893.472 5.12 893.579C5.46133 893.686 5.77067 893.851 6.048 894.075C6.336 894.299 6.56533 894.582 6.736 894.923C6.90667 895.254 6.992 895.648 6.992 896.107C6.992 896.651 6.864 897.147 6.608 897.595C6.352 898.043 5.984 898.4 5.504 898.667C5.03467 898.923 4.464 899.051 3.792 899.051ZM12 899.051C11.3493 899.051 10.7787 898.934 10.288 898.699C9.808 898.454 9.43467 898.128 9.168 897.723C8.912 897.307 8.784 896.843 8.784 896.331C8.784 895.915 8.864 895.536 9.024 895.195C9.184 894.854 9.408 894.544 9.696 894.267C9.984 893.99 10.32 893.755 10.704 893.563C10.416 893.392 10.16 893.19 9.936 892.955C9.72267 892.72 9.552 892.459 9.424 892.171C9.30667 891.883 9.248 891.584 9.248 891.275C9.248 890.806 9.36 890.384 9.584 890.011C9.81867 889.627 10.144 889.323 10.56 889.099C10.9867 888.864 11.4933 888.747 12.08 888.747C12.7093 888.747 13.2267 888.859 13.632 889.083C14.048 889.296 14.3627 889.59 14.576 889.963C14.7893 890.326 14.896 890.731 14.896 891.179C14.896 891.435 14.864 891.68 14.8 891.915C14.736 892.15 14.64 892.374 14.512 892.587C14.384 892.79 14.2293 892.976 14.048 893.147C13.8773 893.318 13.68 893.467 13.456 893.595C13.7333 893.723 13.9787 893.883 14.192 894.075C14.416 894.267 14.6027 894.48 14.752 894.715C14.912 894.95 15.0293 895.2 15.104 895.467C15.1893 895.723 15.232 895.99 15.232 896.267C15.232 896.811 15.0987 897.291 14.832 897.707C14.5653 898.123 14.1867 898.454 13.696 898.699C13.216 898.934 12.6507 899.051 12 899.051ZM12.032 897.707C12.3947 897.707 12.6933 897.643 12.928 897.515C13.1733 897.376 13.3547 897.195 13.472 896.971C13.6 896.747 13.664 896.491 13.664 896.203C13.664 895.979 13.616 895.766 13.52 895.563C13.4347 895.36 13.3067 895.174 13.136 895.003C12.976 894.822 12.7733 894.662 12.528 894.523C12.2933 894.384 12.032 894.267 11.744 894.171C11.5413 894.278 11.3547 894.4 11.184 894.539C11.0133 894.667 10.864 894.816 10.736 894.987C10.6187 895.158 10.5227 895.339 10.448 895.531C10.384 895.723 10.352 895.931 10.352 896.155C10.352 896.443 10.416 896.704 10.544 896.939C10.6827 897.174 10.8747 897.36 11.12 897.499C11.376 897.638 11.68 897.707 12.032 897.707ZM12.304 893.083C12.4747 892.976 12.624 892.854 12.752 892.715C12.8907 892.576 13.008 892.432 13.104 892.283C13.2 892.134 13.2693 891.974 13.312 891.803C13.3653 891.632 13.392 891.462 13.392 891.291C13.392 891.067 13.3387 890.864 13.232 890.683C13.136 890.491 12.9867 890.336 12.784 890.219C12.5813 890.102 12.336 890.043 12.048 890.043C11.76 890.043 11.52 890.102 11.328 890.219C11.136 890.326 10.992 890.47 10.896 890.651C10.8 890.832 10.752 891.03 10.752 891.243C10.752 891.456 10.7893 891.654 10.864 891.835C10.9493 892.006 11.0613 892.166 11.2 892.315C11.3493 892.464 11.5147 892.603 11.696 892.731C11.888 892.859 12.0907 892.976 12.304 893.083ZM3.792 923.051C3.22667 923.051 2.67733 922.955 2.144 922.763C1.61067 922.571 1.17333 922.278 0.832 921.883L1.696 920.699L1.792 920.571L1.904 920.667C1.91467 920.742 1.936 920.822 1.968 920.907C2 920.992 2.07467 921.099 2.192 921.227C2.39467 921.387 2.61867 921.52 2.864 921.627C3.10933 921.723 3.392 921.771 3.712 921.771C4.08533 921.771 4.39467 921.702 4.64 921.563C4.88533 921.414 5.072 921.211 5.2 920.955C5.328 920.688 5.392 920.39 5.392 920.059C5.392 919.707 5.33333 919.414 5.216 919.179C5.09867 918.934 4.92267 918.742 4.688 918.603C4.464 918.464 4.18667 918.374 3.856 918.331C3.52533 918.288 3.14667 918.288 2.72 918.331V917.083C3.2 917.094 3.6 917.056 3.92 916.971C4.24 916.886 4.48533 916.768 4.656 916.619C4.83733 916.459 4.96 916.278 5.024 916.075C5.09867 915.872 5.136 915.659 5.136 915.435C5.136 915.232 5.104 915.051 5.04 914.891C4.976 914.72 4.88533 914.576 4.768 914.459C4.65067 914.342 4.50667 914.251 4.336 914.187C4.176 914.123 3.99467 914.091 3.792 914.091C3.57867 914.091 3.36533 914.118 3.152 914.171C2.93867 914.224 2.736 914.31 2.544 914.427C2.352 914.534 2.17067 914.678 2 914.859L1.088 913.931C1.46133 913.515 1.888 913.222 2.368 913.051C2.85867 912.88 3.344 912.795 3.824 912.795C4.4 912.795 4.90133 912.902 5.328 913.115C5.75467 913.328 6.08533 913.627 6.32 914.011C6.56533 914.395 6.688 914.832 6.688 915.323C6.688 915.686 6.61867 916.022 6.48 916.331C6.352 916.63 6.17067 916.886 5.936 917.099C5.70133 917.312 5.42933 917.472 5.12 917.579C5.46133 917.686 5.77067 917.851 6.048 918.075C6.336 918.299 6.56533 918.582 6.736 918.923C6.90667 919.254 6.992 919.648 6.992 920.107C6.992 920.651 6.864 921.147 6.608 921.595C6.352 922.043 5.984 922.4 5.504 922.667C5.03467 922.923 4.464 923.051 3.792 923.051ZM11.6 923.051C11.1093 923.051 10.64 922.982 10.192 922.843C9.75467 922.694 9.35467 922.464 8.992 922.155L9.824 920.987L9.936 920.859L10.048 920.955C10.0587 921.03 10.0853 921.104 10.128 921.179C10.1707 921.254 10.2613 921.344 10.4 921.451C10.56 921.558 10.7307 921.638 10.912 921.691C11.104 921.734 11.3067 921.755 11.52 921.755C11.872 921.755 12.1813 921.654 12.448 921.451C12.7147 921.248 12.9333 920.971 13.104 920.619C13.2853 920.267 13.4187 919.856 13.504 919.387C13.6 918.918 13.6533 918.422 13.664 917.899C13.664 916.982 13.6053 916.246 13.488 915.691C13.3707 915.126 13.184 914.715 12.928 914.459C12.672 914.203 12.352 914.075 11.968 914.075C11.7227 914.075 11.4987 914.123 11.296 914.219C11.104 914.315 10.9333 914.454 10.784 914.635C10.6453 914.816 10.5387 915.035 10.464 915.291C10.3893 915.547 10.352 915.84 10.352 916.171C10.352 916.459 10.3893 916.715 10.464 916.939C10.5493 917.163 10.6667 917.35 10.816 917.499C10.9653 917.648 11.136 917.766 11.328 917.851C11.5307 917.926 11.744 917.963 11.968 917.963C12.2667 917.963 12.5333 917.931 12.768 917.867C13.0133 917.792 13.232 917.675 13.424 917.515C13.6267 917.344 13.8027 917.12 13.952 916.843L14.112 918.251C13.9413 918.454 13.744 918.63 13.52 918.779C13.296 918.928 13.0453 919.046 12.768 919.131C12.4907 919.216 12.1867 919.259 11.856 919.259C11.4293 919.259 11.0347 919.184 10.672 919.035C10.3093 918.886 9.98933 918.678 9.712 918.411C9.44533 918.134 9.23733 917.803 9.088 917.419C8.93867 917.035 8.864 916.603 8.864 916.123C8.864 915.654 8.944 915.216 9.104 914.811C9.264 914.406 9.48267 914.054 9.76 913.755C10.048 913.446 10.3787 913.211 10.752 913.051C11.136 912.88 11.5467 912.795 11.984 912.795C12.656 912.795 13.2267 912.976 13.696 913.339C14.1653 913.691 14.5173 914.203 14.752 914.875C14.9973 915.536 15.12 916.336 15.12 917.275C15.12 918.544 14.9813 919.606 14.704 920.459C14.4267 921.312 14.0267 921.958 13.504 922.395C12.9813 922.822 12.3467 923.04 11.6 923.051ZM4.736 946.875V944.491H0.672V943.419L5.072 936.891H6.288V943.211H7.584V944.507H6.288V946.875H4.736ZM2.32 943.211H4.752V939.467L2.32 943.211ZM9.712 944.075L13.968 938.891L14.304 939.931L10.048 945.083L9.712 944.075ZM12 947.051C11.3173 947.051 10.7253 946.854 10.224 946.459C9.73333 946.064 9.35467 945.488 9.088 944.731C8.832 943.963 8.704 943.035 8.704 941.947C8.704 940.87 8.832 939.947 9.088 939.179C9.35467 938.411 9.73333 937.824 10.224 937.419C10.7253 937.003 11.3173 936.795 12 936.795C12.6827 936.795 13.2693 937.003 13.76 937.419C14.2613 937.824 14.64 938.411 14.896 939.179C15.1627 939.947 15.296 940.87 15.296 941.947C15.296 943.035 15.1627 943.963 14.896 944.731C14.64 945.488 14.2613 946.064 13.76 946.459C13.2693 946.854 12.6827 947.051 12 947.051ZM12 945.819C12.3947 945.819 12.72 945.67 12.976 945.371C13.2427 945.062 13.4453 944.619 13.584 944.043C13.7227 943.467 13.792 942.768 13.792 941.947C13.792 941.147 13.7227 940.459 13.584 939.883C13.4453 939.307 13.2427 938.864 12.976 938.555C12.72 938.235 12.3947 938.075 12 938.075C11.616 938.075 11.2907 938.235 11.024 938.555C10.7573 938.864 10.5547 939.307 10.416 939.883C10.2773 940.459 10.208 941.147 10.208 941.947C10.208 942.768 10.2773 943.467 10.416 944.043C10.5547 944.619 10.7573 945.062 11.024 945.371C11.2907 945.67 11.616 945.819 12 945.819ZM4.736 970.875V968.491H0.672V967.419L5.072 960.891H6.288V967.211H7.584V968.507H6.288V970.875H4.736ZM2.32 967.211H4.752V963.467L2.32 967.211ZM11.44 970.875V962.667L9.568 963.291L9.216 962.299L11.872 960.891H13.024V970.875H11.44ZM4.736 994.875V992.491H0.672V991.419L5.072 984.891H6.288V991.211H7.584V992.507H6.288V994.875H4.736ZM2.32 991.211H4.752V987.467L2.32 991.211ZM9.008 993.691C9.60533 993.094 10.144 992.56 10.624 992.091C11.104 991.611 11.5253 991.179 11.888 990.795C12.2613 990.4 12.5707 990.038 12.816 989.707C13.0613 989.366 13.2427 989.03 13.36 988.699C13.488 988.368 13.552 988.016 13.552 987.643C13.552 987.376 13.5147 987.147 13.44 986.955C13.376 986.763 13.28 986.608 13.152 986.491C13.024 986.363 12.864 986.272 12.672 986.219C12.4907 986.155 12.2827 986.123 12.048 986.123C11.8133 986.123 11.5893 986.155 11.376 986.219C11.1733 986.272 10.976 986.363 10.784 986.491C10.6027 986.608 10.432 986.763 10.272 986.955C10.1653 987.104 10.1013 987.216 10.08 987.291C10.0587 987.366 10.0533 987.446 10.064 987.531L9.984 987.643L9.856 987.563L8.768 986.715C8.992 986.299 9.26933 985.947 9.6 985.659C9.94133 985.371 10.32 985.158 10.736 985.019C11.152 984.87 11.5893 984.795 12.048 984.795C12.6347 984.795 13.152 984.912 13.6 985.147C14.0587 985.382 14.4213 985.712 14.688 986.139C14.9547 986.566 15.088 987.072 15.088 987.659C15.088 988.075 15.0187 988.475 14.88 988.859C14.752 989.243 14.5653 989.622 14.32 989.995C14.0747 990.358 13.7867 990.726 13.456 991.099C13.1253 991.472 12.7573 991.862 12.352 992.267C11.9467 992.672 11.5147 993.104 11.056 993.563H14.384C14.5653 993.563 14.6933 993.552 14.768 993.531C14.8427 993.51 14.912 993.472 14.976 993.419H15.12V993.563V994.875H9.008V993.691ZM4.736 1018.88V1016.49H0.672V1015.42L5.072 1008.89H6.288V1015.21H7.584V1016.51H6.288V1018.88H4.736ZM2.32 1015.21H4.752V1011.47L2.32 1015.21ZM11.792 1019.05C11.2267 1019.05 10.6773 1018.96 10.144 1018.76C9.61067 1018.57 9.17333 1018.28 8.832 1017.88L9.696 1016.7L9.792 1016.57L9.904 1016.67C9.91467 1016.74 9.936 1016.82 9.968 1016.91C10 1016.99 10.0747 1017.1 10.192 1017.23C10.3947 1017.39 10.6187 1017.52 10.864 1017.63C11.1093 1017.72 11.392 1017.77 11.712 1017.77C12.0853 1017.77 12.3947 1017.7 12.64 1017.56C12.8853 1017.41 13.072 1017.21 13.2 1016.95C13.328 1016.69 13.392 1016.39 13.392 1016.06C13.392 1015.71 13.3333 1015.41 13.216 1015.18C13.0987 1014.93 12.9227 1014.74 12.688 1014.6C12.464 1014.46 12.1867 1014.37 11.856 1014.33C11.5253 1014.29 11.1467 1014.29 10.72 1014.33V1013.08C11.2 1013.09 11.6 1013.06 11.92 1012.97C12.24 1012.89 12.4853 1012.77 12.656 1012.62C12.8373 1012.46 12.96 1012.28 13.024 1012.07C13.0987 1011.87 13.136 1011.66 13.136 1011.43C13.136 1011.23 13.104 1011.05 13.04 1010.89C12.976 1010.72 12.8853 1010.58 12.768 1010.46C12.6507 1010.34 12.5067 1010.25 12.336 1010.19C12.176 1010.12 11.9947 1010.09 11.792 1010.09C11.5787 1010.09 11.3653 1010.12 11.152 1010.17C10.9387 1010.22 10.736 1010.31 10.544 1010.43C10.352 1010.53 10.1707 1010.68 10 1010.86L9.088 1009.93C9.46133 1009.51 9.888 1009.22 10.368 1009.05C10.8587 1008.88 11.344 1008.79 11.824 1008.79C12.4 1008.79 12.9013 1008.9 13.328 1009.11C13.7547 1009.33 14.0853 1009.63 14.32 1010.01C14.5653 1010.39 14.688 1010.83 14.688 1011.32C14.688 1011.69 14.6187 1012.02 14.48 1012.33C14.352 1012.63 14.1707 1012.89 13.936 1013.1C13.7013 1013.31 13.4293 1013.47 13.12 1013.58C13.4613 1013.69 13.7707 1013.85 14.048 1014.07C14.336 1014.3 14.5653 1014.58 14.736 1014.92C14.9067 1015.25 14.992 1015.65 14.992 1016.11C14.992 1016.65 14.864 1017.15 14.608 1017.59C14.352 1018.04 13.984 1018.4 13.504 1018.67C13.0347 1018.92 12.464 1019.05 11.792 1019.05ZM4.736 1042.88V1040.49H0.672V1039.42L5.072 1032.89H6.288V1039.21H7.584V1040.51H6.288V1042.88H4.736ZM2.32 1039.21H4.752V1035.47L2.32 1039.21ZM12.736 1042.88V1040.49H8.672V1039.42L13.072 1032.89H14.288V1039.21H15.584V1040.51H14.288V1042.88H12.736ZM10.32 1039.21H12.752V1035.47L10.32 1039.21ZM4.736 1066.88V1064.49H0.672V1063.42L5.072 1056.89H6.288V1063.21H7.584V1064.51H6.288V1066.88H4.736ZM2.32 1063.21H4.752V1059.47L2.32 1063.21ZM12.016 1067.05C11.3547 1067.05 10.752 1066.92 10.208 1066.67C9.664 1066.4 9.232 1066.01 8.912 1065.48L10.064 1064.59L10.176 1064.49L10.272 1064.59C10.2613 1064.67 10.272 1064.75 10.304 1064.83C10.3467 1064.9 10.4213 1065.01 10.528 1065.15C10.72 1065.35 10.9333 1065.5 11.168 1065.61C11.4133 1065.71 11.7013 1065.75 12.032 1065.75C12.2773 1065.75 12.5013 1065.71 12.704 1065.61C12.9173 1065.5 13.104 1065.36 13.264 1065.18C13.424 1065 13.5467 1064.78 13.632 1064.54C13.7173 1064.28 13.76 1064.01 13.76 1063.71C13.76 1063.39 13.7173 1063.1 13.632 1062.84C13.5467 1062.58 13.424 1062.35 13.264 1062.17C13.104 1061.99 12.912 1061.85 12.688 1061.75C12.4747 1061.65 12.2347 1061.59 11.968 1061.59C11.744 1061.59 11.5253 1061.63 11.312 1061.69C11.1093 1061.74 10.9173 1061.83 10.736 1061.96C10.5653 1062.09 10.4053 1062.25 10.256 1062.43L9.296 1062.14L9.632 1056.91H14.88V1058.22H10.96L10.816 1060.68C10.9653 1060.6 11.12 1060.53 11.28 1060.47C11.4507 1060.42 11.6213 1060.38 11.792 1060.36C11.9733 1060.33 12.144 1060.31 12.304 1060.31C12.7413 1060.31 13.1413 1060.39 13.504 1060.54C13.8667 1060.69 14.1813 1060.91 14.448 1061.19C14.7147 1061.47 14.9173 1061.82 15.056 1062.23C15.2053 1062.64 15.28 1063.11 15.28 1063.64C15.28 1064.35 15.136 1064.95 14.848 1065.47C14.5707 1065.98 14.1867 1066.37 13.696 1066.65C13.2053 1066.92 12.6453 1067.05 12.016 1067.05ZM4.736 1090.88V1088.49H0.672V1087.42L5.072 1080.89H6.288V1087.21H7.584V1088.51H6.288V1090.88H4.736ZM2.32 1087.21H4.752V1083.47L2.32 1087.21ZM12.16 1091.05C11.4667 1091.05 10.8747 1090.86 10.384 1090.47C9.904 1090.08 9.536 1089.53 9.28 1088.81C9.03467 1088.1 8.912 1087.26 8.912 1086.31C8.912 1085.13 9.06667 1084.13 9.376 1083.31C9.68533 1082.49 10.112 1081.86 10.656 1081.42C11.2107 1080.98 11.8453 1080.76 12.56 1080.76C12.9973 1080.76 13.424 1080.84 13.84 1080.99C14.2667 1081.14 14.6453 1081.38 14.976 1081.72L14.096 1082.73L13.984 1082.84L13.888 1082.75C13.8773 1082.66 13.8453 1082.59 13.792 1082.54C13.7493 1082.47 13.6533 1082.39 13.504 1082.28C13.4293 1082.24 13.3493 1082.21 13.264 1082.19C13.1787 1082.15 13.088 1082.13 12.992 1082.12C12.896 1082.1 12.7947 1082.09 12.688 1082.09C12.528 1082.09 12.3467 1082.12 12.144 1082.17C11.952 1082.22 11.76 1082.32 11.568 1082.46C11.3867 1082.59 11.2107 1082.77 11.04 1083.02C10.88 1083.25 10.7467 1083.56 10.64 1083.95C10.5333 1084.33 10.4693 1084.79 10.448 1085.34C10.5973 1085.14 10.7733 1084.97 10.976 1084.83C11.1893 1084.68 11.4133 1084.57 11.648 1084.49C11.8933 1084.41 12.1387 1084.36 12.384 1084.36C12.7787 1084.36 13.1413 1084.43 13.472 1084.57C13.8133 1084.71 14.112 1084.92 14.368 1085.19C14.624 1085.47 14.8213 1085.81 14.96 1086.22C15.1093 1086.62 15.184 1087.09 15.184 1087.61C15.184 1088.27 15.0507 1088.86 14.784 1089.39C14.5173 1089.91 14.16 1090.32 13.712 1090.62C13.264 1090.91 12.7467 1091.05 12.16 1091.05ZM12.208 1089.75C12.4107 1089.75 12.6027 1089.71 12.784 1089.61C12.9653 1089.5 13.1253 1089.36 13.264 1089.18C13.4027 1089 13.5093 1088.78 13.584 1088.52C13.6693 1088.26 13.712 1087.96 13.712 1087.63C13.712 1087.29 13.664 1086.99 13.568 1086.75C13.4827 1086.49 13.3653 1086.28 13.216 1086.12C13.0773 1085.95 12.9173 1085.83 12.736 1085.75C12.5547 1085.67 12.368 1085.63 12.176 1085.63C12.0053 1085.63 11.84 1085.66 11.68 1085.72C11.52 1085.78 11.3707 1085.86 11.232 1085.96C11.0933 1086.07 10.96 1086.19 10.832 1086.33C10.7147 1086.47 10.6027 1086.63 10.496 1086.81C10.4747 1087.19 10.496 1087.57 10.56 1087.93C10.6347 1088.28 10.7467 1088.6 10.896 1088.88C11.0453 1089.14 11.2267 1089.35 11.44 1089.51C11.664 1089.67 11.92 1089.75 12.208 1089.75ZM4.736 1114.88V1112.49H0.672V1111.42L5.072 1104.89H6.288V1111.21H7.584V1112.51H6.288V1114.88H4.736ZM2.32 1111.21H4.752V1107.47L2.32 1111.21ZM10.16 1114.88C10.4693 1113.88 10.784 1112.91 11.104 1111.96C11.4347 1111.01 11.7707 1110.07 12.112 1109.13C12.464 1108.19 12.8267 1107.25 13.2 1106.3H9.12V1104.91H15.04V1105.77C14.7307 1106.52 14.432 1107.26 14.144 1108.01C13.856 1108.75 13.5733 1109.49 13.296 1110.25C13.0293 1111.01 12.7733 1111.77 12.528 1112.54C12.2827 1113.3 12.0427 1114.07 11.808 1114.88H10.16ZM4.736 1138.88V1136.49H0.672V1135.42L5.072 1128.89H6.288V1135.21H7.584V1136.51H6.288V1138.88H4.736ZM2.32 1135.21H4.752V1131.47L2.32 1135.21ZM12 1139.05C11.3493 1139.05 10.7787 1138.93 10.288 1138.7C9.808 1138.45 9.43467 1138.13 9.168 1137.72C8.912 1137.31 8.784 1136.84 8.784 1136.33C8.784 1135.91 8.864 1135.54 9.024 1135.19C9.184 1134.85 9.408 1134.54 9.696 1134.27C9.984 1133.99 10.32 1133.75 10.704 1133.56C10.416 1133.39 10.16 1133.19 9.936 1132.95C9.72267 1132.72 9.552 1132.46 9.424 1132.17C9.30667 1131.88 9.248 1131.58 9.248 1131.27C9.248 1130.81 9.36 1130.38 9.584 1130.01C9.81867 1129.63 10.144 1129.32 10.56 1129.1C10.9867 1128.86 11.4933 1128.75 12.08 1128.75C12.7093 1128.75 13.2267 1128.86 13.632 1129.08C14.048 1129.3 14.3627 1129.59 14.576 1129.96C14.7893 1130.33 14.896 1130.73 14.896 1131.18C14.896 1131.43 14.864 1131.68 14.8 1131.91C14.736 1132.15 14.64 1132.37 14.512 1132.59C14.384 1132.79 14.2293 1132.98 14.048 1133.15C13.8773 1133.32 13.68 1133.47 13.456 1133.59C13.7333 1133.72 13.9787 1133.88 14.192 1134.07C14.416 1134.27 14.6027 1134.48 14.752 1134.71C14.912 1134.95 15.0293 1135.2 15.104 1135.47C15.1893 1135.72 15.232 1135.99 15.232 1136.27C15.232 1136.81 15.0987 1137.29 14.832 1137.71C14.5653 1138.12 14.1867 1138.45 13.696 1138.7C13.216 1138.93 12.6507 1139.05 12 1139.05ZM12.032 1137.71C12.3947 1137.71 12.6933 1137.64 12.928 1137.51C13.1733 1137.38 13.3547 1137.19 13.472 1136.97C13.6 1136.75 13.664 1136.49 13.664 1136.2C13.664 1135.98 13.616 1135.77 13.52 1135.56C13.4347 1135.36 13.3067 1135.17 13.136 1135C12.976 1134.82 12.7733 1134.66 12.528 1134.52C12.2933 1134.38 12.032 1134.27 11.744 1134.17C11.5413 1134.28 11.3547 1134.4 11.184 1134.54C11.0133 1134.67 10.864 1134.82 10.736 1134.99C10.6187 1135.16 10.5227 1135.34 10.448 1135.53C10.384 1135.72 10.352 1135.93 10.352 1136.15C10.352 1136.44 10.416 1136.7 10.544 1136.94C10.6827 1137.17 10.8747 1137.36 11.12 1137.5C11.376 1137.64 11.68 1137.71 12.032 1137.71ZM12.304 1133.08C12.4747 1132.98 12.624 1132.85 12.752 1132.71C12.8907 1132.58 13.008 1132.43 13.104 1132.28C13.2 1132.13 13.2693 1131.97 13.312 1131.8C13.3653 1131.63 13.392 1131.46 13.392 1131.29C13.392 1131.07 13.3387 1130.86 13.232 1130.68C13.136 1130.49 12.9867 1130.34 12.784 1130.22C12.5813 1130.1 12.336 1130.04 12.048 1130.04C11.76 1130.04 11.52 1130.1 11.328 1130.22C11.136 1130.33 10.992 1130.47 10.896 1130.65C10.8 1130.83 10.752 1131.03 10.752 1131.24C10.752 1131.46 10.7893 1131.65 10.864 1131.83C10.9493 1132.01 11.0613 1132.17 11.2 1132.31C11.3493 1132.46 11.5147 1132.6 11.696 1132.73C11.888 1132.86 12.0907 1132.98 12.304 1133.08ZM4.736 1162.88V1160.49H0.672V1159.42L5.072 1152.89H6.288V1159.21H7.584V1160.51H6.288V1162.88H4.736ZM2.32 1159.21H4.752V1155.47L2.32 1159.21ZM11.6 1163.05C11.1093 1163.05 10.64 1162.98 10.192 1162.84C9.75467 1162.69 9.35467 1162.46 8.992 1162.15L9.824 1160.99L9.936 1160.86L10.048 1160.95C10.0587 1161.03 10.0853 1161.1 10.128 1161.18C10.1707 1161.25 10.2613 1161.34 10.4 1161.45C10.56 1161.56 10.7307 1161.64 10.912 1161.69C11.104 1161.73 11.3067 1161.75 11.52 1161.75C11.872 1161.75 12.1813 1161.65 12.448 1161.45C12.7147 1161.25 12.9333 1160.97 13.104 1160.62C13.2853 1160.27 13.4187 1159.86 13.504 1159.39C13.6 1158.92 13.6533 1158.42 13.664 1157.9C13.664 1156.98 13.6053 1156.25 13.488 1155.69C13.3707 1155.13 13.184 1154.71 12.928 1154.46C12.672 1154.2 12.352 1154.07 11.968 1154.07C11.7227 1154.07 11.4987 1154.12 11.296 1154.22C11.104 1154.31 10.9333 1154.45 10.784 1154.63C10.6453 1154.82 10.5387 1155.03 10.464 1155.29C10.3893 1155.55 10.352 1155.84 10.352 1156.17C10.352 1156.46 10.3893 1156.71 10.464 1156.94C10.5493 1157.16 10.6667 1157.35 10.816 1157.5C10.9653 1157.65 11.136 1157.77 11.328 1157.85C11.5307 1157.93 11.744 1157.96 11.968 1157.96C12.2667 1157.96 12.5333 1157.93 12.768 1157.87C13.0133 1157.79 13.232 1157.67 13.424 1157.51C13.6267 1157.34 13.8027 1157.12 13.952 1156.84L14.112 1158.25C13.9413 1158.45 13.744 1158.63 13.52 1158.78C13.296 1158.93 13.0453 1159.05 12.768 1159.13C12.4907 1159.22 12.1867 1159.26 11.856 1159.26C11.4293 1159.26 11.0347 1159.18 10.672 1159.03C10.3093 1158.89 9.98933 1158.68 9.712 1158.41C9.44533 1158.13 9.23733 1157.8 9.088 1157.42C8.93867 1157.03 8.864 1156.6 8.864 1156.12C8.864 1155.65 8.944 1155.22 9.104 1154.81C9.264 1154.41 9.48267 1154.05 9.76 1153.75C10.048 1153.45 10.3787 1153.21 10.752 1153.05C11.136 1152.88 11.5467 1152.79 11.984 1152.79C12.656 1152.79 13.2267 1152.98 13.696 1153.34C14.1653 1153.69 14.5173 1154.2 14.752 1154.88C14.9973 1155.54 15.12 1156.34 15.12 1157.27C15.12 1158.54 14.9813 1159.61 14.704 1160.46C14.4267 1161.31 14.0267 1161.96 13.504 1162.39C12.9813 1162.82 12.3467 1163.04 11.6 1163.05ZM4.016 1187.05C3.35467 1187.05 2.752 1186.92 2.208 1186.67C1.664 1186.4 1.232 1186.01 0.912 1185.48L2.064 1184.59L2.176 1184.49L2.272 1184.59C2.26133 1184.67 2.272 1184.75 2.304 1184.83C2.34667 1184.9 2.42133 1185.01 2.528 1185.15C2.72 1185.35 2.93333 1185.5 3.168 1185.61C3.41333 1185.71 3.70133 1185.75 4.032 1185.75C4.27733 1185.75 4.50133 1185.71 4.704 1185.61C4.91733 1185.5 5.104 1185.36 5.264 1185.18C5.424 1185 5.54667 1184.78 5.632 1184.54C5.71733 1184.28 5.76 1184.01 5.76 1183.71C5.76 1183.39 5.71733 1183.1 5.632 1182.84C5.54667 1182.58 5.424 1182.35 5.264 1182.17C5.104 1181.99 4.912 1181.85 4.688 1181.75C4.47467 1181.65 4.23467 1181.59 3.968 1181.59C3.744 1181.59 3.52533 1181.63 3.312 1181.69C3.10933 1181.74 2.91733 1181.83 2.736 1181.96C2.56533 1182.09 2.40533 1182.25 2.256 1182.43L1.296 1182.14L1.632 1176.91H6.88V1178.22H2.96L2.816 1180.68C2.96533 1180.6 3.12 1180.53 3.28 1180.47C3.45067 1180.42 3.62133 1180.38 3.792 1180.36C3.97333 1180.33 4.144 1180.31 4.304 1180.31C4.74133 1180.31 5.14133 1180.39 5.504 1180.54C5.86667 1180.69 6.18133 1180.91 6.448 1181.19C6.71467 1181.47 6.91733 1181.82 7.056 1182.23C7.20533 1182.64 7.28 1183.11 7.28 1183.64C7.28 1184.35 7.136 1184.95 6.848 1185.47C6.57067 1185.98 6.18667 1186.37 5.696 1186.65C5.20533 1186.92 4.64533 1187.05 4.016 1187.05ZM9.712 1184.07L13.968 1178.89L14.304 1179.93L10.048 1185.08L9.712 1184.07ZM12 1187.05C11.3173 1187.05 10.7253 1186.85 10.224 1186.46C9.73333 1186.06 9.35467 1185.49 9.088 1184.73C8.832 1183.96 8.704 1183.03 8.704 1181.95C8.704 1180.87 8.832 1179.95 9.088 1179.18C9.35467 1178.41 9.73333 1177.82 10.224 1177.42C10.7253 1177 11.3173 1176.79 12 1176.79C12.6827 1176.79 13.2693 1177 13.76 1177.42C14.2613 1177.82 14.64 1178.41 14.896 1179.18C15.1627 1179.95 15.296 1180.87 15.296 1181.95C15.296 1183.03 15.1627 1183.96 14.896 1184.73C14.64 1185.49 14.2613 1186.06 13.76 1186.46C13.2693 1186.85 12.6827 1187.05 12 1187.05ZM12 1185.82C12.3947 1185.82 12.72 1185.67 12.976 1185.37C13.2427 1185.06 13.4453 1184.62 13.584 1184.04C13.7227 1183.47 13.792 1182.77 13.792 1181.95C13.792 1181.15 13.7227 1180.46 13.584 1179.88C13.4453 1179.31 13.2427 1178.86 12.976 1178.55C12.72 1178.23 12.3947 1178.07 12 1178.07C11.616 1178.07 11.2907 1178.23 11.024 1178.55C10.7573 1178.86 10.5547 1179.31 10.416 1179.88C10.2773 1180.46 10.208 1181.15 10.208 1181.95C10.208 1182.77 10.2773 1183.47 10.416 1184.04C10.5547 1184.62 10.7573 1185.06 11.024 1185.37C11.2907 1185.67 11.616 1185.82 12 1185.82Z" fill="white" fill-opacity="0.1"/>
</svg>
