<svg width="765" height="752" viewBox="0 0 765 752" fill="none" xmlns="http://www.w3.org/2000/svg">
<line x1="107.5" y1="664" x2="107.5" y2="13" stroke="white"/>
<line x1="108" y1="13.5" x2="765" y2="13.5" stroke="white"/>
<line x1="108" y1="78.5" x2="765" y2="78.5" stroke="white"/>
<line x1="108" y1="143.5" x2="765" y2="143.5" stroke="white"/>
<line x1="108" y1="208.5" x2="765" y2="208.5" stroke="white"/>
<line x1="108" y1="273.5" x2="765" y2="273.5" stroke="white"/>
<line x1="108" y1="338.5" x2="765" y2="338.5" stroke="white"/>
<line x1="108" y1="403.5" x2="765" y2="403.5" stroke="white"/>
<line x1="108" y1="468.5" x2="765" y2="468.5" stroke="white"/>
<line x1="108" y1="533.5" x2="765" y2="533.5" stroke="white"/>
<line x1="108" y1="598.5" x2="765" y2="598.5" stroke="white"/>
<line x1="108" y1="663.5" x2="765" y2="663.5" stroke="white"/>
<line x1="764.5" y1="664" x2="764.5" y2="13" stroke="white"/>
<path d="M55.8409 18.1591C55.1742 18.1591 54.5739 18.0265 54.0398 17.7614C53.5057 17.4962 53.0777 17.1326 52.7557 16.6705C52.4337 16.2083 52.2576 15.6818 52.2273 15.0909H53.5909C53.6439 15.6174 53.8826 16.053 54.3068 16.3977C54.7348 16.7386 55.2462 16.9091 55.8409 16.9091C56.3182 16.9091 56.7424 16.7973 57.1136 16.5739C57.4886 16.3504 57.7822 16.0436 57.9943 15.6534C58.2102 15.2595 58.3182 14.8144 58.3182 14.3182C58.3182 13.8106 58.2064 13.358 57.983 12.9602C57.7633 12.5587 57.4602 12.2424 57.0739 12.0114C56.6875 11.7803 56.2462 11.6629 55.75 11.6591C55.3939 11.6553 55.0284 11.7102 54.6534 11.8239C54.2784 11.9337 53.9697 12.0758 53.7273 12.25L52.4091 12.0909L53.1136 6.36364H59.1591V7.61364H54.2955L53.8864 11.0455H53.9545C54.1932 10.8561 54.4924 10.6989 54.8523 10.5739C55.2121 10.4489 55.5871 10.3864 55.9773 10.3864C56.6894 10.3864 57.3239 10.5568 57.8807 10.8977C58.4413 11.2348 58.8807 11.697 59.1989 12.2841C59.5208 12.8712 59.6818 13.5417 59.6818 14.2955C59.6818 15.0379 59.5152 15.7008 59.1818 16.2841C58.8523 16.8636 58.3977 17.322 57.8182 17.6591C57.2386 17.9924 56.5795 18.1591 55.8409 18.1591ZM65.4144 18.1591C64.5583 18.1591 63.8291 17.9261 63.2269 17.4602C62.6246 16.9905 62.1644 16.3106 61.8462 15.4205C61.528 14.5265 61.3689 13.447 61.3689 12.1818C61.3689 10.9242 61.528 9.85038 61.8462 8.96023C62.1682 8.06629 62.6303 7.38447 63.2326 6.91477C63.8386 6.44129 64.5659 6.20455 65.4144 6.20455C66.2629 6.20455 66.9882 6.44129 67.5905 6.91477C68.1966 7.38447 68.6587 8.06629 68.9769 8.96023C69.2988 9.85038 69.4598 10.9242 69.4598 12.1818C69.4598 13.447 69.3007 14.5265 68.9826 15.4205C68.6644 16.3106 68.2041 16.9905 67.6019 17.4602C66.9996 17.9261 66.2704 18.1591 65.4144 18.1591ZM65.4144 16.9091C66.2629 16.9091 66.922 16.5 67.3916 15.6818C67.8613 14.8636 68.0962 13.697 68.0962 12.1818C68.0962 11.1742 67.9882 10.3163 67.7723 9.60795C67.5602 8.89962 67.2534 8.35985 66.8519 7.98864C66.4541 7.61742 65.975 7.43182 65.4144 7.43182C64.5735 7.43182 63.9163 7.84659 63.4428 8.67614C62.9693 9.50189 62.7326 10.6705 62.7326 12.1818C62.7326 13.1894 62.8386 14.0455 63.0507 14.75C63.2629 15.4545 63.5678 15.9905 63.9655 16.358C64.367 16.7254 64.85 16.9091 65.4144 16.9091ZM75.0944 18.1591C74.2383 18.1591 73.5091 17.9261 72.9069 17.4602C72.3046 16.9905 71.8444 16.3106 71.5262 15.4205C71.208 14.5265 71.0489 13.447 71.0489 12.1818C71.0489 10.9242 71.208 9.85038 71.5262 8.96023C71.8482 8.06629 72.3103 7.38447 72.9126 6.91477C73.5186 6.44129 74.2459 6.20455 75.0944 6.20455C75.9429 6.20455 76.6682 6.44129 77.2705 6.91477C77.8766 7.38447 78.3387 8.06629 78.6569 8.96023C78.9788 9.85038 79.1398 10.9242 79.1398 12.1818C79.1398 13.447 78.9807 14.5265 78.6626 15.4205C78.3444 16.3106 77.8841 16.9905 77.2819 17.4602C76.6796 17.9261 75.9504 18.1591 75.0944 18.1591ZM75.0944 16.9091C75.9429 16.9091 76.602 16.5 77.0716 15.6818C77.5413 14.8636 77.7762 13.697 77.7762 12.1818C77.7762 11.1742 77.6682 10.3163 77.4523 9.60795C77.2402 8.89962 76.9334 8.35985 76.5319 7.98864C76.1341 7.61742 75.655 7.43182 75.0944 7.43182C74.2535 7.43182 73.5963 7.84659 73.1228 8.67614C72.6493 9.50189 72.4126 10.6705 72.4126 12.1818C72.4126 13.1894 72.5186 14.0455 72.7307 14.75C72.9429 15.4545 73.2478 15.9905 73.6455 16.358C74.047 16.7254 74.53 16.9091 75.0944 16.9091Z" fill="white"/>
<path d="M51.9318 80.6136V79.4545L57.0455 71.3636H57.8864V73.1591H57.3182L53.4545 79.2727V79.3636H60.3409V80.6136H51.9318ZM57.4091 83V80.2614V79.7216V71.3636H58.75V83H57.4091ZM65.7865 83.1591C65.1199 83.1591 64.5195 83.0265 63.9854 82.7614C63.4513 82.4962 63.0233 82.1326 62.7013 81.6705C62.3793 81.2083 62.2032 80.6818 62.1729 80.0909H63.5365C63.5896 80.6174 63.8282 81.053 64.2524 81.3977C64.6805 81.7386 65.1918 81.9091 65.7865 81.9091C66.2638 81.9091 66.688 81.7973 67.0593 81.5739C67.4343 81.3504 67.7278 81.0436 67.9399 80.6534C68.1559 80.2595 68.2638 79.8144 68.2638 79.3182C68.2638 78.8106 68.1521 78.358 67.9286 77.9602C67.7089 77.5587 67.4059 77.2424 67.0195 77.0114C66.6331 76.7803 66.1918 76.6629 65.6956 76.6591C65.3396 76.6553 64.974 76.7102 64.599 76.8239C64.224 76.9337 63.9153 77.0758 63.6729 77.25L62.3547 77.0909L63.0593 71.3636H69.1047V72.6136H64.2411L63.832 76.0455H63.9002C64.1388 75.8561 64.438 75.6989 64.7979 75.5739C65.1577 75.4489 65.5327 75.3864 65.9229 75.3864C66.635 75.3864 67.2695 75.5568 67.8263 75.8977C68.3869 76.2348 68.8263 76.697 69.1445 77.2841C69.4665 77.8712 69.6274 78.5417 69.6274 79.2955C69.6274 80.0379 69.4608 80.7008 69.1274 81.2841C68.7979 81.8636 68.3434 82.322 67.7638 82.6591C67.1843 82.9924 66.5252 83.1591 65.7865 83.1591ZM75.36 83.1591C74.5039 83.1591 73.7748 82.9261 73.1725 82.4602C72.5702 81.9905 72.11 81.3106 71.7918 80.4205C71.4736 79.5265 71.3145 78.447 71.3145 77.1818C71.3145 75.9242 71.4736 74.8504 71.7918 73.9602C72.1138 73.0663 72.5759 72.3845 73.1782 71.9148C73.7842 71.4413 74.5115 71.2045 75.36 71.2045C76.2085 71.2045 76.9339 71.4413 77.5361 71.9148C78.1422 72.3845 78.6043 73.0663 78.9225 73.9602C79.2445 74.8504 79.4055 75.9242 79.4055 77.1818C79.4055 78.447 79.2464 79.5265 78.9282 80.4205C78.61 81.3106 78.1498 81.9905 77.5475 82.4602C76.9452 82.9261 76.2161 83.1591 75.36 83.1591ZM75.36 81.9091C76.2085 81.9091 76.8676 81.5 77.3373 80.6818C77.807 79.8636 78.0418 78.697 78.0418 77.1818C78.0418 76.1742 77.9339 75.3163 77.718 74.608C77.5058 73.8996 77.199 73.3598 76.7975 72.9886C76.3998 72.6174 75.9206 72.4318 75.36 72.4318C74.5191 72.4318 73.8619 72.8466 73.3884 73.6761C72.9149 74.5019 72.6782 75.6705 72.6782 77.1818C72.6782 78.1894 72.7842 79.0455 72.9964 79.75C73.2085 80.4545 73.5134 80.9905 73.9111 81.358C74.3127 81.7254 74.7956 81.9091 75.36 81.9091Z" fill="white"/>
<path d="M51.9318 145.614V144.455L57.0455 136.364H57.8864V138.159H57.3182L53.4545 144.273V144.364H60.3409V145.614H51.9318ZM57.4091 148V145.261V144.722V136.364H58.75V148H57.4091ZM65.9456 148.159C65.0896 148.159 64.3604 147.926 63.7581 147.46C63.1559 146.991 62.6956 146.311 62.3774 145.42C62.0593 144.527 61.9002 143.447 61.9002 142.182C61.9002 140.924 62.0593 139.85 62.3774 138.96C62.6994 138.066 63.1615 137.384 63.7638 136.915C64.3699 136.441 65.0971 136.205 65.9456 136.205C66.7941 136.205 67.5195 136.441 68.1218 136.915C68.7278 137.384 69.1899 138.066 69.5081 138.96C69.8301 139.85 69.9911 140.924 69.9911 142.182C69.9911 143.447 69.832 144.527 69.5138 145.42C69.1956 146.311 68.7354 146.991 68.1331 147.46C67.5309 147.926 66.8017 148.159 65.9456 148.159ZM65.9456 146.909C66.7941 146.909 67.4532 146.5 67.9229 145.682C68.3926 144.864 68.6274 143.697 68.6274 142.182C68.6274 141.174 68.5195 140.316 68.3036 139.608C68.0915 138.9 67.7846 138.36 67.3831 137.989C66.9854 137.617 66.5062 137.432 65.9456 137.432C65.1047 137.432 64.4475 137.847 63.974 138.676C63.5005 139.502 63.2638 140.67 63.2638 142.182C63.2638 143.189 63.3699 144.045 63.582 144.75C63.7941 145.455 64.099 145.991 64.4968 146.358C64.8983 146.725 65.3812 146.909 65.9456 146.909ZM75.6256 148.159C74.7696 148.159 74.0404 147.926 73.4381 147.46C72.8359 146.991 72.3756 146.311 72.0574 145.42C71.7393 144.527 71.5802 143.447 71.5802 142.182C71.5802 140.924 71.7393 139.85 72.0574 138.96C72.3794 138.066 72.8415 137.384 73.4438 136.915C74.0499 136.441 74.7771 136.205 75.6256 136.205C76.4741 136.205 77.1995 136.441 77.8018 136.915C78.4078 137.384 78.8699 138.066 79.1881 138.96C79.5101 139.85 79.6711 140.924 79.6711 142.182C79.6711 143.447 79.512 144.527 79.1938 145.42C78.8756 146.311 78.4154 146.991 77.8131 147.46C77.2109 147.926 76.4817 148.159 75.6256 148.159ZM75.6256 146.909C76.4741 146.909 77.1332 146.5 77.6029 145.682C78.0726 144.864 78.3074 143.697 78.3074 142.182C78.3074 141.174 78.1995 140.316 77.9836 139.608C77.7715 138.9 77.4646 138.36 77.0631 137.989C76.6654 137.617 76.1862 137.432 75.6256 137.432C74.7847 137.432 74.1275 137.847 73.654 138.676C73.1806 139.502 72.9438 140.67 72.9438 142.182C72.9438 143.189 73.0499 144.045 73.262 144.75C73.4741 145.455 73.779 145.991 74.1768 146.358C74.5783 146.725 75.0612 146.909 75.6256 146.909Z" fill="white"/>
<path d="M56.1364 213.159C55.3864 213.159 54.7178 213.03 54.1307 212.773C53.5473 212.515 53.0833 212.157 52.7386 211.699C52.3977 211.237 52.2121 210.701 52.1818 210.091H53.6136C53.6439 210.466 53.7727 210.79 54 211.062C54.2273 211.331 54.5246 211.54 54.892 211.688C55.2595 211.835 55.6667 211.909 56.1136 211.909C56.6136 211.909 57.0568 211.822 57.4432 211.648C57.8295 211.473 58.1326 211.231 58.3523 210.92C58.572 210.61 58.6818 210.25 58.6818 209.841C58.6818 209.413 58.5758 209.036 58.3636 208.71C58.1515 208.381 57.8409 208.123 57.4318 207.938C57.0227 207.752 56.5227 207.659 55.9318 207.659H55V206.409H55.9318C56.3939 206.409 56.7992 206.326 57.1477 206.159C57.5 205.992 57.7746 205.758 57.9716 205.455C58.1723 205.152 58.2727 204.795 58.2727 204.386C58.2727 203.992 58.1856 203.65 58.0114 203.358C57.8371 203.066 57.5909 202.839 57.2727 202.676C56.9583 202.513 56.5871 202.432 56.1591 202.432C55.7576 202.432 55.3788 202.506 55.0227 202.653C54.6705 202.797 54.3826 203.008 54.1591 203.284C53.9356 203.557 53.8144 203.886 53.7955 204.273H52.4318C52.4545 203.663 52.6383 203.129 52.983 202.67C53.3277 202.208 53.7784 201.848 54.3352 201.591C54.8958 201.333 55.5114 201.205 56.1818 201.205C56.9015 201.205 57.5189 201.35 58.0341 201.642C58.5492 201.93 58.9451 202.311 59.2216 202.784C59.4981 203.258 59.6364 203.769 59.6364 204.318C59.6364 204.973 59.464 205.532 59.1193 205.994C58.7784 206.456 58.3144 206.777 57.7273 206.955V207.045C58.4621 207.167 59.036 207.479 59.4489 207.983C59.8617 208.483 60.0682 209.102 60.0682 209.841C60.0682 210.473 59.8958 211.042 59.5511 211.545C59.2102 212.045 58.7443 212.439 58.1534 212.727C57.5625 213.015 56.8902 213.159 56.1364 213.159ZM65.7084 213.159C65.0417 213.159 64.4414 213.027 63.9073 212.761C63.3732 212.496 62.9452 212.133 62.6232 211.67C62.3012 211.208 62.1251 210.682 62.0948 210.091H63.4584C63.5114 210.617 63.7501 211.053 64.1743 211.398C64.6023 211.739 65.1137 211.909 65.7084 211.909C66.1857 211.909 66.6099 211.797 66.9811 211.574C67.3561 211.35 67.6497 211.044 67.8618 210.653C68.0777 210.259 68.1857 209.814 68.1857 209.318C68.1857 208.811 68.0739 208.358 67.8505 207.96C67.6308 207.559 67.3277 207.242 66.9414 207.011C66.555 206.78 66.1137 206.663 65.6175 206.659C65.2614 206.655 64.8959 206.71 64.5209 206.824C64.1459 206.934 63.8372 207.076 63.5948 207.25L62.2766 207.091L62.9811 201.364H69.0266V202.614H64.163L63.7539 206.045H63.822C64.0607 205.856 64.3599 205.699 64.7198 205.574C65.0796 205.449 65.4546 205.386 65.8448 205.386C66.5569 205.386 67.1914 205.557 67.7482 205.898C68.3088 206.235 68.7482 206.697 69.0664 207.284C69.3883 207.871 69.5493 208.542 69.5493 209.295C69.5493 210.038 69.3827 210.701 69.0493 211.284C68.7198 211.864 68.2652 212.322 67.6857 212.659C67.1061 212.992 66.447 213.159 65.7084 213.159ZM75.2819 213.159C74.4258 213.159 73.6966 212.926 73.0944 212.46C72.4921 211.991 72.0319 211.311 71.7137 210.42C71.3955 209.527 71.2364 208.447 71.2364 207.182C71.2364 205.924 71.3955 204.85 71.7137 203.96C72.0357 203.066 72.4978 202.384 73.1001 201.915C73.7061 201.441 74.4334 201.205 75.2819 201.205C76.1304 201.205 76.8557 201.441 77.458 201.915C78.0641 202.384 78.5262 203.066 78.8444 203.96C79.1663 204.85 79.3273 205.924 79.3273 207.182C79.3273 208.447 79.1682 209.527 78.8501 210.42C78.5319 211.311 78.0716 211.991 77.4694 212.46C76.8671 212.926 76.1379 213.159 75.2819 213.159ZM75.2819 211.909C76.1304 211.909 76.7895 211.5 77.2591 210.682C77.7288 209.864 77.9637 208.697 77.9637 207.182C77.9637 206.174 77.8557 205.316 77.6398 204.608C77.4277 203.9 77.1209 203.36 76.7194 202.989C76.3216 202.617 75.8425 202.432 75.2819 202.432C74.441 202.432 73.7838 202.847 73.3103 203.676C72.8368 204.502 72.6001 205.67 72.6001 207.182C72.6001 208.189 72.7061 209.045 72.9182 209.75C73.1304 210.455 73.4353 210.991 73.833 211.358C74.2345 211.725 74.7175 211.909 75.2819 211.909Z" fill="white"/>
<path d="M56.1364 278.159C55.3864 278.159 54.7178 278.03 54.1307 277.773C53.5473 277.515 53.0833 277.157 52.7386 276.699C52.3977 276.237 52.2121 275.701 52.1818 275.091H53.6136C53.6439 275.466 53.7727 275.79 54 276.062C54.2273 276.331 54.5246 276.54 54.892 276.688C55.2595 276.835 55.6667 276.909 56.1136 276.909C56.6136 276.909 57.0568 276.822 57.4432 276.648C57.8295 276.473 58.1326 276.231 58.3523 275.92C58.572 275.61 58.6818 275.25 58.6818 274.841C58.6818 274.413 58.5758 274.036 58.3636 273.71C58.1515 273.381 57.8409 273.123 57.4318 272.938C57.0227 272.752 56.5227 272.659 55.9318 272.659H55V271.409H55.9318C56.3939 271.409 56.7992 271.326 57.1477 271.159C57.5 270.992 57.7746 270.758 57.9716 270.455C58.1723 270.152 58.2727 269.795 58.2727 269.386C58.2727 268.992 58.1856 268.65 58.0114 268.358C57.8371 268.066 57.5909 267.839 57.2727 267.676C56.9583 267.513 56.5871 267.432 56.1591 267.432C55.7576 267.432 55.3788 267.506 55.0227 267.653C54.6705 267.797 54.3826 268.008 54.1591 268.284C53.9356 268.557 53.8144 268.886 53.7955 269.273H52.4318C52.4545 268.663 52.6383 268.129 52.983 267.67C53.3277 267.208 53.7784 266.848 54.3352 266.591C54.8958 266.333 55.5114 266.205 56.1818 266.205C56.9015 266.205 57.5189 266.35 58.0341 266.642C58.5492 266.93 58.9451 267.311 59.2216 267.784C59.4981 268.258 59.6364 268.769 59.6364 269.318C59.6364 269.973 59.464 270.532 59.1193 270.994C58.7784 271.456 58.3144 271.777 57.7273 271.955V272.045C58.4621 272.167 59.036 272.479 59.4489 272.983C59.8617 273.483 60.0682 274.102 60.0682 274.841C60.0682 275.473 59.8958 276.042 59.5511 276.545C59.2102 277.045 58.7443 277.439 58.1534 277.727C57.5625 278.015 56.8902 278.159 56.1364 278.159ZM65.8675 278.159C65.0114 278.159 64.2823 277.926 63.68 277.46C63.0777 276.991 62.6175 276.311 62.2993 275.42C61.9811 274.527 61.822 273.447 61.822 272.182C61.822 270.924 61.9811 269.85 62.2993 268.96C62.6213 268.066 63.0834 267.384 63.6857 266.915C64.2917 266.441 65.019 266.205 65.8675 266.205C66.716 266.205 67.4414 266.441 68.0436 266.915C68.6497 267.384 69.1118 268.066 69.43 268.96C69.752 269.85 69.913 270.924 69.913 272.182C69.913 273.447 69.7539 274.527 69.4357 275.42C69.1175 276.311 68.6573 276.991 68.055 277.46C67.4527 277.926 66.7236 278.159 65.8675 278.159ZM65.8675 276.909C66.716 276.909 67.3751 276.5 67.8448 275.682C68.3145 274.864 68.5493 273.697 68.5493 272.182C68.5493 271.174 68.4414 270.316 68.2255 269.608C68.0133 268.9 67.7065 268.36 67.305 267.989C66.9073 267.617 66.4281 267.432 65.8675 267.432C65.0266 267.432 64.3694 267.847 63.8959 268.676C63.4224 269.502 63.1857 270.67 63.1857 272.182C63.1857 273.189 63.2917 274.045 63.5039 274.75C63.716 275.455 64.0209 275.991 64.4186 276.358C64.8202 276.725 65.3031 276.909 65.8675 276.909ZM75.5475 278.159C74.6914 278.159 73.9623 277.926 73.36 277.46C72.7577 276.991 72.2975 276.311 71.9793 275.42C71.6611 274.527 71.502 273.447 71.502 272.182C71.502 270.924 71.6611 269.85 71.9793 268.96C72.3013 268.066 72.7634 267.384 73.3657 266.915C73.9717 266.441 74.699 266.205 75.5475 266.205C76.396 266.205 77.1214 266.441 77.7236 266.915C78.3297 267.384 78.7918 268.066 79.11 268.96C79.432 269.85 79.593 270.924 79.593 272.182C79.593 273.447 79.4339 274.527 79.1157 275.42C78.7975 276.311 78.3373 276.991 77.735 277.46C77.1327 277.926 76.4036 278.159 75.5475 278.159ZM75.5475 276.909C76.396 276.909 77.0551 276.5 77.5248 275.682C77.9945 274.864 78.2293 273.697 78.2293 272.182C78.2293 271.174 78.1214 270.316 77.9055 269.608C77.6933 268.9 77.3865 268.36 76.985 267.989C76.5873 267.617 76.1081 267.432 75.5475 267.432C74.7066 267.432 74.0494 267.847 73.5759 268.676C73.1024 269.502 72.8657 270.67 72.8657 272.182C72.8657 273.189 72.9717 274.045 73.1839 274.75C73.396 275.455 73.7009 275.991 74.0986 276.358C74.5002 276.725 74.9831 276.909 75.5475 276.909Z" fill="white"/>
<path d="M53.2045 343V341.977L57.0455 337.773C57.4962 337.28 57.8674 336.852 58.1591 336.489C58.4508 336.121 58.6667 335.777 58.8068 335.455C58.9508 335.129 59.0227 334.788 59.0227 334.432C59.0227 334.023 58.9242 333.669 58.7273 333.369C58.5341 333.07 58.2689 332.839 57.9318 332.676C57.5947 332.513 57.2159 332.432 56.7955 332.432C56.3485 332.432 55.9583 332.525 55.625 332.71C55.2955 332.892 55.0398 333.148 54.858 333.477C54.6799 333.807 54.5909 334.193 54.5909 334.636H53.25C53.25 333.955 53.4072 333.356 53.7216 332.841C54.036 332.326 54.464 331.924 55.0057 331.636C55.5511 331.348 56.1629 331.205 56.8409 331.205C57.5227 331.205 58.1269 331.348 58.6534 331.636C59.1799 331.924 59.5928 332.312 59.892 332.801C60.1913 333.29 60.3409 333.833 60.3409 334.432C60.3409 334.86 60.2633 335.278 60.108 335.688C59.9564 336.093 59.6913 336.545 59.3125 337.045C58.9375 337.542 58.4167 338.148 57.75 338.864L55.1364 341.659V341.75H60.5455V343H53.2045ZM66.2084 343.159C65.5417 343.159 64.9414 343.027 64.4073 342.761C63.8732 342.496 63.4452 342.133 63.1232 341.67C62.8012 341.208 62.6251 340.682 62.5948 340.091H63.9584C64.0114 340.617 64.2501 341.053 64.6743 341.398C65.1023 341.739 65.6137 341.909 66.2084 341.909C66.6857 341.909 67.1099 341.797 67.4811 341.574C67.8561 341.35 68.1497 341.044 68.3618 340.653C68.5777 340.259 68.6857 339.814 68.6857 339.318C68.6857 338.811 68.5739 338.358 68.3505 337.96C68.1308 337.559 67.8277 337.242 67.4414 337.011C67.055 336.78 66.6137 336.663 66.1175 336.659C65.7614 336.655 65.3959 336.71 65.0209 336.824C64.6459 336.934 64.3372 337.076 64.0948 337.25L62.7766 337.091L63.4811 331.364H69.5266V332.614H64.663L64.2539 336.045H64.322C64.5607 335.856 64.8599 335.699 65.2198 335.574C65.5796 335.449 65.9546 335.386 66.3448 335.386C67.0569 335.386 67.6914 335.557 68.2482 335.898C68.8088 336.235 69.2482 336.697 69.5664 337.284C69.8883 337.871 70.0493 338.542 70.0493 339.295C70.0493 340.038 69.8827 340.701 69.5493 341.284C69.2198 341.864 68.7652 342.322 68.1857 342.659C67.6061 342.992 66.947 343.159 66.2084 343.159ZM75.7819 343.159C74.9258 343.159 74.1966 342.926 73.5944 342.46C72.9921 341.991 72.5319 341.311 72.2137 340.42C71.8955 339.527 71.7364 338.447 71.7364 337.182C71.7364 335.924 71.8955 334.85 72.2137 333.96C72.5357 333.066 72.9978 332.384 73.6001 331.915C74.2061 331.441 74.9334 331.205 75.7819 331.205C76.6304 331.205 77.3557 331.441 77.958 331.915C78.5641 332.384 79.0262 333.066 79.3444 333.96C79.6663 334.85 79.8273 335.924 79.8273 337.182C79.8273 338.447 79.6682 339.527 79.3501 340.42C79.0319 341.311 78.5716 341.991 77.9694 342.46C77.3671 342.926 76.6379 343.159 75.7819 343.159ZM75.7819 341.909C76.6304 341.909 77.2895 341.5 77.7591 340.682C78.2288 339.864 78.4637 338.697 78.4637 337.182C78.4637 336.174 78.3557 335.316 78.1398 334.608C77.9277 333.9 77.6209 333.36 77.2194 332.989C76.8216 332.617 76.3425 332.432 75.7819 332.432C74.941 332.432 74.2838 332.847 73.8103 333.676C73.3368 334.502 73.1001 335.67 73.1001 337.182C73.1001 338.189 73.2061 339.045 73.4182 339.75C73.6304 340.455 73.9353 340.991 74.333 341.358C74.7345 341.725 75.2175 341.909 75.7819 341.909Z" fill="white"/>
<path d="M52.2045 408V406.977L56.0455 402.773C56.4962 402.28 56.8674 401.852 57.1591 401.489C57.4508 401.121 57.6667 400.777 57.8068 400.455C57.9508 400.129 58.0227 399.788 58.0227 399.432C58.0227 399.023 57.9242 398.669 57.7273 398.369C57.5341 398.07 57.2689 397.839 56.9318 397.676C56.5947 397.513 56.2159 397.432 55.7955 397.432C55.3485 397.432 54.9583 397.525 54.625 397.71C54.2955 397.892 54.0398 398.148 53.858 398.477C53.6799 398.807 53.5909 399.193 53.5909 399.636H52.25C52.25 398.955 52.4072 398.356 52.7216 397.841C53.036 397.326 53.464 396.924 54.0057 396.636C54.5511 396.348 55.1629 396.205 55.8409 396.205C56.5227 396.205 57.1269 396.348 57.6534 396.636C58.1799 396.924 58.5928 397.312 58.892 397.801C59.1913 398.29 59.3409 398.833 59.3409 399.432C59.3409 399.86 59.2633 400.278 59.108 400.688C58.9564 401.093 58.6913 401.545 58.3125 402.045C57.9375 402.542 57.4167 403.148 56.75 403.864L54.1364 406.659V406.75H59.5455V408H52.2045ZM65.3675 408.159C64.5114 408.159 63.7823 407.926 63.18 407.46C62.5777 406.991 62.1175 406.311 61.7993 405.42C61.4811 404.527 61.322 403.447 61.322 402.182C61.322 400.924 61.4811 399.85 61.7993 398.96C62.1213 398.066 62.5834 397.384 63.1857 396.915C63.7917 396.441 64.519 396.205 65.3675 396.205C66.216 396.205 66.9414 396.441 67.5436 396.915C68.1497 397.384 68.6118 398.066 68.93 398.96C69.252 399.85 69.413 400.924 69.413 402.182C69.413 403.447 69.2539 404.527 68.9357 405.42C68.6175 406.311 68.1573 406.991 67.555 407.46C66.9527 407.926 66.2236 408.159 65.3675 408.159ZM65.3675 406.909C66.216 406.909 66.8751 406.5 67.3448 405.682C67.8145 404.864 68.0493 403.697 68.0493 402.182C68.0493 401.174 67.9414 400.316 67.7255 399.608C67.5133 398.9 67.2065 398.36 66.805 397.989C66.4073 397.617 65.9281 397.432 65.3675 397.432C64.5266 397.432 63.8694 397.847 63.3959 398.676C62.9224 399.502 62.6857 400.67 62.6857 402.182C62.6857 403.189 62.7917 404.045 63.0039 404.75C63.216 405.455 63.5209 405.991 63.9186 406.358C64.3202 406.725 64.8031 406.909 65.3675 406.909ZM75.0475 408.159C74.1914 408.159 73.4623 407.926 72.86 407.46C72.2577 406.991 71.7975 406.311 71.4793 405.42C71.1611 404.527 71.002 403.447 71.002 402.182C71.002 400.924 71.1611 399.85 71.4793 398.96C71.8013 398.066 72.2634 397.384 72.8657 396.915C73.4717 396.441 74.199 396.205 75.0475 396.205C75.896 396.205 76.6214 396.441 77.2236 396.915C77.8297 397.384 78.2918 398.066 78.61 398.96C78.932 399.85 79.093 400.924 79.093 402.182C79.093 403.447 78.9339 404.527 78.6157 405.42C78.2975 406.311 77.8373 406.991 77.235 407.46C76.6327 407.926 75.9036 408.159 75.0475 408.159ZM75.0475 406.909C75.896 406.909 76.5551 406.5 77.0248 405.682C77.4945 404.864 77.7293 403.697 77.7293 402.182C77.7293 401.174 77.6214 400.316 77.4055 399.608C77.1933 398.9 76.8865 398.36 76.485 397.989C76.0873 397.617 75.6081 397.432 75.0475 397.432C74.2066 397.432 73.5494 397.847 73.0759 398.676C72.6024 399.502 72.3657 400.67 72.3657 402.182C72.3657 403.189 72.4717 404.045 72.6839 404.75C72.896 405.455 73.2009 405.991 73.5986 406.358C74.0002 406.725 74.4831 406.909 75.0475 406.909Z" fill="white"/>
<path d="M59.2955 461.364V473H57.8864V462.841H57.8182L54.9773 464.727V463.295L57.8864 461.364H59.2955ZM65.9584 473.159C65.2917 473.159 64.6914 473.027 64.1573 472.761C63.6232 472.496 63.1952 472.133 62.8732 471.67C62.5512 471.208 62.3751 470.682 62.3448 470.091H63.7084C63.7614 470.617 64.0001 471.053 64.4243 471.398C64.8523 471.739 65.3637 471.909 65.9584 471.909C66.4357 471.909 66.8599 471.797 67.2311 471.574C67.6061 471.35 67.8997 471.044 68.1118 470.653C68.3277 470.259 68.4357 469.814 68.4357 469.318C68.4357 468.811 68.3239 468.358 68.1005 467.96C67.8808 467.559 67.5777 467.242 67.1914 467.011C66.805 466.78 66.3637 466.663 65.8675 466.659C65.5114 466.655 65.1459 466.71 64.7709 466.824C64.3959 466.934 64.0872 467.076 63.8448 467.25L62.5266 467.091L63.2311 461.364H69.2766V462.614H64.413L64.0039 466.045H64.072C64.3107 465.856 64.6099 465.699 64.9698 465.574C65.3296 465.449 65.7046 465.386 66.0948 465.386C66.8069 465.386 67.4414 465.557 67.9982 465.898C68.5588 466.235 68.9982 466.697 69.3164 467.284C69.6383 467.871 69.7993 468.542 69.7993 469.295C69.7993 470.038 69.6327 470.701 69.2993 471.284C68.9698 471.864 68.5152 472.322 67.9357 472.659C67.3561 472.992 66.697 473.159 65.9584 473.159ZM75.5319 473.159C74.6758 473.159 73.9466 472.926 73.3444 472.46C72.7421 471.991 72.2819 471.311 71.9637 470.42C71.6455 469.527 71.4864 468.447 71.4864 467.182C71.4864 465.924 71.6455 464.85 71.9637 463.96C72.2857 463.066 72.7478 462.384 73.3501 461.915C73.9561 461.441 74.6834 461.205 75.5319 461.205C76.3804 461.205 77.1057 461.441 77.708 461.915C78.3141 462.384 78.7762 463.066 79.0944 463.96C79.4163 464.85 79.5773 465.924 79.5773 467.182C79.5773 468.447 79.4182 469.527 79.1001 470.42C78.7819 471.311 78.3216 471.991 77.7194 472.46C77.1171 472.926 76.3879 473.159 75.5319 473.159ZM75.5319 471.909C76.3804 471.909 77.0395 471.5 77.5091 470.682C77.9788 469.864 78.2137 468.697 78.2137 467.182C78.2137 466.174 78.1057 465.316 77.8898 464.608C77.6777 463.9 77.3709 463.36 76.9694 462.989C76.5716 462.617 76.0925 462.432 75.5319 462.432C74.691 462.432 74.0338 462.847 73.5603 463.676C73.0868 464.502 72.8501 465.67 72.8501 467.182C72.8501 468.189 72.9561 469.045 73.1682 469.75C73.3804 470.455 73.6853 470.991 74.083 471.358C74.4845 471.725 74.9675 471.909 75.5319 471.909Z" fill="white"/>
<path d="M59.2955 526.364V538H57.8864V527.841H57.8182L54.9773 529.727V528.295L57.8864 526.364H59.2955ZM66.1175 538.159C65.2614 538.159 64.5323 537.926 63.93 537.46C63.3277 536.991 62.8675 536.311 62.5493 535.42C62.2311 534.527 62.072 533.447 62.072 532.182C62.072 530.924 62.2311 529.85 62.5493 528.96C62.8713 528.066 63.3334 527.384 63.9357 526.915C64.5417 526.441 65.269 526.205 66.1175 526.205C66.966 526.205 67.6914 526.441 68.2936 526.915C68.8997 527.384 69.3618 528.066 69.68 528.96C70.002 529.85 70.163 530.924 70.163 532.182C70.163 533.447 70.0039 534.527 69.6857 535.42C69.3675 536.311 68.9073 536.991 68.305 537.46C67.7027 537.926 66.9736 538.159 66.1175 538.159ZM66.1175 536.909C66.966 536.909 67.6251 536.5 68.0948 535.682C68.5645 534.864 68.7993 533.697 68.7993 532.182C68.7993 531.174 68.6914 530.316 68.4755 529.608C68.2633 528.9 67.9565 528.36 67.555 527.989C67.1573 527.617 66.6781 527.432 66.1175 527.432C65.2766 527.432 64.6194 527.847 64.1459 528.676C63.6724 529.502 63.4357 530.67 63.4357 532.182C63.4357 533.189 63.5417 534.045 63.7539 534.75C63.966 535.455 64.2709 535.991 64.6686 536.358C65.0702 536.725 65.5531 536.909 66.1175 536.909ZM75.7975 538.159C74.9414 538.159 74.2123 537.926 73.61 537.46C73.0077 536.991 72.5475 536.311 72.2293 535.42C71.9111 534.527 71.752 533.447 71.752 532.182C71.752 530.924 71.9111 529.85 72.2293 528.96C72.5513 528.066 73.0134 527.384 73.6157 526.915C74.2217 526.441 74.949 526.205 75.7975 526.205C76.646 526.205 77.3714 526.441 77.9736 526.915C78.5797 527.384 79.0418 528.066 79.36 528.96C79.682 529.85 79.843 530.924 79.843 532.182C79.843 533.447 79.6839 534.527 79.3657 535.42C79.0475 536.311 78.5873 536.991 77.985 537.46C77.3827 537.926 76.6536 538.159 75.7975 538.159ZM75.7975 536.909C76.646 536.909 77.3051 536.5 77.7748 535.682C78.2445 534.864 78.4793 533.697 78.4793 532.182C78.4793 531.174 78.3714 530.316 78.1555 529.608C77.9433 528.9 77.6365 528.36 77.235 527.989C76.8373 527.617 76.3581 527.432 75.7975 527.432C74.9566 527.432 74.2994 527.847 73.8259 528.676C73.3524 529.502 73.1157 530.67 73.1157 532.182C73.1157 533.189 73.2217 534.045 73.4339 534.75C73.646 535.455 73.9509 535.991 74.3486 536.358C74.7502 536.725 75.2331 536.909 75.7975 536.909Z" fill="white"/>
<path d="M65.8409 603.159C65.1742 603.159 64.5739 603.027 64.0398 602.761C63.5057 602.496 63.0777 602.133 62.7557 601.67C62.4337 601.208 62.2576 600.682 62.2273 600.091H63.5909C63.6439 600.617 63.8826 601.053 64.3068 601.398C64.7348 601.739 65.2462 601.909 65.8409 601.909C66.3182 601.909 66.7424 601.797 67.1136 601.574C67.4886 601.35 67.7822 601.044 67.9943 600.653C68.2102 600.259 68.3182 599.814 68.3182 599.318C68.3182 598.811 68.2064 598.358 67.983 597.96C67.7633 597.559 67.4602 597.242 67.0739 597.011C66.6875 596.78 66.2462 596.663 65.75 596.659C65.3939 596.655 65.0284 596.71 64.6534 596.824C64.2784 596.934 63.9697 597.076 63.7273 597.25L62.4091 597.091L63.1136 591.364H69.1591V592.614H64.2955L63.8864 596.045H63.9545C64.1932 595.856 64.4924 595.699 64.8523 595.574C65.2121 595.449 65.5871 595.386 65.9773 595.386C66.6894 595.386 67.3239 595.557 67.8807 595.898C68.4413 596.235 68.8807 596.697 69.1989 597.284C69.5208 597.871 69.6818 598.542 69.6818 599.295C69.6818 600.038 69.5152 600.701 69.1818 601.284C68.8523 601.864 68.3977 602.322 67.8182 602.659C67.2386 602.992 66.5795 603.159 65.8409 603.159ZM75.4144 603.159C74.5583 603.159 73.8291 602.926 73.2269 602.46C72.6246 601.991 72.1644 601.311 71.8462 600.42C71.528 599.527 71.3689 598.447 71.3689 597.182C71.3689 595.924 71.528 594.85 71.8462 593.96C72.1682 593.066 72.6303 592.384 73.2326 591.915C73.8386 591.441 74.5659 591.205 75.4144 591.205C76.2629 591.205 76.9882 591.441 77.5905 591.915C78.1966 592.384 78.6587 593.066 78.9769 593.96C79.2988 594.85 79.4598 595.924 79.4598 597.182C79.4598 598.447 79.3007 599.527 78.9826 600.42C78.6644 601.311 78.2041 601.991 77.6019 602.46C76.9996 602.926 76.2704 603.159 75.4144 603.159ZM75.4144 601.909C76.2629 601.909 76.922 601.5 77.3916 600.682C77.8613 599.864 78.0962 598.697 78.0962 597.182C78.0962 596.174 77.9882 595.316 77.7723 594.608C77.5602 593.9 77.2534 593.36 76.8519 592.989C76.4541 592.617 75.975 592.432 75.4144 592.432C74.5735 592.432 73.9163 592.847 73.4428 593.676C72.9693 594.502 72.7326 595.67 72.7326 597.182C72.7326 598.189 72.8386 599.045 73.0507 599.75C73.2629 600.455 73.5678 600.991 73.9655 601.358C74.367 601.725 74.85 601.909 75.4144 601.909Z" fill="white"/>
<path d="M76 668.159C75.1439 668.159 74.4148 667.926 73.8125 667.46C73.2102 666.991 72.75 666.311 72.4318 665.42C72.1136 664.527 71.9545 663.447 71.9545 662.182C71.9545 660.924 72.1136 659.85 72.4318 658.96C72.7538 658.066 73.2159 657.384 73.8182 656.915C74.4242 656.441 75.1515 656.205 76 656.205C76.8485 656.205 77.5739 656.441 78.1761 656.915C78.7822 657.384 79.2443 658.066 79.5625 658.96C79.8845 659.85 80.0455 660.924 80.0455 662.182C80.0455 663.447 79.8864 664.527 79.5682 665.42C79.25 666.311 78.7898 666.991 78.1875 667.46C77.5852 667.926 76.8561 668.159 76 668.159ZM76 666.909C76.8485 666.909 77.5076 666.5 77.9773 665.682C78.447 664.864 78.6818 663.697 78.6818 662.182C78.6818 661.174 78.5739 660.316 78.358 659.608C78.1458 658.9 77.839 658.36 77.4375 657.989C77.0398 657.617 76.5606 657.432 76 657.432C75.1591 657.432 74.5019 657.847 74.0284 658.676C73.5549 659.502 73.3182 660.67 73.3182 662.182C73.3182 663.189 73.4242 664.045 73.6364 664.75C73.8485 665.455 74.1534 665.991 74.5511 666.358C74.9527 666.725 75.4356 666.909 76 666.909Z" fill="white"/>
<rect x="262.25" y="201.287" width="144.944" height="25.3148" fill="#D55A5A" stroke="#E2D9F3" stroke-width="0.5"/>
<rect x="262.25" y="227.102" width="144.944" height="38.537" fill="#D55A5A" stroke="#E2D9F3" stroke-width="0.5"/>
<line x1="334.76" y1="157" x2="334.76" y2="297.407" stroke="white"/>
<circle cx="335.037" cy="167.037" r="2.51852" fill="#FBC0C0"/>
<circle cx="335.037" cy="187.815" r="2.51852" fill="#FBC0C0"/>
<circle cx="335.667" cy="96.5185" r="2.51852" fill="#FBC0C0"/>
<circle cx="335.037" cy="196" r="2.51852" fill="#FBC0C0"/>
<circle cx="335.037" cy="203.556" r="2.51852" fill="#FBC0C0"/>
<circle cx="335.037" cy="209.852" r="2.51852" fill="#FBC0C0"/>
<circle cx="335.037" cy="216.778" r="2.51852" fill="#FBC0C0"/>
<circle cx="335.037" cy="223.074" r="2.51852" fill="#FBC0C0"/>
<circle cx="335.037" cy="229.37" r="2.51852" fill="#FBC0C0"/>
<circle cx="335.037" cy="237.556" r="2.51852" fill="#FBC0C0"/>
<circle cx="335.037" cy="245.111" r="2.51852" fill="#FBC0C0"/>
<circle cx="335.037" cy="256.445" r="2.51852" fill="#FBC0C0"/>
<circle cx="335.037" cy="264" r="2.51852" fill="#FBC0C0"/>
<circle cx="335.037" cy="275.333" r="2.51852" fill="#FBC0C0"/>
<circle cx="335.037" cy="280.37" r="2.51852" fill="#FBC0C0"/>
<circle cx="335.037" cy="290.445" r="2.51852" fill="#FBC0C0"/>
<circle cx="335.037" cy="295.481" r="2.51852" fill="#FBC0C0"/>
<line x1="332.296" y1="231.666" x2="337.676" y2="226.287" stroke="#160D27" stroke-width="0.62963"/>
<line y1="-0.314815" x2="7.60784" y2="-0.314815" transform="matrix(0.707107 0.707107 0.707107 -0.707107 332.519 226.222)" stroke="#160D27" stroke-width="0.62963"/>
<line x1="316.629" y1="297.537" x2="352.518" y2="297.537" stroke="white"/>
<line x1="316" y1="156.5" x2="351.889" y2="156.5" stroke="white"/>
<path d="M305.148 739V727.364H307.256V737.233H312.381V739H305.148ZM316.311 739.176C315.758 739.176 315.26 739.078 314.816 738.881C314.377 738.68 314.028 738.384 313.771 737.994C313.517 737.604 313.39 737.123 313.39 736.551C313.39 736.059 313.481 735.652 313.663 735.33C313.845 735.008 314.093 734.75 314.407 734.557C314.722 734.364 315.076 734.218 315.47 734.119C315.868 734.017 316.278 733.943 316.703 733.898C317.214 733.845 317.629 733.797 317.947 733.756C318.265 733.71 318.496 733.642 318.64 733.551C318.788 733.456 318.862 733.311 318.862 733.114V733.08C318.862 732.652 318.735 732.32 318.481 732.085C318.227 731.85 317.862 731.733 317.385 731.733C316.881 731.733 316.481 731.843 316.186 732.062C315.894 732.282 315.697 732.542 315.595 732.841L313.674 732.568C313.826 732.038 314.076 731.595 314.424 731.239C314.773 730.879 315.199 730.61 315.703 730.432C316.207 730.25 316.763 730.159 317.373 730.159C317.794 730.159 318.212 730.208 318.629 730.307C319.046 730.405 319.426 730.568 319.771 730.795C320.116 731.019 320.392 731.324 320.6 731.71C320.813 732.097 320.919 732.58 320.919 733.159V739H318.941V737.801H318.873C318.748 738.044 318.572 738.271 318.345 738.483C318.121 738.691 317.839 738.86 317.498 738.989C317.161 739.114 316.765 739.176 316.311 739.176ZM316.845 737.665C317.258 737.665 317.616 737.583 317.919 737.42C318.222 737.254 318.455 737.034 318.618 736.761C318.784 736.489 318.868 736.191 318.868 735.869V734.841C318.803 734.894 318.693 734.943 318.538 734.989C318.386 735.034 318.216 735.074 318.027 735.108C317.837 735.142 317.65 735.172 317.464 735.199C317.278 735.225 317.118 735.248 316.981 735.267C316.674 735.309 316.4 735.377 316.157 735.472C315.915 735.566 315.724 735.699 315.583 735.869C315.443 736.036 315.373 736.252 315.373 736.517C315.373 736.896 315.511 737.182 315.788 737.375C316.064 737.568 316.417 737.665 316.845 737.665ZM322.667 739V730.273H324.633V731.756H324.735C324.917 731.256 325.218 730.866 325.638 730.585C326.059 730.301 326.561 730.159 327.144 730.159C327.735 730.159 328.233 730.303 328.638 730.591C329.048 730.875 329.335 731.263 329.502 731.756H329.593C329.786 731.271 330.112 730.884 330.57 730.597C331.032 730.305 331.58 730.159 332.212 730.159C333.015 730.159 333.671 730.413 334.178 730.92C334.686 731.428 334.94 732.169 334.94 733.142V739H332.877V733.46C332.877 732.919 332.733 732.523 332.445 732.273C332.157 732.019 331.805 731.892 331.388 731.892C330.892 731.892 330.504 732.047 330.224 732.358C329.947 732.665 329.809 733.064 329.809 733.557V739H327.792V733.375C327.792 732.924 327.655 732.564 327.383 732.295C327.114 732.027 326.762 731.892 326.326 731.892C326.03 731.892 325.762 731.968 325.519 732.119C325.277 732.267 325.083 732.477 324.94 732.75C324.796 733.019 324.724 733.333 324.724 733.693V739H322.667ZM336.797 739V727.364H338.854V731.716H338.939C339.045 731.504 339.195 731.278 339.388 731.04C339.581 730.797 339.843 730.591 340.172 730.42C340.502 730.246 340.922 730.159 341.433 730.159C342.108 730.159 342.716 730.331 343.257 730.676C343.803 731.017 344.235 731.523 344.553 732.193C344.875 732.86 345.036 733.678 345.036 734.648C345.036 735.606 344.879 736.42 344.564 737.091C344.25 737.761 343.822 738.273 343.28 738.625C342.738 738.977 342.125 739.153 341.439 739.153C340.939 739.153 340.524 739.07 340.195 738.903C339.865 738.737 339.6 738.536 339.399 738.301C339.202 738.062 339.049 737.837 338.939 737.625H338.82V739H336.797ZM338.814 734.636C338.814 735.201 338.894 735.695 339.053 736.119C339.216 736.544 339.449 736.875 339.752 737.114C340.058 737.348 340.43 737.466 340.865 737.466C341.32 737.466 341.701 737.345 342.007 737.102C342.314 736.856 342.545 736.521 342.701 736.097C342.86 735.669 342.939 735.182 342.939 734.636C342.939 734.095 342.861 733.614 342.706 733.193C342.551 732.773 342.32 732.443 342.013 732.205C341.706 731.966 341.324 731.847 340.865 731.847C340.426 731.847 340.053 731.962 339.746 732.193C339.439 732.424 339.206 732.748 339.047 733.165C338.892 733.581 338.814 734.072 338.814 734.636ZM349.703 739.153C349.017 739.153 348.404 738.977 347.862 738.625C347.32 738.273 346.892 737.761 346.578 737.091C346.264 736.42 346.106 735.606 346.106 734.648C346.106 733.678 346.265 732.86 346.584 732.193C346.906 731.523 347.339 731.017 347.885 730.676C348.43 730.331 349.038 730.159 349.709 730.159C350.22 730.159 350.64 730.246 350.97 730.42C351.3 730.591 351.561 730.797 351.754 731.04C351.947 731.278 352.097 731.504 352.203 731.716H352.288V727.364H354.351V739H352.328V737.625H352.203C352.097 737.837 351.943 738.062 351.743 738.301C351.542 738.536 351.277 738.737 350.947 738.903C350.618 739.07 350.203 739.153 349.703 739.153ZM350.277 737.466C350.712 737.466 351.084 737.348 351.39 737.114C351.697 736.875 351.93 736.544 352.089 736.119C352.248 735.695 352.328 735.201 352.328 734.636C352.328 734.072 352.248 733.581 352.089 733.165C351.934 732.748 351.703 732.424 351.396 732.193C351.093 731.962 350.72 731.847 350.277 731.847C349.818 731.847 349.436 731.966 349.129 732.205C348.822 732.443 348.591 732.773 348.436 733.193C348.281 733.614 348.203 734.095 348.203 734.636C348.203 735.182 348.281 735.669 348.436 736.097C348.595 736.521 348.828 736.856 349.135 737.102C349.445 737.345 349.826 737.466 350.277 737.466ZM358.734 739.176C358.181 739.176 357.683 739.078 357.239 738.881C356.8 738.68 356.452 738.384 356.194 737.994C355.94 737.604 355.813 737.123 355.813 736.551C355.813 736.059 355.904 735.652 356.086 735.33C356.268 735.008 356.516 734.75 356.83 734.557C357.145 734.364 357.499 734.218 357.893 734.119C358.291 734.017 358.702 733.943 359.126 733.898C359.637 733.845 360.052 733.797 360.37 733.756C360.688 733.71 360.919 733.642 361.063 733.551C361.211 733.456 361.285 733.311 361.285 733.114V733.08C361.285 732.652 361.158 732.32 360.904 732.085C360.65 731.85 360.285 731.733 359.808 731.733C359.304 731.733 358.904 731.843 358.609 732.062C358.317 732.282 358.12 732.542 358.018 732.841L356.097 732.568C356.249 732.038 356.499 731.595 356.847 731.239C357.196 730.879 357.622 730.61 358.126 730.432C358.63 730.25 359.186 730.159 359.796 730.159C360.217 730.159 360.635 730.208 361.052 730.307C361.469 730.405 361.849 730.568 362.194 730.795C362.539 731.019 362.815 731.324 363.024 731.71C363.236 732.097 363.342 732.58 363.342 733.159V739H361.364V737.801H361.296C361.171 738.044 360.995 738.271 360.768 738.483C360.544 738.691 360.262 738.86 359.921 738.989C359.584 739.114 359.188 739.176 358.734 739.176ZM359.268 737.665C359.681 737.665 360.039 737.583 360.342 737.42C360.645 737.254 360.878 737.034 361.041 736.761C361.207 736.489 361.291 736.191 361.291 735.869V734.841C361.226 734.894 361.116 734.943 360.961 734.989C360.81 735.034 360.639 735.074 360.45 735.108C360.26 735.142 360.073 735.172 359.887 735.199C359.702 735.225 359.541 735.248 359.404 735.267C359.097 735.309 358.823 735.377 358.58 735.472C358.338 735.566 358.147 735.699 358.007 735.869C357.866 736.036 357.796 736.252 357.796 736.517C357.796 736.896 357.935 737.182 358.211 737.375C358.488 737.568 358.84 737.665 359.268 737.665Z" fill="white"/>
<path d="M18 413.852H6.36364V409.489C6.36364 408.595 6.51894 407.845 6.82955 407.239C7.14015 406.629 7.57576 406.169 8.13636 405.858C8.69318 405.544 9.3428 405.386 10.0852 405.386C10.8314 405.386 11.4792 405.545 12.0284 405.864C12.5739 406.178 12.9962 406.642 13.2955 407.256C13.5909 407.869 13.7386 408.623 13.7386 409.517V412.625H11.9886V409.801C11.9886 409.278 11.9167 408.85 11.7727 408.517C11.625 408.184 11.411 407.937 11.1307 407.778C10.8466 407.616 10.4981 407.534 10.0852 407.534C9.67235 407.534 9.32008 407.616 9.02841 407.778C8.73295 407.941 8.50947 408.189 8.35795 408.523C8.20265 408.856 8.125 409.286 8.125 409.812V411.744H18V413.852ZM12.7273 407.841L18 404.96V407.312L12.7273 410.142V407.841ZM18.1705 400.118C18.1705 400.993 17.9886 401.749 17.625 402.385C17.2576 403.018 16.7386 403.505 16.0682 403.846C15.3939 404.186 14.6004 404.357 13.6875 404.357C12.7898 404.357 12.0019 404.186 11.3239 403.846C10.642 403.501 10.1117 403.02 9.73295 402.402C9.35038 401.785 9.15909 401.06 9.15909 400.226C9.15909 399.688 9.24621 399.181 9.42045 398.704C9.59091 398.222 9.85606 397.798 10.2159 397.431C10.5758 397.06 11.0341 396.768 11.5909 396.556C12.1439 396.344 12.803 396.238 13.5682 396.238H14.1989L14.1989 403.391H12.8125L12.8125 398.209C12.4186 398.213 12.0682 398.298 11.7614 398.465C11.4508 398.632 11.2064 398.865 11.0284 399.164C10.8504 399.459 10.7614 399.804 10.7614 400.198C10.7614 400.618 10.8636 400.988 11.0682 401.306C11.2689 401.624 11.5341 401.872 11.8636 402.05C12.1894 402.224 12.5473 402.313 12.9375 402.317H14.1477C14.6553 402.317 15.0909 402.224 15.4545 402.039C15.8144 401.853 16.0909 401.594 16.2841 401.26C16.4735 400.927 16.5682 400.537 16.5682 400.09C16.5682 399.791 16.5265 399.52 16.4432 399.277C16.3561 399.035 16.2292 398.825 16.0625 398.647C15.8958 398.469 15.6894 398.334 15.4432 398.243L15.6591 396.323C16.1667 396.444 16.6098 396.675 16.9886 397.016C17.3636 397.353 17.6553 397.785 17.8636 398.311C18.0682 398.838 18.1705 399.44 18.1705 400.118ZM11.5795 387.92L11.7841 389.795C11.5947 389.848 11.4167 389.941 11.25 390.073C11.0833 390.202 10.9489 390.376 10.8466 390.596C10.7443 390.816 10.6932 391.085 10.6932 391.403C10.6932 391.831 10.786 392.191 10.9716 392.482C11.1572 392.77 11.3977 392.912 11.6932 392.908C11.947 392.912 12.1534 392.819 12.3125 392.63C12.4716 392.437 12.6023 392.119 12.7045 391.676L13.0227 390.187C13.2008 389.361 13.483 388.747 13.8693 388.346C14.2557 387.941 14.7614 387.736 15.3864 387.732C15.9356 387.736 16.4205 387.897 16.8409 388.215C17.2576 388.53 17.5833 388.967 17.8182 389.528C18.053 390.088 18.1705 390.732 18.1705 391.46C18.1705 392.528 17.947 393.388 17.5 394.039C17.0492 394.691 16.4223 395.079 15.6193 395.204L15.4261 393.198C15.8201 393.107 16.1174 392.914 16.3182 392.619C16.5189 392.323 16.6193 391.939 16.6193 391.465C16.6193 390.977 16.5189 390.585 16.3182 390.289C16.1174 389.99 15.8693 389.84 15.5739 389.84C15.3239 389.84 15.1174 389.937 14.9545 390.13C14.7917 390.319 14.6667 390.615 14.5795 391.016L14.267 392.505C14.0928 393.342 13.7992 393.961 13.3864 394.363C12.9697 394.765 12.4432 394.963 11.8068 394.96C11.2689 394.963 10.803 394.818 10.4091 394.522C10.0114 394.223 9.70455 393.808 9.48864 393.278C9.26894 392.744 9.15909 392.128 9.15909 391.431C9.15909 390.408 9.37689 389.604 9.8125 389.016C10.2481 388.426 10.8371 388.06 11.5795 387.92ZM21.2727 386.356H9.27273V384.334H10.7159V384.214C10.5038 384.108 10.2784 383.959 10.0398 383.765C9.79735 383.572 9.59091 383.311 9.42045 382.981C9.24621 382.652 9.15909 382.231 9.15909 381.72C9.15909 381.046 9.33144 380.438 9.67614 379.896C10.017 379.351 10.5227 378.919 11.1932 378.601C11.8598 378.279 12.678 378.118 13.6477 378.118C14.6061 378.118 15.4205 378.275 16.0909 378.589C16.7614 378.904 17.2727 379.332 17.625 379.873C17.9773 380.415 18.1534 381.029 18.1534 381.714C18.1534 382.214 18.0701 382.629 17.9034 382.959C17.7367 383.288 17.536 383.553 17.3011 383.754C17.0625 383.951 16.8371 384.104 16.625 384.214V384.299H21.2727L21.2727 386.356ZM13.6364 384.339C14.2008 384.339 14.6951 384.26 15.1193 384.101C15.5436 383.938 15.875 383.705 16.1136 383.402C16.3485 383.095 16.4659 382.724 16.4659 382.288C16.4659 381.834 16.3447 381.453 16.1023 381.146C15.8561 380.839 15.5208 380.608 15.0966 380.453C14.6686 380.294 14.1818 380.214 13.6364 380.214C13.0947 380.214 12.6136 380.292 12.1932 380.447C11.7727 380.603 11.4432 380.834 11.2045 381.14C10.9659 381.447 10.8466 381.83 10.8466 382.288C10.8466 382.728 10.9621 383.101 11.1932 383.407C11.4242 383.714 11.7481 383.947 12.1648 384.106C12.5814 384.262 13.072 384.339 13.6364 384.339ZM18.1705 372.869C18.1705 373.722 17.983 374.46 17.608 375.085C17.233 375.71 16.7083 376.195 16.0341 376.54C15.3598 376.881 14.572 377.051 13.6705 377.051C12.7689 377.051 11.9792 376.881 11.3011 376.54C10.6231 376.195 10.0966 375.71 9.72159 375.085C9.34659 374.46 9.15909 373.722 9.15909 372.869C9.15909 372.017 9.34659 371.279 9.72159 370.654C10.0966 370.029 10.6231 369.546 11.3011 369.205C11.9792 368.86 12.7689 368.688 13.6705 368.688C14.572 368.688 15.3598 368.86 16.0341 369.205C16.7083 369.546 17.233 370.029 17.608 370.654C17.983 371.279 18.1705 372.017 18.1705 372.869ZM16.5227 372.858C16.5227 372.396 16.3958 372.01 16.142 371.699C15.8845 371.388 15.5398 371.157 15.108 371.006C14.6761 370.851 14.1951 370.773 13.6648 370.773C13.1307 370.773 12.6477 370.851 12.2159 371.006C11.7803 371.157 11.4337 371.388 11.1761 371.699C10.9186 372.01 10.7898 372.396 10.7898 372.858C10.7898 373.332 10.9186 373.726 11.1761 374.04C11.4337 374.351 11.7803 374.584 12.2159 374.739C12.6477 374.89 13.1307 374.966 13.6648 374.966C14.1951 374.966 14.6761 374.89 15.108 374.739C15.5398 374.584 15.8845 374.351 16.142 374.04C16.3958 373.726 16.5227 373.332 16.5227 372.858ZM12.8864 365.205H18V367.262H9.27273V365.296H10.7557V365.194C10.267 364.993 9.87879 364.673 9.59091 364.234C9.30303 363.79 9.15909 363.243 9.15909 362.591C9.15909 361.989 9.28788 361.465 9.54545 361.018C9.80303 360.567 10.1761 360.218 10.6648 359.972C11.1534 359.722 11.7462 359.599 12.4432 359.603H18V361.66H12.7614C12.178 361.66 11.7216 361.811 11.392 362.114C11.0625 362.413 10.8977 362.828 10.8977 363.359C10.8977 363.718 10.9773 364.038 11.1364 364.319C11.2917 364.595 11.517 364.813 11.8125 364.972C12.108 365.127 12.4659 365.205 12.8864 365.205ZM11.5795 350.934L11.7841 352.809C11.5947 352.862 11.4167 352.955 11.25 353.088C11.0833 353.216 10.9489 353.391 10.8466 353.61C10.7443 353.83 10.6932 354.099 10.6932 354.417C10.6932 354.845 10.786 355.205 10.9716 355.497C11.1572 355.785 11.3977 355.927 11.6932 355.923C11.947 355.927 12.1534 355.834 12.3125 355.644C12.4716 355.451 12.6023 355.133 12.7045 354.69L13.0227 353.201C13.2008 352.375 13.483 351.762 13.8693 351.36C14.2557 350.955 14.7614 350.75 15.3864 350.747C15.9356 350.75 16.4205 350.911 16.8409 351.23C17.2576 351.544 17.5833 351.982 17.8182 352.542C18.053 353.103 18.1705 353.747 18.1705 354.474C18.1705 355.542 17.947 356.402 17.5 357.054C17.0492 357.705 16.4223 358.093 15.6193 358.218L15.4261 356.213C15.8201 356.122 16.1174 355.929 16.3182 355.633C16.5189 355.338 16.6193 354.953 16.6193 354.48C16.6193 353.991 16.5189 353.599 16.3182 353.304C16.1174 353.004 15.8693 352.855 15.5739 352.855C15.3239 352.855 15.1174 352.951 14.9545 353.144C14.7917 353.334 14.6667 353.629 14.5795 354.031L14.267 355.519C14.0928 356.357 13.7992 356.976 13.3864 357.377C12.9697 357.779 12.4432 357.978 11.8068 357.974C11.2689 357.978 10.803 357.832 10.4091 357.536C10.0114 357.237 9.70455 356.822 9.48864 356.292C9.26894 355.758 9.15909 355.143 9.15909 354.446C9.15909 353.423 9.37689 352.618 9.8125 352.031C10.2481 351.44 10.8371 351.074 11.5795 350.934ZM18 349.371H9.27273V347.314H18V349.371ZM8.03409 348.337C8.03409 348.662 7.92614 348.943 7.71023 349.177C7.49053 349.412 7.22727 349.53 6.92045 349.53C6.60985 349.53 6.34659 349.412 6.13068 349.177C5.91098 348.943 5.80114 348.662 5.80114 348.337C5.80114 348.007 5.91098 347.727 6.13068 347.496C6.34659 347.261 6.60985 347.143 6.92045 347.143C7.22727 347.143 7.49053 347.261 7.71023 347.496C7.92614 347.727 8.03409 348.007 8.03409 348.337ZM9.27273 337.723L18 340.831V343.104L9.27273 346.212V344.019L15.7557 342.013V341.922L9.27273 339.911V337.723ZM18.1705 333.053C18.1705 333.928 17.9886 334.684 17.625 335.32C17.2576 335.953 16.7386 336.44 16.0682 336.781C15.3939 337.121 14.6004 337.292 13.6875 337.292C12.7898 337.292 12.0019 337.121 11.3239 336.781C10.642 336.436 10.1117 335.955 9.73295 335.337C9.35038 334.72 9.15909 333.995 9.15909 333.161C9.15909 332.623 9.24621 332.116 9.42045 331.639C9.59091 331.157 9.85606 330.733 10.2159 330.366C10.5758 329.995 11.0341 329.703 11.5909 329.491C12.1439 329.279 12.803 329.173 13.5682 329.173H14.1989V336.326H12.8125V331.144C12.4186 331.148 12.0682 331.233 11.7614 331.4C11.4508 331.567 11.2064 331.8 11.0284 332.099C10.8504 332.394 10.7614 332.739 10.7614 333.133C10.7614 333.553 10.8636 333.923 11.0682 334.241C11.2689 334.559 11.5341 334.807 11.8636 334.985C12.1894 335.159 12.5473 335.248 12.9375 335.252H14.1477C14.6553 335.252 15.0909 335.159 15.4545 334.974C15.8144 334.788 16.0909 334.529 16.2841 334.195C16.4735 333.862 16.5682 333.472 16.5682 333.025C16.5682 332.726 16.5265 332.455 16.4432 332.212C16.3561 331.97 16.2292 331.76 16.0625 331.582C15.8958 331.404 15.6894 331.269 15.4432 331.178L15.6591 329.258C16.1667 329.379 16.6098 329.61 16.9886 329.951C17.3636 330.288 17.6553 330.72 17.8636 331.246C18.0682 331.773 18.1705 332.375 18.1705 333.053ZM9.27273 319.746H10.8636V324.763H9.27273V319.746ZM7.18182 323.524V321.467H15.375C15.6515 321.467 15.8636 321.426 16.0114 321.342C16.1553 321.255 16.2538 321.142 16.3068 321.002C16.3598 320.861 16.3864 320.706 16.3864 320.536C16.3864 320.407 16.3769 320.289 16.358 320.183C16.339 320.074 16.322 319.99 16.3068 319.933L17.9148 319.587C17.9527 319.697 17.9943 319.854 18.0398 320.058C18.0852 320.259 18.1117 320.505 18.1193 320.797C18.1345 321.312 18.0568 321.776 17.8864 322.189C17.7121 322.602 17.4432 322.93 17.0795 323.172C16.7159 323.411 16.2614 323.528 15.7159 323.524H7.18182ZM18 318.346H9.27273V316.289H18V318.346ZM8.03409 317.312C8.03409 317.637 7.92614 317.918 7.71023 318.152C7.49053 318.387 7.22727 318.505 6.92045 318.505C6.60985 318.505 6.34659 318.387 6.13068 318.152C5.91098 317.918 5.80114 317.637 5.80114 317.312C5.80114 316.982 5.91098 316.702 6.13068 316.471C6.34659 316.236 6.60985 316.118 6.92045 316.118C7.22727 316.118 7.49053 316.236 7.71023 316.471C7.92614 316.702 8.03409 316.982 8.03409 317.312ZM18 314.494H9.27273L9.27273 312.528H10.7557V312.426C10.2557 312.244 9.86553 311.943 9.58523 311.522C9.30114 311.102 9.15909 310.6 9.15909 310.017C9.15909 309.426 9.30303 308.928 9.59091 308.522C9.875 308.113 10.2633 307.825 10.7557 307.659V307.568C10.2708 307.374 9.88447 307.049 9.59659 306.59C9.30492 306.128 9.15909 305.581 9.15909 304.948C9.15909 304.145 9.41288 303.49 9.92045 302.982C10.428 302.475 11.1686 302.221 12.142 302.221H18V304.284H12.4602C11.9186 304.284 11.5227 304.428 11.2727 304.715C11.0189 305.003 10.892 305.356 10.892 305.772C10.892 306.268 11.0473 306.657 11.358 306.937C11.6648 307.214 12.0644 307.352 12.5568 307.352H18V309.369H12.375C11.9242 309.369 11.5644 309.505 11.2955 309.778C11.0265 310.047 10.892 310.399 10.892 310.835C10.892 311.13 10.9678 311.399 11.1193 311.642C11.267 311.884 11.4773 312.077 11.75 312.221C12.0189 312.365 12.3333 312.437 12.6932 312.437H18V314.494ZM18.1705 296.591C18.1705 297.466 17.9886 298.221 17.625 298.858C17.2576 299.49 16.7386 299.977 16.0682 300.318C15.3939 300.659 14.6004 300.829 13.6875 300.829C12.7898 300.829 12.0019 300.659 11.3239 300.318C10.642 299.973 10.1117 299.492 9.73295 298.875C9.35038 298.257 9.15909 297.532 9.15909 296.699C9.15909 296.161 9.24621 295.653 9.42045 295.176C9.59091 294.695 9.85606 294.271 10.2159 293.903C10.5758 293.532 11.0341 293.24 11.5909 293.028C12.1439 292.816 12.803 292.71 13.5682 292.71H14.1989V299.864H12.8125V294.682C12.4186 294.685 12.0682 294.771 11.7614 294.937C11.4508 295.104 11.2064 295.337 11.0284 295.636C10.8504 295.932 10.7614 296.276 10.7614 296.67C10.7614 297.091 10.8636 297.46 11.0682 297.778C11.2689 298.096 11.5341 298.345 11.8636 298.523C12.1894 298.697 12.5473 298.786 12.9375 298.79H14.1477C14.6553 298.79 15.0909 298.697 15.4545 298.511C15.8144 298.326 16.0909 298.066 16.2841 297.733C16.4735 297.4 16.5682 297.009 16.5682 296.562C16.5682 296.263 16.5265 295.992 16.4432 295.75C16.3561 295.507 16.2292 295.297 16.0625 295.119C15.8958 294.941 15.6894 294.807 15.4432 294.716L15.6591 292.795C16.1667 292.917 16.6098 293.148 16.9886 293.489C17.3636 293.826 17.6553 294.257 17.8636 294.784C18.0682 295.31 18.1705 295.913 18.1705 296.591ZM13.2557 287.13C11.8352 287.13 10.5303 286.942 9.34091 286.567C8.14773 286.189 7.04545 285.626 6.03409 284.88V282.942C6.40909 283.23 6.86932 283.499 7.41477 283.749C7.95644 283.999 8.55114 284.217 9.19886 284.403C9.8428 284.584 10.5114 284.728 11.2045 284.834C11.8977 284.937 12.5814 284.988 13.2557 284.988C14.1534 284.988 15.0625 284.899 15.983 284.721C16.9034 284.539 17.7557 284.295 18.5398 283.988C19.3277 283.677 19.9716 283.329 20.4716 282.942V284.88C19.4602 285.626 18.3598 286.189 17.1705 286.567C15.9773 286.942 14.6723 287.13 13.2557 287.13ZM18 281.664H9.27273V279.699H10.7557V279.596C10.2557 279.414 9.86553 279.113 9.58523 278.693C9.30114 278.272 9.15909 277.77 9.15909 277.187C9.15909 276.596 9.30303 276.098 9.59091 275.693C9.875 275.284 10.2633 274.996 10.7557 274.829V274.738C10.2708 274.545 9.88447 274.219 9.59659 273.761C9.30492 273.299 9.15909 272.752 9.15909 272.119C9.15909 271.316 9.41288 270.661 9.92045 270.153C10.428 269.645 11.1686 269.392 12.142 269.392H18L18 271.454H12.4602C11.9186 271.454 11.5227 271.598 11.2727 271.886C11.0189 272.174 10.892 272.526 10.892 272.943C10.892 273.439 11.0473 273.827 11.358 274.108C11.6648 274.384 12.0644 274.522 12.5568 274.522H18V276.539H12.375C11.9242 276.539 11.5644 276.676 11.2955 276.949C11.0265 277.217 10.892 277.57 10.892 278.005C10.892 278.301 10.9678 278.57 11.1193 278.812C11.267 279.055 11.4773 279.248 11.75 279.392C12.0189 279.536 12.3333 279.608 12.6932 279.608H18V281.664ZM11.5795 260.727L11.7841 262.602C11.5947 262.655 11.4167 262.748 11.25 262.881C11.0833 263.01 10.9489 263.184 10.8466 263.403C10.7443 263.623 10.6932 263.892 10.6932 264.21C10.6932 264.638 10.786 264.998 10.9716 265.29C11.1572 265.578 11.3977 265.72 11.6932 265.716C11.947 265.72 12.1534 265.627 12.3125 265.438C12.4716 265.244 12.6023 264.926 12.7045 264.483L13.0227 262.994C13.2008 262.169 13.483 261.555 13.8693 261.153C14.2557 260.748 14.7614 260.544 15.3864 260.54C15.9356 260.544 16.4205 260.705 16.8409 261.023C17.2576 261.337 17.5833 261.775 17.8182 262.335C18.053 262.896 18.1705 263.54 18.1705 264.267C18.1705 265.335 17.947 266.195 17.5 266.847C17.0492 267.498 16.4223 267.886 15.6193 268.011L15.4261 266.006C15.8201 265.915 16.1174 265.722 16.3182 265.426C16.5189 265.131 16.6193 264.746 16.6193 264.273C16.6193 263.784 16.5189 263.392 16.3182 263.097C16.1174 262.797 15.8693 262.648 15.5739 262.648C15.3239 262.648 15.1174 262.744 14.9545 262.938C14.7917 263.127 14.6667 263.422 14.5795 263.824L14.267 265.313C14.0928 266.15 13.7992 266.769 13.3864 267.171C12.9697 267.572 12.4432 267.771 11.8068 267.767C11.2689 267.771 10.803 267.625 10.4091 267.33C10.0114 267.03 9.70455 266.616 9.48864 266.085C9.26894 265.551 9.15909 264.936 9.15909 264.239C9.15909 263.216 9.37689 262.411 9.8125 261.824C10.2481 261.233 10.8371 260.867 11.5795 260.727ZM13.2557 255.493C14.6723 255.493 15.9773 255.683 17.1705 256.062C18.3598 256.437 19.4602 256.997 20.4716 257.743V259.681C20.0966 259.389 19.6383 259.12 19.0966 258.874C18.5549 258.624 17.9602 258.408 17.3125 258.226C16.6648 258.041 15.9943 257.897 15.3011 257.794C14.608 257.688 13.9261 257.635 13.2557 257.635C12.358 257.635 11.4489 257.726 10.5284 257.908C9.60795 258.086 8.75379 258.33 7.96591 258.641C7.17803 258.948 6.53409 259.294 6.03409 259.681V257.743C7.04545 256.997 8.14773 256.437 9.34091 256.062C10.5303 255.683 11.8352 255.493 13.2557 255.493Z" fill="white"/>
<rect x="504.25" y="569.687" width="144.5" height="13.9372" fill="#8C68CD" stroke="#E2D9F3" stroke-width="0.5"/>
<rect x="504.25" y="584.125" width="144.5" height="7.66017" fill="#8C68CD" stroke="#E2D9F3" stroke-width="0.5"/>
<line x1="576.5" y1="556" x2="576.5" y2="594.918" stroke="white"/>
<line y1="-0.5" x2="38.9177" y2="-0.5" transform="matrix(1 0 0 -1 557.355 555)" stroke="white"/>
<line y1="-0.5" x2="38.9177" y2="-0.5" transform="matrix(1 0 0 -1 557.355 595.173)" stroke="white"/>
<circle cx="576.511" cy="564.416" r="2.51082" fill="#D4C6EC"/>
<circle cx="576.511" cy="571.32" r="2.51082" fill="#D4C6EC"/>
<circle cx="576.511" cy="576.97" r="2.51082" fill="#D4C6EC"/>
<circle cx="576.511" cy="582.619" r="2.51082" fill="#D4C6EC"/>
<circle cx="576.511" cy="587.013" r="2.51082" fill="#D4C6EC"/>
<circle cx="576.511" cy="557.511" r="2.51082" fill="#D4C6EC"/>
<circle cx="576.511" cy="593.918" r="2.51082" fill="#D4C6EC"/>
<line x1="573.663" y1="582.988" x2="579.619" y2="577.032" stroke="#160D27" stroke-width="0.808141"/>
<line y1="-0.404071" x2="8.42228" y2="-0.404071" transform="matrix(0.707107 0.707107 0.707107 -0.707107 573.949 577)" stroke="#160D27" stroke-width="0.808141"/>
<path d="M555.943 738.08C555.848 737.773 555.718 737.498 555.551 737.256C555.388 737.009 555.191 736.799 554.96 736.625C554.733 736.451 554.472 736.32 554.176 736.233C553.881 736.142 553.559 736.097 553.21 736.097C552.585 736.097 552.028 736.254 551.54 736.568C551.051 736.883 550.667 737.345 550.386 737.955C550.11 738.561 549.972 739.299 549.972 740.17C549.972 741.049 550.11 741.794 550.386 742.403C550.663 743.013 551.047 743.477 551.54 743.795C552.032 744.11 552.604 744.267 553.256 744.267C553.847 744.267 554.358 744.153 554.79 743.926C555.225 743.699 555.561 743.377 555.795 742.96C556.03 742.54 556.148 742.047 556.148 741.483L556.625 741.557H553.466V739.909H558.188V741.307C558.188 742.303 557.975 743.165 557.551 743.892C557.127 744.619 556.544 745.18 555.801 745.574C555.059 745.964 554.206 746.159 553.244 746.159C552.172 746.159 551.231 745.919 550.42 745.438C549.614 744.953 548.983 744.265 548.528 743.375C548.078 742.481 547.852 741.42 547.852 740.193C547.852 739.254 547.985 738.415 548.25 737.676C548.519 736.938 548.894 736.311 549.375 735.795C549.856 735.277 550.42 734.883 551.068 734.614C551.716 734.341 552.42 734.205 553.182 734.205C553.826 734.205 554.426 734.299 554.983 734.489C555.54 734.674 556.034 734.939 556.466 735.284C556.902 735.629 557.259 736.038 557.54 736.511C557.82 736.985 558.004 737.508 558.091 738.08H555.943ZM563.679 746.17C562.804 746.17 562.048 745.989 561.412 745.625C560.779 745.258 560.292 744.739 559.951 744.068C559.61 743.394 559.44 742.6 559.44 741.688C559.44 740.79 559.61 740.002 559.951 739.324C560.296 738.642 560.777 738.112 561.394 737.733C562.012 737.35 562.737 737.159 563.571 737.159C564.109 737.159 564.616 737.246 565.093 737.42C565.574 737.591 565.999 737.856 566.366 738.216C566.737 738.576 567.029 739.034 567.241 739.591C567.453 740.144 567.559 740.803 567.559 741.568V742.199H560.406V740.812H565.588C565.584 740.419 565.499 740.068 565.332 739.761C565.165 739.451 564.932 739.206 564.633 739.028C564.338 738.85 563.993 738.761 563.599 738.761C563.179 738.761 562.809 738.864 562.491 739.068C562.173 739.269 561.925 739.534 561.747 739.864C561.573 740.189 561.484 740.547 561.48 740.938V742.148C561.48 742.655 561.573 743.091 561.758 743.455C561.944 743.814 562.203 744.091 562.537 744.284C562.87 744.473 563.26 744.568 563.707 744.568C564.006 744.568 564.277 744.527 564.519 744.443C564.762 744.356 564.972 744.229 565.15 744.062C565.328 743.896 565.463 743.689 565.554 743.443L567.474 743.659C567.353 744.167 567.122 744.61 566.781 744.989C566.444 745.364 566.012 745.655 565.485 745.864C564.959 746.068 564.357 746.17 563.679 746.17ZM571.036 740.886V746H568.979V737.273H570.945V738.756H571.048C571.248 738.267 571.568 737.879 572.008 737.591C572.451 737.303 572.998 737.159 573.65 737.159C574.252 737.159 574.777 737.288 575.224 737.545C575.674 737.803 576.023 738.176 576.269 738.665C576.519 739.153 576.642 739.746 576.638 740.443V746H574.582V740.761C574.582 740.178 574.43 739.722 574.127 739.392C573.828 739.062 573.413 738.898 572.883 738.898C572.523 738.898 572.203 738.977 571.923 739.136C571.646 739.292 571.428 739.517 571.269 739.812C571.114 740.108 571.036 740.466 571.036 740.886ZM582.273 746.17C581.398 746.17 580.642 745.989 580.006 745.625C579.373 745.258 578.887 744.739 578.546 744.068C578.205 743.394 578.034 742.6 578.034 741.688C578.034 740.79 578.205 740.002 578.546 739.324C578.89 738.642 579.371 738.112 579.989 737.733C580.606 737.35 581.332 737.159 582.165 737.159C582.703 737.159 583.21 737.246 583.688 737.42C584.169 737.591 584.593 737.856 584.96 738.216C585.332 738.576 585.623 739.034 585.835 739.591C586.048 740.144 586.154 740.803 586.154 741.568V742.199H579V740.812H584.182C584.178 740.419 584.093 740.068 583.926 739.761C583.76 739.451 583.527 739.206 583.228 739.028C582.932 738.85 582.587 738.761 582.193 738.761C581.773 738.761 581.404 738.864 581.085 739.068C580.767 739.269 580.519 739.534 580.341 739.864C580.167 740.189 580.078 740.547 580.074 740.938V742.148C580.074 742.655 580.167 743.091 580.353 743.455C580.538 743.814 580.798 744.091 581.131 744.284C581.464 744.473 581.854 744.568 582.301 744.568C582.601 744.568 582.871 744.527 583.114 744.443C583.356 744.356 583.567 744.229 583.745 744.062C583.923 743.896 584.057 743.689 584.148 743.443L586.068 743.659C585.947 744.167 585.716 744.61 585.375 744.989C585.038 745.364 584.606 745.655 584.08 745.864C583.553 746.068 582.951 746.17 582.273 746.17ZM587.46 746V744.693L591.96 739.051V738.977H587.608V737.273H594.477V738.676L590.193 744.222V744.295H594.625V746H587.46ZM596.238 746V737.273H598.295V746H596.238ZM597.272 736.034C596.946 736.034 596.666 735.926 596.431 735.71C596.196 735.491 596.079 735.227 596.079 734.92C596.079 734.61 596.196 734.347 596.431 734.131C596.666 733.911 596.946 733.801 597.272 733.801C597.602 733.801 597.882 733.911 598.113 734.131C598.348 734.347 598.465 734.61 598.465 734.92C598.465 735.227 598.348 735.491 598.113 735.71C597.882 735.926 597.602 736.034 597.272 736.034ZM603.897 746.17C603.044 746.17 602.306 745.983 601.681 745.608C601.056 745.233 600.571 744.708 600.226 744.034C599.885 743.36 599.715 742.572 599.715 741.67C599.715 740.769 599.885 739.979 600.226 739.301C600.571 738.623 601.056 738.097 601.681 737.722C602.306 737.347 603.044 737.159 603.897 737.159C604.749 737.159 605.488 737.347 606.113 737.722C606.738 738.097 607.221 738.623 607.562 739.301C607.906 739.979 608.079 740.769 608.079 741.67C608.079 742.572 607.906 743.36 607.562 744.034C607.221 744.708 606.738 745.233 606.113 745.608C605.488 745.983 604.749 746.17 603.897 746.17ZM603.908 744.523C604.37 744.523 604.757 744.396 605.067 744.142C605.378 743.884 605.609 743.54 605.76 743.108C605.916 742.676 605.993 742.195 605.993 741.665C605.993 741.131 605.916 740.648 605.76 740.216C605.609 739.78 605.378 739.434 605.067 739.176C604.757 738.919 604.37 738.79 603.908 738.79C603.435 738.79 603.041 738.919 602.726 739.176C602.416 739.434 602.183 739.78 602.027 740.216C601.876 740.648 601.8 741.131 601.8 741.665C601.8 742.195 601.876 742.676 602.027 743.108C602.183 743.54 602.416 743.884 602.726 744.142C603.041 744.396 603.435 744.523 603.908 744.523Z" fill="white"/>
</svg>
