<svg width="24" height="25" viewBox="0 0 24 25" fill="none" xmlns="http://www.w3.org/2000/svg">
<path d="M12 6.5V18.5M9 15.6818L9.87887 16.341C11.0504 17.2197 12.9498 17.2197 14.1214 16.341C15.2929 15.4623 15.2929 14.0377 14.1214 13.159C13.5355 12.7196 12.7677 12.5 11.9999 12.5C11.275 12.5 10.5502 12.2804 9.99709 11.841C8.891 10.9623 8.891 9.53772 9.9971 8.65904C11.1032 7.78036 12.8965 7.78036 14.0026 8.65904L14.4175 8.98863M21 12.5C21 17.4706 16.9706 21.5 12 21.5C7.02944 21.5 3 17.4706 3 12.5C3 7.52944 7.02944 3.5 12 3.5C16.9706 3.5 21 7.52944 21 12.5Z" stroke="#6F42C1" stroke-width="1.5" stroke-linecap="round" stroke-linejoin="round"/>
</svg>
