<svg width="34" height="44" viewBox="0 0 34 44" fill="none" xmlns="http://www.w3.org/2000/svg">
<path fill-rule="evenodd" clip-rule="evenodd" d="M17 0.347168C26.2784 0.347168 33.8 4.64523 33.8 9.94717C33.8 15.2491 26.2784 19.5472 17 19.5472C7.72163 19.5472 0.200012 15.2491 0.200012 9.94717C0.200012 4.64523 7.72163 0.347168 17 0.347168ZM30.6655 19.8611C31.7782 19.2253 32.8506 18.4608 33.8 17.5738V21.9472C33.8 27.2491 26.2784 31.5472 17 31.5472C7.72163 31.5472 0.200012 27.2491 0.200012 21.9472V17.5738C1.14946 18.4608 2.22187 19.2253 3.33452 19.8611C7.01129 21.9621 11.8504 23.1472 17 23.1472C22.1496 23.1472 26.9887 21.9621 30.6655 19.8611ZM0.200012 29.5738V33.9472C0.200012 39.2491 7.72163 43.5472 17 43.5472C26.2784 43.5472 33.8 39.2491 33.8 33.9472V29.5738C32.8506 30.4608 31.7782 31.2253 30.6655 31.8611C26.9887 33.9621 22.1496 35.1472 17 35.1472C11.8504 35.1472 7.01129 33.9621 3.33452 31.8611C2.22187 31.2253 1.14946 30.4608 0.200012 29.5738Z" fill="white" fill-opacity="0.5"/>
</svg>
