<svg width="24" height="25" viewBox="0 0 24 25" fill="none" xmlns="http://www.w3.org/2000/svg">
  <path d="M18.9308 6.39149C17.6561 5.80658 16.2892 5.37565 14.8599 5.12884C14.8339 5.12408 14.8079 5.13598 14.7945 5.15979C14.6187 5.47247 14.4239 5.88039 14.2876 6.20101C12.7503 5.97087 11.221 5.97087 9.71527 6.20101C9.57887 5.87326 9.37707 5.47247 9.20048 5.15979C9.18707 5.13678 9.16107 5.12487 9.13504 5.12884C7.70659 5.37487 6.33963 5.8058 5.06411 6.39149C5.05307 6.39625 5.04361 6.40419 5.03732 6.4145C2.44449 10.2881 1.73421 14.0666 2.08265 17.7981C2.08423 17.8164 2.09447 17.8339 2.10867 17.845C3.81934 19.1012 5.47642 19.8639 7.10273 20.3694C7.12876 20.3774 7.15634 20.3679 7.1729 20.3464C7.55761 19.8211 7.90054 19.2671 8.19456 18.6846C8.21192 18.6505 8.19535 18.61 8.15989 18.5965C7.61594 18.3902 7.098 18.1386 6.59977 17.8529C6.56037 17.8299 6.55721 17.7735 6.59347 17.7465C6.69831 17.668 6.80318 17.5862 6.9033 17.5037C6.92141 17.4886 6.94665 17.4854 6.96794 17.495C10.2411 18.9893 13.7846 18.9893 17.0191 17.495C17.0404 17.4846 17.0657 17.4878 17.0846 17.5029C17.1847 17.5854 17.2895 17.668 17.3952 17.7465C17.4314 17.7735 17.4291 17.8299 17.3897 17.8529C16.8914 18.1441 16.3735 18.3902 15.8288 18.5957C15.7933 18.6092 15.7775 18.6505 15.7949 18.6846C16.0952 19.2663 16.4381 19.8202 16.8157 20.3456C16.8315 20.3679 16.8599 20.3774 16.8859 20.3694C18.5201 19.8639 20.1772 19.1012 21.8879 17.845C21.9028 17.8339 21.9123 17.8172 21.9139 17.7989C22.3309 13.4848 21.2154 9.73737 18.9568 6.41529C18.9513 6.40419 18.9419 6.39625 18.9308 6.39149ZM8.68335 15.526C7.69792 15.526 6.88594 14.6213 6.88594 13.5102C6.88594 12.3991 7.68217 11.4944 8.68335 11.4944C9.69239 11.4944 10.4965 12.4071 10.4807 13.5102C10.4807 14.6213 9.68451 15.526 8.68335 15.526ZM15.329 15.526C14.3435 15.526 13.5316 14.6213 13.5316 13.5102C13.5316 12.3991 14.3278 11.4944 15.329 11.4944C16.338 11.4944 17.1421 12.4071 17.1264 13.5102C17.1264 14.6213 16.338 15.526 15.329 15.526Z" fill="#171717"/>
</svg>