<svg width="61" height="62" viewBox="0 0 61 62" fill="none" xmlns="http://www.w3.org/2000/svg">
<g clip-path="url(#clip0_13_622)">
<path d="M27.0483 0.889648H37.0584V46.1224C31.9303 47.0793 28.1562 47.4547 24.0717 47.4547C11.8446 47.4421 5.47998 42.0577 5.47998 31.717C5.47998 21.7518 12.2307 15.285 22.6925 15.285C24.3165 15.285 25.5531 15.4105 27.0483 15.7873V0.889648ZM27.3991 23.938C26.2256 23.5613 25.2603 23.4357 24.0225 23.4357C18.96 23.4357 16.0351 26.4795 16.0351 31.815C16.0351 37.0098 18.8313 39.8791 23.9594 39.8791C25.0673 39.8791 25.9682 39.8163 27.3991 39.6279V23.938Z" fill="white"/>
<path d="M53.4292 16.498V39.1445C53.4292 46.9449 52.8361 50.6957 51.0973 53.9291C49.4733 57.0382 47.3345 58.9983 42.9156 61.1632L33.6261 56.8473C38.0463 54.8231 40.1851 53.0338 41.5503 50.3039C42.98 47.5125 43.4305 44.279 43.4305 35.7729V16.498H53.4292ZM42.4223 0.889648H52.4336V10.9177H42.4223V0.889648Z" fill="white"/>
</g>
<defs>
<clipPath id="clip0_13_622">
<rect width="60.5675" height="60.2735" fill="white" transform="translate(0.432373 0.889893)"/>
</clipPath>
</defs>
</svg>
