<svg width="58" height="58" viewBox="0 0 58 58" fill="none" xmlns="http://www.w3.org/2000/svg">
<g clip-path="url(#clip0_13_607)">
<path d="M28.4986 57.8112C12.8021 58.0716 -0.0165356 44.6343 -0.000840094 29.3598C0.0148555 13.8821 13.0219 0.874211 28.5411 0.889907C44.0132 0.905602 57.0109 13.8978 57.0174 29.3792C57.0239 44.638 44.2071 58.0817 28.4977 57.8103L28.4986 57.8112ZM27.1552 30.2286C27.1765 30.0716 27.2079 29.9525 27.2069 29.8343C27.1829 27.4542 26.7933 25.1534 25.6318 23.04C24.5027 20.9848 22.91 19.4051 20.625 18.733C16.0723 17.3942 11.0645 19.0109 8.79975 23.8885C6.91905 27.9389 7.25974 32.0123 9.27061 35.9159C10.4681 38.2398 12.5233 39.5942 15.0697 40.1676C16.6928 40.5332 18.3399 40.5821 19.9704 40.2562C23.4271 39.5656 25.8119 37.6526 26.7407 34.1479C26.7859 33.9789 26.8053 33.8035 26.8459 33.5782C25.7242 33.5782 24.6661 33.569 23.609 33.593C23.5083 33.5948 23.3588 33.7887 23.3218 33.9198C23.0578 34.8385 22.5454 35.5771 21.7984 36.1707C20.4763 37.2214 18.9409 37.4513 17.3187 37.3719C14.3052 37.2251 12.0607 35.3213 11.5049 32.3955C11.3729 31.7021 11.3627 30.9847 11.2907 30.2277H27.1543L27.1552 30.2286ZM49.3718 40.427C49.2315 40.2174 49.1382 40.0669 49.0348 39.9229C46.4118 36.2649 43.7916 32.6042 41.1547 28.9554C40.9193 28.6304 40.8971 28.4291 41.151 28.0931C43.4869 25.0047 45.8006 21.9007 48.1199 18.8004C48.215 18.673 48.2999 18.5382 48.4282 18.3498C48.2048 18.3378 48.0719 18.324 47.938 18.323C46.8005 18.3212 45.6621 18.3341 44.5256 18.3147C44.1941 18.3092 43.9966 18.4246 43.8082 18.6905C42.1851 20.9867 40.5491 23.2727 38.9158 25.5605C38.8133 25.7046 38.7016 25.8431 38.5622 26.0268C38.42 25.8274 38.3129 25.6815 38.2104 25.5328C36.6547 23.2653 35.0944 21.0005 33.5526 18.7237C33.3467 18.42 33.1251 18.3074 32.7622 18.3138C31.5638 18.335 30.3645 18.3212 29.1652 18.323C29.0073 18.323 28.8494 18.3397 28.6094 18.3535C28.7719 18.5843 28.8734 18.7348 28.9805 18.8807C31.3192 22.0623 33.6532 25.2476 36.0047 28.419C36.2282 28.72 36.2273 28.9065 36.0103 29.2093C33.4464 32.7777 30.8972 36.3572 28.3462 39.934C28.2447 40.0762 28.1533 40.2267 28.0056 40.4519C29.3794 40.4519 30.6516 40.4372 31.923 40.4612C32.2932 40.4685 32.5028 40.3384 32.7031 40.0383C34.5377 37.2916 36.3861 34.5541 38.2326 31.8157C38.3314 31.6689 38.4394 31.5295 38.5733 31.3448C38.7164 31.5498 38.8226 31.6966 38.9241 31.8471C40.7522 34.5606 42.5867 37.2703 44.3991 39.9949C44.6327 40.3448 44.882 40.4713 45.2956 40.4621C46.4783 40.4353 47.6629 40.4538 48.8465 40.4519C48.9933 40.4519 49.141 40.439 49.3718 40.427Z" fill="white"/>
<path d="M11.3812 27.3135C11.2317 24.1329 14.14 21.3206 17.4859 21.3954C21.4255 21.4831 23.416 24.7644 23.4133 27.3135H11.3812Z" fill="white"/>
</g>
<defs>
<clipPath id="clip0_13_607">
<rect width="57.0192" height="56.925" fill="white" transform="translate(0 0.889893)"/>
</clipPath>
</defs>
</svg>
