<svg width="59" height="60" viewBox="0 0 59 60" fill="none" xmlns="http://www.w3.org/2000/svg">
<path d="M26.0388 17.2933C26.6747 16.1668 23.4169 15.7761 25.6118 16.8954C25.8153 16.9626 25.7699 17.3714 26.0388 17.2933ZM8.27441 7.72338C6.88989 5.91551 10.8763 8.02681 9.47178 6.13354C8.28713 5.19054 7.14971 7.19646 8.27441 7.72338ZM11.1743 9.99458C13.1402 9.73294 10.6746 9.14788 10.78 9.97096L11.1743 9.99458ZM9.62077 9.6221C8.88127 9.91282 10.0423 9.04976 9.62077 9.6221V9.6221ZM12.755 13.0725C13.976 13.1016 12.2299 11.4336 13.6835 12.1876C13.4455 11.4082 11.9901 11.2628 11.276 10.9521C10.8763 11.6644 12.0937 13.0816 12.7514 13.0725H12.755ZM8.95395 12.9162C9.9987 12.1277 12.5588 13.3832 10.9163 12.1331C10.7582 11.9932 7.31506 13.0816 8.95395 12.9162ZM7.88195 14.9658C9.71162 14.3444 12.2118 13.6467 13.0748 15.2728C12.1954 14.2154 12.7205 13.1743 13.5509 14.7205C14.7228 16.2849 15.3097 14.0101 14.5447 13.4831C15.4151 14.5642 16.4035 15.073 15.128 13.5504C16.5125 11.8842 12.3517 13.7702 11.405 13.7502C10.9508 13.9537 6.70092 14.8331 7.88195 14.9658ZM11.2869 20.6601C10.6746 20.5129 11.7339 20.1078 11.2869 20.6601V20.6601ZM10.2204 23.5146C9.9024 23.8634 10.1114 22.8568 10.2204 23.5146V23.5146ZM9.31734 23.0567C10.3385 22.9895 10.9199 21.9284 9.11929 21.9901C6.32663 21.7012 11.5813 22.944 8.76135 22.5897C8.38161 22.8386 9.29736 23.1275 9.31734 23.0603V23.0567ZM52.9243 50.7562C54.1889 50.7562 56.7563 50.3637 54.0036 50.3637C53.573 50.4328 51.4871 50.4182 52.9243 50.7562ZM46.863 47.1968C46.2506 47.2804 46.9992 46.2701 46.863 47.1968V47.1968ZM51.6143 50.4437C50.9239 50.8071 51.6416 49.637 51.6143 50.4437V50.4437ZM4.83673 21.1761C3.76654 20.9127 5.74339 20.4839 4.83673 21.1761V21.1761ZM8.28713 23.629C7.08248 23.3892 8.84312 23.0385 8.28713 23.629V23.629ZM7.11882 23.302C5.43632 22.4625 8.70139 22.3317 7.11882 23.302V23.302ZM18.8237 15.9342C19.3524 14.5442 20.8805 15.3782 19.069 15.6544C19.1071 15.8016 19.0144 16.3721 18.8237 15.9342ZM17.3701 15.9433C17.2447 13.187 19.9102 16.9245 17.3701 15.9433V15.9433ZM12.2608 16.73C13.1002 15.7216 17.0176 16.0868 14.1504 16.6319C13.3837 16.0523 12.7932 16.9717 12.2608 16.73ZM11.9065 16.9662C12.0519 17.4877 12.4098 16.3757 11.9065 16.9662V16.9662ZM10.5274 17.5222C10.6001 16.5883 12.8386 18.0164 10.8981 17.8584L10.5274 17.5222ZM9.51721 17.5041C9.93874 17.8348 10.3112 16.9136 9.51721 17.5041V17.5041ZM9.41001 18.4907C9.96236 16.4611 12.3626 20.1586 10.313 18.7578C10.0932 18.5852 9.81337 18.4816 9.50812 18.4816C9.4736 18.4816 9.43908 18.4834 9.40456 18.4852H9.40819L9.41001 18.4907ZM3.74655 21.3742C3.53578 20.1586 3.56486 18.0273 5.59076 18.7487C2.88713 19.2847 7.46223 22.1082 6.88444 19.8788C8.02003 19.9333 9.11021 19.2066 8.51061 20.3094C10.7509 20.0605 12.3026 18.12 14.4684 18.3907C16.4344 18.2272 18.2513 17.8475 19.9792 17.2733L19.8139 17.3206C21.3074 17.2115 22.7428 15.6035 21.9252 14.6533C21.5291 14.6296 21.0658 14.6151 20.5988 14.6151C18.7946 14.6151 17.0376 14.8222 15.3515 15.2129L15.5077 15.182C13.0149 15.6998 10.7491 16.6846 8.2308 17.1098C5.77791 17.4387 8.7232 18.0183 8.02185 18.1454C6.7409 18.5906 9.5481 18.8904 7.85651 19.3574C6.81176 19.1575 5.72158 18.7996 6.17037 17.7003C3.82105 18.0019 1.75335 18.9794 3.6121 21.3687H3.74837L3.74655 21.3742ZM7.68935 24.0124C6.75907 24.1832 7.81472 23.1493 7.68935 24.0124V24.0124ZM48.9724 50.6962C48.2148 50.8089 49.2722 49.8059 48.9724 50.6962V50.6962ZM44.49 48.3723C43.5361 48.1598 45.2386 47.6837 44.49 48.3723V48.3723ZM7.40227 25.466C8.57784 25.0045 5.26734 24.5121 7.16606 25.3751L7.40227 25.466ZM4.63323 23.8107C4.20261 23.9016 4.55328 23.0839 4.63323 23.8107V23.8107ZM4.13356 24.1886C3.80651 24.4194 4.08814 23.5763 4.13356 24.1886V24.1886ZM7.50765 26.3781C5.59985 26.1782 7.34958 25.0499 7.50765 26.3781V26.3781ZM14.0469 31.2094C13.3891 31.0204 14.3231 30.955 14.0469 31.2094V31.2094ZM8.13087 27.4174C7.85833 27.1975 7.91828 27.6936 8.13087 27.4174V27.4174ZM7.1915 26.9577C5.68524 26.4489 7.21149 26.3908 7.1915 26.9577V26.9577ZM5.54716 26.5434C4.35523 26.2763 5.23464 24.7846 5.54716 26.5434V26.5434ZM12.4425 31.3311C11.723 31.2966 12.4625 30.4063 12.4425 31.3311V31.3311ZM43.6015 50.7398C44.7644 50.5036 47.4117 51.3304 47.8387 50.431C46.4305 50.3964 42.9565 49.4371 42.793 50.6581L43.1018 50.7108L43.6015 50.7398ZM11.6103 31.1222C11.3342 31.2348 11.594 30.8205 11.6103 31.1222V31.1222ZM8.98484 29.8503C8.15086 29.6468 9.8915 29.5432 8.98484 29.8503V29.8503ZM29.9416 43.9971C29.044 44.2242 29.9253 43.0868 29.9416 43.9971V43.9971ZM9.54446 31.1421C8.03639 30.7569 10.9526 30.5971 9.54446 31.1421V31.1421ZM36.8134 48.6703C36.201 48.6249 37.3039 48.3069 36.8134 48.6703V48.6703ZM31.7004 45.4471C31.3443 45.5143 31.6096 45.0946 31.7004 45.4471V45.4471ZM31.079 44.9946C30.107 44.9801 30.8338 44.3641 31.079 44.9946V44.9946ZM18.1805 36.8583C16.5343 36.4858 18.1805 35.9389 18.1805 36.8583V36.8583ZM16.6906 36.5131C16.0873 36.0061 16.6615 36.4404 16.6906 36.5131V36.5131ZM6.87353 30.4608C7.08248 29.5905 4.93666 25.6767 5.86149 28.4985C6.19218 29.089 6.15584 30.21 6.87353 30.4608ZM12.2227 34.6834C13.3964 34.9469 16.914 37.576 14.8391 34.8651C13.7762 34.5526 14.4139 31.9525 13.3292 32.4122C14.056 33.6277 13.9288 34.1438 12.3989 33.3788C10.4802 32.4413 11.3233 33.8421 11.6957 34.2273C11.187 34.3454 12.3753 34.6725 12.2245 34.6816L12.2227 34.6834ZM41.6138 53.6034C40.549 53.4144 42.4895 53.0183 41.6138 53.6034V53.6034ZM38.4795 51.5193C37.1004 52.0026 39.7823 50.4255 38.4795 51.5193V51.5193ZM39.0918 51.8155C40.6926 50.6581 38.1198 51.5938 38.7557 52.0335L39.0918 51.8155ZM21.1694 41.179C20.6606 41.2862 20.8405 40.5049 21.1694 41.179V41.179ZM20.1246 40.574C19.4632 40.6194 20.0792 40.0289 20.1246 40.574V40.574ZM37.0859 51.2686C38.3378 50.4618 36.8006 50.5872 36.8588 51.3413L37.0859 51.2686ZM11.4177 35.0813C10.4638 35.0104 11.7884 34.5326 11.4177 35.0813V35.0813ZM37.4965 51.7973C36.6789 51.5647 38.7902 50.689 37.4965 51.7973V51.7973ZM35.5306 51.0251C34.4731 50.2983 38.107 49.359 35.5306 51.0251V51.0251ZM8.21627 33.9185C7.02253 32.216 7.47313 31.4474 6.32118 30.0592C6.10314 28.9927 4.34615 26.5779 5.4127 29.138C6.38841 30.6334 6.67912 32.95 8.21627 33.9203V33.9185ZM35.9685 51.4975C34.6112 51.5865 37.3694 50.0131 35.9685 51.4975V51.4975ZM35.9667 51.9736C35.4216 52.1226 35.9739 51.6338 35.9667 51.9736V51.9736ZM33.3321 50.1675C32.1056 50.6399 34.5985 49.1046 33.3321 50.1675V50.1675ZM21.7599 43.016C22.5811 43.7427 25.5337 43.552 22.7592 43.1068C22.3467 42.4945 20.1464 42.6435 21.7599 43.016ZM13.3346 37.9376C11.3723 37.1108 12.7859 37.0255 13.3346 37.9376V37.9376ZM11.8556 36.9655C10.2658 36.0806 11.6285 36.0734 11.8556 36.9655V36.9655ZM33.8608 50.7871C34.5985 50.0712 33.8899 51.93 35.0872 50.6127C35.0982 49.6697 35.0491 49.1137 33.7118 50.2584C33.3448 50.4619 33.1813 51.3322 33.8608 50.7871ZM32.4745 50.2038C32.0366 50.7489 32.5199 49.5679 32.4745 50.2038V50.2038ZM18.9872 42.033C17.4173 40.7702 22.1887 43.0632 18.9872 42.033V42.033ZM16.3526 40.5195C17.1248 41.0936 19.2597 42.1511 17.4519 40.7375C18.0624 40.0289 16.2854 39.6528 16.8759 39.1804C15.3769 38.2628 15.6949 38.3446 16.7451 38.3718C14.9426 37.5687 17.0031 37.6269 16.9031 37.2144C16.2109 37.0781 13.4527 35.988 15.0771 37.3053C13.4291 36.4658 14.6846 37.6178 14.1868 37.496C12.5007 37.0382 15.6858 38.7788 13.9197 38.3482C14.8845 39.1131 16.5216 40.3105 14.3285 39.1586C14.0378 39.5746 15.8947 40.2033 16.3544 40.5213L16.3526 40.5195ZM21.3274 43.8209C22.7247 44.1843 22.7174 43.6047 21.4528 43.4357C20.7714 42.7997 18.6238 42.1293 20.5443 43.3557C20.6733 43.6773 21.0785 43.6719 21.3256 43.8227L21.3274 43.8209ZM18.8073 42.549C18.5166 42.2964 18.8437 42.7071 18.8073 42.549V42.549ZM20.0319 18.4525C20.0774 18.7687 20.2445 18.1909 20.0319 18.4525V18.4525ZM19.2997 22.8187C18.8091 21.9556 19.9175 19.0194 20.0392 20.8436C19.5232 22.2627 19.892 23.0567 20.25 21.1525C20.915 19.6535 20.1064 24.1105 19.2961 22.8205L19.2997 22.8187ZM18.5875 23.9761C18.4675 23.2493 18.9963 24.8936 18.5875 23.9761V23.9761ZM19.0253 25.1335C18.3113 23.371 19.6885 26.0637 19.0253 25.1335V25.1335ZM19.3233 25.793C19.3179 25.4133 19.4214 26.3417 19.3233 25.793V25.793ZM14.185 22.9331C14.6519 21.9483 15.048 24.0306 14.185 22.9331V22.9331ZM12.3644 21.8484C12.5188 22.2391 12.6569 21.723 12.3644 21.8484V21.8484ZM20.1464 27.9243C20.3808 29.1798 20.4117 25.7803 20.1464 27.9243V27.9243ZM13.1657 23.8289C13.549 23.2656 12.1445 21.2852 13.3673 23.1185C13.8943 23.5382 14.8936 23.8216 14.0105 23.9979C15.3951 25.2225 13.6708 24.3286 13.1657 23.8307V23.8289ZM20.5461 28.513C20.6461 26.6288 21.1094 27.3883 20.5498 28.7801L20.5461 28.513ZM12.4643 24.483C13.4073 24.2831 16.3653 26.1382 13.6453 25.0135C13.3455 24.6774 12.7005 24.8337 12.4643 24.483ZM21.0731 30.4353C21.0949 31.1276 21.3674 29.387 21.0731 30.4353V30.4353ZM17.2538 27.9861C17.1048 26.1473 17.5881 28.2895 17.2538 27.9861V27.9861ZM12.2227 25.317C10.6401 23.1312 16.825 27.5264 13.2383 25.8712C12.864 25.773 12.4116 25.7349 12.2227 25.317ZM20.955 31.2366C20.9713 31.8217 21.0767 30.737 20.955 31.2366V31.2366ZM21.4092 31.6872C21.5182 30.5226 21.6345 32.4812 21.4092 31.6872V31.6872ZM18.7982 30.1428C17.7317 29.5033 18.5184 25.6386 18.8818 28.2804C19.9193 27.9443 18.8255 29.6432 19.5977 29.6286C19.4778 30.7024 19.1307 31.0895 18.8037 30.141L18.7982 30.1428ZM11.7375 26.0383C9.27192 23.8452 14.8373 27.1866 12.1391 26.4471L11.7375 26.0383ZM13.3201 27.5518C12.5751 26.151 14.2286 28.1369 13.3201 27.5518V27.5518ZM12.5243 27.2956C12.7859 27.7771 13.0167 26.8069 12.5243 27.2956V27.2956ZM11.2306 27.3302C10.3821 26.4907 9.76795 25.7113 11.2688 26.8087C11.8484 26.8305 9.98417 25.0426 11.405 26.2418C12.904 26.5144 12.1482 28.6983 11.2306 27.332V27.3302ZM13.6926 29.2362C14.1832 28.2023 14.5229 30.6752 13.6926 29.2362V29.2362ZM12.6696 28.8855C12.7605 27.5155 13.1911 29.823 12.6696 28.8855V28.8855ZM14.9481 30.4535C14.4721 29.6395 14.1904 28.6602 14.1904 27.6154C14.1904 27.6136 14.1904 27.6118 14.1904 27.61C14.363 28.4676 16.0165 31.3039 15.0008 28.7855C13.8797 26.6742 16.3399 29.4705 16.5943 29.9975C16.7069 30.5189 15.902 29.8539 16.4489 31.0822C15.4496 29.6813 15.8584 31.8562 14.9481 30.4535ZM22.3177 35.3702C21.5182 33.5769 22.8846 34.389 22.4939 35.6646L22.3177 35.3702ZM18.0442 33.9984C17.6917 33.3679 18.7782 34.5889 18.0442 33.9984V33.9984ZM23.0208 37.4615C23.3261 36.3168 23.3806 38.4245 23.0208 37.4615V37.4615ZM15.9747 33.6423C16.22 34.4908 16.4725 33.506 15.9747 33.6423V33.6423ZM24.8287 39.7545C23.9838 38.1193 25.8953 40.2178 24.8287 39.7545V39.7545ZM25.5609 40.7375C25.5391 39.6746 25.8044 41.5551 25.5609 40.7375V40.7375ZM33.9753 47.1314C33.9898 47.4493 34.395 47.1059 33.9753 47.1314V47.1314ZM26.622 42.46C25.9498 41.7568 25.7753 40.4395 26.5021 41.586C26.8746 41.735 27.6941 43.7355 26.622 42.46ZM28.8805 48.8357C30.6357 47.7873 30.0561 51.2922 31.8567 49.13C33.6319 47.8363 30.325 50.7344 32.5144 49.3644C34.0952 48.3033 36.4336 49.8641 37.909 50.3746C38.9719 50.3219 40.0039 51.294 41.0941 50.7035C43.1891 50.1366 36.9932 49.8641 38.6194 48.8647C38.3687 48.9211 38.0798 48.9538 37.7836 48.9538C36.321 48.9538 35.0418 48.1634 34.3496 46.9878L34.3387 46.9697C31.9784 46.579 29.9743 45.2981 28.6407 43.492L28.6243 43.4684C28.1883 42.7525 29.2603 43.5683 28.2482 42.4018C27.1471 41.2935 26.2078 40.0198 25.4737 38.6244L25.4319 38.539C24.3945 37.9848 24.2745 36.3532 24.1673 38.4845C24.1764 37.1381 22.9118 36.2314 22.6048 36.6094C22.6011 35.3121 23.9566 35.9625 23.0045 35.0032C22.801 33.6586 22.1287 32.2559 21.9252 30.7406C21.6127 30.0102 21.8798 28.4458 20.8514 30.101C20.4771 31.8489 20.726 27.9516 21.3093 29.238C22.0742 27.9207 21.0367 28.0806 20.9913 28.2623C21.491 27.1539 21.3093 25.5823 20.8623 26.1819C21.1276 25.0081 21.282 21.8629 20.4644 22.4226C20.9586 21.1961 21.4037 16.8082 19.2525 18.4816C18.126 18.527 17.0685 18.7705 16.0982 19.1757L16.1582 19.1539C18.3967 20.3876 15.9311 19.599 15.0226 19.4028C14.9045 20.542 14.0015 20.0496 12.8749 20.0605C14.6756 20.2822 11.9992 21.8993 10.9653 21.2724C9.62622 21.912 12.1227 23.5127 10.9926 24.0088C11.1288 24.7537 8.9376 23.7362 9.10839 25.4623C7.80745 24.9154 8.93215 27.5064 9.58262 26.6288C11.7957 27.2284 11.1398 28.5948 11.1943 29.8921C10.8363 30.6479 9.41364 28.1151 10.8763 28.2314C9.72434 26.3545 9.6026 27.55 8.64143 28.424C8.41431 28.4876 11.0907 29.6668 9.41364 30.2464C10.889 30.4735 10.9308 31.7672 11.2306 32.5848C12.1155 33.5096 11.9338 31.5637 12.9985 32.6757C12.3262 31.6854 9.4409 29.8866 11.763 30.4644C11.7521 29.4651 11.3433 28.6638 12.0555 28.6838C12.7587 27.4083 11.3178 31.8326 12.9077 30.21C13.3455 30.0174 13.4527 28.9309 14.2467 30.3118C15.3932 31.4419 14.6592 32.2596 13.0403 31.2275C13.3292 32.2105 15.2061 32.5612 14.8536 34.1002C15.2279 35.452 15.7512 34.9541 16.2072 34.876C16.5652 36.1878 16.7687 35.223 16.7869 34.5962C18.4221 34.9487 18.0406 35.9135 18.5529 36.5948C19.6813 37.1036 16.9358 33.139 18.8745 35.4011C20.9132 37.2399 19.6395 38.0121 17.808 37.7177C18.9654 37.625 19.3415 39.2839 20.7896 39.2258C22.1105 39.8545 23.0027 42.2692 20.7278 41.2626C19.9375 40.5522 17.1412 39.6728 19.4269 41.0264C21.7562 41.9803 23.6695 42.9142 25.5137 43.9535L25.2412 43.8136C26.6947 44.8529 27.3252 46.043 27.8757 46.2792C26.6548 46.8625 24.191 45.8123 26.0206 45.4888C24.8778 45.2817 23.595 44.7057 24.687 46.1248C25.6173 46.9043 27.9793 46.8189 28.4045 46.9079C28.0429 47.6983 27.4288 47.7619 28.419 47.8236C27.3161 48.4141 28.7733 48.505 28.8751 48.8411L28.8805 48.8357ZM22.3504 44.822C24.2273 45.0619 20.1137 43.5429 21.9397 44.6857L22.3504 44.822ZM27.3579 48.2215C25.7681 47.9036 28.9877 47.5747 27.3579 48.2215V48.2215ZM17.7299 42.2329C16.0492 41.5261 18.7746 42.1202 17.7299 42.2329V42.2329ZM23.4187 45.8486C22.2196 45.6742 23.555 45.269 23.4187 45.8486V45.8486ZM31.7386 51.2359C31.3225 51.4067 31.7168 50.7889 31.7386 51.2359V51.2359ZM24.0965 46.5481C23.8385 46.2538 23.9729 46.6117 24.0965 46.5481V46.5481ZM11.8193 38.7479C10.2894 37.536 11.6449 38.0738 11.8193 38.7479V38.7479ZM16.4961 41.7732C14.5702 41.1536 17.9043 41.6896 16.4961 41.7732V41.7732ZM20.4426 44.6203C19.6795 44.6022 20.2972 44.1861 20.4426 44.6203V44.6203ZM30.9555 51.1051C30.1542 51.7174 31.0191 50.2802 30.9555 51.1051V51.1051ZM16.2654 42.0566C15.6622 42.0984 16.1709 41.6024 16.2654 42.0566V42.0566ZM26.8092 48.7775C24.5961 48.4432 29.2621 48.7993 26.8092 48.7775V48.7775ZM22.3286 46.1884C24.9177 46.9224 20.1537 44.5531 21.6908 45.9213L22.0306 46.0757L22.3249 46.1884H22.3286ZM24.5634 47.9672C22.7138 47.5366 25.0013 47.2186 24.5634 47.9672V47.9672ZM17.2066 43.4757C18.264 44.2878 21.4746 43.5792 18.8273 42.9923C17.6245 42.3491 14.9063 41.9113 16.756 43.3775L17.2066 43.4757ZM23.0735 47.5002C21.4928 47.1296 24.0492 47.1332 23.0735 47.5002V47.5002ZM20.8805 46.1538C19.4705 45.7905 21.5618 45.6778 20.8805 46.1538V46.1538ZM18.2695 44.6331C16.8704 44.2133 18.1786 44.2533 18.2695 44.6331V44.6331ZM27.1726 51.5684C28.0738 52.1353 32.4399 52.8166 29.7036 51.8028C29.2494 51.8972 24.6397 50.5 27.1689 51.5684H27.1726ZM21.5636 48.0671C21.1639 48.2379 21.5327 47.691 21.5636 48.0671V48.0671ZM20.4426 47.5075C19.0126 47.4984 21.5491 46.7916 20.4426 47.5075V47.5075ZM25.3629 50.9433C23.9784 50.6999 25.7971 50.3038 25.3629 50.9433V50.9433ZM22.8028 49.5134C21.7035 49.0864 23.5114 48.832 22.8028 49.5134V49.5134ZM21.3056 48.8884C20.7605 49.2245 21.1839 48.287 21.3056 48.8884V48.8884ZM20.1101 48.4523C19.4069 48.1798 20.5988 48.2343 20.1101 48.4523V48.4523ZM11.1325 40.5122C11.207 40.1815 11.534 41.2317 11.1325 40.5122V40.5122ZM17.4755 47.4766C19.6776 48.2924 17.4664 45.9285 16.4544 46.0648C16.0092 45.2908 14.75 44.8002 15.6367 44.3841C14.0378 44.9383 13.9633 42.2728 13.2074 42.6526C11.5177 42.1184 12.5497 40.2233 10.5365 39.0659C10.353 37.8395 8.53423 36.7765 7.95281 34.9287C7.69662 33.9839 5.89783 31.2657 7.00436 33.7931C8.18174 36.3114 9.50812 38.479 11.0398 40.4795L10.978 40.3941C11.9683 42.5363 13.4237 44.3151 15.2225 45.6596L15.2588 45.6851C15.9165 46.3174 16.5488 47.2822 17.4773 47.4784L17.4755 47.4766ZM21.798 50.5327C23.8148 51.5702 26.1551 52.3787 28.6171 52.8366L28.777 52.8621C31.1445 53.4053 33.8626 53.716 36.6553 53.716C38.1052 53.716 39.537 53.6324 40.9433 53.4689L40.7725 53.4853C38.9792 52.6749 37.1222 53.8032 35.3344 52.9057C34.6984 52.9783 33.9607 53.0183 33.214 53.0183C31.6169 53.0183 30.0634 52.8312 28.5753 52.4769L28.7115 52.5041C25.7481 51.4248 23.2843 50.3129 20.9132 49.0483L21.2384 49.2063C18.3385 48.1489 22.7374 50.5636 23.5205 50.7617C25.332 51.79 21.5291 50.2329 20.9913 49.8059C19.4741 48.9538 19.2797 49.1318 20.8423 49.9967C21.1585 50.1784 21.4692 50.3728 21.7962 50.5309L21.798 50.5327ZM18.1314 48.9429C15.9002 47.4075 13.9887 45.6215 12.3698 43.5919L12.328 43.5392C9.28282 39.8018 6.80267 35.452 5.1129 30.7279L5.0166 30.4226C4.00456 27.3465 3.65389 24.0469 2.35113 21.0907C2.08767 20.6074 1.93323 20.0315 1.93323 19.4191C1.93323 17.6531 3.22508 16.1868 4.91485 15.916L4.93484 15.9142C5.97959 15.7162 7.8238 14.7296 5.59985 15.4346C3.60665 16.8972 3.41405 14.1064 5.45631 13.9319C6.3448 13.9228 7.0625 13.2015 7.0625 12.3112C7.0625 12.0441 6.99709 11.7915 6.88262 11.5681L6.88625 11.5771C5.38726 10.6014 10.5184 9.52762 7.93827 8.07224C5.25281 5.16874 11.7012 4.61275 10.1114 7.90508C9.73161 10.4361 14.6156 7.43994 13.4836 10.3634C14.6356 11.7697 17.7971 10.6814 17.719 12.6546C19.3996 12.7673 19.9738 14.1808 21.5491 14.2899C23.1844 15.0276 26.1406 15.6072 26.6947 17.4459C25.0758 18.7305 21.3274 14.8004 21.1476 18.3489C21.1893 23.9361 22.0197 29.3125 23.5314 34.3963L23.4278 33.9875C24.6452 37.0109 26.3713 39.5928 28.5226 41.7477C30.4831 43.9317 32.8397 45.7123 35.4888 46.9878L35.6233 47.046C37.7309 48.0417 40.1802 48.8266 42.7421 49.2772L42.9183 49.3026C43.9358 48.5232 45.7346 45.6306 47.319 46.8497C47.3935 48.2215 44.1666 49.7169 47.1664 49.5661C48.9288 49.0355 50.1498 50.9288 51.6016 49.2209C52.937 50.8034 57.156 48.2088 56.2039 51.4466C54.9193 52.2734 53.0442 51.7737 51.756 52.9129C49.6338 51.8518 47.9422 53.8614 45.5911 53.607C43.2817 54.0267 40.6235 54.2666 37.909 54.2666C37.829 54.2666 37.7473 54.2666 37.6673 54.2666H37.68C33.0504 54.1848 28.6207 53.4598 24.4344 52.1789L24.7742 52.2679C22.2414 51.4121 20.0447 50.2856 18.0515 48.8884L18.135 48.9447L18.1314 48.9429Z" fill="white"/>
</svg>
