<svg width="24" height="24" viewBox="0 0 24 24" fill="none" xmlns="http://www.w3.org/2000/svg">
<g clip-path="url(#clip0_1793_909)">
<path d="M16.9119 17.0987C17.8196 18.6307 18.7171 20.1453 19.6139 21.6583C15.6426 24.6156 9.46385 24.973 4.88986 21.5674C-0.373804 17.6452 -1.23893 10.9527 1.57915 6.13522C4.82035 0.59405 10.8857 -0.631414 14.7909 0.267172C14.6853 0.490341 12.3464 5.21005 12.3464 5.21005C12.3464 5.21005 12.1615 5.22186 12.0569 5.22383C10.9026 5.27142 10.0429 5.53266 9.12137 5.99607C8.11038 6.50919 7.24399 7.25536 6.59793 8.16935C5.95187 9.08335 5.5458 10.1374 5.41521 11.2392C5.27896 12.3567 5.43783 13.4895 5.8768 14.5307C6.24795 15.4109 6.77297 16.1926 7.47682 16.8526C8.55654 17.8661 9.84142 18.4936 11.3308 18.7013C12.7412 18.8982 14.0976 18.7033 15.3686 18.082C15.8454 17.8493 16.2509 17.5923 16.725 17.2399C16.7854 17.2018 16.8391 17.1536 16.9119 17.0987Z" fill="#C5B3E6"/>
<path d="M16.9207 3.66286C16.6903 3.44232 16.4767 3.23884 16.2641 3.03405C16.1372 2.91196 16.0151 2.78495 15.8852 2.66582C15.8386 2.62283 15.784 2.56408 15.784 2.56408C15.784 2.56408 15.8282 2.47284 15.8471 2.43543C16.0957 1.95004 16.4855 1.59526 16.9477 1.31302C17.4589 0.998542 18.0544 0.838535 18.6591 0.853223C19.4328 0.867991 20.1521 1.05539 20.7591 1.56015C21.2072 1.93264 21.437 2.40524 21.4775 2.9694C21.545 3.92115 21.1401 4.65006 20.336 5.15875C19.8637 5.45806 19.3542 5.68944 18.8433 5.96348C18.5616 6.11477 18.3207 6.24769 18.0453 6.5214C17.8031 6.7961 17.7913 7.05504 17.7913 7.05504L21.4512 7.05044V8.63593H15.8019V8.48267C15.7803 7.70354 15.8737 6.97037 16.2405 6.26279C16.5779 5.61363 17.1023 5.13841 17.7322 4.77247C18.2174 4.49056 18.7283 4.25065 19.2145 3.97005C19.5144 3.79709 19.7263 3.5434 19.7246 3.1755C19.7246 2.85978 19.4884 2.57918 19.151 2.49155C18.3554 2.28282 17.5456 2.61593 17.1245 3.32417C17.0631 3.42755 17.0004 3.53027 16.9207 3.66286ZM24 15.4134L20.9157 10.2326H14.8122L11.708 15.4669H17.8564L20.8904 20.6231L24 15.4134Z" fill="#C5B3E6"/>
</g>
<defs>
<clipPath id="clip0_1793_909">
<rect width="24" height="24" fill="white"/>
</clipPath>
</defs>
</svg>
