<svg width="45" height="49" viewBox="0 0 45 49" fill="none" xmlns="http://www.w3.org/2000/svg">
<g opacity="0.2" clip-path="url(#clip0_1620_694)">
<path fill-rule="evenodd" clip-rule="evenodd" d="M22.4902 35.1089H14.2055C13.6779 35.109 13.1719 34.903 12.7986 34.5362L1.2491 23.174C0.8763 22.8068 0.666935 22.309 0.667013 21.79V16.7636C0.66703 16.2442 0.876351 15.7459 1.2491 15.3781L16.2986 0.57265C16.6722 0.206301 17.178 0.000404389 17.7054 0H35.8425C36.3701 8.41383e-05 36.876 0.206029 37.2494 0.57265L43.8802 7.08417C44.2535 7.45115 44.4634 7.94898 44.4637 8.4682V13.5942C44.4641 13.788 44.406 13.9775 44.2968 14.1388C44.1875 14.3 44.0321 14.4257 43.8501 14.4999C43.6682 14.5741 43.4679 14.5935 43.2747 14.5556C43.0816 14.5177 42.9042 14.4242 42.7651 14.287L34.7811 6.43097C34.5963 6.2493 34.377 6.10522 34.1356 6.00697C33.8942 5.90871 33.6355 5.8582 33.3742 5.85832H20.1693C19.6442 5.86054 19.1415 6.06753 18.7714 6.4339L7.20399 17.8122C6.8316 18.1797 6.62231 18.6773 6.6219 19.1962V19.3573C6.62152 19.8758 6.82972 20.3734 7.20102 20.7414L15.2639 28.675C15.4487 28.8567 15.6681 29.0007 15.9095 29.099C16.1508 29.1973 16.4095 29.2478 16.6708 29.2476H20.0204C20.2819 29.2483 20.541 29.198 20.7827 29.0997C21.0244 29.0014 21.244 28.8571 21.4287 28.675L26.0274 24.1509C26.1198 24.06 26.2294 23.9879 26.3501 23.9387C26.4708 23.8895 26.6002 23.8641 26.7308 23.8641C26.8615 23.8641 26.9908 23.8895 27.1115 23.9387C27.2322 23.9879 27.3419 24.06 27.4342 24.1509L30.2345 26.9102C30.3269 27.001 30.4003 27.1089 30.4503 27.2277C30.5003 27.3464 30.526 27.4737 30.526 27.6022C30.526 27.7307 30.5003 27.858 30.4503 27.9767C30.4003 28.0955 30.3269 28.2033 30.2345 28.2942L23.8911 34.5348C23.5195 34.9006 23.0159 35.107 22.4902 35.1089ZM22.6406 11.7298H30.9253C31.4529 11.7297 31.9589 11.9357 32.3321 12.3025L43.8816 23.6603C44.2544 24.0275 44.4638 24.5253 44.4637 25.0443V30.0751C44.4633 30.594 44.254 31.0917 43.8816 31.4592L28.8322 46.2661C28.4586 46.6324 27.9528 46.8383 27.4253 46.8387H9.2882C8.76074 46.8383 8.25491 46.6324 7.88136 46.2661L1.25059 39.756C0.877242 39.389 0.667329 38.8912 0.667013 38.372V33.2459C0.665736 33.0518 0.723208 32.8617 0.832113 32.6997C0.941018 32.5378 1.09643 32.4115 1.27857 32.3367C1.46071 32.262 1.66134 32.2422 1.85492 32.28C2.04851 32.3177 2.22629 32.4113 2.36564 32.5488L10.3437 40.4048C10.5294 40.5867 10.7499 40.7306 10.9923 40.8284C11.2348 40.9261 11.4945 40.9758 11.7565 40.9745H24.9555C25.2168 40.975 25.4756 40.9246 25.717 40.8263C25.9585 40.7281 26.1778 40.5838 26.3624 40.4019L37.9297 29.0236C38.3021 28.6561 38.5114 28.1584 38.5118 27.6395V27.4784C38.5114 26.9595 38.3021 26.4619 37.9297 26.0944L29.8653 18.1608C29.6805 17.9791 29.4612 17.835 29.2198 17.7368C28.9784 17.6385 28.7197 17.588 28.4585 17.5881H25.1089C24.8476 17.5879 24.5889 17.6383 24.3474 17.7366C24.106 17.8348 23.8867 17.979 23.702 18.1608L19.1033 22.6878C19.011 22.7787 18.9013 22.8508 18.7806 22.9C18.6599 22.9492 18.5306 22.9746 18.3999 22.9746C18.2693 22.9746 18.1399 22.9492 18.0192 22.9C17.8985 22.8508 17.7889 22.7787 17.6965 22.6878L14.8903 19.9285C14.7979 19.8377 14.7245 19.7298 14.6745 19.6111C14.6245 19.4923 14.5988 19.365 14.5988 19.2365C14.5988 19.108 14.6245 18.9807 14.6745 18.862C14.7245 18.7432 14.7979 18.6354 14.8903 18.5445L21.2337 12.3025C21.6073 11.9361 22.1131 11.7302 22.6406 11.7298Z" fill="black"/>
</g>
<defs>
<clipPath id="clip0_1620_694">
<rect width="44" height="48.2581" fill="white" transform="translate(0.666992)"/>
</clipPath>
</defs>
</svg>
