<svg width="48" height="48" viewBox="0 0 48 48" fill="none" xmlns="http://www.w3.org/2000/svg">
<path d="M47.2685 20.3043L47.0329 19.2736H23.9753V28.7117H37.3299C35.9458 35.3374 30.2035 38.0761 24.9471 38.0761C21.1188 38.0761 17.5556 36.9276 14.8906 34.3509C12.152 31.6859 10.6354 28.0049 10.6354 23.9853C10.6354 19.9951 12.0783 16.3583 14.6992 13.7374C17.3053 11.1313 20.8832 9.99755 24.8145 9.99755C29.3053 9.99755 32.1618 12.0294 33.3691 13.1043L40.4366 6.08098C38.4489 4.35828 33.0305 0 24.579 0C18.0563 0 11.8133 2.47362 7.24889 7.03804C2.7581 11.5288 0.416992 17.9926 0.416992 24C0.416992 30.0074 2.62558 36.162 6.98386 40.6822C11.6513 45.4969 18.2624 48 25.0796 48C31.2783 48 37.1385 45.5706 41.32 41.1828C45.4427 36.854 47.563 30.8614 47.563 24.589C47.5483 21.9387 47.2832 20.3632 47.2685 20.3043Z" fill="white"/>
</svg>
