<svg width="25" height="24" viewBox="0 0 25 24" fill="none" xmlns="http://www.w3.org/2000/svg">
<g clip-path="url(#clip0_1793_898)">
<path d="M22.5574 0H2.10586C1.12617 0 0.333984 0.773438 0.333984 1.72969V22.2656C0.333984 23.2219 1.12617 24 2.10586 24H22.5574C23.5371 24 24.334 23.2219 24.334 22.2703V1.72969C24.334 0.773438 23.5371 0 22.5574 0ZM7.4543 20.4516H3.8918V8.99531H7.4543V20.4516ZM5.67305 7.43438C4.5293 7.43438 3.60586 6.51094 3.60586 5.37187C3.60586 4.23281 4.5293 3.30937 5.67305 3.30937C6.81211 3.30937 7.73555 4.23281 7.73555 5.37187C7.73555 6.50625 6.81211 7.43438 5.67305 7.43438ZM20.7855 20.4516H17.2277V14.8828C17.2277 13.5562 17.2043 11.8453 15.3762 11.8453C13.5246 11.8453 13.2434 13.2937 13.2434 14.7891V20.4516H9.69024V8.99531H13.1027V10.5609H13.1496C13.623 9.66094 14.7855 8.70938 16.5152 8.70938C20.1199 8.70938 20.7855 11.0813 20.7855 14.1656V20.4516Z" fill="#C5B3E6"/>
</g>
<defs>
<clipPath id="clip0_1793_898">
<rect width="24" height="24" fill="white" transform="translate(0.333984)"/>
</clipPath>
</defs>
</svg>
