<svg width="48" height="48" viewBox="0 0 48 48" fill="none" xmlns="http://www.w3.org/2000/svg">
    <g clip-path="url(#clip0_3019_9518)">
        <path d="M12 2.99986C12 3.13098 12.0258 3.2608 12.076 3.38194C12.1262 3.50307 12.1997 3.61313 12.2924 3.70584C12.3851 3.79855 12.4952 3.87209 12.6163 3.92227C12.7375 3.97244 12.8673 3.99827 12.9984 3.99827C13.1295 3.99827 13.2593 3.97244 13.3805 3.92227C13.5016 3.87209 13.6117 3.79855 13.7044 3.70584C13.7971 3.61313 13.8706 3.50307 13.9208 3.38194C13.971 3.2608 13.9968 3.13098 13.9968 2.99986C13.9968 2.73507 13.8916 2.48113 13.7044 2.29389C13.5171 2.10665 13.2632 2.00147 12.9984 2.00147C12.7336 2.00147 12.4797 2.10665 12.2924 2.29389C12.1052 2.48113 12 2.73507 12 2.99986ZM13.9968 2.99986C13.9968 3.26466 14.1068 3.5186 14.294 3.70584C14.4813 3.89308 14.7352 3.99827 15 3.99827C15.2648 3.99827 15.5187 3.89308 15.706 3.70584C15.8932 3.5186 15.9984 3.26466 15.9984 2.99986C15.9984 2.86875 15.9726 2.73893 15.9224 2.61779C15.8722 2.49666 15.7987 2.3866 15.706 2.29389C15.6133 2.20118 15.5032 2.12764 15.3821 2.07746C15.2609 2.02729 15.1311 2.00146 15 2.00146C14.8689 2.00146 14.7391 2.02729 14.6179 2.07746C14.4968 2.12764 14.3867 2.20118 14.294 2.29389C14.2013 2.3866 14.1278 2.49666 14.0776 2.61779C14.0274 2.73893 13.9968 2.86875 13.9968 2.99986ZM32.0016 2.99986C32.0016 3.26466 32.1068 3.5186 32.294 3.70584C32.4813 3.89308 32.7352 3.99827 33 3.99827C33.2648 3.99827 33.5187 3.89308 33.706 3.70584C33.8932 3.5186 33.9984 3.26466 33.9984 2.99986C33.9984 2.73507 33.8932 2.48113 33.706 2.29389C33.5187 2.10665 33.2648 2.00147 33 2.00147C32.7352 2.00147 32.4813 2.10665 32.294 2.29389C32.1068 2.48113 32.0016 2.73507 32.0016 2.99986ZM33.9984 2.99986C33.9984 3.26466 34.1084 3.5186 34.2956 3.70584C34.4829 3.89308 34.7368 3.99827 35.0016 3.99827C35.2664 3.99827 35.5203 3.89308 35.7076 3.70584C35.8948 3.5186 36 3.26466 36 2.99986C36 2.73507 35.8948 2.48113 35.7076 2.29389C35.5203 2.10665 35.2664 2.00147 35.0016 2.00147C34.7368 2.00147 34.4829 2.10665 34.2956 2.29389C34.1084 2.48113 33.9984 2.73507 33.9984 2.99986ZM10.0032 5.00146C10.0032 5.26626 10.1084 5.5202 10.2956 5.70744C10.4829 5.89468 10.7368 5.99987 11.0016 5.99987C11.2664 5.99987 11.5203 5.89468 11.7076 5.70744C11.8948 5.5202 12 5.26626 12 5.00146C12 4.73667 11.8948 4.48273 11.7076 4.29549C11.5203 4.10825 11.2664 4.00307 11.0016 4.00307C10.7368 4.00307 10.4829 4.10825 10.2956 4.29549C10.1084 4.48273 10.0032 4.73667 10.0032 5.00146ZM12 5.00146C12 5.13258 12.0258 5.2624 12.076 5.38354C12.1262 5.50467 12.1997 5.61473 12.2924 5.70744C12.3851 5.80015 12.4952 5.87369 12.6163 5.92387C12.7375 5.97404 12.8673 5.99987 12.9984 5.99987C13.1295 5.99987 13.2593 5.97404 13.3805 5.92387C13.5016 5.87369 13.6117 5.80015 13.7044 5.70744C13.7971 5.61473 13.8706 5.50467 13.9208 5.38354C13.971 5.2624 13.9968 5.13258 13.9968 5.00146C13.9968 4.73667 13.8916 4.48273 13.7044 4.29549C13.5171 4.10825 13.2632 3.99827 12.9984 3.99827C12.7336 3.99827 12.4797 4.10825 12.2924 4.29549C12.1052 4.48273 12 4.73667 12 5.00146ZM16.0032 5.00146C16.0032 5.13258 16.029 5.2624 16.0792 5.38354C16.1294 5.50467 16.2029 5.61473 16.2956 5.70744C16.3883 5.80015 16.4984 5.87369 16.6195 5.92387C16.7407 5.97404 16.8705 5.99987 17.0016 5.99987C17.1327 5.99987 17.2625 5.97404 17.3837 5.92387C17.5048 5.87369 17.6149 5.80015 17.7076 5.70744C17.8003 5.61473 17.8738 5.50467 17.924 5.38354C17.9742 5.2624 18 5.13258 18 5.00146C18 4.87035 17.9742 4.74053 17.924 4.61939C17.8738 4.49826 17.8003 4.3882 17.7076 4.29549C17.6149 4.20278 17.5048 4.12924 17.3837 4.07906C17.2625 4.02889 17.1327 4.00306 17.0016 4.00306C16.8705 4.00306 16.7407 4.02889 16.6195 4.07906C16.4984 4.12924 16.3883 4.20278 16.2956 4.29549C16.2029 4.3882 16.1294 4.49826 16.0792 4.61939C16.029 4.74053 16.0032 4.87035 16.0032 5.00146ZM18 5.00146C18 5.26626 18.1052 5.5202 18.2924 5.70744C18.4797 5.89468 18.7336 5.99987 18.9984 5.99987C19.2632 5.99987 19.5171 5.89468 19.7044 5.70744C19.8916 5.5202 19.9968 5.26626 19.9968 5.00146C19.9968 4.73667 19.8916 4.48273 19.7044 4.29549C19.5171 4.10825 19.2632 4.00307 18.9984 4.00307C18.7336 4.00307 18.4797 4.10825 18.2924 4.29549C18.1052 4.48273 18 4.73667 18 5.00146ZM28.0032 5.00146C28.0032 5.26626 28.1084 5.5202 28.2956 5.70744C28.4829 5.89468 28.7368 5.99987 29.0016 5.99987C29.2664 5.99987 29.5203 5.89468 29.7076 5.70744C29.8948 5.5202 30 5.26626 30 5.00146C30 4.73667 29.8948 4.48273 29.7076 4.29549C29.5203 4.10825 29.2664 4.00307 29.0016 4.00307C28.7368 4.00307 28.4829 4.10825 28.2956 4.29549C28.1084 4.48273 28.0032 4.73667 28.0032 5.00146ZM30 5.00146C30 5.26626 30.1052 5.5202 30.2924 5.70744C30.4797 5.89468 30.7336 5.99987 30.9984 5.99987C31.2632 5.99987 31.5171 5.89468 31.7044 5.70744C31.8916 5.5202 31.9968 5.26626 31.9968 5.00146C31.9968 4.73667 31.8916 4.48273 31.7044 4.29549C31.5171 4.10825 31.2632 4.00307 30.9984 4.00307C30.7336 4.00307 30.4797 4.10825 30.2924 4.29549C30.1052 4.48273 30 4.73667 30 5.00146ZM34.0032 5.00146C34.0032 5.26626 34.1084 5.5202 34.2956 5.70744C34.4829 5.89468 34.7368 5.99987 35.0016 5.99987C35.2664 5.99987 35.5203 5.89468 35.7076 5.70744C35.8948 5.5202 36 5.26626 36 5.00146C36 4.73667 35.8948 4.48273 35.7076 4.29549C35.5203 4.10825 35.2664 3.99827 35.0016 3.99827C34.7368 3.99827 34.4829 4.10825 34.2956 4.29549C34.1084 4.48273 34.0032 4.73667 34.0032 5.00146ZM36 5.00146C36 5.26626 36.1052 5.5202 36.2924 5.70744C36.4797 5.89468 36.7336 5.99987 36.9984 5.99987C37.2632 5.99987 37.5171 5.89468 37.7044 5.70744C37.8916 5.5202 37.9968 5.26626 37.9968 5.00146C37.9968 4.73667 37.8916 4.48273 37.7044 4.29549C37.5171 4.10825 37.2632 4.00307 36.9984 4.00307C36.7336 4.00307 36.4797 4.10825 36.2924 4.29549C36.1052 4.48273 36 4.73667 36 5.00146ZM8.0016 6.99826C8.0016 7.26306 8.10679 7.517 8.29402 7.70424C8.48126 7.89148 8.73521 7.99667 9 7.99667C9.26479 7.99667 9.51874 7.89148 9.70598 7.70424C9.89321 7.517 9.9984 7.26306 9.9984 6.99826C9.9984 6.73347 9.89321 6.47953 9.70598 6.29229C9.51874 6.10505 9.26479 5.99987 9 5.99987C8.73521 5.99987 8.48126 6.10505 8.29402 6.29229C8.10679 6.47953 8.0016 6.73347 8.0016 6.99826ZM20.0016 6.99826C20.0016 7.26306 20.1068 7.517 20.294 7.70424C20.4813 7.89148 20.7352 7.99667 21 7.99667C21.2648 7.99667 21.5187 7.89148 21.706 7.70424C21.8932 7.517 21.9984 7.26306 21.9984 6.99826C21.9984 6.73347 21.8932 6.47953 21.706 6.29229C21.5187 6.10505 21.2648 5.99987 21 5.99987C20.7352 5.99987 20.4813 6.10505 20.294 6.29229C20.1068 6.47953 20.0016 6.73347 20.0016 6.99826ZM26.0016 6.99826C26.0016 7.26306 26.1068 7.517 26.294 7.70424C26.4813 7.89148 26.7352 7.99667 27 7.99667C27.2648 7.99667 27.5187 7.89148 27.706 7.70424C27.8932 7.517 27.9984 7.26306 27.9984 6.99826C27.9984 6.73347 27.8932 6.47953 27.706 6.29229C27.5187 6.10505 27.2648 5.99987 27 5.99987C26.7352 5.99987 26.4813 6.10505 26.294 6.29229C26.1068 6.47953 26.0016 6.73347 26.0016 6.99826ZM38.0016 6.99826C38.0016 7.26306 38.1068 7.517 38.294 7.70424C38.4813 7.89148 38.7352 7.99667 39 7.99667C39.2648 7.99667 39.5187 7.89148 39.706 7.70424C39.8932 7.517 39.9984 7.26306 39.9984 6.99826C39.9984 6.73347 39.8932 6.47953 39.706 6.29229C39.5187 6.10505 39.2648 5.99987 39 5.99987C38.7352 5.99987 38.4813 6.10505 38.294 6.29229C38.1068 6.47953 38.0016 6.73347 38.0016 6.99826ZM8.0016 8.99986C8.0016 9.26466 8.10679 9.5186 8.29402 9.70584C8.48126 9.89308 8.73521 9.99826 9 9.99826C9.26479 9.99826 9.51874 9.89308 9.70598 9.70584C9.89321 9.5186 9.9984 9.26466 9.9984 8.99986C9.9984 8.73507 9.89321 8.48113 9.70598 8.29389C9.51874 8.10665 9.26479 7.99667 9 7.99667C8.73521 7.99667 8.48126 8.10665 8.29402 8.29389C8.10679 8.48113 8.0016 8.73507 8.0016 8.99986ZM22.0032 8.99986C22.0032 9.26466 22.1084 9.5186 22.2956 9.70584C22.4829 9.89308 22.7368 9.99826 23.0016 9.99826C23.2664 9.99826 23.5203 9.89308 23.7076 9.70584C23.8948 9.5186 24 9.26466 24 8.99986C24 8.73507 23.8948 8.48113 23.7076 8.29389C23.5203 8.10665 23.2664 8.00146 23.0016 8.00146C22.7368 8.00146 22.4829 8.10665 22.2956 8.29389C22.1084 8.48113 22.0032 8.73507 22.0032 8.99986ZM24 8.99986C24 9.26466 24.1052 9.5186 24.2924 9.70584C24.4797 9.89308 24.7336 9.99826 24.9984 9.99826C25.2632 9.99826 25.5171 9.89308 25.7044 9.70584C25.8916 9.5186 25.9968 9.26466 25.9968 8.99986C25.9968 8.73507 25.8916 8.48113 25.7044 8.29389C25.5171 8.10665 25.2632 8.00146 24.9984 8.00146C24.7336 8.00146 24.4797 8.10665 24.2924 8.29389C24.1052 8.48113 24 8.73507 24 8.99986ZM38.0016 8.99986C38.0016 9.26466 38.1068 9.5186 38.294 9.70584C38.4813 9.89308 38.7352 9.99826 39 9.99826C39.2648 9.99826 39.5187 9.89308 39.706 9.70584C39.8932 9.5186 39.9984 9.26466 39.9984 8.99986C39.9984 8.73507 39.8932 8.48113 39.706 8.29389C39.5187 8.10665 39.2648 7.99667 39 7.99667C38.7352 7.99667 38.4813 8.10665 38.294 8.29389C38.1068 8.48113 38.0016 8.73507 38.0016 8.99986ZM8.0016 11.0015C8.0016 11.2663 8.10679 11.5202 8.29402 11.7074C8.48126 11.8947 8.73521 11.9999 9 11.9999C9.26479 11.9999 9.51874 11.8947 9.70598 11.7074C9.89321 11.5202 9.9984 11.2663 9.9984 11.0015C9.9984 10.7367 9.89321 10.4827 9.70598 10.2955C9.51874 10.1083 9.26479 9.99826 9 9.99826C8.73521 9.99826 8.48126 10.1083 8.29402 10.2955C8.10679 10.4827 8.0016 10.7367 8.0016 11.0015ZM22.0032 11.0015C22.0032 11.2663 22.1084 11.5202 22.2956 11.7074C22.4829 11.8947 22.7368 11.9999 23.0016 11.9999C23.2664 11.9999 23.5203 11.8947 23.7076 11.7074C23.8948 11.5202 24 11.2663 24 11.0015C24 10.7367 23.8948 10.4827 23.7076 10.2955C23.5203 10.1083 23.2664 9.99826 23.0016 9.99826C22.7368 9.99826 22.4829 10.1083 22.2956 10.2955C22.1084 10.4827 22.0032 10.7367 22.0032 11.0015ZM24 11.0015C24 11.2663 24.1052 11.5202 24.2924 11.7074C24.4797 11.8947 24.7336 11.9999 24.9984 11.9999C25.2632 11.9999 25.5171 11.8947 25.7044 11.7074C25.8916 11.5202 25.9968 11.2663 25.9968 11.0015C25.9968 10.7367 25.8916 10.4827 25.7044 10.2955C25.5171 10.1083 25.2632 9.99826 24.9984 9.99826C24.7336 9.99826 24.4797 10.1083 24.2924 10.2955C24.1052 10.4827 24 10.7367 24 11.0015ZM38.0016 11.0015C38.0016 11.2663 38.1068 11.5202 38.294 11.7074C38.4813 11.8947 38.7352 11.9999 39 11.9999C39.2648 11.9999 39.5187 11.8947 39.706 11.7074C39.8932 11.5202 39.9984 11.2663 39.9984 11.0015C39.9984 10.7367 39.8932 10.4827 39.706 10.2955C39.5187 10.1083 39.2648 9.99826 39 9.99826C38.7352 9.99826 38.4813 10.1083 38.294 10.2955C38.1068 10.4827 38.0016 10.7367 38.0016 11.0015ZM8.0016 12.9983C8.0016 13.2631 8.10679 13.517 8.29402 13.7042C8.48126 13.8915 8.73521 13.9967 9 13.9967C9.26479 13.9967 9.51874 13.8915 9.70598 13.7042C9.89321 13.517 9.9984 13.2631 9.9984 12.9983C9.9984 12.7335 9.89321 12.4795 9.70598 12.2923C9.51874 12.1051 9.26479 11.9999 9 11.9999C8.73521 11.9999 8.48126 12.1051 8.29402 12.2923C8.10679 12.4795 8.0016 12.7335 8.0016 12.9983ZM20.0016 12.9983C20.0016 13.2631 20.1068 13.517 20.294 13.7042C20.4813 13.8915 20.7352 13.9967 21 13.9967C21.2648 13.9967 21.5187 13.8915 21.706 13.7042C21.8932 13.517 21.9984 13.2631 21.9984 12.9983C21.9984 12.7335 21.8932 12.4795 21.706 12.2923C21.5187 12.1051 21.2648 11.9999 21 11.9999C20.7352 11.9999 20.4813 12.1051 20.294 12.2923C20.1068 12.4795 20.0016 12.7335 20.0016 12.9983ZM26.0016 12.9983C26.0016 13.2631 26.1068 13.517 26.294 13.7042C26.4813 13.8915 26.7352 13.9967 27 13.9967C27.2648 13.9967 27.5187 13.8915 27.706 13.7042C27.8932 13.517 27.9984 13.2631 27.9984 12.9983C27.9984 12.7335 27.8932 12.4795 27.706 12.2923C27.5187 12.1051 27.2648 11.9999 27 11.9999C26.7352 11.9999 26.4813 12.1051 26.294 12.2923C26.1068 12.4795 26.0016 12.7335 26.0016 12.9983ZM38.0016 12.9983C38.0016 13.2631 38.1068 13.517 38.294 13.7042C38.4813 13.8915 38.7352 13.9967 39 13.9967C39.2648 13.9967 39.5187 13.8915 39.706 13.7042C39.8932 13.517 39.9984 13.2631 39.9984 12.9983C39.9984 12.7335 39.8932 12.4795 39.706 12.2923C39.5187 12.1051 39.2648 11.9999 39 11.9999C38.7352 11.9999 38.4813 12.1051 38.294 12.2923C38.1068 12.4795 38.0016 12.7335 38.0016 12.9983ZM10.0032 14.9999C10.0032 15.2647 10.1084 15.5186 10.2956 15.7058C10.4829 15.8931 10.7368 15.9983 11.0016 15.9983C11.2664 15.9983 11.5203 15.8931 11.7076 15.7058C11.8948 15.5186 12 15.2647 12 14.9999C12 14.7351 11.8948 14.4811 11.7076 14.2939C11.5203 14.1067 11.2664 14.0015 11.0016 14.0015C10.7368 14.0015 10.4829 14.1067 10.2956 14.2939C10.1084 14.4811 10.0032 14.7351 10.0032 14.9999ZM18 14.9999C18 15.2647 18.1052 15.5186 18.2924 15.7058C18.4797 15.8931 18.7336 15.9983 18.9984 15.9983C19.2632 15.9983 19.5171 15.8931 19.7044 15.7058C19.8916 15.5186 19.9968 15.2647 19.9968 14.9999C19.9968 14.7351 19.8916 14.4811 19.7044 14.2939C19.5171 14.1067 19.2632 14.0015 18.9984 14.0015C18.7336 14.0015 18.4797 14.1067 18.2924 14.2939C18.1052 14.4811 18 14.7351 18 14.9999ZM19.9968 14.9999C19.9968 15.2647 20.1068 15.5186 20.294 15.7058C20.4813 15.8931 20.7352 15.9983 21 15.9983C21.2648 15.9983 21.5187 15.8931 21.706 15.7058C21.8932 15.5186 21.9984 15.2647 21.9984 14.9999C21.9984 14.7351 21.8932 14.4811 21.706 14.2939C21.5187 14.1067 21.2648 13.9967 21 13.9967C20.7352 13.9967 20.4813 14.1067 20.294 14.2939C20.1068 14.4811 19.9968 14.7351 19.9968 14.9999ZM21.9984 14.9999C21.9984 15.2647 22.1084 15.5186 22.2956 15.7058C22.4829 15.8931 22.7368 15.9983 23.0016 15.9983C23.2664 15.9983 23.5203 15.8931 23.7076 15.7058C23.8948 15.5186 24 15.2647 24 14.9999C24 14.7351 23.8948 14.4811 23.7076 14.2939C23.5203 14.1067 23.2664 14.0015 23.0016 14.0015C22.7368 14.0015 22.4829 14.1067 22.2956 14.2939C22.1084 14.4811 21.9984 14.7351 21.9984 14.9999ZM24 14.9999C24 15.2647 24.1052 15.5186 24.2924 15.7058C24.4797 15.8931 24.7336 15.9983 24.9984 15.9983C25.2632 15.9983 25.5171 15.8931 25.7044 15.7058C25.8916 15.5186 25.9968 15.2647 25.9968 14.9999C25.9968 14.7351 25.8916 14.4811 25.7044 14.2939C25.5171 14.1067 25.2632 14.0015 24.9984 14.0015C24.7336 14.0015 24.4797 14.1067 24.2924 14.2939C24.1052 14.4811 24 14.7351 24 14.9999ZM25.9968 14.9999C25.9968 15.2647 26.1068 15.5186 26.294 15.7058C26.4813 15.8931 26.7352 15.9983 27 15.9983C27.2648 15.9983 27.5187 15.8931 27.706 15.7058C27.8932 15.5186 27.9984 15.2647 27.9984 14.9999C27.9984 14.7351 27.8932 14.4811 27.706 14.2939C27.5187 14.1067 27.2648 13.9967 27 13.9967C26.7352 13.9967 26.4813 14.1067 26.294 14.2939C26.1068 14.4811 25.9968 14.7351 25.9968 14.9999ZM27.9984 14.9999C27.9984 15.2647 28.1084 15.5186 28.2956 15.7058C28.4829 15.8931 28.7368 15.9983 29.0016 15.9983C29.2664 15.9983 29.5203 15.8931 29.7076 15.7058C29.8948 15.5186 30 15.2647 30 14.9999C30 14.7351 29.8948 14.4811 29.7076 14.2939C29.5203 14.1067 29.2664 14.0015 29.0016 14.0015C28.7368 14.0015 28.4829 14.1067 28.2956 14.2939C28.1084 14.4811 27.9984 14.7351 27.9984 14.9999ZM36 14.9999C36 15.2647 36.1052 15.5186 36.2924 15.7058C36.4797 15.8931 36.7336 15.9983 36.9984 15.9983C37.2632 15.9983 37.5171 15.8931 37.7044 15.7058C37.8916 15.5186 37.9968 15.2647 37.9968 14.9999C37.9968 14.7351 37.8916 14.4811 37.7044 14.2939C37.5171 14.1067 37.2632 14.0015 36.9984 14.0015C36.7336 14.0015 36.4797 14.1067 36.2924 14.2939C36.1052 14.4811 36 14.7351 36 14.9999ZM10.0032 17.0015C10.0032 17.2663 10.1084 17.5202 10.2956 17.7074C10.4829 17.8947 10.7368 17.9999 11.0016 17.9999C11.2664 17.9999 11.5203 17.8947 11.7076 17.7074C11.8948 17.5202 12 17.2663 12 17.0015C12 16.7367 11.8948 16.4827 11.7076 16.2955C11.5203 16.1083 11.2664 15.9983 11.0016 15.9983C10.7368 15.9983 10.4829 16.1083 10.2956 16.2955C10.1084 16.4827 10.0032 16.7367 10.0032 17.0015ZM12 17.0015C12 17.1326 12.0258 17.2624 12.076 17.3835C12.1262 17.5047 12.1997 17.6147 12.2924 17.7074C12.3851 17.8001 12.4952 17.8737 12.6163 17.9239C12.7375 17.974 12.8673 17.9999 12.9984 17.9999C13.1295 17.9999 13.2593 17.974 13.3805 17.9239C13.5016 17.8737 13.6117 17.8001 13.7044 17.7074C13.7971 17.6147 13.8706 17.5047 13.9208 17.3835C13.971 17.2624 13.9968 17.1326 13.9968 17.0015C13.9968 16.7367 13.8916 16.4827 13.7044 16.2955C13.5171 16.1083 13.2632 16.0031 12.9984 16.0031C12.7336 16.0031 12.4797 16.1083 12.2924 16.2955C12.1052 16.4827 12 16.7367 12 17.0015ZM13.9968 17.0015C13.9968 17.2663 14.1068 17.5202 14.294 17.7074C14.4813 17.8947 14.7352 17.9999 15 17.9999C15.2648 17.9999 15.5187 17.8947 15.706 17.7074C15.8932 17.5202 15.9984 17.2663 15.9984 17.0015C15.9984 16.8704 15.9726 16.7405 15.9224 16.6194C15.8722 16.4983 15.7987 16.3882 15.706 16.2955C15.6133 16.2028 15.5032 16.1292 15.3821 16.0791C15.2609 16.0289 15.1311 16.0031 15 16.0031C14.8689 16.0031 14.7391 16.0289 14.6179 16.0791C14.4968 16.1292 14.3867 16.2028 14.294 16.2955C14.2013 16.3882 14.1278 16.4983 14.0776 16.6194C14.0274 16.7405 13.9968 16.8704 13.9968 17.0015ZM15.9984 17.0015C15.9984 17.1326 16.029 17.2624 16.0792 17.3835C16.1294 17.5047 16.2029 17.6147 16.2956 17.7074C16.3883 17.8001 16.4984 17.8737 16.6195 17.9239C16.7407 17.974 16.8705 17.9999 17.0016 17.9999C17.1327 17.9999 17.2625 17.974 17.3837 17.9239C17.5048 17.8737 17.6149 17.8001 17.7076 17.7074C17.8003 17.6147 17.8738 17.5047 17.924 17.3835C17.9742 17.2624 18 17.1326 18 17.0015C18 16.8704 17.9742 16.7405 17.924 16.6194C17.8738 16.4983 17.8003 16.3882 17.7076 16.2955C17.6149 16.2028 17.5048 16.1292 17.3837 16.0791C17.2625 16.0289 17.1327 16.0031 17.0016 16.0031C16.8705 16.0031 16.7407 16.0289 16.6195 16.0791C16.4984 16.1292 16.3883 16.2028 16.2956 16.2955C16.2029 16.3882 16.1294 16.4983 16.0792 16.6194C16.029 16.7405 15.9984 16.8704 15.9984 17.0015ZM30 17.0015C30 17.2663 30.1052 17.5202 30.2924 17.7074C30.4797 17.8947 30.7336 17.9999 30.9984 17.9999C31.2632 17.9999 31.5171 17.8947 31.7044 17.7074C31.8916 17.5202 31.9968 17.2663 31.9968 17.0015C31.9968 16.7367 31.8916 16.4827 31.7044 16.2955C31.5171 16.1083 31.2632 16.0031 30.9984 16.0031C30.7336 16.0031 30.4797 16.1083 30.2924 16.2955C30.1052 16.4827 30 16.7367 30 17.0015ZM31.9968 17.0015C31.9968 17.2663 32.1068 17.5202 32.294 17.7074C32.4813 17.8947 32.7352 17.9999 33 17.9999C33.2648 17.9999 33.5187 17.8947 33.706 17.7074C33.8932 17.5202 33.9984 17.2663 33.9984 17.0015C33.9984 16.7367 33.8932 16.4827 33.706 16.2955C33.5187 16.1083 33.2648 16.0031 33 16.0031C32.7352 16.0031 32.4813 16.1083 32.294 16.2955C32.1068 16.4827 31.9968 16.7367 31.9968 17.0015ZM33.9984 17.0015C33.9984 17.2663 34.1084 17.5202 34.2956 17.7074C34.4829 17.8947 34.7368 17.9999 35.0016 17.9999C35.2664 17.9999 35.5203 17.8947 35.7076 17.7074C35.8948 17.5202 36 17.2663 36 17.0015C36 16.7367 35.8948 16.4827 35.7076 16.2955C35.5203 16.1083 35.2664 16.0031 35.0016 16.0031C34.7368 16.0031 34.4829 16.1083 34.2956 16.2955C34.1084 16.4827 33.9984 16.7367 33.9984 17.0015ZM36 17.0015C36 17.2663 36.1052 17.5202 36.2924 17.7074C36.4797 17.8947 36.7336 17.9999 36.9984 17.9999C37.2632 17.9999 37.5171 17.8947 37.7044 17.7074C37.8916 17.5202 37.9968 17.2663 37.9968 17.0015C37.9968 16.7367 37.8916 16.4827 37.7044 16.2955C37.5171 16.1083 37.2632 15.9983 36.9984 15.9983C36.7336 15.9983 36.4797 16.1083 36.2924 16.2955C36.1052 16.4827 36 16.7367 36 17.0015ZM6 18.9983C6 19.2631 6.10519 19.517 6.29242 19.7042C6.47966 19.8915 6.73361 19.9967 6.9984 19.9967C7.26319 19.9967 7.51714 19.8915 7.70438 19.7042C7.89161 19.517 7.9968 19.2631 7.9968 18.9983C7.9968 18.7335 7.89161 18.4795 7.70438 18.2923C7.51714 18.1051 7.26319 17.9999 6.9984 17.9999C6.73361 17.9999 6.47966 18.1051 6.29242 18.2923C6.10519 18.4795 6 18.7335 6 18.9983ZM7.9968 18.9983C7.9968 19.2631 8.10679 19.517 8.29402 19.7042C8.48126 19.8915 8.73521 19.9967 9 19.9967C9.26479 19.9967 9.51874 19.8915 9.70598 19.7042C9.89321 19.517 9.9984 19.2631 9.9984 18.9983C9.9984 18.7335 9.89321 18.4795 9.70598 18.2923C9.51874 18.1051 9.26479 17.9999 9 17.9999C8.73521 17.9999 8.48126 18.1051 8.29402 18.2923C8.10679 18.4795 7.9968 18.7335 7.9968 18.9983ZM9.9984 18.9983C9.9984 19.2631 10.1084 19.517 10.2956 19.7042C10.4829 19.8915 10.7368 19.9967 11.0016 19.9967C11.2664 19.9967 11.5203 19.8915 11.7076 19.7042C11.8948 19.517 12 19.2631 12 18.9983C12 18.7335 11.8948 18.4795 11.7076 18.2923C11.5203 18.1051 11.2664 17.9999 11.0016 17.9999C10.7368 17.9999 10.4829 18.1051 10.2956 18.2923C10.1084 18.4795 9.9984 18.7335 9.9984 18.9983ZM16.0032 18.9983C16.0032 19.1294 16.029 19.2592 16.0792 19.3803C16.1294 19.5015 16.2029 19.6115 16.2956 19.7042C16.3883 19.797 16.4984 19.8705 16.6195 19.9207C16.7407 19.9708 16.8705 19.9967 17.0016 19.9967C17.1327 19.9967 17.2625 19.9708 17.3837 19.9207C17.5048 19.8705 17.6149 19.797 17.7076 19.7042C17.8003 19.6115 17.8738 19.5015 17.924 19.3803C17.9742 19.2592 18 19.1294 18 18.9983C18 18.8672 17.9742 18.7373 17.924 18.6162C17.8738 18.4951 17.8003 18.385 17.7076 18.2923C17.6149 18.1996 17.5048 18.126 17.3837 18.0759C17.2625 18.0257 17.1327 17.9999 17.0016 17.9999C16.8705 17.9999 16.7407 18.0257 16.6195 18.0759C16.4984 18.126 16.3883 18.1996 16.2956 18.2923C16.2029 18.385 16.1294 18.4951 16.0792 18.6162C16.029 18.7373 16.0032 18.8672 16.0032 18.9983ZM30 18.9983C30 19.2631 30.1052 19.517 30.2924 19.7042C30.4797 19.8915 30.7336 19.9967 30.9984 19.9967C31.2632 19.9967 31.5171 19.8915 31.7044 19.7042C31.8916 19.517 31.9968 19.2631 31.9968 18.9983C31.9968 18.7335 31.8916 18.4795 31.7044 18.2923C31.5171 18.1051 31.2632 17.9999 30.9984 17.9999C30.7336 17.9999 30.4797 18.1051 30.2924 18.2923C30.1052 18.4795 30 18.7335 30 18.9983ZM36 18.9983C36 19.2631 36.1052 19.517 36.2924 19.7042C36.4797 19.8915 36.7336 19.9967 36.9984 19.9967C37.2632 19.9967 37.5171 19.8915 37.7044 19.7042C37.8916 19.517 37.9968 19.2631 37.9968 18.9983C37.9968 18.7335 37.8916 18.4795 37.7044 18.2923C37.5171 18.1051 37.2632 17.9999 36.9984 17.9999C36.7336 17.9999 36.4797 18.1051 36.2924 18.2923C36.1052 18.4795 36 18.7335 36 18.9983ZM37.9968 18.9983C37.9968 19.2631 38.1068 19.517 38.294 19.7042C38.4813 19.8915 38.7352 19.9967 39 19.9967C39.2648 19.9967 39.5187 19.8915 39.706 19.7042C39.8932 19.517 39.9984 19.2631 39.9984 18.9983C39.9984 18.7335 39.8932 18.4795 39.706 18.2923C39.5187 18.1051 39.2648 17.9999 39 17.9999C38.7352 17.9999 38.4813 18.1051 38.294 18.2923C38.1068 18.4795 37.9968 18.7335 37.9968 18.9983ZM39.9984 18.9983C39.9984 19.1294 40.029 19.2592 40.0792 19.3803C40.1294 19.5015 40.2029 19.6115 40.2956 19.7042C40.3883 19.797 40.4984 19.8705 40.6195 19.9207C40.7407 19.9708 40.8705 19.9967 41.0016 19.9967C41.1327 19.9967 41.2625 19.9708 41.3837 19.9207C41.5048 19.8705 41.6149 19.797 41.7076 19.7042C41.8003 19.6115 41.8738 19.5015 41.924 19.3803C41.9742 19.2592 42 19.1294 42 18.9983C42 18.8672 41.9742 18.7373 41.924 18.6162C41.8738 18.4951 41.8003 18.385 41.7076 18.2923C41.6149 18.1996 41.5048 18.126 41.3837 18.0759C41.2625 18.0257 41.1327 17.9999 41.0016 17.9999C40.8705 17.9999 40.7407 18.0257 40.6195 18.0759C40.4984 18.126 40.3883 18.1996 40.2956 18.2923C40.2029 18.385 40.1294 18.4951 40.0792 18.6162C40.029 18.7373 39.9984 18.8672 39.9984 18.9983ZM2.0016 20.9999C2.0016 21.2647 2.10679 21.5186 2.29402 21.7058C2.48126 21.8931 2.73521 21.9983 3 21.9983C3.26479 21.9983 3.51874 21.8931 3.70598 21.7058C3.89321 21.5186 3.9984 21.2647 3.9984 20.9999C3.9984 20.7351 3.89321 20.4811 3.70598 20.2939C3.51874 20.1067 3.26479 20.0015 3 20.0015C2.73521 20.0015 2.48126 20.1067 2.29402 20.2939C2.10679 20.4811 2.0016 20.7351 2.0016 20.9999ZM3.9984 20.9999C3.9984 21.2647 4.10839 21.5186 4.29562 21.7058C4.48286 21.8931 4.73681 21.9983 5.0016 21.9983C5.26639 21.9983 5.52034 21.8931 5.70758 21.7058C5.89481 21.5186 6 21.2647 6 20.9999C6 20.7351 5.89481 20.4811 5.70758 20.2939C5.52034 20.1067 5.26639 20.0015 5.0016 20.0015C4.73681 20.0015 4.48286 20.1067 4.29562 20.2939C4.10839 20.4811 3.9984 20.7351 3.9984 20.9999ZM12 20.9999C12 21.131 12.0258 21.2608 12.076 21.3819C12.1262 21.5031 12.1997 21.6131 12.2924 21.7058C12.3851 21.7985 12.4952 21.8721 12.6163 21.9223C12.7375 21.9724 12.8673 21.9983 12.9984 21.9983C13.1295 21.9983 13.2593 21.9724 13.3805 21.9223C13.5016 21.8721 13.6117 21.7985 13.7044 21.7058C13.7971 21.6131 13.8706 21.5031 13.9208 21.3819C13.971 21.2608 13.9968 21.131 13.9968 20.9999C13.9968 20.7351 13.8916 20.4811 13.7044 20.2939C13.5171 20.1067 13.2632 20.0015 12.9984 20.0015C12.7336 20.0015 12.4797 20.1067 12.2924 20.2939C12.1052 20.4811 12 20.7351 12 20.9999ZM13.9968 20.9999C13.9968 21.2647 14.1068 21.5186 14.294 21.7058C14.4813 21.8931 14.7352 21.9983 15 21.9983C15.2648 21.9983 15.5187 21.8931 15.706 21.7058C15.8932 21.5186 15.9984 21.2647 15.9984 20.9999C15.9984 20.8688 15.9726 20.7389 15.9224 20.6178C15.8722 20.4967 15.7987 20.3866 15.706 20.2939C15.6133 20.2012 15.5032 20.1276 15.3821 20.0775C15.2609 20.0273 15.1311 20.0015 15 20.0015C14.8689 20.0015 14.7391 20.0273 14.6179 20.0775C14.4968 20.1276 14.3867 20.2012 14.294 20.2939C14.2013 20.3866 14.1278 20.4967 14.0776 20.6178C14.0274 20.7389 13.9968 20.8688 13.9968 20.9999ZM22.0032 20.9999C22.0032 21.2647 22.1084 21.5186 22.2956 21.7058C22.4829 21.8931 22.7368 21.9983 23.0016 21.9983C23.2664 21.9983 23.5203 21.8931 23.7076 21.7058C23.8948 21.5186 24 21.2647 24 20.9999C24 20.7351 23.8948 20.4811 23.7076 20.2939C23.5203 20.1067 23.2664 20.0015 23.0016 20.0015C22.7368 20.0015 22.4829 20.1067 22.2956 20.2939C22.1084 20.4811 22.0032 20.7351 22.0032 20.9999ZM24 20.9999C24 21.2647 24.1052 21.5186 24.2924 21.7058C24.4797 21.8931 24.7336 21.9983 24.9984 21.9983C25.2632 21.9983 25.5171 21.8931 25.7044 21.7058C25.8916 21.5186 25.9968 21.2647 25.9968 20.9999C25.9968 20.7351 25.8916 20.4811 25.7044 20.2939C25.5171 20.1067 25.2632 20.0015 24.9984 20.0015C24.7336 20.0015 24.4797 20.1067 24.2924 20.2939C24.1052 20.4811 24 20.7351 24 20.9999ZM32.0016 20.9999C32.0016 21.2647 32.1068 21.5186 32.294 21.7058C32.4813 21.8931 32.7352 21.9983 33 21.9983C33.2648 21.9983 33.5187 21.8931 33.706 21.7058C33.8932 21.5186 33.9984 21.2647 33.9984 20.9999C33.9984 20.7351 33.8932 20.4811 33.706 20.2939C33.5187 20.1067 33.2648 20.0015 33 20.0015C32.7352 20.0015 32.4813 20.1067 32.294 20.2939C32.1068 20.4811 32.0016 20.7351 32.0016 20.9999ZM33.9984 20.9999C33.9984 21.2647 34.1084 21.5186 34.2956 21.7058C34.4829 21.8931 34.7368 21.9983 35.0016 21.9983C35.2664 21.9983 35.5203 21.8931 35.7076 21.7058C35.8948 21.5186 36 21.2647 36 20.9999C36 20.7351 35.8948 20.4811 35.7076 20.2939C35.5203 20.1067 35.2664 20.0015 35.0016 20.0015C34.7368 20.0015 34.4829 20.1067 34.2956 20.2939C34.1084 20.4811 33.9984 20.7351 33.9984 20.9999ZM42 20.9999C42 21.2647 42.1052 21.5186 42.2924 21.7058C42.4797 21.8931 42.7336 21.9983 42.9984 21.9983C43.2632 21.9983 43.5171 21.8931 43.7044 21.7058C43.8916 21.5186 43.9968 21.2647 43.9968 20.9999C43.9968 20.7351 43.8916 20.4811 43.7044 20.2939C43.5171 20.1067 43.2632 20.0015 42.9984 20.0015C42.7336 20.0015 42.4797 20.1067 42.2924 20.2939C42.1052 20.4811 42 20.7351 42 20.9999ZM43.9968 20.9999C43.9968 21.2647 44.1068 21.5186 44.294 21.7058C44.4813 21.8931 44.7352 21.9983 45 21.9983C45.2648 21.9983 45.5187 21.8931 45.706 21.7058C45.8932 21.5186 45.9984 21.2647 45.9984 20.9999C45.9984 20.7351 45.8932 20.4811 45.706 20.2939C45.5187 20.1067 45.2648 20.0015 45 20.0015C44.7352 20.0015 44.4813 20.1067 44.294 20.2939C44.1068 20.4811 43.9968 20.7351 43.9968 20.9999ZM0 23.0015C0 23.2663 0.105188 23.5202 0.292425 23.7074C0.479661 23.8947 0.733608 23.9999 0.9984 23.9999C1.26319 23.9999 1.51714 23.8947 1.70438 23.7074C1.89161 23.5202 1.9968 23.2663 1.9968 23.0015C1.9968 22.7367 1.89161 22.4827 1.70438 22.2955C1.51714 22.1083 1.26319 22.0031 0.9984 22.0031C0.733608 22.0031 0.479661 22.1083 0.292425 22.2955C0.105188 22.4827 0 22.7367 0 23.0015ZM1.9968 23.0015C1.9968 23.2663 2.10679 23.5202 2.29402 23.7074C2.48126 23.8947 2.73521 23.9999 3 23.9999C3.26479 23.9999 3.51874 23.8947 3.70598 23.7074C3.89321 23.5202 3.9984 23.2663 3.9984 23.0015C3.9984 22.7367 3.89321 22.4827 3.70598 22.2955C3.51874 22.1083 3.26479 21.9983 3 21.9983C2.73521 21.9983 2.48126 22.1083 2.29402 22.2955C2.10679 22.4827 1.9968 22.7367 1.9968 23.0015ZM12 23.0015C12 23.1326 12.0258 23.2624 12.076 23.3835C12.1262 23.5047 12.1997 23.6147 12.2924 23.7074C12.3851 23.8001 12.4952 23.8737 12.6163 23.9239C12.7375 23.974 12.8673 23.9999 12.9984 23.9999C13.1295 23.9999 13.2593 23.974 13.3805 23.9239C13.5016 23.8737 13.6117 23.8001 13.7044 23.7074C13.7971 23.6147 13.8706 23.5047 13.9208 23.3835C13.971 23.2624 13.9968 23.1326 13.9968 23.0015C13.9968 22.7367 13.8916 22.4827 13.7044 22.2955C13.5171 22.1083 13.2632 21.9983 12.9984 21.9983C12.7336 21.9983 12.4797 22.1083 12.2924 22.2955C12.1052 22.4827 12 22.7367 12 23.0015ZM13.9968 23.0015C13.9968 23.2663 14.1068 23.5202 14.294 23.7074C14.4813 23.8947 14.7352 23.9999 15 23.9999C15.2648 23.9999 15.5187 23.8947 15.706 23.7074C15.8932 23.5202 15.9984 23.2663 15.9984 23.0015C15.9984 22.8704 15.9726 22.7405 15.9224 22.6194C15.8722 22.4983 15.7987 22.3882 15.706 22.2955C15.6133 22.2028 15.5032 22.1292 15.3821 22.0791C15.2609 22.0289 15.1311 21.9983 15 21.9983C14.8689 21.9983 14.7391 22.0289 14.6179 22.0791C14.4968 22.1292 14.3867 22.2028 14.294 22.2955C14.2013 22.3882 14.1278 22.4983 14.0776 22.6194C14.0274 22.7405 13.9968 22.8704 13.9968 23.0015ZM20.0016 23.0015C20.0016 23.2663 20.1068 23.5202 20.294 23.7074C20.4813 23.8947 20.7352 23.9999 21 23.9999C21.2648 23.9999 21.5187 23.8947 21.706 23.7074C21.8932 23.5202 21.9984 23.2663 21.9984 23.0015C21.9984 22.7367 21.8932 22.4827 21.706 22.2955C21.5187 22.1083 21.2648 22.0031 21 22.0031C20.7352 22.0031 20.4813 22.1083 20.294 22.2955C20.1068 22.4827 20.0016 22.7367 20.0016 23.0015ZM21.9984 23.0015C21.9984 23.2663 22.1084 23.5202 22.2956 23.7074C22.4829 23.8947 22.7368 23.9999 23.0016 23.9999C23.2664 23.9999 23.5203 23.8947 23.7076 23.7074C23.8948 23.5202 24 23.2663 24 23.0015C24 22.7367 23.8948 22.4827 23.7076 22.2955C23.5203 22.1083 23.2664 21.9983 23.0016 21.9983C22.7368 21.9983 22.4829 22.1083 22.2956 22.2955C22.1084 22.4827 21.9984 22.7367 21.9984 23.0015ZM24 23.0015C24 23.2663 24.1052 23.5202 24.2924 23.7074C24.4797 23.8947 24.7336 23.9999 24.9984 23.9999C25.2632 23.9999 25.5171 23.8947 25.7044 23.7074C25.8916 23.5202 25.9968 23.2663 25.9968 23.0015C25.9968 22.7367 25.8916 22.4827 25.7044 22.2955C25.5171 22.1083 25.2632 21.9983 24.9984 21.9983C24.7336 21.9983 24.4797 22.1083 24.2924 22.2955C24.1052 22.4827 24 22.7367 24 23.0015ZM25.9968 23.0015C25.9968 23.2663 26.1068 23.5202 26.294 23.7074C26.4813 23.8947 26.7352 23.9999 27 23.9999C27.2648 23.9999 27.5187 23.8947 27.706 23.7074C27.8932 23.5202 27.9984 23.2663 27.9984 23.0015C27.9984 22.7367 27.8932 22.4827 27.706 22.2955C27.5187 22.1083 27.2648 22.0031 27 22.0031C26.7352 22.0031 26.4813 22.1083 26.294 22.2955C26.1068 22.4827 25.9968 22.7367 25.9968 23.0015ZM32.0016 23.0015C32.0016 23.2663 32.1068 23.5202 32.294 23.7074C32.4813 23.8947 32.7352 23.9999 33 23.9999C33.2648 23.9999 33.5187 23.8947 33.706 23.7074C33.8932 23.5202 33.9984 23.2663 33.9984 23.0015C33.9984 22.7367 33.8932 22.4827 33.706 22.2955C33.5187 22.1083 33.2648 21.9983 33 21.9983C32.7352 21.9983 32.4813 22.1083 32.294 22.2955C32.1068 22.4827 32.0016 22.7367 32.0016 23.0015ZM33.9984 23.0015C33.9984 23.2663 34.1084 23.5202 34.2956 23.7074C34.4829 23.8947 34.7368 23.9999 35.0016 23.9999C35.2664 23.9999 35.5203 23.8947 35.7076 23.7074C35.8948 23.5202 36 23.2663 36 23.0015C36 22.7367 35.8948 22.4827 35.7076 22.2955C35.5203 22.1083 35.2664 21.9983 35.0016 21.9983C34.7368 21.9983 34.4829 22.1083 34.2956 22.2955C34.1084 22.4827 33.9984 22.7367 33.9984 23.0015ZM44.0016 23.0015C44.0016 23.2663 44.1068 23.5202 44.294 23.7074C44.4813 23.8947 44.7352 23.9999 45 23.9999C45.2648 23.9999 45.5187 23.8947 45.706 23.7074C45.8932 23.5202 45.9984 23.2663 45.9984 23.0015C45.9984 22.7367 45.8932 22.4827 45.706 22.2955C45.5187 22.1083 45.2648 21.9983 45 21.9983C44.7352 21.9983 44.4813 22.1083 44.294 22.2955C44.1068 22.4827 44.0016 22.7367 44.0016 23.0015ZM45.9984 23.0015C45.9984 23.2663 46.1084 23.5202 46.2956 23.7074C46.4829 23.8947 46.7368 23.9999 47.0016 23.9999C47.2664 23.9999 47.5203 23.8947 47.7076 23.7074C47.8948 23.5202 48 23.2663 48 23.0015C48 22.7367 47.8948 22.4827 47.7076 22.2955C47.5203 22.1083 47.2664 22.0031 47.0016 22.0031C46.7368 22.0031 46.4829 22.1083 46.2956 22.2955C46.1084 22.4827 45.9984 22.7367 45.9984 23.0015ZM0 24.9983C0 25.2631 0.105188 25.517 0.292425 25.7042C0.479661 25.8915 0.733608 25.9967 0.9984 25.9967C1.26319 25.9967 1.51714 25.8915 1.70438 25.7042C1.89161 25.517 1.9968 25.2631 1.9968 24.9983C1.9968 24.7335 1.89161 24.4795 1.70438 24.2923C1.51714 24.1051 1.26319 23.9999 0.9984 23.9999C0.733608 23.9999 0.479661 24.1051 0.292425 24.2923C0.105188 24.4795 0 24.7335 0 24.9983ZM1.9968 24.9983C1.9968 25.2631 2.10679 25.517 2.29402 25.7042C2.48126 25.8915 2.73521 25.9967 3 25.9967C3.26479 25.9967 3.51874 25.8915 3.70598 25.7042C3.89321 25.517 3.9984 25.2631 3.9984 24.9983C3.9984 24.7335 3.89321 24.4795 3.70598 24.2923C3.51874 24.1051 3.26479 23.9999 3 23.9999C2.73521 23.9999 2.48126 24.1051 2.29402 24.2923C2.10679 24.4795 1.9968 24.7335 1.9968 24.9983ZM12 24.9983C12 25.1294 12.0258 25.2592 12.076 25.3803C12.1262 25.5015 12.1997 25.6115 12.2924 25.7042C12.3851 25.7969 12.4952 25.8705 12.6163 25.9207C12.7375 25.9708 12.8673 25.9967 12.9984 25.9967C13.1295 25.9967 13.2593 25.9708 13.3805 25.9207C13.5016 25.8705 13.6117 25.7969 13.7044 25.7042C13.7971 25.6115 13.8706 25.5015 13.9208 25.3803C13.971 25.2592 13.9968 25.1294 13.9968 24.9983C13.9968 24.7335 13.8916 24.4795 13.7044 24.2923C13.5171 24.1051 13.2632 23.9999 12.9984 23.9999C12.7336 23.9999 12.4797 24.1051 12.2924 24.2923C12.1052 24.4795 12 24.7335 12 24.9983ZM13.9968 24.9983C13.9968 25.2631 14.1068 25.517 14.294 25.7042C14.4813 25.8915 14.7352 25.9967 15 25.9967C15.2648 25.9967 15.5187 25.8915 15.706 25.7042C15.8932 25.517 15.9984 25.2631 15.9984 24.9983C15.9984 24.8672 15.9726 24.7373 15.9224 24.6162C15.8722 24.4951 15.7987 24.385 15.706 24.2923C15.6133 24.1996 15.5032 24.126 15.3821 24.0759C15.2609 24.0257 15.1311 23.9999 15 23.9999C14.8689 23.9999 14.7391 24.0257 14.6179 24.0759C14.4968 24.126 14.3867 24.1996 14.294 24.2923C14.2013 24.385 14.1278 24.4951 14.0776 24.6162C14.0274 24.7373 13.9968 24.8672 13.9968 24.9983ZM20.0016 24.9983C20.0016 25.2631 20.1068 25.517 20.294 25.7042C20.4813 25.8915 20.7352 25.9967 21 25.9967C21.2648 25.9967 21.5187 25.8915 21.706 25.7042C21.8932 25.517 21.9984 25.2631 21.9984 24.9983C21.9984 24.7335 21.8932 24.4795 21.706 24.2923C21.5187 24.1051 21.2648 23.9999 21 23.9999C20.7352 23.9999 20.4813 24.1051 20.294 24.2923C20.1068 24.4795 20.0016 24.7335 20.0016 24.9983ZM21.9984 24.9983C21.9984 25.2631 22.1084 25.517 22.2956 25.7042C22.4829 25.8915 22.7368 25.9967 23.0016 25.9967C23.2664 25.9967 23.5203 25.8915 23.7076 25.7042C23.8948 25.517 24 25.2631 24 24.9983C24 24.7335 23.8948 24.4795 23.7076 24.2923C23.5203 24.1051 23.2664 23.9999 23.0016 23.9999C22.7368 23.9999 22.4829 24.1051 22.2956 24.2923C22.1084 24.4795 21.9984 24.7335 21.9984 24.9983ZM24 24.9983C24 25.2631 24.1052 25.517 24.2924 25.7042C24.4797 25.8915 24.7336 25.9967 24.9984 25.9967C25.2632 25.9967 25.5171 25.8915 25.7044 25.7042C25.8916 25.517 25.9968 25.2631 25.9968 24.9983C25.9968 24.7335 25.8916 24.4795 25.7044 24.2923C25.5171 24.1051 25.2632 23.9999 24.9984 23.9999C24.7336 23.9999 24.4797 24.1051 24.2924 24.2923C24.1052 24.4795 24 24.7335 24 24.9983ZM25.9968 24.9983C25.9968 25.2631 26.1068 25.517 26.294 25.7042C26.4813 25.8915 26.7352 25.9967 27 25.9967C27.2648 25.9967 27.5187 25.8915 27.706 25.7042C27.8932 25.517 27.9984 25.2631 27.9984 24.9983C27.9984 24.7335 27.8932 24.4795 27.706 24.2923C27.5187 24.1051 27.2648 23.9999 27 23.9999C26.7352 23.9999 26.4813 24.1051 26.294 24.2923C26.1068 24.4795 25.9968 24.7335 25.9968 24.9983ZM32.0016 24.9983C32.0016 25.2631 32.1068 25.517 32.294 25.7042C32.4813 25.8915 32.7352 25.9967 33 25.9967C33.2648 25.9967 33.5187 25.8915 33.706 25.7042C33.8932 25.517 33.9984 25.2631 33.9984 24.9983C33.9984 24.7335 33.8932 24.4795 33.706 24.2923C33.5187 24.1051 33.2648 23.9999 33 23.9999C32.7352 23.9999 32.4813 24.1051 32.294 24.2923C32.1068 24.4795 32.0016 24.7335 32.0016 24.9983ZM33.9984 24.9983C33.9984 25.2631 34.1084 25.517 34.2956 25.7042C34.4829 25.8915 34.7368 25.9967 35.0016 25.9967C35.2664 25.9967 35.5203 25.8915 35.7076 25.7042C35.8948 25.517 36 25.2631 36 24.9983C36 24.7335 35.8948 24.4795 35.7076 24.2923C35.5203 24.1051 35.2664 23.9999 35.0016 23.9999C34.7368 23.9999 34.4829 24.1051 34.2956 24.2923C34.1084 24.4795 33.9984 24.7335 33.9984 24.9983ZM44.0016 24.9983C44.0016 25.2631 44.1068 25.517 44.294 25.7042C44.4813 25.8915 44.7352 25.9967 45 25.9967C45.2648 25.9967 45.5187 25.8915 45.706 25.7042C45.8932 25.517 45.9984 25.2631 45.9984 24.9983C45.9984 24.7335 45.8932 24.4795 45.706 24.2923C45.5187 24.1051 45.2648 23.9999 45 23.9999C44.7352 23.9999 44.4813 24.1051 44.294 24.2923C44.1068 24.4795 44.0016 24.7335 44.0016 24.9983ZM45.9984 24.9983C45.9984 25.2631 46.1084 25.517 46.2956 25.7042C46.4829 25.8915 46.7368 25.9967 47.0016 25.9967C47.2664 25.9967 47.5203 25.8915 47.7076 25.7042C47.8948 25.517 48 25.2631 48 24.9983C48 24.7335 47.8948 24.4795 47.7076 24.2923C47.5203 24.1051 47.2664 23.9999 47.0016 23.9999C46.7368 23.9999 46.4829 24.1051 46.2956 24.2923C46.1084 24.4795 45.9984 24.7335 45.9984 24.9983ZM2.0016 26.9999C2.0016 27.2647 2.10679 27.5186 2.29402 27.7058C2.48126 27.8931 2.73521 27.9983 3 27.9983C3.26479 27.9983 3.51874 27.8931 3.70598 27.7058C3.89321 27.5186 3.9984 27.2647 3.9984 26.9999C3.9984 26.7351 3.89321 26.4811 3.70598 26.2939C3.51874 26.1067 3.26479 25.9967 3 25.9967C2.73521 25.9967 2.48126 26.1067 2.29402 26.2939C2.10679 26.4811 2.0016 26.7351 2.0016 26.9999ZM3.9984 26.9999C3.9984 27.2647 4.10839 27.5186 4.29562 27.7058C4.48286 27.8931 4.73681 27.9983 5.0016 27.9983C5.26639 27.9983 5.52034 27.8931 5.70758 27.7058C5.89481 27.5186 6 27.2647 6 26.9999C6 26.7351 5.89481 26.4811 5.70758 26.2939C5.52034 26.1067 5.26639 26.0015 5.0016 26.0015C4.73681 26.0015 4.48286 26.1067 4.29562 26.2939C4.10839 26.4811 3.9984 26.7351 3.9984 26.9999ZM12 26.9999C12 27.131 12.0258 27.2608 12.076 27.3819C12.1262 27.5031 12.1997 27.6131 12.2924 27.7058C12.3851 27.7985 12.4952 27.8721 12.6163 27.9223C12.7375 27.9724 12.8673 27.9983 12.9984 27.9983C13.1295 27.9983 13.2593 27.9724 13.3805 27.9223C13.5016 27.8721 13.6117 27.7985 13.7044 27.7058C13.7971 27.6131 13.8706 27.5031 13.9208 27.3819C13.971 27.2608 13.9968 27.131 13.9968 26.9999C13.9968 26.7351 13.8916 26.4811 13.7044 26.2939C13.5171 26.1067 13.2632 25.9967 12.9984 25.9967C12.7336 25.9967 12.4797 26.1067 12.2924 26.2939C12.1052 26.4811 12 26.7351 12 26.9999ZM13.9968 26.9999C13.9968 27.2647 14.1068 27.5186 14.294 27.7058C14.4813 27.8931 14.7352 27.9983 15 27.9983C15.2648 27.9983 15.5187 27.8931 15.706 27.7058C15.8932 27.5186 15.9984 27.2647 15.9984 26.9999C15.9984 26.8688 15.9726 26.7389 15.9224 26.6178C15.8722 26.4967 15.7987 26.3866 15.706 26.2939C15.6133 26.2012 15.5032 26.1276 15.3821 26.0775C15.2609 26.0273 15.1311 25.9967 15 25.9967C14.8689 25.9967 14.7391 26.0273 14.6179 26.0775C14.4968 26.1276 14.3867 26.2012 14.294 26.2939C14.2013 26.3866 14.1278 26.4967 14.0776 26.6178C14.0274 26.7389 13.9968 26.8688 13.9968 26.9999ZM22.0032 26.9999C22.0032 27.2647 22.1084 27.5186 22.2956 27.7058C22.4829 27.8931 22.7368 27.9983 23.0016 27.9983C23.2664 27.9983 23.5203 27.8931 23.7076 27.7058C23.8948 27.5186 24 27.2647 24 26.9999C24 26.7351 23.8948 26.4811 23.7076 26.2939C23.5203 26.1067 23.2664 25.9967 23.0016 25.9967C22.7368 25.9967 22.4829 26.1067 22.2956 26.2939C22.1084 26.4811 22.0032 26.7351 22.0032 26.9999ZM24 26.9999C24 27.2647 24.1052 27.5186 24.2924 27.7058C24.4797 27.8931 24.7336 27.9983 24.9984 27.9983C25.2632 27.9983 25.5171 27.8931 25.7044 27.7058C25.8916 27.5186 25.9968 27.2647 25.9968 26.9999C25.9968 26.7351 25.8916 26.4811 25.7044 26.2939C25.5171 26.1067 25.2632 25.9967 24.9984 25.9967C24.7336 25.9967 24.4797 26.1067 24.2924 26.2939C24.1052 26.4811 24 26.7351 24 26.9999ZM32.0016 26.9999C32.0016 27.2647 32.1068 27.5186 32.294 27.7058C32.4813 27.8931 32.7352 27.9983 33 27.9983C33.2648 27.9983 33.5187 27.8931 33.706 27.7058C33.8932 27.5186 33.9984 27.2647 33.9984 26.9999C33.9984 26.7351 33.8932 26.4811 33.706 26.2939C33.5187 26.1067 33.2648 25.9967 33 25.9967C32.7352 25.9967 32.4813 26.1067 32.294 26.2939C32.1068 26.4811 32.0016 26.7351 32.0016 26.9999ZM33.9984 26.9999C33.9984 27.2647 34.1084 27.5186 34.2956 27.7058C34.4829 27.8931 34.7368 27.9983 35.0016 27.9983C35.2664 27.9983 35.5203 27.8931 35.7076 27.7058C35.8948 27.5186 36 27.2647 36 26.9999C36 26.7351 35.8948 26.4811 35.7076 26.2939C35.5203 26.1067 35.2664 25.9967 35.0016 25.9967C34.7368 25.9967 34.4829 26.1067 34.2956 26.2939C34.1084 26.4811 33.9984 26.7351 33.9984 26.9999ZM42 26.9999C42 27.2647 42.1052 27.5186 42.2924 27.7058C42.4797 27.8931 42.7336 27.9983 42.9984 27.9983C43.2632 27.9983 43.5171 27.8931 43.7044 27.7058C43.8916 27.5186 43.9968 27.2647 43.9968 26.9999C43.9968 26.7351 43.8916 26.4811 43.7044 26.2939C43.5171 26.1067 43.2632 26.0015 42.9984 26.0015C42.7336 26.0015 42.4797 26.1067 42.2924 26.2939C42.1052 26.4811 42 26.7351 42 26.9999ZM43.9968 26.9999C43.9968 27.2647 44.1068 27.5186 44.294 27.7058C44.4813 27.8931 44.7352 27.9983 45 27.9983C45.2648 27.9983 45.5187 27.8931 45.706 27.7058C45.8932 27.5186 45.9984 27.2647 45.9984 26.9999C45.9984 26.7351 45.8932 26.4811 45.706 26.2939C45.5187 26.1067 45.2648 25.9967 45 25.9967C44.7352 25.9967 44.4813 26.1067 44.294 26.2939C44.1068 26.4811 43.9968 26.7351 43.9968 26.9999ZM6 29.0015C6 29.2663 6.10519 29.5202 6.29242 29.7074C6.47966 29.8947 6.73361 29.9999 6.9984 29.9999C7.26319 29.9999 7.51714 29.8947 7.70438 29.7074C7.89161 29.5202 7.9968 29.2663 7.9968 29.0015C7.9968 28.7367 7.89161 28.4827 7.70438 28.2955C7.51714 28.1083 7.26319 28.0031 6.9984 28.0031C6.73361 28.0031 6.47966 28.1083 6.29242 28.2955C6.10519 28.4827 6 28.7367 6 29.0015ZM7.9968 29.0015C7.9968 29.2663 8.10679 29.5202 8.29402 29.7074C8.48126 29.8947 8.73521 29.9999 9 29.9999C9.26479 29.9999 9.51874 29.8947 9.70598 29.7074C9.89321 29.5202 9.9984 29.2663 9.9984 29.0015C9.9984 28.7367 9.89321 28.4827 9.70598 28.2955C9.51874 28.1083 9.26479 28.0031 9 28.0031C8.73521 28.0031 8.48126 28.1083 8.29402 28.2955C8.10679 28.4827 7.9968 28.7367 7.9968 29.0015ZM9.9984 29.0015C9.9984 29.2663 10.1084 29.5202 10.2956 29.7074C10.4829 29.8947 10.7368 29.9999 11.0016 29.9999C11.2664 29.9999 11.5203 29.8947 11.7076 29.7074C11.8948 29.5202 12 29.2663 12 29.0015C12 28.7367 11.8948 28.4827 11.7076 28.2955C11.5203 28.1083 11.2664 28.0031 11.0016 28.0031C10.7368 28.0031 10.4829 28.1083 10.2956 28.2955C10.1084 28.4827 9.9984 28.7367 9.9984 29.0015ZM16.0032 29.0015C16.0032 29.1326 16.029 29.2624 16.0792 29.3835C16.1294 29.5047 16.2029 29.6147 16.2956 29.7074C16.3883 29.8001 16.4984 29.8737 16.6195 29.9239C16.7407 29.974 16.8705 29.9999 17.0016 29.9999C17.1327 29.9999 17.2625 29.974 17.3837 29.9239C17.5048 29.8737 17.6149 29.8001 17.7076 29.7074C17.8003 29.6147 17.8738 29.5047 17.924 29.3835C17.9742 29.2624 18 29.1326 18 29.0015C18 28.8704 17.9742 28.7405 17.924 28.6194C17.8738 28.4983 17.8003 28.3882 17.7076 28.2955C17.6149 28.2028 17.5048 28.1292 17.3837 28.0791C17.2625 28.0289 17.1327 28.0031 17.0016 28.0031C16.8705 28.0031 16.7407 28.0289 16.6195 28.0791C16.4984 28.1292 16.3883 28.2028 16.2956 28.2955C16.2029 28.3882 16.1294 28.4983 16.0792 28.6194C16.029 28.7405 16.0032 28.8704 16.0032 29.0015ZM30 29.0015C30 29.2663 30.1052 29.5202 30.2924 29.7074C30.4797 29.8947 30.7336 29.9999 30.9984 29.9999C31.2632 29.9999 31.5171 29.8947 31.7044 29.7074C31.8916 29.5202 31.9968 29.2663 31.9968 29.0015C31.9968 28.7367 31.8916 28.4827 31.7044 28.2955C31.5171 28.1083 31.2632 28.0031 30.9984 28.0031C30.7336 28.0031 30.4797 28.1083 30.2924 28.2955C30.1052 28.4827 30 28.7367 30 29.0015ZM36 29.0015C36 29.2663 36.1052 29.5202 36.2924 29.7074C36.4797 29.8947 36.7336 29.9999 36.9984 29.9999C37.2632 29.9999 37.5171 29.8947 37.7044 29.7074C37.8916 29.5202 37.9968 29.2663 37.9968 29.0015C37.9968 28.7367 37.8916 28.4827 37.7044 28.2955C37.5171 28.1083 37.2632 28.0031 36.9984 28.0031C36.7336 28.0031 36.4797 28.1083 36.2924 28.2955C36.1052 28.4827 36 28.7367 36 29.0015ZM37.9968 29.0015C37.9968 29.2663 38.1068 29.5202 38.294 29.7074C38.4813 29.8947 38.7352 29.9999 39 29.9999C39.2648 29.9999 39.5187 29.8947 39.706 29.7074C39.8932 29.5202 39.9984 29.2663 39.9984 29.0015C39.9984 28.7367 39.8932 28.4827 39.706 28.2955C39.5187 28.1083 39.2648 28.0031 39 28.0031C38.7352 28.0031 38.4813 28.1083 38.294 28.2955C38.1068 28.4827 37.9968 28.7367 37.9968 29.0015ZM39.9984 29.0015C39.9984 29.1326 40.029 29.2624 40.0792 29.3835C40.1294 29.5047 40.2029 29.6147 40.2956 29.7074C40.3883 29.8001 40.4984 29.8737 40.6195 29.9239C40.7407 29.974 40.8705 29.9999 41.0016 29.9999C41.1327 29.9999 41.2625 29.974 41.3837 29.9239C41.5048 29.8737 41.6149 29.8001 41.7076 29.7074C41.8003 29.6147 41.8738 29.5047 41.924 29.3835C41.9742 29.2624 42 29.1326 42 29.0015C42 28.8704 41.9742 28.7405 41.924 28.6194C41.8738 28.4983 41.8003 28.3882 41.7076 28.2955C41.6149 28.2028 41.5048 28.1292 41.3837 28.0791C41.2625 28.0289 41.1327 28.0031 41.0016 28.0031C40.8705 28.0031 40.7407 28.0289 40.6195 28.0791C40.4984 28.1292 40.3883 28.2028 40.2956 28.2955C40.2029 28.3882 40.1294 28.4983 40.0792 28.6194C40.029 28.7405 39.9984 28.8704 39.9984 29.0015ZM10.0032 30.9983C10.0032 31.2631 10.1084 31.517 10.2956 31.7042C10.4829 31.8915 10.7368 31.9967 11.0016 31.9967C11.2664 31.9967 11.5203 31.8915 11.7076 31.7042C11.8948 31.517 12 31.2631 12 30.9983C12 30.7335 11.8948 30.4795 11.7076 30.2923C11.5203 30.1051 11.2664 29.9999 11.0016 29.9999C10.7368 29.9999 10.4829 30.1051 10.2956 30.2923C10.1084 30.4795 10.0032 30.7335 10.0032 30.9983ZM12 30.9983C12 31.1294 12.0258 31.2592 12.076 31.3803C12.1262 31.5015 12.1997 31.6115 12.2924 31.7042C12.3851 31.7969 12.4952 31.8705 12.6163 31.9207C12.7375 31.9708 12.8673 31.9967 12.9984 31.9967C13.1295 31.9967 13.2593 31.9708 13.3805 31.9207C13.5016 31.8705 13.6117 31.7969 13.7044 31.7042C13.7971 31.6115 13.8706 31.5015 13.9208 31.3803C13.971 31.2592 13.9968 31.1294 13.9968 30.9983C13.9968 30.7335 13.8916 30.4795 13.7044 30.2923C13.5171 30.1051 13.2632 29.9999 12.9984 29.9999C12.7336 29.9999 12.4797 30.1051 12.2924 30.2923C12.1052 30.4795 12 30.7335 12 30.9983ZM13.9968 30.9983C13.9968 31.2631 14.1068 31.517 14.294 31.7042C14.4813 31.8915 14.7352 31.9967 15 31.9967C15.2648 31.9967 15.5187 31.8915 15.706 31.7042C15.8932 31.517 15.9984 31.2631 15.9984 30.9983C15.9984 30.8672 15.9726 30.7373 15.9224 30.6162C15.8722 30.4951 15.7987 30.385 15.706 30.2923C15.6133 30.1996 15.5032 30.126 15.3821 30.0759C15.2609 30.0257 15.1311 29.9999 15 29.9999C14.8689 29.9999 14.7391 30.0257 14.6179 30.0759C14.4968 30.126 14.3867 30.1996 14.294 30.2923C14.2013 30.385 14.1278 30.4951 14.0776 30.6162C14.0274 30.7373 13.9968 30.8672 13.9968 30.9983ZM15.9984 30.9983C15.9984 31.1294 16.029 31.2592 16.0792 31.3803C16.1294 31.5015 16.2029 31.6115 16.2956 31.7042C16.3883 31.7969 16.4984 31.8705 16.6195 31.9207C16.7407 31.9708 16.8705 31.9967 17.0016 31.9967C17.1327 31.9967 17.2625 31.9708 17.3837 31.9207C17.5048 31.8705 17.6149 31.7969 17.7076 31.7042C17.8003 31.6115 17.8738 31.5015 17.924 31.3803C17.9742 31.2592 18 31.1294 18 30.9983C18 30.8672 17.9742 30.7373 17.924 30.6162C17.8738 30.4951 17.8003 30.385 17.7076 30.2923C17.6149 30.1996 17.5048 30.126 17.3837 30.0759C17.2625 30.0257 17.1327 29.9999 17.0016 29.9999C16.8705 29.9999 16.7407 30.0257 16.6195 30.0759C16.4984 30.126 16.3883 30.1996 16.2956 30.2923C16.2029 30.385 16.1294 30.4951 16.0792 30.6162C16.029 30.7373 15.9984 30.8672 15.9984 30.9983ZM30 30.9983C30 31.2631 30.1052 31.517 30.2924 31.7042C30.4797 31.8915 30.7336 31.9967 30.9984 31.9967C31.2632 31.9967 31.5171 31.8915 31.7044 31.7042C31.8916 31.517 31.9968 31.2631 31.9968 30.9983C31.9968 30.7335 31.8916 30.4795 31.7044 30.2923C31.5171 30.1051 31.2632 29.9999 30.9984 29.9999C30.7336 29.9999 30.4797 30.1051 30.2924 30.2923C30.1052 30.4795 30 30.7335 30 30.9983ZM31.9968 30.9983C31.9968 31.2631 32.1068 31.517 32.294 31.7042C32.4813 31.8915 32.7352 31.9967 33 31.9967C33.2648 31.9967 33.5187 31.8915 33.706 31.7042C33.8932 31.517 33.9984 31.2631 33.9984 30.9983C33.9984 30.7335 33.8932 30.4795 33.706 30.2923C33.5187 30.1051 33.2648 29.9999 33 29.9999C32.7352 29.9999 32.4813 30.1051 32.294 30.2923C32.1068 30.4795 31.9968 30.7335 31.9968 30.9983ZM33.9984 30.9983C33.9984 31.2631 34.1084 31.517 34.2956 31.7042C34.4829 31.8915 34.7368 31.9967 35.0016 31.9967C35.2664 31.9967 35.5203 31.8915 35.7076 31.7042C35.8948 31.517 36 31.2631 36 30.9983C36 30.7335 35.8948 30.4795 35.7076 30.2923C35.5203 30.1051 35.2664 29.9999 35.0016 29.9999C34.7368 29.9999 34.4829 30.1051 34.2956 30.2923C34.1084 30.4795 33.9984 30.7335 33.9984 30.9983ZM36 30.9983C36 31.2631 36.1052 31.517 36.2924 31.7042C36.4797 31.8915 36.7336 31.9967 36.9984 31.9967C37.2632 31.9967 37.5171 31.8915 37.7044 31.7042C37.8916 31.517 37.9968 31.2631 37.9968 30.9983C37.9968 30.7335 37.8916 30.4795 37.7044 30.2923C37.5171 30.1051 37.2632 29.9999 36.9984 29.9999C36.7336 29.9999 36.4797 30.1051 36.2924 30.2923C36.1052 30.4795 36 30.7335 36 30.9983ZM10.0032 32.9999C10.0032 33.2647 10.1084 33.5186 10.2956 33.7058C10.4829 33.8931 10.7368 33.9983 11.0016 33.9983C11.2664 33.9983 11.5203 33.8931 11.7076 33.7058C11.8948 33.5186 12 33.2647 12 32.9999C12 32.7351 11.8948 32.4811 11.7076 32.2939C11.5203 32.1067 11.2664 31.9967 11.0016 31.9967C10.7368 31.9967 10.4829 32.1067 10.2956 32.2939C10.1084 32.4811 10.0032 32.7351 10.0032 32.9999ZM18 32.9999C18 33.2647 18.1052 33.5186 18.2924 33.7058C18.4797 33.8931 18.7336 33.9983 18.9984 33.9983C19.2632 33.9983 19.5171 33.8931 19.7044 33.7058C19.8916 33.5186 19.9968 33.2647 19.9968 32.9999C19.9968 32.7351 19.8916 32.4811 19.7044 32.2939C19.5171 32.1067 19.2632 32.0015 18.9984 32.0015C18.7336 32.0015 18.4797 32.1067 18.2924 32.2939C18.1052 32.4811 18 32.7351 18 32.9999ZM19.9968 32.9999C19.9968 33.2647 20.1068 33.5186 20.294 33.7058C20.4813 33.8931 20.7352 33.9983 21 33.9983C21.2648 33.9983 21.5187 33.8931 21.706 33.7058C21.8932 33.5186 21.9984 33.2647 21.9984 32.9999C21.9984 32.7351 21.8932 32.4811 21.706 32.2939C21.5187 32.1067 21.2648 32.0015 21 32.0015C20.7352 32.0015 20.4813 32.1067 20.294 32.2939C20.1068 32.4811 19.9968 32.7351 19.9968 32.9999ZM21.9984 32.9999C21.9984 33.2647 22.1084 33.5186 22.2956 33.7058C22.4829 33.8931 22.7368 33.9983 23.0016 33.9983C23.2664 33.9983 23.5203 33.8931 23.7076 33.7058C23.8948 33.5186 24 33.2647 24 32.9999C24 32.7351 23.8948 32.4811 23.7076 32.2939C23.5203 32.1067 23.2664 32.0015 23.0016 32.0015C22.7368 32.0015 22.4829 32.1067 22.2956 32.2939C22.1084 32.4811 21.9984 32.7351 21.9984 32.9999ZM24 32.9999C24 33.2647 24.1052 33.5186 24.2924 33.7058C24.4797 33.8931 24.7336 33.9983 24.9984 33.9983C25.2632 33.9983 25.5171 33.8931 25.7044 33.7058C25.8916 33.5186 25.9968 33.2647 25.9968 32.9999C25.9968 32.7351 25.8916 32.4811 25.7044 32.2939C25.5171 32.1067 25.2632 32.0015 24.9984 32.0015C24.7336 32.0015 24.4797 32.1067 24.2924 32.2939C24.1052 32.4811 24 32.7351 24 32.9999ZM25.9968 32.9999C25.9968 33.2647 26.1068 33.5186 26.294 33.7058C26.4813 33.8931 26.7352 33.9983 27 33.9983C27.2648 33.9983 27.5187 33.8931 27.706 33.7058C27.8932 33.5186 27.9984 33.2647 27.9984 32.9999C27.9984 32.7351 27.8932 32.4811 27.706 32.2939C27.5187 32.1067 27.2648 32.0015 27 32.0015C26.7352 32.0015 26.4813 32.1067 26.294 32.2939C26.1068 32.4811 25.9968 32.7351 25.9968 32.9999ZM27.9984 32.9999C27.9984 33.2647 28.1084 33.5186 28.2956 33.7058C28.4829 33.8931 28.7368 33.9983 29.0016 33.9983C29.2664 33.9983 29.5203 33.8931 29.7076 33.7058C29.8948 33.5186 30 33.2647 30 32.9999C30 32.7351 29.8948 32.4811 29.7076 32.2939C29.5203 32.1067 29.2664 32.0015 29.0016 32.0015C28.7368 32.0015 28.4829 32.1067 28.2956 32.2939C28.1084 32.4811 27.9984 32.7351 27.9984 32.9999ZM36 32.9999C36 33.2647 36.1052 33.5186 36.2924 33.7058C36.4797 33.8931 36.7336 33.9983 36.9984 33.9983C37.2632 33.9983 37.5171 33.8931 37.7044 33.7058C37.8916 33.5186 37.9968 33.2647 37.9968 32.9999C37.9968 32.7351 37.8916 32.4811 37.7044 32.2939C37.5171 32.1067 37.2632 31.9967 36.9984 31.9967C36.7336 31.9967 36.4797 32.1067 36.2924 32.2939C36.1052 32.4811 36 32.7351 36 32.9999ZM8.0016 35.0015C8.0016 35.2663 8.10679 35.5202 8.29402 35.7074C8.48126 35.8947 8.73521 35.9999 9 35.9999C9.26479 35.9999 9.51874 35.8947 9.70598 35.7074C9.89321 35.5202 9.9984 35.2663 9.9984 35.0015C9.9984 34.7367 9.89321 34.4827 9.70598 34.2955C9.51874 34.1083 9.26479 34.0031 9 34.0031C8.73521 34.0031 8.48126 34.1083 8.29402 34.2955C8.10679 34.4827 8.0016 34.7367 8.0016 35.0015ZM20.0016 35.0015C20.0016 35.2663 20.1068 35.5202 20.294 35.7074C20.4813 35.8947 20.7352 35.9999 21 35.9999C21.2648 35.9999 21.5187 35.8947 21.706 35.7074C21.8932 35.5202 21.9984 35.2663 21.9984 35.0015C21.9984 34.7367 21.8932 34.4827 21.706 34.2955C21.5187 34.1083 21.2648 33.9983 21 33.9983C20.7352 33.9983 20.4813 34.1083 20.294 34.2955C20.1068 34.4827 20.0016 34.7367 20.0016 35.0015ZM26.0016 35.0015C26.0016 35.2663 26.1068 35.5202 26.294 35.7074C26.4813 35.8947 26.7352 35.9999 27 35.9999C27.2648 35.9999 27.5187 35.8947 27.706 35.7074C27.8932 35.5202 27.9984 35.2663 27.9984 35.0015C27.9984 34.7367 27.8932 34.4827 27.706 34.2955C27.5187 34.1083 27.2648 33.9983 27 33.9983C26.7352 33.9983 26.4813 34.1083 26.294 34.2955C26.1068 34.4827 26.0016 34.7367 26.0016 35.0015ZM38.0016 35.0015C38.0016 35.2663 38.1068 35.5202 38.294 35.7074C38.4813 35.8947 38.7352 35.9999 39 35.9999C39.2648 35.9999 39.5187 35.8947 39.706 35.7074C39.8932 35.5202 39.9984 35.2663 39.9984 35.0015C39.9984 34.7367 39.8932 34.4827 39.706 34.2955C39.5187 34.1083 39.2648 34.0031 39 34.0031C38.7352 34.0031 38.4813 34.1083 38.294 34.2955C38.1068 34.4827 38.0016 34.7367 38.0016 35.0015ZM8.0016 36.9983C8.0016 37.2631 8.10679 37.517 8.29402 37.7042C8.48126 37.8915 8.73521 37.9967 9 37.9967C9.26479 37.9967 9.51874 37.8915 9.70598 37.7042C9.89321 37.517 9.9984 37.2631 9.9984 36.9983C9.9984 36.7335 9.89321 36.4795 9.70598 36.2923C9.51874 36.1051 9.26479 35.9999 9 35.9999C8.73521 35.9999 8.48126 36.1051 8.29402 36.2923C8.10679 36.4795 8.0016 36.7335 8.0016 36.9983ZM22.0032 36.9983C22.0032 37.2631 22.1084 37.517 22.2956 37.7042C22.4829 37.8915 22.7368 37.9967 23.0016 37.9967C23.2664 37.9967 23.5203 37.8915 23.7076 37.7042C23.8948 37.517 24 37.2631 24 36.9983C24 36.7335 23.8948 36.4795 23.7076 36.2923C23.5203 36.1051 23.2664 35.9999 23.0016 35.9999C22.7368 35.9999 22.4829 36.1051 22.2956 36.2923C22.1084 36.4795 22.0032 36.7335 22.0032 36.9983ZM24 36.9983C24 37.2631 24.1052 37.517 24.2924 37.7042C24.4797 37.8915 24.7336 37.9967 24.9984 37.9967C25.2632 37.9967 25.5171 37.8915 25.7044 37.7042C25.8916 37.517 25.9968 37.2631 25.9968 36.9983C25.9968 36.7335 25.8916 36.4795 25.7044 36.2923C25.5171 36.1051 25.2632 35.9999 24.9984 35.9999C24.7336 35.9999 24.4797 36.1051 24.2924 36.2923C24.1052 36.4795 24 36.7335 24 36.9983ZM38.0016 36.9983C38.0016 37.2631 38.1068 37.517 38.294 37.7042C38.4813 37.8915 38.7352 37.9967 39 37.9967C39.2648 37.9967 39.5187 37.8915 39.706 37.7042C39.8932 37.517 39.9984 37.2631 39.9984 36.9983C39.9984 36.7335 39.8932 36.4795 39.706 36.2923C39.5187 36.1051 39.2648 35.9999 39 35.9999C38.7352 35.9999 38.4813 36.1051 38.294 36.2923C38.1068 36.4795 38.0016 36.7335 38.0016 36.9983ZM8.0016 38.9999C8.0016 39.2647 8.10679 39.5186 8.29402 39.7058C8.48126 39.8931 8.73521 39.9983 9 39.9983C9.26479 39.9983 9.51874 39.8931 9.70598 39.7058C9.89321 39.5186 9.9984 39.2647 9.9984 38.9999C9.9984 38.7351 9.89321 38.4811 9.70598 38.2939C9.51874 38.1067 9.26479 37.9967 9 37.9967C8.73521 37.9967 8.48126 38.1067 8.29402 38.2939C8.10679 38.4811 8.0016 38.7351 8.0016 38.9999ZM22.0032 38.9999C22.0032 39.2647 22.1084 39.5186 22.2956 39.7058C22.4829 39.8931 22.7368 39.9983 23.0016 39.9983C23.2664 39.9983 23.5203 39.8931 23.7076 39.7058C23.8948 39.5186 24 39.2647 24 38.9999C24 38.7351 23.8948 38.4811 23.7076 38.2939C23.5203 38.1067 23.2664 37.9967 23.0016 37.9967C22.7368 37.9967 22.4829 38.1067 22.2956 38.2939C22.1084 38.4811 22.0032 38.7351 22.0032 38.9999ZM24 38.9999C24 39.2647 24.1052 39.5186 24.2924 39.7058C24.4797 39.8931 24.7336 39.9983 24.9984 39.9983C25.2632 39.9983 25.5171 39.8931 25.7044 39.7058C25.8916 39.5186 25.9968 39.2647 25.9968 38.9999C25.9968 38.7351 25.8916 38.4811 25.7044 38.2939C25.5171 38.1067 25.2632 37.9967 24.9984 37.9967C24.7336 37.9967 24.4797 38.1067 24.2924 38.2939C24.1052 38.4811 24 38.7351 24 38.9999ZM38.0016 38.9999C38.0016 39.2647 38.1068 39.5186 38.294 39.7058C38.4813 39.8931 38.7352 39.9983 39 39.9983C39.2648 39.9983 39.5187 39.8931 39.706 39.7058C39.8932 39.5186 39.9984 39.2647 39.9984 38.9999C39.9984 38.7351 39.8932 38.4811 39.706 38.2939C39.5187 38.1067 39.2648 37.9967 39 37.9967C38.7352 37.9967 38.4813 38.1067 38.294 38.2939C38.1068 38.4811 38.0016 38.7351 38.0016 38.9999ZM8.0016 41.0015C8.0016 41.2663 8.10679 41.5202 8.29402 41.7074C8.48126 41.8947 8.73521 41.9999 9 41.9999C9.26479 41.9999 9.51874 41.8947 9.70598 41.7074C9.89321 41.5202 9.9984 41.2663 9.9984 41.0015C9.9984 40.7367 9.89321 40.4827 9.70598 40.2955C9.51874 40.1083 9.26479 39.9983 9 39.9983C8.73521 39.9983 8.48126 40.1083 8.29402 40.2955C8.10679 40.4827 8.0016 40.7367 8.0016 41.0015ZM20.0016 41.0015C20.0016 41.2663 20.1068 41.5202 20.294 41.7074C20.4813 41.8947 20.7352 41.9999 21 41.9999C21.2648 41.9999 21.5187 41.8947 21.706 41.7074C21.8932 41.5202 21.9984 41.2663 21.9984 41.0015C21.9984 40.7367 21.8932 40.4827 21.706 40.2955C21.5187 40.1083 21.2648 40.0031 21 40.0031C20.7352 40.0031 20.4813 40.1083 20.294 40.2955C20.1068 40.4827 20.0016 40.7367 20.0016 41.0015ZM26.0016 41.0015C26.0016 41.2663 26.1068 41.5202 26.294 41.7074C26.4813 41.8947 26.7352 41.9999 27 41.9999C27.2648 41.9999 27.5187 41.8947 27.706 41.7074C27.8932 41.5202 27.9984 41.2663 27.9984 41.0015C27.9984 40.7367 27.8932 40.4827 27.706 40.2955C27.5187 40.1083 27.2648 40.0031 27 40.0031C26.7352 40.0031 26.4813 40.1083 26.294 40.2955C26.1068 40.4827 26.0016 40.7367 26.0016 41.0015ZM38.0016 41.0015C38.0016 41.2663 38.1068 41.5202 38.294 41.7074C38.4813 41.8947 38.7352 41.9999 39 41.9999C39.2648 41.9999 39.5187 41.8947 39.706 41.7074C39.8932 41.5202 39.9984 41.2663 39.9984 41.0015C39.9984 40.7367 39.8932 40.4827 39.706 40.2955C39.5187 40.1083 39.2648 39.9983 39 39.9983C38.7352 39.9983 38.4813 40.1083 38.294 40.2955C38.1068 40.4827 38.0016 40.7367 38.0016 41.0015ZM10.0032 42.9983C10.0032 43.2631 10.1084 43.517 10.2956 43.7042C10.4829 43.8915 10.7368 43.9967 11.0016 43.9967C11.2664 43.9967 11.5203 43.8915 11.7076 43.7042C11.8948 43.517 12 43.2631 12 42.9983C12 42.7335 11.8948 42.4795 11.7076 42.2923C11.5203 42.1051 11.2664 41.9999 11.0016 41.9999C10.7368 41.9999 10.4829 42.1051 10.2956 42.2923C10.1084 42.4795 10.0032 42.7335 10.0032 42.9983ZM12 42.9983C12 43.1294 12.0258 43.2592 12.076 43.3803C12.1262 43.5015 12.1997 43.6115 12.2924 43.7042C12.3851 43.7969 12.4952 43.8705 12.6163 43.9207C12.7375 43.9708 12.8673 43.9967 12.9984 43.9967C13.1295 43.9967 13.2593 43.9708 13.3805 43.9207C13.5016 43.8705 13.6117 43.7969 13.7044 43.7042C13.7971 43.6115 13.8706 43.5015 13.9208 43.3803C13.971 43.2592 13.9968 43.1294 13.9968 42.9983C13.9968 42.7335 13.8916 42.4795 13.7044 42.2923C13.5171 42.1051 13.2632 41.9999 12.9984 41.9999C12.7336 41.9999 12.4797 42.1051 12.2924 42.2923C12.1052 42.4795 12 42.7335 12 42.9983ZM16.0032 42.9983C16.0032 43.1294 16.029 43.2592 16.0792 43.3803C16.1294 43.5015 16.2029 43.6115 16.2956 43.7042C16.3883 43.7969 16.4984 43.8705 16.6195 43.9207C16.7407 43.9708 16.8705 43.9967 17.0016 43.9967C17.1327 43.9967 17.2625 43.9708 17.3837 43.9207C17.5048 43.8705 17.6149 43.7969 17.7076 43.7042C17.8003 43.6115 17.8738 43.5015 17.924 43.3803C17.9742 43.2592 18 43.1294 18 42.9983C18 42.8672 17.9742 42.7373 17.924 42.6162C17.8738 42.4951 17.8003 42.385 17.7076 42.2923C17.6149 42.1996 17.5048 42.126 17.3837 42.0759C17.2625 42.0257 17.1327 41.9999 17.0016 41.9999C16.8705 41.9999 16.7407 42.0257 16.6195 42.0759C16.4984 42.126 16.3883 42.1996 16.2956 42.2923C16.2029 42.385 16.1294 42.4951 16.0792 42.6162C16.029 42.7373 16.0032 42.8672 16.0032 42.9983ZM18 42.9983C18 43.2631 18.1052 43.517 18.2924 43.7042C18.4797 43.8915 18.7336 43.9967 18.9984 43.9967C19.2632 43.9967 19.5171 43.8915 19.7044 43.7042C19.8916 43.517 19.9968 43.2631 19.9968 42.9983C19.9968 42.7335 19.8916 42.4795 19.7044 42.2923C19.5171 42.1051 19.2632 41.9999 18.9984 41.9999C18.7336 41.9999 18.4797 42.1051 18.2924 42.2923C18.1052 42.4795 18 42.7335 18 42.9983ZM28.0032 42.9983C28.0032 43.2631 28.1084 43.517 28.2956 43.7042C28.4829 43.8915 28.7368 43.9967 29.0016 43.9967C29.2664 43.9967 29.5203 43.8915 29.7076 43.7042C29.8948 43.517 30 43.2631 30 42.9983C30 42.7335 29.8948 42.4795 29.7076 42.2923C29.5203 42.1051 29.2664 41.9999 29.0016 41.9999C28.7368 41.9999 28.4829 42.1051 28.2956 42.2923C28.1084 42.4795 28.0032 42.7335 28.0032 42.9983ZM30 42.9983C30 43.2631 30.1052 43.517 30.2924 43.7042C30.4797 43.8915 30.7336 43.9967 30.9984 43.9967C31.2632 43.9967 31.5171 43.8915 31.7044 43.7042C31.8916 43.517 31.9968 43.2631 31.9968 42.9983C31.9968 42.7335 31.8916 42.4795 31.7044 42.2923C31.5171 42.1051 31.2632 41.9999 30.9984 41.9999C30.7336 41.9999 30.4797 42.1051 30.2924 42.2923C30.1052 42.4795 30 42.7335 30 42.9983ZM34.0032 42.9983C34.0032 43.2631 34.1084 43.517 34.2956 43.7042C34.4829 43.8915 34.7368 43.9967 35.0016 43.9967C35.2664 43.9967 35.5203 43.8915 35.7076 43.7042C35.8948 43.517 36 43.2631 36 42.9983C36 42.7335 35.8948 42.4795 35.7076 42.2923C35.5203 42.1051 35.2664 41.9999 35.0016 41.9999C34.7368 41.9999 34.4829 42.1051 34.2956 42.2923C34.1084 42.4795 34.0032 42.7335 34.0032 42.9983ZM36 42.9983C36 43.2631 36.1052 43.517 36.2924 43.7042C36.4797 43.8915 36.7336 43.9967 36.9984 43.9967C37.2632 43.9967 37.5171 43.8915 37.7044 43.7042C37.8916 43.517 37.9968 43.2631 37.9968 42.9983C37.9968 42.7335 37.8916 42.4795 37.7044 42.2923C37.5171 42.1051 37.2632 41.9999 36.9984 41.9999C36.7336 41.9999 36.4797 42.1051 36.2924 42.2923C36.1052 42.4795 36 42.7335 36 42.9983ZM12 44.9999C12 45.131 12.0258 45.2608 12.076 45.3819C12.1262 45.5031 12.1997 45.6131 12.2924 45.7058C12.3851 45.7985 12.4952 45.8721 12.6163 45.9223C12.7375 45.9724 12.8673 45.9983 12.9984 45.9983C13.1295 45.9983 13.2593 45.9724 13.3805 45.9223C13.5016 45.8721 13.6117 45.7985 13.7044 45.7058C13.7971 45.6131 13.8706 45.5031 13.9208 45.3819C13.971 45.2608 13.9968 45.131 13.9968 44.9999C13.9968 44.7351 13.8916 44.4811 13.7044 44.2939C13.5171 44.1067 13.2632 43.9967 12.9984 43.9967C12.7336 43.9967 12.4797 44.1067 12.2924 44.2939C12.1052 44.4811 12 44.7351 12 44.9999ZM13.9968 44.9999C13.9968 45.2647 14.1068 45.5186 14.294 45.7058C14.4813 45.8931 14.7352 45.9983 15 45.9983C15.2648 45.9983 15.5187 45.8931 15.706 45.7058C15.8932 45.5186 15.9984 45.2647 15.9984 44.9999C15.9984 44.8688 15.9726 44.7389 15.9224 44.6178C15.8722 44.4967 15.7987 44.3866 15.706 44.2939C15.6133 44.2012 15.5032 44.1276 15.3821 44.0775C15.2609 44.0273 15.1311 44.0015 15 44.0015C14.8689 44.0015 14.7391 44.0273 14.6179 44.0775C14.4968 44.1276 14.3867 44.2012 14.294 44.2939C14.2013 44.3866 14.1278 44.4967 14.0776 44.6178C14.0274 44.7389 13.9968 44.8688 13.9968 44.9999ZM32.0016 44.9999C32.0016 45.2647 32.1068 45.5186 32.294 45.7058C32.4813 45.8931 32.7352 45.9983 33 45.9983C33.2648 45.9983 33.5187 45.8931 33.706 45.7058C33.8932 45.5186 33.9984 45.2647 33.9984 44.9999C33.9984 44.7351 33.8932 44.4811 33.706 44.2939C33.5187 44.1067 33.2648 44.0015 33 44.0015C32.7352 44.0015 32.4813 44.1067 32.294 44.2939C32.1068 44.4811 32.0016 44.7351 32.0016 44.9999ZM33.9984 44.9999C33.9984 45.2647 34.1084 45.5186 34.2956 45.7058C34.4829 45.8931 34.7368 45.9983 35.0016 45.9983C35.2664 45.9983 35.5203 45.8931 35.7076 45.7058C35.8948 45.5186 36 45.2647 36 44.9999C36 44.7351 35.8948 44.4811 35.7076 44.2939C35.5203 44.1067 35.2664 43.9967 35.0016 43.9967C34.7368 43.9967 34.4829 44.1067 34.2956 44.2939C34.1084 44.4811 33.9984 44.7351 33.9984 44.9999Z" fill="#EDEDED"/>
    </g>
    <defs>
        <clipPath id="clip0_3019_9518">
            <rect width="48" height="48" fill="white"/>
        </clipPath>
    </defs>
</svg>
