<svg width="64" height="58" viewBox="0 0 64 58" fill="none" xmlns="http://www.w3.org/2000/svg">
<g clip-path="url(#clip0_13_585)">
<path d="M26.2824 28.7955C26.2824 25.6412 28.8446 23.079 31.9989 23.079C35.1533 23.079 37.7155 25.6412 37.7155 28.7955C37.7155 31.9499 35.1533 34.5121 31.9989 34.5121C28.8446 34.5121 26.2824 31.9499 26.2824 28.7955ZM63.9752 28.7955C63.9752 32.7242 59.3404 36.6985 51.8702 39.1696C51.483 39.2948 51.0845 39.4201 50.6745 39.5454C50.8226 40.1261 50.9478 40.6955 51.0617 41.2535C51.7563 44.7837 51.8702 48.0633 51.3805 50.728C50.8567 53.5635 49.6724 55.5791 47.9643 56.5698C47.1102 57.0708 46.0967 57.3214 44.9693 57.3214C41.8719 57.3214 37.9432 55.4538 33.8437 51.9237C33.2629 51.4226 32.6936 50.8988 32.1128 50.3408C31.6687 50.7735 31.2246 51.1835 30.7804 51.5706C28.0702 53.9393 25.2803 55.6702 22.7294 56.5698C21.3971 57.0481 20.1445 57.2872 19.0285 57.2872C17.867 57.2872 16.8421 57.0367 15.9766 56.5356C12.7084 54.6453 11.5696 49.202 12.9475 41.9709C13.0842 41.2307 13.255 40.4678 13.4486 39.6934C12.845 39.5226 12.2643 39.3404 11.7063 39.1468C8.30141 37.9853 5.40897 36.4366 3.34782 34.6715C1.16141 32.8039 -0.00012207 30.7656 -0.00012207 28.7955C-0.00012207 25.0148 4.14495 21.3139 11.1027 18.8997C11.8657 18.6378 12.6628 18.3873 13.4827 18.1482C13.3005 17.4307 13.1411 16.7247 13.0045 16.0301C12.3326 12.591 12.2073 9.43667 12.6401 6.89724C13.1183 4.13006 14.2457 2.16002 15.9197 1.19207C19.3132 -0.777974 25.0867 1.24901 30.9627 6.4759C31.3157 6.79475 31.6687 7.12499 32.0331 7.46662C32.5683 6.95418 33.1035 6.46451 33.6273 5.99762C36.2693 3.69734 38.9453 2.01198 41.3595 1.12375C43.99 0.155806 46.2675 0.155806 47.9301 1.11236C51.335 3.07102 52.4624 9.08365 50.8681 16.7816C50.777 17.2485 50.6631 17.7154 50.5493 18.1937C51.2553 18.3987 51.9385 18.615 52.599 18.8428C55.9128 19.9815 58.7027 21.4619 60.6842 23.1017C62.8364 24.901 63.9752 26.871 63.9752 28.7955ZM33.9462 9.41389C35.7682 11.3726 37.5902 13.6501 39.3439 16.1553C42.3616 16.44 45.2427 16.8955 47.9073 17.5104C48.0098 17.0777 48.1123 16.6564 48.192 16.235C49.6838 8.98116 48.397 4.54002 46.5636 3.48097C45.6298 2.94576 44.1153 3.01408 42.2933 3.68595C40.1866 4.4603 37.8066 5.97485 35.4152 8.05877C34.9255 8.48011 34.4359 8.93561 33.9462 9.41389ZM16.8307 37.7234C18.6527 38.1219 20.6227 38.4408 22.7181 38.6685C22.0348 37.5981 21.3629 36.5049 20.7138 35.3889C20.0761 34.2957 19.4726 33.1911 18.9032 32.0865C18.0947 33.9996 17.3887 35.9014 16.8307 37.7234ZM20.7138 22.3388C21.3516 21.2456 22.0006 20.1637 22.6725 19.1161C20.6455 19.3666 18.6982 19.7082 16.8649 20.1068C17.4228 21.906 18.1061 23.7622 18.9032 25.6526C19.4726 24.548 20.0761 23.4434 20.7138 22.3388ZM23.0825 34.0224C24.0732 35.7305 25.1208 37.3931 26.214 38.976C28.0702 39.0899 30.0061 39.1582 31.9989 39.1582C34.0031 39.1582 35.9618 39.0899 37.8521 38.9532C38.8884 37.3931 39.9133 35.7419 40.9268 33.9996C41.9289 32.2687 42.8513 30.5264 43.6826 28.8183C42.8513 27.1443 41.9403 25.4362 40.9268 23.6939C39.936 21.9744 38.8998 20.3346 37.8407 18.7631C35.939 18.615 33.9804 18.5467 31.9989 18.5467C30.0403 18.5467 28.0816 18.6264 26.1685 18.7745C25.0981 20.346 24.0504 21.9971 23.0711 23.7053C22.0917 25.402 21.1807 27.1329 20.3494 28.8638C21.1807 30.5834 22.0917 32.3143 23.0825 34.0224ZM41.3367 38.623C43.4434 38.3725 45.4476 38.0308 47.3038 37.6095C46.7344 35.8216 46.017 33.9313 45.1516 31.9727C44.5708 33.1 43.9445 34.2388 43.2954 35.3661C42.6463 36.4821 41.9972 37.5753 41.3367 38.623ZM47.1671 20.141C45.3224 19.7196 43.3637 19.378 41.3253 19.1161C41.9858 20.1524 42.6349 21.2228 43.2726 22.316C43.9217 23.4434 44.5366 24.5593 45.1174 25.6526C45.9259 23.7622 46.6205 21.906 47.1671 20.141ZM28.2296 15.9048C29.4709 15.8479 30.7235 15.8137 31.9875 15.8137C33.2743 15.8137 34.5383 15.8479 35.8024 15.9048C34.5611 14.2536 33.2971 12.7277 32.0331 11.3612C30.7463 12.7391 29.4709 14.265 28.2296 15.9048ZM15.6919 15.5062C15.8172 16.1553 15.9652 16.8044 16.136 17.4763C18.7894 16.8727 21.6704 16.4286 24.6881 16.1439C26.4418 13.6728 28.2752 11.4067 30.1314 9.4025C29.8125 9.09504 29.4937 8.79896 29.1748 8.52566C23.6177 3.60624 19.131 2.50164 17.2976 3.56069C16.3638 4.0959 15.6692 5.45102 15.3389 7.36413C14.9631 9.57332 15.077 12.3974 15.6919 15.5062ZM17.3317 28.8752C16.0677 26.1194 15.0087 23.3978 14.2116 20.7901C13.4486 21.0064 12.7198 21.2342 12.0138 21.4847C5.61394 23.7167 2.74428 26.7685 2.74428 28.8069C2.74428 30.925 5.83031 34.2615 12.5945 36.5732C13.107 36.744 13.6308 36.9148 14.1774 37.0743C14.9859 34.421 16.0449 31.6652 17.3317 28.8752ZM30.1997 48.3935C28.3207 46.3893 26.476 44.1004 24.7109 41.6065C21.5907 41.356 18.6982 40.9347 16.1019 40.3539C15.9197 41.0827 15.7716 41.7887 15.635 42.472C14.371 49.1337 15.5894 53.1421 17.3431 54.1556C19.1765 55.2147 23.6063 54.2126 28.9926 49.4981C29.3798 49.1565 29.7897 48.7807 30.1997 48.3935ZM35.8593 41.8001C34.5953 41.8571 33.2971 41.8912 31.9989 41.8912C30.7235 41.8912 29.4823 41.8684 28.2638 41.8229C29.5278 43.4855 30.8146 45.0228 32.1128 46.4235C33.354 45.0456 34.6181 43.5082 35.8593 41.8001ZM48.397 41.7887C48.2945 41.2763 48.1806 40.7638 48.044 40.2286C45.4021 40.8436 42.4869 41.2877 39.3894 41.561C37.6244 44.1232 35.8138 46.4121 34.0259 48.3707C34.5611 48.8946 35.1077 49.3842 35.6315 49.8397C40.7673 54.2581 44.8441 55.2147 46.6092 54.1898C48.4426 53.1421 49.7863 48.8035 48.397 41.7887ZM61.2536 28.7955C61.2536 27.7137 60.4337 26.4383 58.9419 25.1971C57.2224 23.7622 54.7171 22.4526 51.7222 21.4164C51.1072 21.2114 50.4695 21.0064 49.8204 20.8128C49.0347 23.3523 47.9871 26.0511 46.7003 28.8069C48.044 31.6424 49.1372 34.364 49.9343 36.9035C50.2987 36.7896 50.6631 36.6757 51.0161 36.5618C58.0423 34.2388 61.2536 30.9022 61.2536 28.7955Z" fill="white"/>
</g>
<defs>
<clipPath id="clip0_13_585">
<rect width="63.9753" height="56.925" fill="white" transform="translate(0 0.39624)"/>
</clipPath>
</defs>
</svg>
