<svg width="513" height="153" viewBox="0 0 513 153" fill="none" xmlns="http://www.w3.org/2000/svg">
<g clip-path="url(#clip0_2378_7580)">
<path d="M55.062 92.2496C55.062 95.6366 54.346 98.7846 52.914 101.693C51.4842 104.555 49.4304 107.061 46.904 109.025C44.317 111.057 41.253 112.611 37.711 113.727C34.169 114.842 30.269 115.4 26.05 115.4C20.996 115.4 16.459 114.723 12.479 113.329C8.49896 111.974 4.47896 109.662 0.459961 106.475L7.10596 95.6766C10.29 98.3466 13.156 100.299 15.742 101.534C18.289 102.77 20.916 103.367 23.622 103.367C26.926 103.367 29.552 102.53 31.582 100.817C33.612 99.1036 34.567 96.8326 34.567 93.9236C34.567 92.6886 34.367 91.5336 34.01 90.4576C33.651 89.3806 32.975 88.2656 32.02 87.1096C31.064 85.9946 29.711 84.7196 28 83.4046C25.8456 81.7121 23.6561 80.0648 21.433 78.4636C19.397 77.0209 17.3935 75.5329 15.424 74.0006C13.5256 72.4893 11.7429 70.838 10.091 69.0606C8.50287 67.3096 7.20027 65.3196 6.23096 63.1636C5.27596 61.0116 4.75796 58.5016 4.75796 55.7526C4.75796 52.5646 5.43496 49.6156 6.74796 46.9866C8.06096 44.3566 9.89196 42.1256 12.2 40.2526C14.509 38.3796 17.255 36.9456 20.518 35.9096C23.742 34.8736 27.244 34.3556 31.064 34.3556C35.084 34.3556 38.944 34.8736 42.685 35.9496C46.426 37.0246 49.889 38.5796 53.112 40.6506L47.102 50.3736C43.004 47.5036 38.666 46.0296 34.129 46.0296C31.383 46.0296 29.075 46.7476 27.284 48.1816C25.493 49.6156 24.577 51.4096 24.577 53.6006C24.577 55.6726 25.373 57.5456 26.965 59.1786C28.557 60.8526 31.303 63.1236 35.203 66.1516C39.143 69.0206 42.407 71.5716 44.953 73.7216C47.541 75.8736 49.571 77.9456 51.083 79.8586C52.595 81.7706 53.59 83.6836 54.187 85.6756C54.784 87.7076 55.062 89.8586 55.062 92.2496ZM123.316 74.0406C123.316 77.0296 122.997 80.2566 122.361 83.7236C121.763 87.1896 120.689 90.3776 119.177 93.3256C117.664 96.2746 115.714 98.7056 113.287 100.578C110.859 102.49 107.755 103.447 104.054 103.447C97.845 103.447 92.95 100.977 89.368 95.9956C85.786 91.0556 83.996 84.2416 83.996 75.5956C83.996 66.7096 85.786 59.6966 89.448 54.4776C93.069 49.2576 98.004 46.6676 104.213 46.6676C110.103 46.6676 114.759 49.1376 118.182 53.9986C121.605 58.8996 123.316 65.5936 123.316 74.0406ZM144.886 73.2836C144.886 67.5066 144.05 62.2466 142.419 57.5456C140.747 52.8036 138.439 48.7396 135.374 45.3126C132.31 41.8866 128.728 39.2566 124.549 37.3436C120.37 35.4316 115.754 34.4746 110.699 34.4746C105.128 34.4746 100.233 35.5506 96.014 37.6226C91.796 39.7346 87.856 43.0416 84.274 47.5836L84.154 36.3076H64.297V152.217H84.116V103.247C86.066 105.519 87.936 107.431 89.767 108.985C91.557 110.539 93.389 111.815 95.259 112.771C97.129 113.727 99.079 114.444 101.149 114.843C103.219 115.241 105.447 115.44 107.795 115.44C113.049 115.44 117.984 114.364 122.521 112.292C127.058 110.181 130.997 107.232 134.301 103.407C137.604 99.5816 140.191 95.1186 142.061 90.0586C143.971 84.9586 144.887 79.3406 144.887 73.2836H144.886ZM153.721 113.568H174.097V0.16861H153.721V113.568ZM261.016 113.608V36.2276H240.639V77.8656C240.639 81.5716 240.48 84.4406 240.162 86.4726C239.843 88.5046 239.326 90.2976 238.61 91.9716C235.744 98.3466 230.45 101.574 222.77 101.574C216.76 101.574 212.582 99.4216 210.194 95.0786C209.239 93.4456 208.602 91.5726 208.244 89.5006C207.886 87.4286 207.687 84.4406 207.687 80.4956V36.2286H187.31V80.1766C187.31 83.1656 187.35 85.7156 187.39 87.7476C187.43 89.7796 187.589 91.6526 187.788 93.2456C187.987 94.8396 188.226 96.2746 188.504 97.5096C188.744 98.734 189.132 99.9247 189.659 101.056C191.529 105.797 194.514 109.384 198.692 111.814C202.872 114.244 208.005 115.44 214.055 115.44C219.507 115.44 224.322 114.484 228.461 112.571C232.601 110.659 236.62 107.551 240.52 103.208L240.56 113.568L261.016 113.608ZM348.81 113.568V69.6976C348.81 66.7096 348.77 64.1596 348.73 62.0476C348.69 59.9356 348.571 58.1026 348.332 56.5496C348.155 55.1817 347.903 53.8247 347.576 52.4846C347.266 51.3151 346.907 50.1588 346.502 49.0186C344.631 44.3966 341.646 40.8106 337.467 38.2996C333.289 35.7896 328.154 34.5146 322.066 34.5146C316.613 34.5146 311.798 35.4716 307.659 37.3846C303.519 39.2966 299.5 42.4446 295.6 46.7476L295.56 36.3876H275.064V113.608H295.6V71.9286C295.6 68.3416 295.72 65.5136 295.998 63.5206C296.237 61.5286 296.754 59.6556 297.471 57.8626C298.784 54.7546 300.853 52.4446 303.6 50.8506C306.346 49.2566 309.609 48.4606 313.43 48.4606C319.44 48.4606 323.618 50.6106 326.005 54.9546C326.921 56.5876 327.558 58.4606 327.915 60.4926C328.274 62.5246 328.473 65.5526 328.473 69.4576V113.526L348.81 113.568ZM433.1 108.468L402.059 69.8576L428.285 41.7276L412.845 35.0726L385.543 66.7486H383.393V0.16861H362.858V113.568H383.394V72.4876L414.118 115.121L433.1 108.468ZM512.46 80.7336V68.1036L450.733 37.1036V51.0096L498.569 74.3196L450.733 97.9466V111.534L512.46 80.7336Z" fill="white"/>
</g>
<defs>
<clipPath id="clip0_2378_7580">
<rect width="512" height="152.048" fill="white" transform="translate(0.459961 0.16861)"/>
</clipPath>
</defs>
</svg>
