<svg width="48" height="48" viewBox="0 0 48 48" fill="none" xmlns="http://www.w3.org/2000/svg">
    <g clip-path="url(#clip0_3019_9526)">
        <path d="M2 6.9984C2 7.26319 2.10519 7.51714 2.29242 7.70438C2.47966 7.89161 2.73361 7.9968 2.9984 7.9968C3.26319 7.9968 3.51714 7.89161 3.70438 7.70438C3.89161 7.51714 3.9968 7.26319 3.9968 6.9984C3.9968 6.73361 3.89161 6.47966 3.70438 6.29242C3.51714 6.10519 3.26319 6 2.9984 6C2.73361 6 2.47966 6.10519 2.29242 6.29242C2.10519 6.47966 2 6.73361 2 6.9984ZM3.9968 6.9984C3.9968 7.26319 4.10679 7.51714 4.29402 7.70438C4.48126 7.89161 4.73521 7.9968 5 7.9968C5.26479 7.9968 5.51874 7.89161 5.70598 7.70438C5.89321 7.51714 5.9984 7.26319 5.9984 6.9984C5.9984 6.73361 5.89321 6.47966 5.70598 6.29242C5.51874 6.10519 5.26479 6 5 6C4.73521 6 4.48126 6.10519 4.29402 6.29242C4.10679 6.47966 3.9968 6.73361 3.9968 6.9984ZM5.9984 6.9984C5.9984 7.26319 6.10359 7.51714 6.29082 7.70438C6.47806 7.89161 6.73201 7.9968 6.9968 7.9968C7.26159 7.9968 7.51554 7.89161 7.70278 7.70438C7.89001 7.51714 7.9952 7.26319 7.9952 6.9984C7.9952 6.73361 7.89001 6.47966 7.70278 6.29242C7.51554 6.10519 7.26159 6 6.9968 6C6.73201 6 6.47806 6.10519 6.29082 6.29242C6.10359 6.47966 5.9984 6.73361 5.9984 6.9984ZM7.9952 6.9984C7.9952 7.26319 8.10519 7.51714 8.29242 7.70438C8.47966 7.89161 8.73361 7.9968 8.9984 7.9968C9.26319 7.9968 9.51714 7.89161 9.70438 7.70438C9.89161 7.51714 9.9968 7.26319 9.9968 6.9984C9.9968 6.73361 9.89161 6.47966 9.70438 6.29242C9.51714 6.10519 9.26319 6 8.9984 6C8.73361 6 8.47966 6.10519 8.29242 6.29242C8.10519 6.47966 7.9952 6.73361 7.9952 6.9984ZM9.9968 6.9984C9.9968 7.26319 10.1068 7.51714 10.294 7.70438C10.4813 7.89161 10.7352 7.9968 11 7.9968C11.2648 7.9968 11.5187 7.89161 11.706 7.70438C11.8932 7.51714 11.9984 7.26319 11.9984 6.9984C11.9984 6.73361 11.8932 6.47966 11.706 6.29242C11.5187 6.10519 11.2648 6 11 6C10.7352 6 10.4813 6.10519 10.294 6.29242C10.1068 6.47966 9.9968 6.73361 9.9968 6.9984ZM11.9984 6.9984C11.9984 7.12951 12.0242 7.25934 12.0744 7.38047C12.1246 7.5016 12.1981 7.61167 12.2908 7.70438C12.3835 7.79709 12.4936 7.87063 12.6147 7.9208C12.7359 7.97098 12.8657 7.9968 12.9968 7.9968C13.1279 7.9968 13.2577 7.97098 13.3789 7.9208C13.5 7.87063 13.6101 7.79709 13.7028 7.70438C13.7955 7.61167 13.869 7.5016 13.9192 7.38047C13.9694 7.25934 13.9952 7.12951 13.9952 6.9984C13.9952 6.73361 13.89 6.47966 13.7028 6.29242C13.5155 6.10519 13.2616 6 12.9968 6C12.732 6 12.4781 6.10519 12.2908 6.29242C12.1036 6.47966 11.9984 6.73361 11.9984 6.9984ZM38 6.9984C38 7.26319 38.1052 7.51714 38.2924 7.70438C38.4797 7.89161 38.7336 7.9968 38.9984 7.9968C39.2632 7.9968 39.5171 7.89161 39.7044 7.70438C39.8916 7.51714 39.9968 7.26319 39.9968 6.9984C39.9968 6.73361 39.8916 6.47966 39.7044 6.29242C39.5171 6.10519 39.2632 6 38.9984 6C38.7336 6 38.4797 6.10519 38.2924 6.29242C38.1052 6.47966 38 6.73361 38 6.9984ZM39.9968 6.9984C39.9968 7.12951 40.0274 7.25934 40.0776 7.38047C40.1278 7.5016 40.2013 7.61167 40.294 7.70438C40.3867 7.79709 40.4968 7.87063 40.6179 7.9208C40.7391 7.97098 40.8689 7.9968 41 7.9968C41.1311 7.9968 41.2609 7.97098 41.3821 7.9208C41.5032 7.87063 41.6133 7.79709 41.706 7.70438C41.7987 7.61167 41.8722 7.5016 41.9224 7.38047C41.9726 7.25934 41.9984 7.12951 41.9984 6.9984C41.9984 6.86729 41.9726 6.73746 41.9224 6.61633C41.8722 6.4952 41.7987 6.38513 41.706 6.29242C41.6133 6.19971 41.5032 6.12617 41.3821 6.076C41.2609 6.02582 41.1311 6 41 6C40.8689 6 40.7391 6.02582 40.6179 6.076C40.4968 6.12617 40.3867 6.19971 40.294 6.29242C40.2013 6.38513 40.1278 6.4952 40.0776 6.61633C40.0274 6.73746 39.9968 6.86729 39.9968 6.9984ZM41.9984 6.9984C41.9984 7.26319 42.1036 7.51714 42.2908 7.70438C42.4781 7.89161 42.732 7.9968 42.9968 7.9968C43.2616 7.9968 43.5155 7.89161 43.7028 7.70438C43.89 7.51714 43.9952 7.26319 43.9952 6.9984C43.9952 6.73361 43.89 6.47966 43.7028 6.29242C43.5155 6.10519 43.2616 6 42.9968 6C42.732 6 42.4781 6.10519 42.2908 6.29242C42.1036 6.47966 41.9984 6.73361 41.9984 6.9984ZM43.9952 6.9984C43.9952 7.26319 44.1052 7.51714 44.2924 7.70438C44.4797 7.89161 44.7336 7.9968 44.9984 7.9968C45.2632 7.9968 45.5171 7.89161 45.7044 7.70438C45.8916 7.51714 45.9968 7.26319 45.9968 6.9984C45.9968 6.73361 45.8916 6.47966 45.7044 6.29242C45.5171 6.10519 45.2632 6 44.9984 6C44.7336 6 44.4797 6.10519 44.2924 6.29242C44.1052 6.47966 43.9952 6.73361 43.9952 6.9984ZM2 9C2 9.26479 2.10519 9.51874 2.29242 9.70598C2.47966 9.89321 2.73361 9.9984 2.9984 9.9984C3.26319 9.9984 3.51714 9.89321 3.70438 9.70598C3.89161 9.51874 3.9968 9.26479 3.9968 9C3.9968 8.73521 3.89161 8.48126 3.70438 8.29402C3.51714 8.10679 3.26319 7.9968 2.9984 7.9968C2.73361 7.9968 2.47966 8.10679 2.29242 8.29402C2.10519 8.48126 2 8.73521 2 9ZM3.9968 9C3.9968 9.26479 4.10679 9.51874 4.29402 9.70598C4.48126 9.89321 4.73521 9.9984 5 9.9984C5.26479 9.9984 5.51874 9.89321 5.70598 9.70598C5.89321 9.51874 5.9984 9.26479 5.9984 9C5.9984 8.73521 5.89321 8.48126 5.70598 8.29402C5.51874 8.10679 5.26479 7.9968 5 7.9968C4.73521 7.9968 4.48126 8.10679 4.29402 8.29402C4.10679 8.48126 3.9968 8.73521 3.9968 9ZM5.9984 9C5.9984 9.26479 6.10359 9.51874 6.29082 9.70598C6.47806 9.89321 6.73201 9.9984 6.9968 9.9984C7.26159 9.9984 7.51554 9.89321 7.70278 9.70598C7.89001 9.51874 7.9952 9.26479 7.9952 9C7.9952 8.73521 7.89001 8.48126 7.70278 8.29402C7.51554 8.10679 7.26159 7.9968 6.9968 7.9968C6.73201 7.9968 6.47806 8.10679 6.29082 8.29402C6.10359 8.48126 5.9984 8.73521 5.9984 9ZM7.9952 9C7.9952 9.26479 8.10519 9.51874 8.29242 9.70598C8.47966 9.89321 8.73361 9.9984 8.9984 9.9984C9.26319 9.9984 9.51714 9.89321 9.70438 9.70598C9.89161 9.51874 9.9968 9.26479 9.9968 9C9.9968 8.73521 9.89161 8.48126 9.70438 8.29402C9.51714 8.10679 9.26319 7.9968 8.9984 7.9968C8.73361 7.9968 8.47966 8.10679 8.29242 8.29402C8.10519 8.48126 7.9952 8.73521 7.9952 9ZM9.9968 9C9.9968 9.26479 10.1068 9.51874 10.294 9.70598C10.4813 9.89321 10.7352 9.9984 11 9.9984C11.2648 9.9984 11.5187 9.89321 11.706 9.70598C11.8932 9.51874 11.9984 9.26479 11.9984 9C11.9984 8.73521 11.8932 8.48126 11.706 8.29402C11.5187 8.10679 11.2648 7.9968 11 7.9968C10.7352 7.9968 10.4813 8.10679 10.294 8.29402C10.1068 8.48126 9.9968 8.73521 9.9968 9ZM11.9984 9C11.9984 9.13111 12.0242 9.26094 12.0744 9.38207C12.1246 9.5032 12.1981 9.61327 12.2908 9.70598C12.3835 9.79869 12.4936 9.87223 12.6147 9.9224C12.7359 9.97258 12.8657 9.9984 12.9968 9.9984C13.1279 9.9984 13.2577 9.97258 13.3789 9.9224C13.5 9.87223 13.6101 9.79869 13.7028 9.70598C13.7955 9.61327 13.869 9.5032 13.9192 9.38207C13.9694 9.26094 13.9952 9.13111 13.9952 9C13.9952 8.73521 13.89 8.48126 13.7028 8.29402C13.5155 8.10679 13.2616 7.9968 12.9968 7.9968C12.732 7.9968 12.4781 8.10679 12.2908 8.29402C12.1036 8.48126 11.9984 8.73521 11.9984 9ZM13.9952 9C13.9952 9.26479 14.1052 9.51874 14.2924 9.70598C14.4797 9.89321 14.7336 9.9984 14.9984 9.9984C15.2632 9.9984 15.5171 9.89321 15.7044 9.70598C15.8916 9.51874 15.9968 9.26479 15.9968 9C15.9968 8.86889 15.971 8.73906 15.9208 8.61793C15.8706 8.4968 15.7971 8.38673 15.7044 8.29402C15.6117 8.20131 15.5016 8.12777 15.3805 8.0776C15.2593 8.02742 15.1295 8.0016 14.9984 8.0016C14.8673 8.0016 14.7375 8.02742 14.6163 8.0776C14.4952 8.12777 14.3851 8.20131 14.2924 8.29402C14.1997 8.38673 14.1262 8.4968 14.076 8.61793C14.0258 8.73906 13.9952 8.86889 13.9952 9ZM34.0016 9C34.0016 9.26479 34.1068 9.51874 34.294 9.70598C34.4813 9.89321 34.7352 9.9984 35 9.9984C35.2648 9.9984 35.5187 9.89321 35.706 9.70598C35.8932 9.51874 35.9984 9.26479 35.9984 9C35.9984 8.73521 35.8932 8.48126 35.706 8.29402C35.5187 8.10679 35.2648 8.0016 35 8.0016C34.7352 8.0016 34.4813 8.10679 34.294 8.29402C34.1068 8.48126 34.0016 8.73521 34.0016 9ZM35.9984 9C35.9984 9.26479 36.1036 9.51874 36.2908 9.70598C36.4781 9.89321 36.732 9.9984 36.9968 9.9984C37.2616 9.9984 37.5155 9.89321 37.7028 9.70598C37.89 9.51874 37.9952 9.26479 37.9952 9C37.9952 8.73521 37.89 8.48126 37.7028 8.29402C37.5155 8.10679 37.2616 8.0016 36.9968 8.0016C36.732 8.0016 36.4781 8.10679 36.2908 8.29402C36.1036 8.48126 35.9984 8.73521 35.9984 9ZM37.9952 9C37.9952 9.26479 38.1052 9.51874 38.2924 9.70598C38.4797 9.89321 38.7336 9.9984 38.9984 9.9984C39.2632 9.9984 39.5171 9.89321 39.7044 9.70598C39.8916 9.51874 39.9968 9.26479 39.9968 9C39.9968 8.73521 39.8916 8.48126 39.7044 8.29402C39.5171 8.10679 39.2632 7.9968 38.9984 7.9968C38.7336 7.9968 38.4797 8.10679 38.2924 8.29402C38.1052 8.48126 37.9952 8.73521 37.9952 9ZM39.9968 9C39.9968 9.13111 40.0274 9.26094 40.0776 9.38207C40.1278 9.5032 40.2013 9.61327 40.294 9.70598C40.3867 9.79869 40.4968 9.87223 40.6179 9.9224C40.7391 9.97258 40.8689 9.9984 41 9.9984C41.1311 9.9984 41.2609 9.97258 41.3821 9.9224C41.5032 9.87223 41.6133 9.79869 41.706 9.70598C41.7987 9.61327 41.8722 9.5032 41.9224 9.38207C41.9726 9.26094 41.9984 9.13111 41.9984 9C41.9984 8.86889 41.9726 8.73906 41.9224 8.61793C41.8722 8.4968 41.7987 8.38673 41.706 8.29402C41.6133 8.20131 41.5032 8.12777 41.3821 8.0776C41.2609 8.02742 41.1311 7.9968 41 7.9968C40.8689 7.9968 40.7391 8.02742 40.6179 8.0776C40.4968 8.12777 40.3867 8.20131 40.294 8.29402C40.2013 8.38673 40.1278 8.4968 40.0776 8.61793C40.0274 8.73906 39.9968 8.86889 39.9968 9ZM41.9984 9C41.9984 9.26479 42.1036 9.51874 42.2908 9.70598C42.4781 9.89321 42.732 9.9984 42.9968 9.9984C43.2616 9.9984 43.5155 9.89321 43.7028 9.70598C43.89 9.51874 43.9952 9.26479 43.9952 9C43.9952 8.73521 43.89 8.48126 43.7028 8.29402C43.5155 8.10679 43.2616 7.9968 42.9968 7.9968C42.732 7.9968 42.4781 8.10679 42.2908 8.29402C42.1036 8.48126 41.9984 8.73521 41.9984 9ZM43.9952 9C43.9952 9.26479 44.1052 9.51874 44.2924 9.70598C44.4797 9.89321 44.7336 9.9984 44.9984 9.9984C45.2632 9.9984 45.5171 9.89321 45.7044 9.70598C45.8916 9.51874 45.9968 9.26479 45.9968 9C45.9968 8.73521 45.8916 8.48126 45.7044 8.29402C45.5171 8.10679 45.2632 7.9968 44.9984 7.9968C44.7336 7.9968 44.4797 8.10679 44.2924 8.29402C44.1052 8.48126 43.9952 8.73521 43.9952 9ZM4.0016 11.0016C4.0016 11.2664 4.10679 11.5203 4.29402 11.7076C4.48126 11.8948 4.73521 12 5 12C5.26479 12 5.51874 11.8948 5.70598 11.7076C5.89321 11.5203 5.9984 11.2664 5.9984 11.0016C5.9984 10.7368 5.89321 10.4829 5.70598 10.2956C5.51874 10.1084 5.26479 9.9984 5 9.9984C4.73521 9.9984 4.48126 10.1084 4.29402 10.2956C4.10679 10.4829 4.0016 10.7368 4.0016 11.0016ZM5.9984 11.0016C5.9984 11.2664 6.10359 11.5203 6.29082 11.7076C6.47806 11.8948 6.73201 12 6.9968 12C7.26159 12 7.51554 11.8948 7.70278 11.7076C7.89001 11.5203 7.9952 11.2664 7.9952 11.0016C7.9952 10.7368 7.89001 10.4829 7.70278 10.2956C7.51554 10.1084 7.26159 9.9984 6.9968 9.9984C6.73201 9.9984 6.47806 10.1084 6.29082 10.2956C6.10359 10.4829 5.9984 10.7368 5.9984 11.0016ZM7.9952 11.0016C7.9952 11.2664 8.10519 11.5203 8.29242 11.7076C8.47966 11.8948 8.73361 12 8.9984 12C9.26319 12 9.51714 11.8948 9.70438 11.7076C9.89161 11.5203 9.9968 11.2664 9.9968 11.0016C9.9968 10.7368 9.89161 10.4829 9.70438 10.2956C9.51714 10.1084 9.26319 9.9984 8.9984 9.9984C8.73361 9.9984 8.47966 10.1084 8.29242 10.2956C8.10519 10.4829 7.9952 10.7368 7.9952 11.0016ZM9.9968 11.0016C9.9968 11.2664 10.1068 11.5203 10.294 11.7076C10.4813 11.8948 10.7352 12 11 12C11.2648 12 11.5187 11.8948 11.706 11.7076C11.8932 11.5203 11.9984 11.2664 11.9984 11.0016C11.9984 10.7368 11.8932 10.4829 11.706 10.2956C11.5187 10.1084 11.2648 9.9984 11 9.9984C10.7352 9.9984 10.4813 10.1084 10.294 10.2956C10.1068 10.4829 9.9968 10.7368 9.9968 11.0016ZM11.9984 11.0016C11.9984 11.1327 12.0242 11.2625 12.0744 11.3837C12.1246 11.5048 12.1981 11.6149 12.2908 11.7076C12.3835 11.8003 12.4936 11.8738 12.6147 11.924C12.7359 11.9742 12.8657 12 12.9968 12C13.1279 12 13.2577 11.9742 13.3789 11.924C13.5 11.8738 13.6101 11.8003 13.7028 11.7076C13.7955 11.6149 13.869 11.5048 13.9192 11.3837C13.9694 11.2625 13.9952 11.1327 13.9952 11.0016C13.9952 10.7368 13.89 10.4829 13.7028 10.2956C13.5155 10.1084 13.2616 9.9984 12.9968 9.9984C12.732 9.9984 12.4781 10.1084 12.2908 10.2956C12.1036 10.4829 11.9984 10.7368 11.9984 11.0016ZM13.9952 11.0016C13.9952 11.2664 14.1052 11.5203 14.2924 11.7076C14.4797 11.8948 14.7336 12 14.9984 12C15.2632 12 15.5171 11.8948 15.7044 11.7076C15.8916 11.5203 15.9968 11.2664 15.9968 11.0016C15.9968 10.8705 15.971 10.7407 15.9208 10.6195C15.8706 10.4984 15.7971 10.3883 15.7044 10.2956C15.6117 10.2029 15.5016 10.1294 15.3805 10.0792C15.2593 10.029 15.1295 9.9984 14.9984 9.9984C14.8673 9.9984 14.7375 10.029 14.6163 10.0792C14.4952 10.1294 14.3851 10.2029 14.2924 10.2956C14.1997 10.3883 14.1262 10.4984 14.076 10.6195C14.0258 10.7407 13.9952 10.8705 13.9952 11.0016ZM34.0016 11.0016C34.0016 11.2664 34.1068 11.5203 34.294 11.7076C34.4813 11.8948 34.7352 12 35 12C35.2648 12 35.5187 11.8948 35.706 11.7076C35.8932 11.5203 35.9984 11.2664 35.9984 11.0016C35.9984 10.7368 35.8932 10.4829 35.706 10.2956C35.5187 10.1084 35.2648 9.9984 35 9.9984C34.7352 9.9984 34.4813 10.1084 34.294 10.2956C34.1068 10.4829 34.0016 10.7368 34.0016 11.0016ZM35.9984 11.0016C35.9984 11.2664 36.1036 11.5203 36.2908 11.7076C36.4781 11.8948 36.732 12 36.9968 12C37.2616 12 37.5155 11.8948 37.7028 11.7076C37.89 11.5203 37.9952 11.2664 37.9952 11.0016C37.9952 10.7368 37.89 10.4829 37.7028 10.2956C37.5155 10.1084 37.2616 9.9984 36.9968 9.9984C36.732 9.9984 36.4781 10.1084 36.2908 10.2956C36.1036 10.4829 35.9984 10.7368 35.9984 11.0016ZM37.9952 11.0016C37.9952 11.2664 38.1052 11.5203 38.2924 11.7076C38.4797 11.8948 38.7336 12 38.9984 12C39.2632 12 39.5171 11.8948 39.7044 11.7076C39.8916 11.5203 39.9968 11.2664 39.9968 11.0016C39.9968 10.7368 39.8916 10.4829 39.7044 10.2956C39.5171 10.1084 39.2632 9.9984 38.9984 9.9984C38.7336 9.9984 38.4797 10.1084 38.2924 10.2956C38.1052 10.4829 37.9952 10.7368 37.9952 11.0016ZM39.9968 11.0016C39.9968 11.1327 40.0274 11.2625 40.0776 11.3837C40.1278 11.5048 40.2013 11.6149 40.294 11.7076C40.3867 11.8003 40.4968 11.8738 40.6179 11.924C40.7391 11.9742 40.8689 12 41 12C41.1311 12 41.2609 11.9742 41.3821 11.924C41.5032 11.8738 41.6133 11.8003 41.706 11.7076C41.7987 11.6149 41.8722 11.5048 41.9224 11.3837C41.9726 11.2625 41.9984 11.1327 41.9984 11.0016C41.9984 10.8705 41.9726 10.7407 41.9224 10.6195C41.8722 10.4984 41.7987 10.3883 41.706 10.2956C41.6133 10.2029 41.5032 10.1294 41.3821 10.0792C41.2609 10.029 41.1311 9.9984 41 9.9984C40.8689 9.9984 40.7391 10.029 40.6179 10.0792C40.4968 10.1294 40.3867 10.2029 40.294 10.2956C40.2013 10.3883 40.1278 10.4984 40.0776 10.6195C40.0274 10.7407 39.9968 10.8705 39.9968 11.0016ZM41.9984 11.0016C41.9984 11.2664 42.1036 11.5203 42.2908 11.7076C42.4781 11.8948 42.732 12 42.9968 12C43.2616 12 43.5155 11.8948 43.7028 11.7076C43.89 11.5203 43.9952 11.2664 43.9952 11.0016C43.9952 10.7368 43.89 10.4829 43.7028 10.2956C43.5155 10.1084 43.2616 9.9984 42.9968 9.9984C42.732 9.9984 42.4781 10.1084 42.2908 10.2956C42.1036 10.4829 41.9984 10.7368 41.9984 11.0016ZM4.0016 12.9984C4.0016 13.2632 4.10679 13.5171 4.29402 13.7044C4.48126 13.8916 4.73521 13.9968 5 13.9968C5.26479 13.9968 5.51874 13.8916 5.70598 13.7044C5.89321 13.5171 5.9984 13.2632 5.9984 12.9984C5.9984 12.7336 5.89321 12.4797 5.70598 12.2924C5.51874 12.1052 5.26479 12 5 12C4.73521 12 4.48126 12.1052 4.29402 12.2924C4.10679 12.4797 4.0016 12.7336 4.0016 12.9984ZM5.9984 12.9984C5.9984 13.2632 6.10359 13.5171 6.29082 13.7044C6.47806 13.8916 6.73201 13.9968 6.9968 13.9968C7.26159 13.9968 7.51554 13.8916 7.70278 13.7044C7.89001 13.5171 7.9952 13.2632 7.9952 12.9984C7.9952 12.7336 7.89001 12.4797 7.70278 12.2924C7.51554 12.1052 7.26159 12 6.9968 12C6.73201 12 6.47806 12.1052 6.29082 12.2924C6.10359 12.4797 5.9984 12.7336 5.9984 12.9984ZM7.9952 12.9984C7.9952 13.2632 8.10519 13.5171 8.29242 13.7044C8.47966 13.8916 8.73361 13.9968 8.9984 13.9968C9.26319 13.9968 9.51714 13.8916 9.70438 13.7044C9.89161 13.5171 9.9968 13.2632 9.9968 12.9984C9.9968 12.7336 9.89161 12.4797 9.70438 12.2924C9.51714 12.1052 9.26319 12 8.9984 12C8.73361 12 8.47966 12.1052 8.29242 12.2924C8.10519 12.4797 7.9952 12.7336 7.9952 12.9984ZM9.9968 12.9984C9.9968 13.2632 10.1068 13.5171 10.294 13.7044C10.4813 13.8916 10.7352 13.9968 11 13.9968C11.2648 13.9968 11.5187 13.8916 11.706 13.7044C11.8932 13.5171 11.9984 13.2632 11.9984 12.9984C11.9984 12.7336 11.8932 12.4797 11.706 12.2924C11.5187 12.1052 11.2648 12 11 12C10.7352 12 10.4813 12.1052 10.294 12.2924C10.1068 12.4797 9.9968 12.7336 9.9968 12.9984ZM11.9984 12.9984C11.9984 13.1295 12.0242 13.2593 12.0744 13.3805C12.1246 13.5016 12.1981 13.6117 12.2908 13.7044C12.3835 13.7971 12.4936 13.8706 12.6147 13.9208C12.7359 13.971 12.8657 13.9968 12.9968 13.9968C13.1279 13.9968 13.2577 13.971 13.3789 13.9208C13.5 13.8706 13.6101 13.7971 13.7028 13.7044C13.7955 13.6117 13.869 13.5016 13.9192 13.3805C13.9694 13.2593 13.9952 13.1295 13.9952 12.9984C13.9952 12.7336 13.89 12.4797 13.7028 12.2924C13.5155 12.1052 13.2616 12 12.9968 12C12.732 12 12.4781 12.1052 12.2908 12.2924C12.1036 12.4797 11.9984 12.7336 11.9984 12.9984ZM13.9952 12.9984C13.9952 13.2632 14.1052 13.5171 14.2924 13.7044C14.4797 13.8916 14.7336 13.9968 14.9984 13.9968C15.2632 13.9968 15.5171 13.8916 15.7044 13.7044C15.8916 13.5171 15.9968 13.2632 15.9968 12.9984C15.9968 12.8673 15.971 12.7375 15.9208 12.6163C15.8706 12.4952 15.7971 12.3851 15.7044 12.2924C15.6117 12.1997 15.5016 12.1262 15.3805 12.076C15.2593 12.0258 15.1295 12 14.9984 12C14.8673 12 14.7375 12.0258 14.6163 12.076C14.4952 12.1262 14.3851 12.1997 14.2924 12.2924C14.1997 12.3851 14.1262 12.4952 14.076 12.6163C14.0258 12.7375 13.9952 12.8673 13.9952 12.9984ZM38 12.9984C38 13.2632 38.1052 13.5171 38.2924 13.7044C38.4797 13.8916 38.7336 13.9968 38.9984 13.9968C39.2632 13.9968 39.5171 13.8916 39.7044 13.7044C39.8916 13.5171 39.9968 13.2632 39.9968 12.9984C39.9968 12.7336 39.8916 12.4797 39.7044 12.2924C39.5171 12.1052 39.2632 12 38.9984 12C38.7336 12 38.4797 12.1052 38.2924 12.2924C38.1052 12.4797 38 12.7336 38 12.9984ZM39.9968 12.9984C39.9968 13.1295 40.0274 13.2593 40.0776 13.3805C40.1278 13.5016 40.2013 13.6117 40.294 13.7044C40.3867 13.7971 40.4968 13.8706 40.6179 13.9208C40.7391 13.971 40.8689 13.9968 41 13.9968C41.1311 13.9968 41.2609 13.971 41.3821 13.9208C41.5032 13.8706 41.6133 13.7971 41.706 13.7044C41.7987 13.6117 41.8722 13.5016 41.9224 13.3805C41.9726 13.2593 41.9984 13.1295 41.9984 12.9984C41.9984 12.8673 41.9726 12.7375 41.9224 12.6163C41.8722 12.4952 41.7987 12.3851 41.706 12.2924C41.6133 12.1997 41.5032 12.1262 41.3821 12.076C41.2609 12.0258 41.1311 12 41 12C40.8689 12 40.7391 12.0258 40.6179 12.076C40.4968 12.1262 40.3867 12.1997 40.294 12.2924C40.2013 12.3851 40.1278 12.4952 40.0776 12.6163C40.0274 12.7375 39.9968 12.8673 39.9968 12.9984ZM41.9984 12.9984C41.9984 13.2632 42.1036 13.5171 42.2908 13.7044C42.4781 13.8916 42.732 13.9968 42.9968 13.9968C43.2616 13.9968 43.5155 13.8916 43.7028 13.7044C43.89 13.5171 43.9952 13.2632 43.9952 12.9984C43.9952 12.7336 43.89 12.4797 43.7028 12.2924C43.5155 12.1052 43.2616 12 42.9968 12C42.732 12 42.4781 12.1052 42.2908 12.2924C42.1036 12.4797 41.9984 12.7336 41.9984 12.9984ZM5.9984 15C5.9984 15.2648 6.10359 15.5187 6.29082 15.706C6.47806 15.8932 6.73201 15.9984 6.9968 15.9984C7.26159 15.9984 7.51554 15.8932 7.70278 15.706C7.89001 15.5187 7.9952 15.2648 7.9952 15C7.9952 14.7352 7.89001 14.4813 7.70278 14.294C7.51554 14.1068 7.26159 13.9968 6.9968 13.9968C6.73201 13.9968 6.47806 14.1068 6.29082 14.294C6.10359 14.4813 5.9984 14.7352 5.9984 15ZM7.9952 15C7.9952 15.2648 8.10519 15.5187 8.29242 15.706C8.47966 15.8932 8.73361 15.9984 8.9984 15.9984C9.26319 15.9984 9.51714 15.8932 9.70438 15.706C9.89161 15.5187 9.9968 15.2648 9.9968 15C9.9968 14.7352 9.89161 14.4813 9.70438 14.294C9.51714 14.1068 9.26319 13.9968 8.9984 13.9968C8.73361 13.9968 8.47966 14.1068 8.29242 14.294C8.10519 14.4813 7.9952 14.7352 7.9952 15ZM9.9968 15C9.9968 15.2648 10.1068 15.5187 10.294 15.706C10.4813 15.8932 10.7352 15.9984 11 15.9984C11.2648 15.9984 11.5187 15.8932 11.706 15.706C11.8932 15.5187 11.9984 15.2648 11.9984 15C11.9984 14.7352 11.8932 14.4813 11.706 14.294C11.5187 14.1068 11.2648 13.9968 11 13.9968C10.7352 13.9968 10.4813 14.1068 10.294 14.294C10.1068 14.4813 9.9968 14.7352 9.9968 15ZM11.9984 15C11.9984 15.1311 12.0242 15.2609 12.0744 15.3821C12.1246 15.5032 12.1981 15.6133 12.2908 15.706C12.3835 15.7987 12.4936 15.8722 12.6147 15.9224C12.7359 15.9726 12.8657 15.9984 12.9968 15.9984C13.1279 15.9984 13.2577 15.9726 13.3789 15.9224C13.5 15.8722 13.6101 15.7987 13.7028 15.706C13.7955 15.6133 13.869 15.5032 13.9192 15.3821C13.9694 15.2609 13.9952 15.1311 13.9952 15C13.9952 14.7352 13.89 14.4813 13.7028 14.294C13.5155 14.1068 13.2616 13.9968 12.9968 13.9968C12.732 13.9968 12.4781 14.1068 12.2908 14.294C12.1036 14.4813 11.9984 14.7352 11.9984 15ZM13.9952 15C13.9952 15.2648 14.1052 15.5187 14.2924 15.706C14.4797 15.8932 14.7336 15.9984 14.9984 15.9984C15.2632 15.9984 15.5171 15.8932 15.7044 15.706C15.8916 15.5187 15.9968 15.2648 15.9968 15C15.9968 14.8689 15.971 14.7391 15.9208 14.6179C15.8706 14.4968 15.7971 14.3867 15.7044 14.294C15.6117 14.2013 15.5016 14.1278 15.3805 14.0776C15.2593 14.0274 15.1295 13.9968 14.9984 13.9968C14.8673 13.9968 14.7375 14.0274 14.6163 14.0776C14.4952 14.1278 14.3851 14.2013 14.2924 14.294C14.1997 14.3867 14.1262 14.4968 14.076 14.6179C14.0258 14.7391 13.9952 14.8689 13.9952 15ZM35.9984 15C35.9984 15.2648 36.1036 15.5187 36.2908 15.706C36.4781 15.8932 36.732 15.9984 36.9968 15.9984C37.2616 15.9984 37.5155 15.8932 37.7028 15.706C37.89 15.5187 37.9952 15.2648 37.9952 15C37.9952 14.7352 37.89 14.4813 37.7028 14.294C37.5155 14.1068 37.2616 14.0016 36.9968 14.0016C36.732 14.0016 36.4781 14.1068 36.2908 14.294C36.1036 14.4813 35.9984 14.7352 35.9984 15ZM37.9952 15C37.9952 15.2648 38.1052 15.5187 38.2924 15.706C38.4797 15.8932 38.7336 15.9984 38.9984 15.9984C39.2632 15.9984 39.5171 15.8932 39.7044 15.706C39.8916 15.5187 39.9968 15.2648 39.9968 15C39.9968 14.7352 39.8916 14.4813 39.7044 14.294C39.5171 14.1068 39.2632 13.9968 38.9984 13.9968C38.7336 13.9968 38.4797 14.1068 38.2924 14.294C38.1052 14.4813 37.9952 14.7352 37.9952 15ZM39.9968 15C39.9968 15.1311 40.0274 15.2609 40.0776 15.3821C40.1278 15.5032 40.2013 15.6133 40.294 15.706C40.3867 15.7987 40.4968 15.8722 40.6179 15.9224C40.7391 15.9726 40.8689 15.9984 41 15.9984C41.1311 15.9984 41.2609 15.9726 41.3821 15.9224C41.5032 15.8722 41.6133 15.7987 41.706 15.706C41.7987 15.6133 41.8722 15.5032 41.9224 15.3821C41.9726 15.2609 41.9984 15.1311 41.9984 15C41.9984 14.8689 41.9726 14.7391 41.9224 14.6179C41.8722 14.4968 41.7987 14.3867 41.706 14.294C41.6133 14.2013 41.5032 14.1278 41.3821 14.0776C41.2609 14.0274 41.1311 13.9968 41 13.9968C40.8689 13.9968 40.7391 14.0274 40.6179 14.0776C40.4968 14.1278 40.3867 14.2013 40.294 14.294C40.2013 14.3867 40.1278 14.4968 40.0776 14.6179C40.0274 14.7391 39.9968 14.8689 39.9968 15ZM5.9984 17.0016C5.9984 17.2664 6.10359 17.5203 6.29082 17.7076C6.47806 17.8948 6.73201 18 6.9968 18C7.26159 18 7.51554 17.8948 7.70278 17.7076C7.89001 17.5203 7.9952 17.2664 7.9952 17.0016C7.9952 16.7368 7.89001 16.4829 7.70278 16.2956C7.51554 16.1084 7.26159 15.9984 6.9968 15.9984C6.73201 15.9984 6.47806 16.1084 6.29082 16.2956C6.10359 16.4829 5.9984 16.7368 5.9984 17.0016ZM7.9952 17.0016C7.9952 17.2664 8.10519 17.5203 8.29242 17.7076C8.47966 17.8948 8.73361 18 8.9984 18C9.26319 18 9.51714 17.8948 9.70438 17.7076C9.89161 17.5203 9.9968 17.2664 9.9968 17.0016C9.9968 16.7368 9.89161 16.4829 9.70438 16.2956C9.51714 16.1084 9.26319 15.9984 8.9984 15.9984C8.73361 15.9984 8.47966 16.1084 8.29242 16.2956C8.10519 16.4829 7.9952 16.7368 7.9952 17.0016ZM9.9968 17.0016C9.9968 17.2664 10.1068 17.5203 10.294 17.7076C10.4813 17.8948 10.7352 18 11 18C11.2648 18 11.5187 17.8948 11.706 17.7076C11.8932 17.5203 11.9984 17.2664 11.9984 17.0016C11.9984 16.7368 11.8932 16.4829 11.706 16.2956C11.5187 16.1084 11.2648 15.9984 11 15.9984C10.7352 15.9984 10.4813 16.1084 10.294 16.2956C10.1068 16.4829 9.9968 16.7368 9.9968 17.0016ZM11.9984 17.0016C11.9984 17.1327 12.0242 17.2625 12.0744 17.3837C12.1246 17.5048 12.1981 17.6149 12.2908 17.7076C12.3835 17.8003 12.4936 17.8738 12.6147 17.924C12.7359 17.9742 12.8657 18 12.9968 18C13.1279 18 13.2577 17.9742 13.3789 17.924C13.5 17.8738 13.6101 17.8003 13.7028 17.7076C13.7955 17.6149 13.869 17.5048 13.9192 17.3837C13.9694 17.2625 13.9952 17.1327 13.9952 17.0016C13.9952 16.7368 13.89 16.4829 13.7028 16.2956C13.5155 16.1084 13.2616 15.9984 12.9968 15.9984C12.732 15.9984 12.4781 16.1084 12.2908 16.2956C12.1036 16.4829 11.9984 16.7368 11.9984 17.0016ZM13.9952 17.0016C13.9952 17.2664 14.1052 17.5203 14.2924 17.7076C14.4797 17.8948 14.7336 18 14.9984 18C15.2632 18 15.5171 17.8948 15.7044 17.7076C15.8916 17.5203 15.9968 17.2664 15.9968 17.0016C15.9968 16.8705 15.971 16.7407 15.9208 16.6195C15.8706 16.4984 15.7971 16.3883 15.7044 16.2956C15.6117 16.2029 15.5016 16.1294 15.3805 16.0792C15.2593 16.029 15.1295 15.9984 14.9984 15.9984C14.8673 15.9984 14.7375 16.029 14.6163 16.0792C14.4952 16.1294 14.3851 16.2029 14.2924 16.2956C14.1997 16.3883 14.1262 16.4984 14.076 16.6195C14.0258 16.7407 13.9952 16.8705 13.9952 17.0016ZM35.9984 17.0016C35.9984 17.2664 36.1036 17.5203 36.2908 17.7076C36.4781 17.8948 36.732 18 36.9968 18C37.2616 18 37.5155 17.8948 37.7028 17.7076C37.89 17.5203 37.9952 17.2664 37.9952 17.0016C37.9952 16.7368 37.89 16.4829 37.7028 16.2956C37.5155 16.1084 37.2616 15.9984 36.9968 15.9984C36.732 15.9984 36.4781 16.1084 36.2908 16.2956C36.1036 16.4829 35.9984 16.7368 35.9984 17.0016ZM37.9952 17.0016C37.9952 17.2664 38.1052 17.5203 38.2924 17.7076C38.4797 17.8948 38.7336 18 38.9984 18C39.2632 18 39.5171 17.8948 39.7044 17.7076C39.8916 17.5203 39.9968 17.2664 39.9968 17.0016C39.9968 16.7368 39.8916 16.4829 39.7044 16.2956C39.5171 16.1084 39.2632 15.9984 38.9984 15.9984C38.7336 15.9984 38.4797 16.1084 38.2924 16.2956C38.1052 16.4829 37.9952 16.7368 37.9952 17.0016ZM39.9968 17.0016C39.9968 17.1327 40.0274 17.2625 40.0776 17.3837C40.1278 17.5048 40.2013 17.6149 40.294 17.7076C40.3867 17.8003 40.4968 17.8738 40.6179 17.924C40.7391 17.9742 40.8689 18 41 18C41.1311 18 41.2609 17.9742 41.3821 17.924C41.5032 17.8738 41.6133 17.8003 41.706 17.7076C41.7987 17.6149 41.8722 17.5048 41.9224 17.3837C41.9726 17.2625 41.9984 17.1327 41.9984 17.0016C41.9984 16.8705 41.9726 16.7407 41.9224 16.6195C41.8722 16.4984 41.7987 16.3883 41.706 16.2956C41.6133 16.2029 41.5032 16.1294 41.3821 16.0792C41.2609 16.029 41.1311 15.9984 41 15.9984C40.8689 15.9984 40.7391 16.029 40.6179 16.0792C40.4968 16.1294 40.3867 16.2029 40.294 16.2956C40.2013 16.3883 40.1278 16.4984 40.0776 16.6195C40.0274 16.7407 39.9968 16.8705 39.9968 17.0016ZM8 18.9984C8 19.2632 8.10519 19.5171 8.29242 19.7044C8.47966 19.8916 8.73361 19.9968 8.9984 19.9968C9.26319 19.9968 9.51714 19.8916 9.70438 19.7044C9.89161 19.5171 9.9968 19.2632 9.9968 18.9984C9.9968 18.7336 9.89161 18.4797 9.70438 18.2924C9.51714 18.1052 9.26319 18 8.9984 18C8.73361 18 8.47966 18.1052 8.29242 18.2924C8.10519 18.4797 8 18.7336 8 18.9984ZM9.9968 18.9984C9.9968 19.2632 10.1068 19.5171 10.294 19.7044C10.4813 19.8916 10.7352 19.9968 11 19.9968C11.2648 19.9968 11.5187 19.8916 11.706 19.7044C11.8932 19.5171 11.9984 19.2632 11.9984 18.9984C11.9984 18.7336 11.8932 18.4797 11.706 18.2924C11.5187 18.1052 11.2648 18 11 18C10.7352 18 10.4813 18.1052 10.294 18.2924C10.1068 18.4797 9.9968 18.7336 9.9968 18.9984ZM11.9984 18.9984C11.9984 19.1295 12.0242 19.2593 12.0744 19.3805C12.1246 19.5016 12.1981 19.6117 12.2908 19.7044C12.3835 19.7971 12.4936 19.8706 12.6147 19.9208C12.7359 19.971 12.8657 19.9968 12.9968 19.9968C13.1279 19.9968 13.2577 19.971 13.3789 19.9208C13.5 19.8706 13.6101 19.7971 13.7028 19.7044C13.7955 19.6117 13.869 19.5016 13.9192 19.3805C13.9694 19.2593 13.9952 19.1295 13.9952 18.9984C13.9952 18.7336 13.89 18.4797 13.7028 18.2924C13.5155 18.1052 13.2616 18 12.9968 18C12.732 18 12.4781 18.1052 12.2908 18.2924C12.1036 18.4797 11.9984 18.7336 11.9984 18.9984ZM13.9952 18.9984C13.9952 19.2632 14.1052 19.5171 14.2924 19.7044C14.4797 19.8916 14.7336 19.9968 14.9984 19.9968C15.2632 19.9968 15.5171 19.8916 15.7044 19.7044C15.8916 19.5171 15.9968 19.2632 15.9968 18.9984C15.9968 18.8673 15.971 18.7375 15.9208 18.6163C15.8706 18.4952 15.7971 18.3851 15.7044 18.2924C15.6117 18.1997 15.5016 18.1262 15.3805 18.076C15.2593 18.0258 15.1295 18 14.9984 18C14.8673 18 14.7375 18.0258 14.6163 18.076C14.4952 18.1262 14.3851 18.1997 14.2924 18.2924C14.1997 18.3851 14.1262 18.4952 14.076 18.6163C14.0258 18.7375 13.9952 18.8673 13.9952 18.9984ZM34.0016 18.9984C34.0016 19.2632 34.1068 19.5171 34.294 19.7044C34.4813 19.8916 34.7352 19.9968 35 19.9968C35.2648 19.9968 35.5187 19.8916 35.706 19.7044C35.8932 19.5171 35.9984 19.2632 35.9984 18.9984C35.9984 18.7336 35.8932 18.4797 35.706 18.2924C35.5187 18.1052 35.2648 18 35 18C34.7352 18 34.4813 18.1052 34.294 18.2924C34.1068 18.4797 34.0016 18.7336 34.0016 18.9984ZM35.9984 18.9984C35.9984 19.2632 36.1036 19.5171 36.2908 19.7044C36.4781 19.8916 36.732 19.9968 36.9968 19.9968C37.2616 19.9968 37.5155 19.8916 37.7028 19.7044C37.89 19.5171 37.9952 19.2632 37.9952 18.9984C37.9952 18.7336 37.89 18.4797 37.7028 18.2924C37.5155 18.1052 37.2616 18 36.9968 18C36.732 18 36.4781 18.1052 36.2908 18.2924C36.1036 18.4797 35.9984 18.7336 35.9984 18.9984ZM37.9952 18.9984C37.9952 19.2632 38.1052 19.5171 38.2924 19.7044C38.4797 19.8916 38.7336 19.9968 38.9984 19.9968C39.2632 19.9968 39.5171 19.8916 39.7044 19.7044C39.8916 19.5171 39.9968 19.2632 39.9968 18.9984C39.9968 18.7336 39.8916 18.4797 39.7044 18.2924C39.5171 18.1052 39.2632 18 38.9984 18C38.7336 18 38.4797 18.1052 38.2924 18.2924C38.1052 18.4797 37.9952 18.7336 37.9952 18.9984ZM10.0016 21C10.0016 21.2648 10.1068 21.5187 10.294 21.706C10.4813 21.8932 10.7352 21.9984 11 21.9984C11.2648 21.9984 11.5187 21.8932 11.706 21.706C11.8932 21.5187 11.9984 21.2648 11.9984 21C11.9984 20.7352 11.8932 20.4813 11.706 20.294C11.5187 20.1068 11.2648 19.9968 11 19.9968C10.7352 19.9968 10.4813 20.1068 10.294 20.294C10.1068 20.4813 10.0016 20.7352 10.0016 21ZM11.9984 21C11.9984 21.1311 12.0242 21.2609 12.0744 21.3821C12.1246 21.5032 12.1981 21.6133 12.2908 21.706C12.3835 21.7987 12.4936 21.8722 12.6147 21.9224C12.7359 21.9726 12.8657 21.9984 12.9968 21.9984C13.1279 21.9984 13.2577 21.9726 13.3789 21.9224C13.5 21.8722 13.6101 21.7987 13.7028 21.706C13.7955 21.6133 13.869 21.5032 13.9192 21.3821C13.9694 21.2609 13.9952 21.1311 13.9952 21C13.9952 20.7352 13.89 20.4813 13.7028 20.294C13.5155 20.1068 13.2616 19.9968 12.9968 19.9968C12.732 19.9968 12.4781 20.1068 12.2908 20.294C12.1036 20.4813 11.9984 20.7352 11.9984 21ZM13.9952 21C13.9952 21.2648 14.1052 21.5187 14.2924 21.706C14.4797 21.8932 14.7336 21.9984 14.9984 21.9984C15.2632 21.9984 15.5171 21.8932 15.7044 21.706C15.8916 21.5187 15.9968 21.2648 15.9968 21C15.9968 20.8689 15.971 20.7391 15.9208 20.6179C15.8706 20.4968 15.7971 20.3867 15.7044 20.294C15.6117 20.2013 15.5016 20.1278 15.3805 20.0776C15.2593 20.0274 15.1295 19.9968 14.9984 19.9968C14.8673 19.9968 14.7375 20.0274 14.6163 20.0776C14.4952 20.1278 14.3851 20.2013 14.2924 20.294C14.1997 20.3867 14.1262 20.4968 14.076 20.6179C14.0258 20.7391 13.9952 20.8689 13.9952 21ZM34.0016 21C34.0016 21.2648 34.1068 21.5187 34.294 21.706C34.4813 21.8932 34.7352 21.9984 35 21.9984C35.2648 21.9984 35.5187 21.8932 35.706 21.706C35.8932 21.5187 35.9984 21.2648 35.9984 21C35.9984 20.7352 35.8932 20.4813 35.706 20.294C35.5187 20.1068 35.2648 19.9968 35 19.9968C34.7352 19.9968 34.4813 20.1068 34.294 20.294C34.1068 20.4813 34.0016 20.7352 34.0016 21ZM35.9984 21C35.9984 21.2648 36.1036 21.5187 36.2908 21.706C36.4781 21.8932 36.732 21.9984 36.9968 21.9984C37.2616 21.9984 37.5155 21.8932 37.7028 21.706C37.89 21.5187 37.9952 21.2648 37.9952 21C37.9952 20.7352 37.89 20.4813 37.7028 20.294C37.5155 20.1068 37.2616 19.9968 36.9968 19.9968C36.732 19.9968 36.4781 20.1068 36.2908 20.294C36.1036 20.4813 35.9984 20.7352 35.9984 21ZM10.0016 23.0016C10.0016 23.2664 10.1068 23.5203 10.294 23.7076C10.4813 23.8948 10.7352 24 11 24C11.2648 24 11.5187 23.8948 11.706 23.7076C11.8932 23.5203 11.9984 23.2664 11.9984 23.0016C11.9984 22.7368 11.8932 22.4829 11.706 22.2956C11.5187 22.1084 11.2648 21.9984 11 21.9984C10.7352 21.9984 10.4813 22.1084 10.294 22.2956C10.1068 22.4829 10.0016 22.7368 10.0016 23.0016ZM11.9984 23.0016C11.9984 23.1327 12.0242 23.2625 12.0744 23.3837C12.1246 23.5048 12.1981 23.6149 12.2908 23.7076C12.3835 23.8003 12.4936 23.8738 12.6147 23.924C12.7359 23.9742 12.8657 24 12.9968 24C13.1279 24 13.2577 23.9742 13.3789 23.924C13.5 23.8738 13.6101 23.8003 13.7028 23.7076C13.7955 23.6149 13.869 23.5048 13.9192 23.3837C13.9694 23.2625 13.9952 23.1327 13.9952 23.0016C13.9952 22.7368 13.89 22.4829 13.7028 22.2956C13.5155 22.1084 13.2616 21.9984 12.9968 21.9984C12.732 21.9984 12.4781 22.1084 12.2908 22.2956C12.1036 22.4829 11.9984 22.7368 11.9984 23.0016ZM13.9952 23.0016C13.9952 23.2664 14.1052 23.5203 14.2924 23.7076C14.4797 23.8948 14.7336 24 14.9984 24C15.2632 24 15.5171 23.8948 15.7044 23.7076C15.8916 23.5203 15.9968 23.2664 15.9968 23.0016C15.9968 22.8705 15.971 22.7407 15.9208 22.6195C15.8706 22.4984 15.7971 22.3883 15.7044 22.2956C15.6117 22.2029 15.5016 22.1294 15.3805 22.0792C15.2593 22.029 15.1295 21.9984 14.9984 21.9984C14.8673 21.9984 14.7375 22.029 14.6163 22.0792C14.4952 22.1294 14.3851 22.2029 14.2924 22.2956C14.1997 22.3883 14.1262 22.4984 14.076 22.6195C14.0258 22.7407 13.9952 22.8705 13.9952 23.0016ZM15.9968 23.0016C15.9968 23.1327 16.0274 23.2625 16.0776 23.3837C16.1278 23.5048 16.2013 23.6149 16.294 23.7076C16.3867 23.8003 16.4968 23.8738 16.6179 23.924C16.7391 23.9742 16.8689 24 17 24C17.1311 24 17.2609 23.9742 17.3821 23.924C17.5032 23.8738 17.6133 23.8003 17.706 23.7076C17.7987 23.6149 17.8722 23.5048 17.9224 23.3837C17.9726 23.2625 17.9984 23.1327 17.9984 23.0016C17.9984 22.8705 17.9726 22.7407 17.9224 22.6195C17.8722 22.4984 17.7987 22.3883 17.706 22.2956C17.6133 22.2029 17.5032 22.1294 17.3821 22.0792C17.2609 22.029 17.1311 22.0032 17 22.0032C16.8689 22.0032 16.7391 22.029 16.6179 22.0792C16.4968 22.1294 16.3867 22.2029 16.294 22.2956C16.2013 22.3883 16.1278 22.4984 16.0776 22.6195C16.0274 22.7407 15.9968 22.8705 15.9968 23.0016ZM17.9984 23.0016C17.9984 23.2664 18.1036 23.5203 18.2908 23.7076C18.4781 23.8948 18.732 24 18.9968 24C19.2616 24 19.5155 23.8948 19.7028 23.7076C19.89 23.5203 19.9952 23.2664 19.9952 23.0016C19.9952 22.7368 19.89 22.4829 19.7028 22.2956C19.5155 22.1084 19.2616 22.0032 18.9968 22.0032C18.732 22.0032 18.4781 22.1084 18.2908 22.2956C18.1036 22.4829 17.9984 22.7368 17.9984 23.0016ZM32 23.0016C32 23.2664 32.1052 23.5203 32.2924 23.7076C32.4797 23.8948 32.7336 24 32.9984 24C33.2632 24 33.5171 23.8948 33.7044 23.7076C33.8916 23.5203 33.9968 23.2664 33.9968 23.0016C33.9968 22.7368 33.8916 22.4829 33.7044 22.2956C33.5171 22.1084 33.2632 22.0032 32.9984 22.0032C32.7336 22.0032 32.4797 22.1084 32.2924 22.2956C32.1052 22.4829 32 22.7368 32 23.0016ZM33.9968 23.0016C33.9968 23.2664 34.1068 23.5203 34.294 23.7076C34.4813 23.8948 34.7352 24 35 24C35.2648 24 35.5187 23.8948 35.706 23.7076C35.8932 23.5203 35.9984 23.2664 35.9984 23.0016C35.9984 22.7368 35.8932 22.4829 35.706 22.2956C35.5187 22.1084 35.2648 21.9984 35 21.9984C34.7352 21.9984 34.4813 22.1084 34.294 22.2956C34.1068 22.4829 33.9968 22.7368 33.9968 23.0016ZM35.9984 23.0016C35.9984 23.2664 36.1036 23.5203 36.2908 23.7076C36.4781 23.8948 36.732 24 36.9968 24C37.2616 24 37.5155 23.8948 37.7028 23.7076C37.89 23.5203 37.9952 23.2664 37.9952 23.0016C37.9952 22.7368 37.89 22.4829 37.7028 22.2956C37.5155 22.1084 37.2616 21.9984 36.9968 21.9984C36.732 21.9984 36.4781 22.1084 36.2908 22.2956C36.1036 22.4829 35.9984 22.7368 35.9984 23.0016ZM11.9984 24.9984C11.9984 25.1295 12.0242 25.2593 12.0744 25.3805C12.1246 25.5016 12.1981 25.6117 12.2908 25.7044C12.3835 25.7971 12.4936 25.8706 12.6147 25.9208C12.7359 25.971 12.8657 25.9968 12.9968 25.9968C13.1279 25.9968 13.2577 25.971 13.3789 25.9208C13.5 25.8706 13.6101 25.7971 13.7028 25.7044C13.7955 25.6117 13.869 25.5016 13.9192 25.3805C13.9694 25.2593 13.9952 25.1295 13.9952 24.9984C13.9952 24.7336 13.89 24.4797 13.7028 24.2924C13.5155 24.1052 13.2616 24 12.9968 24C12.732 24 12.4781 24.1052 12.2908 24.2924C12.1036 24.4797 11.9984 24.7336 11.9984 24.9984ZM13.9952 24.9984C13.9952 25.2632 14.1052 25.5171 14.2924 25.7044C14.4797 25.8916 14.7336 25.9968 14.9984 25.9968C15.2632 25.9968 15.5171 25.8916 15.7044 25.7044C15.8916 25.5171 15.9968 25.2632 15.9968 24.9984C15.9968 24.8673 15.971 24.7375 15.9208 24.6163C15.8706 24.4952 15.7971 24.3851 15.7044 24.2924C15.6117 24.1997 15.5016 24.1262 15.3805 24.076C15.2593 24.0258 15.1295 24 14.9984 24C14.8673 24 14.7375 24.0258 14.6163 24.076C14.4952 24.1262 14.3851 24.1997 14.2924 24.2924C14.1997 24.3851 14.1262 24.4952 14.076 24.6163C14.0258 24.7375 13.9952 24.8673 13.9952 24.9984ZM15.9968 24.9984C15.9968 25.1295 16.0274 25.2593 16.0776 25.3805C16.1278 25.5016 16.2013 25.6117 16.294 25.7044C16.3867 25.7971 16.4968 25.8706 16.6179 25.9208C16.7391 25.971 16.8689 25.9968 17 25.9968C17.1311 25.9968 17.2609 25.971 17.3821 25.9208C17.5032 25.8706 17.6133 25.7971 17.706 25.7044C17.7987 25.6117 17.8722 25.5016 17.9224 25.3805C17.9726 25.2593 17.9984 25.1295 17.9984 24.9984C17.9984 24.8673 17.9726 24.7375 17.9224 24.6163C17.8722 24.4952 17.7987 24.3851 17.706 24.2924C17.6133 24.1997 17.5032 24.1262 17.3821 24.076C17.2609 24.0258 17.1311 24 17 24C16.8689 24 16.7391 24.0258 16.6179 24.076C16.4968 24.1262 16.3867 24.1997 16.294 24.2924C16.2013 24.3851 16.1278 24.4952 16.0776 24.6163C16.0274 24.7375 15.9968 24.8673 15.9968 24.9984ZM17.9984 24.9984C17.9984 25.2632 18.1036 25.5171 18.2908 25.7044C18.4781 25.8916 18.732 25.9968 18.9968 25.9968C19.2616 25.9968 19.5155 25.8916 19.7028 25.7044C19.89 25.5171 19.9952 25.2632 19.9952 24.9984C19.9952 24.7336 19.89 24.4797 19.7028 24.2924C19.5155 24.1052 19.2616 24 18.9968 24C18.732 24 18.4781 24.1052 18.2908 24.2924C18.1036 24.4797 17.9984 24.7336 17.9984 24.9984ZM32 24.9984C32 25.2632 32.1052 25.5171 32.2924 25.7044C32.4797 25.8916 32.7336 25.9968 32.9984 25.9968C33.2632 25.9968 33.5171 25.8916 33.7044 25.7044C33.8916 25.5171 33.9968 25.2632 33.9968 24.9984C33.9968 24.7336 33.8916 24.4797 33.7044 24.2924C33.5171 24.1052 33.2632 24 32.9984 24C32.7336 24 32.4797 24.1052 32.2924 24.2924C32.1052 24.4797 32 24.7336 32 24.9984ZM33.9968 24.9984C33.9968 25.2632 34.1068 25.5171 34.294 25.7044C34.4813 25.8916 34.7352 25.9968 35 25.9968C35.2648 25.9968 35.5187 25.8916 35.706 25.7044C35.8932 25.5171 35.9984 25.2632 35.9984 24.9984C35.9984 24.7336 35.8932 24.4797 35.706 24.2924C35.5187 24.1052 35.2648 24 35 24C34.7352 24 34.4813 24.1052 34.294 24.2924C34.1068 24.4797 33.9968 24.7336 33.9968 24.9984ZM11.9984 27C11.9984 27.1311 12.0242 27.2609 12.0744 27.3821C12.1246 27.5032 12.1981 27.6133 12.2908 27.706C12.3835 27.7987 12.4936 27.8722 12.6147 27.9224C12.7359 27.9726 12.8657 27.9984 12.9968 27.9984C13.1279 27.9984 13.2577 27.9726 13.3789 27.9224C13.5 27.8722 13.6101 27.7987 13.7028 27.706C13.7955 27.6133 13.869 27.5032 13.9192 27.3821C13.9694 27.2609 13.9952 27.1311 13.9952 27C13.9952 26.7352 13.89 26.4813 13.7028 26.294C13.5155 26.1068 13.2616 25.9968 12.9968 25.9968C12.732 25.9968 12.4781 26.1068 12.2908 26.294C12.1036 26.4813 11.9984 26.7352 11.9984 27ZM13.9952 27C13.9952 27.2648 14.1052 27.5187 14.2924 27.706C14.4797 27.8932 14.7336 27.9984 14.9984 27.9984C15.2632 27.9984 15.5171 27.8932 15.7044 27.706C15.8916 27.5187 15.9968 27.2648 15.9968 27C15.9968 26.8689 15.971 26.7391 15.9208 26.6179C15.8706 26.4968 15.7971 26.3867 15.7044 26.294C15.6117 26.2013 15.5016 26.1278 15.3805 26.0776C15.2593 26.0274 15.1295 25.9968 14.9984 25.9968C14.8673 25.9968 14.7375 26.0274 14.6163 26.0776C14.4952 26.1278 14.3851 26.2013 14.2924 26.294C14.1997 26.3867 14.1262 26.4968 14.076 26.6179C14.0258 26.7391 13.9952 26.8689 13.9952 27ZM15.9968 27C15.9968 27.1311 16.0274 27.2609 16.0776 27.3821C16.1278 27.5032 16.2013 27.6133 16.294 27.706C16.3867 27.7987 16.4968 27.8722 16.6179 27.9224C16.7391 27.9726 16.8689 27.9984 17 27.9984C17.1311 27.9984 17.2609 27.9726 17.3821 27.9224C17.5032 27.8722 17.6133 27.7987 17.706 27.706C17.7987 27.6133 17.8722 27.5032 17.9224 27.3821C17.9726 27.2609 17.9984 27.1311 17.9984 27C17.9984 26.8689 17.9726 26.7391 17.9224 26.6179C17.8722 26.4968 17.7987 26.3867 17.706 26.294C17.6133 26.2013 17.5032 26.1278 17.3821 26.0776C17.2609 26.0274 17.1311 25.9968 17 25.9968C16.8689 25.9968 16.7391 26.0274 16.6179 26.0776C16.4968 26.1278 16.3867 26.2013 16.294 26.294C16.2013 26.3867 16.1278 26.4968 16.0776 26.6179C16.0274 26.7391 15.9968 26.8689 15.9968 27ZM17.9984 27C17.9984 27.2648 18.1036 27.5187 18.2908 27.706C18.4781 27.8932 18.732 27.9984 18.9968 27.9984C19.2616 27.9984 19.5155 27.8932 19.7028 27.706C19.89 27.5187 19.9952 27.2648 19.9952 27C19.9952 26.7352 19.89 26.4813 19.7028 26.294C19.5155 26.1068 19.2616 25.9968 18.9968 25.9968C18.732 25.9968 18.4781 26.1068 18.2908 26.294C18.1036 26.4813 17.9984 26.7352 17.9984 27ZM29.9984 27C29.9984 27.2648 30.1036 27.5187 30.2908 27.706C30.4781 27.8932 30.732 27.9984 30.9968 27.9984C31.2616 27.9984 31.5155 27.8932 31.7028 27.706C31.89 27.5187 31.9952 27.2648 31.9952 27C31.9952 26.7352 31.89 26.4813 31.7028 26.294C31.5155 26.1068 31.2616 26.0016 30.9968 26.0016C30.732 26.0016 30.4781 26.1068 30.2908 26.294C30.1036 26.4813 29.9984 26.7352 29.9984 27ZM31.9952 27C31.9952 27.2648 32.1052 27.5187 32.2924 27.706C32.4797 27.8932 32.7336 27.9984 32.9984 27.9984C33.2632 27.9984 33.5171 27.8932 33.7044 27.706C33.8916 27.5187 33.9968 27.2648 33.9968 27C33.9968 26.7352 33.8916 26.4813 33.7044 26.294C33.5171 26.1068 33.2632 25.9968 32.9984 25.9968C32.7336 25.9968 32.4797 26.1068 32.2924 26.294C32.1052 26.4813 31.9952 26.7352 31.9952 27ZM33.9968 27C33.9968 27.2648 34.1068 27.5187 34.294 27.706C34.4813 27.8932 34.7352 27.9984 35 27.9984C35.2648 27.9984 35.5187 27.8932 35.706 27.706C35.8932 27.5187 35.9984 27.2648 35.9984 27C35.9984 26.7352 35.8932 26.4813 35.706 26.294C35.5187 26.1068 35.2648 25.9968 35 25.9968C34.7352 25.9968 34.4813 26.1068 34.294 26.294C34.1068 26.4813 33.9968 26.7352 33.9968 27ZM14 29.0016C14 29.2664 14.1052 29.5203 14.2924 29.7076C14.4797 29.8948 14.7336 30 14.9984 30C15.2632 30 15.5171 29.8948 15.7044 29.7076C15.8916 29.5203 15.9968 29.2664 15.9968 29.0016C15.9968 28.8705 15.971 28.7407 15.9208 28.6195C15.8706 28.4984 15.7971 28.3883 15.7044 28.2956C15.6117 28.2029 15.5016 28.1294 15.3805 28.0792C15.2593 28.029 15.1295 27.9984 14.9984 27.9984C14.8673 27.9984 14.7375 28.029 14.6163 28.0792C14.4952 28.1294 14.3851 28.2029 14.2924 28.2956C14.1997 28.3883 14.1262 28.4984 14.076 28.6195C14.0258 28.7407 14 28.8705 14 29.0016ZM15.9968 29.0016C15.9968 29.1327 16.0274 29.2625 16.0776 29.3837C16.1278 29.5048 16.2013 29.6149 16.294 29.7076C16.3867 29.8003 16.4968 29.8738 16.6179 29.924C16.7391 29.9742 16.8689 30 17 30C17.1311 30 17.2609 29.9742 17.3821 29.924C17.5032 29.8738 17.6133 29.8003 17.706 29.7076C17.7987 29.6149 17.8722 29.5048 17.9224 29.3837C17.9726 29.2625 17.9984 29.1327 17.9984 29.0016C17.9984 28.8705 17.9726 28.7407 17.9224 28.6195C17.8722 28.4984 17.7987 28.3883 17.706 28.2956C17.6133 28.2029 17.5032 28.1294 17.3821 28.0792C17.2609 28.029 17.1311 27.9984 17 27.9984C16.8689 27.9984 16.7391 28.029 16.6179 28.0792C16.4968 28.1294 16.3867 28.2029 16.294 28.2956C16.2013 28.3883 16.1278 28.4984 16.0776 28.6195C16.0274 28.7407 15.9968 28.8705 15.9968 29.0016ZM17.9984 29.0016C17.9984 29.2664 18.1036 29.5203 18.2908 29.7076C18.4781 29.8948 18.732 30 18.9968 30C19.2616 30 19.5155 29.8948 19.7028 29.7076C19.89 29.5203 19.9952 29.2664 19.9952 29.0016C19.9952 28.7368 19.89 28.4829 19.7028 28.2956C19.5155 28.1084 19.2616 27.9984 18.9968 27.9984C18.732 27.9984 18.4781 28.1084 18.2908 28.2956C18.1036 28.4829 17.9984 28.7368 17.9984 29.0016ZM19.9952 29.0016C19.9952 29.2664 20.1052 29.5203 20.2924 29.7076C20.4797 29.8948 20.7336 30 20.9984 30C21.2632 30 21.5171 29.8948 21.7044 29.7076C21.8916 29.5203 21.9968 29.2664 21.9968 29.0016C21.9968 28.7368 21.8916 28.4829 21.7044 28.2956C21.5171 28.1084 21.2632 28.0032 20.9984 28.0032C20.7336 28.0032 20.4797 28.1084 20.2924 28.2956C20.1052 28.4829 19.9952 28.7368 19.9952 29.0016ZM29.9984 29.0016C29.9984 29.2664 30.1036 29.5203 30.2908 29.7076C30.4781 29.8948 30.732 30 30.9968 30C31.2616 30 31.5155 29.8948 31.7028 29.7076C31.89 29.5203 31.9952 29.2664 31.9952 29.0016C31.9952 28.7368 31.89 28.4829 31.7028 28.2956C31.5155 28.1084 31.2616 27.9984 30.9968 27.9984C30.732 27.9984 30.4781 28.1084 30.2908 28.2956C30.1036 28.4829 29.9984 28.7368 29.9984 29.0016ZM31.9952 29.0016C31.9952 29.2664 32.1052 29.5203 32.2924 29.7076C32.4797 29.8948 32.7336 30 32.9984 30C33.2632 30 33.5171 29.8948 33.7044 29.7076C33.8916 29.5203 33.9968 29.2664 33.9968 29.0016C33.9968 28.7368 33.8916 28.4829 33.7044 28.2956C33.5171 28.1084 33.2632 27.9984 32.9984 27.9984C32.7336 27.9984 32.4797 28.1084 32.2924 28.2956C32.1052 28.4829 31.9952 28.7368 31.9952 29.0016ZM14 30.9984C14 31.2632 14.1052 31.5171 14.2924 31.7044C14.4797 31.8916 14.7336 31.9968 14.9984 31.9968C15.2632 31.9968 15.5171 31.8916 15.7044 31.7044C15.8916 31.5171 15.9968 31.2632 15.9968 30.9984C15.9968 30.8673 15.971 30.7375 15.9208 30.6163C15.8706 30.4952 15.7971 30.3851 15.7044 30.2924C15.6117 30.1997 15.5016 30.1262 15.3805 30.076C15.2593 30.0258 15.1295 30 14.9984 30C14.8673 30 14.7375 30.0258 14.6163 30.076C14.4952 30.1262 14.3851 30.1997 14.2924 30.2924C14.1997 30.3851 14.1262 30.4952 14.076 30.6163C14.0258 30.7375 14 30.8673 14 30.9984ZM15.9968 30.9984C15.9968 31.1295 16.0274 31.2593 16.0776 31.3805C16.1278 31.5016 16.2013 31.6117 16.294 31.7044C16.3867 31.7971 16.4968 31.8706 16.6179 31.9208C16.7391 31.971 16.8689 31.9968 17 31.9968C17.1311 31.9968 17.2609 31.971 17.3821 31.9208C17.5032 31.8706 17.6133 31.7971 17.706 31.7044C17.7987 31.6117 17.8722 31.5016 17.9224 31.3805C17.9726 31.2593 17.9984 31.1295 17.9984 30.9984C17.9984 30.8673 17.9726 30.7375 17.9224 30.6163C17.8722 30.4952 17.7987 30.3851 17.706 30.2924C17.6133 30.1997 17.5032 30.1262 17.3821 30.076C17.2609 30.0258 17.1311 30 17 30C16.8689 30 16.7391 30.0258 16.6179 30.076C16.4968 30.1262 16.3867 30.1997 16.294 30.2924C16.2013 30.3851 16.1278 30.4952 16.0776 30.6163C16.0274 30.7375 15.9968 30.8673 15.9968 30.9984ZM17.9984 30.9984C17.9984 31.2632 18.1036 31.5171 18.2908 31.7044C18.4781 31.8916 18.732 31.9968 18.9968 31.9968C19.2616 31.9968 19.5155 31.8916 19.7028 31.7044C19.89 31.5171 19.9952 31.2632 19.9952 30.9984C19.9952 30.7336 19.89 30.4797 19.7028 30.2924C19.5155 30.1052 19.2616 30 18.9968 30C18.732 30 18.4781 30.1052 18.2908 30.2924C18.1036 30.4797 17.9984 30.7336 17.9984 30.9984ZM19.9952 30.9984C19.9952 31.2632 20.1052 31.5171 20.2924 31.7044C20.4797 31.8916 20.7336 31.9968 20.9984 31.9968C21.2632 31.9968 21.5171 31.8916 21.7044 31.7044C21.8916 31.5171 21.9968 31.2632 21.9968 30.9984C21.9968 30.7336 21.8916 30.4797 21.7044 30.2924C21.5171 30.1052 21.2632 30 20.9984 30C20.7336 30 20.4797 30.1052 20.2924 30.2924C20.1052 30.4797 19.9952 30.7336 19.9952 30.9984ZM29.9984 30.9984C29.9984 31.2632 30.1036 31.5171 30.2908 31.7044C30.4781 31.8916 30.732 31.9968 30.9968 31.9968C31.2616 31.9968 31.5155 31.8916 31.7028 31.7044C31.89 31.5171 31.9952 31.2632 31.9952 30.9984C31.9952 30.7336 31.89 30.4797 31.7028 30.2924C31.5155 30.1052 31.2616 30 30.9968 30C30.732 30 30.4781 30.1052 30.2908 30.2924C30.1036 30.4797 29.9984 30.7336 29.9984 30.9984ZM31.9952 30.9984C31.9952 31.2632 32.1052 31.5171 32.2924 31.7044C32.4797 31.8916 32.7336 31.9968 32.9984 31.9968C33.2632 31.9968 33.5171 31.8916 33.7044 31.7044C33.8916 31.5171 33.9968 31.2632 33.9968 30.9984C33.9968 30.7336 33.8916 30.4797 33.7044 30.2924C33.5171 30.1052 33.2632 30 32.9984 30C32.7336 30 32.4797 30.1052 32.2924 30.2924C32.1052 30.4797 31.9952 30.7336 31.9952 30.9984ZM16.0016 33C16.0016 33.1311 16.0274 33.2609 16.0776 33.3821C16.1278 33.5032 16.2013 33.6133 16.294 33.706C16.3867 33.7987 16.4968 33.8722 16.6179 33.9224C16.7391 33.9726 16.8689 33.9984 17 33.9984C17.1311 33.9984 17.2609 33.9726 17.3821 33.9224C17.5032 33.8722 17.6133 33.7987 17.706 33.706C17.7987 33.6133 17.8722 33.5032 17.9224 33.3821C17.9726 33.2609 17.9984 33.1311 17.9984 33C17.9984 32.8689 17.9726 32.7391 17.9224 32.6179C17.8722 32.4968 17.7987 32.3867 17.706 32.294C17.6133 32.2013 17.5032 32.1278 17.3821 32.0776C17.2609 32.0274 17.1311 31.9968 17 31.9968C16.8689 31.9968 16.7391 32.0274 16.6179 32.0776C16.4968 32.1278 16.3867 32.2013 16.294 32.294C16.2013 32.3867 16.1278 32.4968 16.0776 32.6179C16.0274 32.7391 16.0016 32.8689 16.0016 33ZM17.9984 33C17.9984 33.2648 18.1036 33.5187 18.2908 33.706C18.4781 33.8932 18.732 33.9984 18.9968 33.9984C19.2616 33.9984 19.5155 33.8932 19.7028 33.706C19.89 33.5187 19.9952 33.2648 19.9952 33C19.9952 32.7352 19.89 32.4813 19.7028 32.294C19.5155 32.1068 19.2616 31.9968 18.9968 31.9968C18.732 31.9968 18.4781 32.1068 18.2908 32.294C18.1036 32.4813 17.9984 32.7352 17.9984 33ZM19.9952 33C19.9952 33.2648 20.1052 33.5187 20.2924 33.706C20.4797 33.8932 20.7336 33.9984 20.9984 33.9984C21.2632 33.9984 21.5171 33.8932 21.7044 33.706C21.8916 33.5187 21.9968 33.2648 21.9968 33C21.9968 32.7352 21.8916 32.4813 21.7044 32.294C21.5171 32.1068 21.2632 31.9968 20.9984 31.9968C20.7336 31.9968 20.4797 32.1068 20.2924 32.294C20.1052 32.4813 19.9952 32.7352 19.9952 33ZM28.0016 33C28.0016 33.2648 28.1068 33.5187 28.294 33.706C28.4813 33.8932 28.7352 33.9984 29 33.9984C29.2648 33.9984 29.5187 33.8932 29.706 33.706C29.8932 33.5187 29.9984 33.2648 29.9984 33C29.9984 32.7352 29.8932 32.4813 29.706 32.294C29.5187 32.1068 29.2648 32.0016 29 32.0016C28.7352 32.0016 28.4813 32.1068 28.294 32.294C28.1068 32.4813 28.0016 32.7352 28.0016 33ZM29.9984 33C29.9984 33.2648 30.1036 33.5187 30.2908 33.706C30.4781 33.8932 30.732 33.9984 30.9968 33.9984C31.2616 33.9984 31.5155 33.8932 31.7028 33.706C31.89 33.5187 31.9952 33.2648 31.9952 33C31.9952 32.7352 31.89 32.4813 31.7028 32.294C31.5155 32.1068 31.2616 31.9968 30.9968 31.9968C30.732 31.9968 30.4781 32.1068 30.2908 32.294C30.1036 32.4813 29.9984 32.7352 29.9984 33ZM16.0016 35.0016C16.0016 35.1327 16.0274 35.2625 16.0776 35.3837C16.1278 35.5048 16.2013 35.6149 16.294 35.7076C16.3867 35.8003 16.4968 35.8738 16.6179 35.924C16.7391 35.9742 16.8689 36 17 36C17.1311 36 17.2609 35.9742 17.3821 35.924C17.5032 35.8738 17.6133 35.8003 17.706 35.7076C17.7987 35.6149 17.8722 35.5048 17.9224 35.3837C17.9726 35.2625 17.9984 35.1327 17.9984 35.0016C17.9984 34.8705 17.9726 34.7407 17.9224 34.6195C17.8722 34.4984 17.7987 34.3883 17.706 34.2956C17.6133 34.2029 17.5032 34.1294 17.3821 34.0792C17.2609 34.029 17.1311 33.9984 17 33.9984C16.8689 33.9984 16.7391 34.029 16.6179 34.0792C16.4968 34.1294 16.3867 34.2029 16.294 34.2956C16.2013 34.3883 16.1278 34.4984 16.0776 34.6195C16.0274 34.7407 16.0016 34.8705 16.0016 35.0016ZM17.9984 35.0016C17.9984 35.2664 18.1036 35.5203 18.2908 35.7076C18.4781 35.8948 18.732 36 18.9968 36C19.2616 36 19.5155 35.8948 19.7028 35.7076C19.89 35.5203 19.9952 35.2664 19.9952 35.0016C19.9952 34.7368 19.89 34.4829 19.7028 34.2956C19.5155 34.1084 19.2616 33.9984 18.9968 33.9984C18.732 33.9984 18.4781 34.1084 18.2908 34.2956C18.1036 34.4829 17.9984 34.7368 17.9984 35.0016ZM19.9952 35.0016C19.9952 35.2664 20.1052 35.5203 20.2924 35.7076C20.4797 35.8948 20.7336 36 20.9984 36C21.2632 36 21.5171 35.8948 21.7044 35.7076C21.8916 35.5203 21.9968 35.2664 21.9968 35.0016C21.9968 34.7368 21.8916 34.4829 21.7044 34.2956C21.5171 34.1084 21.2632 33.9984 20.9984 33.9984C20.7336 33.9984 20.4797 34.1084 20.2924 34.2956C20.1052 34.4829 19.9952 34.7368 19.9952 35.0016ZM28.0016 35.0016C28.0016 35.2664 28.1068 35.5203 28.294 35.7076C28.4813 35.8948 28.7352 36 29 36C29.2648 36 29.5187 35.8948 29.706 35.7076C29.8932 35.5203 29.9984 35.2664 29.9984 35.0016C29.9984 34.7368 29.8932 34.4829 29.706 34.2956C29.5187 34.1084 29.2648 33.9984 29 33.9984C28.7352 33.9984 28.4813 34.1084 28.294 34.2956C28.1068 34.4829 28.0016 34.7368 28.0016 35.0016ZM29.9984 35.0016C29.9984 35.2664 30.1036 35.5203 30.2908 35.7076C30.4781 35.8948 30.732 36 30.9968 36C31.2616 36 31.5155 35.8948 31.7028 35.7076C31.89 35.5203 31.9952 35.2664 31.9952 35.0016C31.9952 34.7368 31.89 34.4829 31.7028 34.2956C31.5155 34.1084 31.2616 33.9984 30.9968 33.9984C30.732 33.9984 30.4781 34.1084 30.2908 34.2956C30.1036 34.4829 29.9984 34.7368 29.9984 35.0016ZM17.9984 36.9984C17.9984 37.2632 18.1036 37.5171 18.2908 37.7044C18.4781 37.8916 18.732 37.9968 18.9968 37.9968C19.2616 37.9968 19.5155 37.8916 19.7028 37.7044C19.89 37.5171 19.9952 37.2632 19.9952 36.9984C19.9952 36.7336 19.89 36.4797 19.7028 36.2924C19.5155 36.1052 19.2616 36 18.9968 36C18.732 36 18.4781 36.1052 18.2908 36.2924C18.1036 36.4797 17.9984 36.7336 17.9984 36.9984ZM19.9952 36.9984C19.9952 37.2632 20.1052 37.5171 20.2924 37.7044C20.4797 37.8916 20.7336 37.9968 20.9984 37.9968C21.2632 37.9968 21.5171 37.8916 21.7044 37.7044C21.8916 37.5171 21.9968 37.2632 21.9968 36.9984C21.9968 36.7336 21.8916 36.4797 21.7044 36.2924C21.5171 36.1052 21.2632 36 20.9984 36C20.7336 36 20.4797 36.1052 20.2924 36.2924C20.1052 36.4797 19.9952 36.7336 19.9952 36.9984ZM26 36.9984C26 37.2632 26.1052 37.5171 26.2924 37.7044C26.4797 37.8916 26.7336 37.9968 26.9984 37.9968C27.2632 37.9968 27.5171 37.8916 27.7044 37.7044C27.8916 37.5171 27.9968 37.2632 27.9968 36.9984C27.9968 36.7336 27.8916 36.4797 27.7044 36.2924C27.5171 36.1052 27.2632 36 26.9984 36C26.7336 36 26.4797 36.1052 26.2924 36.2924C26.1052 36.4797 26 36.7336 26 36.9984ZM27.9968 36.9984C27.9968 37.2632 28.1068 37.5171 28.294 37.7044C28.4813 37.8916 28.7352 37.9968 29 37.9968C29.2648 37.9968 29.5187 37.8916 29.706 37.7044C29.8932 37.5171 29.9984 37.2632 29.9984 36.9984C29.9984 36.7336 29.8932 36.4797 29.706 36.2924C29.5187 36.1052 29.2648 36 29 36C28.7352 36 28.4813 36.1052 28.294 36.2924C28.1068 36.4797 27.9968 36.7336 27.9968 36.9984ZM17.9984 39C17.9984 39.2648 18.1036 39.5187 18.2908 39.706C18.4781 39.8932 18.732 39.9984 18.9968 39.9984C19.2616 39.9984 19.5155 39.8932 19.7028 39.706C19.89 39.5187 19.9952 39.2648 19.9952 39C19.9952 38.7352 19.89 38.4813 19.7028 38.294C19.5155 38.1068 19.2616 37.9968 18.9968 37.9968C18.732 37.9968 18.4781 38.1068 18.2908 38.294C18.1036 38.4813 17.9984 38.7352 17.9984 39ZM19.9952 39C19.9952 39.2648 20.1052 39.5187 20.2924 39.706C20.4797 39.8932 20.7336 39.9984 20.9984 39.9984C21.2632 39.9984 21.5171 39.8932 21.7044 39.706C21.8916 39.5187 21.9968 39.2648 21.9968 39C21.9968 38.7352 21.8916 38.4813 21.7044 38.294C21.5171 38.1068 21.2632 37.9968 20.9984 37.9968C20.7336 37.9968 20.4797 38.1068 20.2924 38.294C20.1052 38.4813 19.9952 38.7352 19.9952 39ZM23.9984 39C23.9984 39.2648 24.1036 39.5187 24.2908 39.706C24.4781 39.8932 24.732 39.9984 24.9968 39.9984C25.2616 39.9984 25.5155 39.8932 25.7028 39.706C25.89 39.5187 25.9952 39.2648 25.9952 39C25.9952 38.7352 25.89 38.4813 25.7028 38.294C25.5155 38.1068 25.2616 38.0016 24.9968 38.0016C24.732 38.0016 24.4781 38.1068 24.2908 38.294C24.1036 38.4813 23.9984 38.7352 23.9984 39ZM25.9952 39C25.9952 39.2648 26.1052 39.5187 26.2924 39.706C26.4797 39.8932 26.7336 39.9984 26.9984 39.9984C27.2632 39.9984 27.5171 39.8932 27.7044 39.706C27.8916 39.5187 27.9968 39.2648 27.9968 39C27.9968 38.7352 27.8916 38.4813 27.7044 38.294C27.5171 38.1068 27.2632 37.9968 26.9984 37.9968C26.7336 37.9968 26.4797 38.1068 26.2924 38.294C26.1052 38.4813 25.9952 38.7352 25.9952 39ZM27.9968 39C27.9968 39.2648 28.1068 39.5187 28.294 39.706C28.4813 39.8932 28.7352 39.9984 29 39.9984C29.2648 39.9984 29.5187 39.8932 29.706 39.706C29.8932 39.5187 29.9984 39.2648 29.9984 39C29.9984 38.7352 29.8932 38.4813 29.706 38.294C29.5187 38.1068 29.2648 37.9968 29 37.9968C28.7352 37.9968 28.4813 38.1068 28.294 38.294C28.1068 38.4813 27.9968 38.7352 27.9968 39ZM20 41.0016C20 41.2664 20.1052 41.5203 20.2924 41.7076C20.4797 41.8948 20.7336 42 20.9984 42C21.2632 42 21.5171 41.8948 21.7044 41.7076C21.8916 41.5203 21.9968 41.2664 21.9968 41.0016C21.9968 40.7368 21.8916 40.4829 21.7044 40.2956C21.5171 40.1084 21.2632 39.9984 20.9984 39.9984C20.7336 39.9984 20.4797 40.1084 20.2924 40.2956C20.1052 40.4829 20 40.7368 20 41.0016ZM21.9968 41.0016C21.9968 41.2664 22.1068 41.5203 22.294 41.7076C22.4813 41.8948 22.7352 42 23 42C23.2648 42 23.5187 41.8948 23.706 41.7076C23.8932 41.5203 23.9984 41.2664 23.9984 41.0016C23.9984 40.7368 23.8932 40.4829 23.706 40.2956C23.5187 40.1084 23.2648 40.0032 23 40.0032C22.7352 40.0032 22.4813 40.1084 22.294 40.2956C22.1068 40.4829 21.9968 40.7368 21.9968 41.0016ZM23.9984 41.0016C23.9984 41.2664 24.1036 41.5203 24.2908 41.7076C24.4781 41.8948 24.732 42 24.9968 42C25.2616 42 25.5155 41.8948 25.7028 41.7076C25.89 41.5203 25.9952 41.2664 25.9952 41.0016C25.9952 40.7368 25.89 40.4829 25.7028 40.2956C25.5155 40.1084 25.2616 39.9984 24.9968 39.9984C24.732 39.9984 24.4781 40.1084 24.2908 40.2956C24.1036 40.4829 23.9984 40.7368 23.9984 41.0016ZM25.9952 41.0016C25.9952 41.2664 26.1052 41.5203 26.2924 41.7076C26.4797 41.8948 26.7336 42 26.9984 42C27.2632 42 27.5171 41.8948 27.7044 41.7076C27.8916 41.5203 27.9968 41.2664 27.9968 41.0016C27.9968 40.7368 27.8916 40.4829 27.7044 40.2956C27.5171 40.1084 27.2632 39.9984 26.9984 39.9984C26.7336 39.9984 26.4797 40.1084 26.2924 40.2956C26.1052 40.4829 25.9952 40.7368 25.9952 41.0016ZM20 42.9984C20 43.2632 20.1052 43.5171 20.2924 43.7044C20.4797 43.8916 20.7336 43.9968 20.9984 43.9968C21.2632 43.9968 21.5171 43.8916 21.7044 43.7044C21.8916 43.5171 21.9968 43.2632 21.9968 42.9984C21.9968 42.7336 21.8916 42.4797 21.7044 42.2924C21.5171 42.1052 21.2632 42 20.9984 42C20.7336 42 20.4797 42.1052 20.2924 42.2924C20.1052 42.4797 20 42.7336 20 42.9984ZM21.9968 42.9984C21.9968 43.2632 22.1068 43.5171 22.294 43.7044C22.4813 43.8916 22.7352 43.9968 23 43.9968C23.2648 43.9968 23.5187 43.8916 23.706 43.7044C23.8932 43.5171 23.9984 43.2632 23.9984 42.9984C23.9984 42.7336 23.8932 42.4797 23.706 42.2924C23.5187 42.1052 23.2648 42 23 42C22.7352 42 22.4813 42.1052 22.294 42.2924C22.1068 42.4797 21.9968 42.7336 21.9968 42.9984ZM23.9984 42.9984C23.9984 43.2632 24.1036 43.5171 24.2908 43.7044C24.4781 43.8916 24.732 43.9968 24.9968 43.9968C25.2616 43.9968 25.5155 43.8916 25.7028 43.7044C25.89 43.5171 25.9952 43.2632 25.9952 42.9984C25.9952 42.7336 25.89 42.4797 25.7028 42.2924C25.5155 42.1052 25.2616 42 24.9968 42C24.732 42 24.4781 42.1052 24.2908 42.2924C24.1036 42.4797 23.9984 42.7336 23.9984 42.9984ZM25.9952 42.9984C25.9952 43.2632 26.1052 43.5171 26.2924 43.7044C26.4797 43.8916 26.7336 43.9968 26.9984 43.9968C27.2632 43.9968 27.5171 43.8916 27.7044 43.7044C27.8916 43.5171 27.9968 43.2632 27.9968 42.9984C27.9968 42.7336 27.8916 42.4797 27.7044 42.2924C27.5171 42.1052 27.2632 42 26.9984 42C26.7336 42 26.4797 42.1052 26.2924 42.2924C26.1052 42.4797 25.9952 42.7336 25.9952 42.9984ZM22.0016 45C22.0016 45.2648 22.1068 45.5187 22.294 45.706C22.4813 45.8932 22.7352 45.9984 23 45.9984C23.2648 45.9984 23.5187 45.8932 23.706 45.706C23.8932 45.5187 23.9984 45.2648 23.9984 45C23.9984 44.7352 23.8932 44.4813 23.706 44.294C23.5187 44.1068 23.2648 43.9968 23 43.9968C22.7352 43.9968 22.4813 44.1068 22.294 44.294C22.1068 44.4813 22.0016 44.7352 22.0016 45ZM23.9984 45C23.9984 45.2648 24.1036 45.5187 24.2908 45.706C24.4781 45.8932 24.732 45.9984 24.9968 45.9984C25.2616 45.9984 25.5155 45.8932 25.7028 45.706C25.89 45.5187 25.9952 45.2648 25.9952 45C25.9952 44.7352 25.89 44.4813 25.7028 44.294C25.5155 44.1068 25.2616 43.9968 24.9968 43.9968C24.732 43.9968 24.4781 44.1068 24.2908 44.294C24.1036 44.4813 23.9984 44.7352 23.9984 45Z" fill="#EDEDED"/>
        <path opacity="0.5" d="M28.0032 0.9984C28.0032 1.26319 28.1084 1.51714 28.2956 1.70438C28.4829 1.89161 28.7368 1.9968 29.0016 1.9968C29.2664 1.9968 29.5203 1.89161 29.7076 1.70438C29.8948 1.51714 30 1.26319 30 0.9984C30 0.733608 29.8948 0.479661 29.7076 0.292425C29.5203 0.105188 29.2664 0 29.0016 0C28.7368 0 28.4829 0.105188 28.2956 0.292425C28.1084 0.479661 28.0032 0.733608 28.0032 0.9984ZM30 0.9984C30 1.26319 30.1052 1.51714 30.2924 1.70438C30.4797 1.89161 30.7336 1.9968 30.9984 1.9968C31.2632 1.9968 31.5171 1.89161 31.7044 1.70438C31.8916 1.51714 31.9968 1.26319 31.9968 0.9984C31.9968 0.733608 31.8916 0.479661 31.7044 0.292425C31.5171 0.105188 31.2632 0 30.9984 0C30.7336 0 30.4797 0.105188 30.2924 0.292425C30.1052 0.479661 30 0.733608 30 0.9984ZM31.9968 0.9984C31.9968 1.26319 32.1068 1.51714 32.294 1.70438C32.4813 1.89161 32.7352 1.9968 33 1.9968C33.2648 1.9968 33.5187 1.89161 33.706 1.70438C33.8932 1.51714 33.9984 1.26319 33.9984 0.9984C33.9984 0.733608 33.8932 0.479661 33.706 0.292425C33.5187 0.105188 33.2648 0 33 0C32.7352 0 32.4813 0.105188 32.294 0.292425C32.1068 0.479661 31.9968 0.733608 31.9968 0.9984ZM33.9984 0.9984C33.9984 1.26319 34.1084 1.51714 34.2956 1.70438C34.4829 1.89161 34.7368 1.9968 35.0016 1.9968C35.2664 1.9968 35.5203 1.89161 35.7076 1.70438C35.8948 1.51714 36 1.26319 36 0.9984C36 0.733608 35.8948 0.479661 35.7076 0.292425C35.5203 0.105188 35.2664 0 35.0016 0C34.7368 0 34.4829 0.105188 34.2956 0.292425C34.1084 0.479661 33.9984 0.733608 33.9984 0.9984ZM20.0016 3C20.0016 3.26479 20.1068 3.51874 20.294 3.70598C20.4813 3.89321 20.7352 3.9984 21 3.9984C21.2648 3.9984 21.5187 3.89321 21.706 3.70598C21.8932 3.51874 21.9984 3.26479 21.9984 3C21.9984 2.73521 21.8932 2.48126 21.706 2.29402C21.5187 2.10679 21.2648 2.0016 21 2.0016C20.7352 2.0016 20.4813 2.10679 20.294 2.29402C20.1068 2.48126 20.0016 2.73521 20.0016 3ZM21.9984 3C21.9984 3.26479 22.1084 3.51874 22.2956 3.70598C22.4829 3.89321 22.7368 3.9984 23.0016 3.9984C23.2664 3.9984 23.5203 3.89321 23.7076 3.70598C23.8948 3.51874 24 3.26479 24 3C24 2.73521 23.8948 2.48126 23.7076 2.29402C23.5203 2.10679 23.2664 2.0016 23.0016 2.0016C22.7368 2.0016 22.4829 2.10679 22.2956 2.29402C22.1084 2.48126 21.9984 2.73521 21.9984 3ZM24 3C24 3.26479 24.1052 3.51874 24.2924 3.70598C24.4797 3.89321 24.7336 3.9984 24.9984 3.9984C25.2632 3.9984 25.5171 3.89321 25.7044 3.70598C25.8916 3.51874 25.9968 3.26479 25.9968 3C25.9968 2.73521 25.8916 2.48126 25.7044 2.29402C25.5171 2.10679 25.2632 2.0016 24.9984 2.0016C24.7336 2.0016 24.4797 2.10679 24.2924 2.29402C24.1052 2.48126 24 2.73521 24 3ZM25.9968 3C25.9968 3.26479 26.1068 3.51874 26.294 3.70598C26.4813 3.89321 26.7352 3.9984 27 3.9984C27.2648 3.9984 27.5187 3.89321 27.706 3.70598C27.8932 3.51874 27.9984 3.26479 27.9984 3C27.9984 2.73521 27.8932 2.48126 27.706 2.29402C27.5187 2.10679 27.2648 2.0016 27 2.0016C26.7352 2.0016 26.4813 2.10679 26.294 2.29402C26.1068 2.48126 25.9968 2.73521 25.9968 3ZM27.9984 3C27.9984 3.26479 28.1084 3.51874 28.2956 3.70598C28.4829 3.89321 28.7368 3.9984 29.0016 3.9984C29.2664 3.9984 29.5203 3.89321 29.7076 3.70598C29.8948 3.51874 30 3.26479 30 3C30 2.73521 29.8948 2.48126 29.7076 2.29402C29.5203 2.10679 29.2664 1.9968 29.0016 1.9968C28.7368 1.9968 28.4829 2.10679 28.2956 2.29402C28.1084 2.48126 27.9984 2.73521 27.9984 3ZM30 3C30 3.26479 30.1052 3.51874 30.2924 3.70598C30.4797 3.89321 30.7336 3.9984 30.9984 3.9984C31.2632 3.9984 31.5171 3.89321 31.7044 3.70598C31.8916 3.51874 31.9968 3.26479 31.9968 3C31.9968 2.73521 31.8916 2.48126 31.7044 2.29402C31.5171 2.10679 31.2632 1.9968 30.9984 1.9968C30.7336 1.9968 30.4797 2.10679 30.2924 2.29402C30.1052 2.48126 30 2.73521 30 3ZM31.9968 3C31.9968 3.26479 32.1068 3.51874 32.294 3.70598C32.4813 3.89321 32.7352 3.9984 33 3.9984C33.2648 3.9984 33.5187 3.89321 33.706 3.70598C33.8932 3.51874 33.9984 3.26479 33.9984 3C33.9984 2.73521 33.8932 2.48126 33.706 2.29402C33.5187 2.10679 33.2648 1.9968 33 1.9968C32.7352 1.9968 32.4813 2.10679 32.294 2.29402C32.1068 2.48126 31.9968 2.73521 31.9968 3ZM33.9984 3C33.9984 3.26479 34.1084 3.51874 34.2956 3.70598C34.4829 3.89321 34.7368 3.9984 35.0016 3.9984C35.2664 3.9984 35.5203 3.89321 35.7076 3.70598C35.8948 3.51874 36 3.26479 36 3C36 2.73521 35.8948 2.48126 35.7076 2.29402C35.5203 2.10679 35.2664 1.9968 35.0016 1.9968C34.7368 1.9968 34.4829 2.10679 34.2956 2.29402C34.1084 2.48126 33.9984 2.73521 33.9984 3ZM18 5.0016C18 5.26639 18.1052 5.52034 18.2924 5.70758C18.4797 5.89481 18.7336 6 18.9984 6C19.2632 6 19.5171 5.89481 19.7044 5.70758C19.8916 5.52034 19.9968 5.26639 19.9968 5.0016C19.9968 4.73681 19.8916 4.48286 19.7044 4.29562C19.5171 4.10839 19.2632 4.0032 18.9984 4.0032C18.7336 4.0032 18.4797 4.10839 18.2924 4.29562C18.1052 4.48286 18 4.73681 18 5.0016ZM19.9968 5.0016C19.9968 5.26639 20.1068 5.52034 20.294 5.70758C20.4813 5.89481 20.7352 6 21 6C21.2648 6 21.5187 5.89481 21.706 5.70758C21.8932 5.52034 21.9984 5.26639 21.9984 5.0016C21.9984 4.73681 21.8932 4.48286 21.706 4.29562C21.5187 4.10839 21.2648 3.9984 21 3.9984C20.7352 3.9984 20.4813 4.10839 20.294 4.29562C20.1068 4.48286 19.9968 4.73681 19.9968 5.0016ZM21.9984 5.0016C21.9984 5.26639 22.1084 5.52034 22.2956 5.70758C22.4829 5.89481 22.7368 6 23.0016 6C23.2664 6 23.5203 5.89481 23.7076 5.70758C23.8948 5.52034 24 5.26639 24 5.0016C24 4.73681 23.8948 4.48286 23.7076 4.29562C23.5203 4.10839 23.2664 3.9984 23.0016 3.9984C22.7368 3.9984 22.4829 4.10839 22.2956 4.29562C22.1084 4.48286 21.9984 4.73681 21.9984 5.0016ZM24 5.0016C24 5.26639 24.1052 5.52034 24.2924 5.70758C24.4797 5.89481 24.7336 6 24.9984 6C25.2632 6 25.5171 5.89481 25.7044 5.70758C25.8916 5.52034 25.9968 5.26639 25.9968 5.0016C25.9968 4.73681 25.8916 4.48286 25.7044 4.29562C25.5171 4.10839 25.2632 3.9984 24.9984 3.9984C24.7336 3.9984 24.4797 4.10839 24.2924 4.29562C24.1052 4.48286 24 4.73681 24 5.0016ZM25.9968 5.0016C25.9968 5.26639 26.1068 5.52034 26.294 5.70758C26.4813 5.89481 26.7352 6 27 6C27.2648 6 27.5187 5.89481 27.706 5.70758C27.8932 5.52034 27.9984 5.26639 27.9984 5.0016C27.9984 4.73681 27.8932 4.48286 27.706 4.29562C27.5187 4.10839 27.2648 3.9984 27 3.9984C26.7352 3.9984 26.4813 4.10839 26.294 4.29562C26.1068 4.48286 25.9968 4.73681 25.9968 5.0016ZM27.9984 5.0016C27.9984 5.26639 28.1084 5.52034 28.2956 5.70758C28.4829 5.89481 28.7368 6 29.0016 6C29.2664 6 29.5203 5.89481 29.7076 5.70758C29.8948 5.52034 30 5.26639 30 5.0016C30 4.73681 29.8948 4.48286 29.7076 4.29562C29.5203 4.10839 29.2664 3.9984 29.0016 3.9984C28.7368 3.9984 28.4829 4.10839 28.2956 4.29562C28.1084 4.48286 27.9984 4.73681 27.9984 5.0016ZM30 5.0016C30 5.26639 30.1052 5.52034 30.2924 5.70758C30.4797 5.89481 30.7336 6 30.9984 6C31.2632 6 31.5171 5.89481 31.7044 5.70758C31.8916 5.52034 31.9968 5.26639 31.9968 5.0016C31.9968 4.73681 31.8916 4.48286 31.7044 4.29562C31.5171 4.10839 31.2632 3.9984 30.9984 3.9984C30.7336 3.9984 30.4797 4.10839 30.2924 4.29562C30.1052 4.48286 30 4.73681 30 5.0016ZM31.9968 5.0016C31.9968 5.26639 32.1068 5.52034 32.294 5.70758C32.4813 5.89481 32.7352 6 33 6C33.2648 6 33.5187 5.89481 33.706 5.70758C33.8932 5.52034 33.9984 5.26639 33.9984 5.0016C33.9984 4.73681 33.8932 4.48286 33.706 4.29562C33.5187 4.10839 33.2648 3.9984 33 3.9984C32.7352 3.9984 32.4813 4.10839 32.294 4.29562C32.1068 4.48286 31.9968 4.73681 31.9968 5.0016ZM18 6.9984C18 7.26319 18.1052 7.51714 18.2924 7.70438C18.4797 7.89161 18.7336 7.9968 18.9984 7.9968C19.2632 7.9968 19.5171 7.89161 19.7044 7.70438C19.8916 7.51714 19.9968 7.26319 19.9968 6.9984C19.9968 6.73361 19.8916 6.47966 19.7044 6.29242C19.5171 6.10519 19.2632 6 18.9984 6C18.7336 6 18.4797 6.10519 18.2924 6.29242C18.1052 6.47966 18 6.73361 18 6.9984ZM19.9968 6.9984C19.9968 7.26319 20.1068 7.51714 20.294 7.70438C20.4813 7.89161 20.7352 7.9968 21 7.9968C21.2648 7.9968 21.5187 7.89161 21.706 7.70438C21.8932 7.51714 21.9984 7.26319 21.9984 6.9984C21.9984 6.73361 21.8932 6.47966 21.706 6.29242C21.5187 6.10519 21.2648 6 21 6C20.7352 6 20.4813 6.10519 20.294 6.29242C20.1068 6.47966 19.9968 6.73361 19.9968 6.9984ZM21.9984 6.9984C21.9984 7.26319 22.1084 7.51714 22.2956 7.70438C22.4829 7.89161 22.7368 7.9968 23.0016 7.9968C23.2664 7.9968 23.5203 7.89161 23.7076 7.70438C23.8948 7.51714 24 7.26319 24 6.9984C24 6.73361 23.8948 6.47966 23.7076 6.29242C23.5203 6.10519 23.2664 6 23.0016 6C22.7368 6 22.4829 6.10519 22.2956 6.29242C22.1084 6.47966 21.9984 6.73361 21.9984 6.9984ZM24 6.9984C24 7.26319 24.1052 7.51714 24.2924 7.70438C24.4797 7.89161 24.7336 7.9968 24.9984 7.9968C25.2632 7.9968 25.5171 7.89161 25.7044 7.70438C25.8916 7.51714 25.9968 7.26319 25.9968 6.9984C25.9968 6.73361 25.8916 6.47966 25.7044 6.29242C25.5171 6.10519 25.2632 6 24.9984 6C24.7336 6 24.4797 6.10519 24.2924 6.29242C24.1052 6.47966 24 6.73361 24 6.9984ZM25.9968 6.9984C25.9968 7.26319 26.1068 7.51714 26.294 7.70438C26.4813 7.89161 26.7352 7.9968 27 7.9968C27.2648 7.9968 27.5187 7.89161 27.706 7.70438C27.8932 7.51714 27.9984 7.26319 27.9984 6.9984C27.9984 6.73361 27.8932 6.47966 27.706 6.29242C27.5187 6.10519 27.2648 6 27 6C26.7352 6 26.4813 6.10519 26.294 6.29242C26.1068 6.47966 25.9968 6.73361 25.9968 6.9984ZM27.9984 6.9984C27.9984 7.26319 28.1084 7.51714 28.2956 7.70438C28.4829 7.89161 28.7368 7.9968 29.0016 7.9968C29.2664 7.9968 29.5203 7.89161 29.7076 7.70438C29.8948 7.51714 30 7.26319 30 6.9984C30 6.73361 29.8948 6.47966 29.7076 6.29242C29.5203 6.10519 29.2664 6 29.0016 6C28.7368 6 28.4829 6.10519 28.2956 6.29242C28.1084 6.47966 27.9984 6.73361 27.9984 6.9984ZM30 6.9984C30 7.26319 30.1052 7.51714 30.2924 7.70438C30.4797 7.89161 30.7336 7.9968 30.9984 7.9968C31.2632 7.9968 31.5171 7.89161 31.7044 7.70438C31.8916 7.51714 31.9968 7.26319 31.9968 6.9984C31.9968 6.73361 31.8916 6.47966 31.7044 6.29242C31.5171 6.10519 31.2632 6 30.9984 6C30.7336 6 30.4797 6.10519 30.2924 6.29242C30.1052 6.47966 30 6.73361 30 6.9984ZM31.9968 6.9984C31.9968 7.26319 32.1068 7.51714 32.294 7.70438C32.4813 7.89161 32.7352 7.9968 33 7.9968C33.2648 7.9968 33.5187 7.89161 33.706 7.70438C33.8932 7.51714 33.9984 7.26319 33.9984 6.9984C33.9984 6.73361 33.8932 6.47966 33.706 6.29242C33.5187 6.10519 33.2648 6 33 6C32.7352 6 32.4813 6.10519 32.294 6.29242C32.1068 6.47966 31.9968 6.73361 31.9968 6.9984ZM18 9C18 9.26479 18.1052 9.51874 18.2924 9.70598C18.4797 9.89321 18.7336 9.9984 18.9984 9.9984C19.2632 9.9984 19.5171 9.89321 19.7044 9.70598C19.8916 9.51874 19.9968 9.26479 19.9968 9C19.9968 8.73521 19.8916 8.48126 19.7044 8.29402C19.5171 8.10679 19.2632 7.9968 18.9984 7.9968C18.7336 7.9968 18.4797 8.10679 18.2924 8.29402C18.1052 8.48126 18 8.73521 18 9ZM19.9968 9C19.9968 9.26479 20.1068 9.51874 20.294 9.70598C20.4813 9.89321 20.7352 9.9984 21 9.9984C21.2648 9.9984 21.5187 9.89321 21.706 9.70598C21.8932 9.51874 21.9984 9.26479 21.9984 9C21.9984 8.73521 21.8932 8.48126 21.706 8.29402C21.5187 8.10679 21.2648 7.9968 21 7.9968C20.7352 7.9968 20.4813 8.10679 20.294 8.29402C20.1068 8.48126 19.9968 8.73521 19.9968 9ZM21.9984 9C21.9984 9.26479 22.1084 9.51874 22.2956 9.70598C22.4829 9.89321 22.7368 9.9984 23.0016 9.9984C23.2664 9.9984 23.5203 9.89321 23.7076 9.70598C23.8948 9.51874 24 9.26479 24 9C24 8.73521 23.8948 8.48126 23.7076 8.29402C23.5203 8.10679 23.2664 7.9968 23.0016 7.9968C22.7368 7.9968 22.4829 8.10679 22.2956 8.29402C22.1084 8.48126 21.9984 8.73521 21.9984 9ZM24 9C24 9.26479 24.1052 9.51874 24.2924 9.70598C24.4797 9.89321 24.7336 9.9984 24.9984 9.9984C25.2632 9.9984 25.5171 9.89321 25.7044 9.70598C25.8916 9.51874 25.9968 9.26479 25.9968 9C25.9968 8.73521 25.8916 8.48126 25.7044 8.29402C25.5171 8.10679 25.2632 7.9968 24.9984 7.9968C24.7336 7.9968 24.4797 8.10679 24.2924 8.29402C24.1052 8.48126 24 8.73521 24 9ZM25.9968 9C25.9968 9.26479 26.1068 9.51874 26.294 9.70598C26.4813 9.89321 26.7352 9.9984 27 9.9984C27.2648 9.9984 27.5187 9.89321 27.706 9.70598C27.8932 9.51874 27.9984 9.26479 27.9984 9C27.9984 8.73521 27.8932 8.48126 27.706 8.29402C27.5187 8.10679 27.2648 7.9968 27 7.9968C26.7352 7.9968 26.4813 8.10679 26.294 8.29402C26.1068 8.48126 25.9968 8.73521 25.9968 9ZM27.9984 9C27.9984 9.26479 28.1084 9.51874 28.2956 9.70598C28.4829 9.89321 28.7368 9.9984 29.0016 9.9984C29.2664 9.9984 29.5203 9.89321 29.7076 9.70598C29.8948 9.51874 30 9.26479 30 9C30 8.73521 29.8948 8.48126 29.7076 8.29402C29.5203 8.10679 29.2664 7.9968 29.0016 7.9968C28.7368 7.9968 28.4829 8.10679 28.2956 8.29402C28.1084 8.48126 27.9984 8.73521 27.9984 9ZM30 9C30 9.26479 30.1052 9.51874 30.2924 9.70598C30.4797 9.89321 30.7336 9.9984 30.9984 9.9984C31.2632 9.9984 31.5171 9.89321 31.7044 9.70598C31.8916 9.51874 31.9968 9.26479 31.9968 9C31.9968 8.73521 31.8916 8.48126 31.7044 8.29402C31.5171 8.10679 31.2632 7.9968 30.9984 7.9968C30.7336 7.9968 30.4797 8.10679 30.2924 8.29402C30.1052 8.48126 30 8.73521 30 9ZM18 11.0016C18 11.2664 18.1052 11.5203 18.2924 11.7076C18.4797 11.8948 18.7336 12 18.9984 12C19.2632 12 19.5171 11.8948 19.7044 11.7076C19.8916 11.5203 19.9968 11.2664 19.9968 11.0016C19.9968 10.7368 19.8916 10.4829 19.7044 10.2956C19.5171 10.1084 19.2632 9.9984 18.9984 9.9984C18.7336 9.9984 18.4797 10.1084 18.2924 10.2956C18.1052 10.4829 18 10.7368 18 11.0016ZM19.9968 11.0016C19.9968 11.2664 20.1068 11.5203 20.294 11.7076C20.4813 11.8948 20.7352 12 21 12C21.2648 12 21.5187 11.8948 21.706 11.7076C21.8932 11.5203 21.9984 11.2664 21.9984 11.0016C21.9984 10.7368 21.8932 10.4829 21.706 10.2956C21.5187 10.1084 21.2648 9.9984 21 9.9984C20.7352 9.9984 20.4813 10.1084 20.294 10.2956C20.1068 10.4829 19.9968 10.7368 19.9968 11.0016ZM21.9984 11.0016C21.9984 11.2664 22.1084 11.5203 22.2956 11.7076C22.4829 11.8948 22.7368 12 23.0016 12C23.2664 12 23.5203 11.8948 23.7076 11.7076C23.8948 11.5203 24 11.2664 24 11.0016C24 10.7368 23.8948 10.4829 23.7076 10.2956C23.5203 10.1084 23.2664 9.9984 23.0016 9.9984C22.7368 9.9984 22.4829 10.1084 22.2956 10.2956C22.1084 10.4829 21.9984 10.7368 21.9984 11.0016ZM24 11.0016C24 11.2664 24.1052 11.5203 24.2924 11.7076C24.4797 11.8948 24.7336 12 24.9984 12C25.2632 12 25.5171 11.8948 25.7044 11.7076C25.8916 11.5203 25.9968 11.2664 25.9968 11.0016C25.9968 10.7368 25.8916 10.4829 25.7044 10.2956C25.5171 10.1084 25.2632 9.9984 24.9984 9.9984C24.7336 9.9984 24.4797 10.1084 24.2924 10.2956C24.1052 10.4829 24 10.7368 24 11.0016ZM25.9968 11.0016C25.9968 11.2664 26.1068 11.5203 26.294 11.7076C26.4813 11.8948 26.7352 12 27 12C27.2648 12 27.5187 11.8948 27.706 11.7076C27.8932 11.5203 27.9984 11.2664 27.9984 11.0016C27.9984 10.7368 27.8932 10.4829 27.706 10.2956C27.5187 10.1084 27.2648 9.9984 27 9.9984C26.7352 9.9984 26.4813 10.1084 26.294 10.2956C26.1068 10.4829 25.9968 10.7368 25.9968 11.0016ZM27.9984 11.0016C27.9984 11.2664 28.1084 11.5203 28.2956 11.7076C28.4829 11.8948 28.7368 12 29.0016 12C29.2664 12 29.5203 11.8948 29.7076 11.7076C29.8948 11.5203 30 11.2664 30 11.0016C30 10.7368 29.8948 10.4829 29.7076 10.2956C29.5203 10.1084 29.2664 9.9984 29.0016 9.9984C28.7368 9.9984 28.4829 10.1084 28.2956 10.2956C28.1084 10.4829 27.9984 10.7368 27.9984 11.0016ZM18 12.9984C18 13.2632 18.1052 13.5171 18.2924 13.7044C18.4797 13.8916 18.7336 13.9968 18.9984 13.9968C19.2632 13.9968 19.5171 13.8916 19.7044 13.7044C19.8916 13.5171 19.9968 13.2632 19.9968 12.9984C19.9968 12.7336 19.8916 12.4797 19.7044 12.2924C19.5171 12.1052 19.2632 12 18.9984 12C18.7336 12 18.4797 12.1052 18.2924 12.2924C18.1052 12.4797 18 12.7336 18 12.9984ZM19.9968 12.9984C19.9968 13.2632 20.1068 13.5171 20.294 13.7044C20.4813 13.8916 20.7352 13.9968 21 13.9968C21.2648 13.9968 21.5187 13.8916 21.706 13.7044C21.8932 13.5171 21.9984 13.2632 21.9984 12.9984C21.9984 12.7336 21.8932 12.4797 21.706 12.2924C21.5187 12.1052 21.2648 12 21 12C20.7352 12 20.4813 12.1052 20.294 12.2924C20.1068 12.4797 19.9968 12.7336 19.9968 12.9984ZM21.9984 12.9984C21.9984 13.2632 22.1084 13.5171 22.2956 13.7044C22.4829 13.8916 22.7368 13.9968 23.0016 13.9968C23.2664 13.9968 23.5203 13.8916 23.7076 13.7044C23.8948 13.5171 24 13.2632 24 12.9984C24 12.7336 23.8948 12.4797 23.7076 12.2924C23.5203 12.1052 23.2664 12 23.0016 12C22.7368 12 22.4829 12.1052 22.2956 12.2924C22.1084 12.4797 21.9984 12.7336 21.9984 12.9984ZM24 12.9984C24 13.2632 24.1052 13.5171 24.2924 13.7044C24.4797 13.8916 24.7336 13.9968 24.9984 13.9968C25.2632 13.9968 25.5171 13.8916 25.7044 13.7044C25.8916 13.5171 25.9968 13.2632 25.9968 12.9984C25.9968 12.7336 25.8916 12.4797 25.7044 12.2924C25.5171 12.1052 25.2632 12 24.9984 12C24.7336 12 24.4797 12.1052 24.2924 12.2924C24.1052 12.4797 24 12.7336 24 12.9984ZM25.9968 12.9984C25.9968 13.2632 26.1068 13.5171 26.294 13.7044C26.4813 13.8916 26.7352 13.9968 27 13.9968C27.2648 13.9968 27.5187 13.8916 27.706 13.7044C27.8932 13.5171 27.9984 13.2632 27.9984 12.9984C27.9984 12.7336 27.8932 12.4797 27.706 12.2924C27.5187 12.1052 27.2648 12 27 12C26.7352 12 26.4813 12.1052 26.294 12.2924C26.1068 12.4797 25.9968 12.7336 25.9968 12.9984ZM27.9984 12.9984C27.9984 13.2632 28.1084 13.5171 28.2956 13.7044C28.4829 13.8916 28.7368 13.9968 29.0016 13.9968C29.2664 13.9968 29.5203 13.8916 29.7076 13.7044C29.8948 13.5171 30 13.2632 30 12.9984C30 12.7336 29.8948 12.4797 29.7076 12.2924C29.5203 12.1052 29.2664 12 29.0016 12C28.7368 12 28.4829 12.1052 28.2956 12.2924C28.1084 12.4797 27.9984 12.7336 27.9984 12.9984ZM30 12.9984C30 13.2632 30.1052 13.5171 30.2924 13.7044C30.4797 13.8916 30.7336 13.9968 30.9984 13.9968C31.2632 13.9968 31.5171 13.8916 31.7044 13.7044C31.8916 13.5171 31.9968 13.2632 31.9968 12.9984C31.9968 12.7336 31.8916 12.4797 31.7044 12.2924C31.5171 12.1052 31.2632 12 30.9984 12C30.7336 12 30.4797 12.1052 30.2924 12.2924C30.1052 12.4797 30 12.7336 30 12.9984ZM31.9968 12.9984C31.9968 13.2632 32.1068 13.5171 32.294 13.7044C32.4813 13.8916 32.7352 13.9968 33 13.9968C33.2648 13.9968 33.5187 13.8916 33.706 13.7044C33.8932 13.5171 33.9984 13.2632 33.9984 12.9984C33.9984 12.7336 33.8932 12.4797 33.706 12.2924C33.5187 12.1052 33.2648 12 33 12C32.7352 12 32.4813 12.1052 32.294 12.2924C32.1068 12.4797 31.9968 12.7336 31.9968 12.9984ZM18 15C18 15.2648 18.1052 15.5187 18.2924 15.706C18.4797 15.8932 18.7336 15.9984 18.9984 15.9984C19.2632 15.9984 19.5171 15.8932 19.7044 15.706C19.8916 15.5187 19.9968 15.2648 19.9968 15C19.9968 14.7352 19.8916 14.4813 19.7044 14.294C19.5171 14.1068 19.2632 13.9968 18.9984 13.9968C18.7336 13.9968 18.4797 14.1068 18.2924 14.294C18.1052 14.4813 18 14.7352 18 15ZM19.9968 15C19.9968 15.2648 20.1068 15.5187 20.294 15.706C20.4813 15.8932 20.7352 15.9984 21 15.9984C21.2648 15.9984 21.5187 15.8932 21.706 15.706C21.8932 15.5187 21.9984 15.2648 21.9984 15C21.9984 14.7352 21.8932 14.4813 21.706 14.294C21.5187 14.1068 21.2648 13.9968 21 13.9968C20.7352 13.9968 20.4813 14.1068 20.294 14.294C20.1068 14.4813 19.9968 14.7352 19.9968 15ZM21.9984 15C21.9984 15.2648 22.1084 15.5187 22.2956 15.706C22.4829 15.8932 22.7368 15.9984 23.0016 15.9984C23.2664 15.9984 23.5203 15.8932 23.7076 15.706C23.8948 15.5187 24 15.2648 24 15C24 14.7352 23.8948 14.4813 23.7076 14.294C23.5203 14.1068 23.2664 13.9968 23.0016 13.9968C22.7368 13.9968 22.4829 14.1068 22.2956 14.294C22.1084 14.4813 21.9984 14.7352 21.9984 15ZM24 15C24 15.2648 24.1052 15.5187 24.2924 15.706C24.4797 15.8932 24.7336 15.9984 24.9984 15.9984C25.2632 15.9984 25.5171 15.8932 25.7044 15.706C25.8916 15.5187 25.9968 15.2648 25.9968 15C25.9968 14.7352 25.8916 14.4813 25.7044 14.294C25.5171 14.1068 25.2632 13.9968 24.9984 13.9968C24.7336 13.9968 24.4797 14.1068 24.2924 14.294C24.1052 14.4813 24 14.7352 24 15ZM25.9968 15C25.9968 15.2648 26.1068 15.5187 26.294 15.706C26.4813 15.8932 26.7352 15.9984 27 15.9984C27.2648 15.9984 27.5187 15.8932 27.706 15.706C27.8932 15.5187 27.9984 15.2648 27.9984 15C27.9984 14.7352 27.8932 14.4813 27.706 14.294C27.5187 14.1068 27.2648 13.9968 27 13.9968C26.7352 13.9968 26.4813 14.1068 26.294 14.294C26.1068 14.4813 25.9968 14.7352 25.9968 15ZM27.9984 15C27.9984 15.2648 28.1084 15.5187 28.2956 15.706C28.4829 15.8932 28.7368 15.9984 29.0016 15.9984C29.2664 15.9984 29.5203 15.8932 29.7076 15.706C29.8948 15.5187 30 15.2648 30 15C30 14.7352 29.8948 14.4813 29.7076 14.294C29.5203 14.1068 29.2664 13.9968 29.0016 13.9968C28.7368 13.9968 28.4829 14.1068 28.2956 14.294C28.1084 14.4813 27.9984 14.7352 27.9984 15ZM30 15C30 15.2648 30.1052 15.5187 30.2924 15.706C30.4797 15.8932 30.7336 15.9984 30.9984 15.9984C31.2632 15.9984 31.5171 15.8932 31.7044 15.706C31.8916 15.5187 31.9968 15.2648 31.9968 15C31.9968 14.7352 31.8916 14.4813 31.7044 14.294C31.5171 14.1068 31.2632 13.9968 30.9984 13.9968C30.7336 13.9968 30.4797 14.1068 30.2924 14.294C30.1052 14.4813 30 14.7352 30 15ZM31.9968 15C31.9968 15.2648 32.1068 15.5187 32.294 15.706C32.4813 15.8932 32.7352 15.9984 33 15.9984C33.2648 15.9984 33.5187 15.8932 33.706 15.706C33.8932 15.5187 33.9984 15.2648 33.9984 15C33.9984 14.7352 33.8932 14.4813 33.706 14.294C33.5187 14.1068 33.2648 13.9968 33 13.9968C32.7352 13.9968 32.4813 14.1068 32.294 14.294C32.1068 14.4813 31.9968 14.7352 31.9968 15ZM18 17.0016C18 17.2664 18.1052 17.5203 18.2924 17.7076C18.4797 17.8948 18.7336 18 18.9984 18C19.2632 18 19.5171 17.8948 19.7044 17.7076C19.8916 17.5203 19.9968 17.2664 19.9968 17.0016C19.9968 16.7368 19.8916 16.4829 19.7044 16.2956C19.5171 16.1084 19.2632 15.9984 18.9984 15.9984C18.7336 15.9984 18.4797 16.1084 18.2924 16.2956C18.1052 16.4829 18 16.7368 18 17.0016ZM19.9968 17.0016C19.9968 17.2664 20.1068 17.5203 20.294 17.7076C20.4813 17.8948 20.7352 18 21 18C21.2648 18 21.5187 17.8948 21.706 17.7076C21.8932 17.5203 21.9984 17.2664 21.9984 17.0016C21.9984 16.7368 21.8932 16.4829 21.706 16.2956C21.5187 16.1084 21.2648 15.9984 21 15.9984C20.7352 15.9984 20.4813 16.1084 20.294 16.2956C20.1068 16.4829 19.9968 16.7368 19.9968 17.0016ZM21.9984 17.0016C21.9984 17.2664 22.1084 17.5203 22.2956 17.7076C22.4829 17.8948 22.7368 18 23.0016 18C23.2664 18 23.5203 17.8948 23.7076 17.7076C23.8948 17.5203 24 17.2664 24 17.0016C24 16.7368 23.8948 16.4829 23.7076 16.2956C23.5203 16.1084 23.2664 15.9984 23.0016 15.9984C22.7368 15.9984 22.4829 16.1084 22.2956 16.2956C22.1084 16.4829 21.9984 16.7368 21.9984 17.0016ZM24 17.0016C24 17.2664 24.1052 17.5203 24.2924 17.7076C24.4797 17.8948 24.7336 18 24.9984 18C25.2632 18 25.5171 17.8948 25.7044 17.7076C25.8916 17.5203 25.9968 17.2664 25.9968 17.0016C25.9968 16.7368 25.8916 16.4829 25.7044 16.2956C25.5171 16.1084 25.2632 15.9984 24.9984 15.9984C24.7336 15.9984 24.4797 16.1084 24.2924 16.2956C24.1052 16.4829 24 16.7368 24 17.0016ZM25.9968 17.0016C25.9968 17.2664 26.1068 17.5203 26.294 17.7076C26.4813 17.8948 26.7352 18 27 18C27.2648 18 27.5187 17.8948 27.706 17.7076C27.8932 17.5203 27.9984 17.2664 27.9984 17.0016C27.9984 16.7368 27.8932 16.4829 27.706 16.2956C27.5187 16.1084 27.2648 15.9984 27 15.9984C26.7352 15.9984 26.4813 16.1084 26.294 16.2956C26.1068 16.4829 25.9968 16.7368 25.9968 17.0016ZM27.9984 17.0016C27.9984 17.2664 28.1084 17.5203 28.2956 17.7076C28.4829 17.8948 28.7368 18 29.0016 18C29.2664 18 29.5203 17.8948 29.7076 17.7076C29.8948 17.5203 30 17.2664 30 17.0016C30 16.7368 29.8948 16.4829 29.7076 16.2956C29.5203 16.1084 29.2664 15.9984 29.0016 15.9984C28.7368 15.9984 28.4829 16.1084 28.2956 16.2956C28.1084 16.4829 27.9984 16.7368 27.9984 17.0016ZM30 17.0016C30 17.2664 30.1052 17.5203 30.2924 17.7076C30.4797 17.8948 30.7336 18 30.9984 18C31.2632 18 31.5171 17.8948 31.7044 17.7076C31.8916 17.5203 31.9968 17.2664 31.9968 17.0016C31.9968 16.7368 31.8916 16.4829 31.7044 16.2956C31.5171 16.1084 31.2632 15.9984 30.9984 15.9984C30.7336 15.9984 30.4797 16.1084 30.2924 16.2956C30.1052 16.4829 30 16.7368 30 17.0016ZM31.9968 17.0016C31.9968 17.2664 32.1068 17.5203 32.294 17.7076C32.4813 17.8948 32.7352 18 33 18C33.2648 18 33.5187 17.8948 33.706 17.7076C33.8932 17.5203 33.9984 17.2664 33.9984 17.0016C33.9984 16.7368 33.8932 16.4829 33.706 16.2956C33.5187 16.1084 33.2648 15.9984 33 15.9984C32.7352 15.9984 32.4813 16.1084 32.294 16.2956C32.1068 16.4829 31.9968 16.7368 31.9968 17.0016ZM18 18.9984C18 19.2632 18.1052 19.5171 18.2924 19.7044C18.4797 19.8916 18.7336 19.9968 18.9984 19.9968C19.2632 19.9968 19.5171 19.8916 19.7044 19.7044C19.8916 19.5171 19.9968 19.2632 19.9968 18.9984C19.9968 18.7336 19.8916 18.4797 19.7044 18.2924C19.5171 18.1052 19.2632 18 18.9984 18C18.7336 18 18.4797 18.1052 18.2924 18.2924C18.1052 18.4797 18 18.7336 18 18.9984ZM19.9968 18.9984C19.9968 19.2632 20.1068 19.5171 20.294 19.7044C20.4813 19.8916 20.7352 19.9968 21 19.9968C21.2648 19.9968 21.5187 19.8916 21.706 19.7044C21.8932 19.5171 21.9984 19.2632 21.9984 18.9984C21.9984 18.7336 21.8932 18.4797 21.706 18.2924C21.5187 18.1052 21.2648 18 21 18C20.7352 18 20.4813 18.1052 20.294 18.2924C20.1068 18.4797 19.9968 18.7336 19.9968 18.9984ZM21.9984 18.9984C21.9984 19.2632 22.1084 19.5171 22.2956 19.7044C22.4829 19.8916 22.7368 19.9968 23.0016 19.9968C23.2664 19.9968 23.5203 19.8916 23.7076 19.7044C23.8948 19.5171 24 19.2632 24 18.9984C24 18.7336 23.8948 18.4797 23.7076 18.2924C23.5203 18.1052 23.2664 18 23.0016 18C22.7368 18 22.4829 18.1052 22.2956 18.2924C22.1084 18.4797 21.9984 18.7336 21.9984 18.9984ZM24 18.9984C24 19.2632 24.1052 19.5171 24.2924 19.7044C24.4797 19.8916 24.7336 19.9968 24.9984 19.9968C25.2632 19.9968 25.5171 19.8916 25.7044 19.7044C25.8916 19.5171 25.9968 19.2632 25.9968 18.9984C25.9968 18.7336 25.8916 18.4797 25.7044 18.2924C25.5171 18.1052 25.2632 18 24.9984 18C24.7336 18 24.4797 18.1052 24.2924 18.2924C24.1052 18.4797 24 18.7336 24 18.9984ZM25.9968 18.9984C25.9968 19.2632 26.1068 19.5171 26.294 19.7044C26.4813 19.8916 26.7352 19.9968 27 19.9968C27.2648 19.9968 27.5187 19.8916 27.706 19.7044C27.8932 19.5171 27.9984 19.2632 27.9984 18.9984C27.9984 18.7336 27.8932 18.4797 27.706 18.2924C27.5187 18.1052 27.2648 18 27 18C26.7352 18 26.4813 18.1052 26.294 18.2924C26.1068 18.4797 25.9968 18.7336 25.9968 18.9984ZM27.9984 18.9984C27.9984 19.2632 28.1084 19.5171 28.2956 19.7044C28.4829 19.8916 28.7368 19.9968 29.0016 19.9968C29.2664 19.9968 29.5203 19.8916 29.7076 19.7044C29.8948 19.5171 30 19.2632 30 18.9984C30 18.7336 29.8948 18.4797 29.7076 18.2924C29.5203 18.1052 29.2664 18 29.0016 18C28.7368 18 28.4829 18.1052 28.2956 18.2924C28.1084 18.4797 27.9984 18.7336 27.9984 18.9984ZM30 18.9984C30 19.2632 30.1052 19.5171 30.2924 19.7044C30.4797 19.8916 30.7336 19.9968 30.9984 19.9968C31.2632 19.9968 31.5171 19.8916 31.7044 19.7044C31.8916 19.5171 31.9968 19.2632 31.9968 18.9984C31.9968 18.7336 31.8916 18.4797 31.7044 18.2924C31.5171 18.1052 31.2632 18 30.9984 18C30.7336 18 30.4797 18.1052 30.2924 18.2924C30.1052 18.4797 30 18.7336 30 18.9984ZM22.0032 21C22.0032 21.2648 22.1084 21.5187 22.2956 21.706C22.4829 21.8932 22.7368 21.9984 23.0016 21.9984C23.2664 21.9984 23.5203 21.8932 23.7076 21.706C23.8948 21.5187 24 21.2648 24 21C24 20.7352 23.8948 20.4813 23.7076 20.294C23.5203 20.1068 23.2664 19.9968 23.0016 19.9968C22.7368 19.9968 22.4829 20.1068 22.2956 20.294C22.1084 20.4813 22.0032 20.7352 22.0032 21ZM24 21C24 21.2648 24.1052 21.5187 24.2924 21.706C24.4797 21.8932 24.7336 21.9984 24.9984 21.9984C25.2632 21.9984 25.5171 21.8932 25.7044 21.706C25.8916 21.5187 25.9968 21.2648 25.9968 21C25.9968 20.7352 25.8916 20.4813 25.7044 20.294C25.5171 20.1068 25.2632 19.9968 24.9984 19.9968C24.7336 19.9968 24.4797 20.1068 24.2924 20.294C24.1052 20.4813 24 20.7352 24 21ZM25.9968 21C25.9968 21.2648 26.1068 21.5187 26.294 21.706C26.4813 21.8932 26.7352 21.9984 27 21.9984C27.2648 21.9984 27.5187 21.8932 27.706 21.706C27.8932 21.5187 27.9984 21.2648 27.9984 21C27.9984 20.7352 27.8932 20.4813 27.706 20.294C27.5187 20.1068 27.2648 19.9968 27 19.9968C26.7352 19.9968 26.4813 20.1068 26.294 20.294C26.1068 20.4813 25.9968 20.7352 25.9968 21ZM27.9984 21C27.9984 21.2648 28.1084 21.5187 28.2956 21.706C28.4829 21.8932 28.7368 21.9984 29.0016 21.9984C29.2664 21.9984 29.5203 21.8932 29.7076 21.706C29.8948 21.5187 30 21.2648 30 21C30 20.7352 29.8948 20.4813 29.7076 20.294C29.5203 20.1068 29.2664 19.9968 29.0016 19.9968C28.7368 19.9968 28.4829 20.1068 28.2956 20.294C28.1084 20.4813 27.9984 20.7352 27.9984 21ZM30 21C30 21.2648 30.1052 21.5187 30.2924 21.706C30.4797 21.8932 30.7336 21.9984 30.9984 21.9984C31.2632 21.9984 31.5171 21.8932 31.7044 21.706C31.8916 21.5187 31.9968 21.2648 31.9968 21C31.9968 20.7352 31.8916 20.4813 31.7044 20.294C31.5171 20.1068 31.2632 19.9968 30.9984 19.9968C30.7336 19.9968 30.4797 20.1068 30.2924 20.294C30.1052 20.4813 30 20.7352 30 21ZM22.0032 23.0016C22.0032 23.2664 22.1084 23.5203 22.2956 23.7076C22.4829 23.8948 22.7368 24 23.0016 24C23.2664 24 23.5203 23.8948 23.7076 23.7076C23.8948 23.5203 24 23.2664 24 23.0016C24 22.7368 23.8948 22.4829 23.7076 22.2956C23.5203 22.1084 23.2664 21.9984 23.0016 21.9984C22.7368 21.9984 22.4829 22.1084 22.2956 22.2956C22.1084 22.4829 22.0032 22.7368 22.0032 23.0016ZM24 23.0016C24 23.2664 24.1052 23.5203 24.2924 23.7076C24.4797 23.8948 24.7336 24 24.9984 24C25.2632 24 25.5171 23.8948 25.7044 23.7076C25.8916 23.5203 25.9968 23.2664 25.9968 23.0016C25.9968 22.7368 25.8916 22.4829 25.7044 22.2956C25.5171 22.1084 25.2632 21.9984 24.9984 21.9984C24.7336 21.9984 24.4797 22.1084 24.2924 22.2956C24.1052 22.4829 24 22.7368 24 23.0016ZM25.9968 23.0016C25.9968 23.2664 26.1068 23.5203 26.294 23.7076C26.4813 23.8948 26.7352 24 27 24C27.2648 24 27.5187 23.8948 27.706 23.7076C27.8932 23.5203 27.9984 23.2664 27.9984 23.0016C27.9984 22.7368 27.8932 22.4829 27.706 22.2956C27.5187 22.1084 27.2648 21.9984 27 21.9984C26.7352 21.9984 26.4813 22.1084 26.294 22.2956C26.1068 22.4829 25.9968 22.7368 25.9968 23.0016ZM27.9984 23.0016C27.9984 23.2664 28.1084 23.5203 28.2956 23.7076C28.4829 23.8948 28.7368 24 29.0016 24C29.2664 24 29.5203 23.8948 29.7076 23.7076C29.8948 23.5203 30 23.2664 30 23.0016C30 22.7368 29.8948 22.4829 29.7076 22.2956C29.5203 22.1084 29.2664 21.9984 29.0016 21.9984C28.7368 21.9984 28.4829 22.1084 28.2956 22.2956C28.1084 22.4829 27.9984 22.7368 27.9984 23.0016ZM22.0032 24.9984C22.0032 25.2632 22.1084 25.5171 22.2956 25.7044C22.4829 25.8916 22.7368 25.9968 23.0016 25.9968C23.2664 25.9968 23.5203 25.8916 23.7076 25.7044C23.8948 25.5171 24 25.2632 24 24.9984C24 24.7336 23.8948 24.4797 23.7076 24.2924C23.5203 24.1052 23.2664 24 23.0016 24C22.7368 24 22.4829 24.1052 22.2956 24.2924C22.1084 24.4797 22.0032 24.7336 22.0032 24.9984ZM24 24.9984C24 25.2632 24.1052 25.5171 24.2924 25.7044C24.4797 25.8916 24.7336 25.9968 24.9984 25.9968C25.2632 25.9968 25.5171 25.8916 25.7044 25.7044C25.8916 25.5171 25.9968 25.2632 25.9968 24.9984C25.9968 24.7336 25.8916 24.4797 25.7044 24.2924C25.5171 24.1052 25.2632 24 24.9984 24C24.7336 24 24.4797 24.1052 24.2924 24.2924C24.1052 24.4797 24 24.7336 24 24.9984ZM25.9968 24.9984C25.9968 25.2632 26.1068 25.5171 26.294 25.7044C26.4813 25.8916 26.7352 25.9968 27 25.9968C27.2648 25.9968 27.5187 25.8916 27.706 25.7044C27.8932 25.5171 27.9984 25.2632 27.9984 24.9984C27.9984 24.7336 27.8932 24.4797 27.706 24.2924C27.5187 24.1052 27.2648 24 27 24C26.7352 24 26.4813 24.1052 26.294 24.2924C26.1068 24.4797 25.9968 24.7336 25.9968 24.9984ZM27.9984 24.9984C27.9984 25.2632 28.1084 25.5171 28.2956 25.7044C28.4829 25.8916 28.7368 25.9968 29.0016 25.9968C29.2664 25.9968 29.5203 25.8916 29.7076 25.7044C29.8948 25.5171 30 25.2632 30 24.9984C30 24.7336 29.8948 24.4797 29.7076 24.2924C29.5203 24.1052 29.2664 24 29.0016 24C28.7368 24 28.4829 24.1052 28.2956 24.2924C28.1084 24.4797 27.9984 24.7336 27.9984 24.9984ZM22.0032 27C22.0032 27.2648 22.1084 27.5187 22.2956 27.706C22.4829 27.8932 22.7368 27.9984 23.0016 27.9984C23.2664 27.9984 23.5203 27.8932 23.7076 27.706C23.8948 27.5187 24 27.2648 24 27C24 26.7352 23.8948 26.4813 23.7076 26.294C23.5203 26.1068 23.2664 25.9968 23.0016 25.9968C22.7368 25.9968 22.4829 26.1068 22.2956 26.294C22.1084 26.4813 22.0032 26.7352 22.0032 27ZM24 27C24 27.2648 24.1052 27.5187 24.2924 27.706C24.4797 27.8932 24.7336 27.9984 24.9984 27.9984C25.2632 27.9984 25.5171 27.8932 25.7044 27.706C25.8916 27.5187 25.9968 27.2648 25.9968 27C25.9968 26.7352 25.8916 26.4813 25.7044 26.294C25.5171 26.1068 25.2632 25.9968 24.9984 25.9968C24.7336 25.9968 24.4797 26.1068 24.2924 26.294C24.1052 26.4813 24 26.7352 24 27ZM25.9968 27C25.9968 27.2648 26.1068 27.5187 26.294 27.706C26.4813 27.8932 26.7352 27.9984 27 27.9984C27.2648 27.9984 27.5187 27.8932 27.706 27.706C27.8932 27.5187 27.9984 27.2648 27.9984 27C27.9984 26.7352 27.8932 26.4813 27.706 26.294C27.5187 26.1068 27.2648 25.9968 27 25.9968C26.7352 25.9968 26.4813 26.1068 26.294 26.294C26.1068 26.4813 25.9968 26.7352 25.9968 27ZM24 29.0016C24 29.2664 24.1052 29.5203 24.2924 29.7076C24.4797 29.8948 24.7336 30 24.9984 30C25.2632 30 25.5171 29.8948 25.7044 29.7076C25.8916 29.5203 25.9968 29.2664 25.9968 29.0016C25.9968 28.7368 25.8916 28.4829 25.7044 28.2956C25.5171 28.1084 25.2632 27.9984 24.9984 27.9984C24.7336 27.9984 24.4797 28.1084 24.2924 28.2956C24.1052 28.4829 24 28.7368 24 29.0016ZM25.9968 29.0016C25.9968 29.2664 26.1068 29.5203 26.294 29.7076C26.4813 29.8948 26.7352 30 27 30C27.2648 30 27.5187 29.8948 27.706 29.7076C27.8932 29.5203 27.9984 29.2664 27.9984 29.0016C27.9984 28.7368 27.8932 28.4829 27.706 28.2956C27.5187 28.1084 27.2648 27.9984 27 27.9984C26.7352 27.9984 26.4813 28.1084 26.294 28.2956C26.1068 28.4829 25.9968 28.7368 25.9968 29.0016ZM24 30.9984C24 31.2632 24.1052 31.5171 24.2924 31.7044C24.4797 31.8916 24.7336 31.9968 24.9984 31.9968C25.2632 31.9968 25.5171 31.8916 25.7044 31.7044C25.8916 31.5171 25.9968 31.2632 25.9968 30.9984C25.9968 30.7336 25.8916 30.4797 25.7044 30.2924C25.5171 30.1052 25.2632 30 24.9984 30C24.7336 30 24.4797 30.1052 24.2924 30.2924C24.1052 30.4797 24 30.7336 24 30.9984ZM25.9968 30.9984C25.9968 31.2632 26.1068 31.5171 26.294 31.7044C26.4813 31.8916 26.7352 31.9968 27 31.9968C27.2648 31.9968 27.5187 31.8916 27.706 31.7044C27.8932 31.5171 27.9984 31.2632 27.9984 30.9984C27.9984 30.7336 27.8932 30.4797 27.706 30.2924C27.5187 30.1052 27.2648 30 27 30C26.7352 30 26.4813 30.1052 26.294 30.2924C26.1068 30.4797 25.9968 30.7336 25.9968 30.9984ZM24 33C24 33.2648 24.1052 33.5187 24.2924 33.706C24.4797 33.8932 24.7336 33.9984 24.9984 33.9984C25.2632 33.9984 25.5171 33.8932 25.7044 33.706C25.8916 33.5187 25.9968 33.2648 25.9968 33C25.9968 32.7352 25.8916 32.4813 25.7044 32.294C25.5171 32.1068 25.2632 31.9968 24.9984 31.9968C24.7336 31.9968 24.4797 32.1068 24.2924 32.294C24.1052 32.4813 24 32.7352 24 33ZM24 35.0016C24 35.2664 24.1052 35.5203 24.2924 35.7076C24.4797 35.8948 24.7336 36 24.9984 36C25.2632 36 25.5171 35.8948 25.7044 35.7076C25.8916 35.5203 25.9968 35.2664 25.9968 35.0016C25.9968 34.7368 25.8916 34.4829 25.7044 34.2956C25.5171 34.1084 25.2632 33.9984 24.9984 33.9984C24.7336 33.9984 24.4797 34.1084 24.2924 34.2956C24.1052 34.4829 24 34.7368 24 35.0016Z" fill="#EDEDED"/>
    </g>
    <defs>
        <clipPath id="clip0_3019_9526">
            <rect width="48" height="48" fill="white"/>
        </clipPath>
    </defs>
</svg>
