<svg class="" version="1.1" xmlns="http://www.w3.org/2000/svg" xmlns:xlink="http://www.w3.org/1999/xlink" x="0px" y="0px" viewBox="0 0 37 42" enable-background="new 0 0 37 42" xml:space="preserve"><path fill-rule="evenodd" clip-rule="evenodd" d="M9.8,22.2h4.5c2.9,0,3.9-1.1,3.9-3c0-1.7-0.9-2.7-3-2.9v-0.1c1.5-0.2,2.6-0.9,2.6-2.6c0-2.2-1.7-3.2-3.9-3.2H8.1v1.2c0.8,0,1.1,0.2,1.1,1.2v8.6c0,0.1,0,0.2,0.1,0.3c0,0.1,0.1,0.2,0.1,0.2c0.1,0.1,0.1,0.1,0.2,0.1C9.6,22.1,9.7,22.2,9.8,22.2z M12.2,11.8h0.7c1.2,0,1.7,0.5,1.7,1.9c0,1.6-0.4,1.9-1.6,1.9h-0.7L12.2,11.8z M12.2,16.9h1.1c1.2,0,1.7,0.6,1.7,2c0,1.6-0.6,2-1.8,2h-1L12.2,16.9z M3.2,21.3C6,27,10.7,32,17.3,35.7l0.1-0.1l0.3-0.2c-4.3-2.3-9.8-7.2-13.1-14.9C6.1,15,6.4,10.2,5.5,5.3c4-1.2,8.2-1.8,12.4-1.9h1.4c6.3,0.1,11.8,1.1,16.5,3.1c0.2-1,0.5-2,0.8-3C30.8,1.2,24.6,0,18.4,0c-5.5,0-10.9,0.9-16,2.7C4.3,8.9,5.1,13.6,3.2,21.3z M35.5,7.6L35.5,7.6c-0.7,4.7-0.3,9.3,1.2,14.7c-2.5,6.6-6.9,12.4-12.6,16.6c-1.9-0.7-3.8-1.5-5.6-2.5c4.6-2.2,10.6-7.4,14.1-15.5l0.1-0.2l0-0.2c-1.4-5.2-1.7-9.7-1-14.3C33,6.6,34.3,7,35.5,7.6z M25.3,22.2V11.8h0.5c1.1,0,1.2,0.5,1.5,1.8l0,0.1h1.5l-0.2-2.7c0-0.2-0.1-0.3-0.2-0.4c-0.1-0.1-0.3-0.2-0.5-0.2h-8.4c-0.2,0-0.3,0.1-0.5,0.2c-0.1,0.1-0.2,0.3-0.2,0.4l-0.2,2.7h1.5c0-0.1,0-0.1,0.1-0.2c0.3-1.3,0.4-1.8,1.5-1.8h0.5v10.3H25.3z M2.1,21.4l0.1,0.2c3.6,7.7,10.6,14.1,20.9,18c-1.5,1-3,1.8-4.7,2.4c-8-3.2-15-10.8-18.4-19.8C2,15.3,2.1,9.7,0.2,3.6c0.3-0.1,0.6-0.2,0.9-0.3c0.1,0,0.2-0.1,0.3-0.1C3.3,9.1,4,13.7,2.1,21.2L2.1,21.4z"></path></svg>