<?xml version="1.0" encoding="UTF-8"?>
<svg id="Layer_2" data-name="Layer 2" xmlns="http://www.w3.org/2000/svg" viewBox="0 0 130 34.25">
  <defs>
    <style>
      .cls-1 {
        fill: #fff;
      }

      .cls-2 {
        fill: #00df5a;
      }
    </style>
  </defs>
  <g id="Layer_1-2" data-name="Layer 1">
    <g>
      <g>
        <path class="cls-1" d="M25.64,22.86c0,3.47-2.82,6.29-6.29,6.29h-10.05v-4.54c1.37.79,2.96,1.19,4.65,1.19v-4.59c-2.56,0-4.67-2.07-4.68-4.63h0s0-.04,0-.04h-4.59s0,.02,0,.02c0,2.57-2.11,4.64-4.68,4.64v4.59c1.69,0,3.28-.4,4.65-1.19h0s0,9.21,0,9.21h14.69c6.04,0,10.94-4.9,10.94-10.94v-6.34h-4.64v6.32Z"/>
        <path class="cls-2" d="M34.69,4.66h0c-2.45-.12-4.41-2.15-4.41-4.64h0s0-.02,0-.02h-4.64s0,.01,0,.02h0c0,2.49-1.96,4.51-4.41,4.63,0,0-.16,0-.24,0H4.65v9.3h4.64v-4.65h11.69c.11,0,.21,0,.32.01,2.42.16,4.34,2.17,4.34,4.63h0s4.64,0,4.64,0h0c0-2.46,1.91-4.51,4.34-4.67.1,0,.21-.01.32-.01v-4.61c-.08,0-.16,0-.24,0ZM30.74,7.08c-.96.53-1.76,1.27-2.35,2.16-.09.15-.22.31-.31.49-.06.09-.19.09-.25,0-.62-1.11-1.55-2.04-2.66-2.66-.09-.06-.09-.19,0-.25.19-.09.37-.22.56-.34.87-.59,1.58-1.39,2.07-2.32.06-.09.19-.09.25,0,.62,1.11,1.55,2.04,2.66,2.66.12.06.12.19.03.25Z"/>
      </g>
      <g>
        <path class="cls-1" d="M125.69,4.66v10.24s-1.95-2.38-6.47-2.38h0c-.11,0-.23,0-.35,0-1.98,0-3.75.47-5.31,1.42-1.57.95-2.81,2.25-3.73,3.89-.92,1.64-1.39,3.49-1.39,5.54s.46,3.9,1.37,5.54c.91,1.64,2.16,2.94,3.73,3.91,1.58.96,3.37,1.44,5.37,1.44,5.2,0,6.96-2.83,6.96-2.83h0s0,2.36,0,2.36h4.12s0-29.13,0-29.13h-4.31ZM124.92,26.88c-.55,1.04-1.31,1.91-2.27,2.5-.96.59-2.1.83-3.31.83s-2.33-.29-3.29-.88c-.96-.59-1.71-1.4-2.25-2.44-.54-1.04-.81-2.21-.81-3.52s.27-2.48.81-3.5c.54-1.03,1.3-1.83,2.27-2.42.97-.59,2.07-.89,3.27-.89s2.34.24,3.31.83c.96.59,1.72,1.45,2.27,2.48.55,1.03.77,2.19.77,3.5s-.22,2.48-.77,3.52Z"/>
        <path class="cls-1" d="M92.15,25.25c0,1-.2,1.87-.6,2.62-.4.74-.94,1.32-1.64,1.73-.69.41-1.5.62-2.42.62s-1.69-.2-2.39-.6c-.69-.4-1.23-.96-1.62-1.67-.38-.72-.58-1.55-.58-2.5v-12.47s-4.35,0-4.35,0v12.85c0,1.67.33,3.14.98,4.41.65,1.27,1.57,2.26,2.75,2.96,1.18.71,2.55,1.06,4.12,1.06.08,0,.17,0,.25,0,.02,0,.04,0,.06,0,.08,0,.16,0,.23-.01,0,0,0,0,.01,0,3.05-.18,4.79-1.78,5.37-2.42v1.98s4.12,0,4.12,0V12.97s-4.31,0-4.31,0v12.28Z"/>
        <rect class="cls-1" x="100.7" y="4.66" width="4.35" height="5.53"/>
        <rect class="cls-1" x="100.7" y="12.97" width="4.35" height="20.82"/>
        <path class="cls-1" d="M56.36,14.89s-1.95-2.38-6.47-2.38h0c-.11,0-.23,0-.35,0-1.98,0-3.75.47-5.31,1.42-1.57.95-2.81,2.25-3.73,3.89-.92,1.64-1.39,3.49-1.39,5.54s.46,3.9,1.37,5.54c.91,1.64,2.16,2.94,3.73,3.91,1.58.96,3.37,1.44,5.37,1.44,5.2,0,6.96-2.83,6.96-2.83h0s0,2.36,0,2.36h4.12s0-29.13,0-29.13h-4.31s0,10.24,0,10.24ZM55.59,26.88c-.55,1.04-1.31,1.91-2.27,2.5-.96.59-2.1.83-3.31.83s-2.33-.29-3.29-.88c-.96-.59-1.71-1.4-2.25-2.44-.54-1.04-.81-2.21-.81-3.52s.27-2.48.81-3.5c.54-1.03,1.3-1.83,2.27-2.42.97-.59,2.07-.89,3.27-.89s2.34.24,3.31.83c.96.59,1.72,1.45,2.27,2.48.55,1.03.77,2.19.77,3.5s-.22,2.48-.77,3.52Z"/>
        <path class="cls-1" d="M74.32,12.77c-.27-.02-.61-.05-.77-.04h0c-2.67,0-4.43,1.83-4.86,2.33v-2.09s-4.16,0-4.16,0v20.82s4.35,0,4.35,0v-12.01c0-.1,0-.2,0-.3,0,0,0,0,0,0,0-.03,0-.05,0-.08.04-.57.36-3.51,3.15-4.51.32-.11.64-.19.97-.24.02,0,.04,0,.06,0,0,0,.02,0,.03,0,.03,0,.05,0,.08,0,.14-.01.27-.02.41-.02.85-.02,1.74.11,1.91.14v-3.78s-.5-.11-.5-.11c-.23-.05-.46-.08-.69-.1Z"/>
      </g>
    </g>
  </g>
</svg>