<svg width="1300" height="1300" viewBox="0 0 1300 1300" fill="none" xmlns="http://www.w3.org/2000/svg">
<path d="M428.15 1076.44C401.67 1076.44 380.13 1054.9 380.13 1028.42V780.03C380.13 753.51 358.63 732.01 332.11 732.01H165.02C138.54 732.01 117 710.47 117 683.99V484.89C117 458.41 138.54 436.87 165.02 436.87H332.11C358.63 436.87 380.13 415.37 380.13 388.85V272.02C380.13 245.54 401.67 224 428.15 224H576.99C603.47 224 625.01 245.54 625.01 272.02V420.86C625.01 447.34 603.47 468.88 576.99 468.88H460.16C433.64 468.88 412.14 490.38 412.14 516.9V651.98C412.14 678.5 433.64 700 460.16 700H676.54C703.06 700 724.56 678.5 724.56 651.98V322.27C724.56 295.79 746.1 274.25 772.58 274.25H1134.3C1160.78 274.25 1182.32 295.79 1182.32 322.27V683.99C1182.32 710.47 1160.78 732.01 1134.3 732.01H804.59C778.07 732.01 756.57 753.51 756.57 780.03V1028.42C756.57 1054.9 735.03 1076.44 708.55 1076.44H428.15Z" fill="black"/>
</svg>
