<svg width="124" height="27" viewBox="0 0 124 27" fill="none" xmlns="http://www.w3.org/2000/svg">
<path d="M0 0.5V26.1389H13.833V21.782H4.76591V0.5H0Z" fill="#000"/>
<path d="M47.2023 21.3817L50.5739 26.5H55.5525L49.6995 17.5978L47.2023 21.3817ZM50.5739 6.8587L47.1944 12.0399L49.6916 15.8708L55.5919 6.8587H50.5739Z" fill="#000"/>
<path d="M36.0398 6.8587L42.4994 16.7343L36.0792 26.5H41.0578L47.4937 16.7343L41.0578 6.8587H36.0398Z" fill="#000"/>
<path d="M65.5254 10.9722H69.9132V6.7802H65.5254V2.35266H60.7989V6.7802H57.2461V10.9565H60.7989V20.1963C60.7989 23.9173 61.6575 26.3901 65.8484 26.3901C66.9581 26.3984 68.0668 26.3223 69.1649 26.1624L69.6769 26.0761L69.5745 21.8841L68.96 21.9233C68.4007 21.9626 67.8178 21.994 67.3845 21.994C66.0217 21.994 65.5412 21.7977 65.5412 19.6389L65.5254 10.9722ZM86.3458 14.5205H77.0424C77.2916 13.4495 77.9132 12.5009 78.7971 11.8428C79.6809 11.1847 80.77 10.8596 81.8713 10.9251C82.9284 10.8793 83.966 11.2192 84.7897 11.8811C85.6133 12.5429 86.1666 13.4813 86.3458 14.5205ZM90.9305 17.6606C90.9975 17.0612 91.0133 16.4572 90.9778 15.8551C90.9778 11.5217 88.1182 6.85085 81.8319 6.85085C80.5367 6.82297 79.2492 7.05677 78.0471 7.53817C76.845 8.01957 75.7531 8.73858 74.8374 9.65186C73.9217 10.5651 73.201 11.6538 72.7189 12.8521C72.2368 14.0504 72.0033 15.3337 72.0323 16.6244C72.0323 21.3816 75.1045 26.5 81.8319 26.5C85.6762 26.5 88.7878 24.8829 90.5997 21.9547L90.9778 21.3502L86.5033 19.6546L86.2512 20.0864C85.6705 20.9144 84.8579 21.5537 83.9148 21.9243C82.9717 22.2949 81.94 22.3805 80.9484 22.1703C79.9568 21.9601 79.0493 21.4635 78.3393 20.7424C77.6292 20.0214 77.148 19.1079 76.9557 18.1159H90.8123L90.9305 17.6606ZM103.881 11.4903H105.961V7.18056L105.441 7.11776C105.091 7.0685 104.739 7.04227 104.385 7.03926C103.389 7.05313 102.408 7.28209 101.509 7.71034C100.61 8.1386 99.8147 8.75598 99.1783 9.51993V6.7802H94.4124V26.131H99.1783V15.8315C99.2436 14.6383 99.7745 13.5179 100.658 12.7097C101.541 11.9014 102.706 11.4694 103.905 11.506M117.998 13.7512L122.33 12.9662V12.4795C122.33 9.71619 119.699 6.86655 115.288 6.86655C111.223 6.86655 108.033 9.45713 108.033 12.7621C108.033 16.593 111.775 17.6606 114.784 18.5242C116.588 19.0344 118.289 19.5211 118.289 20.3847C118.289 21.9547 116.635 22.5435 115.217 22.5435C113.271 22.5435 111.751 21.3424 111.751 19.8116V19.1051L107.127 19.8901V20.3847C107.127 23.3128 110.215 26.4686 115.217 26.4686C119.739 26.4686 123.024 23.8466 123.024 20.2434C123.024 16.2711 119.038 15.1878 116.123 14.3949C114.303 13.9004 112.578 13.4294 112.578 12.5423C112.578 11.4197 113.925 10.7524 115.217 10.7524C117.131 10.7524 117.998 11.9221 117.998 13.0133V13.7512Z" fill="#000"/>
<path d="M21.1354 14.5205C21.3955 13.4492 22.0242 12.5027 22.9123 11.8457C23.8004 11.1888 24.8916 10.863 25.9959 10.9251C27.053 10.8793 28.0906 11.2192 28.9142 11.881C29.7379 12.5429 30.2912 13.4813 30.4703 14.5205H21.1354ZM35.0236 17.6606C35.1048 17.0623 35.1233 16.4572 35.0787 15.8551C35.0787 11.5217 32.2192 6.85083 25.9329 6.85083C24.6376 6.82295 23.3501 7.05675 22.148 7.53815C20.9459 8.01955 19.8541 8.73856 18.9383 9.65185C18.0226 10.5651 17.302 11.6538 16.8199 12.8521C16.3378 14.0504 16.1042 15.3337 16.1332 16.6244C16.1332 21.3816 19.2054 26.5 25.9329 26.5C29.7771 26.5 32.8887 24.8828 34.7006 21.9547L35.0787 21.3502L30.6043 19.6546L30.3522 20.0863C29.8781 20.8111 29.2187 21.3968 28.4419 21.7831C27.6651 22.1695 26.7991 22.3425 25.9329 22.2844C24.7503 22.2966 23.6035 21.8808 22.7053 21.1142C21.8071 20.3476 21.2185 19.2822 21.0488 18.1159H34.9133L35.0236 17.6606Z" fill="#000"/>
</svg>
