<?xml version="1.0" encoding="UTF-8"?>
<svg id="logo" xmlns="http://www.w3.org/2000/svg" version="1.1" viewBox="320 840 1340 330" width="180" height="44">
  <!-- Generator: Adobe Illustrator 30.1.0, SVG Export Plug-In . SVG Version: 2.1.1 Build 136)  -->
  <defs>
    <style>
      .st0 {
        fill: #fff;
      }
    </style>
  </defs>
  <g id="logo1" data-name="logo">
    <path id="icon" class="st0" d="M442.79,1137.55c-8.55,0-15.5-6.95-15.5-15.5v-80.16c0-8.56-6.94-15.5-15.5-15.5h-53.92c-8.55,0-15.5-6.95-15.5-15.5v-64.25c0-8.55,6.95-15.5,15.5-15.5h53.92c8.56,0,15.5-6.94,15.5-15.5v-37.7c0-8.55,6.95-15.5,15.5-15.5h48.03c8.55,0,15.5,6.95,15.5,15.5v48.03c0,8.55-6.95,15.5-15.5,15.5h-37.7c-8.56,0-15.5,6.94-15.5,15.5v43.59c0,8.56,6.94,15.5,15.5,15.5h69.83c8.56,0,15.5-6.94,15.5-15.5v-106.4c0-8.55,6.95-15.5,15.5-15.5h116.73c8.55,0,15.5,6.95,15.5,15.5v116.73c0,8.54-6.95,15.5-15.5,15.5h-106.4c-8.56,0-15.5,6.94-15.5,15.5v80.16c0,8.55-6.95,15.5-15.5,15.5h-90.49Z"/>
    <g id="text">
      <path id="g" class="st0" d="M751.63,956.96v87.27c0,6.48,5.25,11.73,11.73,11.73h69.34c3.63,0,8.47-3.87,10.65-7.02v16.4c0,3.24-2.62,5.86-5.86,5.86h-73.48c-3.23,0-5.85,2.6-5.86,5.83-.02,5.11-.05,12.49-.04,17.6,0,3.24,2.63,5.85,5.86,5.85h89.82c12.95,0,23.45-10.5,23.45-23.45v-123.53c0-11.05-8.95-20-20-20h-82.15c-12.95,0-23.45,10.5-23.45,23.45ZM833.35,1026.44h-37.84c-5.52,0-10-4.48-10-10v-43.41c0-5.52,4.48-10,10-10h37.84c5.52,0,10,4.48,10,10v43.41c0,5.52-4.48,10-10,10Z"/>
      <path id="e" class="st0" d="M994.88,933.51h-72.38c-12.95,0-23.45,10.5-23.45,23.45v75.55c0,12.95,10.5,23.45,23.45,23.45h92.12c3.23,0,5.86-2.62,5.86-5.86v-17.8c0-3.24-2.62-5.86-5.86-5.86-15.91,0-59.76,0-75.83,0-3.24,0-5.86-2.62-5.86-5.86v-7.15c0-3.24,2.62-5.86,5.86-5.86h52.3s8.9,0,8.9,0c12.95,0,23.45-10.5,23.45-23.45v-27.15c0-12.95-10.5-23.45-23.45-23.45h-5.1ZM983.94,983.12h-45.15c-3.24,0-5.86-2.62-5.86-5.86v-8.36c0-3.24,2.62-5.86,5.86-5.86h45.15c3.24,0,5.86,2.62,5.86,5.86v8.36c0,3.24-2.62,5.86-5.86,5.86Z"/>
      <path id="n" class="st0" d="M1141.33,933.51h-72.63c-12.95,0-23.44,10.5-23.44,23.44v93.14c0,3.24,2.63,5.86,5.86,5.86h22.15c3.24,0,5.86-2.63,5.86-5.86v-75.34c0-6.47,5.25-11.72,11.72-11.72h33.42c6.47,0,11.72,5.25,11.72,11.72v75.34c0,3.24,2.63,5.86,5.86,5.86h22.15c3.24,0,5.86-2.63,5.86-5.86v-93.14c0-12.95-10.5-23.44-23.44-23.44h-5.11Z"/>
      <path id="e1" data-name="e" class="st0" d="M1287.52,933.51h-72.38c-12.95,0-23.45,10.5-23.45,23.45v75.55c0,12.95,10.5,23.45,23.45,23.45h92.12c3.23,0,5.86-2.62,5.86-5.86v-17.8c0-3.24-2.62-5.86-5.86-5.86-15.91,0-59.76,0-75.83,0-3.24,0-5.86-2.62-5.86-5.86v-7.15c0-3.24,2.62-5.86,5.86-5.86h52.3s8.9,0,8.9,0c12.95,0,23.45-10.5,23.45-23.45v-27.15c0-12.95-10.5-23.45-23.45-23.45h-5.1ZM1276.57,983.12h-45.15c-3.24,0-5.86-2.62-5.86-5.86v-8.36c0-3.24,2.62-5.86,5.86-5.86h45.15c3.24,0,5.86,2.62,5.86,5.86v8.36c0,3.24-2.62,5.86-5.86,5.86Z"/>
      <path id="z" class="st0" d="M1454.03,954.9c.1-.1.07-9.21.04-15.48-.02-3.22-2.64-5.82-5.86-5.82h-104.47c-3.24,0-5.87,2.63-5.87,5.87v17.8c0,3.24,2.62,5.86,5.86,5.86h64.32l-64.86,61.95c-1.94,1.94-5.32,5.57-5.32,8.71v16.41c0,3.24,2.62,5.86,5.86,5.86h104.44c3.24,0,5.87-2.63,5.87-5.87v-17.79c0-3.24-2.63-5.87-5.87-5.87h-64.07s64.13-61.71,64.13-61.71c3.15-3.15,5.81-6.78,5.81-9.92Z"/>
      <g id="i">
        <path class="st0" d="M1503.92,933.55h-22.16c-3.24,0-5.86,2.63-5.86,5.86v110.73c0,3.22,2.64,5.86,5.86,5.86h22.16c3.22,0,5.86-2.64,5.86-5.86v-110.73c0-3.22-2.64-5.86-5.86-5.86Z"/>
        <path class="st0" d="M1481.71,888.11h22.16c3.23,0,5.86,2.63,5.86,5.86v18.29c0,3.23-2.63,5.86-5.86,5.86h-22.16c-3.23,0-5.86-2.63-5.86-5.86v-18.29c0-3.23,2.63-5.86,5.86-5.86Z"/>
      </g>
      <path id="o" class="st0" d="M1531.55,957.05v75.56c0,12.95,10.5,23.45,23.45,23.45h79.19c12.95,0,23.45-10.5,23.45-23.45v-75.56c0-12.95-10.5-23.45-23.45-23.45h-79.19c-12.95,0-23.45,10.5-23.45,23.45ZM1612.02,1026.53h-34.87c-6.48,0-11.73-5.25-11.73-11.73v-39.95c0-6.48,5.25-11.73,11.73-11.73h34.87c6.48,0,11.73,5.25,11.73,11.73v39.95c0,6.48-5.25,11.73-11.73,11.73Z"/>
    </g>
  </g>
</svg>