<svg width="20" height="21" viewBox="0 0 20 21" fill="none" xmlns="http://www.w3.org/2000/svg">
                <path fill-rule="evenodd" clip-rule="evenodd" d="M10 18.75C14.4183 18.75 18 15.1683 18 10.75C18 6.33172 14.4183 2.75 10 2.75C5.58172 2.75 2 6.33172 2 10.75C2 15.1683 5.58172 18.75 10 18.75ZM10.75 5.75C10.75 5.33579 10.4142 5 10 5C9.58579 5 9.25 5.33579 9.25 5.75V10.75C9.25 11.1642 9.58579 11.5 10 11.5H14C14.4142 11.5 14.75 11.1642 14.75 10.75C14.75 10.3358 14.4142 10 14 10H10.75V5.75Z" fill="white"/>
              </svg> 