<svg width="786" height="753" viewBox="0 0 786 753" fill="none" xmlns="http://www.w3.org/2000/svg">
<line x1="128.5" y1="664" x2="128.5" y2="13" stroke="white"/>
<line x1="129" y1="13.5" x2="786" y2="13.5" stroke="white"/>
<line x1="129" y1="78.5" x2="786" y2="78.5" stroke="white"/>
<line x1="129" y1="143.5" x2="786" y2="143.5" stroke="white"/>
<line x1="129" y1="208.5" x2="786" y2="208.5" stroke="white"/>
<line x1="129" y1="273.5" x2="786" y2="273.5" stroke="white"/>
<line x1="129" y1="338.5" x2="786" y2="338.5" stroke="white"/>
<line x1="129" y1="403.5" x2="786" y2="403.5" stroke="white"/>
<line x1="129" y1="468.5" x2="786" y2="468.5" stroke="white"/>
<line x1="129" y1="533.5" x2="786" y2="533.5" stroke="white"/>
<line x1="129" y1="598.5" x2="786" y2="598.5" stroke="white"/>
<line x1="129" y1="663.5" x2="786" y2="663.5" stroke="white"/>
<line x1="785.5" y1="664" x2="785.5" y2="13" stroke="white"/>
<path d="M76.8409 18.1591C76.1742 18.1591 75.5739 18.0265 75.0398 17.7614C74.5057 17.4962 74.0777 17.1326 73.7557 16.6705C73.4337 16.2083 73.2576 15.6818 73.2273 15.0909H74.5909C74.6439 15.6174 74.8826 16.053 75.3068 16.3977C75.7348 16.7386 76.2462 16.9091 76.8409 16.9091C77.3182 16.9091 77.7424 16.7973 78.1136 16.5739C78.4886 16.3504 78.7822 16.0436 78.9943 15.6534C79.2102 15.2595 79.3182 14.8144 79.3182 14.3182C79.3182 13.8106 79.2064 13.358 78.983 12.9602C78.7633 12.5587 78.4602 12.2424 78.0739 12.0114C77.6875 11.7803 77.2462 11.6629 76.75 11.6591C76.3939 11.6553 76.0284 11.7102 75.6534 11.8239C75.2784 11.9337 74.9697 12.0758 74.7273 12.25L73.4091 12.0909L74.1136 6.36364H80.1591V7.61364H75.2955L74.8864 11.0455H74.9545C75.1932 10.8561 75.4924 10.6989 75.8523 10.5739C76.2121 10.4489 76.5871 10.3864 76.9773 10.3864C77.6894 10.3864 78.3239 10.5568 78.8807 10.8977C79.4413 11.2348 79.8807 11.697 80.1989 12.2841C80.5208 12.8712 80.6818 13.5417 80.6818 14.2955C80.6818 15.0379 80.5152 15.7008 80.1818 16.2841C79.8523 16.8636 79.3977 17.322 78.8182 17.6591C78.2386 17.9924 77.5795 18.1591 76.8409 18.1591ZM86.4144 18.1591C85.5583 18.1591 84.8291 17.9261 84.2269 17.4602C83.6246 16.9905 83.1644 16.3106 82.8462 15.4205C82.528 14.5265 82.3689 13.447 82.3689 12.1818C82.3689 10.9242 82.528 9.85038 82.8462 8.96023C83.1682 8.06629 83.6303 7.38447 84.2326 6.91477C84.8386 6.44129 85.5659 6.20455 86.4144 6.20455C87.2629 6.20455 87.9882 6.44129 88.5905 6.91477C89.1966 7.38447 89.6587 8.06629 89.9769 8.96023C90.2988 9.85038 90.4598 10.9242 90.4598 12.1818C90.4598 13.447 90.3007 14.5265 89.9826 15.4205C89.6644 16.3106 89.2041 16.9905 88.6019 17.4602C87.9996 17.9261 87.2704 18.1591 86.4144 18.1591ZM86.4144 16.9091C87.2629 16.9091 87.922 16.5 88.3916 15.6818C88.8613 14.8636 89.0962 13.697 89.0962 12.1818C89.0962 11.1742 88.9882 10.3163 88.7723 9.60795C88.5602 8.89962 88.2534 8.35985 87.8519 7.98864C87.4541 7.61742 86.975 7.43182 86.4144 7.43182C85.5735 7.43182 84.9163 7.84659 84.4428 8.67614C83.9693 9.50189 83.7326 10.6705 83.7326 12.1818C83.7326 13.1894 83.8386 14.0455 84.0507 14.75C84.2629 15.4545 84.5678 15.9905 84.9655 16.358C85.367 16.7254 85.85 16.9091 86.4144 16.9091ZM96.0944 18.1591C95.2383 18.1591 94.5091 17.9261 93.9069 17.4602C93.3046 16.9905 92.8444 16.3106 92.5262 15.4205C92.208 14.5265 92.0489 13.447 92.0489 12.1818C92.0489 10.9242 92.208 9.85038 92.5262 8.96023C92.8482 8.06629 93.3103 7.38447 93.9126 6.91477C94.5186 6.44129 95.2459 6.20455 96.0944 6.20455C96.9429 6.20455 97.6682 6.44129 98.2705 6.91477C98.8766 7.38447 99.3387 8.06629 99.6569 8.96023C99.9788 9.85038 100.14 10.9242 100.14 12.1818C100.14 13.447 99.9807 14.5265 99.6626 15.4205C99.3444 16.3106 98.8841 16.9905 98.2819 17.4602C97.6796 17.9261 96.9504 18.1591 96.0944 18.1591ZM96.0944 16.9091C96.9429 16.9091 97.602 16.5 98.0716 15.6818C98.5413 14.8636 98.7762 13.697 98.7762 12.1818C98.7762 11.1742 98.6682 10.3163 98.4523 9.60795C98.2402 8.89962 97.9334 8.35985 97.5319 7.98864C97.1341 7.61742 96.655 7.43182 96.0944 7.43182C95.2535 7.43182 94.5963 7.84659 94.1228 8.67614C93.6493 9.50189 93.4126 10.6705 93.4126 12.1818C93.4126 13.1894 93.5186 14.0455 93.7307 14.75C93.9429 15.4545 94.2478 15.9905 94.6455 16.358C95.047 16.7254 95.53 16.9091 96.0944 16.9091Z" fill="white"/>
<path d="M72.9318 80.6136V79.4545L78.0455 71.3636H78.8864V73.1591H78.3182L74.4545 79.2727V79.3636H81.3409V80.6136H72.9318ZM78.4091 83V80.2614V79.7216V71.3636H79.75V83H78.4091ZM86.7865 83.1591C86.1199 83.1591 85.5195 83.0265 84.9854 82.7614C84.4513 82.4962 84.0233 82.1326 83.7013 81.6705C83.3793 81.2083 83.2032 80.6818 83.1729 80.0909H84.5365C84.5896 80.6174 84.8282 81.053 85.2524 81.3977C85.6805 81.7386 86.1918 81.9091 86.7865 81.9091C87.2638 81.9091 87.688 81.7973 88.0593 81.5739C88.4343 81.3504 88.7278 81.0436 88.9399 80.6534C89.1559 80.2595 89.2638 79.8144 89.2638 79.3182C89.2638 78.8106 89.1521 78.358 88.9286 77.9602C88.7089 77.5587 88.4059 77.2424 88.0195 77.0114C87.6331 76.7803 87.1918 76.6629 86.6956 76.6591C86.3396 76.6553 85.974 76.7102 85.599 76.8239C85.224 76.9337 84.9153 77.0758 84.6729 77.25L83.3547 77.0909L84.0593 71.3636H90.1047V72.6136H85.2411L84.832 76.0455H84.9002C85.1388 75.8561 85.438 75.6989 85.7979 75.5739C86.1577 75.4489 86.5327 75.3864 86.9229 75.3864C87.635 75.3864 88.2695 75.5568 88.8263 75.8977C89.3869 76.2348 89.8263 76.697 90.1445 77.2841C90.4665 77.8712 90.6274 78.5417 90.6274 79.2955C90.6274 80.0379 90.4608 80.7008 90.1274 81.2841C89.7979 81.8636 89.3434 82.322 88.7638 82.6591C88.1843 82.9924 87.5252 83.1591 86.7865 83.1591ZM96.36 83.1591C95.5039 83.1591 94.7748 82.9261 94.1725 82.4602C93.5702 81.9905 93.11 81.3106 92.7918 80.4205C92.4736 79.5265 92.3145 78.447 92.3145 77.1818C92.3145 75.9242 92.4736 74.8504 92.7918 73.9602C93.1138 73.0663 93.5759 72.3845 94.1782 71.9148C94.7842 71.4413 95.5115 71.2045 96.36 71.2045C97.2085 71.2045 97.9339 71.4413 98.5361 71.9148C99.1422 72.3845 99.6043 73.0663 99.9225 73.9602C100.244 74.8504 100.405 75.9242 100.405 77.1818C100.405 78.447 100.246 79.5265 99.9282 80.4205C99.61 81.3106 99.1498 81.9905 98.5475 82.4602C97.9452 82.9261 97.2161 83.1591 96.36 83.1591ZM96.36 81.9091C97.2085 81.9091 97.8676 81.5 98.3373 80.6818C98.807 79.8636 99.0418 78.697 99.0418 77.1818C99.0418 76.1742 98.9339 75.3163 98.718 74.608C98.5058 73.8996 98.199 73.3598 97.7975 72.9886C97.3998 72.6174 96.9206 72.4318 96.36 72.4318C95.5191 72.4318 94.8619 72.8466 94.3884 73.6761C93.9149 74.5019 93.6782 75.6705 93.6782 77.1818C93.6782 78.1894 93.7842 79.0455 93.9964 79.75C94.2085 80.4545 94.5134 80.9905 94.9111 81.358C95.3127 81.7254 95.7956 81.9091 96.36 81.9091Z" fill="white"/>
<path d="M72.9318 145.614V144.455L78.0455 136.364H78.8864V138.159H78.3182L74.4545 144.273V144.364H81.3409V145.614H72.9318ZM78.4091 148V145.261V144.722V136.364H79.75V148H78.4091ZM86.9456 148.159C86.0896 148.159 85.3604 147.926 84.7581 147.46C84.1559 146.991 83.6956 146.311 83.3774 145.42C83.0593 144.527 82.9002 143.447 82.9002 142.182C82.9002 140.924 83.0593 139.85 83.3774 138.96C83.6994 138.066 84.1615 137.384 84.7638 136.915C85.3699 136.441 86.0971 136.205 86.9456 136.205C87.7941 136.205 88.5195 136.441 89.1218 136.915C89.7278 137.384 90.1899 138.066 90.5081 138.96C90.8301 139.85 90.9911 140.924 90.9911 142.182C90.9911 143.447 90.832 144.527 90.5138 145.42C90.1956 146.311 89.7354 146.991 89.1331 147.46C88.5309 147.926 87.8017 148.159 86.9456 148.159ZM86.9456 146.909C87.7941 146.909 88.4532 146.5 88.9229 145.682C89.3926 144.864 89.6274 143.697 89.6274 142.182C89.6274 141.174 89.5195 140.316 89.3036 139.608C89.0915 138.9 88.7846 138.36 88.3831 137.989C87.9854 137.617 87.5062 137.432 86.9456 137.432C86.1047 137.432 85.4475 137.847 84.974 138.676C84.5005 139.502 84.2638 140.67 84.2638 142.182C84.2638 143.189 84.3699 144.045 84.582 144.75C84.7941 145.455 85.099 145.991 85.4968 146.358C85.8983 146.725 86.3812 146.909 86.9456 146.909ZM96.6256 148.159C95.7696 148.159 95.0404 147.926 94.4381 147.46C93.8359 146.991 93.3756 146.311 93.0574 145.42C92.7393 144.527 92.5802 143.447 92.5802 142.182C92.5802 140.924 92.7393 139.85 93.0574 138.96C93.3794 138.066 93.8415 137.384 94.4438 136.915C95.0499 136.441 95.7771 136.205 96.6256 136.205C97.4741 136.205 98.1995 136.441 98.8018 136.915C99.4078 137.384 99.8699 138.066 100.188 138.96C100.51 139.85 100.671 140.924 100.671 142.182C100.671 143.447 100.512 144.527 100.194 145.42C99.8756 146.311 99.4154 146.991 98.8131 147.46C98.2109 147.926 97.4817 148.159 96.6256 148.159ZM96.6256 146.909C97.4741 146.909 98.1332 146.5 98.6029 145.682C99.0726 144.864 99.3074 143.697 99.3074 142.182C99.3074 141.174 99.1995 140.316 98.9836 139.608C98.7715 138.9 98.4646 138.36 98.0631 137.989C97.6654 137.617 97.1862 137.432 96.6256 137.432C95.7847 137.432 95.1275 137.847 94.654 138.676C94.1806 139.502 93.9438 140.67 93.9438 142.182C93.9438 143.189 94.0499 144.045 94.262 144.75C94.4741 145.455 94.779 145.991 95.1768 146.358C95.5783 146.725 96.0612 146.909 96.6256 146.909Z" fill="white"/>
<path d="M77.1364 213.159C76.3864 213.159 75.7178 213.03 75.1307 212.773C74.5473 212.515 74.0833 212.157 73.7386 211.699C73.3977 211.237 73.2121 210.701 73.1818 210.091H74.6136C74.6439 210.466 74.7727 210.79 75 211.062C75.2273 211.331 75.5246 211.54 75.892 211.688C76.2595 211.835 76.6667 211.909 77.1136 211.909C77.6136 211.909 78.0568 211.822 78.4432 211.648C78.8295 211.473 79.1326 211.231 79.3523 210.92C79.572 210.61 79.6818 210.25 79.6818 209.841C79.6818 209.413 79.5758 209.036 79.3636 208.71C79.1515 208.381 78.8409 208.123 78.4318 207.938C78.0227 207.752 77.5227 207.659 76.9318 207.659H76V206.409H76.9318C77.3939 206.409 77.7992 206.326 78.1477 206.159C78.5 205.992 78.7746 205.758 78.9716 205.455C79.1723 205.152 79.2727 204.795 79.2727 204.386C79.2727 203.992 79.1856 203.65 79.0114 203.358C78.8371 203.066 78.5909 202.839 78.2727 202.676C77.9583 202.513 77.5871 202.432 77.1591 202.432C76.7576 202.432 76.3788 202.506 76.0227 202.653C75.6705 202.797 75.3826 203.008 75.1591 203.284C74.9356 203.557 74.8144 203.886 74.7955 204.273H73.4318C73.4545 203.663 73.6383 203.129 73.983 202.67C74.3277 202.208 74.7784 201.848 75.3352 201.591C75.8958 201.333 76.5114 201.205 77.1818 201.205C77.9015 201.205 78.5189 201.35 79.0341 201.642C79.5492 201.93 79.9451 202.311 80.2216 202.784C80.4981 203.258 80.6364 203.769 80.6364 204.318C80.6364 204.973 80.464 205.532 80.1193 205.994C79.7784 206.456 79.3144 206.777 78.7273 206.955V207.045C79.4621 207.167 80.036 207.479 80.4489 207.983C80.8617 208.483 81.0682 209.102 81.0682 209.841C81.0682 210.473 80.8958 211.042 80.5511 211.545C80.2102 212.045 79.7443 212.439 79.1534 212.727C78.5625 213.015 77.8902 213.159 77.1364 213.159ZM86.7084 213.159C86.0417 213.159 85.4414 213.027 84.9073 212.761C84.3732 212.496 83.9452 212.133 83.6232 211.67C83.3012 211.208 83.1251 210.682 83.0948 210.091H84.4584C84.5114 210.617 84.7501 211.053 85.1743 211.398C85.6023 211.739 86.1137 211.909 86.7084 211.909C87.1857 211.909 87.6099 211.797 87.9811 211.574C88.3561 211.35 88.6497 211.044 88.8618 210.653C89.0777 210.259 89.1857 209.814 89.1857 209.318C89.1857 208.811 89.0739 208.358 88.8505 207.96C88.6308 207.559 88.3277 207.242 87.9414 207.011C87.555 206.78 87.1137 206.663 86.6175 206.659C86.2614 206.655 85.8959 206.71 85.5209 206.824C85.1459 206.934 84.8372 207.076 84.5948 207.25L83.2766 207.091L83.9811 201.364H90.0266V202.614H85.163L84.7539 206.045H84.822C85.0607 205.856 85.3599 205.699 85.7198 205.574C86.0796 205.449 86.4546 205.386 86.8448 205.386C87.5569 205.386 88.1914 205.557 88.7482 205.898C89.3088 206.235 89.7482 206.697 90.0664 207.284C90.3883 207.871 90.5493 208.542 90.5493 209.295C90.5493 210.038 90.3827 210.701 90.0493 211.284C89.7198 211.864 89.2652 212.322 88.6857 212.659C88.1061 212.992 87.447 213.159 86.7084 213.159ZM96.2819 213.159C95.4258 213.159 94.6966 212.926 94.0944 212.46C93.4921 211.991 93.0319 211.311 92.7137 210.42C92.3955 209.527 92.2364 208.447 92.2364 207.182C92.2364 205.924 92.3955 204.85 92.7137 203.96C93.0357 203.066 93.4978 202.384 94.1001 201.915C94.7061 201.441 95.4334 201.205 96.2819 201.205C97.1304 201.205 97.8557 201.441 98.458 201.915C99.0641 202.384 99.5262 203.066 99.8444 203.96C100.166 204.85 100.327 205.924 100.327 207.182C100.327 208.447 100.168 209.527 99.8501 210.42C99.5319 211.311 99.0716 211.991 98.4694 212.46C97.8671 212.926 97.1379 213.159 96.2819 213.159ZM96.2819 211.909C97.1304 211.909 97.7895 211.5 98.2591 210.682C98.7288 209.864 98.9637 208.697 98.9637 207.182C98.9637 206.174 98.8557 205.316 98.6398 204.608C98.4277 203.9 98.1209 203.36 97.7194 202.989C97.3216 202.617 96.8425 202.432 96.2819 202.432C95.441 202.432 94.7838 202.847 94.3103 203.676C93.8368 204.502 93.6001 205.67 93.6001 207.182C93.6001 208.189 93.7061 209.045 93.9182 209.75C94.1304 210.455 94.4353 210.991 94.833 211.358C95.2345 211.725 95.7175 211.909 96.2819 211.909Z" fill="white"/>
<path d="M77.1364 278.159C76.3864 278.159 75.7178 278.03 75.1307 277.773C74.5473 277.515 74.0833 277.157 73.7386 276.699C73.3977 276.237 73.2121 275.701 73.1818 275.091H74.6136C74.6439 275.466 74.7727 275.79 75 276.062C75.2273 276.331 75.5246 276.54 75.892 276.688C76.2595 276.835 76.6667 276.909 77.1136 276.909C77.6136 276.909 78.0568 276.822 78.4432 276.648C78.8295 276.473 79.1326 276.231 79.3523 275.92C79.572 275.61 79.6818 275.25 79.6818 274.841C79.6818 274.413 79.5758 274.036 79.3636 273.71C79.1515 273.381 78.8409 273.123 78.4318 272.938C78.0227 272.752 77.5227 272.659 76.9318 272.659H76V271.409H76.9318C77.3939 271.409 77.7992 271.326 78.1477 271.159C78.5 270.992 78.7746 270.758 78.9716 270.455C79.1723 270.152 79.2727 269.795 79.2727 269.386C79.2727 268.992 79.1856 268.65 79.0114 268.358C78.8371 268.066 78.5909 267.839 78.2727 267.676C77.9583 267.513 77.5871 267.432 77.1591 267.432C76.7576 267.432 76.3788 267.506 76.0227 267.653C75.6705 267.797 75.3826 268.008 75.1591 268.284C74.9356 268.557 74.8144 268.886 74.7955 269.273H73.4318C73.4545 268.663 73.6383 268.129 73.983 267.67C74.3277 267.208 74.7784 266.848 75.3352 266.591C75.8958 266.333 76.5114 266.205 77.1818 266.205C77.9015 266.205 78.5189 266.35 79.0341 266.642C79.5492 266.93 79.9451 267.311 80.2216 267.784C80.4981 268.258 80.6364 268.769 80.6364 269.318C80.6364 269.973 80.464 270.532 80.1193 270.994C79.7784 271.456 79.3144 271.777 78.7273 271.955V272.045C79.4621 272.167 80.036 272.479 80.4489 272.983C80.8617 273.483 81.0682 274.102 81.0682 274.841C81.0682 275.473 80.8958 276.042 80.5511 276.545C80.2102 277.045 79.7443 277.439 79.1534 277.727C78.5625 278.015 77.8902 278.159 77.1364 278.159ZM86.8675 278.159C86.0114 278.159 85.2823 277.926 84.68 277.46C84.0777 276.991 83.6175 276.311 83.2993 275.42C82.9811 274.527 82.822 273.447 82.822 272.182C82.822 270.924 82.9811 269.85 83.2993 268.96C83.6213 268.066 84.0834 267.384 84.6857 266.915C85.2917 266.441 86.019 266.205 86.8675 266.205C87.716 266.205 88.4414 266.441 89.0436 266.915C89.6497 267.384 90.1118 268.066 90.43 268.96C90.752 269.85 90.913 270.924 90.913 272.182C90.913 273.447 90.7539 274.527 90.4357 275.42C90.1175 276.311 89.6573 276.991 89.055 277.46C88.4527 277.926 87.7236 278.159 86.8675 278.159ZM86.8675 276.909C87.716 276.909 88.3751 276.5 88.8448 275.682C89.3145 274.864 89.5493 273.697 89.5493 272.182C89.5493 271.174 89.4414 270.316 89.2255 269.608C89.0133 268.9 88.7065 268.36 88.305 267.989C87.9073 267.617 87.4281 267.432 86.8675 267.432C86.0266 267.432 85.3694 267.847 84.8959 268.676C84.4224 269.502 84.1857 270.67 84.1857 272.182C84.1857 273.189 84.2917 274.045 84.5039 274.75C84.716 275.455 85.0209 275.991 85.4186 276.358C85.8202 276.725 86.3031 276.909 86.8675 276.909ZM96.5475 278.159C95.6914 278.159 94.9623 277.926 94.36 277.46C93.7577 276.991 93.2975 276.311 92.9793 275.42C92.6611 274.527 92.502 273.447 92.502 272.182C92.502 270.924 92.6611 269.85 92.9793 268.96C93.3013 268.066 93.7634 267.384 94.3657 266.915C94.9717 266.441 95.699 266.205 96.5475 266.205C97.396 266.205 98.1214 266.441 98.7236 266.915C99.3297 267.384 99.7918 268.066 100.11 268.96C100.432 269.85 100.593 270.924 100.593 272.182C100.593 273.447 100.434 274.527 100.116 275.42C99.7975 276.311 99.3373 276.991 98.735 277.46C98.1327 277.926 97.4036 278.159 96.5475 278.159ZM96.5475 276.909C97.396 276.909 98.0551 276.5 98.5248 275.682C98.9945 274.864 99.2293 273.697 99.2293 272.182C99.2293 271.174 99.1214 270.316 98.9055 269.608C98.6933 268.9 98.3865 268.36 97.985 267.989C97.5873 267.617 97.1081 267.432 96.5475 267.432C95.7066 267.432 95.0494 267.847 94.5759 268.676C94.1024 269.502 93.8657 270.67 93.8657 272.182C93.8657 273.189 93.9717 274.045 94.1839 274.75C94.396 275.455 94.7009 275.991 95.0986 276.358C95.5002 276.725 95.9831 276.909 96.5475 276.909Z" fill="white"/>
<path d="M74.2045 343V341.977L78.0455 337.773C78.4962 337.28 78.8674 336.852 79.1591 336.489C79.4508 336.121 79.6667 335.777 79.8068 335.455C79.9508 335.129 80.0227 334.788 80.0227 334.432C80.0227 334.023 79.9242 333.669 79.7273 333.369C79.5341 333.07 79.2689 332.839 78.9318 332.676C78.5947 332.513 78.2159 332.432 77.7955 332.432C77.3485 332.432 76.9583 332.525 76.625 332.71C76.2955 332.892 76.0398 333.148 75.858 333.477C75.6799 333.807 75.5909 334.193 75.5909 334.636H74.25C74.25 333.955 74.4072 333.356 74.7216 332.841C75.036 332.326 75.464 331.924 76.0057 331.636C76.5511 331.348 77.1629 331.205 77.8409 331.205C78.5227 331.205 79.1269 331.348 79.6534 331.636C80.1799 331.924 80.5928 332.312 80.892 332.801C81.1913 333.29 81.3409 333.833 81.3409 334.432C81.3409 334.86 81.2633 335.278 81.108 335.688C80.9564 336.093 80.6913 336.545 80.3125 337.045C79.9375 337.542 79.4167 338.148 78.75 338.864L76.1364 341.659V341.75H81.5455V343H74.2045ZM87.2084 343.159C86.5417 343.159 85.9414 343.027 85.4073 342.761C84.8732 342.496 84.4452 342.133 84.1232 341.67C83.8012 341.208 83.6251 340.682 83.5948 340.091H84.9584C85.0114 340.617 85.2501 341.053 85.6743 341.398C86.1023 341.739 86.6137 341.909 87.2084 341.909C87.6857 341.909 88.1099 341.797 88.4811 341.574C88.8561 341.35 89.1497 341.044 89.3618 340.653C89.5777 340.259 89.6857 339.814 89.6857 339.318C89.6857 338.811 89.5739 338.358 89.3505 337.96C89.1308 337.559 88.8277 337.242 88.4414 337.011C88.055 336.78 87.6137 336.663 87.1175 336.659C86.7614 336.655 86.3959 336.71 86.0209 336.824C85.6459 336.934 85.3372 337.076 85.0948 337.25L83.7766 337.091L84.4811 331.364H90.5266V332.614H85.663L85.2539 336.045H85.322C85.5607 335.856 85.8599 335.699 86.2198 335.574C86.5796 335.449 86.9546 335.386 87.3448 335.386C88.0569 335.386 88.6914 335.557 89.2482 335.898C89.8088 336.235 90.2482 336.697 90.5664 337.284C90.8883 337.871 91.0493 338.542 91.0493 339.295C91.0493 340.038 90.8827 340.701 90.5493 341.284C90.2198 341.864 89.7652 342.322 89.1857 342.659C88.6061 342.992 87.947 343.159 87.2084 343.159ZM96.7819 343.159C95.9258 343.159 95.1966 342.926 94.5944 342.46C93.9921 341.991 93.5319 341.311 93.2137 340.42C92.8955 339.527 92.7364 338.447 92.7364 337.182C92.7364 335.924 92.8955 334.85 93.2137 333.96C93.5357 333.066 93.9978 332.384 94.6001 331.915C95.2061 331.441 95.9334 331.205 96.7819 331.205C97.6304 331.205 98.3557 331.441 98.958 331.915C99.5641 332.384 100.026 333.066 100.344 333.96C100.666 334.85 100.827 335.924 100.827 337.182C100.827 338.447 100.668 339.527 100.35 340.42C100.032 341.311 99.5716 341.991 98.9694 342.46C98.3671 342.926 97.6379 343.159 96.7819 343.159ZM96.7819 341.909C97.6304 341.909 98.2895 341.5 98.7591 340.682C99.2288 339.864 99.4637 338.697 99.4637 337.182C99.4637 336.174 99.3557 335.316 99.1398 334.608C98.9277 333.9 98.6209 333.36 98.2194 332.989C97.8216 332.617 97.3425 332.432 96.7819 332.432C95.941 332.432 95.2838 332.847 94.8103 333.676C94.3368 334.502 94.1001 335.67 94.1001 337.182C94.1001 338.189 94.2061 339.045 94.4182 339.75C94.6304 340.455 94.9353 340.991 95.333 341.358C95.7345 341.725 96.2175 341.909 96.7819 341.909Z" fill="white"/>
<path d="M73.2045 408V406.977L77.0455 402.773C77.4962 402.28 77.8674 401.852 78.1591 401.489C78.4508 401.121 78.6667 400.777 78.8068 400.455C78.9508 400.129 79.0227 399.788 79.0227 399.432C79.0227 399.023 78.9242 398.669 78.7273 398.369C78.5341 398.07 78.2689 397.839 77.9318 397.676C77.5947 397.513 77.2159 397.432 76.7955 397.432C76.3485 397.432 75.9583 397.525 75.625 397.71C75.2955 397.892 75.0398 398.148 74.858 398.477C74.6799 398.807 74.5909 399.193 74.5909 399.636H73.25C73.25 398.955 73.4072 398.356 73.7216 397.841C74.036 397.326 74.464 396.924 75.0057 396.636C75.5511 396.348 76.1629 396.205 76.8409 396.205C77.5227 396.205 78.1269 396.348 78.6534 396.636C79.1799 396.924 79.5928 397.312 79.892 397.801C80.1913 398.29 80.3409 398.833 80.3409 399.432C80.3409 399.86 80.2633 400.278 80.108 400.688C79.9564 401.093 79.6913 401.545 79.3125 402.045C78.9375 402.542 78.4167 403.148 77.75 403.864L75.1364 406.659V406.75H80.5455V408H73.2045ZM86.3675 408.159C85.5114 408.159 84.7823 407.926 84.18 407.46C83.5777 406.991 83.1175 406.311 82.7993 405.42C82.4811 404.527 82.322 403.447 82.322 402.182C82.322 400.924 82.4811 399.85 82.7993 398.96C83.1213 398.066 83.5834 397.384 84.1857 396.915C84.7917 396.441 85.519 396.205 86.3675 396.205C87.216 396.205 87.9414 396.441 88.5436 396.915C89.1497 397.384 89.6118 398.066 89.93 398.96C90.252 399.85 90.413 400.924 90.413 402.182C90.413 403.447 90.2539 404.527 89.9357 405.42C89.6175 406.311 89.1573 406.991 88.555 407.46C87.9527 407.926 87.2236 408.159 86.3675 408.159ZM86.3675 406.909C87.216 406.909 87.8751 406.5 88.3448 405.682C88.8145 404.864 89.0493 403.697 89.0493 402.182C89.0493 401.174 88.9414 400.316 88.7255 399.608C88.5133 398.9 88.2065 398.36 87.805 397.989C87.4073 397.617 86.9281 397.432 86.3675 397.432C85.5266 397.432 84.8694 397.847 84.3959 398.676C83.9224 399.502 83.6857 400.67 83.6857 402.182C83.6857 403.189 83.7917 404.045 84.0039 404.75C84.216 405.455 84.5209 405.991 84.9186 406.358C85.3202 406.725 85.8031 406.909 86.3675 406.909ZM96.0475 408.159C95.1914 408.159 94.4623 407.926 93.86 407.46C93.2577 406.991 92.7975 406.311 92.4793 405.42C92.1611 404.527 92.002 403.447 92.002 402.182C92.002 400.924 92.1611 399.85 92.4793 398.96C92.8013 398.066 93.2634 397.384 93.8657 396.915C94.4717 396.441 95.199 396.205 96.0475 396.205C96.896 396.205 97.6214 396.441 98.2236 396.915C98.8297 397.384 99.2918 398.066 99.61 398.96C99.932 399.85 100.093 400.924 100.093 402.182C100.093 403.447 99.9339 404.527 99.6157 405.42C99.2975 406.311 98.8373 406.991 98.235 407.46C97.6327 407.926 96.9036 408.159 96.0475 408.159ZM96.0475 406.909C96.896 406.909 97.5551 406.5 98.0248 405.682C98.4945 404.864 98.7293 403.697 98.7293 402.182C98.7293 401.174 98.6214 400.316 98.4055 399.608C98.1933 398.9 97.8865 398.36 97.485 397.989C97.0873 397.617 96.6081 397.432 96.0475 397.432C95.2066 397.432 94.5494 397.847 94.0759 398.676C93.6024 399.502 93.3657 400.67 93.3657 402.182C93.3657 403.189 93.4717 404.045 93.6839 404.75C93.896 405.455 94.2009 405.991 94.5986 406.358C95.0002 406.725 95.4831 406.909 96.0475 406.909Z" fill="white"/>
<path d="M80.2955 461.364V473H78.8864V462.841H78.8182L75.9773 464.727V463.295L78.8864 461.364H80.2955ZM86.9584 473.159C86.2917 473.159 85.6914 473.027 85.1573 472.761C84.6232 472.496 84.1952 472.133 83.8732 471.67C83.5512 471.208 83.3751 470.682 83.3448 470.091H84.7084C84.7614 470.617 85.0001 471.053 85.4243 471.398C85.8523 471.739 86.3637 471.909 86.9584 471.909C87.4357 471.909 87.8599 471.797 88.2311 471.574C88.6061 471.35 88.8997 471.044 89.1118 470.653C89.3277 470.259 89.4357 469.814 89.4357 469.318C89.4357 468.811 89.3239 468.358 89.1005 467.96C88.8808 467.559 88.5777 467.242 88.1914 467.011C87.805 466.78 87.3637 466.663 86.8675 466.659C86.5114 466.655 86.1459 466.71 85.7709 466.824C85.3959 466.934 85.0872 467.076 84.8448 467.25L83.5266 467.091L84.2311 461.364H90.2766V462.614H85.413L85.0039 466.045H85.072C85.3107 465.856 85.6099 465.699 85.9698 465.574C86.3296 465.449 86.7046 465.386 87.0948 465.386C87.8069 465.386 88.4414 465.557 88.9982 465.898C89.5588 466.235 89.9982 466.697 90.3164 467.284C90.6383 467.871 90.7993 468.542 90.7993 469.295C90.7993 470.038 90.6327 470.701 90.2993 471.284C89.9698 471.864 89.5152 472.322 88.9357 472.659C88.3561 472.992 87.697 473.159 86.9584 473.159ZM96.5319 473.159C95.6758 473.159 94.9466 472.926 94.3444 472.46C93.7421 471.991 93.2819 471.311 92.9637 470.42C92.6455 469.527 92.4864 468.447 92.4864 467.182C92.4864 465.924 92.6455 464.85 92.9637 463.96C93.2857 463.066 93.7478 462.384 94.3501 461.915C94.9561 461.441 95.6834 461.205 96.5319 461.205C97.3804 461.205 98.1057 461.441 98.708 461.915C99.3141 462.384 99.7762 463.066 100.094 463.96C100.416 464.85 100.577 465.924 100.577 467.182C100.577 468.447 100.418 469.527 100.1 470.42C99.7819 471.311 99.3216 471.991 98.7194 472.46C98.1171 472.926 97.3879 473.159 96.5319 473.159ZM96.5319 471.909C97.3804 471.909 98.0395 471.5 98.5091 470.682C98.9788 469.864 99.2137 468.697 99.2137 467.182C99.2137 466.174 99.1057 465.316 98.8898 464.608C98.6777 463.9 98.3709 463.36 97.9694 462.989C97.5716 462.617 97.0925 462.432 96.5319 462.432C95.691 462.432 95.0338 462.847 94.5603 463.676C94.0868 464.502 93.8501 465.67 93.8501 467.182C93.8501 468.189 93.9561 469.045 94.1682 469.75C94.3804 470.455 94.6853 470.991 95.083 471.358C95.4845 471.725 95.9675 471.909 96.5319 471.909Z" fill="white"/>
<path d="M80.2955 526.364V538H78.8864V527.841H78.8182L75.9773 529.727V528.295L78.8864 526.364H80.2955ZM87.1175 538.159C86.2614 538.159 85.5323 537.926 84.93 537.46C84.3277 536.991 83.8675 536.311 83.5493 535.42C83.2311 534.527 83.072 533.447 83.072 532.182C83.072 530.924 83.2311 529.85 83.5493 528.96C83.8713 528.066 84.3334 527.384 84.9357 526.915C85.5417 526.441 86.269 526.205 87.1175 526.205C87.966 526.205 88.6914 526.441 89.2936 526.915C89.8997 527.384 90.3618 528.066 90.68 528.96C91.002 529.85 91.163 530.924 91.163 532.182C91.163 533.447 91.0039 534.527 90.6857 535.42C90.3675 536.311 89.9073 536.991 89.305 537.46C88.7027 537.926 87.9736 538.159 87.1175 538.159ZM87.1175 536.909C87.966 536.909 88.6251 536.5 89.0948 535.682C89.5645 534.864 89.7993 533.697 89.7993 532.182C89.7993 531.174 89.6914 530.316 89.4755 529.608C89.2633 528.9 88.9565 528.36 88.555 527.989C88.1573 527.617 87.6781 527.432 87.1175 527.432C86.2766 527.432 85.6194 527.847 85.1459 528.676C84.6724 529.502 84.4357 530.67 84.4357 532.182C84.4357 533.189 84.5417 534.045 84.7539 534.75C84.966 535.455 85.2709 535.991 85.6686 536.358C86.0702 536.725 86.5531 536.909 87.1175 536.909ZM96.7975 538.159C95.9414 538.159 95.2123 537.926 94.61 537.46C94.0077 536.991 93.5475 536.311 93.2293 535.42C92.9111 534.527 92.752 533.447 92.752 532.182C92.752 530.924 92.9111 529.85 93.2293 528.96C93.5513 528.066 94.0134 527.384 94.6157 526.915C95.2217 526.441 95.949 526.205 96.7975 526.205C97.646 526.205 98.3714 526.441 98.9736 526.915C99.5797 527.384 100.042 528.066 100.36 528.96C100.682 529.85 100.843 530.924 100.843 532.182C100.843 533.447 100.684 534.527 100.366 535.42C100.048 536.311 99.5873 536.991 98.985 537.46C98.3827 537.926 97.6536 538.159 96.7975 538.159ZM96.7975 536.909C97.646 536.909 98.3051 536.5 98.7748 535.682C99.2445 534.864 99.4793 533.697 99.4793 532.182C99.4793 531.174 99.3714 530.316 99.1555 529.608C98.9433 528.9 98.6365 528.36 98.235 527.989C97.8373 527.617 97.3581 527.432 96.7975 527.432C95.9566 527.432 95.2994 527.847 94.8259 528.676C94.3524 529.502 94.1157 530.67 94.1157 532.182C94.1157 533.189 94.2217 534.045 94.4339 534.75C94.646 535.455 94.9509 535.991 95.3486 536.358C95.7502 536.725 96.2331 536.909 96.7975 536.909Z" fill="white"/>
<path d="M86.8409 603.159C86.1742 603.159 85.5739 603.027 85.0398 602.761C84.5057 602.496 84.0777 602.133 83.7557 601.67C83.4337 601.208 83.2576 600.682 83.2273 600.091H84.5909C84.6439 600.617 84.8826 601.053 85.3068 601.398C85.7348 601.739 86.2462 601.909 86.8409 601.909C87.3182 601.909 87.7424 601.797 88.1136 601.574C88.4886 601.35 88.7822 601.044 88.9943 600.653C89.2102 600.259 89.3182 599.814 89.3182 599.318C89.3182 598.811 89.2064 598.358 88.983 597.96C88.7633 597.559 88.4602 597.242 88.0739 597.011C87.6875 596.78 87.2462 596.663 86.75 596.659C86.3939 596.655 86.0284 596.71 85.6534 596.824C85.2784 596.934 84.9697 597.076 84.7273 597.25L83.4091 597.091L84.1136 591.364H90.1591V592.614H85.2955L84.8864 596.045H84.9545C85.1932 595.856 85.4924 595.699 85.8523 595.574C86.2121 595.449 86.5871 595.386 86.9773 595.386C87.6894 595.386 88.3239 595.557 88.8807 595.898C89.4413 596.235 89.8807 596.697 90.1989 597.284C90.5208 597.871 90.6818 598.542 90.6818 599.295C90.6818 600.038 90.5152 600.701 90.1818 601.284C89.8523 601.864 89.3977 602.322 88.8182 602.659C88.2386 602.992 87.5795 603.159 86.8409 603.159ZM96.4144 603.159C95.5583 603.159 94.8291 602.926 94.2269 602.46C93.6246 601.991 93.1644 601.311 92.8462 600.42C92.528 599.527 92.3689 598.447 92.3689 597.182C92.3689 595.924 92.528 594.85 92.8462 593.96C93.1682 593.066 93.6303 592.384 94.2326 591.915C94.8386 591.441 95.5659 591.205 96.4144 591.205C97.2629 591.205 97.9882 591.441 98.5905 591.915C99.1966 592.384 99.6587 593.066 99.9769 593.96C100.299 594.85 100.46 595.924 100.46 597.182C100.46 598.447 100.301 599.527 99.9826 600.42C99.6644 601.311 99.2041 601.991 98.6019 602.46C97.9996 602.926 97.2704 603.159 96.4144 603.159ZM96.4144 601.909C97.2629 601.909 97.922 601.5 98.3916 600.682C98.8613 599.864 99.0962 598.697 99.0962 597.182C99.0962 596.174 98.9882 595.316 98.7723 594.608C98.5602 593.9 98.2534 593.36 97.8519 592.989C97.4541 592.617 96.975 592.432 96.4144 592.432C95.5735 592.432 94.9163 592.847 94.4428 593.676C93.9693 594.502 93.7326 595.67 93.7326 597.182C93.7326 598.189 93.8386 599.045 94.0507 599.75C94.2629 600.455 94.5678 600.991 94.9655 601.358C95.367 601.725 95.85 601.909 96.4144 601.909Z" fill="white"/>
<path d="M97 668.159C96.1439 668.159 95.4148 667.926 94.8125 667.46C94.2102 666.991 93.75 666.311 93.4318 665.42C93.1136 664.527 92.9545 663.447 92.9545 662.182C92.9545 660.924 93.1136 659.85 93.4318 658.96C93.7538 658.066 94.2159 657.384 94.8182 656.915C95.4242 656.441 96.1515 656.205 97 656.205C97.8485 656.205 98.5739 656.441 99.1761 656.915C99.7822 657.384 100.244 658.066 100.562 658.96C100.884 659.85 101.045 660.924 101.045 662.182C101.045 663.447 100.886 664.527 100.568 665.42C100.25 666.311 99.7898 666.991 99.1875 667.46C98.5852 667.926 97.8561 668.159 97 668.159ZM97 666.909C97.8485 666.909 98.5076 666.5 98.9773 665.682C99.447 664.864 99.6818 663.697 99.6818 662.182C99.6818 661.174 99.5739 660.316 99.358 659.608C99.1458 658.9 98.839 658.36 98.4375 657.989C98.0398 657.617 97.5606 657.432 97 657.432C96.1591 657.432 95.5019 657.847 95.0284 658.676C94.5549 659.502 94.3182 660.67 94.3182 662.182C94.3182 663.189 94.4242 664.045 94.6364 664.75C94.8485 665.455 95.1534 665.991 95.5511 666.358C95.9527 666.725 96.4356 666.909 97 666.909Z" fill="white"/>
<rect x="283.25" y="201.287" width="144.944" height="25.3148" fill="#D55A5A" stroke="#E2D9F3" stroke-width="0.5"/>
<rect x="283.25" y="227.102" width="144.944" height="38.537" fill="#D55A5A" stroke="#E2D9F3" stroke-width="0.5"/>
<line x1="355.76" y1="157" x2="355.76" y2="297.407" stroke="white"/>
<circle cx="356.037" cy="167.037" r="2.51852" fill="#FBC0C0"/>
<circle cx="356.037" cy="187.815" r="2.51852" fill="#FBC0C0"/>
<circle cx="356.667" cy="96.5185" r="2.51852" fill="#FBC0C0"/>
<circle cx="356.037" cy="196" r="2.51852" fill="#FBC0C0"/>
<circle cx="356.037" cy="203.556" r="2.51852" fill="#FBC0C0"/>
<circle cx="356.037" cy="209.852" r="2.51852" fill="#FBC0C0"/>
<circle cx="356.037" cy="216.778" r="2.51852" fill="#FBC0C0"/>
<circle cx="356.037" cy="223.074" r="2.51852" fill="#FBC0C0"/>
<circle cx="356.037" cy="229.37" r="2.51852" fill="#FBC0C0"/>
<circle cx="356.037" cy="237.556" r="2.51852" fill="#FBC0C0"/>
<circle cx="356.037" cy="245.111" r="2.51852" fill="#FBC0C0"/>
<circle cx="356.037" cy="256.445" r="2.51852" fill="#FBC0C0"/>
<circle cx="356.037" cy="264" r="2.51852" fill="#FBC0C0"/>
<circle cx="356.037" cy="275.333" r="2.51852" fill="#FBC0C0"/>
<circle cx="356.037" cy="280.37" r="2.51852" fill="#FBC0C0"/>
<circle cx="356.037" cy="290.445" r="2.51852" fill="#FBC0C0"/>
<circle cx="356.037" cy="295.481" r="2.51852" fill="#FBC0C0"/>
<line x1="353.296" y1="231.666" x2="358.676" y2="226.287" stroke="#160D27" stroke-width="0.62963"/>
<line y1="-0.314815" x2="7.60784" y2="-0.314815" transform="matrix(0.707107 0.707107 0.707107 -0.707107 353.519 226.222)" stroke="#160D27" stroke-width="0.62963"/>
<line x1="337.629" y1="297.537" x2="373.518" y2="297.537" stroke="white"/>
<line x1="337" y1="156.5" x2="372.889" y2="156.5" stroke="white"/>
<path d="M326.438 746V732.909H328.413V744.3H334.345V746H326.438ZM338.942 746.217C338.32 746.217 337.758 746.102 337.255 745.872C336.752 745.638 336.353 745.299 336.059 744.856C335.77 744.413 335.625 743.869 335.625 743.226C335.625 742.672 335.731 742.216 335.944 741.858C336.157 741.5 336.445 741.217 336.807 741.008C337.169 740.799 337.574 740.641 338.022 740.535C338.469 740.428 338.925 740.347 339.39 740.292C339.978 740.224 340.455 740.168 340.821 740.126C341.188 740.079 341.454 740.004 341.62 739.902C341.787 739.8 341.87 739.634 341.87 739.403V739.359C341.87 738.8 341.712 738.368 341.397 738.061C341.086 737.754 340.621 737.601 340.003 737.601C339.36 737.601 338.853 737.744 338.482 738.029C338.115 738.31 337.862 738.624 337.721 738.969L335.925 738.56C336.138 737.963 336.449 737.482 336.858 737.115C337.272 736.744 337.747 736.476 338.284 736.31C338.821 736.139 339.385 736.054 339.978 736.054C340.37 736.054 340.785 736.101 341.224 736.195C341.667 736.284 342.081 736.45 342.464 736.693C342.852 736.936 343.169 737.283 343.417 737.735C343.664 738.183 343.787 738.764 343.787 739.48V746H341.921V744.658H341.844C341.721 744.905 341.535 745.148 341.288 745.386C341.041 745.625 340.723 745.823 340.336 745.981C339.948 746.138 339.483 746.217 338.942 746.217ZM339.358 744.683C339.886 744.683 340.338 744.579 340.713 744.37C341.092 744.161 341.38 743.888 341.576 743.552C341.776 743.211 341.876 742.847 341.876 742.459V741.193C341.808 741.261 341.676 741.325 341.48 741.385C341.288 741.44 341.069 741.489 340.821 741.532C340.574 741.57 340.334 741.607 340.099 741.641C339.865 741.67 339.669 741.696 339.511 741.717C339.14 741.764 338.802 741.843 338.495 741.954C338.192 742.065 337.949 742.224 337.766 742.433C337.587 742.638 337.498 742.911 337.498 743.251C337.498 743.724 337.672 744.082 338.022 744.325C338.371 744.564 338.816 744.683 339.358 744.683ZM345.973 746V736.182H347.808V737.78H347.929C348.134 737.239 348.468 736.817 348.933 736.514C349.397 736.207 349.953 736.054 350.601 736.054C351.257 736.054 351.807 736.207 352.25 736.514C352.697 736.821 353.028 737.243 353.241 737.78H353.343C353.577 737.256 353.95 736.838 354.462 736.527C354.973 736.212 355.582 736.054 356.29 736.054C357.18 736.054 357.907 736.333 358.469 736.891C359.036 737.45 359.32 738.291 359.32 739.416V746H357.408V739.595C357.408 738.93 357.227 738.449 356.865 738.151C356.503 737.852 356.07 737.703 355.567 737.703C354.945 737.703 354.462 737.895 354.116 738.278C353.771 738.658 353.599 739.146 353.599 739.742V746H351.694V739.474C351.694 738.941 351.528 738.513 351.195 738.189C350.863 737.865 350.43 737.703 349.898 737.703C349.536 737.703 349.201 737.799 348.894 737.991C348.592 738.178 348.347 738.44 348.159 738.777C347.976 739.114 347.884 739.504 347.884 739.947V746H345.973ZM361.675 746V732.909H363.586V737.773H363.701C363.812 737.569 363.971 737.332 364.18 737.064C364.389 736.795 364.679 736.561 365.05 736.361C365.42 736.156 365.91 736.054 366.52 736.054C367.312 736.054 368.02 736.254 368.642 736.655C369.264 737.055 369.752 737.633 370.106 738.387C370.464 739.141 370.643 740.049 370.643 741.11C370.643 742.171 370.466 743.081 370.112 743.839C369.758 744.594 369.273 745.175 368.655 745.585C368.037 745.989 367.332 746.192 366.539 746.192C365.942 746.192 365.454 746.092 365.075 745.891C364.7 745.691 364.406 745.457 364.193 745.188C363.98 744.92 363.816 744.681 363.701 744.472H363.541V746H361.675ZM363.547 741.091C363.547 741.781 363.648 742.386 363.848 742.906C364.048 743.426 364.338 743.833 364.717 744.127C365.096 744.417 365.561 744.562 366.111 744.562C366.682 744.562 367.159 744.411 367.543 744.108C367.926 743.801 368.216 743.386 368.412 742.862C368.612 742.337 368.712 741.747 368.712 741.091C368.712 740.443 368.614 739.862 368.418 739.346C368.226 738.83 367.937 738.423 367.549 738.125C367.165 737.827 366.686 737.678 366.111 737.678C365.557 737.678 365.088 737.82 364.704 738.106C364.325 738.391 364.038 738.79 363.842 739.301C363.645 739.812 363.547 740.409 363.547 741.091ZM376.104 746.192C375.312 746.192 374.604 745.989 373.982 745.585C373.364 745.175 372.878 744.594 372.525 743.839C372.175 743.081 372.001 742.171 372.001 741.11C372.001 740.049 372.177 739.141 372.531 738.387C372.889 737.633 373.379 737.055 374.001 736.655C374.623 736.254 375.329 736.054 376.117 736.054C376.726 736.054 377.216 736.156 377.587 736.361C377.962 736.561 378.252 736.795 378.456 737.064C378.665 737.332 378.827 737.569 378.942 737.773H379.057V732.909H380.969V746H379.102V744.472H378.942C378.827 744.681 378.661 744.92 378.444 745.188C378.231 745.457 377.937 745.691 377.562 745.891C377.187 746.092 376.701 746.192 376.104 746.192ZM376.526 744.562C377.076 744.562 377.54 744.417 377.92 744.127C378.303 743.833 378.593 743.426 378.789 742.906C378.989 742.386 379.089 741.781 379.089 741.091C379.089 740.409 378.991 739.812 378.795 739.301C378.599 738.79 378.312 738.391 377.932 738.106C377.553 737.82 377.084 737.678 376.526 737.678C375.951 737.678 375.471 737.827 375.088 738.125C374.704 738.423 374.415 738.83 374.219 739.346C374.027 739.862 373.931 740.443 373.931 741.091C373.931 741.747 374.029 742.337 374.225 742.862C374.421 743.386 374.711 743.801 375.094 744.108C375.482 744.411 375.959 744.562 376.526 744.562ZM386.194 746.217C385.571 746.217 385.009 746.102 384.506 745.872C384.003 745.638 383.605 745.299 383.311 744.856C383.021 744.413 382.876 743.869 382.876 743.226C382.876 742.672 382.983 742.216 383.196 741.858C383.409 741.5 383.696 741.217 384.059 741.008C384.421 740.799 384.826 740.641 385.273 740.535C385.721 740.428 386.177 740.347 386.641 740.292C387.229 740.224 387.706 740.168 388.073 740.126C388.439 740.079 388.706 740.004 388.872 739.902C389.038 739.8 389.121 739.634 389.121 739.403V739.359C389.121 738.8 388.963 738.368 388.648 738.061C388.337 737.754 387.873 737.601 387.255 737.601C386.611 737.601 386.104 737.744 385.733 738.029C385.367 738.31 385.113 738.624 384.973 738.969L383.177 738.56C383.39 737.963 383.701 737.482 384.11 737.115C384.523 736.744 384.998 736.476 385.535 736.31C386.072 736.139 386.637 736.054 387.229 736.054C387.621 736.054 388.037 736.101 388.476 736.195C388.919 736.284 389.332 736.45 389.716 736.693C390.103 736.936 390.421 737.283 390.668 737.735C390.915 738.183 391.039 738.764 391.039 739.48V746H389.172V744.658H389.096C388.972 744.905 388.787 745.148 388.539 745.386C388.292 745.625 387.975 745.823 387.587 745.981C387.199 746.138 386.735 746.217 386.194 746.217ZM386.609 744.683C387.138 744.683 387.589 744.579 387.964 744.37C388.343 744.161 388.631 743.888 388.827 743.552C389.027 743.211 389.128 742.847 389.128 742.459V741.193C389.059 741.261 388.927 741.325 388.731 741.385C388.539 741.44 388.32 741.489 388.073 741.532C387.826 741.57 387.585 741.607 387.351 741.641C387.116 741.67 386.92 741.696 386.763 741.717C386.392 741.764 386.053 741.843 385.746 741.954C385.444 742.065 385.201 742.224 385.017 742.433C384.838 742.638 384.749 742.911 384.749 743.251C384.749 743.724 384.924 744.082 385.273 744.325C385.623 744.564 386.068 744.683 386.609 744.683Z" fill="white"/>
<path d="M21 412.562H7.90909V407.896C7.90909 406.881 8.08381 406.04 8.43324 405.371C8.78267 404.697 9.26633 404.195 9.88423 403.862C10.4979 403.53 11.2074 403.364 12.0128 403.364C12.8139 403.364 13.5192 403.532 14.1286 403.869C14.7337 404.201 15.2045 404.704 15.5412 405.377C15.8778 406.046 16.0462 406.888 16.0462 407.902V411.437H14.3459V408.081C14.3459 407.442 14.2543 406.922 14.071 406.521C13.8878 406.116 13.6214 405.82 13.272 405.633C12.9226 405.445 12.5028 405.352 12.0128 405.352C11.5185 405.352 11.0902 405.447 10.728 405.639C10.3658 405.827 10.0888 406.123 9.89702 406.528C9.70099 406.928 9.60298 407.455 9.60298 408.107V410.587H21V412.562ZM15.0938 406.099L21 402.865V405.115L15.0938 408.286V406.099ZM21.1982 397.365C21.1982 398.332 20.9915 399.166 20.5781 399.864C20.1605 400.559 19.5746 401.096 18.8203 401.475C18.0618 401.85 17.1733 402.038 16.1548 402.038C15.1491 402.038 14.2628 401.85 13.4957 401.475C12.7287 401.096 12.13 400.568 11.6996 399.89C11.2692 399.208 11.054 398.411 11.054 397.499C11.054 396.945 11.1456 396.408 11.3288 395.889C11.5121 395.369 11.7997 394.902 12.1918 394.489C12.5838 394.075 13.093 393.749 13.7195 393.511C14.3416 393.272 15.098 393.153 15.9886 393.153H16.6662V400.957H15.2344L15.2344 395.026C14.7315 395.026 14.2862 395.128 13.8984 395.332C13.5064 395.537 13.1974 395.825 12.9716 396.195C12.7457 396.562 12.6328 396.992 12.6328 397.487C12.6328 398.024 12.7649 398.492 13.0291 398.893C13.2891 399.289 13.63 399.596 14.0518 399.813C14.4695 400.026 14.9233 400.133 15.4134 400.133H16.532C17.1882 400.133 17.7464 400.018 18.2067 399.788C18.6669 399.553 19.0185 399.227 19.2614 398.81C19.5 398.392 19.6193 397.904 19.6193 397.346C19.6193 396.984 19.5682 396.654 19.4659 396.355C19.3594 396.057 19.2017 395.799 18.9929 395.582C18.7841 395.364 18.5263 395.198 18.2195 395.083L18.5455 393.274C19.0781 393.419 19.5447 393.679 19.9453 394.054C20.3416 394.425 20.6506 394.891 20.8722 395.454C21.0895 396.012 21.1982 396.649 21.1982 397.365ZM13.5788 384.035L13.8857 385.767C13.6641 385.84 13.4531 385.955 13.2528 386.112C13.0526 386.266 12.8885 386.475 12.7607 386.739C12.6328 387.003 12.5689 387.333 12.5689 387.73C12.5689 388.271 12.6903 388.722 12.9332 389.085C13.1719 389.447 13.4808 389.628 13.8601 389.628C14.1882 389.628 14.4524 389.507 14.6527 389.264C14.853 389.021 15.017 388.629 15.1449 388.088L15.5028 386.528C15.7116 385.624 16.0334 384.951 16.468 384.508C16.9027 384.065 17.4673 383.843 18.1619 383.843C18.75 383.843 19.2741 384.014 19.7344 384.355C20.1903 384.691 20.5483 385.162 20.8082 385.767C21.0682 386.368 21.1982 387.065 21.1982 387.857C21.1982 388.957 20.9638 389.854 20.495 390.548C20.022 391.243 19.3509 391.669 18.4815 391.827L18.2003 389.98C18.6818 389.865 19.0462 389.628 19.2933 389.27C19.5362 388.912 19.6577 388.445 19.6577 387.87C19.6577 387.244 19.5277 386.743 19.2678 386.368C19.0036 385.993 18.6818 385.806 18.3026 385.806C17.9957 385.806 17.7379 385.921 17.5291 386.151C17.3203 386.377 17.1626 386.724 17.0561 387.193L16.6918 388.855C16.483 389.771 16.1506 390.448 15.6946 390.887C15.2386 391.322 14.6612 391.539 13.9624 391.539C13.3828 391.539 12.8757 391.377 12.4411 391.053C12.0064 390.73 11.6676 390.282 11.4247 389.711C11.1776 389.14 11.054 388.486 11.054 387.749C11.054 386.688 11.2841 385.852 11.7443 385.243C12.2003 384.634 12.8118 384.231 13.5788 384.035ZM24.6818 382.102H11.1818V380.235H12.7734V380.076C12.5689 379.965 12.3324 379.805 12.0639 379.596C11.7955 379.387 11.5611 379.098 11.3608 378.727C11.1563 378.356 11.054 377.866 11.054 377.257C11.054 376.464 11.2543 375.757 11.6548 375.135C12.0554 374.512 12.6328 374.024 13.3871 373.671C14.1413 373.313 15.049 373.134 16.1101 373.134C17.1712 373.134 18.081 373.311 18.8395 373.664C19.5937 374.018 20.1754 374.504 20.5845 375.122C20.9893 375.74 21.1918 376.445 21.1918 377.237C21.1918 377.834 21.0916 378.322 20.8913 378.701C20.6911 379.076 20.4567 379.37 20.1882 379.583C19.9197 379.796 19.6811 379.961 19.4723 380.076V380.191H24.6818V382.102ZM16.0909 380.229C16.7812 380.229 17.3864 380.129 17.9063 379.929C18.4261 379.728 18.8331 379.438 19.1271 379.059C19.4169 378.68 19.5618 378.215 19.5618 377.666C19.5618 377.095 19.4105 376.617 19.108 376.234C18.8011 375.85 18.3857 375.561 17.8615 375.365C17.3374 375.164 16.7472 375.064 16.0909 375.064C15.4432 375.064 14.8615 375.162 14.3459 375.358C13.8303 375.55 13.4233 375.84 13.125 376.228C12.8267 376.611 12.6776 377.09 12.6776 377.666C12.6776 378.22 12.8203 378.688 13.1058 379.072C13.3913 379.451 13.7898 379.739 14.3011 379.935C14.8125 380.131 15.4091 380.229 16.0909 380.229ZM21.1982 367.217C21.1982 368.137 20.9872 368.941 20.5653 369.627C20.1435 370.313 19.5533 370.845 18.7947 371.225C18.0362 371.604 17.1499 371.794 16.1357 371.794C15.1172 371.794 14.2266 371.604 13.4638 371.225C12.701 370.845 12.1087 370.313 11.6868 369.627C11.2649 368.941 11.054 368.137 11.054 367.217C11.054 366.296 11.2649 365.493 11.6868 364.807C12.1087 364.121 12.701 363.588 13.4638 363.209C14.2266 362.83 15.1172 362.64 16.1357 362.64C17.1499 362.64 18.0362 362.83 18.7947 363.209C19.5533 363.588 20.1435 364.121 20.5653 364.807C20.9872 365.493 21.1982 366.296 21.1982 367.217ZM19.5938 367.21C19.5938 366.614 19.4361 366.12 19.1207 365.727C18.8054 365.335 18.3857 365.046 17.8615 364.858C17.3374 364.666 16.7599 364.571 16.1293 364.571C15.5028 364.571 14.9276 364.666 14.4034 364.858C13.875 365.046 13.451 365.335 13.1314 365.727C12.8118 366.12 12.652 366.614 12.652 367.21C12.652 367.811 12.8118 368.31 13.1314 368.706C13.451 369.098 13.875 369.39 14.4034 369.582C14.9276 369.769 15.5028 369.863 16.1293 369.863C16.7599 369.863 17.3374 369.769 17.8615 369.582C18.3857 369.39 18.8054 369.098 19.1207 368.706C19.4361 368.31 19.5938 367.811 19.5938 367.21ZM15.1705 358.956H21V360.867H11.1818V359.032H12.7798V358.911C12.2599 358.685 11.8423 358.331 11.527 357.85C11.2116 357.364 11.054 356.752 11.054 356.015C11.054 355.346 11.1946 354.76 11.4759 354.257C11.7528 353.755 12.1662 353.365 12.7159 353.088C13.2656 352.811 13.9453 352.672 14.755 352.672H21V354.583H14.9851C14.2734 354.583 13.7173 354.769 13.3168 355.139C12.9119 355.51 12.7095 356.019 12.7095 356.667C12.7095 357.11 12.8054 357.505 12.9972 357.85C13.1889 358.191 13.4702 358.461 13.8409 358.662C14.2074 358.858 14.6506 358.956 15.1705 358.956ZM13.5788 343.112L13.8857 344.844C13.6641 344.916 13.4531 345.031 13.2528 345.189C13.0526 345.343 12.8885 345.551 12.7607 345.816C12.6328 346.08 12.5689 346.41 12.5689 346.806C12.5689 347.347 12.6903 347.799 12.9332 348.161C13.1719 348.524 13.4808 348.705 13.8601 348.705C14.1882 348.705 14.4524 348.583 14.6527 348.34C14.853 348.097 15.017 347.705 15.1449 347.164L15.5028 345.605C15.7116 344.701 16.0334 344.028 16.468 343.585C16.9027 343.142 17.4673 342.92 18.1619 342.92C18.75 342.92 19.2741 343.09 19.7344 343.431C20.1903 343.768 20.5483 344.239 20.8082 344.844C21.0682 345.445 21.1982 346.142 21.1982 346.934C21.1982 348.034 20.9638 348.931 20.495 349.625C20.022 350.32 19.3509 350.746 18.4815 350.904L18.2003 349.056C18.6818 348.941 19.0462 348.705 19.2933 348.347C19.5362 347.989 19.6577 347.522 19.6577 346.947C19.6577 346.321 19.5277 345.82 19.2678 345.445C19.0036 345.07 18.6818 344.882 18.3026 344.882C17.9957 344.882 17.7379 344.997 17.5291 345.227C17.3203 345.453 17.1626 345.801 17.0561 346.269L16.6918 347.931C16.483 348.847 16.1506 349.525 15.6946 349.964C15.2386 350.399 14.6612 350.616 13.9624 350.616C13.3828 350.616 12.8757 350.454 12.4411 350.13C12.0064 349.806 11.6676 349.359 11.4247 348.788C11.1776 348.217 11.054 347.563 11.054 346.825C11.054 345.764 11.2841 344.929 11.7443 344.32C12.2003 343.71 12.8118 343.308 13.5788 343.112ZM21 341.179H11.1818V339.267H21V341.179ZM9.6669 340.213C9.6669 340.546 9.55611 340.831 9.33452 341.07C9.10866 341.304 8.8402 341.421 8.52912 341.421C8.21378 341.421 7.94531 341.304 7.72372 341.07C7.49787 340.831 7.38494 340.546 7.38494 340.213C7.38494 339.881 7.49787 339.598 7.72372 339.363C7.94531 339.125 8.21378 339.005 8.52912 339.005C8.8402 339.005 9.10866 339.125 9.33452 339.363C9.55611 339.598 9.6669 339.881 9.6669 340.213ZM11.1818 328.657L21 332.217V334.263L11.1818 337.83V335.778L18.7372 333.291V333.189L11.1818 330.709V328.657ZM21.1982 323.323C21.1982 324.291 20.9915 325.124 20.5781 325.823C20.1605 326.517 19.5746 327.054 18.8203 327.433C18.0618 327.808 17.1733 327.996 16.1548 327.996C15.1491 327.996 14.2628 327.808 13.4957 327.433C12.7287 327.054 12.13 326.526 11.6996 325.848C11.2692 325.166 11.054 324.369 11.054 323.458C11.054 322.904 11.1456 322.367 11.3288 321.847C11.5121 321.327 11.7997 320.86 12.1918 320.447C12.5838 320.033 13.093 319.708 13.7195 319.469C14.3416 319.23 15.098 319.111 15.9886 319.111H16.6662V326.916H15.2344V320.984C14.7315 320.984 14.2862 321.086 13.8984 321.291C13.5064 321.495 13.1974 321.783 12.9716 322.154C12.7457 322.52 12.6328 322.95 12.6328 323.445C12.6328 323.982 12.7649 324.45 13.0291 324.851C13.2891 325.247 13.63 325.554 14.0518 325.771C14.4695 325.984 14.9233 326.091 15.4134 326.091H16.532C17.1882 326.091 17.7464 325.976 18.2067 325.746C18.6669 325.511 19.0185 325.185 19.2614 324.768C19.5 324.35 19.6193 323.862 19.6193 323.304C19.6193 322.942 19.5682 322.612 19.4659 322.313C19.3594 322.015 19.2017 321.757 18.9929 321.54C18.7841 321.323 18.5263 321.156 18.2195 321.041L18.5455 319.232C19.0781 319.377 19.5447 319.637 19.9453 320.012C20.3416 320.383 20.6506 320.85 20.8722 321.412C21.0895 321.97 21.1982 322.607 21.1982 323.323ZM11.1818 308.364H12.7159L12.7159 313.727H11.1818L11.1818 308.364ZM8.82955 312.288V310.377H18.1172C18.4879 310.377 18.767 310.322 18.9545 310.211C19.1378 310.1 19.2635 309.957 19.3317 309.783C19.3956 309.604 19.4276 309.41 19.4276 309.201C19.4276 309.048 19.4169 308.913 19.3956 308.798C19.3743 308.683 19.3572 308.594 19.3445 308.53L20.9233 308.185C20.9659 308.295 21.0085 308.453 21.0511 308.658C21.098 308.862 21.1236 309.118 21.1278 309.425C21.1364 309.928 21.0469 310.396 20.8594 310.831C20.6719 311.266 20.3821 311.617 19.9901 311.886C19.598 312.154 19.1058 312.288 18.5135 312.288H8.82955ZM21 306.609H11.1818V304.698H21V306.609ZM9.6669 305.644C9.6669 305.977 9.55611 306.262 9.33452 306.501C9.10866 306.735 8.8402 306.852 8.52912 306.852C8.21378 306.852 7.94531 306.735 7.72372 306.501C7.49787 306.262 7.38494 305.977 7.38494 305.644C7.38494 305.312 7.49787 305.028 7.72372 304.794C7.94531 304.555 8.21378 304.436 8.52912 304.436C8.8402 304.436 9.10866 304.555 9.33452 304.794C9.55611 305.028 9.6669 305.312 9.6669 305.644ZM21 302.487H11.1818V300.652H12.7798V300.531C12.2386 300.326 11.8168 299.992 11.5142 299.527C11.2074 299.063 11.054 298.507 11.054 297.859C11.054 297.203 11.2074 296.653 11.5142 296.21C11.821 295.763 12.2429 295.432 12.7798 295.219V295.117C12.2557 294.883 11.8381 294.51 11.527 293.998C11.2116 293.487 11.054 292.878 11.054 292.17C11.054 291.28 11.3331 290.553 11.8913 289.991C12.4496 289.424 13.2912 289.14 14.4162 289.14H21V291.052H14.5952C13.9304 291.052 13.4489 291.233 13.1506 291.595C12.8523 291.957 12.7031 292.39 12.7031 292.893C12.7031 293.515 12.8949 293.998 13.2784 294.344C13.6577 294.689 14.1456 294.861 14.7422 294.861H21V296.766H14.4737C13.9411 296.766 13.5128 296.932 13.1889 297.265C12.8651 297.597 12.7031 298.03 12.7031 298.562C12.7031 298.924 12.799 299.259 12.9908 299.566C13.1783 299.868 13.4403 300.113 13.777 300.301C14.1136 300.484 14.5036 300.576 14.9467 300.576H21V302.487ZM21.1982 282.707C21.1982 283.675 20.9915 284.508 20.5781 285.207C20.1605 285.901 19.5746 286.438 18.8203 286.817C18.0618 287.192 17.1733 287.38 16.1548 287.38C15.1491 287.38 14.2628 287.192 13.4957 286.817C12.7287 286.438 12.13 285.91 11.6996 285.232C11.2692 284.55 11.054 283.753 11.054 282.841C11.054 282.288 11.1456 281.751 11.3288 281.231C11.5121 280.711 11.7997 280.244 12.1918 279.831C12.5838 279.417 13.093 279.091 13.7195 278.853C14.3416 278.614 15.098 278.495 15.9886 278.495H16.6662V286.3H15.2344L15.2344 280.368C14.7315 280.368 14.2862 280.47 13.8984 280.675C13.5064 280.879 13.1974 281.167 12.9716 281.538C12.7457 281.904 12.6328 282.334 12.6328 282.829C12.6328 283.366 12.7649 283.834 13.0291 284.235C13.2891 284.631 13.63 284.938 14.0518 285.155C14.4695 285.368 14.9233 285.475 15.4134 285.475H16.532C17.1882 285.475 17.7464 285.36 18.2067 285.13C18.6669 284.895 19.0185 284.569 19.2614 284.152C19.5 283.734 19.6193 283.246 19.6193 282.688C19.6193 282.326 19.5682 281.996 19.4659 281.697C19.3594 281.399 19.2017 281.141 18.9929 280.924C18.7841 280.707 18.5263 280.54 18.2195 280.425L18.5455 278.616C19.0781 278.761 19.5447 279.021 19.9453 279.396C20.3416 279.767 20.6506 280.234 20.8722 280.796C21.0895 281.354 21.1982 281.991 21.1982 282.707ZM15.5668 271.775C13.9645 271.775 12.4901 271.564 11.1435 271.142C9.79687 270.72 8.55469 270.104 7.4169 269.294V267.543C7.83878 267.858 8.35653 268.152 8.97017 268.425C9.58381 268.698 10.2571 268.936 10.9901 269.141C11.7187 269.346 12.4751 269.505 13.2592 269.62C14.0391 269.735 14.8082 269.793 15.5668 269.793C16.581 269.793 17.608 269.693 18.6477 269.493C19.6875 269.292 20.6527 269.022 21.5433 268.681C22.4339 268.34 23.1605 267.961 23.723 267.543L23.723 269.294C22.5852 270.104 21.343 270.72 19.9964 271.142C18.6499 271.564 17.1733 271.775 15.5668 271.775ZM21 265.888H11.1818V264.053H12.7798V263.932C12.2386 263.727 11.8168 263.393 11.5142 262.928C11.2074 262.464 11.054 261.908 11.054 261.26C11.054 260.604 11.2074 260.054 11.5142 259.611C11.821 259.163 12.2429 258.833 12.7798 258.62V258.518C12.2557 258.284 11.8381 257.911 11.527 257.399C11.2116 256.888 11.054 256.279 11.054 255.571C11.054 254.681 11.3331 253.954 11.8913 253.391C12.4496 252.825 13.2912 252.541 14.4162 252.541H21V254.453H14.5952C13.9304 254.453 13.4489 254.634 13.1506 254.996C12.8523 255.358 12.7031 255.791 12.7031 256.293C12.7031 256.916 12.8949 257.399 13.2784 257.744C13.6577 258.09 14.1456 258.262 14.7422 258.262H21V260.167H14.4737C13.9411 260.167 13.5128 260.333 13.1889 260.666C12.8651 260.998 12.7031 261.431 12.7031 261.963C12.7031 262.325 12.799 262.66 12.9908 262.967C13.1783 263.269 13.4403 263.514 13.777 263.702C14.1136 263.885 14.5036 263.977 14.9467 263.977H21V265.888ZM13.5788 242.982L13.8857 244.715C13.6641 244.787 13.4531 244.902 13.2528 245.06C13.0526 245.213 12.8885 245.422 12.7607 245.686C12.6328 245.951 12.5689 246.281 12.5689 246.677C12.5689 247.218 12.6903 247.67 12.9332 248.032C13.1719 248.394 13.4808 248.576 13.8601 248.576C14.1882 248.576 14.4524 248.454 14.6527 248.211C14.853 247.968 15.017 247.576 15.1449 247.035L15.5028 245.475C15.7116 244.572 16.0334 243.899 16.468 243.455C16.9027 243.012 17.4673 242.791 18.1619 242.791C18.75 242.791 19.2741 242.961 19.7344 243.302C20.1903 243.639 20.5483 244.11 20.8082 244.715C21.0682 245.316 21.1982 246.012 21.1982 246.805C21.1982 247.904 20.9638 248.801 20.495 249.496C20.022 250.191 19.3509 250.617 18.4815 250.774L18.2003 248.927C18.6818 248.812 19.0462 248.576 19.2933 248.218C19.5362 247.86 19.6577 247.393 19.6577 246.818C19.6577 246.191 19.5277 245.691 19.2678 245.316C19.0036 244.941 18.6818 244.753 18.3026 244.753C17.9957 244.753 17.7379 244.868 17.5291 245.098C17.3203 245.324 17.1626 245.671 17.0561 246.14L16.6918 247.802C16.483 248.718 16.1506 249.396 15.6946 249.835C15.2386 250.269 14.6612 250.487 13.9624 250.487C13.3828 250.487 12.8757 250.325 12.4411 250.001C12.0064 249.677 11.6676 249.23 11.4247 248.659C11.1776 248.088 11.054 247.433 11.054 246.696C11.054 245.635 11.2841 244.8 11.7443 244.191C12.2003 243.581 12.8118 243.179 13.5788 242.982ZM15.5668 237.374C17.1733 237.374 18.6499 237.585 19.9964 238.007C21.343 238.429 22.5852 239.044 23.723 239.854V241.605C23.3011 241.29 22.7834 240.996 22.1697 240.723C21.5561 240.451 20.8849 240.212 20.1563 240.007C19.4233 239.803 18.6648 239.643 17.8807 239.528C17.0966 239.413 16.3253 239.355 15.5668 239.355C14.5568 239.355 13.532 239.456 12.4922 239.656C11.4524 239.856 10.4872 240.127 9.59659 240.468C8.70597 240.809 7.9794 241.188 7.4169 241.605V239.854C8.55469 239.044 9.79687 238.429 11.1435 238.007C12.4901 237.585 13.9645 237.374 15.5668 237.374Z" fill="white"/>
<rect x="525.25" y="569.687" width="144.5" height="13.9372" fill="#8C68CD" stroke="#E2D9F3" stroke-width="0.5"/>
<rect x="525.25" y="584.125" width="144.5" height="7.66017" fill="#8C68CD" stroke="#E2D9F3" stroke-width="0.5"/>
<line x1="597.5" y1="556" x2="597.5" y2="594.918" stroke="white"/>
<line y1="-0.5" x2="38.9177" y2="-0.5" transform="matrix(1 0 0 -1 578.355 555)" stroke="white"/>
<line y1="-0.5" x2="38.9177" y2="-0.5" transform="matrix(1 0 0 -1 578.355 595.173)" stroke="white"/>
<circle cx="597.511" cy="564.416" r="2.51082" fill="#D4C6EC"/>
<circle cx="597.511" cy="571.32" r="2.51082" fill="#D4C6EC"/>
<circle cx="597.511" cy="576.97" r="2.51082" fill="#D4C6EC"/>
<circle cx="597.511" cy="582.619" r="2.51082" fill="#D4C6EC"/>
<circle cx="597.511" cy="587.013" r="2.51082" fill="#D4C6EC"/>
<circle cx="597.511" cy="557.511" r="2.51082" fill="#D4C6EC"/>
<circle cx="597.511" cy="593.918" r="2.51082" fill="#D4C6EC"/>
<line x1="594.663" y1="582.988" x2="600.619" y2="577.032" stroke="#160D27" stroke-width="0.808141"/>
<line y1="-0.404071" x2="8.42228" y2="-0.404071" transform="matrix(0.707107 0.707107 0.707107 -0.707107 594.949 577)" stroke="#160D27" stroke-width="0.808141"/>
<path d="M578.298 737.045C578.174 736.657 578.008 736.31 577.799 736.003C577.594 735.692 577.349 735.428 577.064 735.21C576.778 734.989 576.452 734.82 576.086 734.705C575.724 734.59 575.325 734.533 574.891 734.533C574.153 734.533 573.489 734.722 572.896 735.102C572.304 735.481 571.835 736.037 571.49 736.77C571.149 737.499 570.979 738.391 570.979 739.448C570.979 740.509 571.151 741.406 571.496 742.139C571.842 742.872 572.315 743.428 572.915 743.808C573.516 744.187 574.2 744.376 574.967 744.376C575.679 744.376 576.299 744.232 576.827 743.942C577.36 743.652 577.771 743.243 578.061 742.714C578.355 742.182 578.502 741.555 578.502 740.835L579.013 740.931H575.268V739.301H580.413V740.79C580.413 741.89 580.179 742.844 579.71 743.654C579.246 744.46 578.602 745.082 577.78 745.521C576.962 745.96 576.024 746.179 574.967 746.179C573.783 746.179 572.743 745.906 571.848 745.361C570.957 744.815 570.263 744.042 569.764 743.04C569.266 742.035 569.016 740.842 569.016 739.461C569.016 738.417 569.161 737.479 569.451 736.648C569.741 735.817 570.148 735.112 570.672 734.533C571.2 733.949 571.82 733.504 572.532 733.197C573.248 732.886 574.03 732.73 574.878 732.73C575.585 732.73 576.244 732.835 576.853 733.043C577.467 733.252 578.012 733.548 578.489 733.932C578.971 734.315 579.369 734.771 579.685 735.3C580 735.824 580.213 736.406 580.324 737.045H578.298ZM586.639 746.198C585.671 746.198 584.838 745.991 584.139 745.578C583.445 745.161 582.908 744.575 582.529 743.82C582.154 743.062 581.966 742.173 581.966 741.155C581.966 740.149 582.154 739.263 582.529 738.496C582.908 737.729 583.436 737.13 584.114 736.7C584.796 736.269 585.593 736.054 586.505 736.054C587.059 736.054 587.595 736.146 588.115 736.329C588.635 736.512 589.102 736.8 589.515 737.192C589.929 737.584 590.255 738.093 590.493 738.719C590.732 739.342 590.851 740.098 590.851 740.989V741.666H583.046V740.234H588.978C588.978 739.732 588.876 739.286 588.671 738.898C588.467 738.506 588.179 738.197 587.809 737.972C587.442 737.746 587.012 737.633 586.517 737.633C585.98 737.633 585.512 737.765 585.111 738.029C584.715 738.289 584.408 738.63 584.191 739.052C583.978 739.469 583.871 739.923 583.871 740.413V741.532C583.871 742.188 583.986 742.746 584.216 743.207C584.451 743.667 584.777 744.018 585.194 744.261C585.612 744.5 586.1 744.619 586.658 744.619C587.02 744.619 587.35 744.568 587.649 744.466C587.947 744.359 588.205 744.202 588.422 743.993C588.639 743.784 588.806 743.526 588.921 743.219L590.73 743.545C590.585 744.078 590.325 744.545 589.95 744.945C589.579 745.342 589.112 745.651 588.55 745.872C587.992 746.089 587.355 746.198 586.639 746.198ZM594.523 740.17V746H592.612V736.182H594.446V737.78H594.568C594.793 737.26 595.147 736.842 595.629 736.527C596.115 736.212 596.726 736.054 597.463 736.054C598.132 736.054 598.718 736.195 599.221 736.476C599.724 736.753 600.114 737.166 600.391 737.716C600.668 738.266 600.806 738.945 600.806 739.755V746H598.895V739.985C598.895 739.273 598.71 738.717 598.339 738.317C597.968 737.912 597.459 737.71 596.811 737.71C596.368 737.71 595.974 737.805 595.629 737.997C595.288 738.189 595.017 738.47 594.817 738.841C594.621 739.207 594.523 739.651 594.523 740.17ZM607.241 746.198C606.274 746.198 605.441 745.991 604.742 745.578C604.047 745.161 603.51 744.575 603.131 743.82C602.756 743.062 602.568 742.173 602.568 741.155C602.568 740.149 602.756 739.263 603.131 738.496C603.51 737.729 604.039 737.13 604.716 736.7C605.398 736.269 606.195 736.054 607.107 736.054C607.661 736.054 608.198 736.146 608.718 736.329C609.237 736.512 609.704 736.8 610.117 737.192C610.531 737.584 610.857 738.093 611.095 738.719C611.334 739.342 611.453 740.098 611.453 740.989V741.666H603.649V740.234H609.581C609.581 739.732 609.478 739.286 609.274 738.898C609.069 738.506 608.782 738.197 608.411 737.972C608.044 737.746 607.614 737.633 607.12 737.633C606.583 737.633 606.114 737.765 605.713 738.029C605.317 738.289 605.01 738.63 604.793 739.052C604.58 739.469 604.473 739.923 604.473 740.413V741.532C604.473 742.188 604.588 742.746 604.818 743.207C605.053 743.667 605.379 744.018 605.796 744.261C606.214 744.5 606.702 744.619 607.26 744.619C607.622 744.619 607.953 744.568 608.251 744.466C608.549 744.359 608.807 744.202 609.024 743.993C609.242 743.784 609.408 743.526 609.523 743.219L611.332 743.545C611.187 744.078 610.927 744.545 610.552 744.945C610.181 745.342 609.715 745.651 609.152 745.872C608.594 746.089 607.957 746.198 607.241 746.198ZM613.009 746V744.69L618.328 737.933V737.844H613.182V736.182H620.712V737.575L615.598 744.249V744.338H620.891V746H613.009ZM622.786 746V736.182H624.697V746H622.786ZM623.751 734.667C623.418 734.667 623.133 734.556 622.894 734.335C622.66 734.109 622.543 733.84 622.543 733.529C622.543 733.214 622.66 732.945 622.894 732.724C623.133 732.498 623.418 732.385 623.751 732.385C624.083 732.385 624.367 732.498 624.601 732.724C624.84 732.945 624.959 733.214 624.959 733.529C624.959 733.84 624.84 734.109 624.601 734.335C624.367 734.556 624.083 734.667 623.751 734.667ZM631.044 746.198C630.123 746.198 629.32 745.987 628.634 745.565C627.948 745.143 627.415 744.553 627.036 743.795C626.657 743.036 626.467 742.15 626.467 741.136C626.467 740.117 626.657 739.227 627.036 738.464C627.415 737.701 627.948 737.109 628.634 736.687C629.32 736.265 630.123 736.054 631.044 736.054C631.964 736.054 632.767 736.265 633.453 736.687C634.14 737.109 634.672 737.701 635.051 738.464C635.431 739.227 635.62 740.117 635.62 741.136C635.62 742.15 635.431 743.036 635.051 743.795C634.672 744.553 634.14 745.143 633.453 745.565C632.767 745.987 631.964 746.198 631.044 746.198ZM631.05 744.594C631.647 744.594 632.141 744.436 632.533 744.121C632.925 743.805 633.215 743.386 633.402 742.862C633.594 742.337 633.69 741.76 633.69 741.129C633.69 740.503 633.594 739.928 633.402 739.403C633.215 738.875 632.925 738.451 632.533 738.131C632.141 737.812 631.647 737.652 631.05 737.652C630.449 737.652 629.951 737.812 629.554 738.131C629.162 738.451 628.87 738.875 628.679 739.403C628.491 739.928 628.397 740.503 628.397 741.129C628.397 741.76 628.491 742.337 628.679 742.862C628.87 743.386 629.162 743.805 629.554 744.121C629.951 744.436 630.449 744.594 631.05 744.594Z" fill="white"/>
</svg>
