<svg width="22" height="18" viewBox="0 0 22 18" fill="none" xmlns="http://www.w3.org/2000/svg">
<path fill-rule="evenodd" clip-rule="evenodd" d="M0.5 2.625C0.5 1.58947 1.33947 0.75 2.375 0.75H19.625C20.6605 0.75 21.5 1.58947 21.5 2.625V15.375C21.5 16.4105 20.6605 17.25 19.625 17.25H2.375C1.33947 17.25 0.5 16.4105 0.5 15.375V2.625ZM20 6.375C20 6.16789 19.8321 6 19.625 6H12.125C11.9179 6 11.75 6.16789 11.75 6.375V7.875C11.75 8.08211 11.9179 8.25 12.125 8.25H19.625C19.8321 8.25 20 8.08211 20 7.875V6.375ZM20 10.125C20 9.91789 19.8321 9.75 19.625 9.75H12.125C11.9179 9.75 11.75 9.91789 11.75 10.125V11.625C11.75 11.8321 11.9179 12 12.125 12H19.625C19.8321 12 20 11.8321 20 11.625V10.125ZM20 13.875C20 13.6679 19.8321 13.5 19.625 13.5H12.125C11.9179 13.5 11.75 13.6679 11.75 13.875V15.375C11.75 15.5821 11.9179 15.75 12.125 15.75H19.625C19.8321 15.75 20 15.5821 20 15.375V13.875ZM9.875 15.75C10.0821 15.75 10.25 15.5821 10.25 15.375V13.875C10.25 13.6679 10.0821 13.5 9.875 13.5H2.375C2.16789 13.5 2 13.6679 2 13.875V15.375C2 15.5821 2.16789 15.75 2.375 15.75H9.875ZM2.375 12H9.875C10.0821 12 10.25 11.8321 10.25 11.625V10.125C10.25 9.91789 10.0821 9.75 9.875 9.75H2.375C2.16789 9.75 2 9.91789 2 10.125V11.625C2 11.8321 2.16789 12 2.375 12ZM2.375 8.25H9.875C10.0821 8.25 10.25 8.08211 10.25 7.875V6.375C10.25 6.16789 10.0821 6 9.875 6H2.375C2.16789 6 2 6.16789 2 6.375V7.875C2 8.08211 2.16789 8.25 2.375 8.25Z" fill="white" fill-opacity="0.5"/>
</svg>
