<svg width="67" height="67" viewBox="0 0 67 67" fill="none" xmlns="http://www.w3.org/2000/svg">
<g clip-path="url(#clip0_13_613)">
<path d="M64.6338 18.7526L66.7119 13.3662L66.6266 13.0332L46.058 18.4471C48.2516 15.2736 47.4975 12.7277 47.4975 12.7277C47.4975 12.7277 40.9275 16.9223 35.9567 16.815C30.9914 16.7049 29.3867 15.3837 21.7681 17.8113C14.1495 20.2389 11.9944 27.6924 9.79247 29.297C7.57955 30.9017 0.654541 36.1147 0.654541 36.1147L0.671055 36.2083L6.91898 34.2156C6.91898 34.2156 5.20699 35.8257 1.56558 40.7387L1.39493 40.5818L1.40044 40.6121C1.40044 40.6121 4.32898 45.0875 7.19972 44.2563C7.53501 44.1507 7.86017 44.0153 8.17132 43.8517C9.32457 44.4957 10.8329 45.126 12.4981 45.2967C12.4981 45.2967 11.3696 43.9893 10.4283 42.4975L11.0833 42.0736L13.4642 42.9489L13.1999 40.714C13.2082 40.7057 13.2164 40.7057 13.222 40.6974L15.5587 41.5534L15.2697 39.5222C15.5605 39.3679 15.856 39.2228 16.156 39.0873L18.5919 29.8806L28.6711 23.0078L27.8702 25.0253C25.8306 30.0512 21.9938 31.2347 21.9938 31.2347L20.3919 31.8403C19.2001 33.2495 18.702 33.5935 18.2891 38.3166C19.2469 38.0744 20.1662 38.0221 20.9975 38.2396C25.3022 39.3983 26.7967 44.5893 25.6352 46.0206C25.349 46.3784 24.6554 46.9949 23.7829 47.7188H22.0406L22.0186 49.1335L21.8397 49.2739H20.0644L20.0396 50.6611L19.5717 51.0106C17.901 51.0409 15.7927 49.5849 15.7927 49.5849C15.7927 50.9088 16.8964 52.9566 16.8964 52.9566L17.0891 52.863L16.9212 52.9869C16.9212 52.9869 21.3938 55.9677 24.204 54.8612C26.7087 53.8814 33.185 48.7702 38.7806 46.3481L55.7078 41.8892L57.94 36.1092L45.0368 39.5084V34.3091L60.175 30.3237L62.4072 24.5437L45.0396 29.1181V23.9189L64.6338 18.7526ZM33.9089 29.7622L37.9247 28.7053L37.9797 28.909L36.7274 32.154L32.563 33.2495L33.9089 29.7622ZM35.2934 36.7147L31.1318 37.8102L32.4777 34.3257L36.4934 33.266L36.5485 33.4697L35.2934 36.7147ZM40.7183 35.5477L36.554 36.6432L37.9026 33.1586L41.9184 32.099L41.9734 32.2999L40.7183 35.5477Z" fill="white"/>
</g>
<defs>
<clipPath id="clip0_13_613">
<rect width="66.0574" height="66.0574" fill="white" transform="translate(0.654968 0.889893)"/>
</clipPath>
</defs>
</svg>
