<?xml version="1.0" encoding="utf-8"?>
<!-- Generator: Adobe Illustrator 26.5.0, SVG Export Plug-In . SVG Version: 6.00 Build 0)  -->
<svg version="1.1" id="Layer_1" xmlns="http://www.w3.org/2000/svg" xmlns:xlink="http://www.w3.org/1999/xlink" x="0px" y="0px"
	 viewBox="0 0 24 24" style="enable-background:new 0 0 24 24;" xml:space="preserve">
<style type="text/css">
	.st0{fill:#A3A3A3;stroke:#A3A3A3;stroke-width:0.75;stroke-miterlimit:10;}
</style>
<g>
	<path class="st0" d="M9,17.8c0,0-0.1,0-0.1,0c-1.8,0-3.6,0-5.4,0c-0.4,0-0.8-0.1-1.1-0.4c-0.3-0.3-0.5-0.6-0.6-1c0-0.1,0-0.2,0-0.2
		c0-3.9,0-7.8,0-11.7c0-0.4,0.1-0.7,0.3-1c0.3-0.4,0.6-0.6,1.1-0.7c0.1,0,0.2,0,0.3,0c5.7,0,11.4,0,17.1,0c0.4,0,0.8,0.1,1.1,0.4
		c0.3,0.3,0.6,0.6,0.6,1.1c0,0.1,0,0.2,0,0.3c0,3.9,0,7.7,0,11.6c0,0.4-0.1,0.8-0.4,1.1c-0.3,0.3-0.7,0.6-1.1,0.6
		c-0.1,0-0.2,0-0.3,0c-1.8,0-3.6,0-5.4,0c0,0,0,0-0.1,0c0,0.1,0.1,0.1,0.1,0.2c0,0.1,0.1,0.2,0.1,0.2c0.1,0.2,0.2,0.5,0.4,0.7
		c0.1,0.3,0.3,0.5,0.4,0.8c0.2,0.4,0.1,0.8-0.1,1.1c-0.2,0.2-0.4,0.3-0.7,0.4c-0.1,0-0.1,0-0.1,0c-2.1,0-4.1,0-6.2,0
		c-0.3,0-0.5-0.1-0.7-0.3c-0.2-0.2-0.3-0.4-0.3-0.6c0-0.2,0-0.4,0.1-0.6c0-0.1,0.1-0.1,0.1-0.2c0.1-0.2,0.2-0.5,0.4-0.7
		C8.6,18.5,8.8,18.2,9,17.8C8.9,17.9,9,17.9,9,17.8z M13.7,15.1c2.6,0,5.2,0,7.9,0c0,0,0-0.1,0-0.1c0-3.5,0-7,0-10.5
		c0-0.1,0-0.2,0-0.2c-0.1-0.2-0.2-0.4-0.4-0.6c-0.2-0.1-0.3-0.2-0.5-0.2c-2.3,0-4.6,0-6.9,0c0,0,0,0-0.1,0
		C13.7,7.3,13.7,11.2,13.7,15.1z M13,15.1c0-3.9,0-7.8,0-11.6c0,0,0,0-0.1,0c-3.2,0-6.4,0-9.6,0c0,0,0,0-0.1,0
		C3,3.5,2.8,3.6,2.7,3.8C2.5,4,2.4,4.2,2.4,4.4c0,3.5,0,7.1,0,10.6c0,0,0,0,0,0.1C5.9,15.1,9.5,15.1,13,15.1z M21.6,15.8
		c-6.4,0-12.8,0-19.2,0c0,0.2,0,0.3,0,0.5c0,0.2,0.1,0.4,0.3,0.6c0.2,0.2,0.4,0.3,0.7,0.3c5.7,0,11.5,0,17.2,0c0,0,0.1,0,0.1,0
		c0.3-0.1,0.6-0.2,0.8-0.5C21.6,16.3,21.6,16.1,21.6,15.8z M12,20.6c1,0,2,0,3,0c0,0,0.1,0,0.1,0c0.2,0,0.3-0.2,0.3-0.4
		c0-0.1-0.1-0.2-0.1-0.3c-0.2-0.3-0.3-0.6-0.5-0.9c-0.2-0.3-0.4-0.7-0.5-1c0,0,0,0-0.1,0c-1.5,0-2.9,0-4.4,0c0,0-0.1,0-0.1,0
		c-0.1,0.2-0.2,0.3-0.2,0.5C9.3,18.7,9.2,19,9,19.3c-0.1,0.3-0.3,0.5-0.4,0.8c0,0.1,0,0.1,0,0.2c0,0.2,0.2,0.3,0.4,0.3
		C10,20.6,11,20.6,12,20.6z"/>
	<path class="st0" d="M17.6,10.4c0.9,0,1.7,0,2.6,0c0.2,0,0.4,0.2,0.4,0.4c0,0.2-0.1,0.3-0.3,0.3c0,0-0.1,0-0.1,0c-1.7,0-3.3,0-5,0
		c-0.2,0-0.4-0.1-0.4-0.3c0-0.2,0.1-0.3,0.3-0.4c0,0,0.1,0,0.1,0C15.9,10.4,16.8,10.4,17.6,10.4z"/>
	<path class="st0" d="M17.7,12.9c0.9,0,1.7,0,2.6,0c0.2,0,0.3,0.1,0.3,0.3c0.1,0.2-0.1,0.4-0.4,0.4c-1.7,0-3.4,0-5.1,0
		c-0.2,0-0.3-0.1-0.4-0.3c0-0.2,0.1-0.4,0.3-0.4C15.9,12.9,16.8,12.9,17.7,12.9z"/>
	<path class="st0" d="M20,6.5c-0.1-0.2-0.3-0.4-0.4-0.5c-0.1-0.2-0.3-0.4-0.4-0.5c-0.1-0.1-0.1-0.2,0-0.3c0.1-0.1,0.2-0.2,0.3-0.2
		c0.1,0,0.2,0.1,0.3,0.2c0.3,0.4,0.6,0.8,0.9,1.2c0.1,0.1,0.1,0.3,0,0.4c-0.3,0.4-0.6,0.8-0.9,1.2c-0.1,0.1-0.2,0.2-0.3,0.2
		c-0.1,0-0.3-0.1-0.3-0.2c0-0.1,0-0.2,0.1-0.3C19.4,7.2,19.7,6.9,20,6.5z"/>
	<path class="st0" d="M15.3,6.5c0.1,0.2,0.3,0.4,0.4,0.6c0.1,0.2,0.3,0.3,0.4,0.5c0.1,0.2,0,0.5-0.2,0.5c-0.1,0-0.3,0-0.3-0.2
		c-0.3-0.4-0.6-0.8-0.9-1.2c-0.1-0.1-0.1-0.3,0-0.4c0.3-0.4,0.6-0.8,0.9-1.2C15.7,5,15.8,4.9,16,5c0.1,0,0.2,0.2,0.2,0.3
		c0,0.1-0.1,0.2-0.1,0.3C15.8,5.8,15.6,6.2,15.3,6.5C15.3,6.5,15.3,6.5,15.3,6.5z"/>
	<path class="st0" d="M17.9,5.3c0.1,0,0.3,0.1,0.2,0.3C18,6,17.9,6.4,17.8,6.8c-0.1,0.2-0.1,0.5-0.2,0.7c0,0.1-0.1,0.1-0.2,0.2
		c-0.2,0-0.3-0.1-0.3-0.3c0-0.1,0-0.2,0.1-0.2c0.1-0.5,0.2-1,0.4-1.5c0-0.1,0-0.1,0-0.2C17.7,5.4,17.8,5.3,17.9,5.3z"/>
	<path class="st0" d="M7.7,8.9c-1.1,0-2.1,0-3.2,0C4.3,8.9,4,8.7,4,8.4c0,0,0-0.1,0-0.1c0-1,0-2,0-2.9C4,5.2,4.1,5.1,4.2,5
		c0.1-0.1,0.2-0.1,0.4-0.1c2.1,0,4.2,0,6.3,0c0.3,0,0.5,0.2,0.6,0.5c0,0,0,0.1,0,0.1c0,1,0,1.9,0,2.9c0,0.2-0.1,0.4-0.3,0.5
		c-0.1,0-0.2,0.1-0.3,0.1C9.8,8.9,8.8,8.9,7.7,8.9z M10.9,8.3c0-1,0-1.9,0-2.9c-2.1,0-4.2,0-6.3,0c0,1,0,1.9,0,2.9
		C6.7,8.3,8.8,8.3,10.9,8.3z"/>
	<path class="st0" d="M4,12c0-0.4,0-0.7,0-1.1c0-0.2,0.2-0.4,0.3-0.5c0.1,0,0.2,0,0.2,0c0.7,0,1.4,0,2.1,0c0.3,0,0.5,0.2,0.5,0.5
		c0,0,0,0,0,0c0,0.7,0,1.5,0,2.2c0,0.2-0.2,0.5-0.4,0.5c0,0-0.1,0-0.1,0c-0.7,0-1.4,0-2.1,0c-0.3,0-0.5-0.2-0.5-0.4c0,0,0-0.1,0-0.1
		C4,12.7,4,12.4,4,12z M6.6,13.1c0-0.7,0-1.4,0-2.1c-0.7,0-1.4,0-2.1,0c0,0.7,0,1.4,0,2.1C5.2,13.1,5.9,13.1,6.6,13.1z"/>
	<path class="st0" d="M8.2,12c0-0.4,0-0.7,0-1.1c0-0.2,0.2-0.4,0.3-0.5c0.1,0,0.2,0,0.2,0c0.7,0,1.4,0,2.1,0c0.1,0,0.3,0.1,0.4,0.2
		c0.1,0.1,0.2,0.2,0.2,0.4c0,0.7,0,1.4,0,2.2c0,0.2-0.1,0.3-0.3,0.4c-0.1,0.1-0.2,0.1-0.3,0.1c-0.7,0-1.4,0-2.1,0
		c-0.3,0-0.5-0.2-0.5-0.5C8.2,12.7,8.2,12.4,8.2,12z M10.9,13.1c0-0.7,0-1.4,0-2.1c-0.7,0-1.4,0-2.1,0c0,0.7,0,1.4,0,2.1
		C9.5,13.1,10.2,13.1,10.9,13.1z"/>
</g>
</svg>
