<svg width="31" height="34" viewBox="0 0 31 34" fill="none" xmlns="http://www.w3.org/2000/svg">
  <path fill-rule="evenodd" clip-rule="evenodd" d="M15.3754 24.7358H9.53846C9.16677 24.7359 8.81027 24.5907 8.54728 24.3324L0.410124 16.3272C0.147467 16.0684 -4.00251e-05 15.7177 1.46792e-05 15.3521V11.8107C2.68723e-05 11.4447 0.147503 11.0937 0.410124 10.8346L11.0132 0.403458C11.2764 0.145348 11.6327 0.000284911 12.0044 0H24.7828C25.1544 5.92793e-05 25.5109 0.145157 25.774 0.403458L30.4456 4.99112C30.7087 5.24968 30.8566 5.60042 30.8568 5.96623V9.57775C30.8571 9.71427 30.8161 9.8478 30.7392 9.9614C30.6622 10.075 30.5527 10.1636 30.4245 10.2158C30.2963 10.2681 30.1552 10.2818 30.0191 10.2551C29.883 10.2284 29.758 10.1625 29.66 10.0658L24.0349 4.53091C23.9047 4.40292 23.7502 4.30141 23.5801 4.23218C23.4101 4.16296 23.2278 4.12737 23.0437 4.12745H13.7402C13.3703 4.12902 13.0161 4.27485 12.7554 4.53297L4.60561 12.5495C4.34325 12.8084 4.1958 13.159 4.19551 13.5246V13.6381C4.19524 14.0034 4.34192 14.354 4.60352 14.6132L10.2842 20.2028C10.4144 20.3308 10.5689 20.4323 10.739 20.5016C10.9091 20.5708 11.0913 20.6064 11.2754 20.6063H13.6354C13.8196 20.6067 14.0022 20.5713 14.1724 20.5021C14.3427 20.4328 14.4974 20.3311 14.6276 20.2028L17.8676 17.0154C17.9326 16.9514 18.0099 16.9006 18.0949 16.8659C18.18 16.8312 18.2711 16.8134 18.3632 16.8134C18.4552 16.8134 18.5463 16.8312 18.6314 16.8659C18.7164 16.9006 18.7937 16.9514 18.8587 17.0154L20.8317 18.9594C20.8968 19.0235 20.9484 19.0995 20.9837 19.1831C21.0189 19.2668 21.0371 19.3564 21.0371 19.447C21.0371 19.5376 21.0189 19.6272 20.9837 19.7109C20.9484 19.7945 20.8968 19.8705 20.8317 19.9346L16.3624 24.3313C16.1006 24.5891 15.7458 24.7345 15.3754 24.7358ZM15.4814 8.26419H21.3184C21.69 8.26413 22.0465 8.40925 22.3095 8.66765L30.4467 16.6697C30.7093 16.9285 30.8569 17.2792 30.8568 17.6449V21.1893C30.8565 21.5549 30.7091 21.9055 30.4467 22.1644L19.8436 32.5965C19.5805 32.8547 19.2241 32.9997 18.8525 33H6.07404C5.70242 32.9997 5.34604 32.8547 5.08285 32.5965L0.411172 28.0099C0.148131 27.7514 0.000237574 27.4006 1.46792e-05 27.0348V23.4233C-0.000885186 23.2865 0.0396063 23.1525 0.116335 23.0385C0.193063 22.9244 0.302559 22.8353 0.430885 22.7827C0.559211 22.73 0.700564 22.7161 0.836953 22.7427C0.973341 22.7693 1.0986 22.8353 1.19678 22.9321L6.81769 28.467C6.94854 28.5951 7.10384 28.6966 7.27466 28.7654C7.44548 28.8343 7.62846 28.8693 7.81307 28.8684H17.1124C17.2965 28.8687 17.4788 28.8332 17.6489 28.764C17.819 28.6948 17.9735 28.5931 18.1036 28.465L26.2533 20.4484C26.5157 20.1895 26.6631 19.8389 26.6634 19.4733V19.3598C26.6631 18.9942 26.5157 18.6436 26.2533 18.3847L20.5716 12.7951C20.4414 12.6671 20.2868 12.5656 20.1168 12.4964C19.9467 12.4271 19.7644 12.3916 19.5804 12.3916H17.2204C17.0363 12.3914 16.854 12.427 16.684 12.4962C16.5139 12.5654 16.3593 12.667 16.2292 12.7951L12.9893 15.9846C12.9242 16.0486 12.8469 16.0995 12.7619 16.1341C12.6769 16.1688 12.5857 16.1866 12.4937 16.1866C12.4016 16.1866 12.3105 16.1688 12.2254 16.1341C12.1404 16.0995 12.0631 16.0486 11.9981 15.9846L10.0209 14.0406C9.95583 13.9765 9.90418 13.9005 9.86895 13.8169C9.83371 13.7332 9.81557 13.6436 9.81557 13.553C9.81557 13.4624 9.83371 13.3728 9.86895 13.2891C9.90418 13.2055 9.95583 13.1295 10.0209 13.0654L14.4902 8.66765C14.7534 8.40954 15.1098 8.26447 15.4814 8.26419Z" fill="black"/>
</svg>