<svg width="131" height="34" viewBox="0 0 131 34" fill="none" xmlns="http://www.w3.org/2000/svg">
<path d="M47.8916 9.36121H41.8029C40.4981 9.36121 39.4041 9.78076 38.6405 10.5716C37.9178 11.3195 37.5371 12.34 37.5371 13.5242V19.0528C37.5371 20.2265 37.9032 21.2879 38.5671 22.041C39.3013 22.8801 40.3701 23.3196 41.6476 23.3196H44.7628C45.2285 23.3134 45.6836 23.1791 46.0781 22.9315V25.4876C46.0784 25.7666 45.9682 26.0343 45.7716 26.2322C45.5751 26.4301 45.3081 26.5422 45.0292 26.5438H39.0706C38.8847 26.5438 38.7065 26.6177 38.5751 26.7491C38.4437 26.8805 38.3699 27.0587 38.3699 27.2445V29.6569H45.0271C45.5884 29.6574 46.1442 29.5472 46.6628 29.3326C47.1814 29.1179 47.6525 28.8031 48.0491 28.406C48.4458 28.0089 48.7602 27.5375 48.9744 27.0187C49.1885 26.4999 49.2982 25.944 49.2971 25.3827V10.7625C49.2969 10.5782 49.2605 10.3957 49.1897 10.2254C49.119 10.0552 49.0154 9.90061 48.8849 9.77046C48.7543 9.64031 48.5994 9.53718 48.429 9.46695C48.2585 9.39673 48.0759 9.3608 47.8916 9.36121ZM46.0718 12.468V19.3433C46.0444 19.5575 45.9488 19.7572 45.7989 19.9127C45.6491 20.0682 45.4531 20.1713 45.24 20.2066H41.699C41.2082 20.2066 40.755 20.0796 40.755 19.1577V13.5252C40.755 12.7648 41.0477 12.469 41.8039 12.469L46.0718 12.468Z" fill="white"/>
<path d="M63.4395 10.4279C62.6843 9.743 61.6176 9.36646 60.4355 9.36646H56.9543C55.7743 9.36646 54.7087 9.743 53.9525 10.4269C53.1249 11.1758 52.6875 12.2488 52.6875 13.5294V19.0297C52.6861 19.5904 52.7955 20.1459 53.0095 20.6642C53.2234 21.1825 53.5377 21.6534 53.9342 22.0499C54.3306 22.4464 54.8016 22.7606 55.3199 22.9746C55.8382 23.1885 56.3936 23.2979 56.9543 23.2965H64.1632V20.8841C64.1632 20.6982 64.0894 20.5199 63.9581 20.3883C63.8267 20.2568 63.6485 20.1827 63.4626 20.1824H56.9596C56.821 20.1842 56.6834 20.1584 56.5549 20.1064C56.4265 20.0545 56.3096 19.9774 56.2113 19.8797C56.1129 19.7821 56.035 19.6658 55.9822 19.5376C55.9293 19.4095 55.9025 19.2722 55.9034 19.1336V17.7165C56.0763 17.7698 56.2563 17.7967 56.4372 17.7962H63.5465C64.7002 17.7962 64.7002 16.8302 64.7002 16.5124V13.5305C64.7023 12.2477 64.265 11.1747 63.4395 10.4279ZM61.5379 13.4948V14.7063H55.9055V13.4948C55.9055 13.1025 56.0429 12.4459 56.9617 12.4459H60.5205C60.8907 12.4459 61.1561 12.5236 61.3092 12.6777C61.4624 12.8319 61.54 13.1109 61.5379 13.4948Z" fill="white"/>
<path d="M69.6699 9.37167C69.099 9.37167 68.5516 9.59843 68.148 10.0021C67.7443 10.4057 67.5176 10.9531 67.5176 11.524V23.2965H70.0349C70.2207 23.2965 70.3989 23.2227 70.5303 23.0913C70.6617 22.9599 70.7355 22.7817 70.7355 22.5959V12.4501H75.2457C75.5247 12.4495 75.7926 12.5596 75.9906 12.7563C76.1885 12.9529 76.3005 13.22 76.3019 13.499V22.5938C76.3019 22.7796 76.3757 22.9578 76.5071 23.0892C76.6385 23.2206 76.8167 23.2944 77.0025 23.2944H79.5198V13.6269C79.5192 12.6334 79.1737 11.6709 78.5425 10.9037C77.9113 10.1364 77.0333 9.61202 76.0586 9.41992C75.8832 9.38708 75.7052 9.37093 75.5268 9.37167H69.6699Z" fill="white"/>
<path d="M93.639 10.4279C92.8828 9.743 91.8161 9.36646 90.6351 9.36646H87.1623C85.9833 9.36646 84.9177 9.743 84.1614 10.4269C83.3339 11.1758 82.8965 12.2488 82.8965 13.5294V19.0297C82.8951 19.5903 83.0045 20.1457 83.2184 20.6639C83.4322 21.1822 83.7464 21.6531 84.1428 22.0495C84.5391 22.446 85.0099 22.7603 85.5281 22.9743C86.0463 23.1883 86.6016 23.2978 87.1623 23.2965H94.3712V20.8841C94.3712 20.6982 94.2974 20.5199 94.166 20.3883C94.0346 20.2568 93.8564 20.1827 93.6705 20.1824H87.1623C87.0236 20.1844 86.886 20.1587 86.7575 20.1067C86.6289 20.0548 86.512 19.9777 86.4137 19.88C86.3153 19.7823 86.2374 19.666 86.1846 19.5378C86.1318 19.4096 86.1051 19.2722 86.106 19.1336V17.7165C86.2786 17.7697 86.4583 17.7966 86.6389 17.7962H93.7492C94.9029 17.7962 94.9029 16.8302 94.9029 16.5124V13.5305C94.9008 12.2477 94.4645 11.1747 93.639 10.4279ZM86.1008 13.4948C86.1008 13.1025 86.2382 12.4459 87.157 12.4459H90.7148C91.0861 12.4459 91.3515 12.5236 91.5046 12.6777C91.6577 12.8319 91.7385 13.1099 91.7364 13.4959V14.7073H86.1008V13.4948Z" fill="white"/>
<path d="M108.289 13.1392L108.295 13.1308C108.667 12.6909 108.872 12.1338 108.874 11.5575V10.0985C108.872 9.99982 108.851 9.90238 108.812 9.81185C108.773 9.72132 108.716 9.63952 108.645 9.5712C108.573 9.50288 108.489 9.44941 108.397 9.41389C108.305 9.37838 108.207 9.36152 108.108 9.36431H99.1529C99.0542 9.36152 98.9559 9.37838 98.8638 9.41389C98.7717 9.44941 98.6876 9.50288 98.6164 9.5712C98.5451 9.63952 98.4882 9.72132 98.4488 9.81185C98.4095 9.90238 98.3885 9.99982 98.3872 10.0985V12.3924H104.914L98.2991 19.9286L98.2928 19.9359C97.9213 20.3762 97.7167 20.9332 97.7148 21.5092V22.5864C97.7148 22.7722 97.7887 22.9504 97.9201 23.0818C98.0515 23.2132 98.2297 23.287 98.4155 23.287H108.357C108.449 23.287 108.54 23.2689 108.625 23.2337C108.71 23.1985 108.787 23.1469 108.852 23.0818C108.917 23.0168 108.969 22.9395 109.004 22.8545C109.039 22.7695 109.057 22.6784 109.057 22.5864V20.2264H102.042L108.289 13.1392Z" fill="white"/>
<path d="M114.858 9.3612H112.408V22.5959C112.408 22.7817 112.482 22.9599 112.613 23.0913C112.745 23.2227 112.923 23.2965 113.109 23.2965H115.626V10.0986C115.625 9.99941 115.604 9.90144 115.565 9.81041C115.526 9.71938 115.469 9.63711 115.397 9.56843C115.326 9.49974 115.241 9.44604 115.149 9.41045C115.056 9.37487 114.957 9.35812 114.858 9.3612Z" fill="white"/>
<path d="M114.924 3.8913H112.406V6.56068C112.406 6.7465 112.48 6.92471 112.611 7.05611C112.743 7.18751 112.921 7.26132 113.107 7.26132H115.624V4.59194C115.624 4.40612 115.55 4.22791 115.419 4.09651C115.288 3.96511 115.109 3.8913 114.924 3.8913Z" fill="#00FAA4"/>
<path d="M126.704 9.18289H123.279C122.718 9.18275 122.163 9.29299 121.646 9.5073C121.128 9.72161 120.658 10.0358 120.262 10.4319C119.865 10.8281 119.551 11.2984 119.337 11.816C119.122 12.3336 119.012 12.8884 119.012 13.4487V19.208C119.01 19.7687 119.12 20.3242 119.334 20.8425C119.548 21.3608 119.862 21.8317 120.258 22.2282C120.655 22.6247 121.126 22.9389 121.644 23.1529C122.162 23.3668 122.718 23.4762 123.279 23.4748H126.704C127.84 23.479 128.931 23.0319 129.738 22.2318C130.544 21.4316 131 20.344 131.005 19.208V13.4487C131 12.3128 130.544 11.2255 129.737 10.4256C128.931 9.62569 127.84 9.17871 126.704 9.18289ZM126.704 20.3911H123.279C123.138 20.3912 122.999 20.3631 122.869 20.3086C122.739 20.2541 122.622 20.1742 122.523 20.0737C122.425 19.9731 122.348 19.854 122.296 19.7231C122.244 19.5923 122.219 19.4525 122.222 19.3119V13.3396C122.222 13.2013 122.25 13.0644 122.303 12.9367C122.356 12.8091 122.434 12.6932 122.532 12.5957C122.63 12.4982 122.746 12.4211 122.874 12.3687C123.002 12.3164 123.139 12.2899 123.277 12.2907H126.704C126.985 12.2909 127.255 12.4005 127.456 12.5964C127.657 12.7922 127.774 13.0588 127.782 13.3396V19.3056C127.783 19.4477 127.756 19.5887 127.702 19.7203C127.648 19.8519 127.569 19.9716 127.469 20.0724C127.369 20.1733 127.25 20.2534 127.118 20.3081C126.987 20.3628 126.846 20.391 126.704 20.3911Z" fill="white"/>
<path d="M9.53845 25.1436H15.3754C15.7458 25.1422 16.1006 24.9944 16.3624 24.7324L20.8317 20.2632C20.8968 20.1981 20.9484 20.1208 20.9837 20.0358C21.0189 19.9508 21.037 19.8596 21.037 19.7676C21.037 19.6755 21.0189 19.5844 20.9837 19.4993C20.9484 19.4143 20.8968 19.3371 20.8317 19.272L18.8587 17.2959C18.7937 17.2308 18.7164 17.1792 18.6314 17.1439C18.5463 17.1087 18.4552 17.0905 18.3631 17.0905C18.2711 17.0905 18.1799 17.1087 18.0949 17.1439C18.0099 17.1792 17.9326 17.2308 17.8675 17.2959L14.6276 20.5359C14.4974 20.6663 14.3427 20.7697 14.1724 20.8401C14.0021 20.9104 13.8196 20.9464 13.6353 20.946H11.2754C11.0913 20.9461 10.9091 20.9099 10.739 20.8395C10.5689 20.7692 10.4144 20.666 10.2842 20.5359L4.6035 14.8541C4.34191 14.5906 4.19522 14.2343 4.19549 13.863V13.7476C4.19578 13.376 4.34324 13.0196 4.6056 12.7564L12.7553 4.6077C13.0161 4.34532 13.3703 4.19708 13.7402 4.19549H23.0437C23.2278 4.19541 23.41 4.23158 23.5801 4.30195C23.7502 4.37232 23.9047 4.4755 24.0349 4.6056L29.66 10.2318C29.758 10.33 29.883 10.397 30.0191 10.4241C30.1552 10.4513 30.2963 10.4374 30.4245 10.3842C30.5526 10.3311 30.6622 10.2411 30.7391 10.1256C30.8161 10.0101 30.8571 9.87441 30.8568 9.73564V6.06458C30.8566 5.69274 30.7087 5.33622 30.4456 5.0734L25.7739 0.410109C25.5109 0.14755 25.1544 6.02565e-05 24.7828 0L12.0043 0C11.6327 0.000289607 11.2763 0.147744 11.0132 0.410109L0.410109 11.0132C0.147488 11.2766 1.21931e-05 11.6334 1.52187e-08 12.0054V15.6051C-5.47043e-05 15.9768 0.147452 16.3333 0.410109 16.5963L8.54726 24.7335C8.81025 24.9961 9.16676 25.1436 9.53845 25.1436Z" fill="white"/>
<path d="M21.3184 8.40045H15.4814C15.1098 8.40074 14.7534 8.5482 14.4902 8.81056L10.0209 13.2809C9.95584 13.3459 9.90419 13.4232 9.86895 13.5082C9.83371 13.5933 9.81557 13.6844 9.81557 13.7764C9.81557 13.8685 9.83371 13.9596 9.86895 14.0447C9.90419 14.1297 9.95584 14.207 10.0209 14.272L11.9981 16.2481C12.0631 16.3132 12.1404 16.3649 12.2254 16.4001C12.3105 16.4354 12.4016 16.4535 12.4937 16.4535C12.5857 16.4535 12.6769 16.4354 12.7619 16.4001C12.8469 16.3649 12.9242 16.3132 12.9893 16.2481L16.2292 13.0061C16.3593 12.8759 16.5139 12.7726 16.684 12.7022C16.854 12.6319 17.0363 12.5957 17.2204 12.5959H19.5804C19.7644 12.5959 19.9467 12.632 20.1168 12.7024C20.2868 12.7728 20.4414 12.8759 20.5716 13.0061L26.2533 18.6878C26.5157 18.951 26.6631 19.3074 26.6634 19.679V19.7944C26.6631 20.166 26.5157 20.5224 26.2533 20.7855L18.1036 28.9342C17.9735 29.0645 17.819 29.1678 17.6489 29.2382C17.4788 29.3086 17.2965 29.3447 17.1124 29.3443H7.81307C7.62846 29.3453 7.44548 29.3097 7.27466 29.2397C7.10384 29.1696 6.94854 29.0666 6.81769 28.9363L1.19678 23.3102C1.0986 23.2117 0.973342 23.1447 0.836953 23.1176C0.700565 23.0906 0.559212 23.1047 0.430886 23.1583C0.30256 23.2118 0.193064 23.3023 0.116335 23.4183C0.0396069 23.5342 -0.000884607 23.6704 1.46599e-05 23.8094V27.4805C0.000238154 27.8523 0.148131 28.2089 0.411173 28.4717L5.08285 33.1339C5.34604 33.3963 5.70242 33.5437 6.07404 33.544H18.8525C19.2241 33.5437 19.5805 33.3963 19.8436 33.1339L30.4467 22.5298C30.7091 22.2666 30.8565 21.9103 30.8568 21.5386V17.9358C30.8569 17.5641 30.7093 17.2076 30.4467 16.9446L22.3095 8.81056C22.0465 8.5479 21.69 8.4004 21.3184 8.40045Z" fill="white"/>
</svg>
