<svg width="24" height="25" viewBox="0 0 24 25" fill="none" xmlns="http://www.w3.org/2000/svg">
  <path fill-rule="evenodd" clip-rule="evenodd" d="M12 3.75C9.5556 3.75 9.2496 3.7602 8.2896 3.804C7.3314 3.8478 6.6768 4.0002 6.1044 4.2228C5.5044 4.4484 4.9602 4.8024 4.5102 5.2608C4.05253 5.71028 3.69831 6.2541 3.4722 6.8544C3.2508 7.4268 3.0978 8.082 3.054 9.0402C3.0108 9.9996 3 10.305 3 12.75C3 15.195 3.0102 15.5004 3.054 16.4604C3.0978 17.4186 3.2502 18.0732 3.4728 18.6456C3.6984 19.2456 4.0524 19.7898 4.5108 20.2398C4.96029 20.6975 5.50411 21.0517 6.1044 21.2778C6.6768 21.4998 7.3314 21.6522 8.2896 21.696C9.2496 21.7398 9.5556 21.75 12 21.75C14.4444 21.75 14.7504 21.7398 15.7104 21.696C16.6686 21.6522 17.3232 21.4998 17.8956 21.2772C18.4956 21.0516 19.0398 20.6976 19.4898 20.2392C19.9475 19.7897 20.3017 19.2459 20.5278 18.6456C20.7498 18.0732 20.9022 17.4186 20.946 16.4604C20.9898 15.5004 21 15.1944 21 12.75C21 10.3056 20.9898 9.9996 20.946 9.0396C20.9022 8.0814 20.7498 7.4268 20.5272 6.8544C20.3012 6.25384 19.947 5.70979 19.4892 5.2602C19.0397 4.80253 18.4959 4.44831 17.8956 4.2222C17.3232 4.0008 16.668 3.8478 15.7098 3.804C14.7504 3.7608 14.445 3.75 12 3.75ZM12 5.3718C14.403 5.3718 14.688 5.3808 15.6372 5.424C16.5144 5.4642 16.9908 5.61 17.3082 5.7342C17.7282 5.8968 18.0282 6.0924 18.3432 6.4068C18.6582 6.7218 18.8532 7.0218 19.0158 7.4418C19.1394 7.7592 19.2858 8.2356 19.326 9.1128C19.3692 10.062 19.3782 10.347 19.3782 12.75C19.3782 15.153 19.3692 15.438 19.326 16.3872C19.2858 17.2644 19.14 17.7408 19.0158 18.0582C18.8718 18.4491 18.6419 18.8028 18.3432 19.0932C18.0528 19.392 17.6992 19.6218 17.3082 19.7658C16.9908 19.8894 16.5144 20.0358 15.6372 20.076C14.688 20.1192 14.4036 20.1282 12 20.1282C9.5964 20.1282 9.312 20.1192 8.3628 20.076C7.4856 20.0358 7.0092 19.89 6.6918 19.7658C6.30087 19.6218 5.9472 19.3919 5.6568 19.0932C5.35811 18.8028 5.12828 18.4491 4.9842 18.0582C4.8606 17.7408 4.7142 17.2644 4.674 16.3872C4.6308 15.438 4.6218 15.153 4.6218 12.75C4.6218 10.347 4.6308 10.062 4.674 9.1128C4.7142 8.2356 4.86 7.7592 4.9842 7.4418C5.1468 7.0218 5.3424 6.7218 5.6568 6.4068C5.94716 6.10803 6.30085 5.87819 6.6918 5.7342C7.0092 5.6106 7.4856 5.4642 8.3628 5.424C9.312 5.3808 9.597 5.3718 12 5.3718Z" fill="#171717"/>
  <path fill-rule="evenodd" clip-rule="evenodd" d="M12 15.753C11.6056 15.753 11.2151 15.6753 10.8508 15.5244C10.4865 15.3735 10.1554 15.1523 9.87656 14.8734C9.5977 14.5946 9.3765 14.2635 9.22559 13.8992C9.07467 13.5348 8.997 13.1443 8.997 12.75C8.997 12.3556 9.07467 11.9651 9.22559 11.6008C9.3765 11.2364 9.5977 10.9054 9.87656 10.6265C10.1554 10.3477 10.4865 10.1265 10.8508 9.97556C11.2151 9.82465 11.6056 9.74697 12 9.74697C12.7964 9.74697 13.5603 10.0634 14.1234 10.6265C14.6866 11.1897 15.003 11.9535 15.003 12.75C15.003 13.5464 14.6866 14.3102 14.1234 14.8734C13.5603 15.4366 12.7964 15.753 12 15.753ZM12 8.12397C10.7731 8.12397 9.59647 8.61135 8.72892 9.4789C7.86138 10.3464 7.374 11.5231 7.374 12.75C7.374 13.9769 7.86138 15.1535 8.72892 16.021C9.59647 16.8886 10.7731 17.376 12 17.376C13.2269 17.376 14.4035 16.8886 15.2711 16.021C16.1386 15.1535 16.626 13.9769 16.626 12.75C16.626 11.5231 16.1386 10.3464 15.2711 9.4789C14.4035 8.61135 13.2269 8.12397 12 8.12397ZM17.9718 8.03997C17.9718 8.32999 17.8566 8.60812 17.6515 8.81319C17.4464 9.01826 17.1683 9.13347 16.8783 9.13347C16.5883 9.13347 16.3101 9.01826 16.1051 8.81319C15.9 8.60812 15.7848 8.32999 15.7848 8.03997C15.7848 7.74996 15.9 7.47182 16.1051 7.26675C16.3101 7.06168 16.5883 6.94647 16.8783 6.94647C17.1683 6.94647 17.4464 7.06168 17.6515 7.26675C17.8566 7.47182 17.9718 7.74996 17.9718 8.03997Z" fill="#171717"/>
</svg>