<svg width="24" height="25" viewBox="0 0 24 25" fill="none" xmlns="http://www.w3.org/2000/svg">
  <path d="M21 5.07353V20.4265C21 20.7775 20.8606 21.1141 20.6123 21.3623C20.3641 21.6106 20.0275 21.75 19.6765 21.75H4.32353C3.97251 21.75 3.63586 21.6106 3.38765 21.3623C3.13944 21.1141 3 20.7775 3 20.4265V5.07353C3 4.72251 3.13944 4.38586 3.38765 4.13765C3.63586 3.88944 3.97251 3.75 4.32353 3.75H19.6765C20.0275 3.75 20.3641 3.88944 20.6123 4.13765C20.8606 4.38586 21 4.72251 21 5.07353ZM8.29412 10.6324H5.64706V19.1029H8.29412V10.6324ZM8.53235 7.72059C8.53375 7.52036 8.49569 7.32182 8.42035 7.1363C8.34502 6.95078 8.23387 6.78191 8.09328 6.63935C7.95268 6.49678 7.78537 6.3833 7.60091 6.3054C7.41646 6.22749 7.21846 6.18668 7.01824 6.18529H6.97059C6.5634 6.18529 6.17289 6.34705 5.88497 6.63497C5.59705 6.92289 5.43529 7.3134 5.43529 7.72059C5.43529 8.12777 5.59705 8.51828 5.88497 8.80621C6.17289 9.09413 6.5634 9.25588 6.97059 9.25588C7.17083 9.26081 7.37008 9.22623 7.55696 9.15413C7.74383 9.08202 7.91467 8.9738 8.0597 8.83565C8.20474 8.69749 8.32113 8.53212 8.40223 8.34897C8.48333 8.16582 8.52755 7.96848 8.53235 7.76824V7.72059ZM18.3529 13.9571C18.3529 11.4106 16.7329 10.4206 15.1235 10.4206C14.5966 10.3942 14.0719 10.5064 13.6019 10.7461C13.1318 10.9858 12.7328 11.3445 12.4447 11.7865H12.3706V10.6324H9.88235V19.1029H12.5294V14.5976C12.4911 14.1362 12.6365 13.6783 12.9339 13.3235C13.2313 12.9686 13.6567 12.7454 14.1176 12.7024H14.2182C15.06 12.7024 15.6847 13.2318 15.6847 14.5659V19.1029H18.3318L18.3529 13.9571Z" fill="#171717"/>
</svg>