<svg width="62" height="62" viewBox="0 0 62 62" fill="none" xmlns="http://www.w3.org/2000/svg">
<g clip-path="url(#clip0_13_615)">
<path d="M36.7287 9.6358C35.6278 7.90298 35.9799 6.76021 36.5875 5.58046C37.1314 4.52441 37.3535 2.68914 35.4318 1.24476C37.2012 0.593519 39.9933 1.74498 40.0414 3.85427C39.0146 5.26703 36.21 5.82841 36.7287 9.6358ZM49.4325 48.5753C48.5734 51.3598 48.9652 52.8414 45.2292 58.6227C51.8346 54.1635 54.9512 48.4062 55.9797 41.8719C56.6255 44.5965 56.6865 47.0681 56.4328 49.4035C61.9066 42.1971 65.6572 27.6654 53.0421 13.058C52.5346 19.5148 46.29 24.5988 39.0882 22.6053C51.4364 21.244 52.2278 5.54234 41.6196 1.91667C41.8268 6.28496 35.8668 4.85454 37.6195 10.6984C31.5489 7.26379 18.2856 6.5579 13.0128 11.7687C10.2946 14.455 8.43917 16.6766 5.04202 16.8233C2.23701 16.9445 -1.46693 21.4961 3.35227 23.824C3.81256 25.7637 5.43012 26.8682 6.36806 27.0585C6.13479 30.5128 6.86958 28.7516 7.94629 27.246C7.5845 31.6124 8.18072 30.0395 9.86825 27.7929C24.1454 24.9055 32.0302 36.5487 32.1193 43.7C32.0566 42.4025 29.9824 40.8936 28.8848 41.3092C28.1432 42.8804 27.3351 44.214 26.3378 44.8719C26.4421 43.8302 26.3709 42.7885 26.1816 41.7467C25.8528 43.0065 25.2336 44.3146 24.244 45.6844C22.2755 45.7943 19.5205 44.3301 20.3219 41.903C21.4523 39.5426 19.235 39.0518 17.4486 39.7276C16.1063 40.2353 15.1992 41.6417 15.0751 42.0789C14.6274 43.6563 14.7747 47.1776 17.8374 49.5128C17.0345 49.6606 16.2102 49.7924 15.6498 50.1222C20.8596 53.273 26.1772 52.2084 29.1385 51.0194C33.9869 49.0727 37.3309 43.6845 37.854 39.5279C39.1997 45.3744 36.7888 51.8721 31.3847 55.3569C32.9287 55.5204 35.9509 54.4744 39.0414 53.3724C36.7051 56.3126 33.9124 59.1006 29.3378 61.2947C38.3484 60.5399 44.9393 56.0157 49.4325 48.5753Z" fill="white"/>
</g>
<defs>
<clipPath id="clip0_13_615">
<rect width="60.5779" height="60.5779" fill="white" transform="translate(0.980957 0.889893)"/>
</clipPath>
</defs>
</svg>
