<svg width="58" height="58" viewBox="0 0 58 58" fill="none" xmlns="http://www.w3.org/2000/svg">
<g clip-path="url(#clip0_13_599)">
<path d="M26.7478 0.411763C26.6248 0.42295 26.2332 0.462104 25.8807 0.490072C17.7522 1.22282 10.1384 5.60808 5.31617 12.3482C2.63092 16.0958 0.913476 20.3468 0.264539 24.8496C0.0351735 26.4213 0.00720215 26.8856 0.00720215 29.0167C0.00720215 31.1478 0.0351735 31.612 0.264539 33.1838C1.81975 43.9288 9.46711 52.9566 19.8389 56.3015C21.6962 56.9 23.6542 57.3083 25.8807 57.5545C26.7478 57.6498 30.496 57.6498 31.3631 57.5545C35.2064 57.1294 38.4622 56.1784 41.6734 54.5396C42.1656 54.2879 42.2608 54.2207 42.1936 54.1648C42.1489 54.1313 40.051 51.3178 37.5336 47.9169L32.9575 41.7362L27.2233 33.2509C24.0682 28.586 21.4724 24.7712 21.45 24.7712C21.4277 24.7657 21.4053 28.5357 21.3941 33.139C21.3773 41.1992 21.3717 41.5236 21.271 41.7138C21.1256 41.9879 21.0137 42.0998 20.7787 42.2228C20.5997 42.3123 20.4431 42.3291 19.5984 42.3291H18.6305L18.3732 42.1668C18.2054 42.0606 18.0823 41.9208 17.9984 41.7586L17.8809 41.5068L17.8921 30.292L17.9088 19.0715L18.0823 18.8534C18.1718 18.7359 18.362 18.5849 18.4963 18.5122C18.7256 18.4003 18.8151 18.3891 19.7829 18.3891C20.9242 18.3891 21.1144 18.4339 21.4109 18.7583C21.4948 18.8477 24.5997 23.5239 28.3142 29.1565C32.0288 34.7891 37.1084 42.4801 39.6035 46.2557L44.1348 53.1188L44.3642 52.9678C46.3949 51.6478 48.5431 49.7683 50.2437 47.8106C53.8633 43.6548 56.1961 38.587 56.9792 33.1838C57.2086 31.612 57.2366 31.1478 57.2366 29.0167C57.2366 26.8856 57.2086 26.4213 56.9792 24.8496C55.424 14.1045 47.7767 5.0767 37.4049 1.73182C35.5756 1.13891 33.6288 0.730589 31.447 0.484478C30.9099 0.428543 27.2122 0.367015 26.7478 0.411763ZM38.4622 17.7179C38.7307 17.8521 38.949 18.1094 39.0272 18.3779C39.072 18.5234 39.0832 21.6333 39.072 28.6419L39.0552 38.6989L37.2819 35.9805L35.5029 33.2621V25.9515C35.5029 21.225 35.5253 18.5681 35.5588 18.4395C35.6483 18.1262 35.8441 17.8801 36.1127 17.7347C36.342 17.6172 36.4259 17.606 37.3042 17.606C38.1322 17.606 38.2776 17.6172 38.4622 17.7179Z" fill="white"/>
</g>
<defs>
<clipPath id="clip0_13_599">
<rect width="57.2294" height="57.2294" fill="white" transform="translate(0.00756836 0.39624)"/>
</clipPath>
</defs>
</svg>
