<svg width="56" height="56" viewBox="0 0 56 56" fill="none" xmlns="http://www.w3.org/2000/svg">
<g clip-path="url(#clip0_13_611)">
<path d="M27.6226 1.82263C29.4986 1.82263 31.1611 1.95555 32.6096 2.22018C34.0573 2.48601 35.21 2.8221 36.0666 3.22963C36.9236 3.63716 37.6576 4.09658 38.2695 4.60589C38.8814 5.1168 39.2997 5.62651 39.5244 6.13582C39.7479 6.64593 39.9224 7.10535 40.0441 7.51248C40.1666 7.92041 40.2065 8.26807 40.1666 8.55226V8.91948V20.668C40.1666 21.9736 39.9315 23.1156 39.4625 24.0939C38.9931 25.0738 38.412 25.7771 37.7191 26.2054C37.0245 26.6333 36.3424 26.9697 35.6686 27.2148C34.9957 27.4591 34.4345 27.582 33.9862 27.582L33.2518 27.6427H21.0147C19.6273 27.6427 18.4342 27.9085 17.4352 28.4382C16.4349 28.9683 15.7216 29.6009 15.2933 30.3354C14.8651 31.0694 14.5282 31.8038 14.2839 32.5378C14.0392 33.2723 13.8959 33.9053 13.8556 34.435V35.2305V41.5937H9.51089C9.42867 41.5937 9.29655 41.5937 9.11294 41.5937C8.93013 41.5937 8.59325 41.5227 8.10349 41.3798C7.61414 41.2369 7.13437 41.0225 6.66577 40.7371C6.19637 40.4526 5.68666 39.9824 5.13623 39.3298C4.58541 38.6775 4.10523 37.9028 3.6985 37.0043C3.29017 36.1082 2.95329 34.9152 2.68906 33.4256C2.42323 31.9367 2.29111 30.2543 2.29111 28.3779C2.29111 26.9087 2.38251 25.5631 2.56612 24.3394C2.74973 23.116 3.00359 22.0862 3.33129 21.25C3.65739 20.4137 4.02381 19.6589 4.43213 18.9852C4.83966 18.3118 5.27873 17.7921 5.74813 17.4257C6.21593 17.0585 6.67535 16.7324 7.12479 16.4458C7.57303 16.1608 8.01169 15.978 8.43998 15.8958C8.86826 15.8144 9.23548 15.7425 9.54163 15.6818C9.84737 15.6208 10.1016 15.6104 10.306 15.6507H10.6121H27.8669V13.8154H15.5077V7.69649C15.4666 7.53404 15.4562 7.32009 15.477 7.05426C15.4969 6.78963 15.6913 6.31983 16.0585 5.64727C16.4257 4.9735 16.9861 4.38277 17.7409 3.87266C18.4953 3.36294 19.7295 2.89355 21.443 2.46566C23.1558 2.03697 25.2158 1.82263 27.6226 1.82263ZM28.0513 55.0554C26.1741 55.0554 24.5117 54.9229 23.0644 54.6586C21.6158 54.392 20.4639 54.0559 19.6073 53.6488C18.7504 53.2408 18.0163 52.7814 17.4044 52.2721C16.7925 51.7612 16.3734 51.2515 16.1495 50.7422C15.9248 50.2329 15.7516 49.7738 15.6298 49.3655C15.5073 48.9584 15.4662 48.6111 15.5073 48.3257V47.9585V36.21C15.5073 34.9052 15.742 33.7624 16.2114 32.7841C16.6792 31.805 17.2607 31.1009 17.9549 30.6726C18.6482 30.2447 19.3315 29.9083 20.0053 29.6632C20.6782 29.4189 21.2383 29.276 21.6877 29.2353H22.4221H34.6592C36.0458 29.2353 37.2393 28.9699 38.2388 28.4398C39.2374 27.9101 39.9523 27.2771 40.3806 26.5427C40.8089 25.8086 41.1457 25.075 41.39 24.3402C41.6347 23.6057 41.7772 22.9735 41.8183 22.443V21.6475V15.2835H46.163C46.2441 15.2835 46.3774 15.2835 46.561 15.2835C46.7438 15.2835 47.0807 15.3557 47.5704 15.4974C48.0598 15.6411 48.5384 15.8551 49.0082 16.1401C49.4764 16.4258 49.9873 16.8952 50.5377 17.5475C51.0885 18.2005 51.5571 18.9752 51.9451 19.8729C52.3323 20.7702 52.6687 21.9628 52.9545 23.4516C53.2395 24.9417 53.3828 26.6237 53.3828 28.4993C53.3828 30.3765 53.2303 32.0489 52.9242 33.5174C52.6184 34.985 52.2209 36.1581 51.7311 37.035C51.2418 37.9128 50.7001 38.6564 50.1098 39.2687C49.5179 39.8802 48.9267 40.3085 48.3352 40.5535C47.7441 40.7986 47.2036 40.9814 46.7139 41.1044C46.2245 41.2269 45.8361 41.268 45.5511 41.2269H45.0618H27.807V43.0622H40.167V49.1811C40.207 49.3448 40.2173 49.5587 40.1978 49.8241C40.1766 50.0892 39.9834 50.5578 39.6162 51.2303C39.249 51.9041 38.6882 52.4948 37.9338 53.005C37.1778 53.5147 35.9452 53.9841 34.2317 54.4119C32.5182 54.841 30.4578 55.0554 28.0513 55.0554ZM22.391 6.59524C21.9627 6.1466 21.443 5.92148 20.8311 5.92148C20.2192 5.92148 19.6991 6.1462 19.2705 6.59524C18.8422 7.04468 18.6282 7.59511 18.6282 8.24731C18.6282 8.90032 18.8422 9.45114 19.2705 9.89939C19.6987 10.3488 20.2192 10.5731 20.8311 10.5731C21.443 10.5731 21.9627 10.3488 22.391 9.89939C22.8201 9.45114 23.034 8.90032 23.034 8.24731C23.034 7.59511 22.8201 7.04468 22.391 6.59524ZM33.2829 50.2828C33.7112 50.7322 34.2309 50.9565 34.8428 50.9565C35.4547 50.9565 35.9748 50.7322 36.4035 50.2828C36.8318 49.8345 37.0457 49.2845 37.0457 48.6307C37.0457 47.9789 36.8318 47.4281 36.4035 46.9786C35.9752 46.5304 35.4547 46.3056 34.8428 46.3056C34.2309 46.3056 33.7112 46.53 33.2829 46.9786C32.8538 47.4281 32.6399 47.9789 32.6399 48.6307C32.6399 49.2845 32.8538 49.8345 33.2829 50.2828Z" fill="white"/>
</g>
<defs>
<clipPath id="clip0_13_611">
<rect width="55.0985" height="55.0985" fill="white" transform="translate(0.287811 0.889893)"/>
</clipPath>
</defs>
</svg>
