<svg width="22" height="14" viewBox="0 0 22 14" fill="none" xmlns="http://www.w3.org/2000/svg">
<path fill-rule="evenodd" clip-rule="evenodd" d="M14.2194 1.26791C14.3679 0.881208 14.8017 0.68806 15.1884 0.836501L21.1297 3.11714C21.3154 3.18842 21.4651 3.33056 21.546 3.51227C21.627 3.69399 21.6324 3.9004 21.5611 4.0861L19.2804 10.0274C19.132 10.4141 18.6982 10.6072 18.3115 10.4588C17.9248 10.3103 17.7316 9.87652 17.8801 9.48982L19.5118 5.23895L18.4253 5.72269C15.9721 6.81494 14.1036 8.67574 12.975 10.8962C12.8662 11.1104 12.6614 11.2594 12.4241 11.2971C12.1869 11.3348 11.946 11.2566 11.7761 11.0867L8 7.31065L1.78033 13.5303C1.48744 13.8232 1.01256 13.8232 0.71967 13.5303C0.426777 13.2374 0.426777 12.7626 0.71967 12.4697L7.46967 5.71966C7.61032 5.57901 7.80109 5.49999 8 5.49999C8.19891 5.49999 8.38968 5.57901 8.53033 5.71966L12.1363 9.32566C13.4369 7.20455 15.3711 5.44058 17.8152 4.35238L18.9017 3.86863L14.6508 2.23687C14.2641 2.08843 14.071 1.65461 14.2194 1.26791Z" fill="white" fill-opacity="0.5"/>
</svg>
