<svg width="173" height="26" viewBox="0 0 173 26" fill="none" xmlns="http://www.w3.org/2000/svg">
<path d="M9.68937 0.91394C4.4453 0.91394 0.97241 3.65836 0.97241 7.91221C0.97241 11.3427 3.02142 13.5726 7.432 14.3959L11.5647 15.1849C14.3431 15.6652 15.2808 16.9345 15.2808 18.341C15.2808 20.5022 13.3707 21.7715 10.2798 21.7715C6.52904 21.7715 4.16748 20.0219 3.71601 17.0717H0C0.451476 22.0802 4.30639 25.0648 10.0714 25.0648C15.4891 25.0648 19.101 22.2518 19.101 17.895C19.101 14.293 16.5657 12.4405 12.1552 11.5828L8.8559 10.931C6.32067 10.4508 4.93152 9.49025 4.93152 7.63775C4.93152 5.37362 6.91108 4.10432 9.9325 4.10432C13.3707 4.10432 15.0724 5.61374 15.4891 8.08374H19.1704C18.6147 2.69781 14.0305 0.91394 9.68937 0.91394Z" fill="white"/>
<path d="M40.8459 4.72184V1.32562H23.8982V24.6532H40.8459V21.2226H27.6489V14.8076H39.4568V11.4113H27.6489V4.72184H40.8459Z" fill="white"/>
<path d="M53.7112 0.91394C48.4672 0.91394 44.9941 3.65836 44.9941 7.91221C44.9941 11.3427 47.0432 13.5726 51.4536 14.3959L55.5864 15.1849C58.3646 15.6652 59.3026 16.9345 59.3026 18.341C59.3026 20.5022 57.3925 21.7715 54.3015 21.7715C50.5509 21.7715 48.1893 20.0219 47.7378 17.0717H44.0216C44.4732 22.0802 48.3281 25.0648 54.0931 25.0648C59.5107 25.0648 63.1226 22.2518 63.1226 17.895C63.1226 14.293 60.5874 12.4405 56.1767 11.5828L52.8776 10.931C50.3424 10.4508 48.9533 9.49025 48.9533 7.63775C48.9533 5.37362 50.9327 4.10432 53.9543 4.10432C57.3925 4.10432 59.0941 5.61374 59.5107 8.08374H63.192C62.6366 2.69781 58.0522 0.91394 53.7112 0.91394Z" fill="white"/>
<path d="M76.0272 0.91394C70.7832 0.91394 67.3101 3.65836 67.3101 7.91221C67.3101 11.3427 69.3592 13.5726 73.7699 14.3959L77.9024 15.1849C80.6809 15.6652 81.6185 16.9345 81.6185 18.341C81.6185 20.5022 79.7085 21.7715 76.6175 21.7715C72.8668 21.7715 70.5053 20.0219 70.0538 17.0717H66.3376C66.7891 22.0802 70.6441 25.0648 76.409 25.0648C81.827 25.0648 85.4386 22.2518 85.4386 17.895C85.4386 14.293 82.9034 12.4405 78.493 11.5828L75.1936 10.931C72.6584 10.4508 71.2692 9.49025 71.2692 7.63775C71.2692 5.37362 73.249 4.10432 76.2702 4.10432C79.7085 4.10432 81.41 5.61374 81.827 8.08374H85.508C84.9525 2.69781 80.3682 0.91394 76.0272 0.91394Z" fill="white"/>
<path d="M90.2363 1.32562V24.6532H93.9869V1.32562H90.2363Z" fill="white"/>
<path d="M111.126 0.91394C104.32 0.91394 98.8325 6.26555 98.8325 12.9894C98.8325 19.7132 104.32 25.0648 111.126 25.0648C117.934 25.0648 123.421 19.7132 123.421 12.9894C123.421 6.26555 117.934 0.91394 111.126 0.91394ZM111.126 21.6C106.299 21.6 102.618 17.7578 102.618 12.9894C102.618 8.22096 106.299 4.34445 111.126 4.34445C115.954 4.34445 119.635 8.22096 119.635 12.9894C119.635 17.7578 115.954 21.6 111.126 21.6Z" fill="white"/>
<path d="M145.202 1.32562V18.1352L131.137 1.32562H128.255V24.6532H132.005V8.18667L145.932 24.6532H148.918V1.32562H145.202Z" fill="white"/>
<path d="M163.29 0.91394C158.046 0.91394 154.574 3.65836 154.574 7.91221C154.574 11.3427 156.622 13.5726 161.033 14.3959L165.166 15.1849C167.944 15.6652 168.882 16.9345 168.882 18.341C168.882 20.5022 166.972 21.7715 163.881 21.7715C160.13 21.7715 157.769 20.0219 157.317 17.0717H153.601C154.052 22.0802 157.907 25.0648 163.673 25.0648C169.09 25.0648 172.702 22.2518 172.702 17.895C172.702 14.293 170.167 12.4405 165.756 11.5828L162.457 10.931C159.922 10.4508 158.532 9.49025 158.532 7.63775C158.532 5.37362 160.512 4.10432 163.534 4.10432C166.972 4.10432 168.674 5.61374 169.09 8.08374H172.772C172.216 2.69781 167.631 0.91394 163.29 0.91394Z" fill="white"/>
</svg>
