<svg width="58" height="58" viewBox="0 0 58 58" fill="none" xmlns="http://www.w3.org/2000/svg">
<g clip-path="url(#clip0_13_593)">
<path d="M49.9299 7.95857C44.6957 0.357787 34.4489 -1.83928 26.5584 2.94787L13.2097 11.4339C11.4055 12.5642 9.85938 14.0614 8.67174 15.8283C7.4841 17.5952 6.68153 19.5922 6.31621 21.6896C5.6679 25.2139 6.22976 28.8538 7.91059 32.0186C6.76218 33.7449 5.99041 35.6939 5.64555 37.7384C5.26802 39.8704 5.31833 42.0563 5.79354 44.1686C6.26875 46.281 7.15938 48.2778 8.41358 50.0427C13.6568 57.6256 23.8758 59.833 31.7837 55.1004L45.1428 46.6054C46.9401 45.4705 48.4797 43.9715 49.6621 42.205C50.8446 40.4386 51.6438 38.444 52.0081 36.3497C52.6488 32.8363 52.0838 29.2094 50.4048 26.0574C53.9539 20.4882 53.767 13.3238 49.9299 7.95857ZM25.2256 50.7791C23.129 51.3241 20.9156 51.2118 18.8849 50.4575C16.8542 49.7031 15.1042 48.3432 13.8718 46.5616C12.3244 44.4186 11.757 41.7727 12.2041 39.1459L12.4657 37.8797L12.7071 37.0973L13.4247 37.5721C14.9985 38.765 16.7601 39.6207 18.6415 40.1988L19.1253 40.3665L19.0708 40.8436C19.0238 41.5053 19.2192 42.2493 19.6019 42.8171C20.3844 43.9438 21.7449 44.4848 23.0567 44.1302C23.3446 44.0377 23.6259 43.9433 23.8669 43.7931L37.17 35.3089C37.8407 34.8792 38.2686 34.2367 38.4362 33.473C38.5829 32.6803 38.3888 31.8702 37.9596 31.2286C37.1664 30.1287 35.8166 29.6347 34.5048 29.9628C34.2164 30.0639 33.9093 30.1774 33.6647 30.3259L28.6348 33.5204C23.8758 36.3497 17.7281 35.0205 14.5689 30.4658C13.808 29.4045 13.2677 28.2014 12.9797 26.9277C12.6917 25.654 12.662 24.3355 12.8922 23.0501C13.123 21.7776 13.6186 20.5678 14.3469 19.4991C15.0752 18.4304 16.02 17.5267 17.12 16.8466L30.3955 8.36051C31.2338 7.8383 32.1365 7.45736 33.1148 7.16764C37.4092 6.04988 41.9344 7.73546 44.4686 11.3677C45.3506 12.6097 45.9326 14.0393 46.1687 15.5442C46.4048 17.0491 46.2885 18.5883 45.8291 20.0407L45.5863 20.8321L44.8982 20.3572C43.3095 19.1948 41.5372 18.307 39.655 17.7305L39.1784 17.5905L39.2258 17.1139C39.2727 16.4151 39.0774 15.6801 38.6946 15.1109C37.9104 13.9842 36.5517 13.5089 35.2399 13.8443C34.9519 13.9386 34.6707 14.0311 34.4297 14.1814L21.1002 22.7412C20.4295 23.1883 20.0003 23.8116 19.8604 24.594C19.7209 25.3572 19.9077 26.1955 20.337 26.8103C21.1006 27.9388 22.4875 28.4136 23.7743 28.0765C24.0815 27.9839 24.3699 27.8914 24.6037 27.7412L29.6895 24.4979C30.5193 23.9497 31.4502 23.55 32.4021 23.2876C36.7247 22.1609 41.2324 23.8572 43.7559 27.5073C45.3033 29.6503 45.8988 32.2945 45.4692 34.8935C45.249 36.1627 44.7636 37.3712 44.0446 38.4401C43.3257 39.509 42.3893 40.4142 41.2968 41.0966L27.9936 49.5643C27.1285 50.0872 26.1985 50.4941 25.2274 50.7747L25.2256 50.7791Z" fill="white"/>
</g>
<defs>
<clipPath id="clip0_13_593">
<rect width="57.2294" height="57.2294" fill="white" transform="translate(0.61731 0.39624)"/>
</clipPath>
</defs>
</svg>
